<svg width="32" height="32" viewBox="0 0 32 32" fill="none" xmlns="http://www.w3.org/2000/svg">
<g clip-path="url(#clip0_1262_428)">
<path d="M15.888 0.570312H16.084L16.336 0.654313L16.532 0.878313L16.588 1.01831V1.32631L16.476 1.52231L16.308 1.69031V2.95031L16.952 3.00631L17.428 3.11831L17.708 3.23031L17.792 3.31431L17.82 3.48231V4.32231L17.792 4.91031L18.24 4.99431L18.996 5.24631L19.556 5.49831L20.144 5.86231L20.536 6.17031L20.9 6.50631L21.152 6.78631L21.516 7.26231L21.796 7.76631L22.048 8.35431L22.216 8.94231L22.58 9.30631L22.776 9.64231L22.916 10.0343L22.944 10.3143L24.232 10.2863L24.456 10.0903L24.652 10.0343L24.932 10.0623L25.1 10.1463L25.268 10.3423L25.324 10.4543V10.7903L25.212 10.9863L25.016 11.1543L24.792 11.2383L24.568 11.2103L24.316 11.0703L24.204 10.9303H22.944L22.86 11.3223L22.636 11.7703L22.328 12.1343L21.992 12.3863L21.488 12.6663L20.9 12.8903L20.256 13.1143L19.752 13.3943L19.472 13.5623L18.8 13.8423L18.072 14.0663L17.428 14.2063L16.672 14.2903L16.168 14.3183H15.776L14.964 14.2623L14.18 14.1503L13.592 13.9823L12.948 13.7583L12.5 13.5623L11.94 13.2263L11.66 13.0863L11.072 12.8903L10.512 12.6663L9.95201 12.3583L9.67201 12.1343L9.44801 11.9103L9.22401 11.5463L9.11201 11.2663L9.02801 10.9303H7.79601L7.54401 11.1543L7.32001 11.2383L7.06801 11.2103L6.81601 11.0423L6.67601 10.8183L6.64801 10.5383L6.76001 10.2863L6.98401 10.0903L7.15201 10.0343H7.37601L7.60001 10.1183L7.74001 10.2863L7.88001 10.3143H9.05601L9.08401 10.0063L9.22401 9.64231L9.39201 9.33431L9.56001 9.13831H9.61601L9.67201 9.02631L9.81201 8.88631L9.92401 8.41031L10.12 7.93431L10.428 7.34631L10.652 7.03831L10.904 6.73031L11.156 6.45031L11.352 6.25431L11.744 5.94631L12.164 5.66631L12.612 5.41431L13.2 5.16231L13.732 4.99431L14.18 4.91031V3.31431L14.348 3.20231L14.852 3.03431L15.244 2.97831H15.692V1.71831L15.552 1.57831L15.44 1.43831L15.384 1.24231L15.412 0.990313L15.58 0.710313L15.776 0.598313L15.888 0.570312ZM15.776 3.53831L15.244 3.56631L14.768 3.65031L14.74 4.79831L15.3 4.77031H16.616L17.232 4.79831V3.67831L17.148 3.62231L16.728 3.56631L16.168 3.53831H15.776ZM15.692 5.30231L14.852 5.35831L14.432 5.41431L14.488 5.52631L14.768 5.94631L14.992 6.42231L15.216 7.03831L15.412 7.79431L15.496 8.18631L15.552 8.69031L15.58 9.19431L15.608 9.25031H16.392L16.476 8.32631L16.644 7.48631L16.868 6.75831L17.12 6.17031L17.316 5.80631L17.54 5.47031V5.41431L17.148 5.35831L16.168 5.30231H15.692ZM13.788 5.58231L13.144 5.80631L12.864 5.91831V6.00231L13.088 6.19831L13.284 6.39431L13.536 6.73031L13.788 7.15031L13.872 7.17831L14.572 7.03831L14.6 6.98231L14.32 6.33831L14.096 5.94631L13.816 5.58231H13.788ZM18.156 5.61031L17.932 5.89031L17.708 6.28231L17.428 6.87031L17.4 7.01031L17.568 7.06631L18.016 7.15031H18.212L18.436 6.75831L18.632 6.50631L18.94 6.17031L19.136 6.00231L19.108 5.91831L18.548 5.69431L18.296 5.61031H18.156ZM12.528 6.11431L11.912 6.53431V6.64631L12.304 6.95431L12.556 7.23431L12.752 7.51431L12.92 7.48631L13.284 7.34631L13.564 7.26231V7.17831L13.256 6.73031L13.004 6.42231L12.668 6.14231L12.528 6.11431ZM19.36 6.11431L19.052 6.36631L18.8 6.61831L18.576 6.95431L18.408 7.17831L18.436 7.26231L19.024 7.45831L19.22 7.51431L19.528 7.15031L19.724 6.92631L20.004 6.70231L20.116 6.61831V6.56231L19.584 6.19831L19.444 6.11431H19.36ZM11.632 6.81431L11.268 7.17831L11.072 7.43031L11.1 7.51431L11.492 7.79431L11.772 8.04631L11.912 8.01831L12.304 7.79431L12.528 7.65431L12.472 7.51431L12.304 7.29031L11.996 6.98231L11.744 6.81431H11.632ZM20.228 6.81431L19.976 7.01031L19.696 7.26231L19.472 7.57031L19.5 7.68231L19.892 7.90631L20.144 8.04631L20.256 8.01831L20.396 7.87831L20.704 7.62631L20.872 7.51431L20.928 7.43031L20.704 7.17831L20.508 6.95431L20.34 6.81431H20.228ZM14.684 7.57031L13.9 7.73831L13.06 8.01831L12.388 8.38231L12.024 8.66231L11.688 8.99831L11.408 9.41831L11.268 9.75431L11.128 10.3423V10.8463L11.268 11.4623L11.38 11.7423L11.576 12.0503L11.8 12.3303L11.996 12.5263L12.276 12.7503L12.752 13.0303L13.256 13.2543L13.956 13.4783L14.572 13.6183L15.048 13.6743L15.496 13.7023H16.616L17.484 13.6183L18.184 13.4503L18.828 13.2263L19.304 13.0023L19.78 12.6943L20.144 12.3583L20.368 12.1063L20.592 11.7703L20.732 11.4063L20.844 10.9303V10.2863L20.704 9.67031L20.48 9.25031L20.228 8.91431L19.92 8.60631L19.444 8.29831L18.856 7.99031L18.072 7.73831L17.288 7.57031H17.204L17.064 8.24231L17.288 8.29831L17.736 8.38231L18.492 8.60631L18.94 8.83031L19.248 8.99831L19.528 9.22231L19.668 9.36231L19.864 9.61431L20.06 10.0063L20.116 10.2303V10.9583L20.004 11.3223L19.808 11.6583L19.472 12.0223L19.164 12.2463L18.772 12.4703L18.24 12.6943L17.708 12.8343L17.148 12.9463L16.672 13.0023H15.3L14.712 12.9183L13.956 12.7503L13.368 12.5263L12.976 12.3303L12.64 12.1063L12.36 11.8543L12.108 11.5463L11.94 11.2103L11.856 10.8463V10.3703L11.94 9.95031L12.136 9.61431L12.388 9.27831L12.612 9.08231L13.032 8.83031L13.508 8.60631L14.264 8.38231L14.88 8.27031L14.908 8.15831L14.796 7.59831L14.684 7.57031ZM10.932 7.68231L10.848 7.82231L10.568 8.35431L10.54 8.49431L10.792 8.41031L11.352 8.27031L11.576 8.24231V8.15831L11.24 7.87831L10.96 7.68231H10.932ZM21.012 7.68231L20.536 8.04631L20.368 8.18631L20.424 8.24231L20.9 8.32631L21.264 8.43831L21.46 8.49431L21.404 8.35431L21.096 7.71031L21.012 7.68231ZM14.88 8.83031L14.292 8.94231L13.536 9.19431L13.144 9.39031L12.808 9.67031L12.556 9.97831L12.444 10.2583L12.416 10.3983V10.8743L12.5 11.1543L12.724 11.4623L12.976 11.6863L13.34 11.9103L13.928 12.1623L14.824 12.3863L15.244 12.4423L15.664 12.4703H16.336L16.98 12.4143L17.848 12.2183L18.184 12.1063L18.856 11.7983L19.22 11.5183L19.472 11.2103L19.556 10.9583L19.584 10.5663L19.528 10.2023L19.36 9.86631L19.052 9.55831L18.772 9.36231L18.24 9.11031L17.456 8.88631L17.008 8.83031L16.98 8.85831L16.952 9.81031H15.02V9.44631L14.992 8.83031H14.88ZM20.984 8.94231L21.012 9.05431L21.18 9.39031L21.32 9.81031L21.404 10.2023V11.0143L21.264 11.5743L21.04 12.1343L21.012 12.2183L21.152 12.1903L21.572 11.9663L21.908 11.7143L22.104 11.5183L22.272 11.2383L22.356 10.9023L22.384 10.5943L22.328 10.1183L22.188 9.78231L21.992 9.53031L21.74 9.30631L21.348 9.08231L20.984 8.94231ZM10.988 8.94231L10.4 9.19431L10.036 9.47431L9.78401 9.81031L9.67201 10.0903L9.61601 10.4263V10.7903L9.72801 11.2383L9.95201 11.6023L10.204 11.8263L10.624 12.0783L10.96 12.2463L10.932 12.1063L10.708 11.5183L10.568 10.9023V10.3143L10.708 9.67031L10.932 9.13831L11.016 8.99831L10.988 8.94231Z" fill="#0CFFBB"/>
<path d="M12.472 18.5742L12.584 18.6022L12.752 19.3022L12.948 20.0022L13.2 20.7022L13.396 21.1502L13.564 21.4302L13.536 21.5142L13.228 21.4022L13.116 21.3462H13.032L13.088 22.0182L13.2 22.4662L13.368 22.9702L13.676 23.5582L13.956 23.9502L14.208 24.2302L14.572 24.5942L15.02 24.9022L15.356 25.0982L16 25.3782L16.28 25.4622L16.224 25.5182L15.692 25.6022H15.048L14.264 25.4622L13.816 25.3222L13.144 24.9862L12.696 24.6782L12.36 24.3702L12.164 24.1742L11.912 23.8662L11.632 23.4462L11.324 22.8022L11.128 22.1022L11.072 21.6822L11.044 21.3182L10.876 21.3742L10.652 21.4862L10.512 21.5142L10.54 21.3462L10.82 20.7022L11.044 20.2542L11.268 19.8902L11.492 19.5822L11.744 19.2742L12.052 18.9382L12.36 18.6862L12.472 18.5742Z" fill="#0CFFBB"/>
<path d="M15.748 14.5703H16.028L16.588 14.6263L17.26 14.7943L17.68 14.9623L18.212 15.2423L18.576 15.5223L18.856 15.7743L19.136 16.0543L19.444 16.4463L19.724 16.9223L19.948 17.4543L20.116 18.0143L20.172 18.5183V18.8543L20.424 18.7703L20.62 18.6863H20.732L20.704 18.8263L20.564 19.1903L20.256 19.8343L20.004 20.2543L19.668 20.7023L19.416 20.9823L19.388 21.0383H19.332L19.304 21.1223L19.08 21.3183L18.772 21.5983L18.688 21.5703L18.492 20.8143L18.268 20.0583L17.988 19.3303L17.708 18.7423V18.6863L17.876 18.7143L18.212 18.8543L18.156 18.2103L18.044 17.6503L17.876 17.2023L17.54 16.5583L17.26 16.1943L16.952 15.8303L16.672 15.5783L16.252 15.2703L15.664 14.9623L15.272 14.8223L14.964 14.7383L14.992 14.6543L15.356 14.5983L15.748 14.5703Z" fill="#0CFFBB"/>
<path d="M23.532 18.7734H24.26L24.456 18.8014L24.484 18.8294V19.6694L24.428 20.3414L24.4 20.5934L24.54 20.6494L24.82 20.9014L25.044 21.2934L25.128 21.6574L25.156 21.9094V22.2454L25.072 22.9174L25.016 23.1414L24.736 23.0574L24.12 22.8614L24.092 22.7774L24.176 22.4414L24.204 22.2454V21.9934L24.148 21.6854L23.98 21.4334L23.812 21.3494L23.588 21.3214L23.364 21.4054L23.168 21.5734L22.944 21.9654L22.776 22.3574L22.524 22.3014L21.88 22.0774L21.908 21.9094L22.16 21.3494L22.384 21.0134L22.748 20.6494L23.14 20.4254L23.448 20.3414L23.504 19.4174L23.532 18.7734Z" fill="#0CFFBB"/>
<path d="M7.71199 18.7734H8.46799L8.49599 19.7814L8.52399 20.2014L8.55199 20.3414L8.91599 20.4534L9.30799 20.7054L9.61599 21.0134L9.83999 21.3774L10.12 21.9934L10.092 22.0774L9.53199 22.2734L9.36399 22.3294H9.19599L8.97199 21.7974L8.74799 21.4894L8.57999 21.3774L8.29999 21.3214L8.04799 21.4054L7.87999 21.6014L7.79599 21.8814V22.3294L7.87999 22.7214V22.8614L7.23599 23.0574L7.09599 23.1134H6.95599L6.87199 22.6374L6.84399 22.3854V21.7974L6.92799 21.3494L7.09599 21.0134L7.34799 20.7334L7.57199 20.5654L7.51599 19.8654V18.8294L7.71199 18.7734Z" fill="#0CFFBB"/>
<path d="M20.984 18.9961H21.04L21.124 19.3321L21.18 19.7521L21.208 20.1721V20.5921L21.124 21.3201L20.984 21.7681L20.844 22.1601L20.592 22.6361L20.284 23.0561L19.976 23.3921L19.64 23.7281L19.22 24.0361L18.828 24.2601L18.072 24.5681L17.512 24.6801L16.98 24.7361L17.092 25.0161L17.232 25.3521L17.008 25.2961L16.42 25.0721L15.72 24.7361L15.328 24.4841L14.992 24.2321L14.628 23.9241L14.264 23.5601L13.984 23.1681V23.0841L15.216 22.7761L15.972 22.5241L16.728 22.1881L17.148 21.9641L17.232 21.9361L17.204 22.0761L17.008 22.5241L16.98 22.6361L17.764 22.4961L18.436 22.2721L18.912 22.0481L19.304 21.7681L19.64 21.5161L20.004 21.1521L20.284 20.7881L20.62 20.2001L20.872 19.5281L20.984 18.9961ZM20.984 19.8921L20.76 20.3401L20.508 20.7881L20.2 21.1801L19.948 21.4601L19.668 21.7401L19.22 22.0761L18.744 22.3281L18.212 22.5521L17.624 22.6921L16.728 22.8041L16.84 22.4401V22.3841L16.7 22.4121L16.252 22.6081L15.552 22.8601L14.74 23.0841L14.264 23.1961L14.32 23.3361L14.796 23.8121H14.852V23.8681L15.16 24.1201L15.468 24.3441L15.916 24.6241L16.56 24.9321L16.812 25.0441H16.868L16.784 24.7361L16.728 24.5681H17.064L17.764 24.4561L18.52 24.2041L18.996 23.9521L19.472 23.6161L19.808 23.3081L20.032 23.0841L20.34 22.6921L20.592 22.2721L20.816 21.7121L20.928 21.3481L21.012 20.7881L21.04 20.3961V19.9201L20.984 19.8921Z" fill="#0CFFBB"/>
<path d="M14.04 14.8242L14.208 14.8522L14.712 15.0482L15.272 15.3002L15.888 15.6642L16.336 16.0002L16.616 16.2522L16.756 16.3642V16.4202H16.812L17.064 16.7282L17.26 17.0082V17.0922L16.364 17.2882L15.244 17.6522L14.6 17.9322L14.152 18.1842L14.012 18.2122L14.068 18.0722L14.208 17.7362L14.264 17.5682L13.592 17.6522L12.892 17.8482L12.444 18.0722L12.024 18.3242L11.744 18.5482L11.464 18.8002L11.184 19.0802L10.876 19.5282L10.568 20.0882L10.344 20.7602L10.26 21.1242H10.204L10.092 20.6762L10.036 20.1722V19.4722L10.092 18.9962L10.288 18.2962L10.54 17.7362L10.932 17.1482L11.296 16.7282L11.66 16.3922L12.08 16.1122L12.528 15.8602L13.004 15.6642L13.424 15.5522L14.096 15.4402H14.264L14.096 14.9922L14.04 14.9082V14.8242ZM14.404 15.1602L14.46 15.4122L14.488 15.6082L13.844 15.6362L13.032 15.8322L12.528 16.0562L12.108 16.3082L11.8 16.5322L11.436 16.8682L11.184 17.1202L10.904 17.5122L10.652 17.9602L10.484 18.3242L10.316 18.8282L10.26 19.1082L10.232 19.3882V20.2842H10.288L10.54 19.7242L10.792 19.3322L11.044 18.9962L11.296 18.7162L11.604 18.4082L11.996 18.1282L12.416 17.8762L12.92 17.6522L13.704 17.4562L14.236 17.4002L14.544 17.3722L14.404 17.7642V17.8202L14.572 17.7642L15.076 17.5402L15.748 17.2882L16.56 17.0642L16.952 16.9802V16.8682L16.56 16.4482L16.336 16.2522L15.916 15.9162L15.412 15.6082L15.02 15.3842L14.516 15.1602H14.404Z" fill="#0CFFBB"/>
<path d="M6.92801 28.8516H8.86001L9.05601 28.9916L9.14001 29.1876V29.6356L9.05601 29.7476L9.11201 29.8876L9.16801 29.9996V30.4756L9.08401 30.6996L8.97201 30.7836L8.83201 30.8116H7.65601L7.57201 30.5596V30.5036H7.51601V30.7836L7.48801 30.8116H6.95601L6.92801 30.7836V28.8516ZM7.51601 29.2996L7.48801 29.3276V29.6076L7.51601 29.6636H8.46801L8.58001 29.6356V29.2996H7.51601ZM7.51601 29.9716L7.48801 29.9996V30.3356L7.51601 30.3636H8.58001V29.9996L7.88001 29.9716H7.51601Z" fill="#0CFFBB"/>
<path d="M22.972 28.8516H25.016L25.044 28.8796V29.3556L24.82 29.4396L24.512 29.5516L24.484 29.4116L24.512 29.2996L23.364 29.3276V29.4956L23.56 29.5516L24.456 29.6356L24.792 29.7196L24.96 29.8316L25.072 29.9996V30.4756L24.96 30.6996L24.82 30.7836L24.652 30.8116H22.776L22.72 30.7556L22.748 30.3076L24.4 30.2796V30.0556L23.616 29.9716L23.112 29.9156L22.888 29.8316L22.748 29.6636L22.72 29.5516V29.1876L22.804 29.0196L22.972 28.8516Z" fill="#0CFFBB"/>
<path d="M15.244 28.8516H17.008L17.288 28.9636L17.484 29.1596L17.568 29.3836V30.2516L17.484 30.5036L17.316 30.6996L17.148 30.7836L16.952 30.8116H16L15.916 30.7276L15.804 30.4476V30.7836L15.776 30.8116H15.244L15.216 30.7836V28.8796L15.244 28.8516ZM15.776 29.3556V30.3076H16.84L16.98 30.2516L17.008 30.1116V29.5516L16.952 29.3556H15.776Z" fill="#0CFFBB"/>
<path d="M20.312 28.8516H22.132L22.328 28.9356L22.496 29.1316L22.552 29.2996L22.58 29.6636L22.524 29.9156L22.356 30.1396L22.16 30.2236H21.74L22.048 30.6156L22.132 30.7276V30.8116H21.572L21.432 30.6716L21.208 30.3636L20.9 29.9436L20.844 29.9156L20.872 30.7836L20.844 30.8116H20.312L20.284 30.7836V28.9076L20.312 28.8516ZM20.872 29.3556L20.844 29.3836V29.7756L20.984 29.8316H21.824L21.992 29.7756L22.02 29.7196V29.4116L21.964 29.3556H20.872Z" fill="#0CFFBB"/>
<path d="M17.764 28.8516H20.032L20.06 28.9916L20.032 29.4396L19.612 29.6076L19.5 29.5796V29.3556H18.324V30.3076H20.004V30.7836L19.976 30.8116H17.792L17.764 30.7836V28.8516Z" fill="#0CFFBB"/>
<path d="M19.444 14.0391L20.06 14.0951L20.76 14.2071L21.18 14.3191L21.712 14.5151L22.356 14.8511L22.636 15.0471L22.58 15.1311L22.272 15.2991L21.908 15.5791L21.768 15.6351L21.124 15.3271L20.536 15.1591L20.172 15.0751L19.472 15.0191L19.444 14.9911L19.416 14.5151V14.0671L19.444 14.0391Z" fill="#0CFFBB"/>
<path d="M12.164 14.0664H12.584V14.4024L12.528 14.9904L11.828 15.0744L11.1 15.2424L10.736 15.3824L10.288 15.6064L10.204 15.6344L10.008 15.5224L9.67201 15.2704L9.36401 15.1024L9.42001 14.9904L9.95201 14.6824L10.484 14.4304L11.1 14.2344L11.94 14.0944L12.164 14.0664Z" fill="#0CFFBB"/>
<path d="M9.39201 28.8516H9.92401L9.95201 30.0836L9.98001 30.2236L10.12 30.2796H11.1L11.212 30.2236L11.24 30.1676L11.268 28.8516H11.8L11.828 28.8796V30.2516L11.744 30.4756L11.632 30.6436L11.492 30.7556L11.156 30.8116H9.98001L9.75601 30.7556L9.58801 30.6436L9.44801 30.4476L9.39201 30.3076L9.36401 30.1116V28.8796L9.39201 28.8516Z" fill="#0CFFBB"/>
<path d="M23.196 15.5781L23.308 15.6341L23.588 15.9981L23.896 16.5021L24.12 16.9781L24.288 17.5101L24.4 17.9861V18.0701L23.896 18.0141L23.476 18.0421L23.392 17.9021L23.168 17.2581L22.944 16.8101L22.748 16.5021L22.496 16.1941L22.44 16.0821L22.664 15.9141L23.196 15.5781Z" fill="#0CFFBB"/>
<path d="M8.74801 15.5781L9.05601 15.7461L9.44801 15.9981L9.56001 16.0821L9.50401 16.1941L9.28001 16.4461L9.00001 16.8941L8.77601 17.3701L8.60801 17.8461L8.55201 18.0141L8.46801 18.0421L8.32801 18.0141H8.02001L7.60001 18.0701L7.62801 17.8741L7.76801 17.2581L8.04801 16.5861L8.38401 16.0261L8.69201 15.6341L8.74801 15.5781Z" fill="#0CFFBB"/>
<path d="M12.892 28.8516H13.424L13.452 28.8796V30.3076H15.02L15.048 30.3356V30.7836L15.02 30.8116H12.948L12.892 30.7836V28.8516Z" fill="#0CFFBB"/>
<path d="M19.808 26.9766H21.068L21.236 27.0326L21.292 27.1446V27.6206L21.32 27.7326V28.2086L21.152 28.3486L20.984 28.3766H20.34L20.256 28.3206L20.228 28.1806H20.2L20.144 28.3766H19.808L19.78 28.2646V27.0046L19.808 26.9766ZM20.172 27.2846V27.5646L20.228 27.5926L20.928 27.5646V27.2846H20.172ZM20.172 27.7886V28.0406H20.928V27.7886H20.172Z" fill="#0CFFBB"/>
<path d="M12.976 26.9766H13.788L13.844 27.0046V27.3126L13.732 27.3966H13.452V27.2846H12.64L12.696 27.4246L13.452 27.5366L13.732 27.6206L13.844 27.7326L13.872 27.8446V28.0406L13.816 28.2366L13.676 28.3486L13.34 28.3766H12.304L12.276 28.3486L12.248 28.0406L12.276 28.0126L13.396 27.9846L13.424 27.8166L13.06 27.7886L12.332 27.6486L12.248 27.5366V27.1726L12.304 27.0606L12.388 27.0046L12.976 26.9766Z" fill="#0CFFBB"/>
<path d="M21.768 27.0039H22.944L23.084 27.1159L23.168 27.3679V28.0399L23.084 28.2079L23 28.2919L22.832 28.3479L22.552 28.3759H21.992L21.74 28.3199L21.572 28.1799L21.488 27.9279V27.4519L21.544 27.1999L21.656 27.0599L21.768 27.0039ZM21.908 27.3399L21.88 27.3679V27.9559L21.936 28.0119H22.636L22.776 27.9559L22.832 27.7879V27.4799L22.776 27.3399H21.908Z" fill="#0CFFBB"/>
<path d="M6.92799 26.9766L8.27199 27.0046L8.43999 27.1446L8.49599 27.3406V27.7886L8.41199 27.9566L8.27199 28.0406L7.93599 28.0686H7.37599L7.31999 27.8726L7.29199 27.9006V28.3486L7.26399 28.3766H6.95599L6.89999 28.3486V27.0046L6.92799 26.9766ZM7.29199 27.3126V27.7606L7.73999 27.7326L8.10399 27.7046L8.13199 27.5366V27.3686L8.10399 27.3406L7.29199 27.3126Z" fill="#0CFFBB"/>
<path d="M16.196 27.0039H16.756L16.896 27.2279L17.456 28.3479V28.3759H16.308L16.252 28.3479L16.168 28.0679L16.224 28.0119L16.812 28.0399L16.644 27.5919L16.504 27.3399H16.448L15.944 28.3479L15.86 28.3759H15.524V28.2639L15.888 27.5079L16.168 27.0319L16.196 27.0039Z" fill="#0CFFBB"/>
<path d="M11.156 26.9766L11.464 27.0046L11.576 27.1446L11.968 27.9566L12.136 28.2646L12.22 28.3486L12.108 28.3766H11.072L10.96 28.2646L10.848 28.0966V28.0406H11.548L11.324 27.5646L11.212 27.3406L11.128 27.3686L10.764 28.1526L10.652 28.3486L10.568 28.3766H10.26L10.176 28.3206H10.232L10.288 28.1526L10.512 27.7046L10.82 27.1446L10.904 27.0046L11.156 26.9766Z" fill="#0CFFBB"/>
<path d="M12.108 28.8516H12.612L12.64 28.8796V30.8116H12.108L12.08 30.7836V28.8796L12.108 28.8516Z" fill="#0CFFBB"/>
<path d="M23.392 26.9766H24.988L25.016 27.0046V27.3686L24.792 27.4806H24.652L24.624 27.3406H24.232V28.3766H23.896L23.84 28.3486V27.3406H23.308L23.224 27.2006L23.168 27.0886V27.0046L23.392 26.9766Z" fill="#0CFFBB"/>
<path d="M14.012 9.98047L14.264 10.0365L14.488 10.2045L14.6 10.4005L14.628 10.4845V10.6805L14.544 10.8765L14.376 11.0725L14.152 11.1565H13.928L13.704 11.0725L13.564 10.9325L13.452 10.7085V10.4565L13.564 10.2325L13.76 10.0645L14.012 9.98047Z" fill="#0CFFBB"/>
<path d="M13.984 26.9766H15.748L15.776 27.0046L15.804 27.2566L15.776 27.3966L15.468 27.5086L15.412 27.4806V27.3406H15.048L15.02 27.4806L14.992 28.3486L14.964 28.3766H14.656L14.628 28.3486L14.6 27.3406H14.096L14.04 27.3126L13.956 27.0046L13.984 26.9766Z" fill="#0CFFBB"/>
<path d="M17.792 10.0078H18.1L18.268 10.0918L18.408 10.2318L18.52 10.3998L18.548 10.4838V10.7078L18.464 10.8758L18.296 11.0718L18.072 11.1558H17.82L17.568 11.0438L17.4 10.7918L17.372 10.7078V10.4558L17.484 10.2318L17.68 10.0638L17.792 10.0078Z" fill="#0CFFBB"/>
<path d="M17.568 27.0039H17.932L17.96 27.1159L17.932 28.0119H19.052V28.3479L18.996 28.3759H17.624L17.568 28.3199V27.0039Z" fill="#0CFFBB"/>
<path d="M8.664 27.0039H9.028V28.0119H10.148L10.12 28.3479L10.064 28.3759H8.748L8.664 28.3479V27.0039Z" fill="#0CFFBB"/>
<path d="M18.352 29.6094H19.22V30.0014L18.52 30.0294L18.408 29.9734L18.352 29.7494V29.6094Z" fill="#0CFFBB"/>
<path d="M19.136 27.6758H19.668V27.9838L19.136 27.9558L19.108 27.7598L19.136 27.6758Z" fill="#0CFFBB"/>
</g>
<defs>
<clipPath id="clip0_1262_428">
<rect width="32" height="32" fill="white"/>
</clipPath>
</defs>
</svg>
