<svg width="110" height="75" viewBox="0 0 110 75" fill="none" xmlns="http://www.w3.org/2000/svg">
<path d="M5.71877 55.889L0.0706023 74.257H4.5131L5.53412 70.8357H11.0411L12.0349 74.257H16.863L11.2203 55.8944H5.71877V55.889ZM6.64746 67.1383L8.32562 61.427L9.98205 67.1383H6.64746ZM27.4696 65.8769C27.4045 65.8066 27.3339 65.7416 27.2633 65.6766C27.4045 65.6225 27.5402 65.5684 27.6706 65.5088C28.192 65.2706 28.6699 64.9404 29.0718 64.529C29.4737 64.1121 29.7887 63.6195 29.995 63.0782C30.2123 62.526 30.3209 61.8926 30.3209 61.1943C30.3209 60.2307 30.1471 59.4024 29.8049 58.7203C29.4628 58.0382 28.9523 57.4589 28.3169 57.0367C27.6923 56.6198 26.9374 56.3221 26.0685 56.1435C25.2321 55.9756 24.2871 55.889 23.2661 55.889H17.5039V74.2516H21.9247V67.0733H22.055C22.5384 67.0733 22.9402 67.1816 23.2878 67.3981C23.63 67.6147 23.8907 67.9341 24.0916 68.378L26.7636 74.2516H31.9067L28.6645 67.7013C28.2626 66.9055 27.877 66.31 27.4696 65.8769ZM25.5471 62.3527C25.4168 62.5964 25.2321 62.8075 25.004 62.9591C24.7542 63.1323 24.4446 63.2676 24.0807 63.3597C23.6951 63.4571 23.2607 63.5058 22.7828 63.5058H21.9192V59.6406H22.8914C23.9015 59.6406 24.6564 59.7976 25.1235 60.1116C25.5362 60.3822 25.7317 60.8424 25.7317 61.5137C25.7372 61.833 25.6774 62.1091 25.5471 62.3527ZM44.8486 58.0707C44.1046 57.3236 43.165 56.766 42.0571 56.4141C40.9764 56.0677 39.711 55.889 38.2826 55.889H32.4444V74.2516H37.5332C39.1733 74.2516 40.6125 74.0297 41.8019 73.5912C43.013 73.1473 44.0177 72.4977 44.7997 71.6694C45.5818 70.8411 46.1629 69.8288 46.5268 68.6649C46.8852 67.5226 47.0644 66.2396 47.0644 64.8484C47.0644 63.3326 46.8852 62.0063 46.5214 60.8965C46.152 59.7705 45.5927 58.8177 44.8486 58.0707ZM41.2371 69.2333C40.4713 70.0832 39.358 70.4947 37.8319 70.4947H36.8597V59.6514H38.0654C38.918 59.6514 39.6349 59.7705 40.1889 60.0087C40.732 60.2361 41.1502 60.5609 41.4706 60.9994C41.7964 61.4487 42.0354 62.0063 42.1766 62.6667C42.3232 63.3651 42.3993 64.1717 42.3993 65.0649C42.3993 66.9759 42.0082 68.378 41.2371 69.2333ZM57.7091 67.5714C57.7091 68.2047 57.6493 68.7461 57.5353 69.1738C57.4267 69.5744 57.2692 69.9046 57.0628 70.1482C56.8673 70.381 56.612 70.5596 56.3187 70.6571C55.9929 70.7762 55.5747 70.8303 55.0751 70.8303C54.5483 70.8303 54.1138 70.7653 53.7825 70.63C53.4784 70.5109 53.2123 70.316 53.0004 70.067C52.7941 69.818 52.642 69.504 52.5551 69.1305C52.4574 68.719 52.4085 68.2372 52.4085 67.6959V55.8782H47.9877V67.9016C47.9877 68.8923 48.1126 69.8071 48.3516 70.6083C48.6014 71.442 49.0196 72.1674 49.5898 72.7521C50.1601 73.3367 50.9041 73.7915 51.8056 74.1C52.68 74.4032 53.7391 74.5548 54.9447 74.5548C56.0255 74.5548 57.0193 74.4032 57.8937 74.1C58.7898 73.7969 59.561 73.3313 60.1856 72.725C60.8101 72.1133 61.2989 71.35 61.6302 70.4459C61.9561 69.5581 62.1244 68.5187 62.1244 67.3548V55.8836H57.7036L57.7091 67.5714ZM64.3837 59.5864H68.3483V70.538H64.3837V74.257H76.7879V70.538H72.8233V59.5864H76.7879V55.8944H64.3837V59.5864ZM89.0836 66.3533L84.1414 55.889H79.145V74.2516H83.2616V63.587L88.2255 74.2516H93.2002V55.889H89.0836V66.3533ZM107.505 58.0598C106.213 56.425 104.279 55.5967 101.759 55.5967C100.679 55.5967 99.6522 55.7862 98.7017 56.1651C97.735 56.5441 96.8824 57.1395 96.1655 57.9299C95.454 58.7149 94.8892 59.7218 94.4873 60.9236C94.0909 62.1091 93.8899 63.5383 93.8899 65.1569C93.8899 68.1506 94.5308 70.4838 95.7908 72.0862C97.0833 73.7265 99.0167 74.5548 101.537 74.5548C102.617 74.5548 103.649 74.3653 104.6 73.9864C105.566 73.6074 106.419 73.0119 107.131 72.2216C107.842 71.4366 108.407 70.4297 108.809 69.2279C109.205 68.0423 109.406 66.6186 109.406 64.9945C109.406 61.9955 108.765 59.6622 107.505 58.0598ZM104.594 67.6038C104.469 68.2805 104.268 68.8544 104.008 69.3037C103.758 69.7314 103.448 70.0453 103.063 70.2619C102.677 70.4784 102.199 70.5867 101.645 70.5867C100.543 70.5867 99.7716 70.1753 99.2937 69.3362C98.7669 68.4105 98.5008 66.9542 98.5008 65C98.5008 64.0851 98.566 63.2622 98.6963 62.553C98.8212 61.8764 99.0222 61.3079 99.2883 60.8586C99.5435 60.431 99.8531 60.1116 100.233 59.895C100.613 59.6785 101.086 59.5702 101.645 59.5702C102.759 59.5702 103.53 59.9816 104.002 60.8207C104.524 61.7464 104.79 63.2081 104.79 65.1569C104.795 66.0772 104.73 66.9001 104.594 67.6038ZM103.019 2.45232H103.801V4.50945H104.355V2.45232H105.148V1.94345H103.019V2.45232ZM107.087 1.94345L106.549 3.69201L105.995 1.94345H105.268V4.50945H105.789V2.86916L106.305 4.50945H106.783L107.277 2.91247V4.50945H107.799V1.94345H107.087ZM81.502 51.5745C74.4961 51.5745 68.5112 49.2196 63.2378 44.407C59.9846 41.435 57.2963 37.7917 54.8252 34.0022C52.3542 37.7917 49.6713 41.435 46.4182 44.407C40.7537 49.5823 34.2637 51.9155 26.5735 51.5366C11.91 51.4716 0 39.9354 0 25.7683C0 11.5578 11.9752 0 26.6985 0C34.7525 0 41.5358 2.65803 47.4283 8.12567C50.2578 10.7512 52.6474 13.799 54.8307 16.9822C57.0085 13.7936 59.4035 10.7512 62.233 8.12567C68.1256 2.65803 74.9088 0 82.9629 0C97.6862 0 109.661 11.5632 109.661 25.7683C109.661 39.9408 97.7513 51.477 83.0878 51.5366C82.5556 51.5582 82.0288 51.5745 81.502 51.5745ZM60.191 25.4164C63.1128 30.1424 65.9478 34.5382 69.4019 37.6942C73.3013 41.2563 77.4125 42.7234 82.7239 42.4419L82.9629 42.4365C92.6517 42.4365 100.537 34.955 100.537 25.7629C100.537 16.5707 92.6517 9.08927 82.9629 9.08927C77.2441 9.08927 72.6278 10.8974 68.446 14.7735C65.3232 17.6751 62.7381 21.3833 60.191 25.4164ZM26.693 9.08927C17.0042 9.08927 9.11853 16.5707 9.11853 25.7629C9.11853 34.955 17.0042 42.4365 26.693 42.4365L26.932 42.4419C32.2434 42.7234 36.3546 41.2563 40.2541 37.6942C43.7081 34.5382 46.5431 30.1424 49.4649 25.4164C46.9178 21.3833 44.3381 17.6697 41.2099 14.7735C37.0281 10.8974 32.4172 9.08927 26.693 9.08927Z" fill="white"/>
</svg>
