<svg width="24" height="24" viewBox="0 0 24 24" fill="none" xmlns="http://www.w3.org/2000/svg">
<g clip-path="url(#clip0_499_46)">
<path fill-rule="evenodd" clip-rule="evenodd" d="M11.9149 2.14286C8.59482 2.14286 5.83662 4.71317 5.59979 8.03405C5.48233 9.68134 5.85573 11.3237 6.82645 12.6004C8.11948 14.3011 9.42995 15.4712 11.5552 16.8886C11.8244 17.0682 12.1759 17.0682 12.4451 16.8886C14.5704 15.4712 15.8808 14.3011 17.174 12.6004C18.1446 11.3237 18.518 9.68134 18.4005 8.03407C18.1638 4.71317 15.4055 2.14286 12.0855 2.14286H11.9149ZM3.46237 7.88163C3.77894 3.44222 7.46754 0 11.9149 0H12.0855C16.5328 0 20.2214 3.44222 20.5379 7.88163C20.684 9.92863 20.2314 12.1195 18.8797 13.8974C17.4104 15.83 15.9076 17.155 13.6341 18.6713C12.6449 19.3311 11.3554 19.3311 10.3662 18.6713C8.09274 17.155 6.59005 15.83 5.12065 13.8974C3.76888 12.1195 3.3164 9.92863 3.46237 7.88163ZM12.0006 5.9142C11.1799 5.9142 10.4783 6.14674 9.98231 6.64353C9.48645 7.14021 9.25446 7.8426 9.25446 8.66414C9.25446 9.48566 9.48645 10.1881 9.98231 10.6847C10.4783 11.1815 11.1799 11.4141 12.0006 11.4141C12.8213 11.4141 13.5229 11.1815 14.0189 10.6847C14.5148 10.1881 14.7468 9.48566 14.7468 8.66414C14.7468 7.8426 14.5148 7.14021 14.0189 6.64353C13.5229 6.14674 12.8213 5.9142 12.0006 5.9142ZM9.17744 20.454C7.0565 19.0394 5.49302 17.7285 4.0318 15.9706C3.65672 16.1605 3.33246 16.4526 3.09854 16.8252C2.17727 18.2928 1.46522 19.8259 0.936338 21.5131C0.624753 22.507 1.27537 23.6323 2.38888 23.7014C8.80787 24.0991 15.1914 24.0994 21.6104 23.7019C22.73 23.6326 23.3798 22.4967 23.0589 21.5006C22.5152 19.8125 21.7895 18.2791 20.8561 16.8128C20.6282 16.4549 20.3168 16.1725 19.9573 15.9846C18.4993 17.7355 16.9386 19.0431 14.8233 20.454C13.1142 21.5938 10.8865 21.5938 9.17744 20.454Z" fill="#0CFFBB"/>
</g>
<defs>
<clipPath id="clip0_499_46">
<rect width="24" height="24" fill="white"/>
</clipPath>
</defs>
</svg>
