<svg width="210" height="71" viewBox="0 0 210 71" fill="none" xmlns="http://www.w3.org/2000/svg">
<g clip-path="url(#clip0_1222_360)">
<path d="M93.4146 27.5418H87.2159L85.6726 32.4395H83.9238L89.1234 16.5675H91.4618L96.8215 32.4395H95.05L93.4146 27.5418ZM87.6708 26.1366H92.9611L90.2813 17.8142L87.6708 26.1366ZM111.121 16.5675V32.4395H109.6L109.487 30.4668C108.601 31.5098 107.078 32.7112 104.605 32.7112C101.13 32.7112 99.6317 30.3055 99.6317 27.3338V16.5647H101.332V27.4031C101.332 29.5795 102.262 31.3244 104.942 31.3244C107.303 31.3244 108.627 29.9871 109.414 28.7404V16.5703L111.121 16.5675ZM125.872 17.9727H121.127V32.4395H119.427V17.9727H114.701V16.5675H125.872V17.9727ZM140.609 22.8025V26.2951C140.609 29.8541 138.702 32.7112 134.433 32.7112C130.165 32.7112 128.257 29.8597 128.257 26.2951V22.8025C128.257 19.0624 130.187 16.293 134.433 16.293C138.724 16.2958 140.609 19.1289 140.609 22.8025ZM129.959 22.7841V26.3446C129.959 29.1324 131.276 31.3315 134.433 31.3315C137.591 31.3315 138.906 29.1324 138.906 26.3446V22.7841C138.906 19.8591 137.589 17.6897 134.433 17.6897C131.323 17.6784 129.959 19.8124 129.959 22.7841ZM155.984 22.9157V25.6823C155.984 29.8314 153.532 32.4395 148.992 32.4395H145.041V16.5675H149.556C153.827 16.5675 155.984 19.1048 155.984 22.9157ZM154.284 22.8705C154.284 19.8322 152.671 17.9501 149.465 17.9501H146.74V31.0555H148.989C152.462 31.0555 154.279 29.1975 154.279 25.7276L154.284 22.8705ZM162.05 17.9501V23.5738H168.452V24.979H162.05V31.0555H168.951V32.4395H160.346V16.5675H168.951V17.9501H162.05ZM172.021 28.0625H173.656C173.77 29.8088 174.814 31.306 177.879 31.306C180.945 31.306 181.716 29.7862 181.716 28.6074V28.0852C181.716 26.4762 180.762 25.8861 178.378 25.1134L176.085 24.3648C173.634 23.5483 172.634 22.5252 172.634 20.6006V20.1025C172.634 18.4043 174.087 16.293 177.947 16.293C181.557 16.293 183.306 18.243 183.419 20.7591H181.785C181.672 19.218 180.762 17.6755 177.947 17.6755C175.2 17.6755 174.359 19.0595 174.359 20.1025V20.5553C174.359 21.7341 175.068 22.4148 177.243 23.1167L179.536 23.8426C182.103 24.6592 183.419 25.7248 183.419 27.9691V28.5352C183.419 30.6664 181.86 32.707 177.879 32.707C174.132 32.7112 172.202 30.8291 172.021 28.0625ZM199.248 31.2381L199.225 32.4169C198.932 32.5465 198.614 32.6084 198.294 32.598C197.249 32.598 196.637 32.2357 195.865 31.1234L191.551 24.8205L189.302 27.6323V32.4438H187.668V16.5675H189.302V25.32L196.273 16.5675H198.135L192.595 23.5964L197.34 30.4442C197.795 31.0796 198.135 31.306 198.77 31.2834C198.93 31.2829 199.09 31.2678 199.248 31.2381ZM203.469 18.2557V18.8218C203.469 19.7798 202.731 20.4605 201.587 20.4605C200.523 20.4605 199.717 19.7798 199.717 18.8218V18.2557C199.717 17.4067 200.539 16.6708 201.597 16.6708C202.731 16.6651 203.469 17.3982 203.469 18.2557ZM203.196 18.2557C203.196 17.5326 202.578 16.9156 201.593 16.9156C200.692 16.9156 199.994 17.5326 199.994 18.2557V18.8218C199.994 19.6482 200.676 20.2143 201.593 20.2143C202.585 20.2143 203.196 19.6482 203.196 18.8218V18.2557ZM202.487 19.4643H202.534V19.6751C202.48 19.6931 202.423 19.7017 202.365 19.7006C202.295 19.7018 202.226 19.682 202.167 19.6436C202.108 19.6053 202.062 19.5502 202.035 19.4855L201.668 18.7949C201.639 18.7977 201.609 18.7977 201.58 18.7949H201.27V19.6695H200.976V17.4604H201.61C202.072 17.4604 202.365 17.6954 202.365 18.0364V18.1935C202.367 18.3153 202.328 18.4343 202.254 18.5312C202.18 18.628 202.075 18.697 201.957 18.727L202.293 19.3496C202.31 19.3864 202.338 19.4165 202.374 19.4355C202.409 19.4544 202.45 19.4611 202.49 19.4544L202.487 19.4643ZM202.072 18.1906V18.059C202.072 17.8241 201.874 17.7138 201.6 17.7138H201.27V18.5388H201.566C201.871 18.5388 202.075 18.4185 202.075 18.1779L202.072 18.1906ZM95.7033 42.2916H91.2577V55.9645H88.3978V42.2916H83.9238V40.0925H95.7033V42.2916ZM98.6581 40.0925H101.514V55.9645H98.6581V40.0925ZM117.572 40.0925V55.9645H114.257L108.013 43.6756V55.9645H105.493V40.0925H108.921L115.029 51.9951V40.0925H117.572ZM133.781 54.0824L133.759 55.9419C133.4 56.1213 133.002 56.207 132.601 56.1909C131.375 56.1909 130.603 55.7819 129.694 54.4928L125.834 49.029L124.245 51.0243V55.9673H121.52V40.0925H124.245V47.4157L130.034 40.0925H133.054L127.651 47.0082L132.125 53.3338C132.512 53.8998 132.897 54.1036 133.488 54.0824H133.781ZM139.137 42.2916V46.8044H145.063V49.0035H139.137V53.7413H145.562V55.9645H136.277V40.0925H145.562V42.2916H139.137ZM160.91 54.1036L160.888 55.9645C160.5 56.1264 160.082 56.2036 159.662 56.1909C158.481 56.1909 157.573 55.7381 156.868 54.3767L154.53 49.8653H151.941V55.9645H149.081V40.0925H154.439C157.777 40.0925 160.002 41.6788 160.002 44.3096V45.6256C160.002 47.2799 158.912 48.5974 157.231 49.2979L159.343 53.3338C159.616 53.8333 160.026 54.1036 160.683 54.1036H160.91ZM151.941 47.7356H154.326C156.027 47.7356 157.142 46.9643 157.142 45.5577V44.4256C157.142 43.0204 156.008 42.2491 154.326 42.2491H151.941V47.7356ZM163.291 50.3408V45.7091C163.291 42.2406 165.472 39.7925 169.399 39.7925C173.123 39.7925 174.986 41.9237 175.054 44.6902H172.351C172.26 42.9666 171.397 41.9916 169.399 41.9916C167.31 41.9916 166.198 43.4194 166.198 45.5294V50.5205C166.198 52.6291 167.31 54.0357 169.354 54.0357C171.443 54.0357 172.306 53.0154 172.396 51.3144H175.122C174.895 54.2395 173.123 56.2574 169.286 56.2574C165.561 56.2588 163.291 53.8107 163.291 50.3408ZM186.154 51.7941H180.66L179.458 55.9645H176.574L181.432 40.0925H185.315L190.417 55.9645H187.467L186.154 51.7941ZM181.3 49.5016H185.478L183.367 42.0878L181.3 49.5016ZM204.226 46.4407V49.2469C204.226 53.3734 201.773 55.9588 197.187 55.9588H192.556V40.0925H197.755C202.069 40.0925 204.226 42.6312 204.226 46.4407ZM201.365 46.3728C201.365 43.7874 200.139 42.2916 197.618 42.2916H195.415V53.764H197.21C199.98 53.764 201.365 52.3135 201.365 49.2979V46.3728ZM209.314 41.7751V42.3411C209.314 43.2992 208.575 43.9798 207.433 43.9798C206.369 43.9798 205.561 43.2992 205.561 42.3411V41.7751C205.561 40.926 206.384 40.1901 207.443 40.1901C208.575 40.1901 209.314 40.9232 209.314 41.7751ZM209.042 41.7751C209.042 41.0519 208.424 40.435 207.437 40.435C206.536 40.435 205.839 41.0519 205.839 41.7751V42.351C205.839 43.1775 206.52 43.7435 207.437 43.7435C208.429 43.7435 209.042 43.1775 209.042 42.351V41.7751ZM208.333 42.9836H208.38V43.1944C208.325 43.2127 208.268 43.2213 208.211 43.2199C208.141 43.2212 208.072 43.2014 208.013 43.163C207.955 43.1247 207.909 43.0695 207.882 43.0048L207.515 42.3142C207.486 42.3171 207.456 42.3171 207.426 42.3142H207.117V43.1888H206.822V40.9854H207.457C207.919 40.9854 208.211 41.2203 208.211 41.5614V41.7185C208.214 41.8404 208.174 41.9595 208.1 42.0564C208.026 42.1533 207.921 42.2222 207.803 42.252L208.139 42.8746C208.156 42.9108 208.184 42.9405 208.219 42.9594C208.254 42.9782 208.295 42.9852 208.334 42.9793L208.333 42.9836ZM207.919 41.71V41.5784C207.919 41.3435 207.719 41.2331 207.447 41.2331H207.117V42.0708H207.415C207.715 42.0638 207.921 41.9435 207.921 41.7029L207.919 41.71Z" fill="white"/>
<path d="M0.0449219 0H71.0593V70.9118H0.0449219V0Z" fill="white"/>
<path d="M0.0449219 0H21.6823V21.6061H0.0449219V0Z" fill="#FB4725"/>
<path d="M9.05149 17.8075H12.7687V6.81203H16.9168V3.67188H4.76172V6.81203H9.05149V17.8075Z" fill="white"/>
<path d="M21.7007 21.6245H0.0449219V0H21.7007V21.6245ZM9.08789 17.8801H12.7995V6.88598H16.9461V3.74441H4.79528V6.88598H9.08505L9.08789 17.8801Z" fill="#FB4725"/>
<path d="M46.3855 21.6245H24.7227V0H46.3855V21.6245ZM37.4106 3.74441H33.6919V17.8801H37.4106V3.74441Z" fill="#FF7B39"/>
<path d="M71.0581 21.6245H49.4023V0H71.0581V21.6245ZM57.2974 8.25441L61.641 17.8772H66.594V3.74441H63.1617V13.4621L58.8634 3.74441H53.8664V17.8801H57.2974V8.25441Z" fill="#FC9B3A"/>
<path d="M21.7007 46.2761H0.0449219V24.6445H21.7007V46.2761ZM17.3826 28.3889H12.8902L8.6103 33.5754V28.3889H4.89306V42.526H8.6103V36.7948L13.1693 42.526H17.846L11.4021 35.0259L17.3826 28.3889Z" fill="#22B45C"/>
<path d="M46.3855 46.2761H24.7227V24.6445H46.3855V46.2761ZM40.4192 39.8189H34.4076V36.6773H39.9842V33.9645H34.4076V31.2447H40.1273V28.3889H30.6889V42.526H40.4136L40.4192 39.8189Z" fill="#91CA06"/>
<path d="M49.4023 24.6445V46.2761H71.0581V24.6445H49.4023ZM62.5735 42.526L61.2797 38.9175C60.6929 37.341 60.4293 36.9575 59.2021 36.9575H58.4524V42.526H54.8783V28.3889H60.5101C63.6959 28.3889 65.5964 29.8508 65.5964 32.2805C65.5964 33.8626 64.746 35.0485 63.2368 35.6386C63.883 36.0632 64.2642 36.7353 64.6639 37.7174L66.5699 42.5288L62.5735 42.526Z" fill="#D6D230"/>
<path d="M59.5231 31.1016H58.4531V34.2474H59.4451C60.5605 34.2474 61.8883 33.9644 61.8883 32.569C61.8855 31.5049 61.2237 31.1016 59.5231 31.1016Z" fill="#D6D230"/>
<path d="M21.7007 70.9135H0.0449219V49.2891H21.7007V70.9135ZM15.7231 63.9554C14.8609 64.3223 13.9307 64.5031 12.9936 64.4861C10.3194 64.4861 8.72226 62.8473 8.72226 60.0992C8.72226 57.4755 10.464 55.7123 13.0545 55.7123C13.9586 55.7172 14.8536 55.8915 15.6933 56.226L16.161 56.4213L16.324 53.4028L16.0533 53.3236C14.9273 53.0009 13.7625 52.8333 12.5911 52.8255C8.12846 52.8255 4.88881 55.8849 4.88881 60.0992C4.88881 62.3379 5.63849 64.203 7.05708 65.4766C8.41757 66.7078 10.3307 67.3588 12.5911 67.3588C13.8963 67.3588 15.1505 67.1493 16.1213 66.7715L16.3622 66.6767L16.2007 63.7445L15.7231 63.9554Z" fill="#0066B6"/>
<path d="M33.7383 61.0276H37.2047L35.4956 56.2969L33.7383 61.0276Z" fill="#429ACC"/>
<path d="M24.7227 49.2891V70.9135H46.3855V49.2891H24.7227ZM39.2713 67.1691L38.0837 63.7417H32.8756L31.6668 67.1691H27.9623L33.3476 53.0335H37.7408L43.1459 67.1691H39.2713Z" fill="#429ACC"/>
<path d="M58.763 55.7461H57.8418V64.4562H58.4228C61.3082 64.4562 62.8345 62.8429 62.8345 59.9108C62.8345 57.2659 61.389 55.7461 58.763 55.7461Z" fill="#6CBADD"/>
<path d="M49.4023 49.2891V70.9135H71.0581V49.2891H49.4023ZM58.845 67.1691H54.1244V53.0335H59.2077C64.0162 53.0335 66.6663 55.4802 66.6663 59.9081C66.6663 64.4493 63.7427 67.1691 58.845 67.1691Z" fill="#6CBADD"/>
</g>
<defs>
<clipPath id="clip0_1222_360">
<rect width="209.359" height="70.9118" fill="white"/>
</clipPath>
</defs>
</svg>
