<svg width="500" height="500" viewBox="0 0 500 500" fill="none" xmlns="http://www.w3.org/2000/svg">
<path d="M387.62 116.721C387.62 116.721 330.07 67.6307 254.74 74.4007C179.41 81.1707 158.27 117.561 134.57 157.341C115.92 188.651 106.37 225.491 94.5698 259.711C83.8398 291.051 61.8898 322.001 65.1398 356.511C69.2498 400.211 112.24 428.681 152.29 435.721C208.18 445.551 242.29 406.271 284.5 377.051L284.74 376.891C290.805 372.624 297.187 368.826 303.83 365.531C356.3 340.141 410.47 362.151 431.62 302.061C452.77 241.971 425.7 158.191 387.62 116.721Z" fill="#FFFB18"/>
<path opacity="0.7" d="M387.62 116.721C387.62 116.721 330.07 67.6307 254.74 74.4007C179.41 81.1707 158.27 117.561 134.57 157.341C115.92 188.651 106.37 225.491 94.5698 259.711C83.8398 291.051 61.8898 322.001 65.1398 356.511C69.2498 400.211 112.24 428.681 152.29 435.721C208.18 445.551 242.29 406.271 284.5 377.051L284.74 376.891C290.805 372.624 297.187 368.826 303.83 365.531C356.3 340.141 410.47 362.151 431.62 302.061C452.77 241.971 425.7 158.191 387.62 116.721Z" fill="white"/>
<mask id="mask0_991_554" style="mask-type:luminance" maskUnits="userSpaceOnUse" x="247" y="259" width="148" height="149">
<path d="M320.89 407.279C361.621 407.279 394.64 374.26 394.64 333.529C394.64 292.798 361.621 259.779 320.89 259.779C280.159 259.779 247.14 292.798 247.14 333.529C247.14 374.26 280.159 407.279 320.89 407.279Z" fill="white"/>
</mask>
<g mask="url(#mask0_991_554)">
<path d="M311.709 286.649C307.438 287.275 303.126 287.579 298.809 287.559C291.349 287.559 277.809 288.239 277.089 302.269C276.369 316.299 288.409 319.469 295.189 319.269C301.969 319.069 305.829 316.999 305.829 316.999C305.829 316.999 309.899 337.359 302.209 347.999C294.519 358.639 285.209 363.379 282.519 376.059C279.829 388.739 281.389 392.579 281.389 392.579C281.389 392.579 317.599 406.579 342.489 398.459C367.379 390.339 370.089 392.799 383.439 373.109C396.789 353.419 381.859 347.999 373.259 340.109C364.659 332.219 354.029 324.489 356.739 313.409C359.449 302.329 361.999 297.519 351.999 287.999C341.999 278.479 331.639 278.949 325.999 282.349C320.359 285.749 311.709 286.649 311.709 286.649Z" fill="#263238" stroke="#263238" stroke-linecap="round" stroke-linejoin="round"/>
<path d="M287.13 301.71C288.97 301.5 291.27 302 293.99 304.03C301.78 309.88 309.52 311.56 318.77 304.74C323.814 301.117 328.502 297.022 332.77 292.51" stroke="white" stroke-linecap="round" stroke-linejoin="round"/>
<path d="M281.81 304.998C282.404 304.169 283.146 303.457 284 302.898" stroke="white" stroke-linecap="round" stroke-linejoin="round"/>
<path d="M364.75 380.18C363.661 381.412 362.288 382.359 360.75 382.94" stroke="white" stroke-linecap="round" stroke-linejoin="round"/>
<path d="M334.9 304C334.9 304 329.06 311.8 332.95 318.62C336.84 325.44 350.49 326.41 362.67 341.99C370.41 351.9 371.45 364.37 368.67 372.99" stroke="white" stroke-linecap="round" stroke-linejoin="round"/>
<path d="M364.13 338.129C364.13 338.129 386.04 353.229 378.25 374.129" stroke="white" stroke-linecap="round" stroke-linejoin="round"/>
<path d="M271.21 379.199C271.21 379.199 292.21 374.909 303.11 368.339C314.01 361.769 321.67 362.459 326.65 364.719C331.63 366.979 348.65 384.639 357.2 388.029L365.79 391.419C365.79 391.419 356.52 402.289 329.36 401.609C302.2 400.929 288.63 396.609 281.16 391.419C276.742 388.382 273.288 384.141 271.21 379.199Z" fill="#FFFB18" stroke="#263238" stroke-linecap="round" stroke-linejoin="round"/>
<path d="M315.56 353.41C314.14 358.481 312.245 363.406 309.9 368.12C305.83 376.49 304.25 383.05 310.36 383.5C316.47 383.95 325.29 374.45 327.36 369.25C329.43 364.05 334.15 343.25 334.15 343.25L315.56 353.41Z" fill="white"/>
<mask id="mask1_991_554" style="mask-type:luminance" maskUnits="userSpaceOnUse" x="306" y="343" width="29" height="41">
<path d="M315.56 353.41C314.14 358.481 312.245 363.406 309.9 368.12C305.83 376.49 304.25 383.05 310.36 383.5C316.47 383.95 325.29 374.45 327.36 369.25C329.43 364.05 334.15 343.25 334.15 343.25L315.56 353.41Z" fill="white"/>
</mask>
<g mask="url(#mask1_991_554)">
<path d="M309.9 368.12C305.83 376.49 304.25 383.05 310.36 383.5C311.955 383.539 313.533 383.152 314.93 382.38C318.77 376.38 318.77 367.26 318.77 367.26L332.12 351.69C333.26 346.98 334.12 343.23 334.12 343.23L315.56 353.41C314.14 358.481 312.245 363.406 309.9 368.12Z" fill="#FFFB18"/>
<path opacity="0.5" d="M309.9 368.12C305.83 376.49 304.25 383.05 310.36 383.5C311.955 383.539 313.533 383.152 314.93 382.38C318.77 376.38 318.77 367.26 318.77 367.26L332.12 351.69C333.26 346.98 334.12 343.23 334.12 343.23L315.56 353.41C314.14 358.481 312.245 363.406 309.9 368.12Z" fill="white"/>
</g>
<path d="M315.56 353.41C314.14 358.481 312.245 363.406 309.9 368.12C305.83 376.49 304.25 383.05 310.36 383.5C316.47 383.95 325.29 374.45 327.36 369.25C329.43 364.05 334.15 343.25 334.15 343.25L315.56 353.41Z" stroke="#263238" stroke-linecap="round" stroke-linejoin="round"/>
<path d="M300.4 310.189C300.4 310.189 297.68 330.549 297.23 341.869C296.78 353.189 302.89 359.519 307.87 359.289C312.85 359.059 333.66 346.849 333.87 346.169C334.08 345.489 337.26 343.679 337.26 343.679C337.26 343.679 338.17 346.619 341.56 344.129C344.95 341.639 346.99 331.909 346.09 329.199C345.19 326.489 344.28 326.929 343.37 327.389C342.46 327.849 338.85 330.329 334.77 329.869C330.69 329.409 323.01 324.869 322.1 316.749C321.19 308.629 321.88 305.889 321.88 305.889C321.88 305.889 311.71 316.069 300.4 310.189Z" fill="white"/>
<mask id="mask2_991_554" style="mask-type:luminance" maskUnits="userSpaceOnUse" x="297" y="305" width="50" height="55">
<path d="M300.4 310.189C300.4 310.189 297.68 330.549 297.23 341.869C296.78 353.189 302.89 359.519 307.87 359.289C312.85 359.059 333.66 346.849 333.87 346.169C334.08 345.489 337.26 343.679 337.26 343.679C337.26 343.679 338.17 346.619 341.56 344.129C344.95 341.639 346.99 331.909 346.09 329.199C345.19 326.489 344.28 326.929 343.37 327.389C342.46 327.849 338.85 330.329 334.77 329.869C330.69 329.409 323.01 324.869 322.1 316.749C321.19 308.629 321.88 305.889 321.88 305.889C321.88 305.889 311.71 316.069 300.4 310.189Z" fill="white"/>
</mask>
<g mask="url(#mask2_991_554)">
<path d="M309.71 353.219C302.91 354.579 301.1 349.139 301.1 345.519C301.1 341.899 302.91 332.379 302.91 332.379C298.83 330.569 300.4 330.329 305.6 327.379C310.8 324.429 309.71 318.319 309.71 318.319L321.71 307.449C321.73 306.921 321.794 306.396 321.9 305.879C321.9 305.879 311.71 316.059 300.4 310.179C300.4 310.179 297.68 330.539 297.23 341.859C296.78 353.179 302.89 359.509 307.87 359.279C312.38 359.079 329.92 349.009 333.32 346.629C325.37 348.999 314 352.369 309.71 353.219Z" fill="#FFFB18"/>
<path d="M341.579 344.129L338.579 345.039C339.269 345.249 340.219 345.129 341.579 344.129Z" fill="#FFFB18"/>
<g opacity="0.5">
<path d="M309.71 353.219C302.91 354.579 301.1 349.139 301.1 345.519C301.1 341.899 302.91 332.379 302.91 332.379C298.83 330.569 300.4 330.329 305.6 327.379C310.8 324.429 309.71 318.319 309.71 318.319L321.71 307.449C321.73 306.921 321.794 306.396 321.9 305.879C321.9 305.879 311.71 316.059 300.4 310.179C300.4 310.179 297.68 330.539 297.23 341.859C296.78 353.179 302.89 359.509 307.87 359.279C312.38 359.079 329.92 349.009 333.32 346.629C325.37 348.999 314 352.369 309.71 353.219Z" fill="white"/>
<path d="M341.579 344.129L338.579 345.039C339.269 345.249 340.219 345.129 341.579 344.129Z" fill="white"/>
</g>
</g>
<path d="M300.4 310.189C300.4 310.189 297.68 330.549 297.23 341.869C296.78 353.189 302.89 359.519 307.87 359.289C312.85 359.059 333.66 346.849 333.87 346.169C334.08 345.489 337.26 343.679 337.26 343.679C337.26 343.679 338.17 346.619 341.56 344.129C344.95 341.639 346.99 331.909 346.09 329.199C345.19 326.489 344.28 326.929 343.37 327.389C342.46 327.849 338.85 330.329 334.77 329.869C330.69 329.409 323.01 324.869 322.1 316.749C321.19 308.629 321.88 305.889 321.88 305.889C321.88 305.889 311.71 316.069 300.4 310.189Z" stroke="#263238" stroke-linecap="round" stroke-linejoin="round"/>
<path d="M309.45 320.82C308.829 323.336 307.492 325.618 305.6 327.39C302.66 329.87 300.4 328.52 300.4 330.33C300.4 332.14 306.28 332.59 306.28 332.59" stroke="#263238" stroke-linecap="round" stroke-linejoin="round"/>
<path d="M304.47 337.789C304.47 337.789 312.17 341.869 320.76 335.979" stroke="#263238" stroke-linecap="round" stroke-linejoin="round"/>
<path d="M307.23 338.819C307.23 338.819 306.23 346.819 309 346.619C311.77 346.419 315.56 338.699 315.56 338.699C315.56 338.699 309.74 340.079 307.23 338.819Z" fill="#263238" stroke="#263238" stroke-linecap="round" stroke-linejoin="round"/>
<path d="M318.25 324.409C317.94 325.869 317.25 326.979 316.8 326.869C316.35 326.759 316.17 325.489 316.49 324.029C316.81 322.569 317.49 321.459 317.94 321.559C318.39 321.659 318.57 322.939 318.25 324.409Z" fill="#263238"/>
<path d="M307.17 321.47C306.85 322.93 306.17 324.04 305.71 323.93C305.25 323.82 305.08 322.55 305.4 321.08C305.72 319.61 306.4 318.52 306.86 318.62C307.32 318.72 307.48 320 307.17 321.47Z" fill="#263238"/>
<path d="M303.73 314.26C303.73 314.26 306.17 309.88 309.58 315.72" stroke="#263238" stroke-linecap="round" stroke-linejoin="round"/>
<path d="M315.42 317.179C315.42 317.179 321.26 313.779 323.7 323.999" stroke="#263238" stroke-linecap="round" stroke-linejoin="round"/>
<path d="M345 321.05C345 321.05 348 312.11 340.24 299.33C334.36 289.6 324.18 285.52 320.33 285.75C316.48 285.98 311.73 286.65 311.73 286.65L325.29 281C325.29 281 337.74 282.81 344.07 292.76C350.4 302.71 350.41 315.62 349.07 320.14L347.71 324.67L345 321.05Z" fill="white" stroke="#263238" stroke-linecap="round" stroke-linejoin="round"/>
<path d="M320.38 355.819C320.732 355.821 321.079 355.899 321.398 356.047C321.718 356.196 322.001 356.411 322.23 356.679C339.74 350.679 340.55 337.859 340.57 337.279C340.567 337.119 340.596 336.96 340.657 336.812C340.718 336.663 340.808 336.529 340.922 336.417C341.036 336.305 341.172 336.217 341.321 336.159C341.47 336.101 341.63 336.073 341.79 336.079C342.11 336.109 342.405 336.263 342.614 336.507C342.823 336.752 342.929 337.068 342.91 337.389C342.91 338.029 342.08 352.559 322.91 359.079C322.818 359.688 322.516 360.246 322.056 360.656C321.595 361.065 321.005 361.3 320.39 361.319C319.701 361.26 319.059 360.945 318.591 360.436C318.124 359.926 317.864 359.26 317.864 358.569C317.864 357.877 318.124 357.211 318.591 356.702C319.059 356.193 319.701 355.878 320.39 355.819H320.38Z" fill="#263238"/>
<path d="M344.01 339.88C348.65 339.88 352.41 335.318 352.41 329.69C352.41 324.062 348.65 319.5 344.01 319.5C339.371 319.5 335.61 324.062 335.61 329.69C335.61 335.318 339.371 339.88 344.01 339.88Z" fill="#FFFB18" stroke="#263238" stroke-linecap="round" stroke-linejoin="round"/>
<path d="M345.88 333.5C345.88 333.5 344.75 331.68 343.88 336.66C343.01 341.64 342.97 353.66 342.97 353.66C342.97 353.66 340.71 353.89 337.77 347.55C334.83 341.21 335.28 339.63 334.15 343.26C333.02 346.89 336.86 353.89 337.99 356.15C338.506 357.254 339.112 358.314 339.8 359.32C339.8 359.32 330.8 364.98 330.3 369.05C329.8 373.12 332.56 405.71 332.56 405.71L344.78 403.45L339.58 375.84C339.58 375.84 355.87 357.96 357.45 354.57C359.03 351.18 353.15 340.57 351.34 334.43C349.53 328.29 347.27 328.77 347.04 330.36C346.9 331.485 346.826 332.617 346.82 333.75C346.82 333.75 346.36 346.88 347.27 351.85L345.88 333.5Z" fill="white" stroke="#263238" stroke-linecap="round" stroke-linejoin="round"/>
<path d="M351.31 334.398C351.31 334.398 352.22 346.848 353.31 351.148" stroke="#263238" stroke-linecap="round" stroke-linejoin="round"/>
</g>
<path d="M410.57 346.929V328.509L400.28 326.169C399.414 319.961 397.813 313.879 395.51 308.049L403.32 300.819L394.11 284.819L384 287.999C380.132 283.074 375.706 278.614 370.81 274.709L374 264.509L358 255.289L350.86 262.999C345.048 260.652 338.979 258.997 332.78 258.069L330.42 247.699H312L309.66 257.999C303.452 258.865 297.369 260.466 291.54 262.769L284.3 254.999L268.35 264.209L271.47 274.299C266.544 278.163 262.084 282.586 258.18 287.479L248 284.319L238.79 300.269L246.52 307.439C244.171 313.25 242.519 319.319 241.6 325.519L231.22 327.879V346.299L241.51 348.639C242.384 354.845 243.985 360.927 246.28 366.759L238.46 373.999L247.68 389.999L257.77 386.879C261.649 391.792 266.09 396.236 271 400.119L267.85 410.309L283.85 419.519L291.01 411.779C296.79 414.128 302.829 415.783 309 416.709L311.35 427.089H329.78L332.12 416.799C338.33 415.914 344.415 414.303 350.25 411.999L357.48 419.799L373.48 410.589L370.36 400.499C375.285 396.635 379.745 392.212 383.65 387.319L393.83 390.469L403.04 374.469L395.31 367.309C397.656 361.493 399.311 355.422 400.24 349.219L410.57 346.929ZM387.8 337.409C387.8 350.643 383.876 363.579 376.523 374.582C369.171 385.586 358.721 394.162 346.495 399.226C334.269 404.29 320.816 405.615 307.836 403.034C294.857 400.452 282.935 394.079 273.577 384.722C264.22 375.364 257.847 363.442 255.265 350.463C252.684 337.483 254.009 324.03 259.073 311.804C264.137 299.578 272.713 289.128 283.717 281.776C294.72 274.423 307.656 270.499 320.89 270.499C329.676 270.499 338.377 272.23 346.495 275.592C354.613 278.955 361.989 283.884 368.202 290.097C374.415 296.31 379.344 303.686 382.707 311.804C386.069 319.922 387.8 328.622 387.8 337.409Z" fill="#263238" stroke="#263238" stroke-width="1.05114" stroke-miterlimit="10"/>
<path d="M410.57 343.05V324.63L400.28 322.29C399.414 316.082 397.813 309.999 395.51 304.17L403.32 296.94L394.11 280.94L384 284.1C380.133 279.174 375.706 274.714 370.81 270.81L374 260.63L358 251.41L350.83 259.15C345.018 256.802 338.949 255.147 332.75 254.22L330.39 243.85H312L309.66 254.14C303.452 255.005 297.369 256.606 291.54 258.91L284.3 251.1L268.35 260.31L271.47 270.4C266.545 274.264 262.085 278.686 258.18 283.58L248 280.44L238.79 296.39L246.52 303.56C244.171 309.371 242.52 315.44 241.6 321.64L231.21 324V342.42L241.5 344.76C242.375 350.966 243.976 357.047 246.27 362.88L238.46 370.11L247.68 386.11L257.77 383C261.65 387.913 266.09 392.356 271 396.24L267.85 406.43L283.85 415.64L291.01 407.9C296.791 410.249 302.829 411.904 309 412.83L311.35 423.21H329.78L332.12 412.92C338.326 412.043 344.407 410.442 350.24 408.15L357.47 415.95L373.47 406.74L370.35 396.65C375.275 392.786 379.735 388.363 383.64 383.47L393.82 386.62L403.03 370.62L395.3 363.46C397.648 357.644 399.302 351.572 400.23 345.37L410.57 343.05ZM387.8 333.53C387.8 346.763 383.876 359.7 376.524 370.703C369.171 381.706 358.722 390.282 346.495 395.346C334.269 400.411 320.816 401.736 307.836 399.154C294.857 396.572 282.935 390.2 273.577 380.842C264.22 371.485 257.847 359.562 255.266 346.583C252.684 333.604 254.009 320.15 259.073 307.924C264.137 295.698 272.713 285.248 283.717 277.896C294.72 270.544 307.656 266.62 320.89 266.62C329.677 266.62 338.377 268.35 346.495 271.713C354.613 275.075 361.989 280.004 368.202 286.217C374.416 292.43 379.344 299.806 382.707 307.924C386.069 316.042 387.8 324.743 387.8 333.53Z" fill="#FFFB18" stroke="#263238" stroke-linecap="round" stroke-linejoin="round"/>
<mask id="mask3_991_554" style="mask-type:luminance" maskUnits="userSpaceOnUse" x="223" y="87" width="149" height="149">
<path d="M349.44 213.827C378.241 185.026 378.241 138.33 349.44 109.529C320.639 80.7274 273.943 80.7274 245.142 109.529C216.341 138.33 216.341 185.026 245.142 213.827C273.943 242.628 320.639 242.628 349.44 213.827Z" fill="white"/>
</mask>
<g mask="url(#mask3_991_554)">
<path d="M251.931 219.93C251.931 219.93 276.351 199.34 296.731 193.09C317.111 186.84 363.731 202.77 363.731 202.77C363.731 202.77 358.681 221.14 328.011 230.42C297.341 239.7 284.011 239.1 267.471 232.42C250.931 225.74 251.931 219.93 251.931 219.93Z" fill="#FFFB18" stroke="#263238" stroke-linecap="round" stroke-linejoin="round"/>
<path d="M285.431 185.42C287.686 191.695 289.572 198.096 291.081 204.59C293.301 214.48 297.541 220.73 304.601 213.27C311.661 205.81 313.481 190.87 313.481 186.27C313.481 181.67 313.081 172.74 313.081 172.74C313.081 172.74 303.391 187.68 298.141 189.09C292.891 190.5 285.431 185.42 285.431 185.42Z" fill="white"/>
<mask id="mask4_991_554" style="mask-type:luminance" maskUnits="userSpaceOnUse" x="285" y="172" width="29" height="45">
<path d="M285.431 185.42C287.686 191.695 289.572 198.096 291.081 204.59C293.301 214.48 297.541 220.73 304.601 213.27C311.661 205.81 313.481 190.87 313.481 186.27C313.481 181.67 313.081 172.74 313.081 172.74C313.081 172.74 303.391 187.68 298.141 189.09C292.891 190.5 285.431 185.42 285.431 185.42Z" fill="white"/>
</mask>
<g mask="url(#mask4_991_554)">
<path d="M309.651 177.621C306.351 182.101 301.401 188.171 298.141 189.051C292.901 190.461 285.431 185.421 285.431 185.421C287.686 191.696 289.572 198.096 291.081 204.591C292.311 210.081 294.171 214.451 296.791 215.971L310.991 179.671L309.651 177.621Z" fill="#FFFB18"/>
<path opacity="0.5" d="M309.651 177.621C306.351 182.101 301.401 188.171 298.141 189.051C292.901 190.461 285.431 185.421 285.431 185.421C287.686 191.696 289.572 198.096 291.081 204.591C292.311 210.081 294.171 214.451 296.791 215.971L310.991 179.671L309.651 177.621Z" fill="white"/>
</g>
<path d="M285.431 185.42C287.686 191.695 289.572 198.096 291.081 204.59C293.301 214.48 297.541 220.73 304.601 213.27C311.661 205.81 313.481 190.87 313.481 186.27C313.481 181.67 313.081 172.74 313.081 172.74C313.081 172.74 303.391 187.68 298.141 189.09C292.891 190.5 285.431 185.42 285.431 185.42Z" stroke="#263238" stroke-linecap="round" stroke-linejoin="round"/>
<path d="M272.31 157C272.31 157 269.69 152.77 267.67 156.6C265.65 160.43 268.48 166.09 270.5 168.51C272.52 170.93 275.74 172.74 276.15 170.51C276.56 168.28 272.31 157 272.31 157Z" fill="white" stroke="#263238" stroke-linecap="round" stroke-linejoin="round"/>
<path d="M257.141 120.68C257.141 120.68 252.351 122.52 251.721 127.17C251.362 129.949 252.077 132.761 253.721 135.03C253.721 135.03 250.331 138.37 251.091 142.62C251.851 146.87 256.871 148.84 256.871 148.84C256.871 148.84 255.521 153.06 257.931 156.05C260.341 159.04 263.821 156.98 263.821 156.98C263.84 157.892 264.12 158.78 264.629 159.537C265.138 160.294 265.853 160.888 266.691 161.25C269.691 162.56 273.621 161.35 273.621 161.35C274.777 161.752 275.987 161.981 277.211 162.03C279.881 162.28 282.681 159.14 282.681 159.14L325.821 152.73C326.936 152.513 327.985 152.039 328.885 151.344C329.784 150.65 330.509 149.755 331.001 148.73C332.471 145.36 328.601 137.26 328.601 137.26C328.601 137.26 332.601 135.62 331.421 129.68C330.241 123.74 328.421 122.44 328.421 122.44C328.421 122.44 330.921 114.21 326.251 110.55C321.581 106.89 318.711 108.75 318.711 108.75C318.711 108.75 315.021 100.87 309.211 101.21C303.401 101.55 301.741 102.81 301.741 102.81C301.741 102.81 297.461 99.0004 293.001 99.5504C288.541 100.1 287.261 103.29 287.261 103.29C287.261 103.29 278.881 100.21 274.961 103.13C272.704 104.742 270.807 106.806 269.391 109.19C269.391 109.19 264.271 108.28 262.251 111.43C260.989 113.551 260.3 115.963 260.251 118.43C260.251 118.43 258.161 117.94 257.141 120.68Z" fill="#263238" stroke="#263238" stroke-linecap="round" stroke-linejoin="round"/>
<path d="M268.681 145.06C270.475 154.516 272.972 163.825 276.151 172.91C281.151 187.03 287.851 192.28 294.711 194.5C301.571 196.72 311.871 182.79 314.491 173.92C317.111 165.05 316.911 163.42 316.911 163.42C316.911 163.42 324.181 161.61 326.191 154.54C328.201 147.47 323.191 143.04 319.131 144.65C315.071 146.26 314.291 151.52 314.291 151.52C314.291 151.52 307.431 147.88 304.801 143.24C302.171 138.6 302.581 135.17 302.581 135.17C302.581 135.17 295.921 129.72 283.411 131.94C279.94 132.442 276.693 133.954 274.074 136.286C271.455 138.619 269.58 141.67 268.681 145.06Z" fill="white"/>
<mask id="mask5_991_554" style="mask-type:luminance" maskUnits="userSpaceOnUse" x="268" y="131" width="59" height="64">
<path d="M268.681 145.06C270.475 154.516 272.972 163.825 276.151 172.91C281.151 187.03 287.851 192.28 294.711 194.5C301.571 196.72 311.871 182.79 314.491 173.92C317.111 165.05 316.911 163.42 316.911 163.42C316.911 163.42 324.181 161.61 326.191 154.54C328.201 147.47 323.191 143.04 319.131 144.65C315.071 146.26 314.291 151.52 314.291 151.52C314.291 151.52 307.431 147.88 304.801 143.24C302.171 138.6 302.581 135.17 302.581 135.17C302.581 135.17 295.921 129.72 283.411 131.94C279.94 132.442 276.693 133.954 274.074 136.286C271.455 138.619 269.58 141.67 268.681 145.06Z" fill="white"/>
</mask>
<g mask="url(#mask5_991_554)">
<path d="M290.681 190.339C286.681 186.189 289.581 177.179 289.581 177.179C284.101 176.079 284.651 167.299 284.651 167.299L280.811 173.299C280.811 173.299 273.131 150.249 272.581 144.219C272.121 139.139 277.461 134.469 279.171 133.109C276.616 134.142 274.338 135.756 272.517 137.824C270.696 139.891 269.382 142.355 268.681 145.019C270.475 154.476 272.972 163.785 276.151 172.869C281.151 186.989 287.851 192.239 294.711 194.459C301.571 196.679 311.871 182.749 314.491 173.879C314.491 173.879 307.691 183.719 305.491 186.459C303.291 189.199 294.711 194.499 290.681 190.339Z" fill="#FFFB18"/>
<path opacity="0.5" d="M290.681 190.339C286.681 186.189 289.581 177.179 289.581 177.179C284.101 176.079 284.651 167.299 284.651 167.299L280.811 173.299C280.811 173.299 273.131 150.249 272.581 144.219C272.121 139.139 277.461 134.469 279.171 133.109C276.616 134.142 274.338 135.756 272.517 137.824C270.696 139.891 269.382 142.355 268.681 145.019C270.475 154.476 272.972 163.785 276.151 172.869C281.151 186.989 287.851 192.239 294.711 194.459C301.571 196.679 311.871 182.749 314.491 173.879C314.491 173.879 307.691 183.719 305.491 186.459C303.291 189.199 294.711 194.499 290.681 190.339Z" fill="white"/>
</g>
<path d="M268.681 145.06C270.475 154.516 272.972 163.825 276.151 172.91C281.151 187.03 287.851 192.28 294.711 194.5C301.571 196.72 311.871 182.79 314.491 173.92C317.111 165.05 316.911 163.42 316.911 163.42C316.911 163.42 324.181 161.61 326.191 154.54C328.201 147.47 323.191 143.04 319.131 144.65C315.071 146.26 314.291 151.52 314.291 151.52C314.291 151.52 307.431 147.88 304.801 143.24C302.171 138.6 302.581 135.17 302.581 135.17C302.581 135.17 295.921 129.72 283.411 131.94C279.94 132.442 276.693 133.954 274.074 136.286C271.455 138.619 269.58 141.67 268.681 145.06Z" stroke="#263238" stroke-linecap="round" stroke-linejoin="round"/>
<path d="M285.23 161.201C285.23 161.201 282.61 171.091 284.83 173.711C287.05 176.331 291.48 176.941 294.51 175.531C297.54 174.121 297.94 170.481 297.51 169.681" stroke="#263238" stroke-linecap="round" stroke-linejoin="round"/>
<path d="M286.641 180.171C286.641 180.171 292.701 184.171 299.761 178.561" stroke="#263238" stroke-linecap="round" stroke-linejoin="round"/>
<path d="M291.08 181.581C291.08 181.581 291.08 185.221 293.7 185.221C296.32 185.221 297.14 180.371 297.14 180.371C295.234 181.217 293.165 181.63 291.08 181.581Z" stroke="#263238" stroke-linecap="round" stroke-linejoin="round"/>
<path d="M299.661 163.831C300.384 163.831 300.971 162.927 300.971 161.811C300.971 160.695 300.384 159.791 299.661 159.791C298.937 159.791 298.351 160.695 298.351 161.811C298.351 162.927 298.937 163.831 299.661 163.831Z" fill="#263238"/>
<path d="M280.691 165.851C281.414 165.851 282.001 164.946 282.001 163.831C282.001 162.715 281.414 161.811 280.691 161.811C279.967 161.811 279.381 162.715 279.381 163.831C279.381 164.946 279.967 165.851 280.691 165.851Z" fill="#263238"/>
<path d="M274.131 155.75C274.866 154.309 275.997 153.107 277.39 152.285C278.784 151.463 280.384 151.056 282.001 151.11" stroke="#263238" stroke-width="2.38218" stroke-linecap="round" stroke-linejoin="round"/>
<path d="M293.301 150.301C293.301 150.301 299.761 147.881 303.791 153.131" stroke="#263238" stroke-width="2.38218" stroke-linecap="round" stroke-linejoin="round"/>
<path d="M319.941 161.201C319.386 170.763 317.059 180.139 313.081 188.851C308.754 197.561 303.253 205.636 296.731 212.851C296.731 212.851 289.871 212.051 280.391 197.111C274.697 188.16 271.171 178.004 270.091 167.451" stroke="#263238" stroke-linecap="round" stroke-linejoin="round"/>
<path d="M322.161 157.77C322.161 157.77 323.571 153.53 321.961 152.52C320.351 151.51 318.731 154.34 319.131 155.75L319.531 157.17C319.531 157.17 319.331 161 319.941 161.17C320.551 161.34 322.161 157.77 322.161 157.77Z" stroke="#263238" stroke-linecap="round" stroke-linejoin="round"/>
<path d="M296.73 212.861C296.73 212.861 298.73 229.611 302.18 238.861" stroke="#263238" stroke-linecap="round" stroke-linejoin="round"/>
<path d="M315.701 182.39C315.701 182.39 309.241 185.62 309.851 188.04C309.955 188.478 310.156 188.887 310.44 189.237C310.724 189.587 311.083 189.868 311.49 190.06C311.897 190.252 312.342 190.35 312.793 190.347C313.243 190.343 313.687 190.238 314.091 190.04C315.501 189.43 319.331 188.04 319.331 188.04L321.961 193.29C321.961 193.29 317.521 190.46 315.301 191.29C313.754 191.927 312.322 192.812 311.061 193.91C310.772 193.744 310.452 193.638 310.121 193.599C309.789 193.56 309.454 193.587 309.133 193.681C308.813 193.774 308.515 193.931 308.257 194.142C307.999 194.354 307.786 194.615 307.631 194.91C306.823 196.119 306.272 197.48 306.011 198.91C305.339 199.443 304.791 200.116 304.408 200.883C304.024 201.651 303.814 202.493 303.791 203.35C303.791 206.17 303.791 208.35 305.611 210.01C307.431 211.67 308.611 211.62 308.611 211.62L310.221 212.62C310.221 212.62 306.221 221.5 308.611 226.14C311.001 230.78 312.241 230.38 312.241 230.38L317.081 239.26L330.001 236.07L323.341 221.14C323.341 221.14 334.441 198.33 333.231 194.7C332.021 191.07 327.001 186.43 324.001 183.4C322.973 182.257 321.566 181.525 320.04 181.34C318.514 181.154 316.973 181.527 315.701 182.39Z" fill="white"/>
<mask id="mask6_991_554" style="mask-type:luminance" maskUnits="userSpaceOnUse" x="303" y="181" width="31" height="59">
<path d="M315.701 182.39C315.701 182.39 309.241 185.62 309.851 188.04C309.955 188.478 310.156 188.887 310.44 189.237C310.724 189.587 311.083 189.868 311.49 190.06C311.897 190.252 312.342 190.35 312.793 190.347C313.243 190.343 313.687 190.238 314.091 190.04C315.501 189.43 319.331 188.04 319.331 188.04L321.961 193.29C321.961 193.29 317.521 190.46 315.301 191.29C313.754 191.927 312.322 192.812 311.061 193.91C310.772 193.744 310.452 193.638 310.121 193.599C309.789 193.56 309.454 193.587 309.133 193.681C308.813 193.774 308.515 193.931 308.257 194.142C307.999 194.354 307.786 194.615 307.631 194.91C306.823 196.119 306.272 197.48 306.011 198.91C305.339 199.443 304.791 200.116 304.408 200.883C304.024 201.651 303.814 202.493 303.791 203.35C303.791 206.17 303.791 208.35 305.611 210.01C307.431 211.67 308.611 211.62 308.611 211.62L310.221 212.62C310.221 212.62 306.221 221.5 308.611 226.14C311.001 230.78 312.241 230.38 312.241 230.38L317.081 239.26L330.001 236.07L323.341 221.14C323.341 221.14 334.441 198.33 333.231 194.7C332.021 191.07 327.001 186.43 324.001 183.4C322.973 182.257 321.566 181.525 320.04 181.34C318.514 181.154 316.973 181.527 315.701 182.39Z" fill="white"/>
</mask>
<g mask="url(#mask6_991_554)">
<path d="M309.821 205C308.521 204.79 306.251 202.63 304.491 200.77C304.032 201.57 303.791 202.477 303.791 203.4C303.791 206.22 303.791 208.4 305.611 210.06C307.431 211.72 308.611 211.67 308.611 211.67L310.221 212.67C310.221 212.67 306.221 221.55 308.611 226.19C311.001 230.83 312.241 230.43 312.241 230.43C309.621 227.04 313.691 220.96 314.081 215.9C314.471 210.84 312.161 205.37 309.821 205Z" fill="#FFFB18"/>
<path d="M312.271 230.42L313.482 232.64C313.183 231.847 312.776 231.1 312.271 230.42Z" fill="#FFFB18"/>
<path d="M314.001 191.869C312.961 192.433 311.982 193.103 311.081 193.869C310.483 193.549 309.785 193.47 309.131 193.649L317.241 197.559C317.241 197.559 313.591 193.459 314.001 191.869Z" fill="#FFFB18"/>
<path d="M305.351 199.56L311.771 202.65L307.551 195C306.785 196.186 306.262 197.511 306.011 198.9C305.773 199.102 305.552 199.322 305.351 199.56Z" fill="#FFFB18"/>
<path d="M314.091 190.06C315.501 189.45 319.331 188.06 319.331 188.06L321.961 193.31C321.961 193.31 317.521 190.48 315.301 191.31C319.211 191.62 324.621 196.46 324.621 196.46C324.621 196.46 322.291 183.99 317.621 184.38C315.087 184.674 312.617 185.38 310.311 186.47C310.124 186.69 309.987 186.948 309.91 187.226C309.832 187.504 309.815 187.795 309.861 188.08C309.968 188.515 310.171 188.921 310.455 189.267C310.739 189.613 311.097 189.892 311.503 190.081C311.908 190.271 312.351 190.368 312.799 190.364C313.247 190.361 313.689 190.257 314.091 190.06Z" fill="#FFFB18"/>
<g opacity="0.5">
<path d="M309.821 205C308.521 204.79 306.251 202.63 304.491 200.77C304.032 201.57 303.791 202.477 303.791 203.4C303.791 206.22 303.791 208.4 305.611 210.06C307.431 211.72 308.611 211.67 308.611 211.67L310.221 212.67C310.221 212.67 306.221 221.55 308.611 226.19C311.001 230.83 312.241 230.43 312.241 230.43C309.621 227.04 313.691 220.96 314.081 215.9C314.471 210.84 312.161 205.37 309.821 205Z" fill="white"/>
<path d="M312.271 230.42L313.482 232.64C313.183 231.847 312.776 231.1 312.271 230.42Z" fill="white"/>
<path d="M314.001 191.869C312.961 192.433 311.982 193.103 311.081 193.869C310.483 193.549 309.785 193.47 309.131 193.649L317.241 197.559C317.241 197.559 313.591 193.459 314.001 191.869Z" fill="white"/>
<path d="M305.351 199.56L311.771 202.65L307.551 195C306.785 196.186 306.262 197.511 306.011 198.9C305.773 199.102 305.552 199.322 305.351 199.56Z" fill="white"/>
<path d="M314.091 190.06C315.501 189.45 319.331 188.06 319.331 188.06L321.961 193.31C321.961 193.31 317.521 190.48 315.301 191.31C319.211 191.62 324.621 196.46 324.621 196.46C324.621 196.46 322.291 183.99 317.621 184.38C315.087 184.674 312.617 185.38 310.311 186.47C310.124 186.69 309.987 186.948 309.91 187.226C309.832 187.504 309.815 187.795 309.861 188.08C309.968 188.515 310.171 188.921 310.455 189.267C310.739 189.613 311.097 189.892 311.503 190.081C311.908 190.271 312.351 190.368 312.799 190.364C313.247 190.361 313.689 190.257 314.091 190.06Z" fill="white"/>
</g>
</g>
<path d="M315.701 182.39C315.701 182.39 309.241 185.62 309.851 188.04C309.955 188.478 310.156 188.887 310.44 189.237C310.724 189.587 311.083 189.868 311.49 190.06C311.897 190.252 312.342 190.35 312.793 190.347C313.243 190.343 313.687 190.238 314.091 190.04C315.501 189.43 319.331 188.04 319.331 188.04L321.961 193.29C321.961 193.29 317.521 190.46 315.301 191.29C313.754 191.927 312.322 192.812 311.061 193.91C310.772 193.744 310.452 193.638 310.121 193.599C309.789 193.56 309.454 193.587 309.133 193.681C308.813 193.774 308.515 193.931 308.257 194.142C307.999 194.354 307.786 194.615 307.631 194.91C306.823 196.119 306.272 197.48 306.011 198.91C305.339 199.443 304.791 200.116 304.408 200.883C304.024 201.651 303.814 202.493 303.791 203.35C303.791 206.17 303.791 208.35 305.611 210.01C307.431 211.67 308.611 211.62 308.611 211.62L310.221 212.62C310.221 212.62 306.221 221.5 308.611 226.14C311.001 230.78 312.241 230.38 312.241 230.38L317.081 239.26L330.001 236.07L323.341 221.14C323.341 221.14 334.441 198.33 333.231 194.7C332.021 191.07 327.001 186.43 324.001 183.4C322.973 182.257 321.566 181.525 320.04 181.34C318.514 181.154 316.973 181.527 315.701 182.39Z" stroke="#263238" stroke-linecap="round" stroke-linejoin="round"/>
<path d="M321.961 193.291L325.591 197.731" stroke="#263238" stroke-linecap="round" stroke-linejoin="round"/>
<path d="M311.061 193.891L319.131 200.151" stroke="#263238" stroke-linecap="round" stroke-linejoin="round"/>
<path d="M306.011 198.939L313.881 204.589" stroke="#263238" stroke-linecap="round" stroke-linejoin="round"/>
<path d="M310.251 212.661C309.411 211.926 308.728 211.029 308.243 210.024C307.759 209.018 307.482 207.925 307.431 206.811" stroke="#263238" stroke-linecap="round" stroke-linejoin="round"/>
</g>
<path d="M387 175.09V156.66L376.71 154.32C375.838 148.113 374.237 142.031 371.94 136.2L379.75 128.97L370.54 112.97L360.45 116.09C356.582 111.162 352.156 106.698 347.26 102.79L350.41 92.6101L334.46 83.4001L327.29 91.1301C321.478 88.7824 315.409 87.1277 309.21 86.2001L306.85 75.8301H288.4L286.06 86.1201C279.853 86.9891 273.77 88.5902 267.94 90.8901L260.7 83.0801L244.75 92.2901L247.87 102.38C242.942 106.245 238.482 110.671 234.58 115.57L224.39 112.42L215.18 128.37L222.91 135.54C220.565 141.369 218.917 147.455 218 153.67L207.61 156V174.42L217.9 176.77C218.775 182.973 220.376 189.051 222.67 194.88L214.86 202.12L224.07 218.07L234.17 214.95C238.028 219.88 242.452 224.341 247.35 228.24L244.2 238.43L260.2 247.64L267.36 239.91C273.173 242.256 279.241 243.911 285.44 244.84L287.8 255.21H306.23L308.53 245C314.736 244.124 320.817 242.523 326.65 240.23L333.88 248.04L349.83 238.83L346.71 228.73C351.64 224.853 356.1 220.413 360 215.5L370.18 218.65L379.39 202.65L371.66 195.48C374.008 189.668 375.662 183.599 376.59 177.4L387 175.09ZM364.23 165.56C364.232 178.794 360.309 191.731 352.958 202.736C345.607 213.741 335.158 222.318 322.932 227.384C310.706 232.45 297.252 233.776 284.273 231.196C271.293 228.615 259.369 222.243 250.011 212.886C240.652 203.529 234.279 191.607 231.696 178.627C229.114 165.648 230.438 152.194 235.502 139.967C240.566 127.74 249.142 117.29 260.146 109.937C271.149 102.585 284.086 98.6601 297.32 98.6601C315.059 98.668 332.068 105.72 344.609 118.265C357.151 130.81 364.197 147.821 364.2 165.56H364.23Z" fill="#263238" stroke="#263238" stroke-width="1.05114" stroke-miterlimit="10"/>
<path d="M387 171.21V152.78L376.71 150.44C375.84 144.236 374.239 138.157 371.94 132.33L379.75 125.09L370.54 109.09L360.45 112.21C356.568 107.311 352.131 102.879 347.23 99L350.38 88.82L334.43 79.61L327.26 87.34C321.448 84.9924 315.379 83.3376 309.18 82.41L306.82 72H288.4L286.06 82.29C279.853 83.159 273.77 84.7601 267.94 87.06L260.7 79.25L244.75 88.46L247.87 98.56C242.94 102.419 238.479 106.842 234.58 111.74L224.39 108.59L215.18 124.59L222.91 131.76C220.573 137.557 218.925 143.608 218 149.79L207.63 152.15V170.57L217.92 172.92C218.791 179.112 220.385 185.18 222.67 191L214.86 198.24L224.07 214.19L234.17 211.07C238.031 216.001 242.454 220.464 247.35 224.37L244.2 234.55L260.2 243.76L267.36 236.03C273.158 238.387 279.213 240.055 285.4 241L287.76 251.37H306.19L308.53 241.08C314.736 240.204 320.817 238.603 326.65 236.31L333.88 244.12L349.83 234.91L346.71 224.81C351.638 220.945 356.098 216.519 360 211.62L370.18 214.77L379.39 198.77L371.66 191.6C374.008 185.788 375.662 179.719 376.59 173.52L387 171.21ZM364.23 161.68C364.232 174.914 360.309 187.851 352.958 198.856C345.607 209.861 335.158 218.438 322.932 223.504C310.706 228.57 297.252 229.896 284.273 227.316C271.293 224.735 259.369 218.363 250.011 209.006C240.652 199.649 234.279 187.727 231.696 174.747C229.114 161.768 230.438 148.314 235.502 136.087C240.566 123.86 249.142 113.41 260.146 106.057C271.149 98.7045 284.086 94.78 297.32 94.78C315.059 94.788 332.068 101.84 344.609 114.385C357.151 126.93 364.197 143.941 364.2 161.68H364.23Z" fill="#FFFB18" stroke="#263238" stroke-linecap="round" stroke-linejoin="round"/>
<mask id="mask7_991_554" style="mask-type:luminance" maskUnits="userSpaceOnUse" x="85" y="194" width="148" height="148">
<path d="M159.07 341.59C199.801 341.59 232.82 308.571 232.82 267.84C232.82 227.109 199.801 194.09 159.07 194.09C118.339 194.09 85.3198 227.109 85.3198 267.84C85.3198 308.571 118.339 341.59 159.07 341.59Z" fill="white"/>
</mask>
<g mask="url(#mask7_991_554)">
<path d="M139.5 304.761C139.5 304.761 144.5 323.711 149.55 332.081C154.6 340.451 157.55 343.531 157.55 343.531C144.802 341.992 132.598 337.466 121.93 330.321C105 318.641 93.8398 296.001 93.8398 296.001L123.52 284.551L139.5 304.761Z" fill="#FFFB18" stroke="#263238" stroke-width="1.32365" stroke-linecap="round" stroke-linejoin="round"/>
<path d="M148.08 303.23C147.412 305.172 146.979 307.186 146.79 309.23C146.57 312.23 146.79 316.09 145.5 315.23C144.21 314.37 140.79 307.08 140.79 307.08L148.08 303.23Z" fill="#263238" stroke="#263238" stroke-linecap="round" stroke-linejoin="round"/>
<path d="M136.28 288.871L148.07 303.231L138 311.161L130.28 297.231L136.28 288.871Z" fill="white" stroke="#263238" stroke-linecap="round" stroke-linejoin="round"/>
<path d="M136.28 257.57C136.28 257.57 133.07 268.29 130.5 274.08C129.171 276.931 128.025 279.864 127.07 282.86C127.662 286.15 128.744 289.332 130.28 292.3C133.07 298.09 135.43 301.94 135.64 301.3C135.85 300.66 134.36 296.37 140.57 288.65C146.78 280.93 149.79 277.51 149.79 277.51L136.28 257.57Z" fill="white"/>
<mask id="mask8_991_554" style="mask-type:luminance" maskUnits="userSpaceOnUse" x="127" y="257" width="23" height="45">
<path d="M136.28 257.57C136.28 257.57 133.07 268.29 130.5 274.08C129.171 276.931 128.025 279.864 127.07 282.86C127.662 286.15 128.744 289.332 130.28 292.3C133.07 298.09 135.43 301.94 135.64 301.3C135.85 300.66 134.36 296.37 140.57 288.65C146.78 280.93 149.79 277.51 149.79 277.51L136.28 257.57Z" fill="white"/>
</mask>
<g mask="url(#mask8_991_554)">
<path d="M146.82 281L148.03 279L144.39 271L143.73 268.59L137.61 259.59L135.61 259.75C134.54 263.17 132.34 269.94 130.48 274.14C129.151 276.991 128.005 279.923 127.05 282.92C127.145 283.594 127.282 284.262 127.46 284.92L142.52 286.28C144.29 284.07 145.71 282.34 146.82 281Z" fill="#FFFB18"/>
<path opacity="0.5" d="M146.82 281L148.03 279L144.39 271L143.73 268.59L137.61 259.59L135.61 259.75C134.54 263.17 132.34 269.94 130.48 274.14C129.151 276.991 128.005 279.923 127.05 282.92C127.145 283.594 127.282 284.262 127.46 284.92L142.52 286.28C144.29 284.07 145.71 282.34 146.82 281Z" fill="white"/>
</g>
<path d="M136.28 257.57C136.28 257.57 133.07 268.29 130.5 274.08C129.171 276.931 128.025 279.864 127.07 282.86C127.662 286.15 128.744 289.332 130.28 292.3C133.07 298.09 135.43 301.94 135.64 301.3C135.85 300.66 134.36 296.37 140.57 288.65C146.78 280.93 149.79 277.51 149.79 277.51L136.28 257.57Z" stroke="#263238" stroke-linecap="round" stroke-linejoin="round"/>
<path d="M126.85 276.432C127.58 281.552 129.409 286.454 132.21 290.802C134.707 294.536 137.429 298.116 140.36 301.522L128 316.332C127.458 310.783 126.058 305.351 123.85 300.232C121.729 295.602 120.284 290.692 119.56 285.652L126.85 276.432Z" fill="white" stroke="#263238" stroke-linecap="round" stroke-linejoin="round"/>
<path d="M186.23 246.85C186.23 246.85 180.23 269.14 172.3 281.15C164.37 293.16 157.94 294.44 152.36 292.08C146.78 289.72 140.57 277.08 138.64 272.15C136.71 267.22 135.64 264.43 135.64 264.43C135.64 264.43 132 270.65 127.71 263.14C123.42 255.63 124.28 248.56 127.07 245.56C128.65 243.802 130.753 242.599 133.07 242.13C133.07 242.13 142.29 240.85 140.79 235.92C139.29 230.99 155.15 218.98 173.37 222.84C191.59 226.7 186.23 246.85 186.23 246.85Z" fill="white"/>
<mask id="mask9_991_554" style="mask-type:luminance" maskUnits="userSpaceOnUse" x="124" y="222" width="63" height="72">
<path d="M186.23 246.85C186.23 246.85 180.23 269.14 172.3 281.15C164.37 293.16 157.94 294.44 152.36 292.08C146.78 289.72 140.57 277.08 138.64 272.15C136.71 267.22 135.64 264.43 135.64 264.43C135.64 264.43 132 270.65 127.71 263.14C123.42 255.63 124.28 248.56 127.07 245.56C128.65 243.802 130.753 242.599 133.07 242.13C133.07 242.13 142.29 240.85 140.79 235.92C139.29 230.99 155.15 218.98 173.37 222.84C191.59 226.7 186.23 246.85 186.23 246.85Z" fill="white"/>
</mask>
<g mask="url(#mask9_991_554)">
<path d="M173.37 222.84C155.15 218.98 139.29 230.99 140.79 235.92C142.29 240.85 133.07 242.13 133.07 242.13C130.753 242.599 128.65 243.802 127.07 245.56C124.28 248.56 123.42 255.64 127.71 263.14C132 270.64 135.64 264.43 135.64 264.43C135.64 264.43 136.71 267.22 138.64 272.15C140.57 277.08 146.79 289.72 152.36 292.08C156.31 293.75 160.69 293.59 165.72 289.08C162.089 290.206 158.25 290.5 154.49 289.94C145.6 288.32 141.16 274.59 142.78 265.7C144.4 256.81 146.78 251.16 150.85 245.91C152.027 244.453 152.886 242.767 153.374 240.959C153.861 239.151 153.965 237.261 153.68 235.41C153.68 235.41 166.3 247.05 169.84 247.53C173.38 248.01 175.49 243.89 175.49 243.89C175.49 243.89 180.74 252.78 184.38 252.78H184.48C185.6 249.2 186.23 246.85 186.23 246.85C186.23 246.85 191.59 226.7 173.37 222.84Z" fill="#FFFB18"/>
<path opacity="0.5" d="M173.37 222.84C155.15 218.98 139.29 230.99 140.79 235.92C142.29 240.85 133.07 242.13 133.07 242.13C130.753 242.599 128.65 243.802 127.07 245.56C124.28 248.56 123.42 255.64 127.71 263.14C132 270.64 135.64 264.43 135.64 264.43C135.64 264.43 136.71 267.22 138.64 272.15C140.57 277.08 146.79 289.72 152.36 292.08C156.31 293.75 160.69 293.59 165.72 289.08C162.089 290.206 158.25 290.5 154.49 289.94C145.6 288.32 141.16 274.59 142.78 265.7C144.4 256.81 146.78 251.16 150.85 245.91C152.027 244.453 152.886 242.767 153.374 240.959C153.861 239.151 153.965 237.261 153.68 235.41C153.68 235.41 166.3 247.05 169.84 247.53C173.38 248.01 175.49 243.89 175.49 243.89C175.49 243.89 180.74 252.78 184.38 252.78H184.48C185.6 249.2 186.23 246.85 186.23 246.85C186.23 246.85 191.59 226.7 173.37 222.84Z" fill="white"/>
<path d="M160.26 263.84C160.26 263.84 166.58 249.46 166.05 254.68C165.52 259.9 164.84 269.18 162.97 268.98C161.1 268.78 160.26 263.84 160.26 263.84Z" fill="#FFFB18"/>
<path opacity="0.5" d="M160.26 263.84C160.26 263.84 166.58 249.46 166.05 254.68C165.52 259.9 164.84 269.18 162.97 268.98C161.1 268.78 160.26 263.84 160.26 263.84Z" fill="white"/>
</g>
<path d="M186.23 246.85C186.23 246.85 180.23 269.14 172.3 281.15C164.37 293.16 157.94 294.44 152.36 292.08C146.78 289.72 140.57 277.08 138.64 272.15C136.71 267.22 135.64 264.43 135.64 264.43C135.64 264.43 132 270.65 127.71 263.14C123.42 255.63 124.28 248.56 127.07 245.56C128.65 243.802 130.753 242.599 133.07 242.13C133.07 242.13 142.29 240.85 140.79 235.92C139.29 230.99 155.15 218.98 173.37 222.84C191.59 226.7 186.23 246.85 186.23 246.85Z" stroke="#263238" stroke-linecap="round" stroke-linejoin="round"/>
<path d="M172.3 254.352C172.3 254.352 169.94 264.642 169.51 269.352C169.08 274.062 169.08 274.922 164.58 273.212C160.08 271.502 158.79 266.132 158.79 266.132" stroke="#263238" stroke-linecap="round" stroke-linejoin="round"/>
<path d="M152.36 264.861C151.51 264.861 146.36 266.141 146.36 266.141" stroke="#263238" stroke-linecap="round" stroke-linejoin="round"/>
<path d="M149.58 265.932C149.58 265.932 150.43 273.862 156.22 275.582" stroke="#263238" stroke-linecap="round" stroke-linejoin="round"/>
<path d="M163.27 254.4C162.95 255.79 162.17 256.79 161.54 256.64C160.91 256.49 160.65 255.26 160.97 253.87C161.29 252.48 162.06 251.49 162.7 251.63C163.34 251.77 163.59 253 163.27 254.4Z" fill="#263238"/>
<path d="M177.45 259.07C177.13 260.45 176.35 261.46 175.72 261.31C175.09 261.16 174.83 259.92 175.15 258.54C175.47 257.16 176.24 256.15 176.88 256.3C177.52 256.45 177.77 257.68 177.45 259.07Z" fill="#263238"/>
<path d="M158.79 247.92C158.79 247.92 161.58 243.63 166.3 247.06" stroke="#263238" stroke-linecap="round" stroke-linejoin="round"/>
<path d="M174.66 251.78C174.66 251.78 178.95 248.56 181.52 254.78" stroke="#263238" stroke-linecap="round" stroke-linejoin="round"/>
<path d="M145.29 246.421C144.682 246.8 144.158 247.3 143.752 247.89C143.346 248.48 143.066 249.148 142.93 249.851C142.5 252.211 143.36 256.711 139.71 257.141C136.06 257.571 132 253.921 130.5 253.281C129 252.641 127.07 256.071 124.28 246.851C121.49 237.631 126.64 222.201 132.21 220.051C137.78 217.901 145.07 218.341 145.07 218.341C145.07 218.341 150 212.551 166.94 212.551C183.88 212.551 196.52 220.701 193.52 222.841C190.52 224.981 188.81 225.201 188.81 225.201C188.81 225.201 198.24 232.491 197.81 241.061C197.38 249.631 189.88 250.921 183.66 248.351C177.44 245.781 172.09 235.921 172.09 235.921C172.09 235.921 175.73 246.211 171.23 244.711C166.73 243.211 161.8 235.491 154.94 233.131C148.08 230.771 146.79 231.841 146.79 231.841C146.79 231.841 157.29 235.701 153.01 240.421C148.73 245.141 145.29 246.421 145.29 246.421Z" fill="#263238" stroke="#263238" stroke-linecap="round" stroke-linejoin="round"/>
<path d="M129.21 247.061C129.21 247.061 133.93 218.341 140.79 215.551C147.65 212.761 149.36 214.691 149.36 214.691C149.36 214.691 137.36 229.481 133.5 245.991L129.21 247.061Z" fill="white" stroke="#263238" stroke-linecap="round" stroke-linejoin="round"/>
<path d="M157.29 281.37C156.915 281.371 156.544 281.448 156.2 281.598C155.856 281.748 155.546 281.966 155.29 282.24C136.29 276.24 135.43 263.24 135.4 262.66C135.398 262.493 135.361 262.329 135.293 262.176C135.225 262.024 135.127 261.887 135.005 261.774C134.882 261.661 134.738 261.573 134.581 261.518C134.423 261.462 134.256 261.439 134.09 261.45C133.923 261.456 133.76 261.496 133.609 261.566C133.458 261.636 133.322 261.735 133.21 261.858C133.097 261.98 133.01 262.124 132.953 262.281C132.897 262.437 132.872 262.604 132.88 262.77C132.88 263.41 133.77 278.09 154.57 284.67C154.669 285.189 154.913 285.668 155.275 286.053C155.636 286.438 156.1 286.712 156.611 286.843C157.123 286.974 157.661 286.956 158.163 286.793C158.665 286.629 159.11 286.325 159.446 285.918C159.782 285.511 159.995 285.016 160.06 284.492C160.125 283.968 160.039 283.436 159.813 282.959C159.587 282.482 159.229 282.079 158.782 281.798C158.336 281.516 157.818 281.368 157.29 281.37Z" fill="#263238"/>
<path d="M131.68 265.291C136.711 265.291 140.79 260.684 140.79 255.001C140.79 249.318 136.711 244.711 131.68 244.711C126.649 244.711 122.57 249.318 122.57 255.001C122.57 260.684 126.649 265.291 131.68 265.291Z" fill="#FFFB18" stroke="#263238" stroke-linecap="round" stroke-linejoin="round"/>
<path d="M156.65 345.251L166.36 320.001C166.665 319.2 167.176 318.495 167.842 317.956C168.507 317.417 169.304 317.063 170.15 316.931L224.36 308.281C224.691 308.228 225.031 308.267 225.341 308.393C225.652 308.519 225.923 308.728 226.124 308.997C226.324 309.265 226.448 309.584 226.481 309.918C226.514 310.252 226.454 310.588 226.31 310.891L216 332.391L156.65 345.251Z" fill="#263238" stroke="#263238" stroke-linecap="round" stroke-linejoin="round"/>
</g>
<path d="M248.75 281.251V262.831L238.46 260.491C237.585 254.285 235.984 248.203 233.69 242.371L241.49 235.141L232.28 219.141L222.19 222.261C218.324 217.343 213.897 212.893 209 209.001L212.15 198.811L196.15 189.601L189 197.351C183.216 195.002 177.174 193.347 171 192.421L168.64 182.051H150.17L147.83 192.331C141.624 193.206 135.542 194.806 129.71 197.101L122.48 189.301L106.48 198.511L109.6 208.601C104.675 212.465 100.215 216.888 96.3101 221.781L86.1301 218.631L76.9101 234.631L84.6501 241.791C82.3034 247.607 80.6487 253.678 79.7201 259.881L69.3901 262.201V280.621L79.6801 283.001C80.5457 289.209 82.1469 295.291 84.4501 301.121L76.6401 308.351L85.8501 324.351L95.9401 321.231C99.8067 326.154 104.229 330.613 109.12 334.521L106 344.631L122 353.841L129.17 346.101C134.96 348.437 141.005 350.082 147.18 351.001L149.54 361.371H168L170.34 351.081C176.547 350.214 182.629 348.616 188.46 346.321L195.69 354.121L211.69 344.911L208.57 334.821C213.498 330.96 217.958 326.536 221.86 321.641L232 324.821L241.21 308.821L233.47 301.651C235.827 295.842 237.482 289.772 238.4 283.571L248.75 281.251ZM226 271.721C226.002 284.955 222.079 297.893 214.728 308.898C207.377 319.903 196.927 328.48 184.7 333.546C172.473 338.611 159.019 339.937 146.039 337.356C133.059 334.774 121.136 328.401 111.778 319.043C102.419 309.685 96.0467 297.762 93.4653 284.782C90.8839 271.802 92.2098 258.347 97.2753 246.121C102.341 233.894 110.918 223.444 121.923 216.093C132.928 208.742 145.866 204.819 159.1 204.821C176.842 204.823 193.857 211.873 206.403 224.418C218.948 236.964 225.997 253.979 226 271.721Z" fill="#263238" stroke="#263238" stroke-width="1.05114" stroke-miterlimit="10"/>
<path d="M248.75 277.37V259L238.46 256.66C237.585 250.454 235.984 244.372 233.69 238.54L241.49 231.31L232.28 215.31L222.19 218.43C218.326 213.498 213.9 209.034 209 205.13L212.15 194.94L196.15 185.73L189 193.47C183.214 191.126 177.173 189.471 171 188.54L168.64 178.17H150.17L147.83 188.46C141.624 189.327 135.541 190.925 129.71 193.22L122.48 185.42L106.48 194.63L109.6 204.72C104.689 208.586 100.242 213.009 96.3501 217.9L86.1701 214.75L76.9501 230.75L84.6901 237.91C82.3434 243.726 80.6887 249.798 79.7601 256L69.3901 258.36V276.78L79.6801 279.12C80.5457 285.328 82.1469 291.411 84.4501 297.24L76.6401 304.47L85.8501 320.47L95.9401 317.35C99.8067 322.273 104.229 326.733 109.12 330.64L106 340.75L122 349.96L129.17 342.22C134.981 344.572 141.05 346.227 147.25 347.15L149.61 357.52H168L170.34 347.23C176.547 346.363 182.629 344.765 188.46 342.47L195.69 350.27L211.69 341.06L208.49 331C213.418 327.139 217.878 322.715 221.78 317.82L232 320.94L241.21 304.94L233.47 297.78C235.826 291.967 237.481 285.894 238.4 279.69L248.75 277.37ZM226 267.84C226.002 281.074 222.079 294.012 214.728 305.017C207.377 316.022 196.927 324.599 184.7 329.665C172.473 334.73 159.019 336.056 146.039 333.475C133.059 330.893 121.136 324.521 111.778 315.162C102.419 305.804 96.0467 293.881 93.4653 280.901C90.8839 267.921 92.2098 254.467 97.2753 242.24C102.341 230.013 110.918 219.564 121.923 212.212C132.928 204.861 145.866 200.938 159.1 200.94C176.842 200.943 193.857 207.992 206.403 220.537C218.948 233.083 225.997 250.098 226 267.84Z" fill="#FFFB18" stroke="#263238" stroke-linecap="round" stroke-linejoin="round"/>
</svg>
