<svg width="750" height="500" viewBox="0 0 750 500" fill="none" xmlns="http://www.w3.org/2000/svg">
<path d="M454 396H627.5C630.815 396 633.995 394.683 636.339 392.339C638.683 389.995 640 386.815 640 383.5V62.5C640 59.1848 638.683 56.0054 636.339 53.6612C633.995 51.317 630.815 50 627.5 50H125.5C122.185 50 119.005 51.317 116.661 53.6612C114.317 56.0054 113 59.1848 113 62.5V383.5C113 386.815 114.317 389.995 116.661 392.339C119.005 394.683 122.185 396 125.5 396H299" stroke="white" stroke-linecap="round" stroke-linejoin="round"/>
<path d="M628 64H124V359H628V64Z" stroke="white" stroke-linecap="round" stroke-linejoin="round"/>
<path d="M454 396H299V430.95H454V396Z" stroke="white" stroke-linecap="round" stroke-linejoin="round"/>
<path d="M454 430.95H481V444.29H272V430.95H299" stroke="white" stroke-linecap="round" stroke-linejoin="round"/>
<path d="M199.37 157.5H160.12V105.17H190.96L199.37 113.39V157.5Z" fill="white" stroke="#4E5463" stroke-linecap="round" stroke-linejoin="round"/>
<path d="M192.02 112.53V114.67L199.37 113.4L192.02 112.53Z" fill="#4E5463" stroke="#4E5463" stroke-linecap="round" stroke-linejoin="round"/>
<path d="M190.96 105.17V113.4H199.37L190.96 105.17Z" fill="white" stroke="#4E5463" stroke-linecap="round" stroke-linejoin="round"/>
<path d="M165.11 116.54H195.32" stroke="#4E5463" stroke-linecap="round" stroke-linejoin="round"/>
<path d="M165.11 124.02H195.32" stroke="#4E5463" stroke-linecap="round" stroke-linejoin="round"/>
<path d="M165.11 131.49H195.32" stroke="#4E5463" stroke-linecap="round" stroke-linejoin="round"/>
<path d="M165.11 138.97H195.32" stroke="#4E5463" stroke-linecap="round" stroke-linejoin="round"/>
<path d="M165.11 146.439H195.32" stroke="#4E5463" stroke-linecap="round" stroke-linejoin="round"/>
<path d="M88.5303 220.74H102.59" stroke="#4E5463" stroke-linecap="round" stroke-linejoin="round"/>
<path d="M72.9902 220.74H85.9902" stroke="#4E5463" stroke-linecap="round" stroke-linejoin="round"/>
<path d="M97.1504 225.18H102.59" stroke="#4E5463" stroke-linecap="round" stroke-linejoin="round"/>
<path d="M72.9902 225.18H94.6102" stroke="#4E5463" stroke-linecap="round" stroke-linejoin="round"/>
<path d="M100.45 229.62H102.59" stroke="#4E5463" stroke-linecap="round" stroke-linejoin="round"/>
<path d="M88.7803 229.62H96.9003" stroke="#4E5463" stroke-linecap="round" stroke-linejoin="round"/>
<path d="M72.9902 229.62H86.5002" stroke="#4E5463" stroke-linecap="round" stroke-linejoin="round"/>
<path d="M72.9902 234.06H102.59" stroke="#4E5463" stroke-linecap="round" stroke-linejoin="round"/>
<path d="M97.6602 238.5H102.59" stroke="#4E5463" stroke-linecap="round" stroke-linejoin="round"/>
<path d="M80.6704 238.5H92.5904" stroke="#4E5463" stroke-linecap="round" stroke-linejoin="round"/>
<path d="M72.9902 238.5H77.1202" stroke="#4E5463" stroke-linecap="round" stroke-linejoin="round"/>
<path d="M86.5 242.939H102.59" stroke="#4E5463" stroke-linecap="round" stroke-linejoin="round"/>
<path d="M72.9902 242.939H83.7102" stroke="#4E5463" stroke-linecap="round" stroke-linejoin="round"/>
<path d="M94.6104 247.38H102.59" stroke="#4E5463" stroke-linecap="round" stroke-linejoin="round"/>
<path d="M86.75 247.38H92.33" stroke="#4E5463" stroke-linecap="round" stroke-linejoin="round"/>
<path d="M72.9902 247.38H83.7102" stroke="#4E5463" stroke-linecap="round" stroke-linejoin="round"/>
<path d="M178.66 280.42H146.29V237.26H171.72L178.66 244.03V280.42Z" fill="#0CFFBB" stroke="#4E5463" stroke-linecap="round" stroke-linejoin="round"/>
<path d="M172.59 243.33V245.09L178.66 244.04L172.59 243.33Z" fill="#4E5463" stroke="#4E5463" stroke-linecap="round" stroke-linejoin="round"/>
<path d="M171.72 237.26V244.04H178.66L171.72 237.26Z" fill="white" stroke="#4E5463" stroke-linecap="round" stroke-linejoin="round"/>
<path d="M150.4 246.63H175.32" stroke="#4E5463" stroke-linecap="round" stroke-linejoin="round"/>
<path d="M150.4 252.8H175.32" stroke="#4E5463" stroke-linecap="round" stroke-linejoin="round"/>
<path d="M150.4 258.97H175.32" stroke="#4E5463" stroke-linecap="round" stroke-linejoin="round"/>
<path d="M150.4 265.13H175.32" stroke="#4E5463" stroke-linecap="round" stroke-linejoin="round"/>
<path d="M150.4 271.3H175.32" stroke="#4E5463" stroke-linecap="round" stroke-linejoin="round"/>
<path d="M144.63 162.34H105.38V110.01H136.22L144.63 118.22V162.34Z" fill="#0CFFBB" stroke="#4E5463" stroke-linecap="round" stroke-linejoin="round"/>
<path d="M137.27 117.37V119.51L144.63 118.23L137.27 117.37Z" fill="#4E5463" stroke="#4E5463" stroke-linecap="round" stroke-linejoin="round"/>
<path d="M136.22 110.01V118.23H144.63L136.22 110.01Z" fill="white" stroke="#4E5463" stroke-linecap="round" stroke-linejoin="round"/>
<path d="M110.36 121.38H140.58" stroke="#4E5463" stroke-linecap="round" stroke-linejoin="round"/>
<path d="M110.36 128.85H140.58" stroke="#4E5463" stroke-linecap="round" stroke-linejoin="round"/>
<path d="M110.36 136.33H140.58" stroke="#4E5463" stroke-linecap="round" stroke-linejoin="round"/>
<path d="M110.36 143.81H140.58" stroke="#4E5463" stroke-linecap="round" stroke-linejoin="round"/>
<path d="M110.36 151.28H140.58" stroke="#4E5463" stroke-linecap="round" stroke-linejoin="round"/>
<path d="M228.69 186.279H189.44V133.939H220.28L228.69 142.159V186.279Z" fill="#0CFFBB" stroke="#4E5463" stroke-linecap="round" stroke-linejoin="round"/>
<path d="M221.34 141.3V143.45L228.69 142.17L221.34 141.3Z" fill="#4E5463" stroke="#4E5463" stroke-linecap="round" stroke-linejoin="round"/>
<path d="M220.28 133.939V142.169H228.69L220.28 133.939Z" fill="white" stroke="#4E5463" stroke-linecap="round" stroke-linejoin="round"/>
<path d="M194.43 145.32H224.64" stroke="#4E5463" stroke-linecap="round" stroke-linejoin="round"/>
<path d="M194.43 152.79H224.64" stroke="#4E5463" stroke-linecap="round" stroke-linejoin="round"/>
<path d="M194.43 160.27H224.64" stroke="#4E5463" stroke-linecap="round" stroke-linejoin="round"/>
<path d="M194.43 167.74H224.64" stroke="#4E5463" stroke-linecap="round" stroke-linejoin="round"/>
<path d="M194.43 175.22H224.64" stroke="#4E5463" stroke-linecap="round" stroke-linejoin="round"/>
<path d="M281.35 244.279H242.1V191.939H272.94L281.35 200.159V244.279Z" fill="white" stroke="#4E5463" stroke-linecap="round" stroke-linejoin="round"/>
<path d="M273.99 199.3V201.45L281.35 200.17L273.99 199.3Z" fill="#4E5463" stroke="#4E5463" stroke-linecap="round" stroke-linejoin="round"/>
<path d="M272.94 191.939V200.169H281.35L272.94 191.939Z" fill="white" stroke="#4E5463" stroke-linecap="round" stroke-linejoin="round"/>
<path d="M247.08 203.32H277.3" stroke="#4E5463" stroke-linecap="round" stroke-linejoin="round"/>
<path d="M247.08 210.79H277.3" stroke="#4E5463" stroke-linecap="round" stroke-linejoin="round"/>
<path d="M247.08 218.27H277.3" stroke="#4E5463" stroke-linecap="round" stroke-linejoin="round"/>
<path d="M247.08 225.74H277.3" stroke="#4E5463" stroke-linecap="round" stroke-linejoin="round"/>
<path d="M247.08 233.22H277.3" stroke="#4E5463" stroke-linecap="round" stroke-linejoin="round"/>
<path d="M171.82 148.84H128.63C123.875 148.84 120.02 152.695 120.02 157.45V208.79C120.02 213.545 123.875 217.4 128.63 217.4H171.82C176.575 217.4 180.43 213.545 180.43 208.79V157.45C180.43 152.695 176.575 148.84 171.82 148.84Z" fill="white" stroke="#4E5463" stroke-linecap="round" stroke-linejoin="round"/>
<path d="M173.71 148.84H126.71C124.93 148.84 123.224 149.547 121.965 150.805C120.707 152.064 120 153.77 120 155.55V157H180.4V155.56C180.403 153.782 179.7 152.076 178.445 150.816C177.191 149.556 175.488 148.845 173.71 148.84Z" fill="#4E5463" stroke="#4E5463" stroke-linecap="round" stroke-linejoin="round"/>
<path d="M128.64 168.979H171.79" stroke="#4E5463" stroke-linecap="round" stroke-linejoin="round"/>
<path d="M128.64 179.52H171.79" stroke="#4E5463" stroke-linecap="round" stroke-linejoin="round"/>
<path d="M128.64 190.07H171.79" stroke="#4E5463" stroke-linecap="round" stroke-linejoin="round"/>
<path d="M128.64 200.62H171.79" stroke="#4E5463" stroke-linecap="round" stroke-linejoin="round"/>
<path d="M165 152.68C165 152.3 164.888 151.929 164.677 151.613C164.466 151.297 164.166 151.051 163.815 150.906C163.464 150.761 163.078 150.723 162.706 150.797C162.333 150.871 161.991 151.054 161.723 151.322C161.454 151.591 161.271 151.933 161.197 152.305C161.123 152.678 161.161 153.064 161.306 153.415C161.452 153.765 161.698 154.065 162.013 154.276C162.329 154.487 162.7 154.6 163.08 154.6C163.589 154.6 164.078 154.397 164.438 154.037C164.798 153.677 165 153.189 165 152.68Z" fill="white"/>
<path d="M171.36 152.68C171.36 152.3 171.247 151.929 171.036 151.613C170.825 151.297 170.526 151.051 170.175 150.906C169.824 150.761 169.438 150.723 169.065 150.797C168.693 150.871 168.351 151.054 168.082 151.322C167.814 151.591 167.631 151.933 167.557 152.305C167.483 152.678 167.521 153.064 167.666 153.415C167.811 153.765 168.058 154.065 168.373 154.276C168.689 154.487 169.06 154.6 169.44 154.6C169.949 154.6 170.438 154.397 170.798 154.037C171.158 153.677 171.36 153.189 171.36 152.68Z" fill="white"/>
<path d="M177.67 152.68C177.67 152.3 177.557 151.928 177.346 151.612C177.134 151.296 176.834 151.05 176.483 150.905C176.131 150.76 175.745 150.722 175.372 150.797C174.999 150.872 174.657 151.056 174.389 151.326C174.121 151.595 173.939 151.938 173.866 152.311C173.793 152.684 173.832 153.071 173.979 153.421C174.126 153.772 174.374 154.071 174.691 154.281C175.008 154.491 175.38 154.602 175.76 154.6C176.012 154.6 176.261 154.55 176.493 154.453C176.726 154.357 176.937 154.215 177.114 154.037C177.292 153.858 177.432 153.647 177.528 153.414C177.623 153.181 177.671 152.931 177.67 152.68Z" fill="white"/>
<path d="M130.42 204.979H105.75C100.995 204.979 97.1401 208.834 97.1401 213.589V243.91C97.1401 248.665 100.995 252.52 105.75 252.52H130.42C135.175 252.52 139.03 248.665 139.03 243.91V213.589C139.03 208.834 135.175 204.979 130.42 204.979Z" fill="white" stroke="#4E5463" stroke-linecap="round" stroke-linejoin="round"/>
<path d="M134.37 205H101.79C100.557 205 99.3741 205.49 98.5021 206.362C97.63 207.234 97.1401 208.417 97.1401 209.65V210.65H139V209.65C139 208.42 138.513 207.24 137.645 206.369C136.778 205.498 135.6 205.005 134.37 205Z" fill="#4E5463" stroke="#4E5463" stroke-linecap="round" stroke-linejoin="round"/>
<path d="M103.12 218.939H133.04" stroke="#4E5463" stroke-linecap="round" stroke-linejoin="round"/>
<path d="M103.12 226.25H133.04" stroke="#4E5463" stroke-linecap="round" stroke-linejoin="round"/>
<path d="M103.12 233.57H133.04" stroke="#4E5463" stroke-linecap="round" stroke-linejoin="round"/>
<path d="M103.12 240.88H133.04" stroke="#4E5463" stroke-linecap="round" stroke-linejoin="round"/>
<path d="M127.03 208.96C127.765 208.96 128.36 208.364 128.36 207.63C128.36 206.895 127.765 206.3 127.03 206.3C126.296 206.3 125.7 206.895 125.7 207.63C125.7 208.364 126.296 208.96 127.03 208.96Z" fill="white"/>
<path d="M131.41 208.96C132.145 208.96 132.74 208.364 132.74 207.63C132.74 206.895 132.145 206.3 131.41 206.3C130.676 206.3 130.08 206.895 130.08 207.63C130.08 208.364 130.676 208.96 131.41 208.96Z" fill="white"/>
<path d="M137.12 207.63C137.12 207.367 137.042 207.11 136.896 206.891C136.75 206.672 136.542 206.502 136.299 206.401C136.056 206.3 135.789 206.274 135.531 206.325C135.273 206.377 135.036 206.503 134.85 206.689C134.664 206.875 134.537 207.112 134.486 207.37C134.435 207.628 134.461 207.896 134.562 208.139C134.662 208.382 134.833 208.59 135.052 208.736C135.27 208.882 135.527 208.96 135.79 208.96C135.965 208.96 136.138 208.925 136.299 208.859C136.461 208.792 136.607 208.694 136.731 208.57C136.854 208.447 136.952 208.3 137.019 208.139C137.086 207.977 137.12 207.804 137.12 207.63Z" fill="white"/>
<path d="M117.86 266.83H131.92" stroke="#4E5463" stroke-linecap="round" stroke-linejoin="round"/>
<path d="M102.31 266.83H115.32" stroke="#4E5463" stroke-linecap="round" stroke-linejoin="round"/>
<path d="M126.48 271.27H131.92" stroke="#4E5463" stroke-linecap="round" stroke-linejoin="round"/>
<path d="M102.31 271.27H123.94" stroke="#4E5463" stroke-linecap="round" stroke-linejoin="round"/>
<path d="M129.77 275.71H131.92" stroke="#4E5463" stroke-linecap="round" stroke-linejoin="round"/>
<path d="M118.11 275.71H126.22" stroke="#4E5463" stroke-linecap="round" stroke-linejoin="round"/>
<path d="M102.31 275.71H115.83" stroke="#4E5463" stroke-linecap="round" stroke-linejoin="round"/>
<path d="M102.31 280.15H131.92" stroke="#4E5463" stroke-linecap="round" stroke-linejoin="round"/>
<path d="M126.99 284.59H131.92" stroke="#4E5463" stroke-linecap="round" stroke-linejoin="round"/>
<path d="M110 284.59H121.91" stroke="#4E5463" stroke-linecap="round" stroke-linejoin="round"/>
<path d="M102.31 284.59H106.45" stroke="#4E5463" stroke-linecap="round" stroke-linejoin="round"/>
<path d="M115.83 289.03H131.92" stroke="#4E5463" stroke-linecap="round" stroke-linejoin="round"/>
<path d="M102.31 289.03H113.04" stroke="#4E5463" stroke-linecap="round" stroke-linejoin="round"/>
<path d="M123.94 293.47H131.92" stroke="#4E5463" stroke-linecap="round" stroke-linejoin="round"/>
<path d="M116.08 293.47H121.66" stroke="#4E5463" stroke-linecap="round" stroke-linejoin="round"/>
<path d="M102.31 293.47H113.04" stroke="#4E5463" stroke-linecap="round" stroke-linejoin="round"/>
<path d="M217.25 260.86H231.32" stroke="#4E5463" stroke-linecap="round" stroke-linejoin="round"/>
<path d="M201.71 260.86H214.72" stroke="#4E5463" stroke-linecap="round" stroke-linejoin="round"/>
<path d="M225.87 265.31H231.32" stroke="#4E5463" stroke-linecap="round" stroke-linejoin="round"/>
<path d="M201.71 265.31H223.34" stroke="#4E5463" stroke-linecap="round" stroke-linejoin="round"/>
<path d="M229.17 269.75H231.32" stroke="#4E5463" stroke-linecap="round" stroke-linejoin="round"/>
<path d="M217.51 269.75H225.62" stroke="#4E5463" stroke-linecap="round" stroke-linejoin="round"/>
<path d="M201.71 269.75H215.23" stroke="#4E5463" stroke-linecap="round" stroke-linejoin="round"/>
<path d="M201.71 274.189H231.32" stroke="#4E5463" stroke-linecap="round" stroke-linejoin="round"/>
<path d="M226.38 278.63H231.32" stroke="#4E5463" stroke-linecap="round" stroke-linejoin="round"/>
<path d="M209.39 278.63H221.31" stroke="#4E5463" stroke-linecap="round" stroke-linejoin="round"/>
<path d="M201.71 278.63H205.84" stroke="#4E5463" stroke-linecap="round" stroke-linejoin="round"/>
<path d="M215.23 283.07H231.32" stroke="#4E5463" stroke-linecap="round" stroke-linejoin="round"/>
<path d="M201.71 283.07H212.44" stroke="#4E5463" stroke-linecap="round" stroke-linejoin="round"/>
<path d="M223.34 287.51H231.32" stroke="#4E5463" stroke-linecap="round" stroke-linejoin="round"/>
<path d="M215.48 287.51H221.06" stroke="#4E5463" stroke-linecap="round" stroke-linejoin="round"/>
<path d="M201.71 287.51H212.44" stroke="#4E5463" stroke-linecap="round" stroke-linejoin="round"/>
<path d="M250.15 160.14H264.21" stroke="#4E5463" stroke-linecap="round" stroke-linejoin="round"/>
<path d="M234.6 160.14H247.61" stroke="#4E5463" stroke-linecap="round" stroke-linejoin="round"/>
<path d="M258.77 164.58H264.21" stroke="#4E5463" stroke-linecap="round" stroke-linejoin="round"/>
<path d="M234.6 164.58H256.23" stroke="#4E5463" stroke-linecap="round" stroke-linejoin="round"/>
<path d="M262.06 169.02H264.21" stroke="#4E5463" stroke-linecap="round" stroke-linejoin="round"/>
<path d="M250.4 169.02H258.51" stroke="#4E5463" stroke-linecap="round" stroke-linejoin="round"/>
<path d="M234.6 169.02H248.12" stroke="#4E5463" stroke-linecap="round" stroke-linejoin="round"/>
<path d="M234.6 173.46H264.21" stroke="#4E5463" stroke-linecap="round" stroke-linejoin="round"/>
<path d="M259.28 177.9H264.21" stroke="#4E5463" stroke-linecap="round" stroke-linejoin="round"/>
<path d="M242.29 177.9H254.2" stroke="#4E5463" stroke-linecap="round" stroke-linejoin="round"/>
<path d="M234.6 177.9H238.74" stroke="#4E5463" stroke-linecap="round" stroke-linejoin="round"/>
<path d="M248.12 182.34H264.21" stroke="#4E5463" stroke-linecap="round" stroke-linejoin="round"/>
<path d="M234.6 182.34H245.33" stroke="#4E5463" stroke-linecap="round" stroke-linejoin="round"/>
<path d="M256.23 186.78H264.21" stroke="#4E5463" stroke-linecap="round" stroke-linejoin="round"/>
<path d="M248.37 186.78H253.95" stroke="#4E5463" stroke-linecap="round" stroke-linejoin="round"/>
<path d="M234.6 186.78H245.33" stroke="#4E5463" stroke-linecap="round" stroke-linejoin="round"/>
<path d="M95.8901 170.17H109.95" stroke="#4E5463" stroke-linecap="round" stroke-linejoin="round"/>
<path d="M80.3403 170.17H93.3503" stroke="#4E5463" stroke-linecap="round" stroke-linejoin="round"/>
<path d="M104.51 174.61H109.95" stroke="#4E5463" stroke-linecap="round" stroke-linejoin="round"/>
<path d="M80.3403 174.61H101.97" stroke="#4E5463" stroke-linecap="round" stroke-linejoin="round"/>
<path d="M107.81 179.05H109.95" stroke="#4E5463" stroke-linecap="round" stroke-linejoin="round"/>
<path d="M96.1401 179.05H104.26" stroke="#4E5463" stroke-linecap="round" stroke-linejoin="round"/>
<path d="M80.3403 179.05H93.8603" stroke="#4E5463" stroke-linecap="round" stroke-linejoin="round"/>
<path d="M80.3403 183.49H109.95" stroke="#4E5463" stroke-linecap="round" stroke-linejoin="round"/>
<path d="M105.02 187.93H109.95" stroke="#4E5463" stroke-linecap="round" stroke-linejoin="round"/>
<path d="M88.0303 187.93H99.9503" stroke="#4E5463" stroke-linecap="round" stroke-linejoin="round"/>
<path d="M80.3403 187.93H84.4803" stroke="#4E5463" stroke-linecap="round" stroke-linejoin="round"/>
<path d="M93.8604 192.37H109.95" stroke="#4E5463" stroke-linecap="round" stroke-linejoin="round"/>
<path d="M80.3403 192.37H91.0703" stroke="#4E5463" stroke-linecap="round" stroke-linejoin="round"/>
<path d="M101.97 196.81H109.95" stroke="#4E5463" stroke-linecap="round" stroke-linejoin="round"/>
<path d="M94.1104 196.81H99.6904" stroke="#4E5463" stroke-linecap="round" stroke-linejoin="round"/>
<path d="M80.3403 196.81H91.0703" stroke="#4E5463" stroke-linecap="round" stroke-linejoin="round"/>
<path d="M183.82 205.35V249.47H223.07V197.14H192.24L183.82 205.35Z" fill="white" stroke="#4E5463" stroke-linecap="round" stroke-linejoin="round"/>
<path d="M191.18 204.5V206.64L183.82 205.37L191.18 204.5Z" fill="#4E5463" stroke="#4E5463" stroke-linecap="round" stroke-linejoin="round"/>
<path d="M192.23 197.14V205.37H183.82L192.23 197.14Z" fill="white" stroke="#4E5463" stroke-linecap="round" stroke-linejoin="round"/>
<path d="M218.09 208.51H187.87" stroke="#4E5463" stroke-linecap="round" stroke-linejoin="round"/>
<path d="M218.09 215.979H187.87" stroke="#4E5463" stroke-linecap="round" stroke-linejoin="round"/>
<path d="M218.09 223.46H187.87" stroke="#4E5463" stroke-linecap="round" stroke-linejoin="round"/>
<path d="M218.09 230.939H187.87" stroke="#4E5463" stroke-linecap="round" stroke-linejoin="round"/>
<path d="M223.07 237.26H183.82V249.48H223.07V237.26Z" fill="#4E5463" stroke="#4E5463" stroke-linecap="round" stroke-linejoin="round"/>
<path d="M229.13 208.78H201.97V221.86H229.13V208.78Z" fill="#4E5463" stroke="#4E5463" stroke-linecap="round" stroke-linejoin="round"/>
<path d="M213.12 210.63C214.51 210.63 215.12 211.45 215.12 212.78V213.84C215.164 214.118 215.144 214.402 215.061 214.671C214.978 214.94 214.834 215.187 214.641 215.392C214.448 215.596 214.21 215.754 213.947 215.853C213.683 215.951 213.4 215.988 213.12 215.96H212.25V219.44H211.25V210.63H213.12ZM213.05 215.08C213.78 215.08 214.13 214.74 214.13 213.9V212.73C214.13 211.93 213.84 211.52 213.13 211.52H212.19V215.08H213.05Z" fill="white"/>
<path d="M218 210.63C219.37 210.63 220 211.46 220 212.82V217.26C220 218.61 219.37 219.44 218 219.44H215.9V210.63H218ZM218 218.54C218.7 218.54 219 218.1 219 217.3V212.77C219 211.96 218.66 211.52 217.95 211.52H216.89V218.52L218 218.54Z" fill="white"/>
<path d="M223.88 214.73V215.62H221.88V219.44H220.88V210.63H224.38V211.52H221.86V214.73H223.88Z" fill="white"/>
<path opacity="0.2" d="M693.08 246.2L686.16 246.03L686.06 249.97C684.357 250.149 682.68 250.518 681.06 251.07L679.11 247.5L673 250.82L674.88 254.27C673.487 255.292 672.21 256.462 671.07 257.76L667.6 255.63L664 261.54L667.35 263.54C666.653 265.121 666.133 266.775 665.8 268.47L661.73 268.36L661.56 275.29L665.5 275.39C665.678 277.093 666.047 278.77 666.6 280.39L663 282.42L666.31 288.51L669.77 286.63C670.786 288.022 671.953 289.297 673.25 290.43L671.13 293.91L677.04 297.52L679.09 294.17C680.668 294.866 682.318 295.386 684.01 295.72L683.91 299.79L690.84 299.96L691 296C692.703 295.822 694.38 295.453 696 294.9L697.94 298.47L704.03 295.16L702.14 291.7C703.535 290.685 704.813 289.518 705.95 288.22L709.42 290.34L713.04 284.43L709.68 282.38C710.382 280.801 710.902 279.147 711.23 277.45L715.3 277.56L715.48 270.63L711.54 270.53C711.357 268.828 710.988 267.152 710.44 265.53L714 263.59L710.69 257.5L707.23 259.39C706.22 257.991 705.052 256.712 703.75 255.58L705.88 252.1L700 248.47L697.95 251.83C696.375 251.124 694.724 250.601 693.03 250.27L693.08 246.2ZM688.08 289.67C684.782 289.588 681.583 288.53 678.886 286.629C676.19 284.729 674.117 282.071 672.931 278.993C671.745 275.915 671.498 272.554 672.222 269.335C672.946 266.117 674.608 263.185 676.998 260.911C679.388 258.637 682.399 257.123 685.649 256.56C688.9 255.997 692.244 256.411 695.26 257.749C698.275 259.087 700.826 261.289 702.59 264.076C704.354 266.864 705.252 270.112 705.17 273.41C705.057 277.832 703.194 282.028 699.99 285.077C696.785 288.126 692.502 289.778 688.08 289.67Z" stroke="white" stroke-linecap="round" stroke-linejoin="round"/>
<path opacity="0.2" d="M673.51 194.441L666.59 194.271L666.49 198.201C664.788 198.386 663.111 198.758 661.49 199.311L659.49 195.741L653.41 199.051L655.29 202.51C653.897 203.528 652.62 204.695 651.48 205.991L648 203.87L644.39 209.781L647.74 211.831C647.043 213.408 646.523 215.058 646.19 216.751L642.12 216.65L641.95 223.581L645.88 223.671C646.063 225.39 646.435 227.083 646.99 228.721L643.42 230.661L646.73 236.741L650.19 234.861C651.206 236.255 652.373 237.533 653.67 238.671L651.55 242.141L657.46 245.76L659.46 242.4C661.036 243.102 662.687 243.622 664.38 243.951L664.28 248.021L671.21 248.201L671.31 244.26C673.013 244.079 674.69 243.706 676.31 243.15L678.25 246.721L684.33 243.411L682.56 240.001C683.955 238.985 685.233 237.818 686.37 236.521L689.84 238.641L693.46 232.73L690.1 230.68C690.803 229.105 691.323 227.454 691.65 225.76L695.72 225.861L695.9 218.941L691.96 218.84C691.781 217.137 691.408 215.46 690.85 213.84L694.42 211.891L691.11 205.811L687.65 207.691C686.635 206.295 685.468 205.018 684.17 203.881L686.29 200.411L680.38 196.801L678.38 200.15C676.803 199.452 675.153 198.932 673.46 198.601L673.51 194.441ZM668.51 237.9C665.212 237.818 662.012 236.76 659.315 234.859C656.618 232.958 654.546 230.3 653.36 227.221C652.174 224.142 651.928 220.781 652.653 217.562C653.378 214.343 655.041 211.411 657.432 209.138C659.823 206.864 662.835 205.351 666.086 204.789C669.337 204.227 672.682 204.643 675.697 205.982C678.712 207.321 681.263 209.525 683.025 212.314C684.788 215.103 685.684 218.352 685.6 221.65C685.488 226.071 683.624 230.266 680.419 233.314C677.215 236.361 672.931 238.011 668.51 237.9Z" stroke="white" stroke-linecap="round" stroke-linejoin="round"/>
<path opacity="0.2" d="M336.44 130V123H332.5C332.278 121.293 331.865 119.616 331.27 118L334.79 116L331.32 110L327.91 112C326.859 110.634 325.662 109.387 324.34 108.28L326.34 104.76L320.34 101.29L318.34 104.7C316.731 104.042 315.054 103.563 313.34 103.27V99.1504H306.41V103.09C304.703 103.313 303.025 103.725 301.41 104.32L299.41 100.8L293.41 104.27L295.41 107.68C294.046 108.734 292.799 109.931 291.69 111.25L288.17 109.25L284.71 115.25L288.11 117.25C287.452 118.86 286.972 120.536 286.68 122.25H282.61V129.18H286.55C286.772 130.888 287.185 132.565 287.78 134.18L284.26 136.18L287.73 142.18L291.14 140.18C292.194 141.544 293.391 142.791 294.71 143.9L292.71 147.42L298.71 150.88L300.71 147.48C302.319 148.139 303.996 148.618 305.71 148.91V153H312.64V149C314.347 148.778 316.024 148.366 317.64 147.77L319.64 151.29L325.64 147.82L323.64 144.41C325.006 143.359 326.253 142.162 327.36 140.84L330.88 142.84L334.35 136.84L330.94 134.84C331.598 133.231 332.078 131.554 332.37 129.84L336.44 130ZM292.86 126.09C292.86 122.791 293.838 119.566 295.671 116.823C297.504 114.08 300.109 111.943 303.157 110.68C306.205 109.418 309.558 109.087 312.794 109.731C316.03 110.374 319.002 111.963 321.334 114.296C323.667 116.629 325.256 119.601 325.899 122.836C326.543 126.072 326.213 129.426 324.95 132.474C323.688 135.521 321.55 138.126 318.807 139.959C316.064 141.792 312.839 142.77 309.54 142.77C307.346 142.77 305.174 142.338 303.147 141.497C301.121 140.656 299.281 139.424 297.731 137.871C296.182 136.318 294.954 134.474 294.118 132.446C293.282 130.418 292.855 128.244 292.86 126.05V126.09Z" stroke="white" stroke-linecap="round" stroke-linejoin="round"/>
<path opacity="0.2" d="M387.69 109.09V102.16H383.76C383.538 100.453 383.125 98.7756 382.53 97.16L386.04 95.16L382.58 89.16L379.17 91.16C378.121 89.7891 376.92 88.5412 375.59 87.44L377.59 83.91L371.59 80.45L369.59 83.85C367.983 83.1877 366.305 82.7113 364.59 82.43V78.29H357.67V82.23C355.962 82.4495 354.285 82.8621 352.67 83.46L350.67 79.94L344.67 83.4L346.67 86.81C345.316 87.8623 344.085 89.0631 343 90.39L339.48 88.39L336.01 94.39L339.42 96.39C338.75 97.9952 338.27 99.6733 337.99 101.39H333.9V108.32H337.84C338.065 110.027 338.477 111.704 339.07 113.32L335.55 115.32L339.01 121.32L342.43 119.32C343.478 120.677 344.676 121.911 346 123L344 126.52L350 129.99L352 126.58C353.606 127.249 355.283 127.729 357 128.01V132.08H363.93V128.14C365.638 127.922 367.316 127.51 368.93 126.91L370.93 130.43L376.93 126.97L374.93 123.56C376.298 122.508 377.546 121.307 378.65 119.98L382.18 121.98L385.64 115.98L382.24 113.98C382.902 112.373 383.379 110.695 383.66 108.98L387.69 109.09ZM344.12 105.18C344.12 101.881 345.098 98.6561 346.931 95.9131C348.764 93.1701 351.369 91.0322 354.417 89.7697C357.465 88.5073 360.818 88.1769 364.054 88.8205C367.29 89.4641 370.262 91.0528 372.594 93.3855C374.927 95.7182 376.516 98.6903 377.159 101.926C377.803 105.162 377.473 108.515 376.21 111.563C374.948 114.611 372.81 117.216 370.067 119.049C367.324 120.882 364.099 121.86 360.8 121.86C358.609 121.861 356.439 121.431 354.415 120.593C352.391 119.755 350.552 118.527 349.002 116.978C347.453 115.428 346.225 113.589 345.387 111.565C344.549 109.54 344.119 107.371 344.12 105.18Z" stroke="white" stroke-linecap="round" stroke-linejoin="round"/>
<g opacity="0.2">
<path d="M181.22 330.81C190.995 330.81 198.92 322.886 198.92 313.11C198.92 303.335 190.995 295.41 181.22 295.41C171.445 295.41 163.52 303.335 163.52 313.11C163.52 322.886 171.445 330.81 181.22 330.81Z" stroke="white" stroke-linecap="round" stroke-linejoin="round"/>
<path d="M194.504 315.596C195.884 308.258 191.054 301.19 183.716 299.81C176.378 298.43 169.31 303.26 167.93 310.599C166.55 317.937 171.38 325.004 178.719 326.384C186.057 327.764 193.125 322.934 194.504 315.596Z" stroke="white" stroke-linecap="round" stroke-linejoin="round"/>
<path d="M207.14 325.25L197.59 320.07L196 323L205.56 328.17C205.35 328.559 205.303 329.015 205.428 329.439C205.554 329.862 205.842 330.219 206.23 330.43L224.44 340.29C224.829 340.5 225.285 340.548 225.708 340.422C226.132 340.297 226.489 340.008 226.7 339.62L228.29 336.69C228.497 336.3 228.541 335.844 228.414 335.421C228.286 334.998 227.998 334.642 227.61 334.43L209.4 324.57C209.01 324.364 208.553 324.319 208.13 324.447C207.708 324.574 207.352 324.863 207.14 325.25Z" stroke="white" stroke-miterlimit="10"/>
</g>
<path opacity="0.2" d="M479 110C479.002 113.825 477.869 117.566 475.745 120.747C473.621 123.929 470.602 126.41 467.068 127.875C463.534 129.34 459.645 129.725 455.893 128.98C452.141 128.234 448.694 126.393 445.988 123.689C443.282 120.985 441.439 117.539 440.692 113.787C439.945 110.035 440.328 106.146 441.791 102.611C443.255 99.0766 445.733 96.0555 448.914 93.93C452.095 91.8045 455.834 90.6699 459.66 90.6699" stroke="white" stroke-linecap="round" stroke-linejoin="round"/>
<path opacity="0.2" d="M479 110H459.66V90.6699C464.788 90.6699 469.705 92.7061 473.332 96.3309C476.959 99.9557 478.998 104.872 479 110Z" stroke="white" stroke-linecap="round" stroke-linejoin="round"/>
<path opacity="0.2" d="M477 96.6699L487 88.6699H501" stroke="white" stroke-linecap="round" stroke-linejoin="round"/>
<path opacity="0.2" d="M509 88.6699H527.66" stroke="white" stroke-linecap="round" stroke-linejoin="round"/>
<path opacity="0.2" d="M509 94.6699H527.66" stroke="white" stroke-linecap="round" stroke-linejoin="round"/>
<path opacity="0.2" d="M509 100.67H527.66" stroke="white" stroke-linecap="round" stroke-linejoin="round"/>
<path opacity="0.2" d="M509 106.67H527.66" stroke="white" stroke-linecap="round" stroke-linejoin="round"/>
<g opacity="0.2">
<path d="M264.22 316.11L263.5 312.59H250.84L251.56 316.11L252.21 319.25L256.51 340.25H290.31L285.37 316.11H264.22Z" stroke="white" stroke-linecap="round" stroke-linejoin="round"/>
<path d="M290.31 340.25L296.54 317.74H285.89" stroke="white" stroke-linecap="round" stroke-linejoin="round"/>
</g>
<g opacity="0.2">
<path d="M311.68 316.11L310.95 312.59H298.3L299.02 316.11L299.67 319.25L303.97 340.25H337.77L332.82 316.11H311.68Z" stroke="white" stroke-linecap="round" stroke-linejoin="round"/>
<path d="M337.77 340.25L344 317.74H333.35" stroke="white" stroke-linecap="round" stroke-linejoin="round"/>
</g>
<path d="M383.46 259.93C383.7 259.927 383.938 259.972 384.161 260.062C384.383 260.151 384.586 260.284 384.757 260.452C384.928 260.62 385.064 260.821 385.157 261.042C385.25 261.263 385.299 261.5 385.3 261.74V273.18C385.266 273.646 385.057 274.081 384.715 274.399C384.372 274.717 383.922 274.894 383.455 274.894C382.988 274.894 382.538 274.717 382.196 274.399C381.854 274.081 381.645 273.646 381.61 273.18V261.74C381.613 261.499 381.663 261.262 381.757 261.041C381.852 260.82 381.989 260.62 382.16 260.452C382.332 260.284 382.535 260.151 382.759 260.061C382.982 259.972 383.22 259.927 383.46 259.93Z" fill="#263238"/>
<path d="M379 259.93C379.24 259.927 379.479 259.972 379.702 260.061C379.925 260.151 380.128 260.284 380.3 260.452C380.472 260.62 380.609 260.82 380.703 261.041C380.798 261.262 380.848 261.499 380.85 261.74V273.18C380.816 273.646 380.607 274.081 380.264 274.399C379.922 274.717 379.472 274.894 379.005 274.894C378.538 274.894 378.088 274.717 377.746 274.399C377.404 274.081 377.194 273.646 377.16 273.18V261.74C377.165 261.256 377.362 260.794 377.707 260.455C378.052 260.116 378.517 259.927 379 259.93Z" fill="#263238"/>
<path d="M374.61 259.93C374.85 259.927 375.088 259.972 375.31 260.062C375.533 260.151 375.735 260.284 375.906 260.452C376.077 260.62 376.213 260.821 376.307 261.042C376.4 261.263 376.449 261.5 376.45 261.74V273.18C376.449 273.42 376.4 273.657 376.307 273.878C376.213 274.099 376.077 274.299 375.906 274.467C375.735 274.636 375.533 274.768 375.31 274.858C375.088 274.948 374.85 274.992 374.61 274.99C374.37 274.992 374.132 274.948 373.91 274.858C373.687 274.768 373.485 274.636 373.314 274.467C373.143 274.299 373.007 274.099 372.913 273.878C372.82 273.657 372.771 273.42 372.77 273.18V261.74C372.771 261.5 372.82 261.263 372.913 261.042C373.007 260.821 373.143 260.62 373.314 260.452C373.485 260.284 373.687 260.151 373.91 260.062C374.132 259.972 374.37 259.927 374.61 259.93Z" fill="#263238"/>
<path d="M370.18 259.93C370.421 259.927 370.659 259.972 370.882 260.061C371.105 260.151 371.308 260.284 371.48 260.452C371.652 260.62 371.789 260.82 371.883 261.041C371.978 261.262 372.028 261.499 372.03 261.74V273.18C371.996 273.646 371.787 274.081 371.445 274.399C371.102 274.717 370.652 274.894 370.185 274.894C369.718 274.894 369.268 274.717 368.926 274.399C368.584 274.081 368.375 273.646 368.34 273.18V261.74C368.346 261.256 368.542 260.794 368.887 260.455C369.232 260.116 369.697 259.927 370.18 259.93Z" fill="#263238"/>
<path d="M365.76 259.93C366 259.927 366.238 259.972 366.46 260.062C366.683 260.151 366.885 260.284 367.056 260.452C367.227 260.62 367.363 260.821 367.457 261.042C367.55 261.263 367.599 261.5 367.6 261.74V273.18C367.6 273.668 367.406 274.136 367.061 274.481C366.716 274.826 366.248 275.02 365.76 275.02C365.272 275.02 364.804 274.826 364.459 274.481C364.114 274.136 363.92 273.668 363.92 273.18V261.74C363.921 261.5 363.97 261.263 364.063 261.042C364.157 260.821 364.293 260.62 364.464 260.452C364.635 260.284 364.837 260.151 365.06 260.062C365.282 259.972 365.52 259.927 365.76 259.93Z" fill="#263238"/>
<path d="M361.33 259.93C361.571 259.927 361.809 259.972 362.032 260.061C362.255 260.151 362.458 260.284 362.63 260.452C362.802 260.62 362.939 260.82 363.033 261.041C363.128 261.262 363.178 261.499 363.18 261.74V273.18C363.178 273.42 363.128 273.658 363.033 273.879C362.939 274.1 362.802 274.3 362.63 274.468C362.458 274.636 362.255 274.769 362.032 274.858C361.809 274.948 361.571 274.992 361.33 274.99C360.847 274.992 360.382 274.804 360.037 274.464C359.692 274.125 359.496 273.663 359.49 273.18V261.74C359.496 261.256 359.692 260.794 360.037 260.455C360.382 260.116 360.847 259.927 361.33 259.93Z" fill="#263238"/>
<path d="M356.91 259.93C357.15 259.927 357.388 259.972 357.611 260.062C357.833 260.151 358.036 260.284 358.207 260.452C358.378 260.62 358.514 260.821 358.607 261.042C358.7 261.263 358.749 261.5 358.75 261.74V273.18C358.75 273.668 358.556 274.136 358.211 274.481C357.866 274.826 357.398 275.02 356.91 275.02C356.422 275.02 355.954 274.826 355.609 274.481C355.264 274.136 355.07 273.668 355.07 273.18V261.74C355.072 261.5 355.12 261.263 355.214 261.042C355.307 260.821 355.443 260.62 355.614 260.452C355.785 260.284 355.988 260.151 356.21 260.062C356.432 259.972 356.67 259.927 356.91 259.93Z" fill="#263238"/>
<path d="M352.49 259.93C352.974 259.927 353.439 260.116 353.784 260.455C354.128 260.794 354.325 261.256 354.33 261.74V273.18C354.296 273.646 354.087 274.081 353.744 274.399C353.402 274.717 352.952 274.894 352.485 274.894C352.018 274.894 351.568 274.717 351.226 274.399C350.884 274.081 350.674 273.646 350.64 273.18V261.74C350.643 261.499 350.693 261.262 350.787 261.041C350.881 260.82 351.018 260.62 351.19 260.452C351.362 260.284 351.565 260.151 351.788 260.061C352.011 259.972 352.25 259.927 352.49 259.93Z" fill="#263238"/>
<path d="M348.06 259.93C348.3 259.927 348.538 259.972 348.761 260.062C348.983 260.151 349.186 260.284 349.357 260.452C349.528 260.62 349.664 260.821 349.757 261.042C349.85 261.263 349.899 261.5 349.9 261.74V273.18C349.9 273.668 349.706 274.136 349.361 274.481C349.016 274.826 348.548 275.02 348.06 275.02C347.572 275.02 347.104 274.826 346.759 274.481C346.414 274.136 346.22 273.668 346.22 273.18V261.74C346.222 261.5 346.27 261.263 346.364 261.042C346.457 260.821 346.593 260.62 346.764 260.452C346.935 260.284 347.137 260.151 347.36 260.062C347.582 259.972 347.82 259.927 348.06 259.93Z" fill="#263238"/>
<path d="M343.64 259.93C344.124 259.927 344.589 260.116 344.933 260.455C345.278 260.794 345.475 261.256 345.48 261.74V273.18C345.446 273.646 345.236 274.081 344.894 274.399C344.552 274.717 344.102 274.894 343.635 274.894C343.168 274.894 342.718 274.717 342.376 274.399C342.034 274.081 341.824 273.646 341.79 273.18V261.74C341.793 261.499 341.843 261.262 341.937 261.041C342.031 260.82 342.168 260.62 342.34 260.452C342.512 260.284 342.715 260.151 342.938 260.061C343.161 259.972 343.4 259.927 343.64 259.93Z" fill="#263238"/>
<path d="M339.21 259.93C339.45 259.927 339.688 259.972 339.91 260.062C340.133 260.151 340.335 260.284 340.506 260.452C340.677 260.62 340.814 260.821 340.907 261.042C341 261.263 341.049 261.5 341.05 261.74V273.18C341.05 273.668 340.856 274.136 340.511 274.481C340.166 274.826 339.698 275.02 339.21 275.02C338.722 275.02 338.254 274.826 337.909 274.481C337.564 274.136 337.37 273.668 337.37 273.18V261.74C337.371 261.5 337.42 261.263 337.513 261.042C337.607 260.821 337.743 260.62 337.914 260.452C338.085 260.284 338.287 260.151 338.51 260.062C338.732 259.972 338.97 259.927 339.21 259.93Z" fill="#263238"/>
<path d="M336.05 259.93C336.002 260.103 336.002 260.286 336.05 260.46C336.22 260.627 336.355 260.826 336.448 261.046C336.541 261.265 336.589 261.501 336.59 261.74V273.18C336.589 273.418 336.541 273.654 336.448 273.874C336.355 274.093 336.22 274.292 336.05 274.46C335.251 274.838 334.374 275.02 333.49 274.99C331.41 274.99 330.09 274.18 330.54 273.18L335.26 261.74C335.568 261.157 335.832 260.552 336.05 259.93Z" fill="#263238"/>
<path d="M336.05 259.93C335.696 260.51 335.386 261.115 335.12 261.74L329.29 273.18C328.82 274.18 326.76 274.99 324.68 274.99C322.6 274.99 321.75 274.18 322.8 273.18L334.24 261.74L335.55 260.46C335.88 260.13 336.05 259.93 336.05 259.93Z" fill="#263238"/>
<path d="M336.05 259.93C335.863 260.081 335.686 260.245 335.52 260.42L334.24 261.74L322.8 273.18C321.8 274.18 320.99 273.35 320.99 271.18C320.99 269.01 321.8 266.96 322.8 266.51L334.24 260.79C334.865 260.549 335.47 260.262 336.05 259.93Z" fill="#263238"/>
<path d="M336.05 259.93C335.43 260.126 334.826 260.367 334.24 260.65L322.8 265.22C321.8 265.66 320.99 264.3 320.99 262.17C320.989 261.677 321.036 261.184 321.13 260.7C321.174 260.483 321.231 260.27 321.3 260.06C321.317 259.983 321.351 259.911 321.4 259.85L321.52 259.72C321.686 259.547 321.884 259.409 322.104 259.314C322.324 259.22 322.561 259.171 322.8 259.17H334.24C334.48 259.171 334.716 259.22 334.936 259.314C335.156 259.409 335.355 259.547 335.52 259.72L335.63 259.85C335.63 259.91 335.7 259.95 335.74 259.94H336.05V259.93Z" fill="#263238"/>
<path d="M336.05 256.53C336.055 256.772 336.013 257.013 335.924 257.239C335.836 257.465 335.704 257.671 335.536 257.846C335.368 258.021 335.167 258.16 334.944 258.257C334.722 258.354 334.482 258.406 334.24 258.41H322.8C322.324 258.375 321.878 258.161 321.553 257.812C321.228 257.462 321.047 257.002 321.047 256.525C321.047 256.047 321.228 255.587 321.553 255.238C321.878 254.888 322.324 254.674 322.8 254.64H334.24C334.483 254.645 334.722 254.698 334.945 254.796C335.167 254.893 335.368 255.034 335.537 255.21C335.705 255.385 335.836 255.592 335.925 255.819C336.013 256.045 336.055 256.287 336.05 256.53Z" fill="#263238"/>
<path d="M336.05 252C336.055 252.243 336.013 252.485 335.925 252.711C335.836 252.938 335.705 253.145 335.537 253.32C335.368 253.496 335.167 253.636 334.945 253.734C334.722 253.832 334.483 253.885 334.24 253.89H322.8C322.324 253.855 321.878 253.642 321.553 253.292C321.228 252.942 321.047 252.483 321.047 252.005C321.047 251.528 321.228 251.068 321.553 250.718C321.878 250.369 322.324 250.155 322.8 250.12H334.24C334.482 250.124 334.722 250.176 334.944 250.273C335.167 250.369 335.368 250.509 335.536 250.684C335.704 250.858 335.836 251.065 335.924 251.291C336.013 251.517 336.055 251.758 336.05 252Z" fill="#263238"/>
<path d="M336.05 247.48C336.055 247.723 336.013 247.964 335.925 248.191C335.836 248.417 335.705 248.624 335.537 248.8C335.368 248.975 335.167 249.116 334.945 249.214C334.722 249.311 334.483 249.364 334.24 249.37H322.8C322.324 249.335 321.878 249.121 321.553 248.772C321.228 248.422 321.047 247.962 321.047 247.485C321.047 247.007 321.228 246.547 321.553 246.198C321.878 245.848 322.324 245.634 322.8 245.6H334.24C334.482 245.604 334.722 245.655 334.944 245.752C335.167 245.849 335.368 245.988 335.536 246.163C335.704 246.338 335.836 246.544 335.924 246.77C336.013 246.996 336.055 247.237 336.05 247.48Z" fill="#263238"/>
<path d="M336.05 243C336.055 243.243 336.013 243.484 335.924 243.71C335.836 243.936 335.704 244.142 335.536 244.317C335.368 244.491 335.167 244.631 334.944 244.728C334.722 244.825 334.482 244.876 334.24 244.88H322.8C322.324 244.846 321.878 244.632 321.553 244.282C321.228 243.933 321.047 243.473 321.047 242.995C321.047 242.518 321.228 242.058 321.553 241.708C321.878 241.359 322.324 241.145 322.8 241.11H334.24C334.483 241.116 334.722 241.169 334.945 241.266C335.167 241.364 335.368 241.505 335.537 241.68C335.705 241.856 335.836 242.063 335.925 242.289C336.013 242.516 336.055 242.757 336.05 243Z" fill="#263238"/>
<path d="M336.05 238.43C336.055 238.673 336.013 238.914 335.925 239.141C335.836 239.367 335.705 239.574 335.537 239.75C335.368 239.925 335.167 240.066 334.945 240.164C334.722 240.262 334.483 240.315 334.24 240.32H322.8C322.324 240.285 321.878 240.071 321.553 239.722C321.228 239.372 321.047 238.912 321.047 238.435C321.047 237.957 321.228 237.498 321.553 237.148C321.878 236.798 322.324 236.585 322.8 236.55H334.24C334.482 236.554 334.722 236.606 334.944 236.702C335.167 236.799 335.368 236.939 335.536 237.113C335.704 237.288 335.836 237.494 335.924 237.72C336.013 237.946 336.055 238.187 336.05 238.43Z" fill="#263238"/>
<path d="M336.05 233.91C336.055 234.152 336.013 234.393 335.924 234.619C335.836 234.845 335.704 235.051 335.536 235.226C335.368 235.401 335.167 235.54 334.944 235.637C334.722 235.734 334.482 235.786 334.24 235.79H322.8C322.324 235.755 321.878 235.541 321.553 235.191C321.228 234.842 321.047 234.382 321.047 233.905C321.047 233.427 321.228 232.967 321.553 232.618C321.878 232.268 322.324 232.054 322.8 232.02H334.24C334.483 232.025 334.722 232.078 334.945 232.176C335.167 232.273 335.368 232.414 335.537 232.59C335.705 232.765 335.836 232.972 335.925 233.198C336.013 233.425 336.055 233.667 336.05 233.91Z" fill="#263238"/>
<path d="M336.05 228.27C336.048 228.764 335.998 229.256 335.9 229.74C335.86 229.957 335.806 230.17 335.74 230.38C335.722 230.456 335.684 230.525 335.63 230.58C335.599 230.631 335.562 230.678 335.52 230.72C335.355 230.893 335.156 231.031 334.936 231.126C334.716 231.22 334.479 231.269 334.24 231.27H322.8C322.561 231.269 322.324 231.22 322.104 231.126C321.884 231.031 321.685 230.893 321.52 230.72L321.4 230.58C321.4 230.53 321.33 230.49 321.3 230.5H321C321.624 230.315 322.229 230.074 322.81 229.78L334.25 225.22C335.24 224.77 336.05 226.14 336.05 228.27Z" fill="#263238"/>
<path d="M336.05 219.22C336.05 221.35 335.24 223.44 334.24 223.89L322.8 229.6C322.179 229.862 321.575 230.163 320.99 230.5C320.99 230.5 321.19 230.34 321.52 230.01L322.8 228.7L334.24 217.26C335.24 216.21 336.05 217.09 336.05 219.22Z" fill="#263238"/>
<path d="M332.48 215.45C334.48 215.45 335.28 216.26 334.24 217.26L322.8 228.7L321.48 230C321.307 230.164 321.144 230.338 320.99 230.52C321.347 229.942 321.665 229.341 321.94 228.72L327.94 217.28C328.45 216.26 330.48 215.45 332.48 215.45Z" fill="#263238"/>
<path d="M323.94 215.45C325.94 215.45 327.19 216.26 326.72 217.26L321.72 228.7C321.421 229.282 321.16 229.883 320.94 230.5C320.954 230.326 320.954 230.153 320.94 229.98V229.71C320.874 229.612 320.817 229.508 320.77 229.4C320.676 229.178 320.629 228.94 320.63 228.7V217.26C320.63 217.016 320.677 216.775 320.77 216.55C320.815 216.443 320.872 216.342 320.94 216.25C321.069 216.144 321.21 216.053 321.36 215.98C322.166 215.601 323.05 215.419 323.94 215.45Z" fill="#263238"/>
<path d="M318.19 215.45C318.666 215.455 319.12 215.649 319.454 215.988C319.787 216.327 319.973 216.785 319.97 217.26V228.7C319.97 229.172 319.783 229.625 319.449 229.959C319.115 230.293 318.662 230.48 318.19 230.48C317.718 230.48 317.265 230.293 316.932 229.959C316.598 229.625 316.41 229.172 316.41 228.7V217.26C316.408 216.785 316.593 216.327 316.927 215.988C317.26 215.649 317.715 215.455 318.19 215.45Z" fill="#263238"/>
<path d="M313.92 215.45C314.396 215.455 314.85 215.649 315.184 215.988C315.517 216.327 315.703 216.785 315.7 217.26V228.7C315.7 229.172 315.513 229.625 315.179 229.959C314.845 230.293 314.392 230.48 313.92 230.48C313.448 230.48 312.995 230.293 312.662 229.959C312.328 229.625 312.14 229.172 312.14 228.7V217.26C312.138 217.024 312.182 216.79 312.27 216.571C312.358 216.353 312.488 216.153 312.654 215.985C312.819 215.817 313.016 215.683 313.234 215.591C313.451 215.499 313.684 215.451 313.92 215.45Z" fill="#263238"/>
<path d="M309.65 215.45C310.126 215.455 310.58 215.649 310.913 215.988C311.247 216.327 311.433 216.785 311.43 217.26V228.7C311.431 228.935 311.386 229.168 311.297 229.386C311.209 229.604 311.078 229.802 310.913 229.969C310.747 230.136 310.551 230.269 310.334 230.36C310.117 230.451 309.885 230.499 309.65 230.5C309.414 230.5 309.18 230.454 308.963 230.363C308.745 230.272 308.547 230.14 308.381 229.972C308.214 229.805 308.083 229.607 307.993 229.388C307.904 229.17 307.859 228.936 307.86 228.7V217.26C307.859 217.024 307.904 216.789 307.993 216.571C308.082 216.352 308.214 216.153 308.38 215.984C308.546 215.816 308.744 215.683 308.962 215.591C309.18 215.499 309.414 215.452 309.65 215.45Z" fill="#263238"/>
<path d="M306.62 237.47V208.74C309.583 208.74 312.424 209.917 314.518 212.012C316.613 214.107 317.79 216.948 317.79 219.91V226.3C317.79 227.767 317.501 229.22 316.94 230.575C316.379 231.93 315.556 233.161 314.518 234.199C313.481 235.236 312.25 236.059 310.895 236.62C309.539 237.181 308.087 237.47 306.62 237.47Z" fill="white" stroke="#263238" stroke-linecap="round" stroke-linejoin="round"/>
<path d="M277.89 265.18L307.77 250.43C309.181 249.733 310.369 248.657 311.199 247.321C312.03 245.985 312.47 244.443 312.47 242.87V203.87C312.47 202.296 312.03 200.755 311.199 199.419C310.369 198.083 309.181 197.006 307.77 196.31L277.89 181.56V265.18Z" fill="white" stroke="#263238" stroke-linecap="round" stroke-linejoin="round"/>
<path d="M333.76 281.59H355.84" stroke="#263238" stroke-linecap="round" stroke-linejoin="round"/>
<path d="M329.35 285.46H338.18" stroke="#263238" stroke-linecap="round" stroke-linejoin="round"/>
<path d="M343.14 224.43V245.96" stroke="#263238" stroke-linecap="round" stroke-linejoin="round"/>
<path d="M339.28 232.16V218.92" stroke="#263238" stroke-linecap="round" stroke-linejoin="round"/>
<path d="M313.89 259.2V270.24" stroke="#263238" stroke-linecap="round" stroke-linejoin="round"/>
<path d="M317.76 255.34V265.28" stroke="#263238" stroke-linecap="round" stroke-linejoin="round"/>
<path d="M507.64 181.51H513.38" stroke="#263238" stroke-width="9" stroke-linecap="round" stroke-linejoin="round"/>
<path d="M463.59 250.46H486.57V181.51H507.64" stroke="#263238" stroke-width="4" stroke-linecap="round" stroke-linejoin="round"/>
<path d="M507.64 320.69H514.66" stroke="#263238" stroke-width="9" stroke-linecap="round" stroke-linejoin="round"/>
<path d="M459.12 271.53H485.93V320.69H507.64" stroke="#263238" stroke-width="4" stroke-linecap="round" stroke-linejoin="round"/>
<path d="M376.36 185.19H370.63V237.1" stroke="#263238" stroke-width="4" stroke-linecap="round" stroke-linejoin="round"/>
<path d="M380.82 185.19H376.36" stroke="#263238" stroke-width="7" stroke-linecap="round" stroke-linejoin="round"/>
<path d="M432.05 204.67H405.86V232.73H432.05V204.67Z" fill="#263238" stroke="#263238" stroke-linecap="round" stroke-linejoin="round"/>
<path d="M456.19 165.86H430.47V191.12H456.19V165.86Z" fill="#263238" stroke="#263238" stroke-linecap="round" stroke-linejoin="round"/>
<path d="M445.91 191.11H457.3C454.588 198.301 449.882 204.57 443.733 209.182C437.584 213.793 430.248 216.555 422.585 217.144C414.922 217.733 407.25 216.124 400.469 212.506C393.688 208.889 388.079 203.413 384.3 196.72C380.738 190.455 378.934 183.345 379.08 176.14C379.08 175.51 379.08 174.87 379.13 174.24C379.76 164.555 383.851 155.418 390.657 148.499C397.463 141.579 406.531 137.338 416.205 136.548C425.878 135.759 435.514 138.474 443.352 144.198C451.19 149.923 456.708 158.275 458.9 167.73H445.9C444.365 167.73 442.845 168.032 441.426 168.62C440.008 169.207 438.719 170.068 437.634 171.154C436.548 172.239 435.687 173.528 435.1 174.946C434.512 176.365 434.21 177.885 434.21 179.42C434.21 180.955 434.512 182.475 435.1 183.894C435.687 185.312 436.548 186.601 437.634 187.686C438.719 188.772 440.008 189.633 441.426 190.22C442.845 190.808 444.365 191.11 445.9 191.11H445.91Z" fill="white" stroke="#263238" stroke-linecap="round" stroke-linejoin="round"/>
<path d="M422.52 178.48H434.22" stroke="#263238" stroke-linecap="round" stroke-linejoin="round"/>
<path d="M413.17 138.26V215.43" stroke="#263238" stroke-linecap="round" stroke-linejoin="round"/>
<path d="M412.23 188.77C417.913 188.77 422.52 184.163 422.52 178.48C422.52 172.797 417.913 168.19 412.23 168.19C406.547 168.19 401.94 172.797 401.94 178.48C401.94 184.163 406.547 188.77 412.23 188.77Z" fill="#263238" stroke="#263238" stroke-linecap="round" stroke-linejoin="round"/>
<path d="M417.38 178.48C417.38 177.461 417.078 176.465 416.511 175.618C415.945 174.771 415.14 174.111 414.199 173.721C413.257 173.332 412.221 173.23 411.222 173.43C410.222 173.629 409.305 174.121 408.585 174.842C407.865 175.563 407.375 176.482 407.178 177.481C406.98 178.481 407.084 179.517 407.475 180.458C407.866 181.399 408.528 182.202 409.376 182.767C410.224 183.332 411.221 183.632 412.24 183.63C412.916 183.63 413.585 183.497 414.209 183.238C414.834 182.979 415.401 182.599 415.878 182.121C416.356 181.643 416.734 181.075 416.992 180.45C417.249 179.825 417.381 179.156 417.38 178.48Z" fill="white" stroke="#263238" stroke-linecap="round" stroke-linejoin="round"/>
<path d="M446.84 183.62C449.679 183.62 451.98 181.319 451.98 178.48C451.98 175.641 449.679 173.34 446.84 173.34C444.001 173.34 441.7 175.641 441.7 178.48C441.7 181.319 444.001 183.62 446.84 183.62Z" fill="#92E3A9"/>
<path d="M392.12 176.14V196.72H384.27C380.708 190.455 378.905 183.345 379.05 176.14H392.12Z" fill="#263238" stroke="#263238" stroke-linecap="round" stroke-linejoin="round"/>
<path d="M418.96 313.5V374.25" stroke="#263238" stroke-width="3" stroke-linecap="round" stroke-linejoin="round"/>
<path d="M418.96 355.51C427.587 355.51 434.58 348.516 434.58 339.89C434.58 331.263 427.587 324.27 418.96 324.27C410.334 324.27 403.34 331.263 403.34 339.89C403.34 348.516 410.334 355.51 418.96 355.51Z" fill="white" stroke="#263238" stroke-linecap="round" stroke-linejoin="round"/>
<path d="M418.96 378.63C423.102 378.63 426.46 375.272 426.46 371.13C426.46 366.988 423.102 363.63 418.96 363.63C414.818 363.63 411.46 366.988 411.46 371.13C411.46 375.272 414.818 378.63 418.96 378.63Z" fill="white" stroke="#263238" stroke-linecap="round" stroke-linejoin="round"/>
<path d="M474.91 243.28L457.66 294.69C452.85 309.01 438.27 318.79 421.74 318.79H416.17C399.64 318.79 385.06 309.01 380.26 294.69L363 243.28C360.38 235.47 366.84 227.59 375.85 227.59H462.06C471.08 227.59 477.53 235.47 474.91 243.28Z" fill="white" stroke="#263238" stroke-linecap="round" stroke-linejoin="round"/>
<path d="M467.7 248.1C465.611 247.531 463.383 247.779 461.47 248.793C459.557 249.807 458.102 251.512 457.4 253.56L443.46 294.28C442.781 296.265 442.859 298.43 443.678 300.36C444.498 302.29 446.001 303.85 447.9 304.74L450.9 306.17C453.9 302.84 456.19 298.934 457.63 294.69L472.79 249.5L467.7 248.1Z" fill="white" stroke="#263238" stroke-linecap="round" stroke-linejoin="round"/>
<path d="M380.09 253.56C379.389 251.512 377.933 249.807 376.02 248.793C374.107 247.779 371.88 247.531 369.79 248.1L365.05 249.39L380.26 294.69C381.674 298.876 383.919 302.734 386.86 306.03L389.59 304.74C391.482 303.843 392.978 302.281 393.791 300.352C394.604 298.422 394.679 296.261 394 294.28L380.09 253.56Z" fill="white" stroke="#263238" stroke-linecap="round" stroke-linejoin="round"/>
<path d="M446 227.59C445.795 229.489 444.896 231.245 443.474 232.52C442.053 233.796 440.21 234.501 438.3 234.5H398.3C396.39 234.501 394.547 233.796 393.126 232.52C391.705 231.245 390.805 229.489 390.6 227.59H446Z" fill="white" stroke="#263238" stroke-linecap="round" stroke-linejoin="round"/>
<path d="M419 318.5V234.5" stroke="#263238" stroke-linecap="round" stroke-linejoin="round"/>
<path d="M441.72 244.5H396.2C393.406 244.5 391.14 246.765 391.14 249.56V270.3C391.14 273.095 393.406 275.36 396.2 275.36H441.72C444.515 275.36 446.78 273.095 446.78 270.3V249.56C446.78 246.765 444.515 244.5 441.72 244.5Z" fill="#92E3A9" stroke="#263238" stroke-linecap="round" stroke-linejoin="round"/>
<path d="M411.81 248.42C413.2 248.42 413.81 249.26 413.81 250.64V255.14C413.81 256.51 413.18 257.35 411.81 257.35H409.71V248.42H411.81ZM411.81 256.42C412.53 256.42 412.87 255.97 412.87 255.15V250.56C412.87 249.74 412.53 249.3 411.8 249.3H410.73V256.42H411.81Z" fill="#263238"/>
<path d="M415.76 255.55L415.41 257.35H414.5L416.21 248.42H417.65L419.36 257.35H418.36L418.02 255.55H415.76ZM415.89 254.7H417.89L416.89 249.54L415.89 254.7Z" fill="#263238"/>
<path d="M420.94 257.35V249.35H419.29V248.44H423.57V249.35H421.92V257.35H420.94Z" fill="#263238"/>
<path d="M424.77 255.55L424.42 257.35H423.5L425.21 248.42H426.66L428.37 257.35H427.37L427.03 255.55H424.77ZM424.9 254.7H426.9L425.9 249.54L424.9 254.7Z" fill="#263238"/>
<path d="M399.22 264.66V265.55H397V268.73H399.68V269.63H396V260.7H399.68V261.61H397V264.66H399.22Z" fill="#263238"/>
<path d="M402.85 265.78L401.36 269.63H400.42L402.22 265.03L400.53 260.7H401.53L402.9 264.27L404.29 260.7H405.23L403.59 265L405.38 269.6H404.33L402.85 265.78Z" fill="#263238"/>
<path d="M407.47 269.63V261.63H405.83V260.72H410.1V261.63H408.46V269.63H407.47Z" fill="#263238"/>
<path d="M412.77 260.7C414.17 260.7 414.77 261.42 414.77 262.7V263.43C414.829 263.818 414.75 264.215 414.548 264.551C414.345 264.887 414.031 265.141 413.66 265.27C414.48 265.51 414.78 266.17 414.78 267.13V268.52C414.748 268.886 414.81 269.255 414.96 269.59H413.96C413.824 269.247 413.769 268.878 413.8 268.51V267.1C413.8 266.1 413.32 265.78 412.49 265.78H411.79V269.59H410.79V260.7H412.77ZM412.51 264.91C413.3 264.91 413.78 264.66 413.78 263.69V262.83C413.78 262.03 413.48 261.61 412.78 261.61H411.78V264.91H412.51Z" fill="#263238"/>
<path d="M416.81 267.83L416.47 269.63H415.55L417.26 260.7H418.7L420.41 269.63H419.41L419.06 267.83H416.81ZM416.94 266.98H418.94L417.94 261.82L416.94 266.98Z" fill="#263238"/>
<path d="M425.12 262.86V263.66H424.17V262.81C424.17 262 423.86 261.52 423.17 261.52C422.48 261.52 422.12 262 422.12 262.81V267.53C422.12 268.33 422.45 268.82 423.17 268.82C423.89 268.82 424.17 268.33 424.17 267.53V266.37H425.12V267.48C425.12 268.83 424.48 269.72 423.12 269.72C421.76 269.72 421.12 268.83 421.12 267.48V262.86C421.12 261.5 421.76 260.61 423.12 260.61C424.48 260.61 425.12 261.5 425.12 262.86Z" fill="#263238"/>
<path d="M427.31 269.63V261.63H425.67V260.72H429.94V261.63H428.3V269.63H427.31Z" fill="#263238"/>
<path d="M431.61 260.7V269.63H430.61V260.7H431.61Z" fill="#263238"/>
<path d="M432.56 262.86C432.56 261.49 433.23 260.61 434.56 260.61C435.89 260.61 436.56 261.49 436.56 262.86V267.48C436.56 268.83 435.89 269.72 434.56 269.72C433.23 269.72 432.56 268.83 432.56 267.48V262.86ZM433.56 267.53C433.56 268.34 433.9 268.82 434.62 268.82C435.34 268.82 435.68 268.34 435.68 267.53V262.81C435.68 262 435.35 261.52 434.62 261.52C433.89 261.52 433.56 262 433.56 262.81V267.53Z" fill="#263238"/>
<path d="M438.48 269.63H437.58V260.7H438.85L440.91 267.16V260.7H441.79V269.63H440.79L438.51 262.41L438.48 269.63Z" fill="#263238"/>
<path d="M418.96 291C422.274 291 424.96 288.314 424.96 285C424.96 281.686 422.274 279 418.96 279C415.646 279 412.96 281.686 412.96 285C412.96 288.314 415.646 291 418.96 291Z" fill="#263238" stroke="#263238" stroke-linecap="round" stroke-linejoin="round"/>
<path d="M418.96 287.5C420.341 287.5 421.46 286.381 421.46 285C421.46 283.619 420.341 282.5 418.96 282.5C417.579 282.5 416.46 283.619 416.46 285C416.46 286.381 417.579 287.5 418.96 287.5Z" fill="#92E3A9"/>
<path d="M662.29 120.27H523.96C516.78 120.27 510.96 126.09 510.96 133.27V228.69C510.96 235.869 516.78 241.69 523.96 241.69H662.29C669.47 241.69 675.29 235.869 675.29 228.69V133.27C675.29 126.09 669.47 120.27 662.29 120.27Z" fill="#4E5463" stroke="#4E5463" stroke-linecap="round" stroke-linejoin="round"/>
<path d="M659.11 127.68H527.14C522.026 127.68 517.88 131.826 517.88 136.94V225.01C517.88 230.124 522.026 234.27 527.14 234.27H659.11C664.224 234.27 668.37 230.124 668.37 225.01V136.94C668.37 131.826 664.224 127.68 659.11 127.68Z" fill="white" stroke="#4E5463" stroke-linecap="round" stroke-linejoin="round"/>
<path d="M656.67 145.489H537.35V149.839H656.67V145.489Z" fill="#E0E0E0"/>
<path d="M656.67 155.729H537.35V160.079H656.67V155.729Z" fill="#E0E0E0"/>
<path d="M656.67 165.97H537.35V170.32H656.67V165.97Z" fill="#E0E0E0"/>
<path d="M656.67 176.22H537.35V180.57H656.67V176.22Z" fill="#E0E0E0"/>
<path d="M656.67 186.46H537.35V190.81H656.67V186.46Z" fill="#E0E0E0"/>
<path d="M656.67 196.699H537.35V201.049H656.67V196.699Z" fill="#E0E0E0"/>
<path d="M656.67 206.939H537.35V211.289H656.67V206.939Z" fill="#E0E0E0"/>
<path d="M549.74 171.02H538.12V219.02H549.74V171.02Z" fill="#4E5463"/>
<path d="M567.51 184.479H555.89V219.02H567.51V184.479Z" fill="#0CFFBB"/>
<path d="M585.28 176.109H573.66V219.019H585.28V176.109Z" fill="#4E5463"/>
<path d="M603.06 193.46H591.44V219.03H603.06V193.46Z" fill="#0CFFBB"/>
<path d="M620.83 177.01H609.21V219.03H620.83V177.01Z" fill="#4E5463"/>
<path d="M638.61 165.939H626.99V219.019H638.61V165.939Z" fill="#0CFFBB"/>
<path d="M656.38 159.06H644.76V219.02H656.38V159.06Z" fill="#4E5463"/>
<path d="M528.55 146.3H532.52" stroke="#4E5463" stroke-linecap="round" stroke-linejoin="round"/>
<path d="M528.55 152H532.52" stroke="#4E5463" stroke-linecap="round" stroke-linejoin="round"/>
<path d="M528.55 157.71H532.52" stroke="#4E5463" stroke-linecap="round" stroke-linejoin="round"/>
<path d="M528.55 163.42H532.52" stroke="#4E5463" stroke-linecap="round" stroke-linejoin="round"/>
<path d="M528.55 169.13H532.52" stroke="#4E5463" stroke-linecap="round" stroke-linejoin="round"/>
<path d="M528.55 174.829H532.52" stroke="#4E5463" stroke-linecap="round" stroke-linejoin="round"/>
<path d="M528.55 180.539H532.52" stroke="#4E5463" stroke-linecap="round" stroke-linejoin="round"/>
<path d="M528.55 186.25H532.52" stroke="#4E5463" stroke-linecap="round" stroke-linejoin="round"/>
<path d="M528.55 191.96H532.52" stroke="#4E5463" stroke-linecap="round" stroke-linejoin="round"/>
<path d="M528.55 197.659H532.52" stroke="#4E5463" stroke-linecap="round" stroke-linejoin="round"/>
<path d="M528.55 203.369H532.52" stroke="#4E5463" stroke-linecap="round" stroke-linejoin="round"/>
<path d="M528.55 209.079H532.52" stroke="#4E5463" stroke-linecap="round" stroke-linejoin="round"/>
<path d="M528.55 214.789H532.52" stroke="#4E5463" stroke-linecap="round" stroke-linejoin="round"/>
<path d="M528.55 220.489H532.52" stroke="#4E5463" stroke-linecap="round" stroke-linejoin="round"/>
<path d="M656.71 222.13V226.1" stroke="#4E5463" stroke-linecap="round" stroke-linejoin="round"/>
<path d="M647.23 222.13V226.1" stroke="#4E5463" stroke-linecap="round" stroke-linejoin="round"/>
<path d="M637.75 222.13V226.1" stroke="#4E5463" stroke-linecap="round" stroke-linejoin="round"/>
<path d="M628.28 222.13V226.1" stroke="#4E5463" stroke-linecap="round" stroke-linejoin="round"/>
<path d="M618.8 222.13V226.1" stroke="#4E5463" stroke-linecap="round" stroke-linejoin="round"/>
<path d="M609.32 222.13V226.1" stroke="#4E5463" stroke-linecap="round" stroke-linejoin="round"/>
<path d="M599.85 222.13V226.1" stroke="#4E5463" stroke-linecap="round" stroke-linejoin="round"/>
<path d="M590.37 222.13V226.1" stroke="#4E5463" stroke-linecap="round" stroke-linejoin="round"/>
<path d="M580.89 222.13V226.1" stroke="#4E5463" stroke-linecap="round" stroke-linejoin="round"/>
<path d="M571.42 222.13V226.1" stroke="#4E5463" stroke-linecap="round" stroke-linejoin="round"/>
<path d="M561.94 222.13V226.1" stroke="#4E5463" stroke-linecap="round" stroke-linejoin="round"/>
<path d="M552.46 222.13V226.1" stroke="#4E5463" stroke-linecap="round" stroke-linejoin="round"/>
<path d="M542.98 222.13V226.1" stroke="#4E5463" stroke-linecap="round" stroke-linejoin="round"/>
<path d="M533.51 222.13V226.1" stroke="#4E5463" stroke-linecap="round" stroke-linejoin="round"/>
<path d="M605.92 135.579H579.34V139.939H605.92V135.579Z" fill="#4E5463"/>
<path d="M662.29 256.42H523.96C516.78 256.42 510.96 262.24 510.96 269.42V364.84C510.96 372.02 516.78 377.84 523.96 377.84H662.29C669.47 377.84 675.29 372.02 675.29 364.84V269.42C675.29 262.24 669.47 256.42 662.29 256.42Z" fill="#4E5463" stroke="#4E5463" stroke-linecap="round" stroke-linejoin="round"/>
<path d="M659.11 263.84H527.14C522.026 263.84 517.88 267.986 517.88 273.1V361.17C517.88 366.284 522.026 370.43 527.14 370.43H659.11C664.224 370.43 668.37 366.284 668.37 361.17V273.1C668.37 267.986 664.224 263.84 659.11 263.84Z" fill="white" stroke="#4E5463" stroke-linecap="round" stroke-linejoin="round"/>
<path d="M567.86 360.119C557.8 360.119 548.1 356.376 540.647 349.617C533.195 342.859 528.524 333.57 527.544 323.558C526.563 313.546 529.343 303.527 535.342 295.451C541.341 287.376 550.131 281.821 560 279.869L561.92 289.689C557.818 290.494 553.926 292.132 550.484 294.503C547.042 296.874 544.124 299.927 541.911 303.472C539.698 307.018 538.237 310.98 537.618 315.114C537 319.247 537.237 323.464 538.316 327.501C539.394 331.539 541.291 335.313 543.888 338.587C546.485 341.862 549.727 344.568 553.413 346.538C557.1 348.508 561.151 349.699 565.317 350.038C569.483 350.377 573.674 349.857 577.63 348.509L580.84 357.979C576.659 359.397 572.274 360.12 567.86 360.119Z" fill="#4E5463"/>
<path d="M596.55 309.239C594.062 302.401 589.215 296.674 582.882 293.09C576.548 289.507 569.143 288.301 562 289.689L560 279.869C569.498 278.021 579.344 279.624 587.765 284.391C596.185 289.157 602.627 296.774 605.93 305.869L596.55 309.239Z" fill="#0CFFBB"/>
<path d="M580.87 357.999L577.66 348.529C581.501 347.222 585.042 345.163 588.078 342.472C591.114 339.781 593.583 336.512 595.342 332.857C597.101 329.201 598.113 325.231 598.321 321.18C598.528 317.128 597.926 313.076 596.55 309.259L605.96 305.859C607.785 310.927 608.583 316.308 608.306 321.687C608.029 327.066 606.684 332.337 604.348 337.19C602.013 342.044 598.734 346.384 594.703 349.957C590.672 353.53 585.969 356.264 580.87 357.999Z" fill="#A8A8A8"/>
<path d="M633.19 288.399H621.95V299.639H633.19V288.399Z" fill="#4E5463"/>
<path d="M633.19 315.909H621.95V327.149H633.19V315.909Z" fill="#0CFFBB"/>
<path d="M633.19 343.43H621.95V354.67H633.19V343.43Z" fill="#A8A8A8"/>
<path d="M639.1 294.319H658.04" stroke="#4E5463" stroke-linecap="round" stroke-linejoin="round"/>
<path d="M639.1 320.939H658.04" stroke="#4E5463" stroke-linecap="round" stroke-linejoin="round"/>
<path d="M557.45 320.35H576.39" stroke="#4E5463" stroke-linecap="round" stroke-linejoin="round"/>
<path d="M639.1 348.75H658.04" stroke="#4E5463" stroke-linecap="round" stroke-linejoin="round"/>
<path d="M96 444.29H74" stroke="white" stroke-width="0.75" stroke-miterlimit="10" stroke-linecap="round"/>
<path d="M653 444.29H108" stroke="white" stroke-width="0.75" stroke-miterlimit="10" stroke-linecap="round"/>
<path d="M695 444.29H660" stroke="white" stroke-width="0.75" stroke-miterlimit="10" stroke-linecap="round"/>
</svg>
