<svg width="700" height="500" viewBox="0 0 700 500" fill="none" xmlns="http://www.w3.org/2000/svg">
<path d="M542.149 138.489C542.149 138.489 467.059 48.6686 350.749 28.0586C234.439 7.44861 211.609 95.0586 172.589 146.579C133.569 198.099 89.4091 217.259 87.1991 291.579C84.9891 365.899 115.199 404.209 173.329 430.709C231.459 457.209 291.119 471.199 349.269 479.299C407.419 487.399 453.809 482.999 476.629 435.159C499.449 387.319 489.139 365.229 515.629 342.399C542.119 319.569 601.779 215.779 542.149 138.489Z" fill="#0CFFBB"/>
<path opacity="0.7" d="M542.149 138.489C542.149 138.489 467.059 48.6686 350.749 28.0586C234.439 7.44861 211.609 95.0586 172.589 146.579C133.569 198.099 89.4091 217.259 87.1991 291.579C84.9891 365.899 115.199 404.209 173.329 430.709C231.459 457.209 291.119 471.199 349.269 479.299C407.419 487.399 453.809 482.999 476.629 435.159C499.449 387.319 489.139 365.229 515.629 342.399C542.119 319.569 601.779 215.779 542.149 138.489Z" fill="white"/>
<path d="M376.069 267.742C376.069 267.742 374.629 260.302 368.139 257.652C361.649 255.002 357.569 258.372 356.609 260.782C355.649 263.192 355.409 267.262 351.809 265.582C348.209 263.902 346.809 261.982 342.209 263.902C337.609 265.822 339.079 269.902 335.719 270.622C332.359 271.342 333.559 269.422 329.959 269.902C326.359 270.382 326.599 272.542 325.629 273.742C324.659 274.942 324.629 273.982 321.309 274.462C319.248 274.782 317.327 275.704 315.789 277.112H389.999C389.999 277.112 391.919 273.262 386.869 270.382C381.819 267.502 377.509 270.622 376.069 267.742Z" fill="white" stroke="#ADADAD" stroke-linecap="round" stroke-linejoin="round"/>
<path d="M301.719 29.4908C301.719 29.4908 300.279 22.0008 293.789 19.4008C287.299 16.8008 283.219 20.1208 282.259 22.5208C281.299 24.9208 281.059 29.0108 277.459 27.3208C273.859 25.6308 272.459 23.7208 267.849 25.6408C263.239 27.5608 264.729 31.6408 261.369 32.3708C258.009 33.1008 259.209 31.1708 255.609 31.6508C252.009 32.1308 252.239 34.2908 251.279 35.4908C250.319 36.6908 250.279 35.7308 246.959 36.2108C244.9 36.5291 242.98 37.4473 241.439 38.8508H315.639C315.639 38.8508 317.569 35.0108 312.519 32.1308C307.469 29.2508 303.159 32.3708 301.719 29.4908Z" fill="white" stroke="#ADADAD" stroke-linecap="round" stroke-linejoin="round"/>
<path d="M494.82 146.789C494.82 146.789 492.15 133.019 480.16 128.139C468.17 123.259 460.62 129.469 458.84 133.909C457.06 138.349 456.62 145.909 449.96 142.789C443.3 139.669 440.64 136.129 432.2 139.679C423.76 143.229 426.42 150.789 420.2 152.119C413.98 153.449 416.2 149.899 409.54 150.789C402.88 151.679 403.32 155.669 401.54 157.889C399.76 160.109 399.77 158.339 393.54 159.219C389.73 159.808 386.178 161.509 383.33 164.109H520.57C520.57 164.109 524.13 156.999 514.8 151.669C505.47 146.339 497.48 152.119 494.82 146.789Z" fill="white" stroke="#ADADAD" stroke-linecap="round" stroke-linejoin="round"/>
<path d="M212.2 224.099C212.2 224.099 210.76 216.659 204.27 214.019C197.78 211.379 193.71 214.739 192.75 217.139C191.79 219.539 191.55 223.619 187.94 221.939C184.33 220.259 182.94 218.339 178.34 220.259C173.74 222.179 175.21 226.259 171.85 226.989C168.49 227.719 169.69 225.789 166.09 226.269C162.49 226.749 162.73 228.909 161.77 230.109C160.81 231.309 160.77 230.349 157.44 230.829C155.38 231.148 153.46 232.066 151.92 233.469H226.13C226.13 233.469 228.05 229.629 223.01 226.749C217.97 223.869 213.64 226.999 212.2 224.099Z" fill="white" stroke="#ADADAD" stroke-linecap="round" stroke-linejoin="round"/>
<path d="M428.649 104.949H401.389V131.749H428.649V104.949Z" fill="#757575" stroke="#263238" stroke-linecap="round" stroke-linejoin="round"/>
<path d="M428.659 131.75H440.039V104.95H428.659V131.75Z" fill="#C2C2C2" stroke="#263238" stroke-linecap="round" stroke-linejoin="round"/>
<path d="M420.579 91.3828V97.5828L401.389 104.953" stroke="#263238" stroke-linecap="round" stroke-linejoin="round"/>
<path d="M420.58 97.582L434.91 104.832V131.552" stroke="#263238" stroke-linecap="round" stroke-linejoin="round"/>
<path d="M446.529 69.1609C444.159 73.3809 440.019 76.8009 436.529 79.8409C431.649 84.0709 425.739 86.7209 422.529 93.1309C422.376 93.4277 422.143 93.6756 421.856 93.8466C421.569 94.0177 421.24 94.105 420.906 94.0988C420.572 94.0925 420.246 93.993 419.966 93.8113C419.686 93.6297 419.462 93.3732 419.319 93.0709C413.499 81.1209 394.259 79.0709 392.849 63.5409C392.299 57.5409 395.849 50.9909 399.849 46.7109C403.509 42.7709 412.219 37.7709 416.559 43.1109C418.109 45.0109 419.019 46.1109 420.999 48.3709C422.999 46.0909 423.889 45.0109 425.439 43.1109C429.999 37.4909 437.629 43.0509 441.229 46.8909C445.339 51.2909 449.089 57.2409 448.449 63.5309C448.205 65.52 447.551 67.4368 446.529 69.1609Z" fill="#0CFFBB" stroke="#263238" stroke-linecap="round" stroke-linejoin="round"/>
<path d="M440.199 47.8407C442.199 50.2107 442.868 53.0107 441.608 54.1007C440.348 55.1907 437.678 54.1007 435.608 51.7707C433.538 49.4407 432.929 46.6007 434.189 45.5207C435.449 44.4407 438.159 45.4807 440.199 47.8407Z" fill="white"/>
<path opacity="0.49" d="M442.109 49.8192C445.709 54.0092 445.619 59.9992 441.889 63.2092C438.159 66.4192 432.229 65.6192 428.619 61.4292C425.009 57.2392 425.119 51.2492 428.839 48.0392C432.559 44.8292 438.509 45.6292 442.109 49.8192Z" fill="white"/>
<path d="M415.18 43.6711C416.5 45.2011 416.78 47.1211 415.81 47.9511C414.84 48.7811 412.99 48.2211 411.67 46.6911C410.35 45.1611 410.07 43.2411 411.04 42.4111C412.01 41.5811 413.86 42.1411 415.18 43.6711Z" fill="white"/>
<path d="M409.94 80.6328C403.29 76.1028 396 72.0028 395.21 63.0028C394.76 58.0928 397.21 52.7928 400.37 48.8828" fill="#0CFFBB"/>
<path d="M409.94 80.6328C403.29 76.1028 396 72.0028 395.21 63.0028C394.76 58.0928 397.21 52.7928 400.37 48.8828" stroke="#263238" stroke-linecap="round" stroke-linejoin="round"/>
<path d="M413.889 83.5113C413.259 83.0013 412.609 82.5112 411.939 82.0312Z" fill="#0CFFBB"/>
<path d="M413.889 83.5113C413.259 83.0013 412.609 82.5112 411.939 82.0312" stroke="#263238" stroke-linecap="round" stroke-linejoin="round"/>
<path d="M423.59 48.9219C423.59 48.9219 428.01 42.9219 431.37 42.9219Z" fill="#0CFFBB"/>
<path d="M423.59 48.9219C423.59 48.9219 428.01 42.9219 431.37 42.9219" stroke="#263238" stroke-linecap="round" stroke-linejoin="round"/>
<path d="M402.359 46.8008C402.359 46.8008 405.889 43.8008 408.019 43.8008Z" fill="#0CFFBB"/>
<path d="M402.359 46.8008C402.359 46.8008 405.889 43.8008 408.019 43.8008" stroke="#263238" stroke-linecap="round" stroke-linejoin="round"/>
<g clip-path="url(#clip0_1073_3439)">
<path d="M415.501 122.878C413.088 122.878 411.125 120.914 411.125 118.501C411.125 116.088 413.088 114.125 415.501 114.125C417.914 114.125 419.878 116.088 419.878 118.501C419.878 120.914 417.914 122.878 415.501 122.878ZM415.501 114.496C413.293 114.496 411.496 116.293 411.496 118.501C411.496 120.71 413.293 122.506 415.501 122.506C417.71 122.506 419.506 120.71 419.506 118.501C419.506 116.293 417.71 114.496 415.501 114.496Z" fill="black"/>
<path d="M417.078 112.196C416.976 112.196 416.893 112.113 416.893 112.011V110.059H414.109V112.011C414.109 112.113 414.026 112.196 413.924 112.196C413.821 112.196 413.738 112.113 413.738 112.011V109.873C413.738 109.771 413.821 109.688 413.924 109.688H417.078C417.181 109.688 417.264 109.771 417.264 109.873V112.011C417.264 112.113 417.181 112.196 417.078 112.196Z" fill="black"/>
<path d="M409.797 115.211C409.749 115.211 409.702 115.193 409.666 115.156L408.154 113.645C408.081 113.572 408.081 113.455 408.154 113.382L410.384 111.152C410.457 111.08 410.574 111.08 410.647 111.152L412.158 112.664C412.231 112.736 412.231 112.854 412.158 112.926C412.086 112.998 411.968 112.998 411.896 112.926L410.516 111.546L408.548 113.514L409.928 114.894C410 114.966 410 115.084 409.928 115.156C409.892 115.193 409.844 115.211 409.797 115.211Z" fill="black"/>
<path d="M409.011 120.264H406.873C406.771 120.264 406.688 120.181 406.688 120.078V116.924C406.688 116.821 406.771 116.738 406.873 116.738H409.011C409.113 116.738 409.196 116.821 409.196 116.924C409.196 117.026 409.113 117.109 409.011 117.109H407.059V119.893H409.011C409.113 119.893 409.196 119.976 409.196 120.078C409.196 120.181 409.113 120.264 409.011 120.264Z" fill="black"/>
<path d="M421.205 115.211C421.158 115.211 421.11 115.193 421.074 115.156C421.001 115.084 421.001 114.966 421.074 114.894L422.454 113.514L420.486 111.546L419.106 112.926C419.033 112.998 418.916 112.998 418.843 112.926C418.771 112.854 418.771 112.736 418.843 112.664L420.355 111.152C420.427 111.08 420.545 111.08 420.617 111.152L422.848 113.382C422.92 113.455 422.92 113.572 422.848 113.645L421.336 115.156C421.3 115.193 421.252 115.211 421.205 115.211Z" fill="black"/>
<path d="M420.486 125.902C420.439 125.902 420.391 125.884 420.355 125.848L418.843 124.336C418.771 124.264 418.771 124.146 418.843 124.074C418.916 124.001 419.033 124.001 419.106 124.074L420.486 125.454L422.454 123.486L421.074 122.106C421.001 122.033 421.001 121.916 421.074 121.843C421.146 121.771 421.264 121.771 421.336 121.843L422.848 123.355C422.92 123.427 422.92 123.545 422.848 123.617L420.617 125.848C420.581 125.884 420.534 125.902 420.486 125.902Z" fill="black"/>
<path d="M424.13 120.264H421.992C421.89 120.264 421.807 120.181 421.807 120.078C421.807 119.976 421.89 119.893 421.992 119.893H423.944V117.109H421.992C421.89 117.109 421.807 117.026 421.807 116.924C421.807 116.821 421.89 116.738 421.992 116.738H424.13C424.232 116.738 424.315 116.821 424.315 116.924V120.078C424.315 120.181 424.232 120.264 424.13 120.264Z" fill="black"/>
<path d="M417.078 127.313H413.924C413.821 127.313 413.738 127.23 413.738 127.128V124.99C413.738 124.888 413.821 124.805 413.924 124.805C414.026 124.805 414.109 124.888 414.109 124.99V126.942H416.893V124.99C416.893 124.888 416.976 124.805 417.078 124.805C417.181 124.805 417.264 124.888 417.264 124.99V127.128C417.264 127.23 417.181 127.313 417.078 127.313Z" fill="black"/>
<path d="M410.516 125.902C410.468 125.902 410.421 125.884 410.384 125.848L408.154 123.617C408.081 123.545 408.081 123.427 408.154 123.355L409.666 121.843C409.738 121.771 409.856 121.771 409.928 121.843C410 121.916 410 122.033 409.928 122.106L408.548 123.486L410.516 125.454L411.896 124.074C411.969 124.001 412.086 124.001 412.158 124.074C412.231 124.146 412.231 124.264 412.158 124.336L410.647 125.848C410.611 125.884 410.563 125.902 410.516 125.902Z" fill="black"/>
<path d="M414.387 118.316H413.459C413.357 118.316 413.273 118.233 413.273 118.131C413.273 118.028 413.357 117.945 413.459 117.945H414.387C414.489 117.945 414.572 118.028 414.572 118.131C414.572 118.233 414.489 118.316 414.387 118.316Z" fill="black"/>
<path d="M417.727 118.316H415.129C415.026 118.316 414.943 118.233 414.943 118.131C414.943 118.028 415.026 117.945 415.129 117.945H417.727C417.829 117.945 417.912 118.028 417.912 118.131C417.912 118.233 417.829 118.316 417.727 118.316Z" fill="black"/>
<path d="M415.129 119.242H413.459C413.357 119.242 413.273 119.159 413.273 119.057C413.273 118.954 413.357 118.871 413.459 118.871H415.129C415.231 118.871 415.314 118.954 415.314 119.057C415.314 119.159 415.231 119.242 415.129 119.242Z" fill="black"/>
<path d="M416.242 119.242H415.871C415.769 119.242 415.686 119.159 415.686 119.057C415.686 118.954 415.769 118.871 415.871 118.871H416.242C416.345 118.871 416.428 118.954 416.428 119.057C416.428 119.159 416.345 119.242 416.242 119.242Z" fill="black"/>
<path d="M417.541 119.242H416.984C416.882 119.242 416.799 119.159 416.799 119.057C416.799 118.954 416.882 118.871 416.984 118.871H417.541C417.644 118.871 417.727 118.954 417.727 119.057C417.727 119.159 417.644 119.242 417.541 119.242Z" fill="black"/>
<path d="M414.016 120.172H413.459C413.357 120.172 413.273 120.089 413.273 119.986C413.273 119.884 413.357 119.801 413.459 119.801H414.016C414.118 119.801 414.201 119.884 414.201 119.986C414.201 120.089 414.118 120.172 414.016 120.172Z" fill="black"/>
<path d="M416.057 120.172H414.758C414.655 120.172 414.572 120.089 414.572 119.986C414.572 119.884 414.655 119.801 414.758 119.801H416.057C416.159 119.801 416.242 119.884 416.242 119.986C416.242 120.089 416.159 120.172 416.057 120.172Z" fill="black"/>
<path d="M417.541 120.172H416.799C416.696 120.172 416.613 120.089 416.613 119.986C416.613 119.884 416.696 119.801 416.799 119.801H417.541C417.644 119.801 417.727 119.884 417.727 119.986C417.727 120.089 417.644 120.172 417.541 120.172Z" fill="black"/>
<path d="M414.201 121.098H413.459C413.357 121.098 413.273 121.015 413.273 120.912C413.273 120.81 413.357 120.727 413.459 120.727H414.201C414.304 120.727 414.387 120.81 414.387 120.912C414.387 121.015 414.304 121.098 414.201 121.098Z" fill="black"/>
<path d="M416.613 121.098H414.943C414.841 121.098 414.758 121.015 414.758 120.912C414.758 120.81 414.841 120.727 414.943 120.727H416.613C416.716 120.727 416.799 120.81 416.799 120.912C416.799 121.015 416.716 121.098 416.613 121.098Z" fill="black"/>
<path d="M414.387 117.203C414.346 117.203 414.305 117.19 414.271 117.162L413.343 116.42C413.299 116.385 413.273 116.332 413.273 116.275C413.273 116.219 413.299 116.166 413.343 116.131L414.271 115.388C414.351 115.324 414.468 115.337 414.532 115.417C414.596 115.497 414.583 115.614 414.503 115.678L413.756 116.275L414.503 116.873C414.583 116.937 414.596 117.054 414.532 117.134C414.495 117.179 414.441 117.203 414.387 117.203Z" fill="black"/>
<path d="M416.613 117.203C416.559 117.203 416.505 117.179 416.468 117.134C416.404 117.054 416.417 116.937 416.497 116.873L417.244 116.275L416.497 115.678C416.417 115.614 416.404 115.497 416.468 115.417C416.532 115.337 416.649 115.324 416.729 115.388L417.657 116.131C417.701 116.166 417.727 116.219 417.727 116.275C417.727 116.332 417.701 116.385 417.657 116.42L416.729 117.162C416.695 117.19 416.654 117.203 416.613 117.203Z" fill="black"/>
<path d="M415.129 117.018C415.098 117.018 415.066 117.01 415.037 116.993C414.948 116.942 414.917 116.829 414.968 116.74L415.71 115.441C415.761 115.352 415.874 115.321 415.963 115.372C416.052 115.423 416.083 115.536 416.032 115.625L415.29 116.924C415.256 116.984 415.193 117.018 415.129 117.018Z" fill="black"/>
<path d="M415.501 125.364C411.716 125.364 408.637 122.285 408.637 118.501C408.637 114.716 411.716 111.637 415.501 111.637C419.285 111.637 422.364 114.716 422.364 118.501C422.364 122.285 419.285 125.364 415.501 125.364ZM415.501 112.008C411.92 112.008 409.008 114.92 409.008 118.501C409.008 122.081 411.92 124.993 415.501 124.993C419.081 124.993 421.993 122.081 421.993 118.501C421.993 114.92 419.081 112.008 415.501 112.008Z" fill="black"/>
</g>
<path d="M367.8 303.211H406.77V264.901H367.8V303.211Z" fill="#C2C2C2" stroke="#263238" stroke-linecap="round" stroke-linejoin="round"/>
<path d="M367.79 264.91H351.52V303.22H367.79V264.91Z" fill="#757575" stroke="#263238" stroke-linecap="round" stroke-linejoin="round"/>
<path d="M379.34 245.508V254.368L406.77 264.908" stroke="#263238" stroke-linecap="round" stroke-linejoin="round"/>
<path d="M379.34 254.371L358.85 264.741V302.931" stroke="#263238" stroke-linecap="round" stroke-linejoin="round"/>
<path d="M416.05 213.75C412.66 219.75 406.75 224.67 401.75 229C394.75 235.05 386.34 238.84 381.75 248C381.532 248.424 381.198 248.779 380.788 249.024C380.378 249.269 379.908 249.394 379.431 249.386C378.953 249.377 378.487 249.236 378.086 248.977C377.685 248.718 377.364 248.351 377.16 247.92C368.84 230.82 341.34 227.85 339.32 205.7C338.54 197.12 343.57 187.7 349.26 181.63C354.49 176 366.94 168.86 373.15 176.49C375.36 179.21 376.67 180.75 379.49 184.02C382.31 180.75 383.62 179.21 385.83 176.49C392.36 168.49 403.26 176.4 408.4 181.9C414.29 188.18 419.65 196.7 418.73 205.68C418.402 208.525 417.49 211.273 416.05 213.75Z" fill="#0CFFBB" stroke="#263238" stroke-linecap="round" stroke-linejoin="round"/>
<path d="M407.001 183.271C409.911 186.661 410.821 190.661 409.001 192.211C407.181 193.761 403.381 192.271 400.461 188.881C397.541 185.491 396.641 181.491 398.461 179.941C400.281 178.391 404.081 179.881 407.001 183.271Z" fill="white"/>
<path opacity="0.49" d="M409.415 205.226C414.74 200.643 414.879 192.075 409.727 186.09C404.575 180.104 396.082 178.967 390.758 183.55C385.433 188.132 385.294 196.7 390.446 202.686C395.598 208.671 404.091 209.809 409.415 205.226Z" fill="white"/>
<path d="M371.241 177.308C373.121 179.488 373.531 182.228 372.141 183.428C370.751 184.628 368.141 183.808 366.221 181.618C364.301 179.428 363.931 176.688 365.321 175.498C366.711 174.308 369.351 175.118 371.241 177.308Z" fill="white"/>
<path d="M363.74 230.14C354.23 223.67 343.86 217.77 342.69 204.95C342.05 197.95 345.6 190.35 350.06 184.77" fill="#0CFFBB"/>
<path d="M363.74 230.14C354.23 223.67 343.86 217.77 342.69 204.95C342.05 197.95 345.6 190.35 350.06 184.77" stroke="#263238" stroke-linecap="round" stroke-linejoin="round"/>
<path d="M369.401 234.261C368.491 233.531 367.561 232.831 366.611 232.141Z" fill="#0CFFBB"/>
<path d="M369.401 234.261C368.491 233.531 367.561 232.831 366.611 232.141" stroke="#263238" stroke-linecap="round" stroke-linejoin="round"/>
<path d="M383.25 184.811C383.25 184.811 389.58 176.211 394.38 176.211Z" fill="#0CFFBB"/>
<path d="M383.25 184.811C383.25 184.811 389.58 176.211 394.38 176.211" stroke="#263238" stroke-linecap="round" stroke-linejoin="round"/>
<path d="M352.9 181.78C352.9 181.78 357.96 177.48 361 177.48Z" fill="#0CFFBB"/>
<path d="M352.9 181.78C352.9 181.78 357.96 177.48 361 177.48" stroke="#263238" stroke-linecap="round" stroke-linejoin="round"/>
<g clip-path="url(#clip1_1073_3439)">
<path d="M390.753 288.728C390.076 289.509 389.699 290.936 390.193 291.396C390.663 291.748 391.935 291.706 392.872 290.422C393.555 289.565 393.323 288.131 392.936 287.75C392.359 287.311 391.53 287.881 390.753 288.738V288.728ZM384.377 288.963C383.657 288.14 382.722 287.651 382.119 288.013C381.713 288.315 381.64 289.349 382.214 290.363C383.068 291.569 384.271 291.693 384.766 291.399C385.288 291.012 385.004 289.704 384.376 288.962L384.377 288.963ZM387.626 291.452C386.752 291.433 385.409 291.801 385.428 292.271C385.412 292.59 386.482 293.515 387.571 293.468C388.618 293.492 389.704 292.565 389.692 292.164C389.689 291.748 388.507 291.43 387.629 291.465L387.626 291.452ZM387.568 280.415C386.557 280.391 385.586 281.154 385.586 281.596C385.583 282.135 386.384 282.684 387.574 282.7C388.795 282.706 389.565 282.258 389.578 281.701C389.59 281.073 388.474 280.405 387.583 280.414L387.568 280.415ZM385.134 280.835C383.446 280.563 382.039 281.547 382.094 283.362C382.15 284.061 385.759 280.956 385.137 280.848L385.134 280.835ZM392.853 283.408C392.908 281.605 391.502 280.622 389.81 280.894C389.188 281.002 392.797 284.11 392.853 283.408ZM393.14 284.061C392.16 283.801 392.81 288.06 393.608 287.716C394.486 287.026 394.767 284.985 393.14 284.073V284.061ZM381.346 287.763C382.144 288.118 382.793 283.86 381.812 284.12C380.19 285.035 380.467 287.073 381.346 287.775V287.763ZM388.802 283.053C387.892 283.647 387.728 284.977 388.437 286.019C389.142 287.064 390.45 287.453 391.356 286.872C392.265 286.294 392.429 284.964 391.724 283.906C391.015 282.852 389.707 282.472 388.802 283.065V283.053ZM386.35 283.161C385.443 282.579 384.132 282.96 383.43 284.002C382.723 285.059 382.886 286.386 383.795 286.98C384.702 287.574 386.01 287.193 386.718 286.139C387.417 285.094 387.25 283.764 386.35 283.173L386.35 283.161ZM389.807 288.83C389.8 287.728 388.817 286.838 387.608 286.851C386.398 286.863 385.421 287.75 385.428 288.855V288.876C385.434 289.98 386.42 290.871 387.629 290.858C388.838 290.858 389.813 289.959 389.8 288.868V288.842L389.807 288.83ZM392.349 276.85C390.521 277.787 389.458 278.535 388.873 279.175C389.172 280.362 390.728 280.409 391.3 280.372C391.182 280.326 391.084 280.255 391.049 280.162C391.192 280.065 391.699 280.15 392.055 279.958C391.919 279.936 391.853 279.911 391.791 279.803C392.126 279.698 392.484 279.615 392.694 279.435C392.583 279.435 392.475 279.46 392.326 279.364C392.623 279.212 392.942 279.079 393.192 278.844C393.037 278.844 392.87 278.844 392.824 278.785C393.095 278.618 393.325 278.439 393.517 278.225C393.303 278.263 393.211 278.241 393.158 278.204C393.365 278 393.628 277.823 393.751 277.56C393.591 277.622 393.443 277.631 393.338 277.56C393.412 277.409 393.712 277.313 393.884 276.945C393.715 276.969 393.535 276.983 393.498 276.945C393.579 276.636 393.712 276.46 393.845 276.268C393.483 276.268 392.932 276.268 392.959 276.246L393.183 276.021C392.829 275.925 392.468 276.033 392.205 276.116C392.088 276.033 392.205 275.912 392.35 275.795C392.041 275.844 391.771 275.904 391.534 275.999C391.404 275.878 391.614 275.774 391.722 275.653C391.249 275.748 391.057 275.866 390.856 275.983C390.713 275.853 390.844 275.736 390.939 275.631C390.583 275.761 390.404 275.925 390.216 276.079C390.144 275.996 390.049 275.938 390.166 275.724C389.919 275.866 389.726 276.033 389.585 276.222C389.433 276.117 389.492 275.984 389.492 275.866C389.229 276.079 389.064 276.293 388.864 276.509C388.814 276.485 388.781 276.389 388.756 276.234C388.14 276.828 387.259 278.313 388.53 278.89C389.596 278.024 390.889 277.385 392.315 276.908L392.349 276.85ZM382.645 276.85C384.067 277.326 385.35 277.966 386.428 278.844C387.689 278.25 386.817 276.766 386.201 276.188C386.17 276.339 386.137 276.448 386.097 276.473C385.896 276.259 385.732 276.043 385.472 275.829C385.472 275.95 385.534 276.093 385.379 276.185C385.241 275.997 385.054 275.829 384.807 275.687C384.924 275.891 384.826 275.95 384.76 276.043C384.572 275.867 384.392 275.7 384.05 275.57C384.145 275.687 384.287 275.808 384.145 275.938C383.956 275.82 383.753 275.7 383.292 275.604C383.396 275.721 383.61 275.841 383.48 275.962C383.229 275.863 382.958 275.792 382.661 275.755C382.803 275.876 382.93 275.984 382.812 276.076C382.54 275.981 382.175 275.875 381.819 275.972L382.042 276.195C382.068 276.226 381.523 276.219 381.154 276.223C381.287 276.402 381.423 276.578 381.501 276.899C381.464 276.933 381.287 276.912 381.118 276.899C381.297 277.256 381.591 277.351 381.662 277.506C381.557 277.58 381.415 277.564 381.248 277.506C381.378 277.753 381.641 277.933 381.842 278.146C381.783 278.18 381.7 278.205 381.474 278.177C381.662 278.381 381.888 278.567 382.163 278.734C382.113 278.789 381.947 278.786 381.783 278.792C382.03 279.034 382.352 279.16 382.649 279.318C382.495 279.426 382.386 279.401 382.281 279.401C382.482 279.577 382.85 279.661 383.184 279.767C383.11 279.874 383.054 279.9 382.908 279.921C383.264 280.122 383.762 280.03 383.908 280.134C383.87 280.23 383.778 280.301 383.658 280.351C384.226 280.385 385.795 280.338 386.091 279.151C385.507 278.511 384.44 277.762 382.612 276.838L382.645 276.85ZM384.018 275.081C384.203 275.078 384.361 275.188 384.534 275.242C384.951 275.106 385.047 275.291 385.251 275.368C385.709 275.273 385.848 275.479 386.068 275.699L386.322 275.689C387.011 276.091 387.354 276.908 387.476 277.326C387.596 276.908 387.939 276.091 388.629 275.689L388.883 275.696C389.102 275.473 389.241 275.269 389.699 275.365C389.906 275.281 389.999 275.106 390.421 275.235C390.684 275.151 390.912 274.938 391.258 275.198C391.549 275.081 391.834 275.043 392.084 275.269C392.477 275.222 392.6 275.318 392.696 275.436C392.784 275.436 393.337 275.352 393.594 275.72C394.237 275.649 394.438 276.088 394.206 276.502C394.339 276.703 394.475 276.896 394.169 277.276C394.286 277.49 394.215 277.712 393.952 277.996C394.026 278.293 393.893 278.497 393.658 278.661C393.705 279.067 393.278 279.305 393.16 279.385C393.111 279.623 393.015 279.849 392.53 279.966C392.459 280.322 392.162 280.381 391.877 280.452C392.817 280.987 393.609 281.686 393.609 283.405L393.754 283.643C394.821 284.284 395.783 286.336 394.286 288.01C394.193 288.53 394.026 288.898 393.881 289.312C393.668 290.984 392.233 291.767 391.856 291.863C391.309 292.277 390.717 292.67 389.923 292.942C389.174 293.703 388.358 293.999 387.55 293.999H387.48C386.66 293.999 385.843 293.703 385.095 292.942C384.297 292.669 383.703 292.28 383.157 291.863C382.776 291.77 381.35 290.987 381.128 289.315C380.98 288.901 380.816 288.52 380.72 287.997C379.219 286.325 380.178 284.274 381.245 283.63L381.381 283.395C381.381 281.676 382.175 280.974 383.113 280.442C382.828 280.371 382.543 280.312 382.464 279.954C381.975 279.836 381.879 279.61 381.833 279.372C381.714 279.292 381.288 279.054 381.334 278.64C381.096 278.473 380.966 278.272 381.037 277.962C380.79 277.69 380.719 277.452 380.824 277.238C380.515 276.858 380.657 276.657 380.788 276.468C380.561 276.051 380.766 275.603 381.406 275.675C381.653 275.306 382.213 275.39 382.293 275.39C382.389 275.269 382.519 275.164 382.911 275.211C383.159 274.985 383.446 275.021 383.74 275.13C383.861 275.034 383.966 275 384.061 275L384.018 275.081Z" fill="black"/>
</g>
<path d="M227.19 168.902H253.67V142.872H227.19V168.902Z" fill="#C2C2C2" stroke="#263238" stroke-linecap="round" stroke-linejoin="round"/>
<path d="M227.189 142.871H216.129V168.901H227.189V142.871Z" fill="#757575" stroke="#263238" stroke-linecap="round" stroke-linejoin="round"/>
<path d="M235.029 129.691V135.711L253.659 142.871" stroke="#263238" stroke-linecap="round" stroke-linejoin="round"/>
<path d="M235.029 135.711L221.109 142.751V168.701" stroke="#263238" stroke-linecap="round" stroke-linejoin="round"/>
<path d="M259.999 108.11C257.699 112.21 253.679 115.53 250.289 118.48C245.549 122.59 239.809 125.16 236.679 131.39C236.533 131.682 236.307 131.926 236.027 132.095C235.748 132.263 235.427 132.349 235.1 132.343C234.774 132.337 234.456 132.238 234.184 132.059C233.911 131.88 233.695 131.627 233.559 131.33C227.909 119.72 209.219 117.7 207.849 102.65C207.319 96.8204 210.739 90.4505 214.599 86.3005C218.159 82.4705 226.599 77.6205 230.839 82.8005C232.339 84.6505 233.229 85.7004 235.149 87.9204C237.069 85.7004 237.949 84.6505 239.449 82.8005C243.889 77.3505 251.299 82.8005 254.789 86.4805C258.789 90.7505 262.429 96.4804 261.789 102.64C261.575 104.568 260.966 106.43 259.999 108.11Z" fill="#0CFFBB" stroke="#263238" stroke-linecap="round" stroke-linejoin="round"/>
<path d="M253.819 87.399C255.819 89.709 256.419 92.399 255.189 93.479C253.959 94.559 251.369 93.479 249.389 91.219C247.409 88.959 246.799 86.219 248.019 85.139C249.239 84.059 251.839 85.099 253.819 87.399Z" fill="white"/>
<path opacity="0.49" d="M255.68 89.3208C259.18 93.3908 259.08 99.2108 255.47 102.321C251.86 105.431 246.08 104.671 242.58 100.601C239.08 96.5308 239.17 90.7108 242.79 87.6008C246.41 84.4908 252.18 85.2608 255.68 89.3208Z" fill="white"/>
<path d="M229.52 83.3498C230.8 84.8398 231.08 86.6998 230.14 87.5098C229.2 88.3198 227.39 87.7698 226.14 86.2798C224.89 84.7898 224.59 82.9299 225.53 82.1199C226.47 81.3099 228.24 81.8598 229.52 83.3498Z" fill="white"/>
<path d="M224.43 119.252C217.97 114.852 210.92 110.852 210.13 102.142C209.69 97.3719 212.13 92.2119 215.13 88.4219" fill="#0CFFBB"/>
<path d="M224.43 119.252C217.97 114.852 210.92 110.852 210.13 102.142C209.69 97.3719 212.13 92.2119 215.13 88.4219" stroke="#263238" stroke-linecap="round" stroke-linejoin="round"/>
<path d="M228.269 122.049C227.659 121.549 227.019 121.049 226.379 120.609Z" fill="#0CFFBB"/>
<path d="M228.269 122.049C227.659 121.549 227.019 121.049 226.379 120.609" stroke="#263238" stroke-linecap="round" stroke-linejoin="round"/>
<path d="M237.689 88.4494C237.689 88.4494 241.979 82.6094 245.249 82.6094Z" fill="#0CFFBB"/>
<path d="M237.689 88.4494C237.689 88.4494 241.979 82.6094 245.249 82.6094" stroke="#263238" stroke-linecap="round" stroke-linejoin="round"/>
<path d="M217.059 86.3887C217.059 86.3887 220.499 83.4688 222.559 83.4688Z" fill="#0CFFBB"/>
<path d="M217.059 86.3887C217.059 86.3887 220.499 83.4688 222.559 83.4688" stroke="#263238" stroke-linecap="round" stroke-linejoin="round"/>
<path d="M331.94 187H277.32V240.69H331.94V187Z" fill="#757575" stroke="#263238" stroke-linecap="round" stroke-linejoin="round"/>
<path d="M331.95 240.691H354.75V187.001H331.95V240.691Z" fill="#C2C2C2" stroke="#263238" stroke-linecap="round" stroke-linejoin="round"/>
<path d="M315.77 159.82V172.23L277.32 187" stroke="#263238" stroke-linecap="round" stroke-linejoin="round"/>
<path d="M315.77 172.23L344.48 186.76V240.28" stroke="#263238" stroke-linecap="round" stroke-linejoin="round"/>
<path d="M367.759 115.301C363.009 123.751 354.759 130.601 347.759 136.681C337.989 145.161 326.149 150.471 319.699 163.321C319.394 163.917 318.927 164.415 318.352 164.759C317.777 165.103 317.117 165.279 316.447 165.267C315.777 165.254 315.124 165.054 314.562 164.689C314.001 164.323 313.553 163.808 313.269 163.201C301.609 139.251 263.059 135.091 260.269 104.041C259.179 92.0407 266.269 78.8807 274.199 70.3107C281.539 62.4207 298.979 52.4107 307.679 63.1007C310.789 66.9107 312.609 69.1007 316.569 73.6507C320.569 69.0807 322.349 66.9107 325.459 63.1007C334.599 51.8507 349.889 62.9807 357.089 70.6807C365.349 79.4907 372.849 91.4207 371.559 104.011C371.086 107.996 369.792 111.84 367.759 115.301Z" fill="#0CFFBB" stroke="#263238" stroke-linecap="round" stroke-linejoin="round"/>
<path d="M355.07 72.5901C359.16 77.3401 360.43 82.9501 357.9 85.1201C355.37 87.2901 350.02 85.2001 345.9 80.4501C341.78 75.7001 340.54 70.0901 343.06 67.9201C345.58 65.7501 351 67.8401 355.07 72.5901Z" fill="white"/>
<path opacity="0.49" d="M358.465 103.366C365.928 96.9424 366.125 84.9346 358.905 76.5463C351.685 68.1579 339.781 66.5655 332.318 72.9895C324.855 79.4134 324.658 91.4212 331.878 99.8095C339.098 108.198 351.002 109.79 358.465 103.366Z" fill="white"/>
<path d="M305 64.2313C307.64 67.3013 308.21 71.1412 306.27 72.8112C304.33 74.4812 300.61 73.3512 297.97 70.2812C295.33 67.2112 294.77 63.3712 296.71 61.7012C298.65 60.0312 302.31 61.1613 305 64.2313Z" fill="white"/>
<path d="M294.449 138.271C281.119 129.201 266.579 120.941 264.939 102.981C264.049 93.1414 269.019 82.5114 275.279 74.6914" fill="#0CFFBB"/>
<path d="M294.449 138.271C281.119 129.201 266.579 120.941 264.939 102.981C264.049 93.1414 269.019 82.5114 275.279 74.6914" stroke="#263238" stroke-linecap="round" stroke-linejoin="round"/>
<path d="M302.369 144C301.109 143 299.799 142 298.469 141Z" fill="#0CFFBB"/>
<path d="M302.369 144C301.109 143 299.799 142 298.469 141" stroke="#263238" stroke-linecap="round" stroke-linejoin="round"/>
<path d="M321.789 74.75C321.789 74.75 330.649 62.75 337.389 62.75Z" fill="#0CFFBB"/>
<path d="M321.789 74.75C321.789 74.75 330.649 62.75 337.389 62.75" stroke="#263238" stroke-linecap="round" stroke-linejoin="round"/>
<path d="M279.26 70.4922C279.26 70.4922 286.35 64.4922 290.6 64.4922Z" fill="#0CFFBB"/>
<path d="M279.26 70.4922C279.26 70.4922 286.35 64.4922 290.6 64.4922" stroke="#263238" stroke-linecap="round" stroke-linejoin="round"/>
<g clip-path="url(#clip2_1073_3439)">
<path d="M322.738 213.501C322.695 211.267 321.769 209.142 320.161 207.592C318.553 206.042 316.396 205.193 314.163 205.232C313.74 205.232 313.288 205.261 312.85 205.305C309.175 205.844 306.725 208.484 305.369 210.511C303.983 208.484 301.519 205.844 297.873 205.305C297.435 205.261 296.998 205.232 296.56 205.232C294.33 205.197 292.176 206.047 290.572 207.597C288.967 209.147 288.042 211.27 288 213.501C288.042 215.731 288.967 217.854 290.572 219.404C292.176 220.954 294.33 221.804 296.56 221.769C296.998 221.769 297.435 221.74 297.902 221.682C301.577 221.157 304.027 218.517 305.398 216.49C306.783 218.517 309.233 221.157 312.894 221.696C313.346 221.74 313.769 221.769 314.221 221.769C316.444 221.793 318.586 220.937 320.182 219.388C321.777 217.84 322.695 215.723 322.738 213.501ZM297.45 218.751C297.158 218.809 296.823 218.809 296.531 218.809C295.08 218.84 293.676 218.297 292.624 217.297C291.572 216.297 290.959 214.922 290.917 213.471C290.962 212.019 291.579 210.644 292.634 209.645C293.688 208.645 295.094 208.102 296.546 208.134C296.838 208.134 297.158 208.163 297.465 208.192C300.921 208.703 303.035 212.086 303.75 213.471C303.021 214.857 300.906 218.284 297.465 218.751H297.45ZM306.958 213.501C307.673 212.144 309.787 208.732 313.244 208.221C313.535 208.163 313.856 208.163 314.148 208.163C314.869 208.142 315.588 208.263 316.262 208.52C316.937 208.777 317.554 209.164 318.078 209.66C318.602 210.156 319.024 210.75 319.318 211.409C319.612 212.068 319.773 212.779 319.792 213.501C319.746 214.952 319.129 216.328 318.075 217.327C317.021 218.326 315.615 218.869 314.163 218.838C313.871 218.838 313.55 218.809 313.258 218.78C309.817 218.269 307.688 214.857 306.973 213.501H306.958ZM294.14 214.361H299.302V212.669H294.154V214.361H294.14ZM314.746 214.361H316.481V212.669H314.731V210.934H313.083V212.684H311.333V214.361H313.083V216.082H314.76V214.376L314.746 214.361ZM323 206.296C323 206.734 322.679 207.04 322.227 207.04C322.128 207.044 322.03 207.028 321.937 206.993C321.844 206.959 321.759 206.906 321.687 206.838C321.615 206.77 321.558 206.688 321.518 206.598C321.478 206.507 321.456 206.41 321.454 206.311C321.454 205.903 321.804 205.553 322.227 205.553C322.679 205.553 323 205.873 323 206.296ZM321.673 206.296C321.673 206.617 321.906 206.88 322.256 206.88C322.577 206.88 322.81 206.617 322.81 206.296C322.81 205.976 322.577 205.713 322.256 205.713C321.906 205.684 321.673 205.946 321.673 206.296ZM322.11 206.676H321.965V205.917L322.256 205.903C322.388 205.903 322.46 205.917 322.519 205.946C322.577 205.976 322.606 206.034 322.606 206.107C322.606 206.194 322.548 206.253 322.446 206.267C322.519 206.296 322.548 206.355 322.577 206.457L322.621 206.646H322.446C322.417 206.617 322.417 206.544 322.388 206.457C322.358 206.384 322.329 206.355 322.227 206.355H322.154L322.125 206.676H322.11ZM322.14 206.238H322.227C322.329 206.238 322.373 206.223 322.373 206.136C322.373 206.063 322.329 206.034 322.227 206.034H322.125V206.238H322.14Z" fill="black"/>
</g>
<path d="M441.73 341.001C441.73 341.001 442.58 332.781 442.02 330.661C441.46 328.541 439.89 327.261 439.47 324.711C439.05 322.161 438.19 321.031 437.06 322.871C435.93 324.711 436.92 328.111 436.92 328.111C436.92 328.111 430.27 322.451 428.99 320.751C427.71 319.051 425.88 320.181 426.16 321.461C426.44 322.741 431.82 328.251 431.82 328.251L430.55 328.541C430.55 328.541 425.73 323.541 424.32 322.451C422.91 321.361 421.32 321.601 421.06 322.871C420.8 324.141 428 330.801 428 330.801C428 330.801 422.9 327.971 421.34 326.981C419.78 325.991 419.22 325.851 419.08 327.401C418.94 328.951 420.35 330.401 422.34 331.231C424.33 332.061 426.58 332.931 426.58 332.931C426.58 332.931 421.77 332.361 420.21 332.081C418.65 331.801 419.36 333.631 421.06 334.481C422.762 335.214 424.513 335.829 426.3 336.321C427.315 337.829 428.452 339.25 429.7 340.571C431.302 341.953 433.061 343.141 434.94 344.111C434.94 344.111 448.67 375.271 449.94 377.531C451.21 379.791 459.99 380.361 462.12 380.221C464.25 380.081 469.9 368.751 469.9 368.751L472 358.311C470.503 359.066 468.939 359.682 467.33 360.151C464.53 361.001 457 364.401 457 364.401C457 364.401 448.36 352.931 444.82 347.551C441.28 342.171 441.73 341.001 441.73 341.001Z" fill="white" stroke="#263238" stroke-linecap="round" stroke-linejoin="round"/>
<path d="M436.92 328.152L437.06 330.982C437.06 330.982 434.37 332.122 435.06 338.492" fill="#E3E3E3"/>
<path d="M436.92 328.152L437.06 330.982C437.06 330.982 434.37 332.122 435.06 338.492" stroke="#263238" stroke-linecap="round" stroke-linejoin="round"/>
<path d="M509.682 320.822C509.682 320.822 519.052 319.992 521.522 328.822C523.992 337.652 522.352 350.022 519.872 354.422C517.392 358.822 518.502 364.062 519.602 364.612C520.702 365.162 523.182 363.782 522.072 365.712C520.962 367.642 519.322 370.122 511.892 367.092C504.462 364.062 500.892 357.452 503.082 348.642C505.272 339.832 506.382 336.532 507.212 330.472C507.596 327.158 508.427 323.912 509.682 320.822Z" fill="#263238" stroke="#263238" stroke-linecap="round" stroke-linejoin="round"/>
<path d="M480.501 302.371C480.501 302.371 477.191 299.371 484.351 297.691C491.511 296.011 499.221 300.171 503.631 307.601C508.041 315.031 511.891 320.821 509.681 330.461C507.471 340.101 497.001 345.051 497.001 345.051C497.001 345.051 497.551 347.251 493.691 348.051C489.831 348.851 485.691 348.881 485.161 343.921C484.631 338.961 485.711 334.831 485.161 334.011C484.611 333.191 479.381 330.701 479.101 327.121C478.821 323.541 478.821 322.721 478.001 320.241C477.181 317.761 478.001 307.851 478.001 307.851L480.501 302.371Z" fill="#263238" stroke="#263238" stroke-linecap="round" stroke-linejoin="round"/>
<path d="M480.5 302.371C480.5 302.371 468.66 310.371 468.11 313.941C467.56 317.511 468.38 318.621 466.73 320.551C465.08 322.481 459.02 323.551 459.3 326.051C459.621 327.751 460.489 329.299 461.77 330.461C461.77 330.461 462.05 343.951 463.98 344.781C465.91 345.611 473.61 344.501 473.61 344.501L475 356.621L487.94 355.791L487.67 343.121L489.04 339.271C489.04 339.271 494.27 335.961 494.04 331.831C493.81 327.701 491.84 327.151 489.91 327.701C488.251 328.324 486.678 329.158 485.23 330.181C485.23 330.181 486.05 323.301 484.95 321.651C483.85 320.001 480.82 317.791 480 313.391C479.18 308.991 480.5 302.371 480.5 302.371Z" fill="white" stroke="#263238" stroke-linecap="round" stroke-linejoin="round"/>
<path d="M464.531 331.831C464.531 331.831 468.381 332.941 470.861 330.461" stroke="#263238" stroke-linecap="round" stroke-linejoin="round"/>
<path d="M473.221 320.069C472.581 321.359 471.621 322.199 471.081 321.929C470.541 321.659 470.611 320.389 471.251 319.089C471.891 317.789 472.851 316.969 473.391 317.239C473.931 317.509 473.861 318.769 473.221 320.069Z" fill="#263238"/>
<path d="M472.51 313.392C472.51 313.392 476.64 311.182 476.64 315.862" stroke="#263238" stroke-linecap="round" stroke-linejoin="round"/>
<path d="M489.001 339.273C489.001 339.273 483.221 341.203 482.391 338.723" stroke="#263238" stroke-linecap="round" stroke-linejoin="round"/>
<path d="M493.16 361.569C493.16 361.569 490.68 352.759 486.55 352.209C482.42 351.659 482.7 351.379 474.99 356.619C467.28 361.859 454.89 374.789 454.06 383.049C453.359 389.124 453.735 395.275 455.17 401.219C456.27 406.449 448.83 473.359 448.83 473.359H524.55C524.55 473.359 519.32 444.449 512.71 430.409C506.1 416.369 498.39 403.149 497.29 399.849C496.19 396.549 495.92 376.719 495.09 372.309C494.26 367.899 493.16 361.569 493.16 361.569Z" fill="#0CFFBB" stroke="#263238" stroke-linecap="round" stroke-linejoin="round"/>
<path d="M487.33 410.469C490.266 410.099 493.133 409.304 495.84 408.109" stroke="#263238" stroke-linecap="round" stroke-linejoin="round"/>
<path d="M458.141 405.68C458.141 405.68 469.521 410.83 481.961 410.82" stroke="#263238" stroke-linecap="round" stroke-linejoin="round"/>
<path d="M471.862 438.782L468.282 408.922L465.852 428.382" stroke="#263238" stroke-linecap="round" stroke-linejoin="round"/>
<path d="M473.141 449.459L472.441 443.629" stroke="#263238" stroke-linecap="round" stroke-linejoin="round"/>
<path d="M491.391 410.949L495.441 430.809" stroke="#263238" stroke-linecap="round" stroke-linejoin="round"/>
<path d="M424.911 333.181C424.911 333.181 424.351 322.421 423.641 321.711C422.931 321.001 419.811 318.881 418.961 316.611C418.111 314.341 416.561 313.611 415.961 315.611C415.361 317.611 416.671 319.611 417.091 320.281C417.497 320.83 417.786 321.456 417.941 322.121C417.909 322.469 417.814 322.808 417.661 323.121L413.841 320.421C413.841 320.421 409.021 317.421 407.471 315.611C405.921 313.801 404.631 315.041 404.471 316.181C404.311 317.321 406.471 319.431 407.301 320.281C408.131 321.131 412.001 324.401 412.001 324.401L410.441 324.971L404.631 319.871C403.361 318.741 401.381 317.321 400.631 318.031C399.881 318.741 399.921 319.581 401.051 320.861C402.181 322.141 407.991 327.801 407.991 327.801C407.991 327.801 404.991 326.381 403.601 325.531C402.211 324.681 400.911 323.691 400.771 325.111C400.631 326.531 403.041 328.221 403.881 329.111C404.721 330.001 407.571 333.641 409.691 335.201C411.811 336.761 418.611 338.601 418.611 338.601C418.611 338.601 428.671 370.741 431.211 376.411C433.751 382.081 434.211 384.341 436.211 385.331C438.211 386.321 460.281 386.891 473.591 383.491C486.901 380.091 489.451 379.491 490.871 372.871C492.291 366.251 488.181 357.431 481.241 357.291C474.301 357.151 467.241 362.961 459.581 364.941C451.921 366.921 444.281 369.191 444.281 369.191C444.281 369.191 434.001 353.571 431.001 348.051C428.643 343.235 426.608 338.267 424.911 333.181Z" fill="white" stroke="#263238" stroke-linecap="round" stroke-linejoin="round"/>
<path d="M405.51 330.91C405.51 330.91 409.05 332.75 409.51 332.91" stroke="#263238" stroke-linecap="round" stroke-linejoin="round"/>
<path d="M238.531 323.292C238.531 323.292 236.901 307.592 237.981 303.522C239.061 299.452 242.051 297.022 242.861 292.152C243.671 287.282 245.301 285.152 247.461 288.632C249.621 292.112 247.731 298.632 247.731 298.632C247.731 298.632 260.461 287.802 262.901 284.552C265.341 281.302 268.901 283.462 268.321 285.902C267.741 288.342 257.481 298.902 257.481 298.902L259.921 299.442C259.921 299.442 269.131 289.962 271.841 287.802C274.551 285.642 277.521 286.172 278.071 288.612C278.621 291.052 264.801 303.772 264.801 303.772C264.801 303.772 274.541 298.362 277.521 296.462C280.501 294.562 281.591 294.302 281.861 297.272C282.131 300.242 279.421 302.962 275.631 304.592C271.841 306.222 267.501 307.842 267.501 307.842C267.501 307.842 276.711 306.752 279.691 306.212C282.671 305.672 281.321 309.212 278.071 310.822C274.821 312.221 271.48 313.397 268.071 314.342C266.13 317.222 263.956 319.938 261.571 322.462C258.321 325.712 251.571 329.232 251.571 329.232C251.571 329.232 225.311 388.812 222.871 393.142C220.431 397.472 203.641 398.562 199.581 398.292C195.521 398.022 184.681 376.352 184.681 376.352L180.621 356.352C183.486 357.799 186.479 358.977 189.561 359.872C194.971 361.502 209.331 368.002 209.331 368.002C209.331 368.002 225.801 346.002 232.571 335.752C239.341 325.502 238.531 323.292 238.531 323.292Z" fill="#C9C9C9" stroke="#263238" stroke-linecap="round" stroke-linejoin="round"/>
<path d="M247.731 298.648L247.461 304.058C247.461 304.058 252.611 306.228 251.251 318.418" stroke="#263238" stroke-linecap="round" stroke-linejoin="round"/>
<path d="M155.32 344.179C155.32 344.179 142.32 352.849 135.82 366.389C129.32 379.929 126.61 387.509 128.24 397.799C129.87 408.089 135.55 445.199 135.55 453.319C135.55 461.439 134.74 473.319 134.74 473.319H210.3C210.3 473.319 212.19 441.099 211.92 418.619C211.65 396.139 204.07 373.929 199.19 363.619C194.31 353.309 190.53 349.269 183.48 346.559C176.43 343.849 161 341.469 155.32 344.179Z" fill="#0CFFBB" stroke="#263238" stroke-linecap="round" stroke-linejoin="round"/>
<path d="M182.11 419.219C182.11 419.219 150.05 453.219 142.77 458.079" stroke="#263238" stroke-linecap="round" stroke-linejoin="round"/>
<path d="M153.66 459C151.509 461.176 149.166 463.154 146.66 464.91" stroke="#263238" stroke-linecap="round" stroke-linejoin="round"/>
<path d="M175.79 436.219C175.79 436.219 165 447.919 156.26 456.459" stroke="#263238" stroke-linecap="round" stroke-linejoin="round"/>
<path d="M177.8 271.869C177.8 271.869 167.23 266.729 156.94 270.519C146.65 274.309 132 285.409 129.59 297.329C127.18 309.249 130.4 323.059 137.17 330.639C143.94 338.219 154.78 339.579 154.78 339.579L152.61 347.999C152.61 347.999 168.87 355.559 172.39 358.539C175.91 361.519 191.68 371.929 190.85 367.769C188.42 355.629 189.98 349.629 191.61 344.209C193.24 338.789 195.4 334.459 200.55 331.749C205.7 329.039 212.19 324.169 211.11 317.669C210.03 311.169 206 303.559 206 303.559C206 303.559 208.17 295.429 206.27 293.559C204.37 291.689 195.44 292.749 193.82 289.229C192.2 285.709 191.65 282.449 189.21 279.749C186.77 277.049 177.8 271.869 177.8 271.869Z" fill="#C9C9C9" stroke="#263238" stroke-linecap="round" stroke-linejoin="round"/>
<path d="M188.741 288.001C189.551 289.601 189.601 291.201 188.871 291.571C188.141 291.941 186.871 290.941 186.081 289.331C185.291 287.721 185.221 286.131 185.951 285.761C186.681 285.391 187.941 286.391 188.741 288.001Z" fill="#263238"/>
<path d="M180.23 283.79C180.23 283.79 181.59 279.18 186.73 280.79" stroke="#263238" stroke-linecap="round" stroke-linejoin="round"/>
<path d="M202.439 306.81C202.439 306.81 197.569 308.16 193.779 306" stroke="#263238" stroke-linecap="round" stroke-linejoin="round"/>
<path d="M172.53 270.07C167.404 268.671 161.977 268.828 156.94 270.52C146.65 274.31 132 285.41 129.59 297.33C127.18 309.25 130.4 323.06 137.17 330.64C142.34 336.42 149.85 338.58 153.17 339.28C156.528 337.933 159.311 335.458 161.04 332.28C162.648 329.611 164.007 326.799 165.1 323.88C165.1 323.88 160.22 325.78 156.43 325.23C152.64 324.68 145.87 323.34 146.14 317.38C146.41 311.42 152.37 308.99 154.54 310.88C156.71 312.77 158.87 313.05 161.31 309.8C163.75 306.55 158.06 301.4 159.68 299.51C161.3 297.62 163.74 292.51 162.12 289.51C160.5 286.51 152.91 287.07 157.24 280.84C160.49 276.1 168.7 271.86 172.53 270.07Z" fill="#263238" stroke="#263238" stroke-linecap="round" stroke-linejoin="round"/>
<path d="M165.07 323.871C165.07 323.871 169.13 328.471 170.48 329.021C173.392 329.808 176.435 329.992 179.42 329.561" stroke="#263238" stroke-linecap="round" stroke-linejoin="round"/>
<path d="M265.271 316.001C265.271 316.001 266.361 295.411 267.711 294.061C269.061 292.711 275.021 288.641 276.651 284.311C278.281 279.981 281.251 278.621 282.331 282.411C283.411 286.201 280.981 290.001 280.171 291.351C279.361 292.701 278.541 294.061 278.541 294.871C278.603 295.532 278.786 296.176 279.081 296.771L286.401 291.621C286.401 291.621 295.601 285.941 298.581 282.411C301.561 278.881 304.001 281.331 304.271 283.501C304.541 285.671 300.481 289.731 298.851 291.351C297.221 292.971 289.921 299.211 289.921 299.211L292.921 300.291C292.921 300.291 301.581 292.711 304.021 290.541C306.461 288.371 310.251 285.661 311.601 287.021C312.951 288.381 312.961 290.021 310.791 292.441C308.621 294.861 297.521 305.711 297.521 305.711C297.521 305.711 303.211 303.001 305.921 301.371C308.631 299.741 311.061 297.851 311.331 300.561C311.601 303.271 307.001 306.561 305.331 308.141C303.661 309.721 298.331 316.811 294.231 319.791C290.131 322.771 277.171 326.291 277.171 326.291C277.171 326.291 257.941 387.761 253.071 398.601C248.201 409.441 247.381 413.761 243.591 415.661C239.801 417.561 197.591 418.661 172.091 412.141C146.591 405.621 141.761 404.551 139.091 391.831C136.421 379.111 144.241 362.311 157.511 362.041C170.781 361.771 184.321 372.871 198.941 376.661C213.561 380.451 228.191 384.781 228.191 384.781C228.191 384.781 247.961 354.991 253.651 344.431C259.341 333.871 265.271 316.001 265.271 316.001Z" fill="#C9C9C9" stroke="#263238" stroke-linecap="round" stroke-linejoin="round"/>
<path d="M302.371 311.68C302.371 311.68 295.601 315.2 294.791 315.47" stroke="#263238" stroke-linecap="round" stroke-linejoin="round"/>
<defs>
<clipPath id="clip0_1073_3439">
<rect width="19" height="19" fill="white" transform="translate(406 109)"/>
</clipPath>
<clipPath id="clip1_1073_3439">
<rect width="19" height="19" fill="white" transform="translate(378 275)"/>
</clipPath>
<clipPath id="clip2_1073_3439">
<rect width="35" height="35" fill="white" transform="translate(288 196)"/>
</clipPath>
</defs>
</svg>
