<svg width="700" height="500" viewBox="0 0 700 500" fill="none" xmlns="http://www.w3.org/2000/svg">
<g clip-path="url(#clip0_2422_948)">
<mask id="mask0_2422_948" style="mask-type:luminance" maskUnits="userSpaceOnUse" x="0" y="0" width="700" height="500">
<path d="M700 0H0V500H700V0Z" fill="white"/>
</mask>
<g mask="url(#mask0_2422_948)">
<path d="M462.322 55.628C462.322 55.628 393.094 16.9035 313.666 46.332C234.238 75.7605 183.615 152.306 141.026 213.275C98.437 274.243 104.918 344.747 154.877 384.906C204.836 425.064 250.121 386.101 327.955 397.07C405.789 408.039 424.74 422.647 496.465 389.832C568.191 357.018 597.393 255.704 559.758 170.712C522.122 85.7205 462.322 55.628 462.322 55.628Z" fill="#D27D2D"/>
<path opacity="0.8" d="M462.322 55.628C462.322 55.628 393.094 16.9035 313.666 46.332C234.238 75.7605 183.615 152.306 141.026 213.275C98.437 274.243 104.918 344.747 154.877 384.906C204.836 425.064 250.121 386.101 327.955 397.07C405.789 408.039 424.74 422.647 496.465 389.832C568.191 357.018 597.393 255.704 559.758 170.712C522.122 85.7205 462.322 55.628 462.322 55.628Z" fill="white"/>
<path d="M580.634 466.114C580.634 471.32 477.17 475.543 349.562 475.543C221.955 475.543 118.49 471.32 118.49 466.114C118.49 460.908 221.941 456.672 349.562 456.672C477.183 456.672 580.634 460.895 580.634 466.114Z" fill="#D27D2D"/>
<path opacity="0.5" d="M580.634 466.114C580.634 471.32 477.17 475.543 349.562 475.543C221.955 475.543 118.49 471.32 118.49 466.114C118.49 460.908 221.941 456.672 349.562 456.672C477.183 456.672 580.634 460.895 580.634 466.114Z" fill="white"/>
<path d="M549.08 370.964C545.866 374.689 543.695 379.197 542.786 384.032L530.17 391.11V357.658L530.409 358.003L550.528 343.275C553.064 343.674 562.825 344.789 571.776 339.995C582.028 334.431 589.571 315.321 589.571 315.321C589.571 315.321 564.963 312.545 556.623 322.864C552.049 328.221 549.614 335.078 549.784 342.12L530.17 356.489V331.788C533.841 330.078 537.086 327.572 539.67 324.453C542.254 321.334 544.112 317.68 545.11 313.754C548.682 299.85 529.625 272.453 529.625 272.453C529.625 272.453 509.771 300.647 513.689 314.949C517.049 327.06 526.093 330.885 528.788 331.788V385.373L514.672 373.594C514.991 370.778 515.243 361.947 507.381 353.089C497.846 342.372 472.441 343.169 472.441 343.169C472.441 343.169 483.158 364.603 492.361 371.761C500.329 378.003 511.352 375.453 513.994 374.709L528.895 387.126V403.407H506.704L515.734 459.847H542.825L551.856 403.407H530.17V392.637L544.034 384.868C547.407 385.798 556.836 387.737 565.76 383.275C576.875 377.737 585.999 365.785 585.999 365.785C585.999 365.785 559.399 359.052 549.08 370.964Z" fill="#D27D2D"/>
<path opacity="0.5" d="M549.08 370.964C545.866 374.689 543.695 379.197 542.786 384.032L530.17 391.11V357.658L530.409 358.003L550.528 343.275C553.064 343.674 562.825 344.789 571.776 339.995C582.028 334.431 589.571 315.321 589.571 315.321C589.571 315.321 564.963 312.545 556.623 322.864C552.049 328.221 549.614 335.078 549.784 342.12L530.17 356.489V331.788C533.841 330.078 537.086 327.572 539.67 324.453C542.254 321.334 544.112 317.68 545.11 313.754C548.682 299.85 529.625 272.453 529.625 272.453C529.625 272.453 509.771 300.647 513.689 314.949C517.049 327.06 526.093 330.885 528.788 331.788V385.373L514.672 373.594C514.991 370.778 515.243 361.947 507.381 353.089C497.846 342.372 472.441 343.169 472.441 343.169C472.441 343.169 483.158 364.603 492.361 371.761C500.329 378.003 511.352 375.453 513.994 374.709L528.895 387.126V403.407H506.704L515.734 459.847H542.825L551.856 403.407H530.17V392.637L544.034 384.868C547.407 385.798 556.836 387.737 565.76 383.275C576.875 377.737 585.999 365.785 585.999 365.785C585.999 365.785 559.399 359.052 549.08 370.964Z" fill="white"/>
<path d="M494.062 51.0625H190.176C181.624 51.0625 174.691 57.9951 174.691 66.547V258.058C174.691 266.61 181.624 273.542 190.176 273.542H494.062C502.614 273.542 509.547 266.61 509.547 258.058V66.547C509.547 57.9951 502.614 51.0625 494.062 51.0625Z" fill="#D27D2D" stroke="#263238" stroke-miterlimit="10" stroke-linecap="round"/>
<path opacity="0.7" d="M494.062 51.0625H190.176C181.624 51.0625 174.691 57.9951 174.691 66.547V258.058C174.691 266.61 181.624 273.542 190.176 273.542H494.062C502.614 273.542 509.547 266.61 509.547 258.058V66.547C509.547 57.9951 502.614 51.0625 494.062 51.0625Z" fill="#D27D2D" stroke="#263238" stroke-miterlimit="10" stroke-linecap="round"/>
<path d="M315.924 175.441H276.748V197.42H315.924V175.441Z" fill="white"/>
<path d="M315.924 201.391H276.748V223.369H315.924V201.391Z" fill="white"/>
<path d="M359.084 175.441H319.908V197.42H359.084V175.441Z" fill="white"/>
<path d="M402.258 149.48H363.082V171.459H402.258V149.48Z" fill="white"/>
<path d="M402.258 123.516H363.082V145.494H402.258V123.516Z" fill="white"/>
<path d="M402.258 75.5352H363.082V93.5694H402.258V75.5352Z" fill="#263238"/>
<path d="M359.084 75.5352H319.908V93.5694H359.084V75.5352Z" fill="#263238"/>
<path d="M359.084 201.391H319.908V223.369H359.084V201.391Z" fill="white"/>
<path d="M359.084 97.5547H319.908V119.533H359.084V97.5547Z" fill="white"/>
<path d="M359.084 123.516H319.908V145.494H359.084V123.516Z" fill="white"/>
<path d="M359.084 149.48H319.908V171.459H359.084V149.48Z" fill="white"/>
<path d="M402.258 201.391H363.082V223.369H402.258V201.391Z" fill="white"/>
<path d="M229.592 97.5547H187.826V119.533H229.592V97.5547Z" fill="white"/>
<path d="M229.592 149.48H187.826V171.459H229.592V149.48Z" fill="white"/>
<path d="M229.592 175.441H187.826V197.42H229.592V175.441Z" fill="white"/>
<path d="M229.592 123.516H187.826V145.494H229.592V123.516Z" fill="white"/>
<path d="M491.18 75.5352H449.414V93.5694H491.18V75.5352Z" fill="#263238"/>
<path d="M229.592 201.391H187.826V223.369H229.592V201.391Z" fill="white"/>
<path d="M445.418 97.5547H406.242V119.533H445.418V97.5547Z" fill="white"/>
<path d="M402.258 175.441H363.082V197.42H402.258V175.441Z" fill="white"/>
<path d="M445.418 175.441H406.242V197.42H445.418V175.441Z" fill="white"/>
<path d="M445.418 123.516H406.242V145.494H445.418V123.516Z" fill="white"/>
<path d="M445.418 149.48H406.242V171.459H445.418V149.48Z" fill="white"/>
<path d="M445.418 201.391H406.242V223.369H445.418V201.391Z" fill="white"/>
<path d="M402.258 97.5547H363.082V119.533H402.258V97.5547Z" fill="white"/>
<path d="M491.18 201.391H449.414V223.369H491.18V201.391Z" fill="white"/>
<path d="M445.418 75.5352H406.242V93.5694H445.418V75.5352Z" fill="#263238"/>
<path d="M491.18 175.441H449.414V197.42H491.18V175.441Z" fill="white"/>
<path d="M445.418 227.355H406.242V250.582H445.418V227.355Z" fill="white"/>
<path d="M491.18 149.48H449.414V171.459H491.18V149.48Z" fill="white"/>
<path d="M359.084 227.355H319.908V250.582H359.084V227.355Z" fill="white"/>
<path d="M402.258 227.355H363.082V250.582H402.258V227.355Z" fill="white"/>
<path d="M491.18 123.516H449.414V145.494H491.18V123.516Z" fill="white"/>
<path d="M491.18 227.355H449.414V250.582H491.18V227.355Z" fill="white"/>
<path d="M229.592 227.355H187.826V250.582H229.592V227.355Z" fill="white"/>
<path d="M491.18 97.5547H449.414V119.533H491.18V97.5547Z" fill="white"/>
<path d="M229.592 75.5352H187.826V93.5694H229.592V75.5352Z" fill="#263238"/>
<path d="M272.75 75.5352H233.574V93.5694H272.75V75.5352Z" fill="#263238"/>
<path d="M272.75 175.441H233.574V197.42H272.75V175.441Z" fill="white"/>
<path d="M315.924 75.5352H276.748V93.5694H315.924V75.5352Z" fill="#263238"/>
<path d="M315.924 123.516H276.748V145.494H315.924V123.516Z" fill="white"/>
<path d="M272.75 201.391H233.574V223.369H272.75V201.391Z" fill="white"/>
<path d="M315.924 97.5547H276.748V119.533H315.924V97.5547Z" fill="white"/>
<path d="M272.75 97.5547H233.574V119.533H272.75V97.5547Z" fill="white"/>
<path d="M315.924 149.48H276.748V171.459H315.924V149.48Z" fill="white"/>
<path d="M272.75 149.48H233.574V171.459H272.75V149.48Z" fill="white"/>
<path d="M272.75 227.355H233.574V250.582H272.75V227.355Z" fill="white"/>
<path d="M272.75 123.516H233.574V145.494H272.75V123.516Z" fill="white"/>
<path d="M315.924 227.355H276.748V250.582H315.924V227.355Z" fill="white"/>
<path d="M206.257 63.413C209.374 63.413 211.901 60.8861 211.901 57.769C211.901 54.6519 209.374 52.125 206.257 52.125C203.14 52.125 200.613 54.6519 200.613 57.769C200.613 60.8861 203.14 63.413 206.257 63.413Z" fill="white" stroke="#263238" stroke-miterlimit="10" stroke-linecap="round"/>
<path d="M231.012 57.7682C231.014 56.6482 230.685 55.5526 230.064 54.6202C229.443 53.6878 228.56 52.9607 227.526 52.5308C226.491 52.101 225.353 51.9879 224.254 52.2057C223.155 52.4236 222.146 52.9626 221.354 53.7546C220.562 54.5466 220.023 55.5559 219.805 56.6545C219.587 57.7531 219.701 58.8917 220.13 59.926C220.56 60.9603 221.287 61.8437 222.22 62.4643C223.152 63.0849 224.248 63.4148 225.368 63.4122C226.865 63.4122 228.3 62.8176 229.359 61.7591C230.417 60.7007 231.012 59.2651 231.012 57.7682Z" fill="white" stroke="#263238" stroke-miterlimit="10" stroke-linecap="round"/>
<path d="M206.364 61.4468C205.578 61.4468 204.825 61.1348 204.27 60.5794C203.714 60.024 203.402 59.2708 203.402 58.4853V38.4591C203.401 38.0691 203.476 37.6826 203.624 37.3217C203.772 36.9609 203.99 36.6329 204.265 36.3565C204.54 36.08 204.867 35.8607 205.227 35.7111C205.588 35.5614 205.974 35.4844 206.364 35.4844C207.153 35.4844 207.909 35.7978 208.467 36.3557C209.025 36.9135 209.339 37.6701 209.339 38.4591V58.4853C209.339 58.8754 209.262 59.2615 209.112 59.6217C208.962 59.9819 208.743 60.3089 208.466 60.5841C208.19 60.8593 207.862 61.0771 207.501 61.2252C207.14 61.3732 206.754 61.4485 206.364 61.4468Z" fill="white" stroke="#263238" stroke-miterlimit="10" stroke-linecap="round"/>
<path d="M225.647 61.4468C224.862 61.4468 224.108 61.1348 223.553 60.5794C222.998 60.024 222.686 59.2708 222.686 58.4853V38.4591C222.684 38.0691 222.759 37.6826 222.907 37.3217C223.055 36.9609 223.273 36.6329 223.548 36.3565C223.823 36.08 224.15 35.8607 224.511 35.7111C224.871 35.5614 225.257 35.4844 225.647 35.4844C226.436 35.4844 227.193 35.7978 227.75 36.3557C228.308 36.9135 228.622 37.6701 228.622 38.4591V58.4853C228.622 58.8754 228.545 59.2615 228.395 59.6217C228.245 59.9819 228.026 60.3089 227.75 60.5841C227.473 60.8593 227.145 61.0771 226.784 61.2252C226.424 61.3732 226.037 61.4485 225.647 61.4468Z" fill="white" stroke="#263238" stroke-miterlimit="10" stroke-linecap="round"/>
<path d="M466.758 57.7682C466.761 56.6482 466.431 55.5526 465.81 54.6202C465.189 53.6878 464.306 52.9607 463.272 52.5308C462.237 52.101 461.099 51.9879 460 52.2057C458.902 52.4236 457.892 52.9626 457.1 53.7546C456.308 54.5466 455.769 55.5559 455.551 56.6545C455.334 57.7531 455.447 58.8917 455.877 59.926C456.306 60.9603 457.034 61.8437 457.966 62.4643C458.898 63.0849 459.994 63.4148 461.114 63.4122C462.611 63.4122 464.046 62.8176 465.105 61.7591C466.163 60.7007 466.758 59.2651 466.758 57.7682Z" fill="white" stroke="#263238" stroke-miterlimit="10" stroke-linecap="round"/>
<path d="M480.21 63.413C483.328 63.413 485.854 60.8861 485.854 57.769C485.854 54.6519 483.328 52.125 480.21 52.125C477.093 52.125 474.566 54.6519 474.566 57.769C474.566 60.8861 477.093 63.413 480.21 63.413Z" fill="white" stroke="#263238" stroke-miterlimit="10" stroke-linecap="round"/>
<path d="M461.208 61.4468C460.422 61.4468 459.669 61.1348 459.113 60.5794C458.558 60.024 458.246 59.2708 458.246 58.4853V38.4591C458.244 38.0691 458.32 37.6826 458.468 37.3217C458.616 36.9609 458.834 36.6329 459.109 36.3565C459.384 36.08 459.711 35.8607 460.071 35.7111C460.431 35.5614 460.818 35.4844 461.208 35.4844C461.996 35.4844 462.753 35.7978 463.311 36.3557C463.869 36.9135 464.182 37.6701 464.182 38.4591V58.4853C464.182 58.8754 464.105 59.2615 463.956 59.6217C463.806 59.9819 463.587 60.3089 463.31 60.5841C463.034 60.8593 462.706 61.0771 462.345 61.2252C461.984 61.3732 461.598 61.4485 461.208 61.4468Z" fill="white" stroke="#263238" stroke-miterlimit="10" stroke-linecap="round"/>
<path d="M480.503 61.4468C480.109 61.4538 479.719 61.3825 479.353 61.2368C478.988 61.0911 478.655 60.8741 478.374 60.5984C478.094 60.3227 477.871 59.9938 477.719 59.631C477.567 59.2682 477.488 58.8787 477.488 58.4853V38.4591C477.488 37.6701 477.802 36.9135 478.36 36.3557C478.917 35.7978 479.674 35.4844 480.463 35.4844C480.853 35.4844 481.239 35.5614 481.599 35.7111C481.96 35.8607 482.287 36.08 482.562 36.3565C482.837 36.6329 483.055 36.9609 483.203 37.3217C483.351 37.6826 483.426 38.0691 483.424 38.4591V58.4853C483.425 59.2639 483.118 60.0112 482.571 60.5654C482.024 61.1197 481.281 61.4363 480.503 61.4468Z" fill="white" stroke="#263238" stroke-miterlimit="10" stroke-linecap="round"/>
<path d="M333.693 63.413C336.81 63.413 339.337 60.8861 339.337 57.769C339.337 54.6519 336.81 52.125 333.693 52.125C330.576 52.125 328.049 54.6519 328.049 57.769C328.049 60.8861 330.576 63.413 333.693 63.413Z" fill="white" stroke="#263238" stroke-miterlimit="10" stroke-linecap="round"/>
<path d="M352.789 63.413C355.906 63.413 358.433 60.8861 358.433 57.769C358.433 54.6519 355.906 52.125 352.789 52.125C349.671 52.125 347.145 54.6519 347.145 57.769C347.145 60.8861 349.671 63.413 352.789 63.413Z" fill="white" stroke="#263238" stroke-miterlimit="10" stroke-linecap="round"/>
<path d="M333.786 61.4468C333 61.4468 332.247 61.1348 331.692 60.5794C331.136 60.024 330.824 59.2708 330.824 58.4853V38.4591C330.822 38.0691 330.898 37.6826 331.046 37.3217C331.194 36.9609 331.412 36.6329 331.687 36.3565C331.962 36.08 332.289 35.8607 332.649 35.7111C333.009 35.5614 333.396 35.4844 333.786 35.4844C334.575 35.4844 335.331 35.7978 335.889 36.3557C336.447 36.9135 336.76 37.6701 336.76 38.4591V58.4853C336.76 58.8754 336.683 59.2615 336.534 59.6217C336.384 59.9819 336.165 60.3089 335.888 60.5841C335.612 60.8593 335.284 61.0771 334.923 61.2252C334.562 61.3732 334.176 61.4485 333.786 61.4468Z" fill="white" stroke="#263238" stroke-miterlimit="10" stroke-linecap="round"/>
<path d="M353.069 61.4468C352.283 61.4468 351.53 61.1348 350.975 60.5794C350.419 60.024 350.107 59.2708 350.107 58.4853V38.4591C350.106 38.0691 350.181 37.6826 350.329 37.3217C350.477 36.9609 350.695 36.6329 350.97 36.3565C351.245 36.08 351.572 35.8607 351.933 35.7111C352.293 35.5614 352.679 35.4844 353.069 35.4844C353.46 35.4844 353.846 35.5613 354.207 35.7108C354.568 35.8603 354.896 36.0794 355.172 36.3557C355.449 36.6319 355.668 36.9598 355.817 37.3207C355.967 37.6816 356.044 38.0684 356.044 38.4591V58.4853C356.044 58.8754 355.967 59.2615 355.817 59.6217C355.667 59.9819 355.448 60.3089 355.172 60.5841C354.895 60.8593 354.567 61.0771 354.206 61.2252C353.845 61.3732 353.459 61.4485 353.069 61.4468Z" fill="white" stroke="#263238" stroke-miterlimit="10" stroke-linecap="round"/>
<path d="M214.942 125.43L195.182 142.853" stroke="#263238" stroke-width="2" stroke-linecap="round" stroke-linejoin="round"/>
<path d="M201.266 125.43L214.944 141.684" stroke="#263238" stroke-width="2" stroke-linecap="round" stroke-linejoin="round"/>
<path d="M433.651 100.648L413.891 118.059" stroke="#263238" stroke-width="2" stroke-linecap="round" stroke-linejoin="round"/>
<path d="M419.973 100.648L433.651 116.903" stroke="#263238" stroke-width="2" stroke-linecap="round" stroke-linejoin="round"/>
<path d="M304.159 100.648L284.385 118.059" stroke="#263238" stroke-width="2" stroke-linecap="round" stroke-linejoin="round"/>
<path d="M290.467 100.648L304.158 116.903" stroke="#263238" stroke-width="2" stroke-linecap="round" stroke-linejoin="round"/>
<path d="M478.856 100.156L459.082 117.58" stroke="#263238" stroke-width="2" stroke-linecap="round" stroke-linejoin="round"/>
<path d="M465.164 100.156L478.856 116.411" stroke="#263238" stroke-width="2" stroke-linecap="round" stroke-linejoin="round"/>
<path d="M405.496 306.262C405.496 306.262 401.393 329.289 400.769 342.543C400.144 355.796 403.292 365.251 404.553 378.505C405.815 391.758 414.009 442.541 414.009 446.645C414.238 450.478 413.125 454.272 410.861 457.375C408.338 460.841 400.131 464.015 400.769 465.25C401.406 466.485 405.177 468.411 411.804 466.206C418.431 464.002 418.75 461.784 421.273 461.784C423.796 461.784 429.161 460.204 428.205 456.472C427.249 452.74 422.574 444.812 422.893 430.921C423.517 398.744 421.937 343.273 421.937 343.273L432.03 312.357L405.496 306.262Z" fill="white" stroke="#263238" stroke-linecap="round" stroke-linejoin="round"/>
<path d="M411.208 456.857L410.862 457.374C408.339 460.841 400.132 464.014 400.77 465.249C401.407 466.485 405.179 468.41 411.805 466.206C418.432 464.001 418.751 461.783 421.274 461.783C423.797 461.783 429.162 460.203 428.206 456.471C427.914 455.276 427.237 453.669 426.466 451.598C423.437 453.906 420.221 455.958 416.852 457.733C415.351 458.291 413.12 457.667 411.208 456.857Z" fill="#263238" stroke="#263238" stroke-linecap="round" stroke-linejoin="round"/>
<path d="M433.479 170.275C433.479 170.275 431.991 165.202 430.969 160.687C429.946 156.172 437.609 154.22 446.015 153.383C454.421 152.547 466.307 158.815 469.813 168.775C473.319 178.735 470.371 215.6 470.729 223.648C471.088 231.695 471.885 253.992 463.717 255.387C455.55 256.781 446.958 257.326 439.813 243.329C432.669 229.332 440.504 192.519 441.354 185.122C442.204 177.725 433.904 171.351 433.904 171.351L433.479 170.275Z" fill="#263238" stroke="#263238" stroke-linecap="round" stroke-linejoin="round"/>
<path d="M451.433 159.812C451.433 159.812 450.875 168.259 456.506 172.76C462.137 177.262 469.441 187.954 469.441 196.4" stroke="white" stroke-width="0.5" stroke-linecap="round" stroke-linejoin="round"/>
<path d="M462.137 182.891C462.137 182.891 466.121 197.499 462.694 209.902" stroke="white" stroke-width="0.5" stroke-linecap="round" stroke-linejoin="round"/>
<path d="M418.804 310.219C418.804 310.219 412.164 340.232 418.286 366.167C419.959 373.259 445.763 436.87 447.794 447.043C449.826 457.215 449.826 466.378 453.903 469.937C457.98 473.496 460.543 471.969 458.471 460.269C457.081 453.736 454.849 447.411 451.831 441.452C451.831 441.452 444.195 392.621 443.173 381.944C442.15 371.267 436.055 358.545 436.055 358.545L445.723 316.832L418.804 310.219Z" fill="white" stroke="#263238" stroke-linecap="round" stroke-linejoin="round"/>
<path d="M457.156 454.758C456.665 457.414 455.602 459.711 453.384 459.273C452.346 459.075 451.389 458.574 450.633 457.835C449.877 457.096 449.356 456.15 449.135 455.116C450.131 461.836 450.941 467.374 453.902 469.95C457.966 473.509 460.542 471.982 458.471 460.282C458.138 458.417 457.699 456.573 457.156 454.758Z" fill="#263238" stroke="#263238" stroke-linecap="round" stroke-linejoin="round"/>
<path d="M448.817 452.102H448.697C448.697 452.341 448.764 452.58 448.803 452.805C448.796 452.571 448.801 452.336 448.817 452.102Z" fill="#263238" stroke="#263238" stroke-linecap="round" stroke-linejoin="round"/>
<path d="M428.006 207.34C424.823 208.103 422.044 210.038 420.224 212.758C417.568 217.154 392.827 235.759 390.463 237.778C388.099 239.796 388.431 249.955 394.447 249.955C400.463 249.955 420.835 234.404 420.835 234.404C420.835 234.404 426.917 226.954 428.949 220.195C430.981 213.435 432.402 208.017 428.006 207.34Z" fill="white" stroke="#263238" stroke-linecap="round" stroke-linejoin="round"/>
<path d="M434.766 190.103C432.402 190.103 430.065 195.655 430.065 195.655L427.834 195.987C429.839 193.609 432.402 190.103 432.402 190.103C434.421 186.717 433.73 181.644 432.402 181.989C431.074 182.335 422.256 185.708 420.902 187.394C419.547 189.081 415.483 202.613 414.142 203.968C412.801 205.322 390.464 233.728 388.1 239.824C385.736 245.919 392.151 253.356 397.569 249.638C402.987 245.919 407.715 234.406 409.76 226.345C411.805 218.284 420.251 202.998 420.251 202.998C420.251 202.998 422.216 201.405 424.235 199.625C426.44 199.07 428.613 198.391 430.742 197.593C432.07 196.916 435.815 192.175 435.815 192.175C435.815 192.175 437.13 190.103 434.766 190.103Z" fill="white" stroke="#263238" stroke-linecap="round" stroke-linejoin="round"/>
<path d="M429.083 179.159L422.23 190.022C421.864 190.603 421.723 191.297 421.833 191.975C421.943 192.652 422.297 193.266 422.828 193.701L425.949 196.264C426.252 196.512 426.604 196.693 426.982 196.797C427.359 196.901 427.755 196.925 428.142 196.868C428.529 196.81 428.901 196.673 429.232 196.463C429.563 196.254 429.847 195.978 430.066 195.653L437.33 184.883C437.733 184.282 437.891 183.548 437.769 182.834C437.648 182.12 437.258 181.48 436.679 181.045L433.146 178.389C432.834 178.158 432.478 177.994 432.099 177.907C431.72 177.82 431.328 177.813 430.946 177.885C430.564 177.958 430.202 178.108 429.881 178.327C429.56 178.547 429.289 178.83 429.083 179.159Z" fill="#263238" stroke="#263238" stroke-linecap="round" stroke-linejoin="round"/>
<path d="M452.549 184.102C452.549 184.102 450.57 196.784 450.012 201.631C449.455 206.478 449.601 207.527 453.678 207.992C457.755 208.457 464.488 210.529 467.13 216.77C469.773 223.012 454.421 241.909 449.866 245.986C445.311 250.063 443.28 255.561 444.289 259.864C445.298 264.167 457.21 278.084 456.692 292.201C456.174 306.317 439.11 347.472 439.11 347.472C439.11 347.472 416.361 338.256 399.934 341.337C399.934 341.337 407.689 286.809 412.297 272.44C416.905 258.071 421.593 250.289 421.221 247.208C420.85 244.127 415.113 235.137 416.507 227.54C417.901 219.944 422.802 213.291 425.086 209.161C427.37 205.031 432.27 205.084 434.05 205.283C435.829 205.482 438.353 206.04 439.614 204.115C440.876 202.189 442.005 192.255 442.005 192.255L452.549 184.102Z" fill="#D27D2D" stroke="#263238" stroke-linecap="round" stroke-linejoin="round"/>
<path d="M426.121 239.16L436.24 246.477" stroke="#263238" stroke-linecap="round" stroke-linejoin="round"/>
<path d="M435.482 270.793C435.482 270.793 425.337 290.155 423.039 303.993" stroke="#263238" stroke-linecap="round" stroke-linejoin="round"/>
<path d="M423.504 290.617C423.504 290.617 420.729 302.569 419.348 313.193" stroke="#263238" stroke-linecap="round" stroke-linejoin="round"/>
<path d="M463.518 213.062C463.518 213.062 460.131 214.763 456.413 220.514C452.695 226.264 449.308 236.064 449.985 238.428C450.663 240.792 457.09 236.742 457.09 236.742C457.09 236.742 463.876 267.166 469.932 264.816C482.11 260.075 465.882 215.441 465.882 215.441C465.882 215.441 465.882 213.766 463.518 213.062Z" fill="white" stroke="#263238" stroke-linecap="round" stroke-linejoin="round"/>
<path d="M437.369 217.22C430.49 215.52 432.323 208.959 434.036 205.268H434.102C435.895 205.48 438.405 206.025 439.667 204.099C440.928 202.173 442.057 192.24 442.057 192.24L452.548 184.152C452.548 184.152 450.569 196.835 450.012 201.682C449.454 206.529 449.6 207.578 453.677 208.043C453.677 207.99 447.17 219.703 437.369 217.22Z" fill="white" stroke="#263238" stroke-linecap="round" stroke-linejoin="round"/>
<path d="M443.265 159.266C442.619 162.871 443.001 166.585 444.367 169.983C446.638 174.896 456.319 180.607 456.319 180.607C456.319 180.607 460.13 176.623 460.688 180.859C461.246 185.095 459.453 189.239 456.624 189.172C453.796 189.106 453.384 185.958 453.384 185.958C450.875 189.607 447.191 192.283 442.946 193.541C435.429 196.025 431.605 195.586 430.715 189.81C429.825 184.033 430.861 177.419 433.49 170.235C436.12 163.05 442.215 159.398 443.265 159.266Z" fill="white" stroke="#263238" stroke-linecap="round" stroke-linejoin="round"/>
<path d="M471.286 208.695L471.631 203.29C473.302 201.808 474.881 200.224 476.359 198.549C478.391 196.185 479.745 192.799 481.432 194.153C483.119 195.508 479.068 199.572 479.068 199.572L478.723 202.228L485.496 200.209C485.496 200.209 491.923 193.782 492.255 195.468C492.587 197.155 488.869 202.905 486.173 205.959C483.477 209.014 475.35 209.943 475.35 209.943C475.35 209.943 475.004 236.995 475.004 245.122C475.004 253.25 473.995 262.386 471.631 264.059C469.268 265.733 461.817 264.391 463.517 251.204C465.217 238.017 471.286 208.695 471.286 208.695Z" fill="white" stroke="#263238" stroke-linecap="round" stroke-linejoin="round"/>
<path d="M457.09 236.767L455.059 230.34" stroke="#263238" stroke-linecap="round" stroke-linejoin="round"/>
<path d="M272.179 156.664C272.179 156.664 278.275 164.393 278.899 166.093C279.339 167.331 279.703 168.595 279.988 169.878L283.972 172.826C284.097 172.916 284.203 173.031 284.282 173.163C284.361 173.296 284.412 173.443 284.432 173.597C284.452 173.75 284.44 173.905 284.398 174.054C284.355 174.202 284.282 174.34 284.184 174.459L281.17 178.164C281.17 178.164 283.972 187.46 283.826 188.788C283.68 190.116 273.946 193.423 273.946 193.423L273.042 200.541L254.583 200.302L254.517 187.115L247.146 169.851C247.146 169.851 253.747 157.394 272.179 156.664Z" fill="white" stroke="#263238" stroke-linecap="round" stroke-linejoin="round"/>
<path d="M268.992 182.68L271.476 182.414C271.729 183.519 272.206 184.561 272.878 185.474C273.549 186.388 274.401 187.154 275.38 187.726" fill="white"/>
<path d="M268.992 182.68L271.476 182.414C271.729 183.519 272.206 184.561 272.878 185.474C273.549 186.388 274.401 187.154 275.38 187.726" stroke="#263238" stroke-linecap="round" stroke-linejoin="round"/>
<path d="M251.065 157.102C251.065 157.102 244.093 157.434 244.133 167.089C244.173 176.743 253.947 185.681 254.478 187.102C255.009 188.523 260.242 187.859 263.92 186.491C265.978 185.82 267.75 184.478 268.953 182.68C268.953 182.68 265.434 177.554 266.151 176.04C266.868 174.526 270.64 175.973 270.64 175.973C271.475 175.499 272.228 174.894 272.871 174.18C273.508 173.291 276.921 169.453 274.557 167.434C272.194 165.416 268.515 164.194 270.148 161.644C271.782 159.094 277.625 156.611 275.912 151.126C274.199 145.642 270.374 145.814 267.187 147.607C264 149.4 263.123 143.623 256.922 146.903C250.72 150.183 248.98 154.978 251.065 157.102Z" fill="#263238" stroke="#263238" stroke-linecap="round" stroke-linejoin="round"/>
<path d="M259.218 176.012C259.086 177.034 259.086 178.07 259.218 179.093" stroke="white" stroke-width="0.5" stroke-linecap="round" stroke-linejoin="round"/>
<path d="M269.975 160.504C269.975 160.504 268.647 162.961 263.335 167.728C261.473 169.398 260.151 171.585 259.537 174.01" stroke="white" stroke-width="0.5" stroke-linecap="round" stroke-linejoin="round"/>
<path d="M271.223 165.375C271.223 165.375 265.818 172.706 262.977 174.883" stroke="white" stroke-width="0.5" stroke-linecap="round" stroke-linejoin="round"/>
<path d="M325.685 157.473C331.176 160.114 336.976 162.059 342.949 163.263C342.949 163.263 334.436 157.5 326.203 156.065C325.446 155.959 325.034 157.141 325.685 157.473Z" fill="#263238" stroke="#263238" stroke-linecap="round" stroke-linejoin="round"/>
<path d="M324.104 201.112L334.25 175.137C334.25 175.137 330.266 168.59 330.266 166.611C330.266 164.632 336.614 157.514 336.614 157.514C336.614 157.514 337.132 153.65 339.894 155.496C340.691 156.044 341.333 156.79 341.757 157.661C342.18 158.531 342.371 159.496 342.311 160.462C343.586 162.258 344.743 164.135 345.777 166.08C346.414 167.62 340.385 176.186 340.385 176.186C340.385 176.186 339.376 199.784 336.72 207.898C334.064 216.013 333.4 217.699 331.634 220.076C329.868 222.453 321.475 218.27 321.475 218.27L324.104 201.112Z" fill="white" stroke="#263238" stroke-linecap="round" stroke-linejoin="round"/>
<path d="M277.718 451.732L294.225 457.734C294.612 457.867 294.966 458.078 295.267 458.355C295.567 458.633 295.806 458.97 295.969 459.345C296.131 459.72 296.214 460.125 296.211 460.533C296.208 460.942 296.119 461.346 295.951 461.718C295.724 462.173 295.328 462.52 294.849 462.688C292.751 463.445 270.945 470.921 264.584 468.226C263.935 467.899 263.387 467.4 263.001 466.785C262.615 466.169 262.405 465.46 262.393 464.733C262.603 459.833 263.14 454.953 263.999 450.125C263.999 450.125 272.1 453.963 277.718 451.732Z" fill="#263238" stroke="#263238" stroke-linecap="round" stroke-linejoin="round"/>
<path d="M295.978 461.733C296.152 461.386 296.248 461.006 296.26 460.618C296.271 460.23 296.198 459.845 296.044 459.488C291.476 461.706 281.768 465.863 272.924 466.022C269.411 466.238 265.885 465.939 262.459 465.132C262.543 465.784 262.783 466.407 263.157 466.948C263.531 467.488 264.03 467.931 264.61 468.24C271.011 470.896 292.777 463.459 294.875 462.702C295.355 462.535 295.75 462.187 295.978 461.733Z" fill="white" stroke="#263238" stroke-linecap="round" stroke-linejoin="round"/>
<path d="M231.955 446.714C231.955 446.714 230.467 460.406 231.264 461.761C232.061 463.115 234.438 464.032 238.528 463.766C239.782 463.738 240.995 463.317 241.996 462.561C242.997 461.806 243.735 460.754 244.106 459.556C244.478 458.573 243.521 449.623 243.495 448.056C243.468 446.489 231.955 446.714 231.955 446.714Z" fill="#263238" stroke="#263238" stroke-linecap="round" stroke-linejoin="round"/>
<path d="M244.146 456.992C242.885 459.422 241.278 460.976 237.108 461.056C234.964 461.143 232.843 460.578 231.026 459.436C230.964 460.218 231.045 461.006 231.265 461.76C232.075 463.088 234.439 464.031 238.529 463.765C239.783 463.737 240.996 463.316 241.997 462.56C242.998 461.805 243.736 460.753 244.107 459.555C244.222 458.706 244.236 457.845 244.146 456.992Z" fill="white" stroke="#263238" stroke-linecap="round" stroke-linejoin="round"/>
<path d="M286.548 289.171C282.672 291.089 278.585 292.546 274.371 293.514L237.758 285.055C237.758 285.055 235.327 305.586 235.394 309.118C235.46 312.651 236.722 376.222 236.722 376.222L231.729 447.668C232.246 448.734 233.064 449.625 234.08 450.234C235.097 450.842 236.268 451.141 237.452 451.095C239.882 451.083 242.282 450.553 244.491 449.541L260.188 375.173L263.68 454.122C263.68 454.122 265.845 456.207 270.785 456.101C272.231 456.053 273.639 455.624 274.866 454.857C276.092 454.089 277.094 453.011 277.77 451.732C277.77 451.732 280.201 421.188 283.826 399.329C287.451 377.47 287.89 317.299 287.89 317.299L286.548 289.171Z" fill="white" stroke="#263238" stroke-linecap="round" stroke-linejoin="round"/>
<path d="M251.729 299.941C256.531 300.982 261.424 301.547 266.337 301.628" stroke="#263238" stroke-linecap="round" stroke-linejoin="round"/>
<path d="M238.156 295.996C238.156 295.996 239.856 298.254 244.358 298.254" stroke="#263238" stroke-linecap="round" stroke-linejoin="round"/>
<path d="M275.301 432.741C275.301 432.741 278.674 392.224 280.932 362.968C282.294 345.736 282.48 328.432 281.489 311.176C281.489 311.176 287.12 304.987 283.176 294.297" stroke="#263238" stroke-linecap="round" stroke-linejoin="round"/>
<path d="M275.3 437.242L273.613 450.19" stroke="#263238" stroke-linecap="round" stroke-linejoin="round"/>
<path d="M260.148 375.185L256.138 322.145L246.775 313.141" stroke="#263238" stroke-linecap="round" stroke-linejoin="round"/>
<path d="M240.534 260.064C240.727 259.46 240.719 258.81 240.511 258.211C240.303 257.612 239.905 257.097 239.378 256.744C235.314 253.995 225.461 248.338 222.313 255.788C221.393 258.695 220.753 261.683 220.401 264.712C219.525 270.675 219.843 311.046 219.883 315.176C219.884 315.4 219.857 315.623 219.803 315.84C219.458 317.42 218.011 324.326 219.02 328.443C220.149 333.131 222.313 336.743 225.992 337.739C229.67 338.735 231.676 334.485 231.105 331.882C230.534 329.279 231.901 327.261 231.33 324.658C230.866 322.56 228.874 317.075 228.117 315.043C227.934 314.542 227.888 314.001 227.984 313.476C229.02 308.164 234.823 278.377 235.261 276.943C235.7 275.509 239.099 264.699 240.534 260.064Z" fill="white" stroke="#263238" stroke-linecap="round" stroke-linejoin="round"/>
<path d="M224.889 329.332C224.889 329.332 229.577 332.612 230.121 335.64" stroke="#263238" stroke-linecap="round" stroke-linejoin="round"/>
<path d="M226.377 326.609C226.377 326.609 230.095 329.04 231.091 330.952" stroke="#263238" stroke-linecap="round" stroke-linejoin="round"/>
<path d="M227.055 323.858L228.383 325.691C228.383 325.691 229.047 332.995 231.118 331.906C233.19 330.817 231.968 321.959 231.968 321.959C231.968 321.959 230.919 319.795 227.679 314.629" fill="white"/>
<path d="M227.055 323.858L228.383 325.691C228.383 325.691 229.047 332.995 231.118 331.906C233.19 330.817 231.968 321.959 231.968 321.959C231.968 321.959 230.919 319.795 227.679 314.629" stroke="#263238" stroke-linecap="round" stroke-linejoin="round"/>
<path d="M226.814 316.223C227.531 318.84 227.466 321.61 226.629 324.191C225.433 326.438 224.102 328.611 222.645 330.698C224.592 332.56 226.415 334.547 228.103 336.647" stroke="#263238" stroke-linecap="round" stroke-linejoin="round"/>
<path d="M229.152 212.146L217.107 256.409C217.107 256.409 227.187 264.576 239.683 264.377L247.744 222.359C247.744 222.359 238.741 202.133 229.152 212.146Z" fill="#263238" stroke="#263238" stroke-linecap="round" stroke-linejoin="round"/>
<path d="M249.072 197.634C249.072 197.634 231.383 206.425 229.723 210.409C228.395 213.729 232.459 237.235 232.539 241.365C232.619 245.495 236.151 280.979 237.107 287.845C238.063 294.71 261.011 297.632 269.749 294.989C278.488 292.347 286.602 291.337 286.549 289.133C286.496 286.928 285.327 268.257 285.805 264.684C286.283 261.112 289.988 234.313 289.988 234.313L323.334 227.407C323.334 227.407 324.875 226.478 324.915 220.449C324.92 214.758 324.627 209.071 324.038 203.41C319.719 204.447 315.252 204.725 310.838 204.234C302.79 203.517 293.255 201.352 291.555 201.83C289.855 202.308 278.275 199.891 274.464 199.413C269.165 198.696 255.712 194.207 249.072 197.634Z" fill="#263238" stroke="#263238" stroke-linecap="round" stroke-linejoin="round"/>
<path d="M234.225 262.242L229.59 223.371" stroke="white" stroke-width="0.5" stroke-linecap="round" stroke-linejoin="round"/>
<path d="M230.851 240.29L228.594 235.23" stroke="white" stroke-width="0.5" stroke-linecap="round" stroke-linejoin="round"/>
<path d="M289.987 234.246L276.986 236.344" stroke="white" stroke-width="0.5" stroke-linecap="round" stroke-linejoin="round"/>
<path d="M287.12 235.23L277.559 244.234" stroke="white" stroke-width="0.5" stroke-linecap="round" stroke-linejoin="round"/>
<path d="M316.376 205.402C316.376 205.402 307.372 218.908 285.434 223.994" stroke="white" stroke-width="0.5" stroke-linecap="round" stroke-linejoin="round"/>
</g>
</g>
<defs>
<clipPath id="clip0_2422_948">
<rect width="700" height="500" fill="white"/>
</clipPath>
</defs>
</svg>
