<svg width="938" height="604" viewBox="0 0 938 604" fill="none" xmlns="http://www.w3.org/2000/svg">
<g clip-path="url(#clip0_2422_1082)">
<mask id="mask0_2422_1082" style="mask-type:luminance" maskUnits="userSpaceOnUse" x="0" y="0" width="938" height="604">
<path d="M938 0H0V604H938V0Z" fill="white"/>
</mask>
<g mask="url(#mask0_2422_1082)">
<path d="M680.584 566.656L675.711 506.08L661.785 570.137C661.785 570.137 661.969 586.298 662.43 604H680.271C680.872 583.764 680.584 566.656 680.584 566.656Z" fill="#F2F2F2"/>
<path d="M429.989 588.198C428.618 582.534 427.649 576.779 427.092 570.978L425.143 550.023C424.323 544.284 423.481 539.228 422.634 534.765C416.426 502.942 410.018 501.791 410.018 501.791C409.742 502.002 409.475 502.235 409.199 502.476C408.446 503.161 407.745 503.901 407.101 504.69C396.895 517.663 389.97 551.309 386.333 573.629C384.324 585.958 383.323 594.83 383.323 594.83C383.323 594.83 384.233 598.609 385.473 604H432.048C431.871 598.679 431.182 593.387 429.989 588.198Z" fill="#F2F2F2"/>
<path d="M796.22 0H141.78C63.8008 0 0 63.8008 0 141.78V462.22C0 540.199 63.8008 604 141.78 604H349.202L346.525 591.398C346.525 591.398 339.64 546.971 346.525 512.333C348.748 501.466 350.274 490.467 351.092 479.405C351.953 466.916 353.995 454.536 357.189 442.432C357.371 441.733 357.575 441.041 357.765 440.344C356.086 439.888 355.315 439.523 355.705 439.292C356.781 438.657 357.372 436.711 357.667 434.242C359.501 417.897 362.998 401.782 368.104 386.147C361.147 390.515 356.529 390.978 353.505 389.286C342.879 386.384 347.29 362.486 347.29 362.486C347.29 362.486 353.894 310.796 356.087 292.08C357.348 281.322 373.507 275.226 387.811 271.916C389.318 268.683 390.403 265.426 389.714 262.009C389.668 261.778 389.601 261.556 389.54 261.331C387.721 257.292 384.024 253.968 382.637 249.785C382.022 248.659 381.589 247.443 381.354 246.182C380.125 239.01 386.831 232.814 388.765 225.917C386.792 224.011 385.32 221.65 384.477 219.04C381.53 212.997 382.967 205.743 392.429 200.142C394.318 199.024 396.319 198.037 398.353 197.091C399.097 196.609 399.907 196.238 400.758 195.988C407.528 192.925 414.333 189.962 418.385 184C419.428 182.464 420.343 180.683 422.031 179.876C422.827 179.536 423.678 179.345 424.543 179.314C437.588 178.312 449.4 189.499 462.383 187.896C466.317 187.41 470.332 185.757 474.107 186.947C476.588 187.729 478.523 189.634 480.191 191.605C484.728 197.021 488.014 203.373 489.814 210.206C491.613 217.039 491.882 224.185 490.601 231.134C488.955 239.687 484.952 248.502 487.836 256.731C489.956 262.778 495.631 267.685 495.671 274.081C495.704 279.344 491.968 283.544 488.359 287.639C488.828 288.119 489.285 288.612 489.731 289.118C498.552 299.168 496.885 307.746 495.641 311.18V311.182L491.105 354.956L487.28 384.323C487.28 384.323 486.334 396.375 477.426 399.018C474.83 400.219 471.431 400.535 466.962 399.175C464.063 398.293 461.619 397.411 459.545 396.553C461.505 402.813 464.879 415.593 464.331 427.997C463.566 445.316 465.861 446.822 465.861 446.822C465.717 447 465.554 447.161 465.374 447.303C474.461 467.379 474.544 487.977 465.096 508.568C454.386 531.911 465.861 586.128 465.861 586.128C465.861 586.128 466.678 594.585 467.045 604H631.333C628.72 579.077 625.581 554.127 624.186 551.338C621.887 546.74 624.806 470.993 625.896 444.682C625.412 444.56 624.939 444.435 624.493 444.307C623.716 444.084 623.018 443.852 622.373 443.615C622.34 444.953 622.482 446.291 622.794 447.593C623.761 449.85 621.442 451.508 617.501 452.64C619.793 463.826 622.624 484.641 613.046 488.673C603.193 492.822 602.996 467.622 603.537 454.486C602.294 454.532 601.048 454.556 599.817 454.556C587.98 454.556 603.298 317.391 602.602 308.339C601.906 299.288 608.172 262.385 608.172 262.385C608.172 262.385 610.261 254.726 616.527 253.334C622.794 251.941 652.733 234.534 652.733 234.534C654.417 232.169 656.546 230.154 659 228.602V227.572C659.781 226.844 660.611 226.172 661.485 225.56C661.12 219.477 660.297 211.628 659.697 206.325C656.331 202.896 654.058 198.546 653.164 193.825C651.881 192.824 650.663 191.742 649.518 190.586C646.643 187.29 644.993 183.102 644.848 178.73C644.72 174.388 645.349 170.057 646.705 165.931C647.06 164.559 647.602 163.244 648.318 162.022C649.303 160.605 650.538 159.38 651.963 158.408C652.386 158.095 652.823 157.801 653.258 157.505C654.181 155.712 655.535 154.175 657.197 153.034C660.751 150.7 665.324 150.891 669.574 150.997C669.637 150.998 669.702 150.998 669.766 150.998C670.555 150.872 671.346 150.767 672.14 150.684C672.604 150.592 673.031 150.366 673.369 150.035C673.707 149.704 673.942 149.281 674.043 148.819C674.619 149.372 675.194 149.924 675.769 150.477C676.632 150.464 677.495 150.479 678.357 150.521C678.739 149.647 679.187 148.805 679.699 148C680.014 148.899 680.329 149.799 680.645 150.698C681.511 150.79 682.374 150.907 683.232 151.056C683.909 150.518 684.586 149.98 685.262 149.443C685.413 149.323 685.951 151.085 686.223 151.69C686.689 151.81 687.154 151.937 687.614 152.079C688.333 152.047 689.132 151.912 689.576 151.919C692.026 151.836 694.45 152.44 696.573 153.664C698.428 155.013 699.95 156.769 701.021 158.797C703.756 163.125 705.455 168.026 705.985 173.118C707.314 174.96 708.252 177.055 708.739 179.273C709.889 186.262 703.246 192.103 701.93 199.063C701.228 202.776 702.029 206.889 700.138 210.16C699.31 211.478 698.225 212.615 696.948 213.504C696.194 214.068 695.406 214.586 694.591 215.057C694.635 219.267 695.118 223.461 696.032 227.572L696.928 231.007C698.321 232.011 699.823 233.172 701.472 234.534C701.472 234.534 720.968 242.89 727.931 247.067C734.052 250.74 740.707 251.188 742.7 255.972L743.249 256.119C743.249 256.119 750.211 333.405 750.908 346.634C751.604 359.863 759.959 441.327 758.567 444.808C758.051 446.097 754.768 447.575 750.803 448.751C753.117 459.326 756.852 482.323 746.73 486.585C736.469 490.905 736.68 463.392 737.292 450.828C735.923 450.705 735.026 450.347 734.893 449.682C734.78 449.117 734.417 446.56 733.893 442.662C733.025 442.797 732.126 442.936 731.168 443.082C730.976 443.111 730.774 443.141 730.578 443.17C739.406 470.938 719.855 544.582 716.094 558.997C714.129 566.529 712.01 585.153 710.099 604H796.22C874.199 604 938 540.199 938 462.22V141.78C938 63.8008 874.199 0 796.22 0Z" fill="#F2F2F2"/>
<path d="M210 255.451C262.467 255.451 305 216.746 305 169.001C305 121.256 262.467 82.5508 210 82.5508C157.533 82.5508 115 121.256 115 169.001C115 216.746 157.533 255.451 210 255.451Z" fill="#3F3D56"/>
<path d="M366.5 451.5C366.5 451.5 398.5 429.5 398.5 419.5C398.5 409.5 420.5 344.5 432.5 373.5C444.5 402.5 415.5 443.5 415.5 443.5C415.5 443.5 383.5 501.5 364.5 511.5C345.5 521.5 329.5 515.5 329.5 515.5V488.5L347.782 461.443C349.851 458.381 352.639 455.873 355.902 454.14C359.166 452.406 362.805 451.5 366.5 451.5Z" fill="#FFB9B9"/>
<path d="M275.543 298.336C275.543 298.336 323.5 313.5 328.5 320.5C333.5 327.5 335.5 315.5 349.5 361.5C363.5 407.5 367 452 367 452C367 452 332.5 463.5 336.5 508.5C340.5 553.5 330.5 602.5 330.5 602.5H318.016L290.5 517.5L323.5 388.5C323.5 388.5 276.587 309.172 275.543 298.336Z" fill="#575A89"/>
<path d="M259.5 256.5C292.637 256.5 319.5 229.637 319.5 196.5C319.5 163.363 292.637 136.5 259.5 136.5C226.363 136.5 199.5 163.363 199.5 196.5C199.5 229.637 226.363 256.5 259.5 256.5Z" fill="#FFB9B9"/>
<path d="M282.5 241.499C282.5 241.499 265.5 297.499 280.5 305.499C295.5 313.499 312.5 349.499 312.5 349.499L286.5 378.499H226.5L199.5 348.499L188.5 297.499L203.5 285.499C203.5 285.499 219.5 245.499 219.5 224.499C219.5 203.499 282.5 241.499 282.5 241.499Z" fill="#FFB9B9"/>
<path d="M287.5 303.499C287.5 303.499 275.5 300.499 282.5 312.499C289.5 324.499 296.5 346.499 271.5 347.499C246.5 348.499 221.5 335.499 213.5 308.499C205.5 281.499 202.5 283.499 199.5 284.499C196.5 285.499 164.5 318.499 164.5 318.499L175.5 380.499L179.5 602.499H325.5C325.5 602.499 331.5 538.499 321.5 523.499C311.5 508.499 330.5 470.499 330.5 470.499C330.5 470.499 347.5 444.499 334.5 394.499C321.5 344.499 292.5 303.499 287.5 303.499Z" fill="#D27D2D"/>
<path d="M206.5 284.5C206.5 284.5 191.5 277.5 178.5 289.5C165.5 301.5 136.5 311.5 136.5 317.5C136.5 323.5 161.5 494.5 144.5 524.5C127.5 554.5 109.5 602.5 109.5 602.5H192.913C192.913 602.5 206.5 552.5 220.5 525.5C234.5 498.5 233.5 422.5 229.5 399.5C225.5 376.5 206.5 284.5 206.5 284.5Z" fill="#575A89"/>
<path d="M118.5 549.5L123.37 602.5H177.417L172.5 536.5L118.5 549.5Z" fill="#FFB9B9"/>
<path d="M364.5 521.5L377.5 602.5H666.5L691.5 439.5L364.5 521.5Z" fill="#3F3D56"/>
<path d="M702.5 428.5L705.5 443.5L331.5 533.5V520.5L702.5 428.5Z" fill="#3F3D56"/>
<path d="M544.5 455.5L542.5 472.5L564.5 469.5L555.5 452.5L544.5 455.5Z" fill="#3F3D56"/>
<path d="M423.5 283.499C423.5 283.499 467.5 280.499 479.5 314.499C491.5 348.499 519.5 409.499 530.5 418.499C541.5 427.499 553.5 451.499 551.5 459.499" stroke="#3F3D56" stroke-width="5" stroke-miterlimit="10"/>
<path d="M430 283C430 287.694 425.008 291.5 417 291.5C408.992 291.5 405 287.694 405 283C405 278.306 408.992 274.5 417 274.5C425.008 274.5 430 278.306 430 283Z" fill="#D27D2D"/>
<path d="M356 439C356 439 363.5 407.5 349.5 361.5C335.5 315.5 333.5 327.5 328.5 320.5C323.5 313.5 275.544 298.336 275.544 298.336C275.887 301.897 281.183 312.853 288.139 325.959C286.887 321.235 284.989 316.706 282.5 312.5C275.5 300.5 287.5 303.5 287.5 303.5C292.5 303.5 321.5 344.5 334.5 394.5C347.5 444.5 330.5 470.5 330.5 470.5L356 439Z" fill="#575A89"/>
<path d="M276 298C276 298 281.92 320.458 286.96 323.729C292 327 321.89 358.054 321.89 358.054L318 333L302 309L297.744 305.912L276 298Z" fill="#575A89"/>
<path opacity="0.1" d="M143 367L144.394 315.5C144.394 315.5 111.5 329.5 108.5 389.5C105.5 449.5 113.5 562.5 124.5 563.5C135.5 564.5 187.5 552.5 187.5 552.5C187.5 552.5 195.5 407.5 192.5 388.5C189.5 369.5 143 367 143 367Z" fill="black"/>
<path d="M145.5 315.5H137.394C137.394 315.5 104.5 329.5 101.5 389.5C98.4998 449.5 106.5 562.5 117.5 563.5C128.5 564.5 180.5 552.5 180.5 552.5C180.5 552.5 188.5 407.5 185.5 388.5C182.5 369.5 145.5 315.5 145.5 315.5Z" fill="#575A89"/>
<path d="M188 250C222.242 250 250 218.884 250 180.5C250 142.116 222.242 111 188 111C153.758 111 126 142.116 126 180.5C126 218.884 153.758 250 188 250Z" fill="#3F3D56"/>
<path d="M232.5 237C239.404 237 245 228.717 245 218.5C245 208.283 239.404 200 232.5 200C225.596 200 220 208.283 220 218.5C220 228.717 225.596 237 232.5 237Z" fill="#FFB9B9"/>
<path d="M126 162C154.167 162 177 139.167 177 111C177 82.8335 154.167 60 126 60C97.8335 60 75 82.8335 75 111C75 139.167 97.8335 162 126 162Z" fill="#3F3D56"/>
<path d="M132.592 151.855C125.183 155.625 116.965 157.526 108.653 157.394C100.341 157.261 92.1878 155.099 84.9027 151.095C77.6177 147.091 71.4219 141.367 66.855 134.421C62.288 127.475 59.4883 119.518 58.6997 111.242C57.6106 118.386 58.0521 125.679 59.9949 132.639C61.9377 139.598 65.3375 146.066 69.9689 151.612C74.6003 157.159 80.3576 161.658 86.8592 164.811C93.3609 167.964 100.458 169.7 107.681 169.902C114.905 170.105 122.088 168.77 128.756 165.987C135.425 163.203 141.425 159.034 146.36 153.756C151.295 148.478 155.052 142.211 157.382 135.371C159.712 128.531 160.562 121.274 159.875 114.081C158.662 122.094 155.553 129.702 150.808 136.272C146.063 142.842 139.818 148.184 132.592 151.855Z" fill="#3F3D56"/>
<path d="M98.0209 119.429C92.8997 112.881 89.4569 105.18 87.9923 96.9969C86.5277 88.8141 87.0857 80.3973 89.6177 72.4794C92.1497 64.5615 96.5789 57.3826 102.52 51.5678C108.46 45.7531 115.733 41.4788 123.703 39.1172C116.483 39.4188 109.41 41.2514 102.953 44.4934C96.4948 47.7354 90.7997 52.3128 86.2448 57.9223C81.6898 63.5318 78.3791 70.0452 76.5318 77.0311C74.6846 84.0169 74.3431 91.3155 75.53 98.4433C76.7169 105.571 79.405 112.365 83.4163 118.375C87.4276 124.386 92.6704 129.475 98.7973 133.306C104.924 137.137 111.795 139.621 118.955 140.596C126.115 141.57 133.4 141.012 140.328 138.958C132.231 139.304 124.168 137.713 116.81 134.316C109.451 130.92 103.01 125.816 98.0209 119.429Z" fill="#3F3D56"/>
<path d="M263 176C282.882 176 299 164.359 299 150C299 135.641 282.882 124 263 124C243.118 124 227 135.641 227 150C227 164.359 243.118 176 263 176Z" fill="#3F3D56"/>
</g>
</g>
<defs>
<clipPath id="clip0_2422_1082">
<rect width="938" height="604" fill="white"/>
</clipPath>
</defs>
</svg>
