<svg width="700" height="500" viewBox="0 0 700 500" fill="none" xmlns="http://www.w3.org/2000/svg">
<g clip-path="url(#clip0_991_2951)">
<mask id="mask0_991_2951" style="mask-type:luminance" maskUnits="userSpaceOnUse" x="0" y="0" width="700" height="500">
<path d="M700 0H0V500H700V0Z" fill="white"/>
</mask>
<g mask="url(#mask0_991_2951)">
<path d="M642.514 227.816C642.514 227.816 579.824 110.35 484.925 65.3218C390.027 20.2933 275.445 30.0928 219.649 80.005C163.853 129.917 178.536 164.189 90.4474 253.267C2.35881 342.345 18.9891 458.821 163.863 477.42C308.738 496.018 310.695 459.8 432.077 467.631C553.458 475.462 653.24 485.251 677.712 415.75C702.184 346.25 642.514 227.816 642.514 227.816Z" fill="#FFFB18"/>
<path opacity="0.7" d="M642.514 227.816C642.514 227.816 579.824 110.35 484.925 65.3218C390.027 20.2933 275.445 30.0928 219.649 80.005C163.853 129.917 178.536 164.189 90.4474 253.267C2.35881 342.345 18.9891 458.821 163.863 477.42C308.738 496.018 310.695 459.8 432.077 467.631C553.458 475.462 653.24 485.251 677.712 415.75C702.184 346.25 642.514 227.816 642.514 227.816Z" fill="white"/>
<g opacity="0.3">
<path d="M677.521 271.492H591.4V350.505H677.521V271.492Z" stroke="black" stroke-linecap="round" stroke-linejoin="round"/>
<path d="M605.488 303.68H597.466V311.702H605.488V303.68Z" stroke="black" stroke-linecap="round" stroke-linejoin="round"/>
<path d="M616.48 303.68H608.457V311.702H616.48V303.68Z" stroke="black" stroke-linecap="round" stroke-linejoin="round"/>
<path d="M627.482 303.68H619.459V311.702H627.482V303.68Z" stroke="black" stroke-linecap="round" stroke-linejoin="round"/>
<path d="M638.472 303.68H630.449V311.702H638.472V303.68Z" stroke="black" stroke-linecap="round" stroke-linejoin="round"/>
<path d="M649.462 303.68H641.439V311.702H649.462V303.68Z" stroke="black" stroke-linecap="round" stroke-linejoin="round"/>
<path d="M660.464 303.68H652.441V311.702H660.464V303.68Z" stroke="black" stroke-linecap="round" stroke-linejoin="round"/>
<path d="M671.457 303.68H663.435V311.702H671.457V303.68Z" stroke="black" stroke-linecap="round" stroke-linejoin="round"/>
<path d="M605.488 317.031H597.466V325.054H605.488V317.031Z" stroke="black" stroke-linecap="round" stroke-linejoin="round"/>
<path d="M616.48 317.031H608.457V325.054H616.48V317.031Z" stroke="black" stroke-linecap="round" stroke-linejoin="round"/>
<path d="M627.482 317.031H619.459V325.054H627.482V317.031Z" stroke="black" stroke-linecap="round" stroke-linejoin="round"/>
<path d="M638.472 317.031H630.449V325.054H638.472V317.031Z" stroke="black" stroke-linecap="round" stroke-linejoin="round"/>
<path d="M649.462 317.031H641.439V325.054H649.462V317.031Z" stroke="black" stroke-linecap="round" stroke-linejoin="round"/>
<path d="M660.464 317.031H652.441V325.054H660.464V317.031Z" stroke="black" stroke-linecap="round" stroke-linejoin="round"/>
<path d="M671.457 317.031H663.435V325.054H671.457V317.031Z" stroke="black" stroke-linecap="round" stroke-linejoin="round"/>
<path d="M605.488 330.375H597.466V338.398H605.488V330.375Z" stroke="black" stroke-linecap="round" stroke-linejoin="round"/>
<path d="M616.48 330.375H608.457V338.398H616.48V330.375Z" stroke="black" stroke-linecap="round" stroke-linejoin="round"/>
<path d="M627.482 330.375H619.459V338.398H627.482V330.375Z" stroke="black" stroke-linecap="round" stroke-linejoin="round"/>
<path d="M638.472 330.375H630.449V338.398H638.472V330.375Z" stroke="black" stroke-linecap="round" stroke-linejoin="round"/>
<path d="M649.462 330.375H641.439V338.398H649.462V330.375Z" stroke="black" stroke-linecap="round" stroke-linejoin="round"/>
<path d="M660.464 330.375H652.441V338.398H660.464V330.375Z" stroke="black" stroke-linecap="round" stroke-linejoin="round"/>
<path d="M671.457 330.375H663.435V338.398H671.457V330.375Z" stroke="black" stroke-linecap="round" stroke-linejoin="round"/>
<path d="M611.414 261.598H606.158V275.345H611.414V261.598Z" fill="black"/>
<path d="M637.088 261.598H631.832V275.345H637.088V261.598Z" fill="black"/>
<path d="M662.762 261.598H657.506V275.345H662.762V261.598Z" fill="black"/>
<path d="M672.041 284.645H598.455V297.987H672.041V284.645Z" stroke="black" stroke-linecap="round" stroke-linejoin="round"/>
</g>
<g opacity="0.3">
<path d="M581.893 142.55C599.092 125.352 599.092 97.4681 581.893 80.2698C564.695 63.0715 536.811 63.0715 519.613 80.2698C502.415 97.4681 502.415 125.352 519.613 142.55C536.811 159.749 564.695 159.749 581.893 142.55Z" stroke="black" stroke-linecap="round" stroke-linejoin="round"/>
<path d="M577.168 137.826C591.757 123.237 591.757 99.5832 577.168 84.9944C562.579 70.4055 538.926 70.4055 524.337 84.9944C509.748 99.5832 509.748 123.237 524.337 137.826C538.926 152.414 562.579 152.414 577.168 137.826Z" stroke="black" stroke-linecap="round" stroke-linejoin="round"/>
<path d="M554.354 111.416C554.354 112.129 554.142 112.827 553.745 113.421C553.348 114.014 552.784 114.476 552.124 114.749C551.465 115.022 550.739 115.092 550.039 114.952C549.339 114.812 548.696 114.468 548.192 113.962C547.688 113.457 547.346 112.813 547.208 112.113C547.07 111.412 547.143 110.687 547.417 110.028C547.692 109.369 548.156 108.806 548.75 108.411C549.345 108.016 550.043 107.807 550.757 107.809C551.23 107.809 551.699 107.902 552.136 108.083C552.573 108.265 552.97 108.531 553.304 108.866C553.638 109.201 553.903 109.598 554.083 110.036C554.263 110.474 554.355 110.942 554.354 111.416Z" stroke="black" stroke-linecap="round" stroke-linejoin="round"/>
<path d="M548.043 114.234L536.732 124.013" stroke="black" stroke-linecap="round" stroke-linejoin="round"/>
<path d="M554.353 111.414H583.485" stroke="black" stroke-linecap="round" stroke-linejoin="round"/>
</g>
<g opacity="0.3">
<path d="M221.818 400.629H100.522V48.9023H221.818V400.629ZM348.041 48.9023H226.745V400.629H348.041V48.9023ZM474.274 48.9023H352.978V400.629H474.274V48.9023Z" stroke="black" stroke-linecap="round" stroke-linejoin="round"/>
<path d="M100.479 142.822C104.735 143.886 115.173 138.332 136.294 89.0577C142.185 74.9518 149.524 61.4947 158.191 48.9023" stroke="black" stroke-linecap="round" stroke-linejoin="round"/>
<path d="M352.938 247.613C360.097 256.679 367.918 267.553 376.493 280.885C400.601 318.263 419.986 358.483 434.206 400.627" stroke="black" stroke-linecap="round" stroke-linejoin="round"/>
<path d="M276.744 48.9023C271.498 69.8419 268.711 99.1339 276.414 135.725C290.15 201.022 308.43 193.809 348.053 241.55" stroke="black" stroke-linecap="round" stroke-linejoin="round"/>
<path d="M100.471 279.568C107.919 267.864 115.473 251.904 122.112 230.007C147.127 147.441 207.232 113.244 207.232 189.979C207.232 266.715 169.854 307.105 168.865 360.113C168.456 373.893 170.599 387.629 175.185 400.63" stroke="black" stroke-linecap="round" stroke-linejoin="round"/>
<path d="M297.12 400.628C284.65 343.938 281.671 283.854 298.099 278.374C315.261 272.661 332.03 350.918 340.872 400.628" stroke="black" stroke-linecap="round" stroke-linejoin="round"/>
<path d="M414.022 48.9023C386.762 105.167 341.755 206.704 370.653 209.119C393.678 211.035 439.334 159.111 474.276 114.253" stroke="black" stroke-linecap="round" stroke-linejoin="round"/>
<path d="M338.264 99.932C341.511 86.0264 332.869 72.1222 318.964 68.8761C305.058 65.6299 291.154 74.271 287.908 88.1766C284.662 102.082 293.303 115.986 307.208 119.232C321.114 122.478 335.018 113.837 338.264 99.932Z" stroke="black" stroke-linecap="round" stroke-linejoin="round"/>
<path d="M429.864 146.6C429.866 147.756 429.526 148.886 428.885 149.848C428.245 150.81 427.333 151.561 426.266 152.005C425.199 152.448 424.024 152.565 422.89 152.341C421.756 152.117 420.714 151.562 419.896 150.745C419.078 149.929 418.521 148.888 418.295 147.754C418.068 146.621 418.183 145.446 418.625 144.378C419.067 143.31 419.816 142.397 420.777 141.755C421.737 141.112 422.867 140.77 424.023 140.77C425.57 140.77 427.055 141.383 428.15 142.477C429.245 143.57 429.862 145.053 429.864 146.6Z" stroke="black" stroke-linecap="round" stroke-linejoin="round"/>
<path d="M140.882 301.72C146.176 301.72 150.468 297.428 150.468 292.134C150.468 286.839 146.176 282.547 140.882 282.547C135.587 282.547 131.295 286.839 131.295 292.134C131.295 297.428 135.587 301.72 140.882 301.72Z" stroke="black" stroke-linecap="round" stroke-linejoin="round"/>
<path d="M170.906 85.7275C174.361 85.7275 177.162 82.9264 177.162 79.4712C177.162 76.0159 174.361 73.2148 170.906 73.2148C167.45 73.2148 164.649 76.0159 164.649 79.4712C164.649 82.9264 167.45 85.7275 170.906 85.7275Z" stroke="black" stroke-linecap="round" stroke-linejoin="round"/>
<path d="M259.422 230.884C264.525 228.756 266.937 222.893 264.808 217.789C262.68 212.686 256.817 210.274 251.713 212.403C246.61 214.531 244.198 220.394 246.327 225.498C248.455 230.601 254.318 233.013 259.422 230.884Z" stroke="black" stroke-linecap="round" stroke-linejoin="round"/>
<path d="M428.62 310.071C441.289 310.071 451.559 299.801 451.559 287.131C451.559 274.462 441.289 264.191 428.62 264.191C415.95 264.191 405.68 274.462 405.68 287.131C405.68 299.801 415.95 310.071 428.62 310.071Z" stroke="black" stroke-linecap="round" stroke-linejoin="round"/>
</g>
<path d="M519.602 184.703H575.93C577.558 184.7 579.171 185.019 580.676 185.64C582.181 186.261 583.549 187.173 584.701 188.323C585.853 189.473 586.768 190.84 587.391 192.344C588.015 193.848 588.336 195.46 588.336 197.088V239.829C588.336 243.114 587.031 246.264 584.709 248.586C582.386 250.909 579.236 252.214 575.951 252.214H529.38L508.1 270.813L518.325 252.129C515.278 251.815 512.456 250.383 510.404 248.109C508.352 245.835 507.217 242.881 507.217 239.818V197.088C507.217 193.803 508.522 190.653 510.844 188.331C513.167 186.008 516.317 184.703 519.602 184.703Z" fill="white" stroke="#263238" stroke-linecap="round" stroke-linejoin="round"/>
<path d="M540.722 229.783V221.463C542.679 219.906 544.486 218.167 546.116 216.27C547.672 214.487 548.956 212.482 549.925 210.323C550.853 208.225 551.328 205.956 551.319 203.662C551.401 202.312 551.026 200.974 550.255 199.864C549.887 199.429 549.421 199.088 548.896 198.868C548.371 198.648 547.801 198.555 547.233 198.597C546.721 198.575 546.209 198.658 545.729 198.841C545.25 199.024 544.813 199.303 544.446 199.661C544.088 200.032 543.81 200.471 543.627 200.952C543.444 201.433 543.361 201.946 543.382 202.46C543.389 203.065 543.478 203.666 543.648 204.247C543.807 204.769 543.967 205.311 544.137 205.939L535.242 207.95C534.942 207.022 534.701 206.077 534.518 205.12C534.348 204.19 534.263 203.246 534.263 202.3C534.174 200.664 534.433 199.027 535.022 197.498C535.61 195.969 536.516 194.581 537.679 193.426C539.948 191.298 543.208 190.234 547.457 190.234C551.706 190.234 555.039 191.384 557.458 193.682C559.799 195.966 560.97 199.236 560.97 203.492C560.987 206.066 560.525 208.62 559.608 211.025C558.662 213.423 557.332 215.651 555.671 217.622C553.86 219.774 551.823 221.725 549.595 223.442V229.826L540.722 229.783ZM540.402 243.498V234.039H549.978V243.466L540.402 243.498Z" fill="#263238"/>
<path d="M247.536 102.039H171.045C167.76 102.039 164.61 103.344 162.288 105.667C159.965 107.989 158.66 111.139 158.66 114.424V157.165C158.66 160.45 159.965 163.6 162.288 165.922C164.61 168.245 167.76 169.55 171.045 169.55H237.769L259.049 188.149L248.802 169.486C251.849 169.168 254.67 167.733 256.721 165.458C258.772 163.182 259.909 160.228 259.91 157.165V114.424C259.91 111.141 258.607 107.993 256.287 105.67C253.966 103.348 250.819 102.042 247.536 102.039Z" fill="white" stroke="#263238" stroke-linecap="round" stroke-linejoin="round"/>
<path d="M194.134 137.214C194.134 136.261 193.851 135.329 193.322 134.537C192.792 133.744 192.039 133.126 191.159 132.761C190.278 132.397 189.309 132.301 188.374 132.487C187.439 132.673 186.58 133.132 185.906 133.806C185.232 134.48 184.773 135.339 184.587 136.274C184.401 137.209 184.496 138.178 184.861 139.059C185.226 139.94 185.844 140.692 186.636 141.222C187.429 141.752 188.361 142.034 189.314 142.034C190.592 142.034 191.818 141.527 192.722 140.623C193.626 139.719 194.134 138.493 194.134 137.214Z" fill="#263238" stroke="#263238" stroke-linecap="round" stroke-linejoin="round"/>
<path d="M214.116 137.214C214.116 136.261 213.834 135.329 213.304 134.537C212.774 133.744 212.022 133.126 211.141 132.761C210.26 132.397 209.291 132.301 208.356 132.487C207.421 132.673 206.562 133.132 205.888 133.806C205.214 134.48 204.755 135.339 204.569 136.274C204.383 137.209 204.479 138.178 204.843 139.059C205.208 139.94 205.826 140.692 206.619 141.222C207.411 141.752 208.343 142.034 209.296 142.034C210.575 142.034 211.801 141.527 212.705 140.623C213.609 139.719 214.116 138.493 214.116 137.214Z" fill="#263238" stroke="#263238" stroke-linecap="round" stroke-linejoin="round"/>
<path d="M234.087 137.214C234.087 136.261 233.804 135.329 233.275 134.537C232.745 133.744 231.992 133.126 231.112 132.761C230.231 132.397 229.262 132.301 228.327 132.487C227.392 132.673 226.533 133.132 225.859 133.806C225.185 134.48 224.726 135.339 224.54 136.274C224.354 137.209 224.449 138.178 224.814 139.059C225.179 139.94 225.797 140.692 226.589 141.222C227.382 141.752 228.314 142.034 229.267 142.034C230.546 142.034 231.771 141.527 232.675 140.623C233.579 139.719 234.087 138.493 234.087 137.214Z" fill="#263238" stroke="#263238" stroke-linecap="round" stroke-linejoin="round"/>
<path d="M35.877 273.684L53.1457 439.136" stroke="#263238" stroke-linecap="round" stroke-linejoin="round"/>
<path d="M52.7945 436.082L44.0059 426.836" stroke="#263238" stroke-linecap="round" stroke-linejoin="round"/>
<path d="M46.8985 429.816C46.8804 428.274 46.5321 426.753 45.8768 425.356C45.2216 423.959 44.2748 422.719 43.1 421.719C40.6528 419.527 27.7465 414.101 26.5229 418.644C25.1929 423.624 38.3971 433.338 46.8985 429.816Z" fill="#FFFB18" stroke="#263238" stroke-linecap="round" stroke-linejoin="round"/>
<path d="M46.8997 429.857L34.6211 422.207" stroke="#263238" stroke-linecap="round" stroke-linejoin="round"/>
<path d="M46.8239 378.614L38.1523 370.805" stroke="#263238" stroke-linecap="round" stroke-linejoin="round"/>
<path d="M41.0576 373.839C41.0369 372.294 40.6864 370.771 40.0295 369.373C39.3725 367.975 38.4244 366.733 37.2484 365.731C34.8012 363.539 21.8949 358.113 20.6713 362.656C19.3413 367.603 32.5456 377.307 41.0576 373.839Z" fill="#FFFB18" stroke="#263238" stroke-linecap="round" stroke-linejoin="round"/>
<path d="M41.0587 373.837L28.7695 366.176" stroke="#263238" stroke-linecap="round" stroke-linejoin="round"/>
<path d="M49.2398 403.033L40.5469 393.766" stroke="#263238" stroke-linecap="round" stroke-linejoin="round"/>
<path d="M43.4526 396.832C43.4345 395.289 43.0862 393.768 42.431 392.372C41.7757 390.975 40.8289 389.735 39.6541 388.735C37.1963 386.543 24.3006 381.117 23.077 385.66C21.7364 390.565 34.9512 400.269 43.4526 396.832Z" fill="#FFFB18" stroke="#263238" stroke-linecap="round" stroke-linejoin="round"/>
<path d="M43.4513 396.787L31.1621 389.137" stroke="#263238" stroke-linecap="round" stroke-linejoin="round"/>
<path d="M42.9633 342.385L34.2598 333.512" stroke="#263238" stroke-linecap="round" stroke-linejoin="round"/>
<path d="M37.1853 336.535C37.1673 334.992 36.8189 333.471 36.1637 332.075C35.5085 330.678 34.5616 329.438 33.3868 328.438C30.929 326.246 18.0333 320.82 16.7991 325.363C15.4478 330.311 28.6733 340.014 37.1853 336.535Z" fill="#FFFB18" stroke="#263238" stroke-linecap="round" stroke-linejoin="round"/>
<path d="M37.1642 336.533L24.875 328.883" stroke="#263238" stroke-linecap="round" stroke-linejoin="round"/>
<path d="M38.7698 302.496L30.3535 296.059" stroke="#263238" stroke-linecap="round" stroke-linejoin="round"/>
<path d="M33.2481 299.081C33.2309 297.536 32.8829 296.014 32.2277 294.615C31.5725 293.217 30.6252 291.975 29.4496 290.973C27.0024 288.781 14.0961 283.355 12.8725 287.898C11.5425 292.846 24.7468 302.549 33.2481 299.081Z" fill="#FFFB18" stroke="#263238" stroke-linecap="round" stroke-linejoin="round"/>
<path d="M33.2472 299.083L20.9688 291.422" stroke="#263238" stroke-linecap="round" stroke-linejoin="round"/>
<path d="M51.9434 423.335L59.2105 411.492" stroke="#263238" stroke-linecap="round" stroke-linejoin="round"/>
<path d="M56.9972 415.058C56.6957 413.543 56.722 411.982 57.0744 410.479C57.4268 408.976 58.097 407.566 59.0401 406.343C60.9872 403.694 72.489 395.703 74.6277 399.959C76.9472 404.471 66.0306 416.696 56.9972 415.058Z" fill="#FFFB18" stroke="#263238" stroke-linecap="round" stroke-linejoin="round"/>
<path d="M56.9961 415.057L65.6358 406.949" stroke="#263238" stroke-linecap="round" stroke-linejoin="round"/>
<path d="M45.6445 362.92L52.901 351.078" stroke="#263238" stroke-linecap="round" stroke-linejoin="round"/>
<path d="M50.6866 354.631C50.3852 353.117 50.4115 351.555 50.7639 350.052C51.1162 348.549 51.7865 347.139 52.7295 345.917C54.6766 343.278 63.6781 336.638 65.8167 340.831C68.1362 345.395 59.7306 356.28 50.6866 354.631Z" fill="#FFFB18" stroke="#263238" stroke-linecap="round" stroke-linejoin="round"/>
<path d="M50.6875 354.632L61.7531 344.066" stroke="#263238" stroke-linecap="round" stroke-linejoin="round"/>
<path d="M42.8672 336.374L50.1343 324.531" stroke="#263238" stroke-linecap="round" stroke-linejoin="round"/>
<path d="M47.9213 328.085C47.6183 326.572 47.6429 325.011 47.9934 323.508C48.344 322.005 49.0123 320.594 49.9535 319.371C51.9006 316.721 63.4025 308.731 65.5411 312.987C67.8713 317.498 56.9546 329.723 47.9213 328.085Z" fill="#FFFB18" stroke="#263238" stroke-linecap="round" stroke-linejoin="round"/>
<path d="M47.9199 328.084L58.9749 317.508" stroke="#263238" stroke-linecap="round" stroke-linejoin="round"/>
<path d="M38.8027 297.444L46.0699 285.602" stroke="#263238" stroke-linecap="round" stroke-linejoin="round"/>
<path d="M43.8564 289.156C43.5551 287.643 43.5815 286.084 43.9339 284.583C44.2863 283.081 44.9565 281.673 45.8993 280.452C47.8464 277.803 59.3482 269.812 61.4868 274.015C63.7851 278.58 52.8897 290.805 43.8564 289.156Z" fill="#FFFB18" stroke="#263238" stroke-linecap="round" stroke-linejoin="round"/>
<path d="M43.8555 289.155L54.9104 278.59" stroke="#263238" stroke-linecap="round" stroke-linejoin="round"/>
<path d="M35.7059 272.556C35.4028 271.041 35.4284 269.478 35.7808 267.972C36.1332 266.467 36.8043 265.055 37.7488 263.832C39.6959 261.182 51.1978 253.192 53.3364 257.448C55.6559 261.98 44.7393 274.206 35.7059 272.556Z" fill="#FFFB18" stroke="#263238" stroke-linecap="round" stroke-linejoin="round"/>
<path d="M35.7051 272.554L46.76 261.988" stroke="#263238" stroke-linecap="round" stroke-linejoin="round"/>
<path d="M36.3446 273.014C34.8075 273.156 33.258 272.966 31.8006 272.458C30.3432 271.949 29.0118 271.134 27.8964 270.067C25.4599 267.854 18.7354 255.575 23.1297 253.894C27.9071 252.053 38.9195 264.194 36.3446 273.014Z" fill="#FFFB18" stroke="#263238" stroke-linecap="round" stroke-linejoin="round"/>
<path d="M36.3447 273.015L26.9922 260.906" stroke="#263238" stroke-linecap="round" stroke-linejoin="round"/>
<path d="M67.4336 219.27V439.571" stroke="#263238" stroke-linecap="round" stroke-linejoin="round"/>
<path d="M91.4482 301.484L77.0098 438.879" stroke="#263238" stroke-linecap="round" stroke-linejoin="round"/>
<path d="M80.8411 404.481L73.6484 398.48" stroke="#263238" stroke-linecap="round" stroke-linejoin="round"/>
<path d="M75.8925 400.557C76.1905 399.042 76.1614 397.48 75.8072 395.978C75.4531 394.475 74.782 393.065 73.839 391.842C71.8919 389.204 60.3794 381.202 58.2514 385.458C55.9319 389.991 66.8485 402.206 75.8925 400.557Z" fill="#FFFB18" stroke="#263238" stroke-linecap="round" stroke-linejoin="round"/>
<path d="M75.8938 400.554L65.4453 390.531" stroke="#263238" stroke-linecap="round" stroke-linejoin="round"/>
<path d="M78.1586 429.856L71.2852 419.961" stroke="#263238" stroke-linecap="round" stroke-linejoin="round"/>
<path d="M73.5097 423.517C73.8076 422.002 73.7786 420.441 73.4244 418.938C73.0703 417.436 72.3992 416.026 71.4562 414.803C69.5091 412.165 57.9966 404.163 55.8686 408.419C53.5491 412.952 64.4657 425.167 73.5097 423.517Z" fill="#FFFB18" stroke="#263238" stroke-linecap="round" stroke-linejoin="round"/>
<path d="M73.509 423.515L63.0605 413.492" stroke="#263238" stroke-linecap="round" stroke-linejoin="round"/>
<path d="M84.4802 367.697L77.543 359.695" stroke="#263238" stroke-linecap="round" stroke-linejoin="round"/>
<path d="M79.7452 363.261C80.0432 361.746 80.0141 360.185 79.6599 358.682C79.3058 357.179 78.6347 355.769 77.6917 354.547C75.7446 351.897 64.2321 343.907 62.0935 348.163C59.7952 352.685 70.7225 364.91 79.7452 363.261Z" fill="#FFFB18" stroke="#263238" stroke-linecap="round" stroke-linejoin="round"/>
<path d="M79.7668 363.261L69.3184 353.238" stroke="#263238" stroke-linecap="round" stroke-linejoin="round"/>
<path d="M88.1301 332.641L81.4375 322.246" stroke="#263238" stroke-linecap="round" stroke-linejoin="round"/>
<path d="M83.6504 325.8C83.9483 324.285 83.9192 322.724 83.565 321.221C83.2109 319.718 82.5399 318.308 81.5968 317.086C79.6497 314.436 68.1372 306.446 66.0092 310.702C63.6897 315.224 74.6064 327.449 83.6504 325.8Z" fill="#FFFB18" stroke="#263238" stroke-linecap="round" stroke-linejoin="round"/>
<path d="M83.6497 325.796L73.2012 315.773" stroke="#263238" stroke-linecap="round" stroke-linejoin="round"/>
<path d="M82.6289 390.821L92.173 380.734" stroke="#263238" stroke-linecap="round" stroke-linejoin="round"/>
<path d="M89.3203 383.753C89.3376 382.209 89.6855 380.686 90.3407 379.288C90.9959 377.889 91.9432 376.647 93.1188 375.646C95.566 373.454 108.472 368.017 109.696 372.56C110.973 377.508 97.8323 387.254 89.3203 383.753Z" fill="#FFFB18" stroke="#263238" stroke-linecap="round" stroke-linejoin="round"/>
<path d="M89.2676 383.753L102.27 375.688" stroke="#263238" stroke-linecap="round" stroke-linejoin="round"/>
<path d="M85.3848 364.273L94.9288 354.176" stroke="#263238" stroke-linecap="round" stroke-linejoin="round"/>
<path d="M92.0234 357.196C92.0415 355.653 92.3899 354.132 93.0451 352.736C93.7003 351.339 94.6472 350.099 95.8219 349.099C98.2691 346.907 111.175 341.47 112.399 346.013C113.729 350.95 100.535 360.654 92.0234 357.196Z" fill="#FFFB18" stroke="#263238" stroke-linecap="round" stroke-linejoin="round"/>
<path d="M92.0234 357.198L105.026 349.133" stroke="#263238" stroke-linecap="round" stroke-linejoin="round"/>
<path d="M89.3105 323.35L98.961 315.242" stroke="#263238" stroke-linecap="round" stroke-linejoin="round"/>
<path d="M96.0664 318.277C96.0836 316.733 96.4316 315.21 97.0868 313.811C97.7421 312.413 98.6893 311.171 99.8649 310.169C102.312 307.977 115.208 302.54 116.442 307.084C117.772 312.031 104.568 321.745 96.0664 318.277Z" fill="#FFFB18" stroke="#263238" stroke-linecap="round" stroke-linejoin="round"/>
<path d="M96.0664 318.275L109.068 310.199" stroke="#263238" stroke-linecap="round" stroke-linejoin="round"/>
<path d="M91.502 300.346C91.5199 298.802 91.8681 297.28 92.5233 295.881C93.1785 294.483 94.1254 293.241 95.3004 292.239C97.7476 290.047 110.654 284.62 111.878 289.164C113.208 294.101 100.014 303.815 91.502 300.346Z" fill="#FFFB18" stroke="#263238" stroke-linecap="round" stroke-linejoin="round"/>
<path d="M91.502 300.346L104.504 292.281" stroke="#263238" stroke-linecap="round" stroke-linejoin="round"/>
<path d="M92.0349 300.924C90.5028 300.744 89.0268 300.239 87.7056 299.443C86.3844 298.646 85.2486 297.577 84.3741 296.306C82.4589 293.635 78.4051 280.24 83.0548 279.495C88.1088 278.729 96.376 292.827 92.0349 300.924Z" fill="#FFFB18" stroke="#263238" stroke-linecap="round" stroke-linejoin="round"/>
<path d="M92.0337 300.92L85.373 287.152" stroke="#263238" stroke-linecap="round" stroke-linejoin="round"/>
<path d="M67.093 435.719L59.1875 425.164" stroke="#263238" stroke-linecap="round" stroke-linejoin="round"/>
<path d="M61.7634 428.474C61.9052 426.937 61.7166 425.386 61.2101 423.927C60.7036 422.468 59.891 421.135 58.8268 420.016C56.6136 417.59 44.3457 410.844 42.654 415.238C40.8132 420.016 52.9428 431.049 61.7634 428.474Z" fill="#FFFB18" stroke="#263238" stroke-linecap="round" stroke-linejoin="round"/>
<path d="M61.7633 428.473L50.3359 419.578" stroke="#263238" stroke-linecap="round" stroke-linejoin="round"/>
<path d="M67.3697 384.795L59.1875 377.188" stroke="#263238" stroke-linecap="round" stroke-linejoin="round"/>
<path d="M61.7634 380.489C61.9044 378.952 61.7153 377.404 61.2088 375.947C60.7023 374.49 59.8901 373.158 58.8268 372.04C56.6136 369.604 44.3457 362.869 42.654 367.263C40.8132 372.04 52.9428 383.063 61.7634 380.489Z" fill="#FFFB18" stroke="#263238" stroke-linecap="round" stroke-linejoin="round"/>
<path d="M61.7633 380.486L50.3359 371.602" stroke="#263238" stroke-linecap="round" stroke-linejoin="round"/>
<path d="M67.6463 331.885L59.1875 320.852" stroke="#263238" stroke-linecap="round" stroke-linejoin="round"/>
<path d="M61.7634 324.16C61.9044 322.624 61.7153 321.076 61.2088 319.619C60.7023 318.162 59.8901 316.83 58.8268 315.712C56.6136 313.276 44.3457 306.541 42.654 310.935C40.8132 315.712 52.9428 326.735 61.7634 324.16Z" fill="#FFFB18" stroke="#263238" stroke-linecap="round" stroke-linejoin="round"/>
<path d="M61.7633 324.158L50.3359 315.273" stroke="#263238" stroke-linecap="round" stroke-linejoin="round"/>
<path d="M67.093 290.474L59.1875 283.355" stroke="#263238" stroke-linecap="round" stroke-linejoin="round"/>
<path d="M61.7634 286.664C61.9051 285.128 61.7163 283.579 61.2098 282.122C60.7032 280.665 59.8907 279.333 58.8268 278.216C56.6136 275.78 44.3457 269.044 42.654 273.439C40.8132 278.216 52.9428 289.239 61.7634 286.664Z" fill="#FFFB18" stroke="#263238" stroke-linecap="round" stroke-linejoin="round"/>
<path d="M61.7633 286.666L50.3359 277.781" stroke="#263238" stroke-linecap="round" stroke-linejoin="round"/>
<path d="M67.5511 252.958L59.3477 246.957" stroke="#263238" stroke-linecap="round" stroke-linejoin="round"/>
<path d="M61.7634 249C61.9044 247.464 61.7153 245.916 61.2088 244.459C60.7023 243.001 59.8901 241.67 58.8268 240.552C56.6136 238.115 44.3457 231.38 42.654 235.775C40.8132 240.552 52.9428 251.575 61.7634 249Z" fill="#FFFB18" stroke="#263238" stroke-linecap="round" stroke-linejoin="round"/>
<path d="M61.7633 248.998L50.3359 240.113" stroke="#263238" stroke-linecap="round" stroke-linejoin="round"/>
<path d="M67.4551 374.531L75.9032 363.508" stroke="#263238" stroke-linecap="round" stroke-linejoin="round"/>
<path d="M73.3601 366.814C73.2185 365.277 73.4072 363.729 73.9138 362.272C74.4203 360.814 75.2328 359.482 76.2968 358.365C78.5099 355.929 90.7778 349.194 92.4696 353.577C94.2784 358.365 82.1594 369.388 73.3601 366.814Z" fill="#FFFB18" stroke="#263238" stroke-linecap="round" stroke-linejoin="round"/>
<path d="M73.3398 366.816L85.4375 357.453" stroke="#263238" stroke-linecap="round" stroke-linejoin="round"/>
<path d="M67.4551 336.874L75.9032 325.84" stroke="#263238" stroke-linecap="round" stroke-linejoin="round"/>
<path d="M73.3617 329.149C73.2207 327.613 73.4098 326.064 73.9163 324.607C74.4228 323.15 75.2349 321.818 76.2983 320.701C78.5114 318.264 90.7794 311.529 92.4711 315.923C94.2799 320.7 82.161 331.724 73.3617 329.149Z" fill="#FFFB18" stroke="#263238" stroke-linecap="round" stroke-linejoin="round"/>
<path d="M73.3398 329.148L85.4375 319.785" stroke="#263238" stroke-linecap="round" stroke-linejoin="round"/>
<path d="M67.4551 287.089L75.9032 276.066" stroke="#263238" stroke-linecap="round" stroke-linejoin="round"/>
<path d="M73.3602 279.377C73.2184 277.839 73.4071 276.289 73.9136 274.83C74.42 273.371 75.2327 272.037 76.2969 270.918C78.51 268.492 90.7779 261.746 92.4697 266.141C94.2785 270.918 82.1595 281.92 73.3602 279.377Z" fill="#FFFB18" stroke="#263238" stroke-linecap="round" stroke-linejoin="round"/>
<path d="M73.3398 279.378L85.4375 270.004" stroke="#263238" stroke-linecap="round" stroke-linejoin="round"/>
<path d="M67.8184 244.126L76.1069 237.668" stroke="#263238" stroke-linecap="round" stroke-linejoin="round"/>
<path d="M73.3617 240.231C73.2207 238.695 73.4098 237.146 73.9163 235.689C74.4228 234.232 75.2349 232.9 76.2983 231.783C78.5114 229.346 90.7794 222.611 92.4711 227.005C94.2799 231.783 82.161 242.806 73.3617 240.231Z" fill="#FFFB18" stroke="#263238" stroke-linecap="round" stroke-linejoin="round"/>
<path d="M73.3398 240.23L85.4375 230.867" stroke="#263238" stroke-linecap="round" stroke-linejoin="round"/>
<path d="M66.9768 222.879C66.8358 221.342 67.0259 219.793 67.5344 218.335C68.0428 216.878 68.8576 215.547 69.9241 214.431C72.1372 211.994 84.4051 205.259 86.0969 209.654C87.895 214.431 75.7654 225.454 66.9768 222.879Z" fill="#FFFB18" stroke="#263238" stroke-linecap="round" stroke-linejoin="round"/>
<path d="M66.9453 222.879L79.0536 213.516" stroke="#263238" stroke-linecap="round" stroke-linejoin="round"/>
<path d="M67.5411 223.399C65.998 223.377 64.4773 223.026 63.0809 222.369C61.6844 221.713 60.4445 220.765 59.4441 219.59C57.2523 217.132 51.8471 204.226 56.3904 203.002C61.3274 201.683 71.0204 214.887 67.5411 223.399Z" fill="#FFFB18" stroke="#263238" stroke-linecap="round" stroke-linejoin="round"/>
<path d="M67.5399 223.399L59.4961 210.387" stroke="#263238" stroke-linecap="round" stroke-linejoin="round"/>
<path d="M361.854 439.573L345.373 372.828L218.065 373.733C211.415 384.936 197.211 422.879 191.082 439.573H361.854Z" fill="#263238" stroke="#263238" stroke-linecap="round" stroke-linejoin="round"/>
<path d="M443.857 339.652L453.603 341.323C453.603 341.323 473.649 339.929 475.319 339.929C476.99 339.929 488.971 349.675 488.971 349.675L468.638 349.399C468.638 349.399 454.167 353.569 449.156 353.569C444.144 353.569 438.016 347.728 438.016 347.728L443.857 339.652Z" fill="white" stroke="#263238" stroke-linecap="round" stroke-linejoin="round"/>
<path d="M447.761 346.055C447.761 346.055 465.849 346.609 467.807 346.332C469.765 346.055 473.936 343.544 473.936 346.055C473.936 348.566 471.148 347.726 468.616 349.396C467.132 350.392 465.549 351.23 463.892 351.897C463.892 351.897 459.987 353.014 456.646 353.567C453.305 354.12 452.475 353.844 449.134 353.567C447.14 353.405 445.22 352.735 443.559 351.62" fill="white"/>
<path d="M447.761 346.055C447.761 346.055 465.849 346.609 467.807 346.332C469.765 346.055 473.936 343.544 473.936 346.055C473.936 348.566 471.148 347.726 468.616 349.396C467.132 350.392 465.549 351.23 463.892 351.897C463.892 351.897 459.987 353.014 456.646 353.567C453.305 354.12 452.475 353.844 449.134 353.567C447.14 353.405 445.22 352.735 443.559 351.62" stroke="#263238" stroke-linecap="round" stroke-linejoin="round"/>
<path d="M397.582 280.974L383.75 252.331C383.75 252.331 384.335 220.209 383.75 215.538C383.165 210.867 382.59 206.483 373.535 203.834C364.481 201.184 311.036 205.579 311.036 205.579C311.036 205.579 296.8 206.983 284.202 209.207C271.604 211.431 243.77 211.59 242.344 215.974C240.919 220.358 234.364 320.246 234.364 320.246L208.232 379.043C208.232 379.043 232.704 399.195 283.574 396.269C334.444 393.343 352.234 377.681 352.234 377.681L337.923 326.609C337.923 326.609 361.576 305.584 362.161 299.158C362.747 292.731 363.034 287.762 363.034 287.762C363.034 287.762 377.643 310.255 380.558 312.011C383.473 313.766 438.546 352.358 438.546 352.358L446.143 338.919L399.55 285.134L397.582 281.07" fill="#858585"/>
<path d="M397.582 280.974L383.75 252.331C383.75 252.331 384.335 220.209 383.75 215.538C383.165 210.867 382.59 206.483 373.535 203.834C364.481 201.184 311.036 205.579 311.036 205.579C311.036 205.579 296.8 206.983 284.202 209.207C271.604 211.431 243.77 211.59 242.344 215.974C240.919 220.358 234.364 320.246 234.364 320.246L208.232 379.043C208.232 379.043 232.704 399.195 283.574 396.269C334.444 393.343 352.234 377.681 352.234 377.681L337.923 326.609C337.923 326.609 361.576 305.584 362.161 299.158C362.747 292.731 363.034 287.762 363.034 287.762C363.034 287.762 377.643 310.255 380.558 312.011C383.473 313.766 438.546 352.358 438.546 352.358L446.143 338.919L399.55 285.134L397.582 281.07" stroke="#263238" stroke-linecap="round" stroke-linejoin="round"/>
<path d="M363.035 287.666L367.972 240.68" stroke="#263238" stroke-linecap="round" stroke-linejoin="round"/>
<path d="M366.748 255.937C366.748 255.937 375.909 247.702 379.569 237.328" stroke="#263238" stroke-linecap="round" stroke-linejoin="round"/>
<path d="M375.834 258.448C377.327 258.051 378.781 257.517 380.175 256.852" stroke="#263238" stroke-linecap="round" stroke-linejoin="round"/>
<path d="M365.834 260.819C365.834 260.819 369.026 260.202 372.484 259.34" stroke="#263238" stroke-linecap="round" stroke-linejoin="round"/>
<path d="M299.077 204.439L288.565 242.115L299.96 251.691L287.395 263.959C287.395 263.959 292.065 282.356 298.79 296.666C305.514 310.977 309.887 317.457 309.887 317.457C309.887 317.457 337.051 304.604 344.053 293.219C351.054 281.834 360.406 264.012 360.406 264.012L352.235 255.841L364.205 249.457C364.205 249.457 360.268 232.603 357.821 222.006C356.426 215.827 354.282 209.842 351.437 204.184L299.077 204.439Z" fill="#FFFB18" stroke="#263238" stroke-linecap="round" stroke-linejoin="round"/>
<path d="M307.845 209.312C307.845 209.312 307.59 242.957 306.59 254.768C305.59 266.578 306.59 284.145 308.101 291.678C309.612 299.211 312.623 310.52 312.623 310.52C312.623 310.52 333.211 293.689 335.978 286.656C338.744 279.623 343.755 251.756 343.755 251.756L348.277 219.602L307.845 209.312Z" fill="white" stroke="#263238" stroke-linecap="round" stroke-linejoin="round"/>
<path d="M308.846 203.277L306.59 250.498L326.678 237.432L343.511 256.02L347.777 217.343L308.846 203.277Z" fill="white" stroke="#263238" stroke-linecap="round" stroke-linejoin="round"/>
<path d="M316.133 219.355L324.464 257.521L339.786 226.389C339.786 226.389 321.634 225.665 316.133 219.355Z" fill="white" stroke="#263238" stroke-linecap="round" stroke-linejoin="round"/>
<path d="M299.3 180.286C296.671 176.147 294.318 171.839 292.257 167.39C289.575 161.314 290.065 158.878 292.735 152.558C295.406 146.238 306.355 128.001 313.654 124.83C317.89 122.956 322.411 121.806 327.028 121.425C327.028 121.425 354.022 120.702 366.396 133.831C378.77 146.961 379.036 169.337 376.121 175.178C373.978 179.507 370.223 182.823 365.662 184.414C363.236 185.148 361.31 185.829 361.31 185.829C361.31 185.829 358.374 185.829 356.426 185.829C354.479 185.829 344.265 179.998 335.263 172.455C331.102 169.126 327.124 165.574 323.347 161.815C323.347 161.815 312.888 169.348 309.249 172.752C305.61 176.157 304.62 178.349 304.62 178.349L303.205 183.829L299.3 180.286Z" fill="#263238" stroke="#263238" stroke-linecap="round" stroke-linejoin="round"/>
<path d="M299.066 185.148C299.066 185.148 290.065 183.69 284.958 188.553C279.85 193.415 279.361 205.577 284.223 209.226C289.086 212.876 300.184 216.11 305.386 214.546C310.589 212.982 312.196 207.971 312.196 202.842C312.196 197.714 307.089 187.521 306.11 185.584C305.131 183.648 299.066 185.148 299.066 185.148Z" fill="#263238" stroke="#263238" stroke-linecap="round" stroke-linejoin="round"/>
<path d="M303.238 183.82C303.238 183.82 298.876 176.765 295.514 182.756C292.151 188.746 297.195 194.513 300.834 196.524C302.608 197.592 304.535 198.385 306.547 198.875L303.238 183.82Z" fill="white" stroke="#263238" stroke-linecap="round" stroke-linejoin="round"/>
<path d="M361.343 185.831C361.343 185.831 367.727 182.139 368.397 187.512C369.067 192.885 364.364 198.258 362.013 199.939C359.662 201.62 357.98 202.961 357.98 202.961L361.343 185.831Z" fill="white" stroke="#263238" stroke-linecap="round" stroke-linejoin="round"/>
<path d="M302.568 174.073C302.568 174.073 306.601 206.376 310.633 213.037C314.666 219.698 322.061 231.508 331.467 231.508C340.872 231.508 351.278 221.102 355.311 211.356C359.343 201.61 361.354 185.82 361.354 185.82C361.354 185.82 345.565 179.436 333.137 166.668C320.71 153.9 323.742 152.219 323.742 152.219C323.742 152.219 309.282 171.052 302.568 174.073Z" fill="white" stroke="#263238" stroke-linecap="round" stroke-linejoin="round"/>
<path d="M327.998 203.629C327.998 203.629 334.084 208.491 339.436 204.118" stroke="#263238" stroke-linecap="round" stroke-linejoin="round"/>
<path d="M324.357 210.682C324.357 210.682 332.625 218.705 343.318 210.438" stroke="#263238" stroke-linecap="round" stroke-linejoin="round"/>
<path d="M322.921 187.744C322.829 188.208 322.606 188.636 322.28 188.979C321.953 189.322 321.536 189.565 321.077 189.68C320.618 189.795 320.135 189.777 319.686 189.629C319.236 189.481 318.838 189.208 318.538 188.842C318.237 188.477 318.046 188.033 317.988 187.563C317.929 187.094 318.005 186.617 318.207 186.189C318.409 185.761 318.728 185.398 319.127 185.144C319.527 184.89 319.99 184.755 320.463 184.754C321.183 184.832 321.843 185.189 322.302 185.747C322.762 186.306 322.984 187.023 322.921 187.744Z" fill="#263238"/>
<path d="M347.98 189.275C347.889 189.742 347.667 190.174 347.341 190.52C347.014 190.866 346.595 191.112 346.134 191.23C345.673 191.347 345.188 191.331 344.735 191.183C344.283 191.035 343.882 190.762 343.579 190.395C343.276 190.028 343.083 189.582 343.024 189.11C342.964 188.638 343.04 188.158 343.243 187.728C343.445 187.297 343.766 186.933 344.168 186.677C344.569 186.422 345.035 186.286 345.511 186.285C346.232 186.363 346.893 186.719 347.354 187.278C347.815 187.837 348.04 188.553 347.98 189.275Z" fill="#263238"/>
<path d="M314.889 178.83C314.889 178.83 319.506 175.904 327.05 178.34" stroke="#263238" stroke-linecap="round" stroke-linejoin="round"/>
<path d="M341.861 180.04C341.861 180.04 345.266 176.635 355.97 183.69" stroke="#263238" stroke-linecap="round" stroke-linejoin="round"/>
<path d="M328.454 181.396L315.13 180.684C312.707 180.554 310.637 182.414 310.508 184.837L310.224 190.15C310.094 192.573 311.954 194.643 314.377 194.772L327.701 195.485C330.124 195.614 332.194 193.755 332.323 191.331L332.607 186.019C332.737 183.595 330.877 181.526 328.454 181.396Z" stroke="#263238" stroke-linecap="round" stroke-linejoin="round"/>
<path d="M356.252 181.911L342.91 181.244C340.483 181.123 338.417 182.992 338.296 185.419L338.03 190.739C337.909 193.166 339.778 195.231 342.205 195.353L355.547 196.02C357.974 196.141 360.04 194.272 360.161 191.845L360.427 186.525C360.548 184.098 358.679 182.033 356.252 181.911Z" stroke="#263238" stroke-width="1.00125" stroke-linecap="round" stroke-linejoin="round"/>
<path d="M332.584 184.84L337.415 185.159" stroke="#263238" stroke-linecap="round" stroke-linejoin="round"/>
<path d="M310.526 184.691L302.939 182.371" stroke="#263238" stroke-linecap="round" stroke-linejoin="round"/>
<path d="M359.162 187.467L361.343 185.828" stroke="#263238" stroke-linecap="round" stroke-linejoin="round"/>
<path d="M194.253 274.013L191.337 265.501C191.337 265.501 188.997 257.329 186.369 253.797C183.741 250.264 178.782 249.126 176.729 246.498C174.675 243.87 172.058 236.571 170.345 234.528C168.632 232.485 165.089 234.23 165.961 238.901C166.834 243.572 168.876 245.04 169.76 246.796C170.643 248.551 172.675 253.18 172.675 253.18C172.675 253.18 153.693 249.988 152.523 249.679C151.352 249.37 147.852 245.593 146.979 243.295C146.107 240.997 146.394 231.591 142.883 234.538C139.372 237.486 141.425 243.593 142.01 245.051C142.596 246.508 142.01 256.755 143.468 261.989C144.926 267.224 149.852 272.502 157.194 276.002C164.535 279.503 178.814 280.684 178.814 280.684L184.358 286.227L194.253 274.013Z" fill="white" stroke="#263238" stroke-linecap="round" stroke-linejoin="round"/>
<path d="M139.935 259.701C139.935 259.701 136.137 252.87 136.137 247.869C136.137 242.868 136.477 238.208 139.073 239.421C141.67 240.634 141.201 240.485 141.936 245.113C142.539 248.667 143.545 252.141 144.936 255.466C145.287 255.988 148.043 262.914 145.628 263.063C143.212 263.212 139.935 259.701 139.935 259.701Z" fill="white" stroke="#263238" stroke-linecap="round" stroke-linejoin="round"/>
<path d="M147.841 259.704C147.841 259.704 142.585 244.808 139.957 247.436C137.329 250.064 137.616 253.277 139.957 259.704C142.297 266.13 147.256 271.099 151.341 271.684L155.438 272.27L147.841 259.704Z" fill="white" stroke="#263238" stroke-linecap="round" stroke-linejoin="round"/>
<path d="M179.942 271.097C179.942 271.097 173.558 265.841 169.43 265.841C165.302 265.841 155.704 267.298 155.704 267.298C155.704 267.298 148.991 244.806 146.948 248.604C144.905 252.402 145.479 256.201 147.533 262.042C149.586 267.884 152.491 273.14 157.109 276.055C161.727 278.971 178.729 280.737 178.729 280.737" fill="white"/>
<path d="M179.942 271.097C179.942 271.097 173.558 265.841 169.43 265.841C165.302 265.841 155.704 267.298 155.704 267.298C155.704 267.298 148.991 244.806 146.948 248.604C144.905 252.402 145.479 256.201 147.533 262.042C149.586 267.884 152.491 273.14 157.109 276.055C161.727 278.971 178.729 280.737 178.729 280.737" stroke="#263238" stroke-linecap="round" stroke-linejoin="round"/>
<path d="M200.977 278.111L194.253 271.387L179.367 285.697L186.666 291.539L200.977 278.111Z" fill="white" stroke="#263238" stroke-linecap="round" stroke-linejoin="round"/>
<path d="M268.54 211.09C268.54 211.09 247.697 211.813 242.738 214.144C237.78 216.474 237.184 219.985 236.897 221.453C236.61 222.922 227.842 300.891 227.842 300.891L199.221 273.728L180.824 291.496C180.824 291.496 206.233 324.789 212.074 333.844C217.915 342.898 223.171 351.368 228.13 352.24C233.088 353.113 234.854 353.41 240.983 351.666C247.111 349.921 255.006 336.269 255.304 335.12C255.602 333.971 268.743 260.31 268.743 260.31" fill="#858585"/>
<path d="M268.54 211.09C268.54 211.09 247.697 211.813 242.738 214.144C237.78 216.474 237.184 219.985 236.897 221.453C236.61 222.922 227.842 300.891 227.842 300.891L199.221 273.728L180.824 291.496C180.824 291.496 206.233 324.789 212.074 333.844C217.915 342.898 223.171 351.368 228.13 352.24C233.088 353.113 234.854 353.41 240.983 351.666C247.111 349.921 255.006 336.269 255.304 335.12C255.602 333.971 268.743 260.31 268.743 260.31" stroke="#263238" stroke-linecap="round" stroke-linejoin="round"/>
<path d="M242.6 309.434L246.494 311.689" stroke="#263238" stroke-linecap="round" stroke-linejoin="round"/>
<path d="M227.844 300.891L240.207 308.051" stroke="#263238" stroke-linecap="round" stroke-linejoin="round"/>
<path d="M275.191 339.523C272.839 340.502 270.669 341.353 268.807 342.024" stroke="#263238" stroke-linecap="round" stroke-linejoin="round"/>
<path d="M318.186 319.828C318.186 319.828 298.46 329.404 282.383 336.458" stroke="#263238" stroke-linecap="round" stroke-linejoin="round"/>
<path d="M328.157 321.191L303.238 334.321" stroke="#263238" stroke-linecap="round" stroke-linejoin="round"/>
<path d="M534.275 346.131H566.855C566.855 346.131 571.569 346.131 569.856 353.419C568.143 360.708 561.28 400.565 560.418 415.568C559.556 430.57 558.705 439.571 558.705 439.571H432.291L447.538 351.674C447.829 350.005 448.701 348.492 450 347.404C451.299 346.316 452.941 345.721 454.635 345.727L534.275 346.131Z" fill="#263238" stroke="#263238" stroke-linecap="round" stroke-linejoin="round"/>
<path d="M432.471 289.059C432.471 289.059 395.465 299.422 394.869 302.976C394.273 306.529 378.59 393.277 378.59 393.277C378.59 393.277 301.056 373.146 296.577 373.146C292.098 373.146 274.956 387.649 272.594 389.426C270.232 391.203 266.966 392.692 266.668 396.235C266.37 399.778 263.412 405.418 266.668 408.078C269.924 410.738 271.988 413.121 273.18 411.631C274.371 410.142 272.892 405.12 272.594 404.183C272.296 403.247 291.246 393.543 291.246 393.543L298.939 391.766C296.193 394.217 293.218 396.397 290.055 398.278C285.022 401.236 283.256 406.279 285.916 406.567C288.576 406.854 288.874 405.684 296.556 403.311C304.238 400.938 310.76 393.245 310.76 393.245C310.76 393.245 385.666 428.187 389.815 428.187C393.965 428.187 393.369 429.07 396.923 424.336C400.477 419.601 412.021 385.851 412.021 385.851L416.458 429.666V439.444H532.838C532.838 439.444 532.242 313.307 531.657 311.53C531.072 309.753 485.628 281.121 485.628 281.121L432.471 289.059Z" fill="#FFFB18" stroke="#263238" stroke-linecap="round" stroke-linejoin="round"/>
<path d="M401.062 371.827L398.498 368.539" stroke="#263238" stroke-linecap="round" stroke-linejoin="round"/>
<path d="M412.043 385.884L403.318 374.723" stroke="#263238" stroke-linecap="round" stroke-linejoin="round"/>
<path d="M400.87 349.739L399.529 345.43" stroke="#263238" stroke-linecap="round" stroke-linejoin="round"/>
<path d="M406.116 346.133L412.043 385.873L402.254 354.23" stroke="#263238" stroke-linecap="round" stroke-linejoin="round"/>
<path d="M495.004 287.1L485.63 281.152L432.43 289.058L457.295 342.652L495.004 287.1Z" fill="white" stroke="#263238" stroke-linecap="round" stroke-linejoin="round"/>
<path d="M429.801 209.95C422.725 214.823 412.639 225.485 414.905 232.294C417.288 239.444 420.863 241.03 420.863 241.03C420.863 241.03 417.671 250.957 420.47 254.138C422.13 256.037 423.471 258.193 424.438 260.522C424.438 260.522 418.48 277.206 421.246 279.195L424.023 281.174C424.023 281.174 428.79 300.241 432.365 301.39C435.94 302.54 446.665 299.401 446.665 299.401L457.465 328.416L485.672 281.153L482.884 271.577C482.884 271.577 499.567 244.179 492.822 224.761C488.938 213.579 478.873 205.854 467.764 202.609C455.497 199.034 444.899 202.97 433.493 207.854C432.198 208.432 430.961 209.134 429.801 209.95Z" fill="#C2C2C2" stroke="#263238" stroke-linecap="round" stroke-linejoin="round"/>
<path d="M492.779 224.761C488.896 213.579 478.83 205.854 467.722 202.609C455.454 199.034 444.857 202.97 433.451 207.854C432.176 208.446 430.961 209.159 429.822 209.982C422.747 214.855 412.66 225.517 414.926 232.326C417.31 239.476 420.885 241.062 420.885 241.062C422.127 241.209 423.386 241.078 424.571 240.678C425.756 240.279 426.837 239.621 427.737 238.753C430.695 235.795 438.377 230.464 444.612 231.305C450.847 232.145 450.826 239.593 448.751 243.147C446.676 246.701 446.091 250.85 451.422 252.032C456.752 253.213 458.231 253.213 458.231 257.352C458.231 261.49 457.933 264.8 461.189 264.161C464.445 263.523 464.743 262.086 466.222 258.841C467.701 255.596 474.212 250.553 477.766 260.618C481.32 270.683 474.212 275.418 474.212 275.418C477.316 274.301 480.3 272.876 483.118 271.162C485.236 267.523 499.014 242.753 492.779 224.761Z" fill="#263238" stroke="#263238" stroke-linecap="round" stroke-linejoin="round"/>
<path d="M428.023 258.864C428.023 258.864 436.61 255.013 442.238 258.864" stroke="#263238" stroke-linecap="round" stroke-linejoin="round"/>
<path d="M427.736 285.505C427.736 285.505 436.908 289.059 442.834 282.547" stroke="#263238" stroke-linecap="round" stroke-linejoin="round"/>
<path d="M424.066 281.152L428.918 281.961" stroke="#263238" stroke-linecap="round" stroke-linejoin="round"/>
<path d="M438.685 265.588C438.685 267.259 437.76 268.621 436.557 268.621C435.355 268.621 434.482 267.259 434.482 265.588C434.482 263.918 435.408 262.566 436.557 262.566C437.706 262.566 438.685 263.918 438.685 265.588Z" fill="#263238"/>
<path d="M446.707 299.424C446.707 299.424 457.347 295.285 460.305 293.21C463.263 291.135 465.04 289.656 465.04 289.656L450.527 308.904L446.707 299.424Z" fill="#263238"/>
<path d="M322.836 379.117C309.281 375.766 298.173 373.148 296.577 373.148C292.129 373.148 274.956 387.651 272.594 389.428C270.232 391.205 266.966 392.694 266.668 396.237C266.37 399.78 263.412 405.42 266.668 408.08C269.924 410.74 271.988 413.123 273.18 411.633C274.371 410.144 272.892 405.122 272.594 404.185C272.296 403.249 291.246 393.545 291.246 393.545L298.939 391.768C296.193 394.219 293.218 396.399 290.055 398.28C285.022 401.238 283.256 406.281 285.916 406.569C288.576 406.856 288.874 405.686 296.556 403.313C304.238 400.94 310.76 393.247 310.76 393.247C310.76 393.247 314.218 394.865 319.676 397.386C321.401 394.709 322.57 391.712 323.113 388.573C323.656 385.435 323.562 382.219 322.836 379.117Z" fill="#C2C2C2" stroke="#263238" stroke-linecap="round" stroke-linejoin="round"/>
<path d="M310.781 393.279L314.037 385.586" stroke="#263238" stroke-linecap="round" stroke-linejoin="round"/>
<path d="M281.767 390.023C281.767 390.023 267.264 399.206 264.594 400.983C261.923 402.76 252.751 404.824 253.645 406.601C254.539 408.377 256.603 409.271 260.753 408.08C265.488 406.921 270.138 405.438 274.67 403.643C279.404 401.568 291.247 393.577 291.247 393.577" fill="#C2C2C2"/>
<path d="M281.767 390.023C281.767 390.023 267.264 399.206 264.594 400.983C261.923 402.76 252.751 404.824 253.645 406.601C254.539 408.377 256.603 409.271 260.753 408.08C265.488 406.921 270.138 405.438 274.67 403.643C279.404 401.568 291.247 393.577 291.247 393.577" stroke="#263238" stroke-linecap="round" stroke-linejoin="round"/>
<path d="M518.039 302.137C518.039 302.137 538.17 311.021 540.83 316.054C543.49 321.087 548.831 430.966 549.118 434.158C549.223 435.292 548.88 436.423 548.162 437.308C547.444 438.192 546.409 438.761 545.277 438.893C543.798 439.191 449.347 438.605 446.687 438.605C444.027 438.605 437.505 438.01 433.653 436.233C429.801 434.456 426.843 435.052 426.545 430.306C426.449 426.852 426.549 423.396 426.843 419.953C426.843 418.177 425.662 413.144 426.843 410.175C428.024 407.207 430.397 407.217 431.578 406.919C433.451 406.767 435.334 406.767 437.207 406.919C438.249 406.107 439.495 405.595 440.807 405.439C442.12 405.284 443.451 405.49 444.655 406.036C449.091 407.813 456.497 418.464 456.497 418.464C456.497 418.464 463.604 420.539 474.851 418.762C486.097 416.985 511.559 411.654 511.559 411.654L501.494 348.591" fill="#FFFB18"/>
<path d="M518.039 302.137C518.039 302.137 538.17 311.021 540.83 316.054C543.49 321.087 548.831 430.966 549.118 434.158C549.223 435.292 548.88 436.423 548.162 437.308C547.444 438.192 546.409 438.761 545.277 438.893C543.798 439.191 449.347 438.605 446.687 438.605C444.027 438.605 437.505 438.01 433.653 436.233C429.801 434.456 426.843 435.052 426.545 430.306C426.449 426.852 426.549 423.396 426.843 419.953C426.843 418.177 425.662 413.144 426.843 410.175C428.024 407.207 430.397 407.217 431.578 406.919C433.451 406.767 435.334 406.767 437.207 406.919C438.249 406.107 439.495 405.595 440.807 405.439C442.12 405.284 443.451 405.49 444.655 406.036C449.091 407.813 456.497 418.464 456.497 418.464C456.497 418.464 463.604 420.539 474.851 418.762C486.097 416.985 511.559 411.654 511.559 411.654L501.494 348.591" stroke="#263238" stroke-linecap="round" stroke-linejoin="round"/>
<path d="M511.516 411.633L513.005 422.294" stroke="#263238" stroke-linecap="round" stroke-linejoin="round"/>
<path d="M463.253 438.669C460.146 428.38 462.625 422.496 465.083 419.453C462.176 419.466 459.279 419.127 456.454 418.442C456.454 418.442 449.006 407.802 444.612 406.015C443.408 405.468 442.077 405.262 440.765 405.418C439.452 405.573 438.206 406.085 437.164 406.898C435.291 406.745 433.408 406.745 431.535 406.898C430.354 407.196 427.981 407.196 426.8 410.154C425.619 413.112 426.8 418.155 426.8 419.932C426.506 423.374 426.406 426.831 426.502 430.285C426.8 435.03 429.758 434.434 433.61 436.211C437.462 437.988 443.973 438.584 446.644 438.584L463.253 438.669Z" fill="#C2C2C2" stroke="#263238" stroke-linecap="round" stroke-linejoin="round"/>
<path d="M286.798 433.976H161.991L140.52 345.707H265.316L286.798 433.976Z" fill="white" stroke="#263238" stroke-linecap="round" stroke-linejoin="round"/>
<path d="M228.544 391.511C228.544 394.246 220.479 396.459 210.541 396.459C200.603 396.459 192.527 394.267 192.527 391.511C192.527 388.755 200.582 386.574 210.53 386.574C220.479 386.574 228.544 388.809 228.544 391.511Z" fill="white" stroke="#263238" stroke-linecap="round" stroke-linejoin="round"/>
<path d="M366.459 433.977H161.99V439.573H366.459V433.977Z" fill="#C2C2C2" stroke="#263238" stroke-linecap="round" stroke-linejoin="round"/>
<path d="M366.46 433.977H288.543V439.573H366.46V433.977Z" fill="white" stroke="#263238" stroke-linecap="round" stroke-linejoin="round"/>
<path d="M301.332 435.574H294.586V436.798H301.332V435.574Z" fill="white" stroke="#263238" stroke-linecap="round" stroke-linejoin="round"/>
<path d="M318.496 435.574H311.75V436.798H318.496V435.574Z" fill="white" stroke="#263238" stroke-linecap="round" stroke-linejoin="round"/>
<path d="M642.547 439.574H18.4043" stroke="#263238" stroke-linecap="round" stroke-linejoin="round"/>
</g>
</g>
<defs>
<clipPath id="clip0_991_2951">
<rect width="700" height="500" fill="white"/>
</clipPath>
</defs>
</svg>
