<svg width="700" height="500" viewBox="0 0 700 500" fill="none" xmlns="http://www.w3.org/2000/svg">
<g clip-path="url(#clip0_2422_1914)">
<mask id="mask0_2422_1914" style="mask-type:luminance" maskUnits="userSpaceOnUse" x="0" y="0" width="700" height="500">
<path d="M700 0H0V500H700V0Z" fill="white"/>
</mask>
<g mask="url(#mask0_2422_1914)">
<mask id="mask1_2422_1914" style="mask-type:luminance" maskUnits="userSpaceOnUse" x="0" y="0" width="700" height="500">
<path d="M700 0H0V500H700V0Z" fill="white"/>
</mask>
<g mask="url(#mask1_2422_1914)">
<path opacity="0.7" d="M163.401 155.472C163.401 155.472 132.455 235.392 175.944 315.867C219.434 396.342 309.011 438.855 380.706 475.207C452.401 511.56 526.849 493.855 562.224 434.315C597.6 374.775 549.082 332.273 549.015 247.369C548.949 162.465 561.725 139.987 515.715 68.2591C469.706 -3.46902 356.919 -19.3532 271.626 33.8491C186.334 87.0514 163.401 155.472 163.401 155.472Z" fill="white"/>
<path d="M210.1 94.8442C225.041 76.9954 245.232 63.2425 269.296 63.4756C310.366 63.9862 332.566 100.339 356.121 128.377C368.331 142.918 382.194 156.949 400.332 163.786C427.538 174.032 457.841 168.049 484.348 158.536C496.225 154.274 510.288 148.28 523.664 151.343C564.323 160.645 560.094 210.262 553.379 241.686C544.31 284.132 529.569 329.265 499.699 361.832C428.182 439.854 299.477 392.024 234.964 329.765C230.224 325.18 225.684 320.407 221.411 315.335C210.309 302.391 200.912 288.077 193.45 272.744C172.671 229.509 169.807 176.962 187.9 132.284C193.333 118.738 200.821 106.11 210.1 94.8442Z" fill="#D27D2D"/>
<path opacity="0.7" d="M210.1 94.8442C225.041 76.9954 245.232 63.2425 269.296 63.4756C310.366 63.9862 332.566 100.339 356.121 128.377C368.331 142.918 382.194 156.949 400.332 163.786C427.538 174.032 457.841 168.049 484.348 158.536C496.225 154.274 510.288 148.28 523.664 151.343C564.323 160.645 560.094 210.262 553.379 241.686C544.31 284.132 529.569 329.265 499.699 361.832C428.182 439.854 299.477 392.024 234.964 329.765C230.224 325.18 225.684 320.407 221.411 315.335C210.309 302.391 200.912 288.077 193.45 272.744C172.671 229.509 169.807 176.962 187.9 132.284C193.333 118.738 200.821 106.11 210.1 94.8442Z" fill="white"/>
<path d="M147.996 462.207H583.005" stroke="#263238" stroke-linecap="round" stroke-linejoin="round"/>
<path d="M412.086 237.286V73.9609H422.198" stroke="#263238" stroke-linecap="round" stroke-linejoin="round"/>
<path d="M412.086 256.724V252.395" stroke="#263238" stroke-linecap="round" stroke-linejoin="round"/>
<path d="M448.205 73.9609H552.556V271.952H412.086" stroke="#263238" stroke-linecap="round" stroke-linejoin="round"/>
<path d="M435.418 73.9609H444.587" stroke="#263238" stroke-linecap="round" stroke-linejoin="round"/>
<path d="M547.272 79.2344H417.369V266.68H547.272V79.2344Z" stroke="#263238" stroke-linecap="round" stroke-linejoin="round"/>
<path d="M541.235 89.2695V167.114H423.408V162.03" stroke="#263238" stroke-linecap="round" stroke-linejoin="round"/>
<path d="M423.408 150.13V84.7617H541.235" stroke="#263238" stroke-linecap="round" stroke-linejoin="round"/>
<path d="M423.408 158.131V153.191" stroke="#263238" stroke-linecap="round" stroke-linejoin="round"/>
<path d="M521.332 172.949H547.273" stroke="#263238" stroke-linecap="round" stroke-linejoin="round"/>
<path d="M512.107 172.949H515.782" stroke="#263238" stroke-linecap="round" stroke-linejoin="round"/>
<path d="M417.369 172.949H507.734" stroke="#263238" stroke-linecap="round" stroke-linejoin="round"/>
<path d="M475.789 167.112V164.426H486.656V165.946H482.327V167.112" stroke="#263238" stroke-linecap="round" stroke-linejoin="round"/>
<path d="M417.592 243.059C417.592 243.059 419.401 244.425 420.667 252.683C420.667 252.683 422.887 239.496 425.484 239.296C428.081 239.097 427.593 247.866 427.593 247.866C427.593 247.866 428.037 243.548 430.102 243.747C432.166 243.947 430.102 252.627 430.102 252.627C430.102 252.627 432.588 245.812 434.941 245.967C437.294 246.123 433.387 258.311 433.387 258.311C433.387 258.311 439.425 253.937 441.867 256.091C444.309 258.244 440.513 263.616 440.513 263.616C440.513 263.616 449.171 261.741 450.503 266.824" stroke="#263238" stroke-linecap="round" stroke-linejoin="round"/>
<path d="M450.514 261.927C450.514 261.927 454.288 259.451 457.262 260.606C457.262 260.606 455.375 257.731 457.262 255.977C459.149 254.223 461.569 260.606 461.569 260.606C461.569 260.606 461.847 249.894 465.621 250.438C469.395 250.982 465.621 260.606 465.621 260.606C465.621 260.606 472.358 254.634 473.979 256.71C475.6 258.785 472.869 261.927 472.869 261.927C474.087 261.581 475.374 261.557 476.604 261.859C477.834 262.161 478.964 262.777 479.884 263.647C479.884 263.647 484.402 259.041 489.419 258.375C489.419 258.375 486.089 248.684 487.699 246.731C489.308 244.777 492.261 255.189 492.261 255.189C492.261 255.189 493.548 248.418 497.811 247.885C497.811 247.885 494.292 245.976 495.335 243.079C496.379 240.182 501.23 243.767 501.23 243.767C501.23 243.767 499.232 238.672 502.395 237.274C505.559 235.875 506.835 241.536 506.835 241.536C506.835 241.536 507.723 235.609 511.43 235.986C515.138 236.363 513.939 243.134 513.939 243.134C513.939 243.134 517.436 237.718 519.311 238.262C523.052 239.372 521.92 247.941 521.92 247.941C521.92 247.941 527.137 244.311 528.491 245.987C529.845 247.663 523.052 252.436 523.052 252.436C523.052 252.436 528.236 253.002 531.466 256.033" stroke="#263238" stroke-linecap="round" stroke-linejoin="round"/>
<path d="M547.273 245.057C547.273 245.057 546.673 239.618 541.234 239.329C535.795 239.041 542.733 251.262 542.733 251.262C542.733 251.262 538.237 247.543 536.628 248.687C535.018 249.83 541.234 256.135 541.234 256.135C541.234 256.135 538.248 253.371 535.107 254.225C531.966 255.08 536.894 263.838 536.894 263.838C532.247 262.907 527.424 263.475 523.119 265.459" stroke="#263238" stroke-linecap="round" stroke-linejoin="round"/>
<path d="M361.826 413.609V461.917" stroke="#263238" stroke-linecap="round" stroke-linejoin="round"/>
<path d="M361.826 397.805V408.15" stroke="#263238" stroke-linecap="round" stroke-linejoin="round"/>
<path d="M158.475 462.209V372.188H361.827V391.946" stroke="#263238" stroke-linecap="round" stroke-linejoin="round"/>
<path d="M188.1 382.031H170.451V453.948" stroke="#263238" stroke-linecap="round" stroke-linejoin="round"/>
<path d="M349.85 461.918V382.031H198.346" stroke="#263238" stroke-linecap="round" stroke-linejoin="round"/>
<path d="M341.391 362.863H335.785" stroke="#263238" stroke-linecap="round" stroke-linejoin="round"/>
<path d="M327.738 362.863H153.424V372.121H366.877V362.863H344.965" stroke="#263238" stroke-linecap="round" stroke-linejoin="round"/>
<path d="M165.445 303.543C165.445 303.543 182.095 304.864 182.85 317.185C182.85 317.185 165.923 324.977 165.445 303.543Z" stroke="#263238" stroke-linecap="round" stroke-linejoin="round"/>
<path d="M198.49 306.609C198.49 306.609 207.825 293.988 222.91 300.459C222.91 300.459 213.697 315.711 198.49 306.609Z" stroke="#263238" stroke-linecap="round" stroke-linejoin="round"/>
<path d="M221.633 266.757C221.633 266.757 224.319 291.032 202.219 284.35C202.219 284.35 209.234 266.501 221.633 266.757Z" stroke="#263238" stroke-linecap="round" stroke-linejoin="round"/>
<path d="M194.494 253.238C194.494 253.238 211.976 262.673 199.123 276.97C199.123 276.97 186.868 266.758 194.494 253.238Z" stroke="#263238" stroke-linecap="round" stroke-linejoin="round"/>
<path d="M172.992 274.94C172.992 274.94 191.995 273.03 191.995 290.613C191.995 290.613 172.992 291.368 172.992 274.94Z" stroke="#263238" stroke-linecap="round" stroke-linejoin="round"/>
<path d="M187.234 327.118C186.957 321.213 186.957 313.621 190.564 305.595C198.878 287.081 201.664 271.485 197.346 260.496" stroke="#263238" stroke-linecap="round" stroke-linejoin="round"/>
<path d="M179.23 279.691C179.23 279.691 190.619 284.22 194.493 295.953" stroke="#263238" stroke-linecap="round" stroke-linejoin="round"/>
<path d="M215.651 276.469C215.651 276.469 209.068 285.438 197.891 284.472" stroke="#263238" stroke-linecap="round" stroke-linejoin="round"/>
<path d="M215.651 303C215.651 303 197.414 308.25 190.121 306.53" stroke="#263238" stroke-linecap="round" stroke-linejoin="round"/>
<path d="M170.885 309.094C170.885 309.094 179.043 318.04 187.235 317.896" stroke="#263238" stroke-linecap="round" stroke-linejoin="round"/>
<path d="M208.914 327.121H169.298C169.042 327.121 168.796 327.223 168.615 327.404C168.434 327.585 168.332 327.831 168.332 328.087V331.095C168.332 331.221 168.357 331.346 168.406 331.463C168.454 331.579 168.526 331.685 168.616 331.774C168.705 331.863 168.812 331.933 168.929 331.98C169.046 332.027 169.171 332.051 169.298 332.049H170.408L173.938 362.863H204.218L207.748 332.049H208.914C209.039 332.051 209.164 332.027 209.281 331.98C209.397 331.932 209.503 331.862 209.592 331.773C209.681 331.684 209.751 331.578 209.799 331.462C209.846 331.345 209.87 331.221 209.868 331.095V328.087C209.87 327.96 209.846 327.835 209.799 327.718C209.751 327.601 209.681 327.494 209.593 327.405C209.504 327.315 209.398 327.243 209.282 327.195C209.165 327.146 209.04 327.121 208.914 327.121Z" stroke="#263238" stroke-miterlimit="10"/>
<path d="M172.992 332.047H196.036" stroke="#263238" stroke-linecap="round" stroke-linejoin="round"/>
<path d="M200.377 332.047H203.84" stroke="#263238" stroke-linecap="round" stroke-linejoin="round"/>
<path d="M452.869 204.309L448.429 228.44L412.221 250.44L417.227 259.631C417.227 259.631 459.085 246.866 460.106 243.88C461.127 240.894 470.773 209.27 470.773 209.27L452.869 204.309Z" fill="#263238"/>
<path d="M468.729 163.508L466.309 192.767L465.033 208.119C458.051 211.515 451.225 206.409 450.803 206.076C452.701 200.504 454.91 169.058 468.729 163.508Z" fill="#999999" stroke="#263238" stroke-linecap="round" stroke-linejoin="round"/>
<path d="M466.266 192.767L464.99 208.118C458.008 211.515 451.182 206.408 450.76 206.075C451.059 206.209 454.734 207.763 457.12 206.075C456.285 205.174 455.542 204.193 454.9 203.145C454.756 202.568 457.12 202.413 457.12 202.413C457.12 202.413 455.566 189.969 459.706 184.653C461.327 182.632 463.858 186.85 466.266 192.767Z" fill="#263238"/>
<path d="M493.806 434.469L494.916 437.732C493.233 440.509 491.349 443.158 489.277 445.658C489.277 445.658 488.167 445.302 486.347 446.912C485.225 448.03 484.533 449.508 484.393 451.085C484.393 451.085 475.913 461.253 465.157 461.397C454.401 461.542 457.642 456.125 457.642 456.125L493.806 434.469Z" fill="#D27D2D" stroke="#263238" stroke-linecap="round" stroke-linejoin="round"/>
<path d="M483.692 408.595C483.692 408.595 469.262 403.278 466.443 413.912C466.443 413.912 469.018 425.622 467.475 432.027C465.932 438.432 458.162 450.664 457.685 452.984C456.741 457.535 457.452 457.846 457.452 457.846C457.452 457.846 463.102 461.109 470.694 457.612C478.287 454.116 491.429 439.064 493.482 435.967C495.536 432.871 487.044 420.661 487.044 420.661L483.692 408.595Z" fill="white"/>
<mask id="mask2_2422_1914" style="mask-type:luminance" maskUnits="userSpaceOnUse" x="457" y="407" width="37" height="53">
<path d="M483.692 408.595C483.692 408.595 469.262 403.278 466.443 413.912C466.443 413.912 469.018 425.622 467.475 432.027C465.932 438.432 458.162 450.664 457.685 452.984C456.741 457.535 457.452 457.846 457.452 457.846C457.452 457.846 463.102 461.109 470.694 457.612C478.287 454.116 491.429 439.064 493.482 435.967C495.536 432.871 487.044 420.661 487.044 420.661L483.692 408.595Z" fill="white"/>
</mask>
<g mask="url(#mask2_2422_1914)">
<path opacity="0.4" d="M483.692 408.595C483.692 408.595 469.262 403.278 466.443 413.912C466.443 413.912 469.018 425.622 467.475 432.027C465.932 438.432 458.162 450.664 457.685 452.984C456.741 457.535 457.452 457.846 457.452 457.846C457.452 457.846 463.102 461.109 470.694 457.612C478.287 454.116 491.429 439.064 493.482 435.967C495.536 432.871 487.044 420.661 487.044 420.661L483.692 408.595Z" fill="#D27D2D"/>
</g>
<path d="M483.692 408.595C483.692 408.595 469.262 403.278 466.443 413.912C466.443 413.912 469.018 425.622 467.475 432.027C465.932 438.432 458.162 450.664 457.685 452.984C456.741 457.535 457.452 457.846 457.452 457.846C457.452 457.846 463.102 461.109 470.694 457.612C478.287 454.116 491.429 439.064 493.482 435.967C495.536 432.871 487.044 420.661 487.044 420.661L483.692 408.595Z" stroke="#263238" stroke-linecap="round" stroke-linejoin="round"/>
<path d="M476.311 423.637C477.566 430.801 476.291 438.178 472.703 444.505" stroke="#263238" stroke-linecap="round" stroke-linejoin="round"/>
<path d="M472.704 447.302C472.167 448.654 471.334 449.868 470.266 450.855C469.198 451.842 467.922 452.578 466.532 453.007C463.624 453.786 460.561 453.786 457.652 453.007L461.116 445.992C464.792 447.457 468.794 447.909 472.704 447.302Z" fill="#D27D2D" stroke="#263238" stroke-linecap="round" stroke-linejoin="round"/>
<path d="M474.746 443.048C474.746 443.048 467.198 443.503 463.258 441.938" stroke="#263238" stroke-linecap="round" stroke-linejoin="round"/>
<path d="M476.146 438.887C476.146 438.887 469.086 439.997 465.146 437.777" stroke="#263238" stroke-linecap="round" stroke-linejoin="round"/>
<path d="M477.344 434.256C477.344 434.256 471.161 435.155 467.121 433.246" stroke="#263238" stroke-linecap="round" stroke-linejoin="round"/>
<path d="M478.033 429.02C478.033 429.02 471.151 431.173 467.898 429.02" stroke="#263238" stroke-linecap="round" stroke-linejoin="round"/>
<path d="M479.065 416.078L480.264 423.637C480.264 423.637 471.162 429.631 465.146 422.138V414.246C465.146 414.246 467.41 419.552 479.065 416.078Z" fill="#D27D2D" stroke="#263238" stroke-linecap="round" stroke-linejoin="round"/>
<path d="M471.161 246.391C461.937 275.617 433.31 322.492 436.207 334.491C437.794 341.04 447.24 378.148 454.633 394.431C457.441 400.658 463.513 404.821 463.513 404.821L467.897 414.223C478.587 418.874 482.416 409.416 482.416 409.416L480.263 398.76C485.99 388.349 483.593 388.349 476.145 334.38C475.268 328.02 490.02 308.362 490.02 308.362L497.59 357.824L498.822 398.339L502.751 410.859C502.751 410.859 503.728 422.614 503.639 423.325H521.211L523.12 410.404C523.12 410.404 531.278 402.712 531.278 393.832C531.278 384.952 529.525 339.719 531.278 326.544C533.032 313.368 527.171 251.941 527.171 251.941L471.161 246.391Z" fill="#263238"/>
<path d="M351.71 220.348L376.13 222.546C376.683 222.596 377.194 222.863 377.55 223.29C377.907 223.716 378.079 224.267 378.029 224.82L376.46 242.247L347.867 239.674L349.435 222.247C349.485 221.693 349.753 221.182 350.179 220.826C350.606 220.47 351.156 220.298 351.71 220.348Z" fill="#D27D2D"/>
<mask id="mask3_2422_1914" style="mask-type:luminance" maskUnits="userSpaceOnUse" x="347" y="220" width="32" height="23">
<path d="M351.71 220.348L376.13 222.546C376.683 222.596 377.194 222.863 377.55 223.29C377.907 223.716 378.079 224.267 378.029 224.82L376.46 242.247L347.867 239.674L349.435 222.247C349.485 221.693 349.753 221.182 350.179 220.826C350.606 220.47 351.156 220.298 351.71 220.348Z" fill="white"/>
</mask>
<g mask="url(#mask3_2422_1914)">
<path opacity="0.3" d="M351.71 220.348L376.13 222.546C376.683 222.596 377.194 222.863 377.55 223.29C377.907 223.716 378.079 224.267 378.029 224.82L376.46 242.247L347.867 239.674L349.435 222.247C349.485 221.693 349.753 221.182 350.179 220.826C350.606 220.47 351.156 220.298 351.71 220.348Z" fill="black" fill-opacity="0.7"/>
<path opacity="0.3" d="M376.515 222.242L369.515 221.641L368.312 235.642L375.312 236.243L376.515 222.242Z" fill="white" fill-opacity="0.7"/>
</g>
<path d="M351.71 220.348L376.13 222.546C376.683 222.596 377.194 222.863 377.55 223.29C377.907 223.716 378.079 224.267 378.029 224.82L376.46 242.247L347.867 239.674L349.435 222.247C349.485 221.693 349.753 221.182 350.179 220.826C350.606 220.47 351.156 220.298 351.71 220.348Z" stroke="#263238" stroke-width="1.00404" stroke-linecap="round" stroke-linejoin="round"/>
<path d="M393.86 221.891L418.191 223.981C418.742 224.028 419.252 224.293 419.609 224.716C419.965 225.139 420.139 225.687 420.091 226.238L418.6 243.601L390.111 241.154L391.603 223.791C391.65 223.24 391.915 222.73 392.338 222.373C392.761 222.017 393.309 221.843 393.86 221.891Z" fill="#D27D2D"/>
<mask id="mask4_2422_1914" style="mask-type:luminance" maskUnits="userSpaceOnUse" x="390" y="221" width="31" height="23">
<path d="M393.858 221.891L418.189 223.981C418.74 224.028 419.25 224.293 419.607 224.716C419.963 225.139 420.137 225.687 420.089 226.238L418.598 243.601L390.109 241.154L391.601 223.791C391.648 223.24 391.913 222.73 392.336 222.373C392.759 222.017 393.307 221.843 393.858 221.891Z" fill="white"/>
</mask>
<g mask="url(#mask4_2422_1914)">
<path opacity="0.3" d="M393.858 221.891L418.189 223.981C418.74 224.028 419.25 224.293 419.607 224.716C419.963 225.139 420.137 225.687 420.089 226.238L418.598 243.601L390.109 241.154L391.601 223.791C391.648 223.24 391.913 222.73 392.336 222.373C392.759 222.017 393.307 221.843 393.858 221.891Z" fill="black" fill-opacity="0.7"/>
<path opacity="0.3" d="M418.057 225.82L413.832 225.457L412.629 239.458L416.854 239.821L418.057 225.82Z" fill="white" fill-opacity="0.7"/>
</g>
<path d="M393.86 221.891L418.191 223.981C418.742 224.028 419.252 224.293 419.609 224.716C419.965 225.139 420.139 225.687 420.091 226.238L418.6 243.601L390.111 241.154L391.603 223.791C391.65 223.24 391.915 222.73 392.338 222.373C392.761 222.017 393.309 221.843 393.86 221.891Z" stroke="#263238" stroke-linecap="round" stroke-linejoin="round"/>
<path d="M385.022 221.125L409.353 223.215C409.904 223.262 410.414 223.527 410.771 223.95C411.127 224.374 411.301 224.921 411.253 225.473L409.762 242.836L381.273 240.389L382.765 223.025C382.812 222.474 383.077 221.964 383.5 221.608C383.923 221.251 384.471 221.078 385.022 221.125Z" fill="#D27D2D" stroke="#263238" stroke-linecap="round" stroke-linejoin="round"/>
<path d="M427.038 224.742L451.369 226.832C451.92 226.88 452.43 227.144 452.786 227.568C453.143 227.991 453.316 228.539 453.269 229.09L451.778 246.442L423.29 243.995L424.781 226.632C424.831 226.082 425.097 225.575 425.52 225.221C425.943 224.867 426.489 224.695 427.038 224.742Z" fill="#D27D2D" stroke="#263238" stroke-linecap="round" stroke-linejoin="round"/>
<path opacity="0.3" d="M409.692 225.094L402.691 224.492L401.489 238.493L408.489 239.095L409.692 225.094Z" fill="white" fill-opacity="0.7"/>
<path opacity="0.3" d="M451.247 228.66L444.246 228.059L443.043 242.06L450.044 242.661L451.247 228.66Z" fill="white" fill-opacity="0.7"/>
<path d="M464.501 243.493L457.63 323.335L328.992 312.235L335.863 232.404C335.919 231.743 336.105 231.1 336.41 230.511C336.715 229.922 337.133 229.399 337.64 228.973C338.147 228.546 338.734 228.223 339.366 228.023C339.998 227.823 340.664 227.75 341.324 227.808L459.894 237.998C460.559 238.052 461.207 238.238 461.799 238.545C462.391 238.851 462.917 239.272 463.345 239.783C463.774 240.294 464.097 240.885 464.295 241.522C464.493 242.159 464.563 242.829 464.501 243.493Z" fill="#D27D2D"/>
<mask id="mask5_2422_1914" style="mask-type:luminance" maskUnits="userSpaceOnUse" x="328" y="227" width="137" height="97">
<path d="M464.501 243.493L457.63 323.335L328.992 312.235L335.863 232.404C335.919 231.743 336.105 231.1 336.41 230.511C336.715 229.922 337.133 229.399 337.64 228.973C338.147 228.546 338.734 228.223 339.366 228.023C339.998 227.823 340.664 227.75 341.324 227.808L459.894 237.998C460.559 238.052 461.207 238.238 461.799 238.545C462.391 238.851 462.917 239.272 463.345 239.783C463.774 240.294 464.097 240.885 464.295 241.522C464.493 242.159 464.563 242.829 464.501 243.493Z" fill="white"/>
</mask>
<g mask="url(#mask5_2422_1914)">
<path opacity="0.3" d="M464.501 243.493L457.63 323.335L328.992 312.235L335.863 232.404C335.919 231.743 336.105 231.1 336.41 230.511C336.715 229.922 337.133 229.399 337.64 228.973C338.147 228.546 338.734 228.223 339.366 228.023C339.998 227.823 340.664 227.75 341.324 227.808L459.894 237.998C460.559 238.052 461.207 238.238 461.799 238.545C462.391 238.851 462.917 239.272 463.345 239.783C463.774 240.294 464.097 240.885 464.295 241.522C464.493 242.159 464.563 242.829 464.501 243.493Z" fill="black" fill-opacity="0.7"/>
</g>
<path d="M464.501 243.493L457.63 323.335L328.992 312.235L335.863 232.404C335.919 231.743 336.105 231.1 336.41 230.511C336.715 229.922 337.133 229.399 337.64 228.973C338.147 228.546 338.734 228.223 339.366 228.023C339.998 227.823 340.664 227.75 341.324 227.808L459.894 237.998C460.559 238.052 461.207 238.238 461.799 238.545C462.391 238.851 462.917 239.272 463.345 239.783C463.774 240.294 464.097 240.885 464.295 241.522C464.493 242.159 464.563 242.829 464.501 243.493Z" stroke="#263238" stroke-linecap="round" stroke-linejoin="round"/>
<path d="M464.501 243.493L457.63 323.336L362.17 315.122L369.052 235.29C369.108 234.63 369.294 233.987 369.598 233.398C369.903 232.809 370.321 232.286 370.829 231.859C371.336 231.432 371.923 231.11 372.555 230.91C373.187 230.71 373.853 230.637 374.513 230.695L459.905 238.032C460.566 238.088 461.209 238.274 461.798 238.579C462.387 238.884 462.91 239.302 463.337 239.809C463.763 240.316 464.086 240.903 464.286 241.535C464.486 242.167 464.559 242.833 464.501 243.493Z" fill="#D27D2D" stroke="#263238" stroke-linecap="round" stroke-linejoin="round"/>
<path opacity="0.3" d="M457.796 245.779L376.2 238.764C375.656 238.715 375.152 238.456 374.798 238.041C374.443 237.626 374.265 237.088 374.302 236.544C374.35 236 374.609 235.496 375.024 235.141C375.439 234.786 375.977 234.608 376.522 234.645L458.118 241.661C458.662 241.709 459.165 241.968 459.52 242.383C459.875 242.798 460.053 243.336 460.016 243.881C459.968 244.425 459.708 244.928 459.293 245.283C458.878 245.638 458.341 245.816 457.796 245.779Z" fill="white" fill-opacity="0.7"/>
<path d="M521.788 423.78C521.788 423.78 515.639 419.395 502.918 420.272C502.918 420.272 501.986 435.535 500.254 439.975C498.523 444.415 489.399 452.107 487.7 453.428C486.002 454.749 486.002 459.355 486.002 459.355H524.652C524.156 452.749 523.128 446.194 521.577 439.753L521.788 423.78Z" fill="white"/>
<mask id="mask6_2422_1914" style="mask-type:luminance" maskUnits="userSpaceOnUse" x="486" y="420" width="39" height="40">
<path d="M521.788 423.78C521.788 423.78 515.639 419.395 502.918 420.272C502.918 420.272 501.986 435.535 500.254 439.975C498.523 444.415 489.399 452.107 487.7 453.428C486.002 454.749 486.002 459.355 486.002 459.355H524.652C524.156 452.749 523.128 446.194 521.577 439.753L521.788 423.78Z" fill="white"/>
</mask>
<g mask="url(#mask6_2422_1914)">
<path opacity="0.4" d="M521.788 423.78C521.788 423.78 515.639 419.395 502.918 420.272C502.918 420.272 501.986 435.535 500.254 439.975C498.523 444.415 489.399 452.107 487.7 453.428C486.002 454.749 486.002 459.355 486.002 459.355H524.652C524.156 452.749 523.128 446.194 521.577 439.753L521.788 423.78Z" fill="#D27D2D"/>
</g>
<path d="M521.788 423.78C521.788 423.78 515.639 419.395 502.918 420.272C502.918 420.272 501.986 435.535 500.254 439.975C498.523 444.415 489.399 452.107 487.7 453.428C486.002 454.749 486.002 459.355 486.002 459.355H524.652C524.156 452.749 523.128 446.194 521.577 439.753L521.788 423.78Z" stroke="#263238" stroke-linecap="round" stroke-linejoin="round"/>
<path d="M513.807 425.754C513.807 425.754 512.897 439.807 510.71 443.514C509.543 445.551 508.101 447.419 506.426 449.064" stroke="#263238" stroke-linecap="round" stroke-linejoin="round"/>
<path d="M505.359 451.006C505.359 451.006 503.417 453.425 501.263 453.747C499.11 454.069 487.732 453.425 487.732 453.425L492.372 449.407C492.372 449.407 501.807 447.82 505.359 451.006Z" fill="#D27D2D" stroke="#263238" stroke-linecap="round" stroke-linejoin="round"/>
<path d="M509.379 447.712C509.379 447.712 501.142 442.983 495.271 446.602" stroke="#263238" stroke-linecap="round" stroke-linejoin="round"/>
<path d="M511.366 444.504C511.366 444.504 505.616 440.008 498.834 442.472" stroke="#263238" stroke-linecap="round" stroke-linejoin="round"/>
<path d="M513.807 439.609C513.807 439.609 507.613 434.792 501.086 437.855" stroke="#263238" stroke-linecap="round" stroke-linejoin="round"/>
<path d="M514.652 433.492C514.652 433.492 507.137 429.451 501.676 432.515" stroke="#263238" stroke-linecap="round" stroke-linejoin="round"/>
<path d="M524.642 459.355V462.208H520.202C520.202 462.208 516.394 459.988 512.776 462.208H491.93C489.727 462.201 487.553 461.712 485.559 460.776L485.991 459.355H524.642Z" fill="#D27D2D" stroke="#263238" stroke-linecap="round" stroke-linejoin="round"/>
<path d="M519.101 422.878L518.114 429.105C518.114 429.105 506.514 425.342 500.109 427.784V420.125C500.109 420.125 512.02 415.952 519.101 422.878Z" fill="#D27D2D" stroke="#263238" stroke-linecap="round" stroke-linejoin="round"/>
<path d="M531.645 267.737C531.645 267.737 506.992 272.565 482.805 264.729C477.298 262.974 472.03 260.543 467.121 257.491C467.121 257.491 467.187 255.937 467.232 253.396C467.432 243.472 467.376 218.508 462.148 212.326C458.818 208.429 456.209 184.342 462.636 172.166L482.294 156.359C509.512 161.676 515.261 168.88 519.757 184.42C520.589 187.262 521.366 190.381 522.232 193.822C523.176 197.574 524.064 202.158 524.907 207.142C528.992 231.961 531.645 267.737 531.645 267.737Z" fill="#999999"/>
<mask id="mask7_2422_1914" style="mask-type:luminance" maskUnits="userSpaceOnUse" x="458" y="156" width="74" height="114">
<path d="M531.645 267.737C531.645 267.737 506.992 272.565 482.805 264.729C477.298 262.974 472.03 260.543 467.121 257.491C467.121 257.491 467.187 255.937 467.232 253.396C467.432 243.472 467.376 218.508 462.148 212.326C458.818 208.429 456.209 184.342 462.636 172.166L482.294 156.359C509.512 161.676 515.261 168.88 519.757 184.42C520.589 187.262 521.366 190.381 522.232 193.822C523.176 197.574 524.064 202.158 524.907 207.142C528.992 231.961 531.645 267.737 531.645 267.737Z" fill="white"/>
</mask>
<g mask="url(#mask7_2422_1914)">
<path opacity="0.2" d="M524.908 207.142L513.808 256.725C513.808 256.725 497.768 261.165 482.817 264.728C477.306 262.974 472.033 260.543 467.121 257.491C467.121 257.491 467.188 255.937 467.232 253.395C480.663 246.525 500.266 236.424 500.11 235.946C499.855 235.203 500.11 209.306 500.11 209.306C500.11 209.306 517.87 205.188 519.757 184.387C520.59 187.228 521.367 190.347 522.233 193.788C523.176 197.551 524.064 202.102 524.908 207.142Z" fill="black"/>
</g>
<path d="M531.645 267.737C531.645 267.737 506.992 272.565 482.805 264.729C477.298 262.974 472.03 260.543 467.121 257.491C467.121 257.491 467.187 255.937 467.232 253.396C467.432 243.472 467.376 218.508 462.148 212.326C458.818 208.429 456.209 184.342 462.636 172.166L482.294 156.359C509.512 161.676 515.261 168.88 519.757 184.42C520.589 187.262 521.366 190.381 522.232 193.822C523.176 197.574 524.064 202.158 524.907 207.142C528.992 231.961 531.645 267.737 531.645 267.737Z" stroke="#263238" stroke-linecap="round" stroke-linejoin="round"/>
<path d="M483.159 135.613C483.159 135.613 474.479 148.045 486.023 157.747C486.023 157.747 472.015 173.464 467.408 171.3C465.466 170.39 467.408 164.717 467.408 164.717L459.283 149.688L483.159 135.613Z" fill="white" stroke="#263238" stroke-linecap="round" stroke-linejoin="round"/>
<path d="M480.329 142.049C483.037 130.205 481.739 112.567 465.144 114.133C453.511 115.243 445.22 121.681 448.494 137.287C449.859 143.869 450.98 153.193 457.019 161.607C458.695 163.938 476.233 155.691 475.167 149.02" fill="white"/>
<path d="M480.329 142.049C483.037 130.205 481.739 112.567 465.144 114.133C453.511 115.243 445.22 121.681 448.494 137.287C449.859 143.869 450.98 153.193 457.019 161.607C458.695 163.938 476.233 155.691 475.167 149.02" stroke="#263238" stroke-linecap="round" stroke-linejoin="round"/>
<path d="M456.586 134.648C457.756 134.195 459.016 134.022 460.265 134.143C461.514 134.265 462.718 134.677 463.779 135.347" stroke="#263238" stroke-linecap="round" stroke-linejoin="round"/>
<path d="M448.24 136.099C448.453 135.645 448.823 135.282 449.282 135.078C449.741 134.874 450.258 134.843 450.738 134.989" stroke="#263238" stroke-linecap="round" stroke-linejoin="round"/>
<path d="M452.391 138.566C452.391 138.566 448.972 144.794 448.961 145.682C448.95 146.57 453.168 146.869 453.168 146.869" fill="white"/>
<path d="M452.391 138.566C452.391 138.566 448.972 144.794 448.961 145.682C448.95 146.57 453.168 146.869 453.168 146.869" stroke="#263238" stroke-linecap="round" stroke-linejoin="round"/>
<path d="M459.739 139.832C459.739 140.509 459.439 141.064 459.017 141.086C458.595 141.108 458.24 140.553 458.218 139.876C458.196 139.199 458.518 138.644 458.939 138.633C459.361 138.622 459.716 139.177 459.739 139.832Z" fill="#263238"/>
<path d="M454.91 151.396C454.91 151.396 461.47 150.164 462.68 147.855" stroke="#263238" stroke-linecap="round" stroke-linejoin="round"/>
<path d="M448.195 126.51L453.301 125.023C453.301 125.023 460.461 121.693 461.981 122.159C463.502 122.625 466.588 127.365 466.488 130.073C466.488 130.073 471.305 134.313 471.916 140.463L473.382 139.797C473.382 139.797 473.303 134.247 476.456 134.391C479.608 134.535 481.029 138.309 480.818 139.497C480.607 140.685 477.155 145.613 477.155 145.613C477.155 145.613 485.058 144.437 485.314 128.963C485.569 113.49 468.608 110.97 460.361 111.603C456.185 112.003 451.989 112.158 447.796 112.069L448.262 116.509L444.932 117.386L447.44 120.461L444.688 121.715L448.195 126.51Z" fill="#263238"/>
<path d="M476.789 295.23C476.789 295.23 496.88 300.547 502.319 315.51" stroke="white" stroke-linecap="round" stroke-linejoin="round"/>
<path d="M485.991 303.277C485.991 303.277 475.135 321.359 458.519 330.75" stroke="white" stroke-linecap="round" stroke-linejoin="round"/>
<path d="M470.729 404.965C470.729 404.965 476.9 403.577 478.587 401.18" stroke="white" stroke-linecap="round" stroke-linejoin="round"/>
<path d="M505.094 407.262C505.094 407.262 511.132 404.132 517.148 407.262" stroke="white" stroke-linecap="round" stroke-linejoin="round"/>
<path d="M524.641 323.078C524.641 323.078 514.507 349.33 509.379 351.761" stroke="white" stroke-linecap="round" stroke-linejoin="round"/>
<path d="M480.264 281.965C480.541 284.818 492.474 298.038 502.319 303.277" stroke="white" stroke-linecap="round" stroke-linejoin="round"/>
<path d="M490.441 270.809C491.878 274.348 492.177 278.247 491.296 281.964C490.339 285.172 490.339 288.59 491.296 291.799" stroke="white" stroke-linecap="round" stroke-linejoin="round"/>
<path d="M468.73 216.219C468.73 216.219 487.412 240.395 507.492 248.331" stroke="#263238" stroke-linecap="round" stroke-linejoin="round"/>
<path d="M488.066 177.137C488.066 177.137 488 193.576 499.855 200.991" stroke="#263238" stroke-linecap="round" stroke-linejoin="round"/>
<path d="M494.737 201.125C492.228 203.59 494.959 234.514 494.959 234.514C494.959 234.514 480.384 240.22 475.822 243.894C471.26 247.568 449.648 256.004 449.648 256.004C449.648 256.004 446.318 267.348 450.47 267.736C454.621 268.125 497.612 253.473 507.446 248.334C507.446 248.334 513.851 210.594 513.806 200.992" fill="white"/>
<path d="M494.737 201.125C492.228 203.59 494.959 234.514 494.959 234.514C494.959 234.514 480.384 240.22 475.822 243.894C471.26 247.568 449.648 256.004 449.648 256.004C449.648 256.004 446.318 267.348 450.47 267.736C454.621 268.125 497.612 253.473 507.446 248.334C507.446 248.334 513.851 210.594 513.806 200.992" stroke="#263238" stroke-linecap="round" stroke-linejoin="round"/>
<path d="M451.359 255.325C449.361 254.948 445.81 253.638 443.945 254.071C442.08 254.504 438.672 256.557 435.165 257.401C431.657 258.245 433.111 259.621 435.165 260.032C436.668 260.282 438.202 260.282 439.704 260.032L436.852 262.818C435.218 263.702 433.532 264.484 431.801 265.16C430.769 265.16 427.117 266.148 427.361 267.702C427.605 269.256 429.703 269.078 432.045 269.167C432.045 269.167 428.316 269.911 428.715 272.031C428.96 273.485 433.155 272.175 435.298 272.175C435.298 272.175 433.544 274.084 434.854 274.673C436.164 275.261 439.072 273.796 439.072 273.796C439.072 273.796 438.961 275.372 440.271 275.527C441.58 275.683 444.877 274.417 447.119 273.063C449.327 271.64 451.441 270.075 453.446 268.379C454.295 267.603 455.267 266.973 456.321 266.514" fill="white"/>
<path d="M451.359 255.325C449.361 254.948 445.81 253.638 443.945 254.071C442.08 254.504 438.672 256.557 435.165 257.401C431.657 258.245 433.111 259.621 435.165 260.032C436.668 260.282 438.202 260.282 439.704 260.032L436.852 262.818C435.218 263.702 433.532 264.484 431.801 265.16C430.769 265.16 427.117 266.148 427.361 267.702C427.605 269.256 429.703 269.078 432.045 269.167C432.045 269.167 428.316 269.911 428.715 272.031C428.96 273.485 433.155 272.175 435.298 272.175C435.298 272.175 433.544 274.084 434.854 274.673C436.164 275.261 439.072 273.796 439.072 273.796C439.072 273.796 438.961 275.372 440.271 275.527C441.58 275.683 444.877 274.417 447.119 273.063C449.327 271.64 451.441 270.075 453.446 268.379C454.295 267.603 455.267 266.973 456.321 266.514" stroke="#263238" stroke-linecap="round" stroke-linejoin="round"/>
<path d="M432.1 269.213C433.131 269.158 434.158 269.039 435.174 268.858C436.051 268.636 436.928 268.348 436.928 268.348" stroke="#263238" stroke-linecap="round" stroke-linejoin="round"/>
<path d="M435.309 272.22C436.65 272.031 437.942 271.587 439.116 270.91" stroke="#263238" stroke-linecap="round" stroke-linejoin="round"/>
<path d="M439.082 273.841C440.074 273.716 441.024 273.363 441.857 272.809" stroke="#263238" stroke-linecap="round" stroke-linejoin="round"/>
<path d="M437.207 263.66C437.207 263.66 436.408 265.492 437.207 266.513C438.006 267.534 438.972 267.623 439.116 268.733C439.26 269.843 441.169 269.843 441.858 270.564C442.546 271.286 443.068 272.673 445.265 272.784" stroke="#263238" stroke-linecap="round" stroke-linejoin="round"/>
<path d="M493.805 169.055C486.246 186.16 493.805 209.892 493.805 209.892C493.805 209.892 512.098 216.108 513.785 213.432C515.472 210.757 518.558 197.637 519.08 191.577" fill="#999999"/>
<path d="M493.805 169.055C486.246 186.16 493.805 209.892 493.805 209.892C493.805 209.892 512.098 216.108 513.785 213.432C515.472 210.757 518.558 197.637 519.08 191.577" stroke="#263238" stroke-linecap="round" stroke-linejoin="round"/>
<path d="M513.808 193.477C513.808 193.477 506.038 204.166 499.855 204.31" stroke="#263238" stroke-linecap="round" stroke-linejoin="round"/>
<path d="M236.084 462.206C236.084 462.206 234.186 454.957 236.406 452.271C240.38 447.454 235.917 443.391 239.913 441.737L241.589 443.68C241.911 441.715 240.979 435.71 248.394 434.933C257.363 433.989 257.529 440.483 258.017 442.703L257.862 439.695C261.692 439.695 259.705 443.513 265.499 449.751C267.018 451.436 268.174 453.414 268.896 455.564C269.618 457.715 269.89 459.99 269.695 462.25L236.084 462.206Z" fill="#263238"/>
<path d="M304.45 462.205C300.842 460.596 304.15 446.987 304.15 446.987C304.15 446.987 299.299 443.735 304.15 440.327C306.026 441.917 308.301 442.964 310.728 443.355C313.156 443.747 315.645 443.467 317.925 442.547C317.925 442.547 318.869 433.445 324.585 434.611C324.585 434.611 326.05 440.383 329.391 443.68C338.438 452.56 350.126 453.67 352.08 457.932C352.668 459.22 351.958 462.161 351.958 462.161L304.45 462.205Z" fill="#263238"/>
<path d="M289.032 245.181L293.472 254.594C293.472 254.594 311.832 292.534 323.076 335.979C323.342 337.011 329.159 357.591 324.497 408.839L327.161 417.83L324.253 432.682C324.253 432.682 328.626 438.998 328.471 441.063C328.471 441.063 317.681 443.072 314.041 445.003C311.243 446.513 302.841 454.804 302.841 454.804C300.454 454.316 300.243 444.681 300.243 444.681C300.243 444.681 295.259 359.134 293.827 355.448C292.395 351.763 283.649 335.868 269.996 299.493C269.996 299.493 269.685 350.298 266.044 363.152C262.792 374.585 266.644 406.586 266.644 406.586L264.424 442.206C264.424 442.206 272.105 450.187 265.878 452.329C265.878 452.329 261.715 444.326 249.86 442.506C243.833 441.573 236.329 452.274 236.329 452.274C233.688 451.43 237.439 437.988 237.439 437.988C229.037 374.585 235.219 386.062 233.554 355.071C232.444 335.18 226.839 250.087 233.454 243.172L289.032 245.181Z" fill="#BFBFBF"/>
<mask id="mask8_2422_1914" style="mask-type:luminance" maskUnits="userSpaceOnUse" x="230" y="243" width="99" height="212">
<path d="M289.032 245.181L293.472 254.594C293.472 254.594 311.832 292.534 323.076 335.979C323.342 337.011 329.159 357.591 324.497 408.839L327.161 417.83L324.253 432.682C324.253 432.682 328.626 438.998 328.471 441.063C328.471 441.063 317.681 443.072 314.041 445.003C311.243 446.513 302.841 454.804 302.841 454.804C300.454 454.316 300.243 444.681 300.243 444.681C300.243 444.681 295.259 359.134 293.827 355.448C292.395 351.763 283.649 335.868 269.996 299.493C269.996 299.493 269.685 350.298 266.044 363.152C262.792 374.585 266.644 406.586 266.644 406.586L264.424 442.206C264.424 442.206 272.105 450.187 265.878 452.329C265.878 452.329 261.715 444.326 249.86 442.506C243.833 441.573 236.329 452.274 236.329 452.274C233.688 451.43 237.439 437.988 237.439 437.988C229.037 374.585 235.219 386.062 233.554 355.071C232.444 335.18 226.839 250.087 233.454 243.172L289.032 245.181Z" fill="white"/>
</mask>
<g mask="url(#mask8_2422_1914)">
<path opacity="0.2" d="M230.369 274.485C260.051 276.816 285.747 267.103 296.903 262.031C294.783 257.28 293.484 254.594 293.484 254.594L289.044 245.192L233.544 243.172C231.191 245.669 230.358 258.357 230.369 274.485Z" fill="black"/>
<path opacity="0.2" d="M270.297 300.148C283.806 336.056 292.497 351.774 293.895 355.437C294.706 357.568 296.693 386.617 298.247 410.993C300.023 388.793 301.854 365.405 302.01 360.821C302.343 351.674 295.738 339.142 294.75 335.901C293.762 332.66 295.993 329.152 295.993 329.152L284.116 314.167C284.516 309.083 278.222 286.895 278.222 286.895C274.482 290.435 271.152 297.972 270.297 300.148Z" fill="black"/>
</g>
<path d="M289.032 245.181L293.472 254.594C293.472 254.594 311.832 292.534 323.076 335.979C323.342 337.011 329.159 357.591 324.497 408.839L327.161 417.83L324.253 432.682C324.253 432.682 328.626 438.998 328.471 441.063C328.471 441.063 317.681 443.072 314.041 445.003C311.243 446.513 302.841 454.804 302.841 454.804C300.454 454.316 300.243 444.681 300.243 444.681C300.243 444.681 295.259 359.134 293.827 355.448C292.395 351.763 283.649 335.868 269.996 299.493C269.996 299.493 269.685 350.298 266.044 363.152C262.792 374.585 266.644 406.586 266.644 406.586L264.424 442.206C264.424 442.206 272.105 450.187 265.878 452.329C265.878 452.329 261.715 444.326 249.86 442.506C243.833 441.573 236.329 452.274 236.329 452.274C233.688 451.43 237.439 437.988 237.439 437.988C229.037 374.585 235.219 386.062 233.554 355.071C232.444 335.18 226.839 250.087 233.454 243.172L289.032 245.181Z" stroke="#263238" stroke-linecap="round" stroke-linejoin="round"/>
<path d="M270.039 299.493C270.039 299.493 276.821 286.406 282.604 282.754" stroke="#263238" stroke-linecap="round" stroke-linejoin="round"/>
<path d="M285.158 278.512C285.158 278.512 264.557 284.783 257.408 285.993" stroke="#263238" stroke-linecap="round" stroke-linejoin="round"/>
<path d="M274.612 257.488C275.5 274.638 281.55 277.557 275.722 281.298C275.722 281.298 275.889 289.323 272.98 294.407" stroke="#263238" stroke-linecap="round" stroke-linejoin="round"/>
<path d="M238.515 250.93C238.515 250.93 240.946 277.292 232.832 282.254" stroke="#263238" stroke-linecap="round" stroke-linejoin="round"/>
<path d="M232.832 259.43C232.832 259.43 232.221 276.979 232.832 291.12C232.832 291.12 234.863 350.894 236.894 358.397C238.926 365.901 233.764 377.267 234.208 409.701" stroke="#263238" stroke-linecap="round" stroke-linejoin="round"/>
<path d="M252.28 435.087C250.359 434.669 248.352 434.936 246.607 435.842" stroke="#263238" stroke-linecap="round" stroke-linejoin="round"/>
<path d="M264.49 442.206C261.945 439.728 258.994 437.705 255.766 436.223" stroke="#263238" stroke-linecap="round" stroke-linejoin="round"/>
<path d="M261.159 303.633C256.608 308.739 249.393 318.363 242 319.173" stroke="#263238" stroke-linecap="round" stroke-linejoin="round"/>
<path d="M268.119 295.328C266.721 297.093 265.278 298.825 263.812 300.545" stroke="#263238" stroke-linecap="round" stroke-linejoin="round"/>
<path d="M261.636 355.07C261.636 355.07 251.291 369.156 245.619 369.966" stroke="#263238" stroke-linecap="round" stroke-linejoin="round"/>
<path d="M273.803 296.949C273.803 296.949 292.229 348.265 298.633 353.326C298.633 353.326 299.355 391.066 299.566 404.242C299.777 417.418 302.807 434.933 302.807 434.933" stroke="#263238" stroke-linecap="round" stroke-linejoin="round"/>
<path d="M322.478 434.555C322.478 434.555 315.385 437.008 311.933 438.573C309.813 439.608 308.152 441.391 307.271 443.579" stroke="#263238" stroke-linecap="round" stroke-linejoin="round"/>
<path d="M304.528 334.823C294.638 328.618 281.595 320.859 276.334 309.926" stroke="#263238" stroke-linecap="round" stroke-linejoin="round"/>
<path d="M313.153 339.942C311.277 338.909 309.434 337.833 307.603 336.723" stroke="#263238" stroke-linecap="round" stroke-linejoin="round"/>
<path d="M281.983 264.426C276.666 264.348 270.883 263.649 266.299 260.641" stroke="#263238" stroke-linecap="round" stroke-linejoin="round"/>
<path d="M290.43 263.926C288.909 264.137 287.378 264.27 285.846 264.348" stroke="#263238" stroke-linecap="round" stroke-linejoin="round"/>
<path d="M300.299 146.088C296.236 139.939 275.535 138.374 262.248 138.374C248.961 138.374 232.833 136.154 225.552 151.139C220.002 162.583 232.789 223.1 232.789 223.1L229.659 249.229C253.723 256.777 294.949 255.112 294.949 255.112L289.399 231.492C289.399 231.492 304.362 152.227 300.299 146.088Z" fill="#263238"/>
<path d="M254.354 123.18C254.354 123.18 256.141 137.421 250.725 140.496C250.725 140.496 253.433 150.941 262.935 151.596C272.436 152.251 276.632 142.05 276.632 142.05L254.354 123.18Z" fill="white" stroke="#263238" stroke-linecap="round" stroke-linejoin="round"/>
<path d="M304.71 86.6131L329.026 84.3701C329.577 84.3193 330.126 84.4895 330.552 84.8432C330.977 85.197 331.245 85.7053 331.296 86.2564L332.897 103.61L304.468 106.232L302.867 88.8787C302.817 88.3351 302.982 87.7935 303.326 87.37C303.671 86.9465 304.167 86.6748 304.71 86.6131Z" fill="#D27D2D"/>
<mask id="mask9_2422_1914" style="mask-type:luminance" maskUnits="userSpaceOnUse" x="302" y="84" width="31" height="23">
<path d="M304.71 86.6131L329.026 84.3701C329.577 84.3193 330.126 84.4895 330.552 84.8432C330.977 85.197 331.245 85.7053 331.296 86.2564L332.897 103.61L304.468 106.232L302.867 88.8787C302.817 88.3351 302.982 87.7935 303.326 87.37C303.671 86.9465 304.167 86.6748 304.71 86.6131Z" fill="white"/>
</mask>
<g mask="url(#mask9_2422_1914)">
<path opacity="0.3" d="M304.71 86.6131L329.026 84.3701C329.577 84.3193 330.126 84.4895 330.552 84.8432C330.977 85.197 331.245 85.7053 331.296 86.2564L332.897 103.61L304.468 106.232L302.867 88.8787C302.817 88.3351 302.982 87.7935 303.326 87.37C303.671 86.9465 304.167 86.6748 304.71 86.6131Z" fill="black" fill-opacity="0.7"/>
<path opacity="0.3" d="M329.735 86.1289L322.738 86.7742L324.029 100.768L331.026 100.122L329.735 86.1289Z" fill="white" fill-opacity="0.7"/>
</g>
<path d="M304.71 86.6131L329.026 84.3701C329.577 84.3193 330.126 84.4895 330.552 84.8432C330.977 85.197 331.245 85.7053 331.296 86.2564L332.897 103.61L304.468 106.232L302.867 88.8787C302.817 88.3351 302.982 87.7935 303.326 87.37C303.671 86.9465 304.167 86.6748 304.71 86.6131Z" stroke="#263238" stroke-linecap="round" stroke-linejoin="round"/>
<path d="M346.754 82.7108L371.071 80.4678C371.622 80.417 372.17 80.5872 372.596 80.9409C373.022 81.2947 373.289 81.803 373.34 82.3541L374.941 99.7075L346.468 102.334L344.867 84.9804C344.817 84.4293 344.987 83.8806 345.341 83.4549C345.694 83.0293 346.203 82.7616 346.754 82.7108Z" fill="#D27D2D"/>
<mask id="mask10_2422_1914" style="mask-type:luminance" maskUnits="userSpaceOnUse" x="344" y="80" width="31" height="23">
<path d="M346.754 82.7108L371.071 80.4678C371.622 80.417 372.17 80.5872 372.596 80.9409C373.022 81.2947 373.289 81.803 373.34 82.3541L374.941 99.7075L346.468 102.334L344.867 84.9804C344.817 84.4293 344.987 83.8806 345.341 83.4549C345.694 83.0293 346.203 82.7616 346.754 82.7108Z" fill="white"/>
</mask>
<g mask="url(#mask10_2422_1914)">
<path opacity="0.3" d="M346.754 82.7108L371.071 80.4678C371.622 80.417 372.17 80.5872 372.596 80.9409C373.022 81.2947 373.289 81.803 373.34 82.3541L374.941 99.7075L346.468 102.334L344.867 84.9804C344.817 84.4293 344.987 83.8806 345.341 83.4549C345.694 83.0293 346.203 82.7616 346.754 82.7108Z" fill="black" fill-opacity="0.7"/>
<path opacity="0.3" d="M371.277 82.3066L367.055 82.696L368.345 96.6892L372.568 96.2998L371.277 82.3066Z" fill="white" fill-opacity="0.7"/>
</g>
<path d="M346.754 82.7108L371.071 80.4678C371.622 80.417 372.17 80.5872 372.596 80.9409C373.022 81.2947 373.289 81.803 373.34 82.3541L374.941 99.7075L346.468 102.334L344.867 84.9804C344.817 84.4293 344.987 83.8806 345.341 83.4549C345.694 83.0293 346.203 82.7616 346.754 82.7108Z" stroke="#263238" stroke-linecap="round" stroke-linejoin="round"/>
<path d="M337.918 83.5194L362.235 81.2764C362.786 81.2256 363.335 81.3957 363.76 81.7495C364.186 82.1032 364.454 82.6116 364.505 83.1627L366.105 100.516L337.588 103.147L335.988 85.7931C335.962 85.5165 335.992 85.2375 336.076 84.9726C336.159 84.7076 336.295 84.4621 336.475 84.2503C336.655 84.0385 336.875 83.8648 337.123 83.7393C337.371 83.6138 337.641 83.539 337.918 83.5194Z" fill="#D27D2D" stroke="#263238" stroke-linecap="round" stroke-linejoin="round"/>
<path d="M379.92 79.6444L404.237 77.4014C404.788 77.3506 405.336 77.5207 405.762 77.8745C406.188 78.2283 406.455 78.7366 406.506 79.2877L408.107 96.641L379.634 99.2673L378.033 81.914C377.983 81.3629 378.153 80.8142 378.507 80.3885C378.86 79.9629 379.369 79.6952 379.92 79.6444Z" fill="#D27D2D" stroke="#263238" stroke-linecap="round" stroke-linejoin="round"/>
<path opacity="0.3" d="M362.903 83.0703L355.906 83.7156L357.197 97.7088L364.194 97.0635L362.903 83.0703Z" fill="white" fill-opacity="0.7"/>
<path opacity="0.3" d="M404.442 79.2266L397.445 79.872L398.736 93.8652L405.733 93.2198L404.442 79.2266Z" fill="white" fill-opacity="0.7"/>
<path d="M420.123 91.4539L427.494 171.241L298.9 183.118L291.574 103.309C291.451 101.975 291.862 100.647 292.718 99.6168C293.573 98.5864 294.803 97.9381 296.136 97.8143L414.64 86.8808C415.301 86.8197 415.967 86.8897 416.6 87.0867C417.234 87.2837 417.822 87.6038 418.331 88.0287C418.841 88.4536 419.261 88.9749 419.569 89.5626C419.876 90.1504 420.065 90.7932 420.123 91.4539Z" fill="#D27D2D"/>
<mask id="mask11_2422_1914" style="mask-type:luminance" maskUnits="userSpaceOnUse" x="291" y="86" width="137" height="98">
<path d="M420.123 91.4539L427.494 171.241L298.9 183.118L291.574 103.309C291.451 101.975 291.862 100.647 292.718 99.6168C293.573 98.5864 294.803 97.9381 296.136 97.8143L414.64 86.8808C415.301 86.8197 415.967 86.8897 416.6 87.0867C417.234 87.2837 417.822 87.6038 418.331 88.0287C418.841 88.4536 419.261 88.9749 419.569 89.5626C419.876 90.1504 420.065 90.7932 420.123 91.4539Z" fill="white"/>
</mask>
<g mask="url(#mask11_2422_1914)">
<path opacity="0.3" d="M420.123 91.4539L427.494 171.241L298.9 183.118L291.574 103.309C291.451 101.975 291.862 100.647 292.718 99.6168C293.573 98.5864 294.803 97.9381 296.136 97.8143L414.64 86.8808C415.301 86.8197 415.967 86.8897 416.6 87.0867C417.234 87.2837 417.822 87.6038 418.331 88.0287C418.841 88.4536 419.261 88.9749 419.569 89.5626C419.876 90.1504 420.065 90.7932 420.123 91.4539Z" fill="black" fill-opacity="0.7"/>
</g>
<path d="M420.123 91.4539L427.494 171.241L298.9 183.118L291.574 103.309C291.451 101.975 291.862 100.647 292.718 99.6168C293.573 98.5864 294.803 97.9381 296.136 97.8143L414.64 86.8808C415.301 86.8197 415.967 86.8897 416.6 87.0867C417.234 87.2837 417.822 87.6038 418.331 88.0287C418.841 88.4536 419.261 88.9749 419.569 89.5626C419.876 90.1504 420.065 90.7932 420.123 91.4539Z" stroke="#263238" stroke-linecap="round" stroke-linejoin="round"/>
<path d="M420.123 91.4554L427.493 171.242L332.033 180.045L324.674 100.258C324.55 98.9242 324.962 97.5962 325.817 96.5658C326.673 95.5354 327.902 94.887 329.236 94.7632L414.584 86.8822C415.249 86.8134 415.921 86.8776 416.561 87.071C417.201 87.2644 417.796 87.5832 418.311 88.0089C418.827 88.4345 419.252 88.9584 419.563 89.5501C419.874 90.1418 420.064 90.7895 420.123 91.4554Z" fill="#D27D2D" stroke="#263238" stroke-linecap="round" stroke-linejoin="round"/>
<path opacity="0.3" d="M413.94 94.8853L332.388 102.411C331.845 102.448 331.309 102.272 330.894 101.919C330.479 101.567 330.219 101.066 330.168 100.524C330.128 99.9822 330.302 99.4461 330.652 99.031C331.003 98.6159 331.503 98.3549 332.044 98.3041L413.595 90.7783C414.138 90.7412 414.675 90.9177 415.089 91.2702C415.504 91.6227 415.765 92.1234 415.815 92.6653C415.85 93.206 415.674 93.739 415.324 94.1528C414.974 94.5666 414.478 94.8291 413.94 94.8853Z" fill="white" fill-opacity="0.7"/>
<path d="M270.639 94.9392C270.639 94.9392 251.825 91.1652 249.716 103.275C247.607 115.385 254.5 120.536 254.5 120.536L270.639 94.9392Z" fill="#263238"/>
<path d="M254.5 127.188C252.35 121.168 252.014 114.649 253.534 108.44C255.377 100.67 264.634 89.9804 278.676 99.6929C285.902 104.699 286.346 115.566 284.093 125.512C283.56 127.887 283.959 130.207 283.171 132.394C280.396 140.053 275.324 145.947 272.549 146.08C267.92 146.313 258.662 140.707 259.04 135.823" fill="white"/>
<path d="M254.5 127.188C252.35 121.168 252.014 114.649 253.534 108.44C255.377 100.67 264.634 89.9804 278.676 99.6929C285.902 104.699 286.346 115.566 284.093 125.512C283.56 127.887 283.959 130.207 283.171 132.394C280.396 140.053 275.324 145.947 272.549 146.08C267.92 146.313 258.662 140.707 259.04 135.823" stroke="#263238" stroke-linecap="round" stroke-linejoin="round"/>
<path d="M273.247 123.667C273.247 123.667 269.507 120.959 265.91 123.179" stroke="#263238" stroke-linecap="round" stroke-linejoin="round"/>
<path d="M280.307 123.179C280.307 123.179 283.137 120.582 284.98 120.959" stroke="#263238" stroke-linecap="round" stroke-linejoin="round"/>
<path d="M267.963 127.817C267.963 128.506 268.307 129.072 268.74 129.072C269.173 129.072 269.528 128.506 269.528 127.817C269.528 127.129 269.173 126.574 268.74 126.574C268.307 126.574 267.963 127.129 267.963 127.817Z" fill="#263238"/>
<path d="M280.309 128.373C280.744 128.373 281.097 127.817 281.097 127.13C281.097 126.443 280.744 125.887 280.309 125.887C279.873 125.887 279.521 126.443 279.521 127.13C279.521 127.817 279.873 128.373 280.309 128.373Z" fill="#263238"/>
<path d="M278.72 125.797C277.344 127.595 279.275 134.444 278.72 134.932C278.165 135.421 274.635 134.033 274.635 134.033C274.635 134.033 273.814 132.99 275.535 132.435" stroke="#263238" stroke-linecap="round" stroke-linejoin="round"/>
<path d="M275.589 138.376C275.589 138.376 270.849 138.376 269.584 136.645" stroke="#263238" stroke-linecap="round" stroke-linejoin="round"/>
<path d="M264.246 112.721L263.88 118.448C263.88 118.448 259.817 120.546 258.796 122.677C258.188 124.073 257.966 125.607 258.152 127.117C258.152 127.117 255.688 122.811 254.356 123.166C253.879 123.288 253.879 125.097 253.879 125.097C253.879 125.097 248.329 112.71 253.346 106.161C258.363 99.6114 264.246 112.721 264.246 112.721Z" fill="#757575" stroke="#263238" stroke-linecap="round" stroke-linejoin="round"/>
<path d="M256.42 125.889C256.42 125.889 255.31 121.726 251.569 120.627C247.829 119.528 250.393 129.507 253.578 130.806C256.764 132.105 257.563 133.026 257.752 131.838" fill="white"/>
<path d="M256.42 125.889C256.42 125.889 255.31 121.726 251.569 120.627C247.829 119.528 250.393 129.507 253.578 130.806C256.764 132.105 257.563 133.026 257.752 131.838" stroke="#263238" stroke-linecap="round" stroke-linejoin="round"/>
<path d="M251.325 112.003C251.014 111.581 249.637 100.903 256.686 96.1079C263.734 91.3127 275.645 91.8233 283.226 98.4611C290.807 105.099 288.654 116.61 283.226 120.539V115.733C283.226 115.733 280.729 120.55 273.236 120.95L275.523 117.42C275.523 117.42 271.837 119.64 265.344 119.451C265.344 119.451 268.396 117.02 267.952 114.856C267.964 114.856 257.652 120.661 251.325 112.003Z" fill="#263238"/>
<path d="M252.646 150.496C247.451 151.118 240.059 157.9 244.876 169.943C247.951 177.58 273.214 173.04 273.214 173.04C282.583 169.177 296.269 155.28 306.315 148.831C306.315 148.831 304.195 135.511 301.753 137.398C290.397 146.089 281.062 146.689 265.222 154.303C265.256 154.259 255.91 150.107 252.646 150.496Z" fill="white" stroke="#263238" stroke-linecap="round" stroke-linejoin="round"/>
<path d="M264.245 165.281C264.089 170.254 266.132 171.131 269.573 172.308L264.245 165.281Z" fill="white"/>
<path d="M264.245 165.281C264.089 170.254 266.132 171.131 269.573 172.308" stroke="#263238" stroke-linecap="round" stroke-linejoin="round"/>
<path d="M300.998 138.376C301.231 137.654 305.438 130.262 306.626 128.386C307.813 126.51 313.119 124.812 315.173 123.679C317.226 122.547 317.393 120.827 318.503 122.059C319.613 123.291 318.503 126.099 312.353 129.085C314.538 129.206 316.728 129.206 318.913 129.085C320.556 128.841 322.021 127.353 322.754 128.386C323.487 129.418 323.631 131.272 319.968 132.404C318.226 133.035 316.401 133.409 314.551 133.514C316.343 133.897 318.105 134.409 319.824 135.046C320.412 135.479 321.289 136.489 322.166 136.644C323.043 136.8 323.997 137.754 322.388 138.864C321.817 139.18 321.178 139.351 320.526 139.362C319.874 139.374 319.229 139.226 318.647 138.931C318.647 138.931 322.898 140.984 321.577 142.261C320.257 143.537 316.027 143.282 316.027 143.282C316.027 143.282 309.756 150.93 304.45 149.331" fill="white"/>
<path d="M300.998 138.376C301.231 137.654 305.438 130.262 306.626 128.386C307.813 126.51 313.119 124.812 315.173 123.679C317.226 122.547 317.393 120.827 318.503 122.059C319.613 123.291 318.503 126.099 312.353 129.085C314.538 129.206 316.728 129.206 318.913 129.085C320.556 128.841 322.021 127.353 322.754 128.386C323.487 129.418 323.631 131.272 319.968 132.404C318.226 133.035 316.401 133.409 314.551 133.514C316.343 133.897 318.105 134.409 319.824 135.046C320.412 135.479 321.289 136.489 322.166 136.644C323.043 136.8 323.997 137.754 322.388 138.864C321.817 139.18 321.178 139.351 320.526 139.362C319.874 139.374 319.229 139.226 318.647 138.931C318.647 138.931 322.898 140.984 321.577 142.261C320.257 143.537 316.027 143.282 316.027 143.282C316.027 143.282 309.756 150.93 304.45 149.331" stroke="#263238" stroke-linecap="round" stroke-linejoin="round"/>
<path d="M308.512 128.375C308.871 128.458 309.2 128.639 309.462 128.898C309.725 129.156 309.91 129.483 309.999 129.84C310.365 131.15 311.442 131.228 312.097 132.693C312.752 134.158 312.563 136.423 313.207 137.2C313.851 137.977 313.207 141.251 313.207 141.251" stroke="#263238" stroke-linecap="round" stroke-linejoin="round"/>
<path d="M253.733 149.552C251.013 146.088 244.908 147.654 244.908 147.654" stroke="white" stroke-linecap="round" stroke-linejoin="round"/>
<path d="M241.578 141.273C241.578 141.273 247.861 142.195 249.714 147.423" stroke="white" stroke-linecap="round" stroke-linejoin="round"/>
<path d="M252.647 174.373C252.647 174.373 246.519 179.113 237.195 172.309" stroke="white" stroke-linecap="round" stroke-linejoin="round"/>
<path d="M244.909 175.805C244.909 175.805 241.801 180.1 234.23 180.045" stroke="white" stroke-linecap="round" stroke-linejoin="round"/>
<path d="M283.847 229.852C283.847 229.852 267.819 242.628 251.535 240.952" stroke="white" stroke-linecap="round" stroke-linejoin="round"/>
<path d="M240.525 201.777C240.525 201.777 265.4 220.026 283.815 221.191" stroke="white" stroke-linecap="round" stroke-linejoin="round"/>
<path d="M241.18 336.87C245.459 334.496 250.49 333.868 255.221 335.116C263.335 337.158 284.414 367.306 287.345 370.247C290.275 373.189 295.758 374.687 300.809 380.004C308.801 388.34 320.423 395.711 321.599 395.711C322.776 395.711 323.719 394.978 325.184 394.69C326.65 394.401 337.994 393.369 337.994 393.369C337.994 393.369 341.801 394.212 337.994 395.844C334.187 397.476 334.475 398.93 334.475 398.93C334.475 398.93 333.709 400.162 335.241 401.339C336.773 402.515 337.672 401.871 339.859 404.968C342.045 408.065 336.773 406.311 336.773 406.311C336.773 406.311 337.938 409.641 335.596 409.308C333.254 408.975 335.308 412.561 331.5 412.072C327.693 411.584 319.546 406.445 317.503 401.061C317.503 401.061 284.27 385.177 279.297 381.081C274.324 376.985 253.39 355.018 251.958 354.73" fill="#263238"/>
<path d="M328.126 366.617H352.546C353.099 366.617 353.63 366.837 354.021 367.228C354.413 367.62 354.633 368.151 354.633 368.704V386.131H326.039V368.704C326.039 368.151 326.259 367.62 326.65 367.228C327.042 366.837 327.572 366.617 328.126 366.617Z" fill="#D27D2D"/>
<mask id="mask12_2422_1914" style="mask-type:luminance" maskUnits="userSpaceOnUse" x="326" y="366" width="29" height="21">
<path d="M328.126 366.617H352.546C353.099 366.617 353.63 366.837 354.021 367.228C354.413 367.62 354.633 368.151 354.633 368.704V386.131H326.039V368.704C326.039 368.151 326.259 367.62 326.65 367.228C327.042 366.837 327.572 366.617 328.126 366.617Z" fill="white"/>
</mask>
<g mask="url(#mask12_2422_1914)">
<path opacity="0.3" d="M328.126 366.617H352.546C353.099 366.617 353.63 366.837 354.021 367.228C354.413 367.62 354.633 368.151 354.633 368.704V386.131H326.039V368.704C326.039 368.151 326.259 367.62 326.65 367.228C327.042 366.837 327.572 366.617 328.126 366.617Z" fill="black" fill-opacity="0.7"/>
<path opacity="0.3" d="M353.047 368.461H346.021V382.514H353.047V368.461Z" fill="white" fill-opacity="0.7"/>
</g>
<path d="M328.126 366.617H352.546C353.099 366.617 353.63 366.837 354.021 367.228C354.413 367.62 354.633 368.151 354.633 368.704V386.131H326.039V368.704C326.039 368.151 326.259 367.62 326.65 367.228C327.042 366.837 327.572 366.617 328.126 366.617Z" stroke="#263238" stroke-linecap="round" stroke-linejoin="round"/>
<path d="M370.306 366.617H394.726C395.279 366.617 395.81 366.837 396.201 367.228C396.592 367.62 396.812 368.151 396.812 368.704V386.131H368.219V368.704C368.219 368.43 368.273 368.159 368.378 367.905C368.482 367.652 368.636 367.422 368.83 367.228C369.024 367.035 369.254 366.881 369.507 366.776C369.76 366.671 370.032 366.617 370.306 366.617Z" fill="#D27D2D"/>
<mask id="mask13_2422_1914" style="mask-type:luminance" maskUnits="userSpaceOnUse" x="368" y="366" width="29" height="21">
<path d="M370.306 366.617H394.726C395.279 366.617 395.81 366.837 396.201 367.228C396.592 367.62 396.812 368.151 396.812 368.704V386.131H368.219V368.704C368.219 368.43 368.273 368.159 368.378 367.905C368.482 367.652 368.636 367.422 368.83 367.228C369.024 367.035 369.254 366.881 369.507 366.776C369.76 366.671 370.032 366.617 370.306 366.617Z" fill="white"/>
</mask>
<g mask="url(#mask13_2422_1914)">
<path opacity="0.3" d="M370.306 366.617H394.726C395.279 366.617 395.81 366.837 396.201 367.228C396.592 367.62 396.812 368.151 396.812 368.704V386.131H368.219V368.704C368.219 368.43 368.273 368.159 368.378 367.905C368.482 367.652 368.636 367.422 368.83 367.228C369.024 367.035 369.254 366.881 369.507 366.776C369.76 366.671 370.032 366.617 370.306 366.617Z" fill="black" fill-opacity="0.7"/>
<path opacity="0.3" d="M394.76 368.461H390.52V382.514H394.76V368.461Z" fill="white" fill-opacity="0.7"/>
</g>
<path d="M370.306 366.617H394.726C395.279 366.617 395.81 366.837 396.201 367.228C396.592 367.62 396.812 368.151 396.812 368.704V386.131H368.219V368.704C368.219 368.43 368.273 368.159 368.378 367.905C368.482 367.652 368.636 367.422 368.83 367.228C369.024 367.035 369.254 366.881 369.507 366.776C369.76 366.671 370.032 366.617 370.306 366.617Z" stroke="#263238" stroke-linecap="round" stroke-linejoin="round"/>
<path d="M361.425 366.617H385.845C386.398 366.617 386.929 366.837 387.32 367.228C387.712 367.62 387.931 368.151 387.931 368.704V386.131H359.338V368.704C359.338 368.43 359.392 368.159 359.497 367.905C359.602 367.652 359.755 367.422 359.949 367.228C360.143 367.035 360.373 366.881 360.626 366.776C360.879 366.671 361.151 366.617 361.425 366.617Z" fill="#D27D2D" stroke="#263238" stroke-linecap="round" stroke-linejoin="round"/>
<path d="M403.607 366.617H428.027C428.581 366.617 429.112 366.837 429.503 367.228C429.894 367.62 430.114 368.151 430.114 368.704V386.131H401.521V368.704C401.521 368.151 401.74 367.62 402.132 367.228C402.523 366.837 403.054 366.617 403.607 366.617Z" fill="#D27D2D" stroke="#263238" stroke-linecap="round" stroke-linejoin="round"/>
<path opacity="0.3" d="M386.345 368.457H379.318V382.51H386.345V368.457Z" fill="white" fill-opacity="0.7"/>
<path opacity="0.3" d="M428.059 368.457H421.033V382.51H428.059V368.457Z" fill="white" fill-opacity="0.7"/>
<path d="M442.555 382.066V462.197H313.451V382.066C313.451 380.727 313.983 379.442 314.93 378.495C315.878 377.548 317.162 377.016 318.502 377.016H437.505C438.844 377.016 440.129 377.548 441.076 378.495C442.023 379.442 442.555 380.727 442.555 382.066Z" fill="#D27D2D"/>
<mask id="mask14_2422_1914" style="mask-type:luminance" maskUnits="userSpaceOnUse" x="313" y="377" width="130" height="86">
<path d="M442.555 382.066V462.197H313.451V382.066C313.451 380.727 313.983 379.442 314.93 378.495C315.878 377.548 317.162 377.016 318.502 377.016H437.505C438.844 377.016 440.129 377.548 441.076 378.495C442.023 379.442 442.555 380.727 442.555 382.066Z" fill="white"/>
</mask>
<g mask="url(#mask14_2422_1914)">
<path opacity="0.3" d="M442.555 382.066V462.197H313.451V382.066C313.451 380.727 313.983 379.442 314.93 378.495C315.878 377.548 317.162 377.016 318.502 377.016H437.505C438.844 377.016 440.129 377.548 441.076 378.495C442.023 379.442 442.555 380.727 442.555 382.066Z" fill="black" fill-opacity="0.7"/>
</g>
<path d="M442.555 382.066V462.197H313.451V382.066C313.451 380.727 313.983 379.442 314.93 378.495C315.878 377.548 317.162 377.016 318.502 377.016H437.505C438.844 377.016 440.129 377.548 441.076 378.495C442.023 379.442 442.555 380.727 442.555 382.066Z" stroke="#263238" stroke-linecap="round" stroke-linejoin="round"/>
<path d="M442.556 382.066V462.197H346.752V382.066C346.752 380.727 347.284 379.442 348.231 378.495C349.178 377.548 350.463 377.016 351.802 377.016H437.506C438.845 377.016 440.13 377.548 441.077 378.495C442.024 379.442 442.556 380.727 442.556 382.066Z" fill="#D27D2D" stroke="#263238" stroke-linecap="round" stroke-linejoin="round"/>
<path opacity="0.3" d="M436.073 384.921H354.177C353.624 384.921 353.093 384.701 352.702 384.31C352.31 383.919 352.09 383.388 352.09 382.834C352.084 382.557 352.134 382.28 352.236 382.022C352.338 381.764 352.491 381.528 352.686 381.33C352.88 381.131 353.112 380.974 353.368 380.866C353.624 380.758 353.899 380.703 354.177 380.703H436.073C436.626 380.703 437.157 380.923 437.549 381.314C437.94 381.706 438.16 382.236 438.16 382.79C438.166 383.068 438.116 383.344 438.014 383.602C437.912 383.86 437.759 384.096 437.564 384.294C437.37 384.493 437.138 384.651 436.882 384.758C436.626 384.866 436.351 384.921 436.073 384.921Z" fill="white" fill-opacity="0.7"/>
<path d="M284.469 462.199C277.809 462.199 268.452 457.914 257.674 453.386C246.496 448.679 233.764 443.706 220.844 442.963C216.027 442.685 218.946 462.199 218.946 462.199H208.401C208.401 462.199 197.989 448.302 196.779 435.859C196.779 435.859 205.282 430.608 207.324 430.309C208.029 430.235 208.736 430.202 209.444 430.209C211.731 430.209 214.783 430.309 214.783 430.309C214.295 430.02 206.514 425.336 202.218 420.574C198.677 416.645 197.057 410.44 196.935 406.732C197.072 404.277 197.342 401.832 197.745 399.406L253.156 400.328C253.156 400.328 253.756 400.749 254.821 401.537C261.248 406.222 284.736 423.671 296.48 436.824C300.276 441.076 302.84 444.872 303.217 447.647C304.982 460.445 294.515 462.199 284.469 462.199Z" fill="#757575" stroke="#263238" stroke-linecap="round" stroke-linejoin="round"/>
<path d="M296.491 436.799L269.54 442.961C264.919 445.604 260.876 449.148 257.652 453.384C246.474 448.677 233.742 443.704 220.822 442.961C216.005 442.683 218.924 462.197 218.924 462.197H208.379C208.379 462.197 197.989 448.3 196.779 435.857C196.779 435.857 206.592 449.843 208.989 456.947C208.989 456.947 212.797 443.804 218.979 438.532C216.187 435.387 213.014 432.601 209.533 430.24C211.82 430.24 214.872 430.34 214.872 430.34C214.384 430.051 206.603 425.367 202.307 420.605C198.766 416.676 197.334 410.46 197.023 406.764C196.868 404.943 197.09 399.438 197.09 399.438C197.09 399.438 238.415 405.332 254.91 401.569C261.259 406.231 284.747 423.646 296.491 436.799Z" fill="#263238"/>
<path d="M253.168 435.859C253.168 435.859 275.124 446.859 280.985 451.166C286.845 455.473 288.588 454.308 288.588 454.308" stroke="#263238" stroke-linecap="round" stroke-linejoin="round"/>
<path d="M202.229 434.691C202.229 434.691 207.501 442.739 207.779 445.148" stroke="#263238" stroke-linecap="round" stroke-linejoin="round"/>
<path d="M290.541 280.223C290.541 280.223 302.229 275.139 301.119 296.762C300.009 318.385 303.972 319.495 303.972 319.495C303.972 319.495 274.557 331.572 267.086 321.249C259.616 310.926 266.709 282.676 290.541 280.223Z" fill="#263238"/>
<path d="M288.909 319.498C288.909 319.498 276.81 325.203 275.711 330.476C274.612 335.748 259.461 327.812 259.461 327.812L270.439 312.027L288.909 319.498Z" fill="white" stroke="#263238" stroke-linecap="round" stroke-linejoin="round"/>
<path d="M209.577 377.37C181.827 412.713 204.349 429.762 235.806 426.943L229.502 436.933L245.33 439.674C245.33 439.674 257.463 431.749 274.002 423.28C302.151 408.85 313.529 409.716 310.632 395.274C307.734 380.833 273.236 371.465 238.648 386.683C238.615 386.672 219.834 364.361 209.577 377.37Z" fill="#757575" stroke="#263238" stroke-linecap="round" stroke-linejoin="round"/>
<path d="M219.257 454.307C219.257 454.307 226.483 434.327 229.502 433.217C232.521 432.107 243.932 436.436 245.331 439.655C245.331 439.655 249.182 433.749 250.759 436.258C252.335 438.767 250.059 442.918 250.759 446.093C251.458 449.267 259.261 453.707 262.38 454.296C265.499 454.884 267.275 456.638 267.275 458.391V462.199H219.257C218.724 460.951 218.449 459.609 218.449 458.253C218.449 456.896 218.724 455.554 219.257 454.307Z" fill="white" stroke="#263238" stroke-linecap="round" stroke-linejoin="round"/>
<path d="M250.759 442.961C250.759 442.961 244.399 446.102 242.079 445.181C239.759 444.26 243.267 450.453 244.144 451.042C245.021 451.63 250.804 448.988 250.804 448.988" stroke="#263238" stroke-linecap="round" stroke-linejoin="round"/>
<path d="M225.262 439.664C225.262 439.664 233.898 439.831 236.528 442.994" stroke="#263238" stroke-linecap="round" stroke-linejoin="round"/>
<path d="M219.256 454.305C219.256 454.305 233.02 457.524 234.185 457.524C236.078 457.148 237.935 456.61 239.735 455.914C239.735 455.914 243.509 457.812 246.018 458.989C248.527 460.165 264.888 458.989 264.888 458.989" stroke="#263238" stroke-linecap="round" stroke-linejoin="round"/>
<path d="M235.807 426.968C248.949 425.547 274.479 409.352 283.359 403.725C292.239 398.097 294.459 399.573 294.459 399.573" stroke="#263238" stroke-linecap="round" stroke-linejoin="round"/>
<path d="M197.012 399.385L199.11 383.456L204.171 379.638C212.374 359.736 249.537 322.562 259.671 322.684C274.889 322.861 277.576 338.834 279.451 356.317C281.327 373.799 257.618 371.169 257.618 371.169V375.553L244.131 382.535L252.301 382.28C252.301 382.28 228.802 405.124 197.012 399.385Z" fill="#D27D2D" stroke="#263238" stroke-linecap="round" stroke-linejoin="round"/>
<path d="M262.879 291.902C266.065 281.912 280.639 279.248 285.879 280.88C290.179 282.559 293.704 285.775 295.769 289.904C297.101 292.779 294.315 297.863 296.301 300.826C299.143 305.078 298.899 314.046 297.878 319.696C297.323 322.693 284.857 324.469 274.668 317.476C263.723 309.906 259.794 301.514 262.879 291.902Z" fill="white" stroke="#263238" stroke-linecap="round" stroke-linejoin="round"/>
<path d="M277.61 277.894C277.61 277.894 290.441 275.807 290.53 279.103C291.096 301.004 277.965 305.599 277.965 305.599C277.965 305.599 272.603 301.326 271.405 304.256C270.206 307.186 273.292 315.289 277.088 315.456C276.213 316.815 275.735 318.391 275.707 320.007C275.68 321.623 276.104 323.214 276.932 324.602C276.932 324.602 255.199 328.232 253.4 318.164C254.241 314.665 254.841 311.112 255.199 307.531C256.608 293.422 253.312 283.932 277.61 277.894Z" fill="#263238"/>
<path d="M294.748 300.215C297.423 302.624 299.343 302.624 299.31 303.489C299.21 306.187 295.98 307.53 295.98 307.53" fill="white"/>
<path d="M294.748 300.215C297.423 302.624 299.343 302.624 299.31 303.489C299.21 306.187 295.98 307.53 295.98 307.53" stroke="#263238" stroke-linecap="round" stroke-linejoin="round"/>
<path d="M295.914 312.027C294.024 312.667 291.984 312.717 290.064 312.172" stroke="#263238" stroke-linecap="round" stroke-linejoin="round"/>
<path d="M288.799 286.775C288.799 286.775 297.335 284.3 295.77 298.152C295.77 298.152 299.322 293.324 299.311 287.896C299.311 278.494 286.734 280.381 286.734 280.381L288.377 287.041" fill="#263238"/>
<path d="M296.558 293.555C296.235 293.34 295.871 293.193 295.49 293.122C295.108 293.052 294.716 293.059 294.338 293.144" stroke="#263238" stroke-linecap="round" stroke-linejoin="round"/>
<path d="M290.808 293.398C290.808 293.398 286.223 293.665 284.236 296.728" stroke="#263238" stroke-linecap="round" stroke-linejoin="round"/>
<path d="M289.708 300.694C289.775 301.427 289.464 302.06 289.009 302.104C288.554 302.148 288.132 301.582 288.055 300.85C287.977 300.117 288.299 299.484 288.754 299.44C289.209 299.396 289.642 299.962 289.708 300.694Z" fill="#263238"/>
<path d="M236.529 430.297C236.529 430.297 246.741 431.407 248.961 435.847" stroke="#263238" stroke-linecap="round" stroke-linejoin="round"/>
<path d="M262.381 330.174C266.66 327.801 271.691 327.172 276.422 328.421C284.548 330.474 305.615 360.611 308.546 363.552C311.476 366.494 316.96 367.992 322.01 373.309C330.002 381.645 341.624 389.016 342.8 389.016C343.977 389.016 344.92 388.283 346.386 387.994C347.851 387.706 359.195 386.673 359.195 386.673C359.195 386.673 363.002 387.528 359.195 389.149C355.388 390.769 355.676 392.246 355.676 392.246C355.676 392.246 354.922 393.467 356.442 394.643C357.963 395.82 358.873 395.176 361.06 398.273C363.247 401.37 357.974 399.616 357.974 399.616C357.974 399.616 359.14 402.946 356.797 402.613C354.455 402.28 356.509 405.865 352.702 405.377C348.894 404.889 340.747 399.749 338.704 394.366C338.704 394.366 305.471 378.482 300.498 374.386C295.525 370.29 274.613 348.323 273.137 348.034" fill="white"/>
<path d="M262.381 330.174C266.66 327.801 271.691 327.172 276.422 328.421C284.548 330.474 305.615 360.611 308.546 363.552C311.476 366.494 316.96 367.992 322.01 373.309C330.002 381.645 341.624 389.016 342.8 389.016C343.977 389.016 344.92 388.283 346.386 387.994C347.851 387.706 359.195 386.673 359.195 386.673C359.195 386.673 363.002 387.528 359.195 389.149C355.388 390.769 355.676 392.246 355.676 392.246C355.676 392.246 354.922 393.467 356.442 394.643C357.963 395.82 358.873 395.176 361.06 398.273C363.247 401.37 357.974 399.616 357.974 399.616C357.974 399.616 359.14 402.946 356.797 402.613C354.455 402.28 356.509 405.865 352.702 405.377C348.894 404.889 340.747 399.749 338.704 394.366C338.704 394.366 305.471 378.482 300.498 374.386C295.525 370.29 274.613 348.323 273.137 348.034" stroke="#263238" stroke-linecap="round" stroke-linejoin="round"/>
<path d="M257.607 326.955C257.607 326.955 273.991 322.571 279.708 325.79C285.424 329.009 296.258 343.938 296.258 343.938C296.258 343.938 283.049 355.76 278.964 354.683C274.879 353.606 262.38 351.842 262.38 351.842" fill="#D27D2D"/>
<path d="M257.607 326.955C257.607 326.955 273.991 322.571 279.708 325.79C285.424 329.009 296.258 343.938 296.258 343.938C296.258 343.938 283.049 355.76 278.964 354.683C274.879 353.606 262.38 351.842 262.38 351.842" stroke="#263238" stroke-linecap="round" stroke-linejoin="round"/>
<path d="M271.815 353.285C271.815 353.285 265.876 356.549 263.689 356.549" stroke="#263238" stroke-linecap="round" stroke-linejoin="round"/>
<path d="M262.381 336.914C262.88 337.791 262.714 347.392 273.137 350.378" stroke="#263238" stroke-linecap="round" stroke-linejoin="round"/>
<path d="M206.67 379.946C206.67 379.946 228.87 383.753 236.529 377.016" stroke="#263238" stroke-linecap="round" stroke-linejoin="round"/>
<path d="M244.12 382.532C244.12 382.532 238.57 381.556 236.528 384.408C234.485 387.261 223.363 389.958 223.363 389.958" stroke="#263238" stroke-linecap="round" stroke-linejoin="round"/>
<path d="M199.499 403.723C199.499 403.723 196.291 417.553 209.977 423.703" stroke="#263238" stroke-linecap="round" stroke-linejoin="round"/>
<path d="M206.67 404.676C206.67 404.676 206.748 411.492 208.89 415.221L215.694 417.441L223.309 413.201C223.309 413.201 221.688 404.488 221.544 402.723" stroke="#263238" stroke-linecap="round" stroke-linejoin="round"/>
</g>
</g>
</g>
<defs>
<clipPath id="clip0_2422_1914">
<rect width="700" height="500" fill="white"/>
</clipPath>
</defs>
</svg>
