<svg width="591" height="660" viewBox="0 0 591 660" fill="none" xmlns="http://www.w3.org/2000/svg">
<g clip-path="url(#clip0_991_3677)">
<path d="M562.935 621.488C559.253 622.782 555.299 623.107 551.455 622.429C547.611 621.752 544.006 620.097 540.988 617.622C533.301 611.17 530.888 600.541 528.93 590.698L523.13 561.586L535.273 569.948C544.006 575.961 552.935 582.167 558.982 590.877C565.029 599.587 567.668 611.477 562.81 620.901" fill="#E6E6E6"/>
<path d="M561.897 656.734C563.126 647.781 564.39 638.714 563.528 629.665C562.762 621.629 560.311 613.78 555.319 607.344C552.669 603.934 549.445 601.012 545.792 598.711C544.839 598.111 543.963 599.62 544.911 600.218C551.232 604.213 556.121 610.112 558.874 617.065C561.914 624.797 562.402 633.226 561.874 641.439C561.557 646.406 560.886 651.339 560.209 656.269C560.154 656.492 560.187 656.727 560.301 656.927C560.414 657.126 560.599 657.275 560.819 657.343C561.042 657.403 561.28 657.373 561.481 657.258C561.682 657.144 561.83 656.955 561.893 656.733L561.897 656.734Z" fill="#F2F2F2"/>
<path d="M517.885 508.034H9.85059V0H517.885V508.034Z" fill="white"/>
<path d="M517.885 508.034H9.85059V0H517.885V508.034ZM17.3567 500.528H510.379V7.50617H17.3567V500.528Z" fill="#E5E5E5"/>
<path d="M427.886 79.4824H207.886V86.3355H427.886V79.4824Z" fill="#E5E5E5"/>
<path d="M427.886 97.3008H207.886V104.154H427.886V97.3008Z" fill="#E5E5E5"/>
<path d="M427.886 115.119H207.886V121.972H427.886V115.119Z" fill="#E5E5E5"/>
<path d="M427.886 232.482H207.886V239.336H427.886V232.482Z" fill="#E5E5E5"/>
<path d="M427.886 250.301H207.886V257.154H427.886V250.301Z" fill="#E5E5E5"/>
<path d="M427.886 268.119H207.886V274.972H427.886V268.119Z" fill="#E5E5E5"/>
<path d="M427.886 385.482H207.886V392.336H427.886V385.482Z" fill="#E5E5E5"/>
<path d="M427.886 403.301H207.886V410.154H427.886V403.301Z" fill="#E5E5E5"/>
<path d="M427.886 421.119H207.886V427.972H427.886V421.119Z" fill="#E5E5E5"/>
<path d="M119.814 134.084C116.055 132.104 112.132 130.453 108.089 129.15L107.573 123.446L86.6626 121.193L84.005 128.484L76.5006 131.3C76.2321 131.402 75.9764 131.535 75.7391 131.696H75.731C75.3122 131.979 74.9555 132.345 74.6827 132.77C74.4099 133.196 74.2267 133.673 74.1444 134.171C74.0642 134.667 74.0832 135.174 74.2002 135.663L74.5968 137.289C75.1678 137.63 75.755 137.955 76.3418 138.265L76.7148 138.455C77.5716 138.899 78.4443 139.32 79.3406 139.708C79.523 139.788 79.7214 139.867 79.9038 139.946C79.9197 139.954 79.9274 139.954 79.9433 139.962C80.364 140.137 80.7842 140.303 81.2126 140.462C82.6198 141 84.0551 141.46 85.5122 141.842C89.2309 142.834 93.0631 143.335 96.9117 143.334C98.3158 143.334 99.7041 143.27 101.076 143.135C104.212 142.846 107.308 142.221 110.31 141.271C110.318 141.271 110.326 141.263 110.334 141.263C112.231 140.659 114.083 139.925 115.879 139.066C115.887 139.058 115.903 139.058 115.911 139.05C116.315 138.86 116.704 138.653 117.101 138.455L117.291 138.36C117.608 138.193 117.926 138.027 118.243 137.852C119.036 137.416 119.814 136.956 120.583 136.464C120.797 136.337 121.004 136.202 121.218 136.059C121.519 135.861 121.821 135.655 122.114 135.441C121.376 134.965 120.607 134.513 119.814 134.084Z" fill="#3F3D56"/>
<path d="M80.5703 137.597L79.2614 131.688H75.8423C75.8079 131.688 75.7735 131.691 75.7393 131.695H75.7312C74.5025 131.799 73.3192 132.208 72.2885 132.885C71.5894 133.332 70.9679 133.889 70.4482 134.535C71.4635 135.305 72.5186 136.019 73.6055 136.701L73.6531 136.725C73.9622 136.915 74.2798 137.106 74.5971 137.288C75.1681 137.629 75.7553 137.954 76.3421 138.264L76.7151 138.454C77.5719 138.898 78.4446 139.319 79.3409 139.708C79.5233 139.787 79.7217 139.866 79.9041 139.946C79.92 139.953 79.9278 139.953 79.9436 139.961C80.3643 140.136 80.7846 140.303 81.213 140.461L80.5703 137.597Z" fill="#3F3D56"/>
<path d="M96.2974 117.587C104.615 117.587 111.358 110.844 111.358 102.527C111.358 94.2094 104.615 87.4668 96.2974 87.4668C87.9799 87.4668 81.2373 94.2094 81.2373 102.527C81.2373 110.844 87.9799 117.587 96.2974 117.587Z" fill="#FFB8B8"/>
<path d="M86.1865 95.1918C87.7455 97.0367 90.3839 97.5574 92.8176 97.7708C98.5078 98.0851 104.214 97.6192 109.778 96.3859C110.123 99.7273 109.183 103.33 111.151 106.079C112.073 102.751 112.61 99.3284 112.75 95.878C112.897 94.3976 112.703 92.9033 112.184 91.509C111.907 90.8103 111.439 90.2033 110.834 89.7572C110.229 89.3111 109.511 89.0437 108.761 88.9854C109.883 88.1342 111.198 87.5724 112.588 87.3494L107.806 84.9463L109.034 83.6856L100.377 83.1558L102.884 81.5628C99.1105 81.0442 95.2924 80.9237 91.4932 81.2032C89.7179 81.204 87.9762 81.6881 86.4551 82.6037C85.0257 83.6258 84.1997 85.6574 85.0871 87.1582C83.9761 87.3406 82.9301 87.8037 82.0481 88.5035C81.1662 89.2032 80.4775 90.1166 80.0473 91.157C79.5033 92.8108 79.372 94.5725 79.6648 96.2886C79.9909 99.042 80.6308 101.749 81.572 104.357L86.1865 95.1918Z" fill="#2F2E41"/>
<path d="M138.647 86.2019C136.534 80.1316 133.122 74.5953 128.649 69.979C124.177 65.3628 118.751 61.7777 112.751 59.4737C106.75 57.1698 100.319 56.2025 93.9068 56.6393C87.4941 57.076 81.2538 58.9064 75.6212 62.0027C69.9886 65.099 65.0991 69.3867 61.2938 74.5667C57.4886 79.7468 54.859 85.6946 53.5886 91.9954C52.3182 98.2961 52.4375 104.798 53.9382 111.048C55.4388 117.298 58.2847 123.145 62.2775 128.182C62.6741 128.682 63.0866 129.182 63.5073 129.666C63.539 129.698 63.5627 129.729 63.5944 129.761C64.6285 130.952 65.7275 132.086 66.8864 133.156C67.1882 133.434 67.5054 133.719 67.8227 133.989C68.4254 134.529 69.0443 135.044 69.6869 135.536C69.9407 135.734 70.1866 135.933 70.4484 136.123C71.4637 136.893 72.5188 137.607 73.6057 138.289L73.6533 138.313C73.9624 138.503 74.2801 138.693 74.5973 138.876C75.1683 139.217 75.7555 139.542 76.3423 139.852L76.7153 140.042C77.5721 140.486 78.4448 140.907 79.3411 141.295C79.5236 141.375 79.7219 141.454 79.9043 141.533C79.9202 141.541 79.928 141.541 79.9438 141.549C80.3645 141.724 80.7848 141.89 81.2132 142.049C82.6204 142.586 84.0556 143.047 85.5127 143.429C89.2314 144.42 93.0637 144.922 96.9122 144.921C98.3163 144.921 99.7046 144.857 101.077 144.722C104.213 144.433 107.308 143.808 110.311 142.858C110.319 142.858 110.327 142.85 110.334 142.85C112.231 142.246 114.084 141.512 115.88 140.653C115.887 140.645 115.903 140.645 115.911 140.637C116.316 140.447 116.705 140.24 117.101 140.042L117.292 139.947C117.609 139.78 117.926 139.614 118.244 139.439C119.037 139.003 119.814 138.543 120.584 138.051C120.798 137.924 121.004 137.789 121.218 137.646C121.52 137.448 121.821 137.242 122.115 137.027C122.503 136.758 122.892 136.48 123.273 136.195C123.392 136.107 123.519 136.02 123.638 135.925C131.07 130.284 136.525 122.434 139.221 113.502C141.917 104.57 141.716 95.013 138.647 86.2019ZM122.178 133.997C121.916 134.203 121.647 134.402 121.377 134.584C121.115 134.783 120.854 134.973 120.584 135.147C120.354 135.314 120.123 135.473 119.886 135.623L119.814 135.671C119.64 135.79 119.465 135.901 119.291 136.012C118.632 136.425 117.966 136.821 117.292 137.202L117.077 137.321C116.776 137.488 116.475 137.646 116.173 137.805C116.133 137.829 116.086 137.845 116.046 137.868L115.999 137.892C115.618 138.091 115.229 138.281 114.841 138.463C113.341 139.186 111.796 139.811 110.216 140.335C110.009 140.407 109.803 140.478 109.597 140.542C106.755 141.446 103.824 142.041 100.855 142.319C99.554 142.438 98.237 142.501 96.9123 142.501C93.2721 142.509 89.6471 142.034 86.1317 141.089C84.3276 140.618 82.5594 140.019 80.8406 139.296C80.753 139.257 80.6578 139.225 80.5706 139.185C80.4757 139.146 80.3881 139.114 80.301 139.074C80.2057 139.035 80.1185 138.995 80.0232 138.947C79.2776 138.622 78.5397 138.265 77.8181 137.892L77.4691 137.71C76.5883 137.25 75.7237 136.758 74.8828 136.234C74.6368 136.083 74.3831 135.925 74.1449 135.758C74.0818 135.719 74.026 135.679 73.9625 135.639C73.3993 135.266 72.8361 134.878 72.2888 134.473C71.9161 134.195 71.5431 133.918 71.1782 133.632C70.5674 133.172 69.9802 132.68 69.4092 132.173C69.1079 131.919 68.8143 131.641 68.5288 131.379C67.404 130.341 66.3393 129.239 65.3398 128.079C65.0067 127.699 64.6813 127.318 64.3718 126.921C64.3015 126.843 64.2353 126.761 64.1735 126.675C59.0193 120.171 55.9191 112.279 55.2683 104.006C54.6175 95.7333 56.4455 87.4538 60.5193 80.2239C64.593 72.9939 70.7279 67.1412 78.1415 63.4121C85.5551 59.6829 93.9114 58.2464 102.145 59.2857C110.378 60.325 118.115 63.793 124.369 69.2475C130.624 74.7019 135.112 81.8956 137.261 89.9111C139.41 97.9265 139.124 106.401 136.437 114.252C133.751 122.104 128.787 128.978 122.178 133.997Z" fill="#3F3D56"/>
<path d="M138.647 239.202C136.534 233.132 133.122 227.595 128.649 222.979C124.177 218.363 118.751 214.778 112.751 212.474C106.75 210.17 100.319 209.202 93.9067 209.639C87.494 210.076 81.2538 211.906 75.6212 215.003C69.9886 218.099 65.0991 222.387 61.2939 227.567C57.4886 232.747 54.859 238.695 53.5886 244.995C52.3182 251.296 52.4375 257.798 53.9381 264.048C55.4388 270.298 58.2847 276.145 62.2774 281.182C62.674 281.682 63.0866 282.182 63.5068 282.666C63.5386 282.697 63.5622 282.729 63.594 282.761C64.6283 283.952 65.7274 285.086 66.8864 286.156C67.1878 286.434 67.505 286.719 67.8222 286.989C68.4253 287.529 69.0439 288.044 69.6865 288.536C70.9412 289.525 72.2494 290.444 73.6053 291.289L73.6529 291.313C74.5334 291.86 75.4297 292.368 76.3423 292.852L76.7149 293.042C77.5717 293.486 78.4444 293.907 79.3407 294.295C79.5231 294.375 79.7215 294.454 79.9039 294.533C79.9198 294.541 79.9279 294.541 79.9438 294.549C81.7549 295.302 83.6156 295.93 85.5126 296.429C89.2313 297.42 93.0634 297.922 96.9118 297.921C98.3159 297.921 99.7042 297.857 101.077 297.722C104.212 297.433 107.308 296.808 110.31 295.858C110.319 295.858 110.326 295.85 110.334 295.85C112.231 295.246 114.084 294.512 115.879 293.653C115.887 293.645 115.903 293.645 115.911 293.637C116.315 293.446 116.704 293.24 117.101 293.042L117.292 292.947C117.609 292.78 117.926 292.613 118.243 292.439C119.037 292.003 119.814 291.543 120.584 291.051C120.798 290.924 121.004 290.789 121.218 290.646C121.916 290.186 122.606 289.694 123.272 289.194C123.392 289.107 123.518 289.02 123.638 288.925C131.069 283.283 136.524 275.434 139.221 266.502C141.917 257.57 141.716 248.013 138.647 239.202Z" fill="white"/>
<path d="M111.495 271.943C115.153 271.943 118.118 268.978 118.118 265.32C118.118 261.663 115.153 258.697 111.495 258.697C107.837 258.697 104.872 261.663 104.872 265.32C104.872 268.978 107.837 271.943 111.495 271.943Z" fill="#2F2E41"/>
<path d="M113.341 258.88C114.487 258.881 115.614 259.178 116.61 259.744C117.607 260.31 118.44 261.125 119.028 262.109C119.615 263.093 119.938 264.213 119.963 265.359C119.988 266.505 119.715 267.638 119.171 268.647C119.745 267.929 120.163 267.099 120.399 266.21C120.634 265.321 120.682 264.393 120.539 263.484C120.396 262.576 120.065 261.707 119.568 260.934C119.071 260.16 118.418 259.499 117.651 258.991C116.884 258.484 116.02 258.142 115.113 257.987C114.207 257.832 113.278 257.868 112.386 258.092C111.494 258.316 110.658 258.723 109.933 259.288C109.207 259.852 108.606 260.562 108.17 261.371C108.789 260.594 109.576 259.966 110.471 259.535C111.366 259.104 112.347 258.88 113.341 258.88Z" fill="#2F2E41"/>
<path d="M99.1191 265.307C109.864 265.307 118.575 256.596 118.575 245.851C118.575 235.105 109.864 226.395 99.1191 226.395C88.3738 226.395 79.6631 235.105 79.6631 245.851C79.6631 256.596 88.3738 265.307 99.1191 265.307Z" fill="#2F2E41"/>
<path d="M83.8487 233.78C87.2011 230.009 91.8872 227.689 96.918 227.308C101.949 226.928 106.931 228.517 110.812 231.739C110.654 231.588 110.495 231.436 110.331 231.289C106.487 227.846 101.434 226.07 96.2814 226.354C91.1291 226.637 86.3003 228.955 82.8572 232.798C79.4141 236.642 77.6388 241.695 77.9219 246.847C78.2049 252 80.5231 256.829 84.3665 260.272C84.4035 260.305 84.4405 260.338 84.4777 260.37C84.6427 260.517 84.8125 260.656 84.9814 260.797C81.3262 257.319 79.1649 252.558 78.9537 247.517C78.7425 242.476 80.4971 237.551 83.8487 233.78Z" fill="#2F2E41"/>
<path d="M98.9535 265.141C105.874 265.141 111.484 259.531 111.484 252.611C111.484 245.69 105.874 240.08 98.9535 240.08C92.033 240.08 86.4229 245.69 86.4229 252.611C86.4229 259.531 92.033 265.141 98.9535 265.141Z" fill="#A0616A"/>
<path d="M121.377 285.26V289.464C120.608 289.956 119.83 290.416 119.037 290.853C118.72 291.027 118.402 291.194 118.085 291.36L117.895 291.455C117.498 291.654 117.109 291.86 116.705 292.05C116.697 292.058 116.681 292.058 116.673 292.066C114.877 292.925 113.024 293.659 111.128 294.264C111.12 294.264 111.112 294.272 111.104 294.272C108.102 295.221 105.006 295.846 101.87 296.136C100.498 296.271 99.1096 296.334 97.7055 296.334C93.8571 296.335 90.025 295.834 86.3064 294.843C84.4093 294.344 82.5487 293.716 80.7375 292.963C80.7216 292.955 80.7135 292.955 80.6976 292.947C80.5152 292.867 80.3168 292.788 80.1344 292.709C79.2381 292.32 78.3654 291.9 77.5086 291.455L77.136 291.265C76.2234 290.781 75.3271 290.273 74.4467 289.726L74.399 289.702C73.0432 288.857 71.7349 287.938 70.4803 286.95C69.8376 286.458 69.2191 285.942 68.616 285.403C68.2987 285.133 67.9815 284.847 67.6801 284.57C66.5211 283.499 65.422 282.366 64.3877 281.175C64.5249 280.348 64.7265 279.534 64.9908 278.739L64.9985 278.731C65.046 278.596 65.1016 278.463 65.1651 278.335C65.2089 278.221 65.2592 278.109 65.3158 278.001C66.7358 275.344 69.3062 274.685 72.4952 274.543C74.296 274.463 76.2869 274.551 78.3894 274.527C79.4999 274.519 80.65 274.479 81.8004 274.376C89.0589 273.718 87.7423 269.434 88.0673 267.125C88.3926 264.888 90.4076 266.824 90.5424 266.951L90.5501 266.959C94.6577 268.881 99.2022 269.678 103.719 269.267C104.496 269.172 105.273 269.117 106.051 269.093C108.098 269.069 107.653 269.656 106.948 270.14C106.605 270.365 106.247 270.567 105.877 270.743C105.877 270.743 105.551 272.726 105.218 275.693C104.901 278.533 110.343 279.866 110.795 279.969C110.804 279.975 110.815 279.978 110.826 279.977C112.814 279.461 114.906 279.516 116.864 280.135H116.871C117.99 280.547 118.988 281.231 119.775 282.126C120.562 283.021 121.112 284.098 121.377 285.26Z" fill="#FFFB18"/>
<path d="M80.8163 290.361C80.8163 290.948 80.8008 291.512 80.7768 292.043C80.769 292.36 80.7532 292.67 80.7373 292.963C80.7214 292.955 80.7133 292.955 80.6974 292.947C80.5149 292.868 80.3166 292.789 80.1342 292.709C79.2378 292.321 78.3652 291.9 77.5084 291.456L77.1357 291.266C76.2232 290.782 75.3269 290.274 74.4464 289.727C74.47 289.449 74.5099 289.171 74.5494 288.894C74.6366 288.283 74.7082 287.664 74.7559 287.053C75.0677 282.762 74.29 278.461 72.4949 274.551V274.543C72.3361 274.226 72.2412 274.051 72.2412 274.051C72.2412 274.051 74.5494 272.068 77.8414 274.051C78.0517 274.175 78.2374 274.336 78.3891 274.527C80.3724 276.868 80.9116 284.737 80.8163 290.361Z" fill="#2F2E41"/>
<path d="M116.839 289.281C116.807 290.17 116.759 291.098 116.704 292.042V292.05C116.696 292.058 116.68 292.058 116.672 292.065C114.877 292.924 113.024 293.659 111.127 294.263C111.119 294.263 111.112 294.271 111.103 294.271L111.016 292.042L111.008 291.748L110.588 280.896C110.577 280.65 110.615 280.405 110.701 280.175C110.788 279.944 110.92 279.734 111.089 279.556C111.259 279.378 111.463 279.236 111.689 279.139C111.915 279.043 112.159 278.992 112.404 278.992H116.426C116.625 278.992 116.768 279.397 116.863 280.127V280.134C117.058 283.18 117.05 286.236 116.839 289.281Z" fill="#2F2E41"/>
<path d="M88.2363 236.947V249.481H91.1382L94.8309 245.524L94.3367 249.481H107.164L106.371 245.524L107.957 249.481H110.002V236.947H88.2363Z" fill="#2F2E41"/>
<path d="M86.2578 251.787C86.8041 251.787 87.247 250.975 87.247 249.974C87.247 248.972 86.8041 248.16 86.2578 248.16C85.7114 248.16 85.2686 248.972 85.2686 249.974C85.2686 250.975 85.7114 251.787 86.2578 251.787Z" fill="#A0616A"/>
<path d="M111.65 251.787C112.197 251.787 112.64 250.975 112.64 249.974C112.64 248.972 112.197 248.16 111.65 248.16C111.104 248.16 110.661 248.972 110.661 249.974C110.661 250.975 111.104 251.787 111.65 251.787Z" fill="#A0616A"/>
<path d="M124.066 287.609C123.4 288.109 122.709 288.6 122.011 289.061C121.797 289.203 121.591 289.338 121.377 289.465C120.607 289.957 119.83 290.417 119.037 290.853C118.719 291.028 118.402 291.195 118.085 291.361V282.619C118.085 282.619 119.354 283.635 121.377 285.324C121.631 285.538 121.893 285.761 122.17 285.999C122.757 286.49 123.392 287.03 124.066 287.609Z" fill="#FFFB18"/>
<path d="M138.647 239.202C136.534 233.132 133.122 227.595 128.649 222.979C124.177 218.363 118.751 214.778 112.751 212.474C106.75 210.17 100.319 209.202 93.9067 209.639C87.494 210.076 81.2538 211.906 75.6212 215.003C69.9886 218.099 65.0991 222.387 61.2939 227.567C57.4886 232.747 54.859 238.695 53.5886 244.995C52.3182 251.296 52.4375 257.798 53.9381 264.048C55.4388 270.298 58.2847 276.145 62.2774 281.182C62.674 281.682 63.0866 282.182 63.5068 282.666C63.5386 282.697 63.5622 282.729 63.594 282.761C64.6283 283.952 65.7274 285.086 66.8864 286.156C67.1878 286.434 67.505 286.719 67.8222 286.989C68.4253 287.529 69.0439 288.044 69.6865 288.536C70.9412 289.525 72.2494 290.444 73.6053 291.289L73.6529 291.313C74.5334 291.86 75.4297 292.368 76.3423 292.852L76.7149 293.042C77.5717 293.486 78.4444 293.907 79.3407 294.295C79.5231 294.375 79.7215 294.454 79.9039 294.533C79.9198 294.541 79.9279 294.541 79.9438 294.549C81.7549 295.302 83.6156 295.93 85.5126 296.429C89.2313 297.42 93.0634 297.922 96.9118 297.921C98.3159 297.921 99.7042 297.857 101.077 297.722C104.212 297.433 107.308 296.808 110.31 295.858C110.319 295.858 110.326 295.85 110.334 295.85C112.231 295.246 114.084 294.512 115.879 293.653C115.887 293.645 115.903 293.645 115.911 293.637C116.315 293.446 116.704 293.24 117.101 293.042L117.292 292.947C117.609 292.78 117.926 292.613 118.243 292.439C119.037 292.003 119.814 291.543 120.584 291.051C120.798 290.924 121.004 290.789 121.218 290.646C121.916 290.186 122.606 289.694 123.272 289.194C123.392 289.107 123.518 289.02 123.638 288.925C131.069 283.283 136.524 275.434 139.221 266.502C141.917 257.57 141.716 248.013 138.647 239.202ZM122.178 286.997C121.916 287.203 121.646 287.402 121.377 287.584C121.115 287.782 120.853 287.973 120.584 288.147C120.354 288.314 120.123 288.473 119.885 288.623C119.687 288.758 119.489 288.885 119.29 289.012C118.632 289.424 117.966 289.821 117.292 290.202L117.077 290.321C116.776 290.487 116.474 290.646 116.173 290.805C116.133 290.829 116.085 290.844 116.046 290.868L115.998 290.892C115.617 291.09 115.229 291.281 114.84 291.463C113.34 292.186 111.795 292.811 110.215 293.335C110.009 293.407 109.803 293.478 109.597 293.542C106.755 294.445 103.824 295.041 100.855 295.319C99.5535 295.438 98.2365 295.501 96.9118 295.501C93.2717 295.508 89.6466 295.034 86.1312 294.089C84.3271 293.618 82.5589 293.019 80.8401 292.296C80.6577 292.225 80.4752 292.145 80.3005 292.074C80.2056 292.034 80.1181 291.995 80.0228 291.947C79.2772 291.622 78.5397 291.265 77.8177 290.892L77.4687 290.71C76.5883 290.249 75.7233 289.758 74.8824 289.234C74.5733 289.044 74.2638 288.845 73.9624 288.639C73.0103 288.012 72.0823 287.338 71.1778 286.632C70.567 286.172 69.9801 285.68 69.4088 285.172C69.1075 284.919 68.8138 284.641 68.5284 284.379C67.4037 283.341 66.3389 282.239 65.3394 281.079C65.0063 280.698 64.6809 280.318 64.3714 279.921C64.301 279.843 64.2348 279.76 64.1731 279.675C59.0189 273.171 55.9187 265.279 55.2679 257.006C54.6171 248.733 56.4451 240.454 60.5189 233.224C64.5926 225.994 70.7275 220.141 78.1411 216.412C85.5547 212.683 93.9109 211.246 102.144 212.286C110.378 213.325 118.115 216.793 124.369 222.247C130.623 227.702 135.111 234.895 137.261 242.911C139.41 250.926 139.123 259.4 136.437 267.252C133.751 275.104 128.787 281.978 122.178 286.997Z" fill="#3F3D56"/>
<path d="M97.1612 426.59C106.724 426.59 114.476 418.838 114.476 409.275C114.476 399.713 106.724 391.961 97.1612 391.961C87.5987 391.961 79.8467 399.713 79.8467 409.275C79.8467 418.838 87.5987 426.59 97.1612 426.59Z" fill="#2F2E41"/>
<path d="M83.6469 399.941C86.4448 397.143 87.0119 393.174 84.9134 391.075C82.8149 388.977 78.8456 389.544 76.0476 392.342C73.2496 395.14 72.6826 399.109 74.7811 401.208C76.8795 403.306 80.8489 402.739 83.6469 399.941Z" fill="#2F2E41"/>
<path d="M115.208 394.441C116.374 391.712 114.369 388.24 110.73 386.685C107.091 385.131 103.197 386.083 102.031 388.812C100.865 391.542 102.87 395.014 106.509 396.568C110.147 398.123 114.042 397.17 115.208 394.441Z" fill="#2F2E41"/>
<path d="M117.872 442.862L115.832 439.652C114.966 437.718 113.37 436.206 111.392 435.447C109.414 434.688 107.216 434.744 105.279 435.603C103.342 436.462 101.824 438.053 101.058 440.028C100.292 442.003 100.34 444.202 101.192 446.142L101.772 448.222L102.432 450.582C105.105 450.244 107.742 449.669 110.312 448.862C110.32 448.861 110.327 448.857 110.332 448.852C112.232 448.25 114.087 447.515 115.882 446.652C115.892 446.642 115.902 446.642 115.912 446.632C116.312 446.442 116.702 446.242 117.102 446.042C117.167 446.012 117.231 445.979 117.292 445.942C117.612 445.782 117.932 445.612 118.242 445.442C118.562 445.272 118.872 445.092 119.172 444.902L117.872 442.862Z" fill="#CACACA"/>
<path d="M97.7103 428.104C105.826 428.104 112.405 421.525 112.405 413.41C112.405 405.294 105.826 398.715 97.7103 398.715C89.5947 398.715 83.0156 405.294 83.0156 413.41C83.0156 421.525 89.5947 428.104 97.7103 428.104Z" fill="#FFB6B6"/>
<path d="M118.933 442.232C117.312 439.536 115.3 437.096 112.963 434.991C111.362 433.561 109.29 432.771 107.143 432.771H86.4425C85.2498 432.771 84.0695 433.015 82.9748 433.489C81.8801 433.962 80.8942 434.656 80.0779 435.525C79.2616 436.395 78.6323 437.423 78.2289 438.545C77.8255 439.668 77.6566 440.861 77.7326 442.051C77.7777 442.723 77.8986 443.387 78.0929 444.031C78.2405 444.498 78.4243 444.953 78.6427 445.391L79.6627 447.431C79.7428 447.461 79.8229 447.501 79.9024 447.531C79.9224 447.541 79.9327 447.541 79.9425 447.551C80.3624 447.721 80.7828 447.891 81.2124 448.051C82.6197 448.589 84.0552 449.05 85.5127 449.431C87.8589 450.061 90.2539 450.493 92.6724 450.721C94.0826 450.851 95.4927 450.922 96.9126 450.922C98.3228 450.922 99.7026 450.851 101.083 450.721C101.533 450.681 101.982 450.631 102.433 450.581C105.105 450.244 107.742 449.668 110.313 448.862C110.32 448.861 110.327 448.857 110.333 448.852C112.232 448.25 114.087 447.515 115.883 446.651C115.893 446.641 115.902 446.641 115.913 446.631C116.313 446.441 116.703 446.242 117.103 446.042C117.168 446.012 117.231 445.979 117.293 445.941C117.612 445.781 117.933 445.611 118.243 445.441C118.563 445.271 118.872 445.091 119.172 444.901C119.493 444.731 119.793 444.542 120.103 444.352C119.723 443.602 119.333 442.902 118.933 442.232Z" fill="#CACACA"/>
<path d="M90.1924 435.453C88.2768 434.557 86.0843 434.456 84.0943 435.171C82.1043 435.887 80.4787 437.362 79.5728 439.273L77.7324 442.053L76.8525 443.383L75.5127 445.403C75.7925 445.553 76.0625 445.703 76.3428 445.853L76.7124 446.043C77.5728 446.483 78.4424 446.903 79.3428 447.293C79.4424 447.343 79.5528 447.383 79.6626 447.433C79.7427 447.463 79.8228 447.503 79.9023 447.533C79.9223 447.543 79.9326 447.543 79.9424 447.553C80.3623 447.723 80.7827 447.893 81.2123 448.053C82.6196 448.591 84.0551 449.052 85.5126 449.433C87.8588 450.063 90.2538 450.494 92.6723 450.723L93.3725 448.353L94.0527 446.093C94.9491 444.17 95.0462 441.969 94.3225 439.975C93.5988 437.98 92.1135 436.354 90.1924 435.453Z" fill="#CACACA"/>
<path d="M82.2695 404.168C85.6275 406.482 89.6131 407.714 93.6913 407.698C92.2366 408.706 90.5805 409.388 88.837 409.695C94.2594 410.858 99.8634 410.889 105.298 409.787C106.507 409.593 107.672 409.193 108.744 408.604C109.279 408.305 109.744 407.898 110.111 407.408C110.477 406.918 110.736 406.356 110.871 405.759C111.233 403.696 109.625 401.821 107.954 400.558C105.396 398.653 102.447 397.341 99.3193 396.716C96.1919 396.091 92.9647 396.169 89.8711 396.944C87.8099 397.359 85.9342 398.419 84.5155 399.971C83.829 400.761 83.4146 401.75 83.3335 402.793C83.2524 403.837 83.5088 404.878 84.0649 405.765L82.2695 404.168Z" fill="#2F2E41"/>
<path d="M138.652 392.203C136.539 386.132 133.127 380.595 128.655 375.978C124.182 371.361 118.757 367.775 112.756 365.471C106.755 363.166 100.324 362.199 93.9108 362.635C87.4976 363.072 81.2569 364.902 75.6238 367.999C69.9908 371.095 65.101 375.383 61.2955 380.564C57.4901 385.744 54.8605 391.693 53.5903 397.994C52.32 404.295 52.4396 410.798 53.9408 417.048C55.4419 423.298 58.2885 429.146 62.2819 434.183C62.6716 434.683 63.092 435.183 63.5119 435.663C63.536 435.698 63.5628 435.731 63.592 435.763C64.6276 436.954 65.7293 438.085 66.8918 439.153C67.1916 439.433 67.5017 439.723 67.822 439.993C68.4216 440.533 69.0417 441.043 69.6916 441.533C69.9416 441.733 70.1916 441.933 70.4519 442.123C71.4616 442.893 72.5217 443.603 73.6018 444.293C73.6203 444.293 73.638 444.3 73.6516 444.313C73.9616 444.503 74.2819 444.693 74.6018 444.873C74.9016 445.053 75.2116 445.233 75.5119 445.403C75.7917 445.553 76.0617 445.703 76.342 445.853L76.7116 446.043C77.572 446.483 78.4416 446.903 79.342 447.293C79.4416 447.343 79.552 447.383 79.6618 447.433C79.7419 447.463 79.822 447.503 79.9016 447.533C79.9216 447.543 79.9318 447.543 79.9415 447.553C80.3615 447.723 80.7819 447.893 81.2116 448.053C82.6188 448.591 84.0544 449.051 85.5119 449.433C87.858 450.063 90.253 450.494 92.6715 450.723C94.0817 450.853 95.4918 450.923 96.9118 450.923C98.3219 450.923 99.7018 450.853 101.082 450.723C101.532 450.683 101.982 450.633 102.432 450.583C105.104 450.245 107.742 449.67 110.312 448.863C110.319 448.862 110.326 448.858 110.332 448.853C112.231 448.251 114.086 447.516 115.882 446.653C115.892 446.643 115.901 446.643 115.912 446.633C116.312 446.443 116.702 446.243 117.102 446.043C117.167 446.013 117.23 445.98 117.292 445.943C117.611 445.783 117.932 445.613 118.242 445.443C118.562 445.273 118.872 445.093 119.171 444.903C119.492 444.733 119.792 444.543 120.102 444.353C120.262 444.253 120.422 444.153 120.582 444.053C120.802 443.923 121.002 443.793 121.222 443.643C121.522 443.453 121.822 443.243 122.111 443.033C122.502 442.763 122.892 442.483 123.272 442.193C123.4 442.109 123.523 442.019 123.642 441.923C131.068 436.277 136.519 428.428 139.215 419.498C141.911 410.568 141.714 401.014 138.652 392.203ZM122.182 439.993C121.922 440.203 121.652 440.403 121.382 440.583C121.111 440.783 120.852 440.973 120.582 441.153C120.352 441.313 120.122 441.473 119.882 441.623C119.86 441.642 119.837 441.658 119.812 441.673C119.642 441.793 119.462 441.903 119.292 442.013C119.172 442.083 119.052 442.163 118.932 442.233C118.582 442.453 118.232 442.663 117.872 442.863C117.682 442.983 117.482 443.093 117.292 443.203C117.222 443.243 117.152 443.283 117.082 443.323C116.772 443.493 116.472 443.643 116.172 443.803C116.132 443.833 116.082 443.843 116.052 443.873C116.033 443.873 116.015 443.88 116.002 443.893C115.622 444.093 115.232 444.283 114.842 444.463C113.34 445.185 111.794 445.81 110.212 446.333C110.012 446.403 109.802 446.483 109.602 446.543C107.051 447.352 104.429 447.914 101.772 448.223C101.472 448.263 101.162 448.293 100.852 448.323C99.5519 448.443 98.2419 448.503 96.9118 448.503C95.7316 448.503 94.5417 448.453 93.3718 448.353C90.9258 448.149 88.503 447.727 86.132 447.093C84.3272 446.622 82.5592 446.021 80.842 445.293C80.7517 445.253 80.6619 445.223 80.572 445.183C80.4719 445.143 80.3918 445.113 80.302 445.073C80.2019 445.033 80.1218 444.993 80.0217 444.943C79.3718 444.663 78.7219 444.353 78.0921 444.033C78.0017 443.983 77.9119 443.943 77.8221 443.893L77.472 443.713C77.262 443.603 77.052 443.493 76.8519 443.383C76.1819 443.023 75.5218 442.633 74.8821 442.233C74.6419 442.083 74.3821 441.923 74.1419 441.763L73.9617 441.643C73.4017 441.263 72.8421 440.883 72.2918 440.473C71.9217 440.193 71.5418 439.923 71.1819 439.633C70.5721 439.173 69.9817 438.683 69.4119 438.173C69.1116 437.923 68.8119 437.643 68.5321 437.383C67.406 436.345 66.3409 435.243 65.3421 434.083C65.012 433.703 64.682 433.323 64.3719 432.923C64.3021 432.843 64.242 432.763 64.1717 432.673C59.0163 426.168 55.9151 418.276 55.2637 410.001C54.6122 401.727 56.4399 393.447 60.5138 386.215C64.5877 378.984 70.723 373.13 78.1374 369.4C85.5517 365.67 93.9091 364.233 102.144 365.272C110.378 366.311 118.116 369.78 124.372 375.234C130.627 380.689 135.116 387.884 137.266 395.9C139.416 403.917 139.129 412.392 136.443 420.245C133.756 428.098 128.791 434.973 122.182 439.993Z" fill="#3F3D56"/>
<path d="M170.846 176.289C155.458 163.304 136.628 155.072 116.646 152.594C96.6653 150.116 76.3948 153.5 58.3014 162.332C40.208 171.165 25.072 185.066 14.735 202.344C4.39813 219.622 -0.693957 239.532 0.0784266 259.652C0.850811 279.771 7.45435 299.232 19.0855 315.667C30.7167 332.102 46.874 344.802 65.5912 352.221C84.3085 359.641 104.779 361.46 124.511 357.457C144.244 353.455 162.387 343.804 176.734 329.677L304.135 437.177C306.074 438.807 308.581 439.602 311.105 439.387C313.63 439.172 315.966 437.965 317.602 436.03C319.238 434.095 320.04 431.591 319.832 429.065C319.624 426.54 318.423 424.201 316.493 422.559L316.479 422.547L189.079 315.048C203.879 293.807 210.213 267.804 206.84 242.136C203.467 216.468 190.631 192.985 170.846 176.289ZM162.633 304.696C152.708 316.459 139.518 325.014 124.73 329.28C109.943 333.546 94.223 333.331 79.5578 328.663C64.8926 323.995 51.941 315.082 42.3409 303.053C32.7408 291.024 26.9233 276.419 25.6241 261.083C24.3249 245.748 27.6023 230.372 35.042 216.899C42.4816 203.426 53.7492 192.462 67.42 185.393C81.0909 178.324 96.5509 175.468 111.845 177.186C127.139 178.903 141.581 185.118 153.343 195.043C169.116 208.352 178.956 227.381 180.698 247.945C182.44 268.509 175.942 288.923 162.633 304.696Z" fill="#3F3D56"/>
<path opacity="0.3" d="M52.9795 313.987C38.0516 301.39 28.407 283.639 25.9608 264.26C23.5147 244.881 28.4458 225.291 39.7751 209.379C38.2873 210.877 36.8489 212.447 35.4601 214.087C28.8701 221.897 23.8829 230.928 20.7833 240.665C17.6837 250.403 16.5323 260.655 17.395 270.837C18.2576 281.02 21.1173 290.932 25.8109 300.009C30.5045 309.087 36.9399 317.15 44.7499 323.74C52.5598 330.33 61.5913 335.317 71.3286 338.417C81.0659 341.517 91.3184 342.668 101.501 341.805C111.683 340.943 121.596 338.083 130.673 333.389C139.75 328.696 147.814 322.26 154.404 314.451C155.789 312.808 157.094 311.127 158.318 309.405C144.539 323.25 126.058 331.406 106.543 332.255C87.0287 333.104 67.9087 326.583 52.9795 313.987Z" fill="black"/>
<path d="M427.684 441.196C428.68 439.981 429.396 438.563 429.784 437.041C430.172 435.519 430.221 433.931 429.928 432.388C429.636 430.845 429.008 429.385 428.091 428.11C427.173 426.836 425.986 425.778 424.616 425.012L401.394 329.963L384.453 335.371L409.529 429.771C408.394 432.159 408.175 434.881 408.913 437.42C409.65 439.959 411.294 442.14 413.532 443.548C415.77 444.956 418.447 445.495 421.055 445.061C423.663 444.628 426.022 443.253 427.684 441.196Z" fill="#FFB6B6"/>
<path d="M415.682 380.399L403.302 391.079L385.982 406.01L378.332 366.87L377.532 362.8L376.902 359.57L394.452 329L409.082 329.839L410.082 329.899L410.102 330.12L410.332 332.17L413.332 359.149L413.402 359.8L415.682 380.399Z" fill="#3F3D56"/>
<path d="M334.763 646.074L322.504 646.073L316.671 598.785L334.766 598.786L334.763 646.074Z" fill="#FFB6B6"/>
<path d="M337.89 657.958L298.359 657.957V657.457C298.36 653.376 299.981 649.462 302.866 646.577C305.752 643.692 309.665 642.071 313.746 642.07H313.747L337.891 642.071L337.89 657.958Z" fill="#2F2E41"/>
<path d="M462.763 647.074L450.504 647.073L444.671 599.785L462.766 599.786L462.763 647.074Z" fill="#FFB6B6"/>
<path d="M465.89 658.958L426.359 658.957V658.457C426.36 654.376 427.981 650.462 430.866 647.577C433.752 644.692 437.665 643.071 441.746 643.07H441.747L465.891 643.071L465.89 658.958Z" fill="#2F2E41"/>
<path d="M472.562 628.25L439.562 633.25L391.553 470.77L340.562 634.25L303.562 629.25L351.562 439.25V424.25L358.062 401.75L357.382 395.66L352.652 353.07L350.603 334.6L350.47 333.407C350.358 332.406 350.623 331.399 351.214 330.582C351.804 329.766 352.677 329.198 353.663 328.99L369.062 325.75H394.232L409.083 329.84L410.103 330.12L410.562 330.25L410.333 332.17L406.853 361.35L406.663 362.95L403.302 391.08L402.562 397.25C431.562 418.25 432.562 439.25 432.562 439.25L472.562 628.25Z" fill="#2F2E41"/>
<path d="M378.605 313.099C392.17 313.099 403.166 302.102 403.166 288.538C403.166 274.973 392.17 263.977 378.605 263.977C365.04 263.977 354.044 274.973 354.044 288.538C354.044 302.102 365.04 313.099 378.605 313.099Z" fill="#FFB6B6"/>
<path d="M404.402 391.605L355.815 397.959L356.723 404.9L405.31 398.546L404.402 391.605Z" fill="#3F3D56"/>
<path d="M290.645 400.052C291.109 400.352 291.55 400.689 291.961 401.059L340.018 388.808L343.296 377.215L361.439 379.876L357.63 400.964C357.322 402.667 356.47 404.225 355.202 405.403C353.933 406.581 352.317 407.316 350.595 407.497L294.484 413.407C293.569 415.332 292.09 416.933 290.243 417.998C288.397 419.062 286.269 419.539 284.145 419.365C282.02 419.191 279.999 418.374 278.35 417.024C276.701 415.673 275.502 413.852 274.913 411.803C274.325 409.755 274.373 407.575 275.053 405.555C275.733 403.534 277.012 401.769 278.72 400.493C280.428 399.218 282.483 398.492 284.613 398.413C286.744 398.334 288.847 398.906 290.645 400.052Z" fill="#FFB6B6"/>
<path d="M364.562 335.249L356.062 328.749C353.764 327.877 350.615 330.354 350.062 332.749L338.062 381.749L363.062 399.749L366.562 394.249L364.562 335.249Z" fill="#3F3D56"/>
<g opacity="0.2">
<path d="M413.332 359.15C411.211 359.992 409.048 360.726 406.852 361.35C406.152 361.56 405.432 361.76 404.722 361.95C400.042 363.248 395.233 364.026 390.382 364.27C388.294 364.358 386.202 364.301 384.122 364.1C381.889 363.877 379.682 363.442 377.532 362.8C377.462 362.78 377.382 362.76 377.312 362.74C372.841 361.47 368.741 359.141 365.362 355.95C364.607 355.215 363.902 354.43 363.252 353.6C361.385 351.313 360.015 348.662 359.23 345.816C358.444 342.969 358.261 339.991 358.692 337.07C358.776 336.541 358.889 336.016 359.032 335.5C359.409 334.093 359.907 332.721 360.522 331.4C360.792 330.78 361.092 330.17 361.412 329.57L372.712 325.75H394.232L409.082 329.84L410.082 329.9L410.102 330.12L410.562 330.25L410.332 332.17L413.332 359.15Z" fill="black"/>
</g>
<path d="M359.785 268.202C355.191 267.639 350.151 268.037 346.57 270.97C342.99 273.902 341.835 279.998 345.225 283.148C348.225 285.937 352.918 285.281 356.937 286.074C360.4 286.85 363.502 288.766 365.747 291.514C367.992 294.261 369.251 297.683 369.321 301.231C369.261 311.405 359.497 319.11 357.743 329.132C356.546 335.972 359.431 343.17 364.418 348.001C369.405 352.833 376.261 355.444 383.169 356.151C390.076 356.859 397.061 355.778 403.774 354.004C410.516 352.221 417.152 349.693 422.809 345.616C428.465 341.538 433.102 335.79 434.918 329.058C436.734 322.326 435.43 314.607 430.75 309.438C425.391 303.519 416.476 301.484 411.84 294.982C406.644 287.695 408.567 277.316 404.361 269.415C401.553 264.14 396.237 260.542 390.569 258.646C384.902 256.751 378.85 256.377 372.877 256.193C369.738 256.097 366.502 256.065 363.577 257.209C360.652 258.354 358.08 260.963 357.929 264.1C357.777 267.237 359.785 268.202 359.785 268.202Z" fill="#2F2E41"/>
<path d="M589.724 659.361H208.724C208.458 659.361 208.204 659.256 208.017 659.068C207.829 658.881 207.724 658.627 207.724 658.361C207.724 658.096 207.829 657.842 208.017 657.654C208.204 657.467 208.458 657.361 208.724 657.361H589.724C589.989 657.361 590.243 657.467 590.431 657.654C590.618 657.842 590.724 658.096 590.724 658.361C590.724 658.627 590.618 658.881 590.431 659.068C590.243 659.256 589.989 659.361 589.724 659.361Z" fill="#CACACA"/>
</g>
<defs>
<clipPath id="clip0_991_3677">
<rect width="590.724" height="659.362" fill="white"/>
</clipPath>
</defs>
</svg>
