<svg width="591" height="660" viewBox="0 0 591 660" fill="none" xmlns="http://www.w3.org/2000/svg">
<g clip-path="url(#clip0_2422_2434)">
<mask id="mask0_2422_2434" style="mask-type:luminance" maskUnits="userSpaceOnUse" x="0" y="0" width="591" height="660">
<path d="M590.724 0H0V659.362H590.724V0Z" fill="white"/>
</mask>
<g mask="url(#mask0_2422_2434)">
<path d="M562.935 621.488C559.253 622.782 555.299 623.107 551.455 622.429C547.611 621.752 544.006 620.097 540.988 617.622C533.301 611.17 530.888 600.541 528.93 590.698L523.13 561.586L535.273 569.948C544.006 575.961 552.935 582.167 558.982 590.877C565.029 599.587 567.668 611.477 562.81 620.901" fill="#E6E6E6"/>
<path d="M561.897 656.736C563.126 647.783 564.39 638.716 563.528 629.667C562.762 621.631 560.311 613.782 555.319 607.346C552.669 603.936 549.445 601.014 545.792 598.713C544.839 598.113 543.963 599.622 544.911 600.22C551.232 604.215 556.121 610.114 558.874 617.067C561.914 624.799 562.402 633.228 561.874 641.441C561.557 646.408 560.886 651.341 560.209 656.271C560.154 656.494 560.187 656.729 560.301 656.929C560.414 657.128 560.599 657.277 560.819 657.345C561.042 657.405 561.28 657.375 561.481 657.26C561.682 657.146 561.83 656.957 561.893 656.735L561.897 656.736Z" fill="#F2F2F2"/>
<path d="M517.885 508.034H9.85059V0H517.885V508.034Z" fill="white"/>
<path d="M517.885 508.034H9.85059V0H517.885V508.034ZM17.3567 500.528H510.379V7.50617H17.3567V500.528Z" fill="#E5E5E5"/>
<path d="M427.886 79.4805H207.886V86.3336H427.886V79.4805Z" fill="#E5E5E5"/>
<path d="M427.886 97.3008H207.886V104.154H427.886V97.3008Z" fill="#E5E5E5"/>
<path d="M427.886 115.117H207.886V121.97H427.886V115.117Z" fill="#E5E5E5"/>
<path d="M427.886 232.48H207.886V239.334H427.886V232.48Z" fill="#E5E5E5"/>
<path d="M427.886 250.301H207.886V257.154H427.886V250.301Z" fill="#E5E5E5"/>
<path d="M427.886 268.117H207.886V274.97H427.886V268.117Z" fill="#E5E5E5"/>
<path d="M427.886 385.48H207.886V392.334H427.886V385.48Z" fill="#E5E5E5"/>
<path d="M427.886 403.301H207.886V410.154H427.886V403.301Z" fill="#E5E5E5"/>
<path d="M427.886 421.117H207.886V427.97H427.886V421.117Z" fill="#E5E5E5"/>
<path d="M119.814 134.082C116.055 132.102 112.132 130.451 108.089 129.148L107.573 123.444L86.6626 121.191L84.005 128.482L76.5006 131.298C76.2321 131.4 75.9764 131.533 75.7391 131.694H75.731C75.3122 131.977 74.9555 132.343 74.6827 132.768C74.4099 133.194 74.2267 133.671 74.1444 134.169C74.0642 134.665 74.0832 135.172 74.2002 135.661L74.5968 137.287C75.1678 137.628 75.755 137.953 76.3418 138.263L76.7148 138.453C77.5716 138.897 78.4443 139.318 79.3406 139.706C79.523 139.786 79.7214 139.865 79.9038 139.944C79.9197 139.952 79.9274 139.952 79.9433 139.96C80.364 140.135 80.7842 140.301 81.2126 140.46C82.6198 140.998 84.0551 141.458 85.5122 141.84C89.2309 142.832 93.0631 143.333 96.9117 143.332C98.3158 143.332 99.7041 143.268 101.076 143.133C104.212 142.844 107.308 142.219 110.31 141.269C110.318 141.269 110.326 141.261 110.334 141.261C112.231 140.657 114.083 139.923 115.879 139.064C115.887 139.056 115.903 139.056 115.911 139.048C116.315 138.858 116.704 138.651 117.101 138.453L117.291 138.358C117.608 138.191 117.926 138.025 118.243 137.85C119.036 137.414 119.814 136.954 120.583 136.462C120.797 136.335 121.004 136.2 121.218 136.057C121.519 135.859 121.821 135.653 122.114 135.439C121.376 134.963 120.607 134.511 119.814 134.082Z" fill="#3F3D56"/>
<path d="M80.5703 137.596L79.2614 131.688H75.8423C75.8079 131.688 75.7735 131.691 75.7393 131.695H75.7312C74.5025 131.799 73.3192 132.207 72.2885 132.884C71.5894 133.331 70.9679 133.889 70.4482 134.535C71.4635 135.305 72.5186 136.019 73.6055 136.701L73.6531 136.725C73.9622 136.915 74.2798 137.105 74.5971 137.287C75.1681 137.628 75.7553 137.954 76.3421 138.264L76.7151 138.453C77.5719 138.897 78.4446 139.318 79.3409 139.707C79.5233 139.786 79.7217 139.865 79.9041 139.945C79.92 139.952 79.9278 139.952 79.9436 139.96C80.3643 140.135 80.7846 140.302 81.213 140.46L80.5703 137.596Z" fill="#3F3D56"/>
<path d="M96.2974 117.589C104.615 117.589 111.358 110.846 111.358 102.529C111.358 94.2114 104.615 87.4688 96.2974 87.4688C87.9799 87.4688 81.2373 94.2114 81.2373 102.529C81.2373 110.846 87.9799 117.589 96.2974 117.589Z" fill="#FFB8B8"/>
<path d="M86.1865 95.1898C87.7455 97.0347 90.3839 97.5554 92.8176 97.7688C98.5078 98.0831 104.214 97.6172 109.778 96.3839C110.123 99.7253 109.183 103.328 111.151 106.077C112.073 102.749 112.61 99.3264 112.75 95.876C112.897 94.3956 112.703 92.9013 112.184 91.507C111.907 90.8083 111.439 90.2013 110.834 89.7552C110.229 89.3091 109.511 89.0417 108.761 88.9834C109.883 88.1322 111.198 87.5704 112.588 87.3474L107.806 84.9443L109.034 83.6836L100.377 83.1538L102.884 81.5608C99.1105 81.0422 95.2924 80.9217 91.4932 81.2012C89.7179 81.202 87.9762 81.6861 86.4551 82.6017C85.0257 83.6238 84.1997 85.6554 85.0871 87.1562C83.9761 87.3386 82.9301 87.8017 82.0481 88.5015C81.1662 89.2012 80.4775 90.1146 80.0473 91.155C79.5033 92.8088 79.372 94.5705 79.6648 96.2866C79.9909 99.04 80.6308 101.747 81.572 104.355L86.1865 95.1898Z" fill="#2F2E41"/>
<path d="M138.647 86.2038C136.534 80.1335 133.122 74.5972 128.649 69.9809C124.177 65.3647 118.751 61.7796 112.751 59.4756C106.75 57.1717 100.319 56.2044 93.9068 56.6412C87.4941 57.0779 81.2538 58.9083 75.6212 62.0046C69.9886 65.1009 65.0991 69.3886 61.2938 74.5686C57.4886 79.7487 54.859 85.6965 53.5886 91.9973C52.3182 98.298 52.4375 104.8 53.9382 111.05C55.4388 117.3 58.2847 123.147 62.2775 128.184C62.6741 128.684 63.0866 129.184 63.5073 129.668C63.539 129.7 63.5627 129.731 63.5944 129.763C64.6285 130.954 65.7275 132.088 66.8864 133.158C67.1882 133.436 67.5054 133.721 67.8227 133.991C68.4254 134.531 69.0443 135.046 69.6869 135.538C69.9407 135.736 70.1866 135.935 70.4484 136.125C71.4637 136.895 72.5188 137.609 73.6057 138.291L73.6533 138.315C73.9624 138.505 74.2801 138.695 74.5973 138.878C75.1683 139.219 75.7555 139.544 76.3423 139.854L76.7153 140.044C77.5721 140.488 78.4448 140.909 79.3411 141.297C79.5236 141.377 79.7219 141.456 79.9043 141.535C79.9202 141.543 79.928 141.543 79.9438 141.551C80.3645 141.726 80.7848 141.892 81.2132 142.051C82.6204 142.588 84.0556 143.049 85.5127 143.431C89.2314 144.422 93.0637 144.924 96.9122 144.923C98.3163 144.923 99.7046 144.859 101.077 144.724C104.213 144.435 107.308 143.81 110.311 142.86C110.319 142.86 110.327 142.852 110.334 142.852C112.231 142.248 114.084 141.514 115.88 140.655C115.887 140.647 115.903 140.647 115.911 140.639C116.316 140.449 116.705 140.242 117.101 140.044L117.292 139.949C117.609 139.782 117.926 139.616 118.244 139.441C119.037 139.005 119.814 138.545 120.584 138.053C120.798 137.926 121.004 137.791 121.218 137.648C121.52 137.45 121.821 137.244 122.115 137.029C122.503 136.76 122.892 136.482 123.273 136.197C123.392 136.109 123.519 136.022 123.638 135.927C131.07 130.286 136.525 122.436 139.221 113.504C141.917 104.572 141.716 95.0149 138.647 86.2038ZM122.178 133.999C121.916 134.205 121.647 134.404 121.377 134.586C121.115 134.785 120.854 134.975 120.584 135.149C120.354 135.316 120.123 135.475 119.886 135.625L119.814 135.673C119.64 135.792 119.465 135.903 119.291 136.014C118.632 136.427 117.966 136.823 117.292 137.204L117.077 137.323C116.776 137.49 116.475 137.648 116.173 137.807C116.133 137.831 116.086 137.847 116.046 137.87L115.999 137.894C115.618 138.093 115.229 138.283 114.841 138.465C113.341 139.188 111.796 139.813 110.216 140.337C110.009 140.409 109.803 140.48 109.597 140.544C106.755 141.448 103.824 142.043 100.855 142.321C99.554 142.44 98.237 142.503 96.9123 142.503C93.2721 142.511 89.6471 142.036 86.1317 141.091C84.3276 140.62 82.5594 140.021 80.8406 139.298C80.753 139.259 80.6578 139.227 80.5706 139.187C80.4757 139.148 80.3881 139.116 80.301 139.076C80.2057 139.037 80.1185 138.997 80.0232 138.949C79.2776 138.624 78.5397 138.267 77.8181 137.894L77.4691 137.712C76.5883 137.252 75.7237 136.76 74.8828 136.236C74.6368 136.085 74.3831 135.927 74.1449 135.76C74.0818 135.721 74.026 135.681 73.9625 135.641C73.3993 135.268 72.8361 134.88 72.2888 134.475C71.9161 134.197 71.5431 133.92 71.1782 133.634C70.5674 133.174 69.9802 132.682 69.4092 132.175C69.1079 131.921 68.8143 131.643 68.5288 131.381C67.404 130.343 66.3393 129.241 65.3398 128.081C65.0067 127.701 64.6813 127.32 64.3718 126.923C64.3015 126.845 64.2353 126.763 64.1735 126.677C59.0193 120.173 55.9191 112.281 55.2683 104.008C54.6175 95.7352 56.4455 87.4557 60.5193 80.2258C64.593 72.9958 70.7279 67.1431 78.1415 63.414C85.5551 59.6848 93.9114 58.2483 102.145 59.2876C110.378 60.3269 118.115 63.7949 124.369 69.2494C130.624 74.7038 135.112 81.8975 137.261 89.913C139.41 97.9284 139.124 106.403 136.437 114.254C133.751 122.106 128.787 128.98 122.178 133.999Z" fill="#3F3D56"/>
<path d="M138.647 239.2C136.534 233.13 133.122 227.593 128.649 222.977C124.177 218.361 118.751 214.776 112.751 212.472C106.75 210.168 100.319 209.2 93.9067 209.637C87.494 210.074 81.2538 211.904 75.6212 215.001C69.9886 218.097 65.0991 222.385 61.2939 227.565C57.4886 232.745 54.859 238.693 53.5886 244.993C52.3182 251.294 52.4375 257.796 53.9381 264.046C55.4388 270.296 58.2847 276.143 62.2774 281.18C62.674 281.68 63.0866 282.18 63.5068 282.664C63.5386 282.695 63.5622 282.727 63.594 282.759C64.6283 283.95 65.7274 285.084 66.8864 286.154C67.1878 286.432 67.505 286.717 67.8222 286.987C68.4253 287.527 69.0439 288.042 69.6865 288.534C70.9412 289.523 72.2494 290.442 73.6053 291.287L73.6529 291.311C74.5334 291.858 75.4297 292.366 76.3423 292.85L76.7149 293.04C77.5717 293.484 78.4444 293.905 79.3407 294.293C79.5231 294.373 79.7215 294.452 79.9039 294.531C79.9198 294.539 79.9279 294.539 79.9438 294.547C81.7549 295.3 83.6156 295.928 85.5126 296.427C89.2313 297.418 93.0634 297.92 96.9118 297.919C98.3159 297.919 99.7042 297.855 101.077 297.72C104.212 297.431 107.308 296.806 110.31 295.856C110.319 295.856 110.326 295.848 110.334 295.848C112.231 295.244 114.084 294.51 115.879 293.651C115.887 293.643 115.903 293.643 115.911 293.635C116.315 293.444 116.704 293.238 117.101 293.04L117.292 292.945C117.609 292.778 117.926 292.611 118.243 292.437C119.037 292.001 119.814 291.541 120.584 291.049C120.798 290.922 121.004 290.787 121.218 290.644C121.916 290.184 122.606 289.692 123.272 289.192C123.392 289.105 123.518 289.018 123.638 288.923C131.069 283.281 136.524 275.432 139.221 266.5C141.917 257.568 141.716 248.011 138.647 239.2Z" fill="white"/>
<path d="M111.495 271.941C115.153 271.941 118.118 268.976 118.118 265.318C118.118 261.661 115.153 258.695 111.495 258.695C107.837 258.695 104.872 261.661 104.872 265.318C104.872 268.976 107.837 271.941 111.495 271.941Z" fill="#2F2E41"/>
<path d="M113.341 258.878C114.487 258.879 115.614 259.176 116.61 259.742C117.607 260.308 118.44 261.123 119.028 262.107C119.615 263.091 119.938 264.211 119.963 265.357C119.988 266.503 119.715 267.636 119.171 268.645C119.745 267.927 120.163 267.097 120.399 266.208C120.634 265.319 120.682 264.391 120.539 263.482C120.396 262.574 120.065 261.705 119.568 260.932C119.071 260.158 118.418 259.497 117.651 258.989C116.884 258.482 116.02 258.14 115.113 257.985C114.207 257.83 113.278 257.866 112.386 258.09C111.494 258.314 110.658 258.721 109.933 259.286C109.207 259.85 108.606 260.56 108.17 261.369C108.789 260.592 109.576 259.964 110.471 259.533C111.366 259.102 112.347 258.878 113.341 258.878Z" fill="#2F2E41"/>
<path d="M99.1191 265.307C109.864 265.307 118.575 256.596 118.575 245.851C118.575 235.105 109.864 226.395 99.1191 226.395C88.3738 226.395 79.6631 235.105 79.6631 245.851C79.6631 256.596 88.3738 265.307 99.1191 265.307Z" fill="#2F2E41"/>
<path d="M83.8487 233.78C87.2011 230.009 91.8872 227.689 96.918 227.308C101.949 226.928 106.931 228.517 110.812 231.739C110.654 231.588 110.495 231.436 110.331 231.289C106.487 227.846 101.434 226.07 96.2814 226.354C91.1291 226.637 86.3003 228.955 82.8572 232.798C79.4141 236.642 77.6388 241.695 77.9219 246.847C78.2049 252 80.5231 256.829 84.3665 260.272C84.4035 260.305 84.4405 260.338 84.4777 260.37C84.6427 260.517 84.8125 260.656 84.9814 260.797C81.3262 257.319 79.1649 252.558 78.9537 247.517C78.7425 242.476 80.4971 237.551 83.8487 233.78Z" fill="#2F2E41"/>
<path d="M98.9535 265.139C105.874 265.139 111.484 259.529 111.484 252.609C111.484 245.688 105.874 240.078 98.9535 240.078C92.033 240.078 86.4229 245.688 86.4229 252.609C86.4229 259.529 92.033 265.139 98.9535 265.139Z" fill="#A0616A"/>
<path d="M121.377 285.258V289.462C120.608 289.954 119.83 290.414 119.037 290.851C118.72 291.025 118.402 291.192 118.085 291.358L117.895 291.453C117.498 291.652 117.109 291.858 116.705 292.048C116.697 292.056 116.681 292.056 116.673 292.064C114.877 292.923 113.024 293.657 111.128 294.262C111.12 294.262 111.112 294.27 111.104 294.27C108.102 295.219 105.006 295.844 101.87 296.134C100.498 296.269 99.1096 296.332 97.7055 296.332C93.8571 296.333 90.025 295.832 86.3064 294.841C84.4093 294.342 82.5487 293.714 80.7375 292.961C80.7216 292.953 80.7135 292.953 80.6976 292.945C80.5152 292.865 80.3168 292.786 80.1344 292.707C79.2381 292.318 78.3654 291.898 77.5086 291.453L77.136 291.263C76.2234 290.779 75.3271 290.271 74.4467 289.724L74.399 289.7C73.0432 288.855 71.7349 287.936 70.4803 286.948C69.8376 286.456 69.2191 285.94 68.616 285.401C68.2987 285.131 67.9815 284.845 67.6801 284.568C66.5211 283.497 65.422 282.364 64.3877 281.173C64.5249 280.346 64.7265 279.532 64.9908 278.737L64.9985 278.729C65.046 278.594 65.1016 278.461 65.1651 278.333C65.2089 278.219 65.2592 278.107 65.3158 277.999C66.7358 275.342 69.3062 274.683 72.4952 274.541C74.296 274.461 76.2869 274.549 78.3894 274.525C79.4999 274.517 80.65 274.477 81.8004 274.374C89.0589 273.716 87.7423 269.432 88.0673 267.123C88.3926 264.886 90.4076 266.822 90.5424 266.949L90.5501 266.957C94.6577 268.879 99.2022 269.676 103.719 269.265C104.496 269.17 105.273 269.115 106.051 269.091C108.098 269.067 107.653 269.654 106.948 270.138C106.605 270.363 106.247 270.565 105.877 270.741C105.877 270.741 105.551 272.724 105.218 275.691C104.901 278.531 110.343 279.864 110.795 279.967C110.804 279.973 110.815 279.976 110.826 279.975C112.814 279.459 114.906 279.514 116.864 280.133H116.871C117.99 280.545 118.988 281.229 119.775 282.124C120.562 283.019 121.112 284.096 121.377 285.258Z" fill="#D27D2D"/>
<path d="M80.8163 290.359C80.8163 290.946 80.8008 291.51 80.7768 292.041C80.769 292.358 80.7532 292.668 80.7373 292.961C80.7214 292.953 80.7133 292.953 80.6974 292.945C80.5149 292.866 80.3166 292.787 80.1342 292.707C79.2378 292.319 78.3652 291.898 77.5084 291.454L77.1357 291.264C76.2232 290.78 75.3269 290.272 74.4464 289.725C74.47 289.447 74.5099 289.169 74.5494 288.892C74.6366 288.281 74.7082 287.662 74.7559 287.051C75.0677 282.76 74.29 278.459 72.4949 274.549V274.541C72.3361 274.224 72.2412 274.049 72.2412 274.049C72.2412 274.049 74.5494 272.066 77.8414 274.049C78.0517 274.173 78.2374 274.334 78.3891 274.525C80.3724 276.866 80.9116 284.735 80.8163 290.359Z" fill="#2F2E41"/>
<path d="M116.839 289.281C116.807 290.17 116.759 291.098 116.704 292.042V292.05C116.696 292.058 116.68 292.058 116.672 292.065C114.877 292.924 113.024 293.659 111.127 294.263C111.119 294.263 111.112 294.271 111.103 294.271L111.016 292.042L111.008 291.748L110.588 280.896C110.577 280.65 110.615 280.405 110.701 280.175C110.788 279.944 110.92 279.734 111.089 279.556C111.259 279.378 111.463 279.236 111.689 279.139C111.915 279.043 112.159 278.992 112.404 278.992H116.426C116.625 278.992 116.768 279.397 116.863 280.127V280.134C117.058 283.18 117.05 286.236 116.839 289.281Z" fill="#2F2E41"/>
<path d="M88.2363 236.945V249.479H91.1382L94.8309 245.522L94.3367 249.479H107.164L106.371 245.522L107.957 249.479H110.002V236.945H88.2363Z" fill="#2F2E41"/>
<path d="M86.2578 251.787C86.8041 251.787 87.247 250.975 87.247 249.974C87.247 248.972 86.8041 248.16 86.2578 248.16C85.7114 248.16 85.2686 248.972 85.2686 249.974C85.2686 250.975 85.7114 251.787 86.2578 251.787Z" fill="#A0616A"/>
<path d="M111.65 251.787C112.197 251.787 112.64 250.975 112.64 249.974C112.64 248.972 112.197 248.16 111.65 248.16C111.104 248.16 110.661 248.972 110.661 249.974C110.661 250.975 111.104 251.787 111.65 251.787Z" fill="#A0616A"/>
<path d="M124.066 287.607C123.4 288.107 122.709 288.598 122.011 289.059C121.797 289.201 121.591 289.336 121.377 289.463C120.607 289.955 119.83 290.415 119.037 290.851C118.719 291.026 118.402 291.193 118.085 291.359V282.617C118.085 282.617 119.354 283.633 121.377 285.322C121.631 285.536 121.893 285.759 122.17 285.997C122.757 286.488 123.392 287.028 124.066 287.607Z" fill="#D27D2D"/>
<path d="M138.647 239.2C136.534 233.13 133.122 227.593 128.649 222.977C124.177 218.361 118.751 214.776 112.751 212.472C106.75 210.168 100.319 209.2 93.9067 209.637C87.494 210.074 81.2538 211.904 75.6212 215.001C69.9886 218.097 65.0991 222.385 61.2939 227.565C57.4886 232.745 54.859 238.693 53.5886 244.993C52.3182 251.294 52.4375 257.796 53.9381 264.046C55.4388 270.296 58.2847 276.143 62.2774 281.18C62.674 281.68 63.0866 282.18 63.5068 282.664C63.5386 282.695 63.5622 282.727 63.594 282.759C64.6283 283.95 65.7274 285.084 66.8864 286.154C67.1878 286.432 67.505 286.717 67.8222 286.987C68.4253 287.527 69.0439 288.042 69.6865 288.534C70.9412 289.523 72.2494 290.442 73.6053 291.287L73.6529 291.311C74.5334 291.858 75.4297 292.366 76.3423 292.85L76.7149 293.04C77.5717 293.484 78.4444 293.905 79.3407 294.293C79.5231 294.373 79.7215 294.452 79.9039 294.531C79.9198 294.539 79.9279 294.539 79.9438 294.547C81.7549 295.3 83.6156 295.928 85.5126 296.427C89.2313 297.418 93.0634 297.92 96.9118 297.919C98.3159 297.919 99.7042 297.855 101.077 297.72C104.212 297.431 107.308 296.806 110.31 295.856C110.319 295.856 110.326 295.848 110.334 295.848C112.231 295.244 114.084 294.51 115.879 293.651C115.887 293.643 115.903 293.643 115.911 293.635C116.315 293.444 116.704 293.238 117.101 293.04L117.292 292.945C117.609 292.778 117.926 292.611 118.243 292.437C119.037 292.001 119.814 291.541 120.584 291.049C120.798 290.922 121.004 290.787 121.218 290.644C121.916 290.184 122.606 289.692 123.272 289.192C123.392 289.105 123.518 289.018 123.638 288.923C131.069 283.281 136.524 275.432 139.221 266.5C141.917 257.568 141.716 248.011 138.647 239.2ZM122.178 286.995C121.916 287.201 121.646 287.4 121.377 287.582C121.115 287.78 120.853 287.971 120.584 288.145C120.354 288.312 120.123 288.471 119.885 288.621C119.687 288.756 119.489 288.883 119.29 289.01C118.632 289.422 117.966 289.819 117.292 290.2L117.077 290.319C116.776 290.485 116.474 290.644 116.173 290.803C116.133 290.827 116.085 290.842 116.046 290.866L115.998 290.89C115.617 291.088 115.229 291.279 114.84 291.461C113.34 292.184 111.795 292.809 110.215 293.333C110.009 293.405 109.803 293.476 109.597 293.54C106.755 294.443 103.824 295.039 100.855 295.317C99.5535 295.436 98.2365 295.499 96.9118 295.499C93.2717 295.506 89.6466 295.032 86.1312 294.087C84.3271 293.616 82.5589 293.017 80.8401 292.294C80.6577 292.223 80.4752 292.143 80.3005 292.072C80.2056 292.032 80.1181 291.993 80.0228 291.945C79.2772 291.62 78.5397 291.263 77.8177 290.89L77.4687 290.708C76.5883 290.247 75.7233 289.756 74.8824 289.232C74.5733 289.042 74.2638 288.843 73.9624 288.637C73.0103 288.01 72.0823 287.336 71.1778 286.63C70.567 286.17 69.9801 285.678 69.4088 285.17C69.1075 284.917 68.8138 284.639 68.5284 284.377C67.4037 283.339 66.3389 282.237 65.3394 281.077C65.0063 280.696 64.6809 280.316 64.3714 279.919C64.301 279.841 64.2348 279.758 64.1731 279.673C59.0189 273.169 55.9187 265.277 55.2679 257.004C54.6171 248.731 56.4451 240.452 60.5189 233.222C64.5926 225.992 70.7275 220.139 78.1411 216.41C85.5547 212.681 93.9109 211.244 102.144 212.284C110.378 213.323 118.115 216.791 124.369 222.245C130.623 227.7 135.111 234.893 137.261 242.909C139.41 250.924 139.123 259.398 136.437 267.25C133.751 275.102 128.787 281.976 122.178 286.995Z" fill="#3F3D56"/>
<path d="M97.1612 426.59C106.724 426.59 114.476 418.838 114.476 409.275C114.476 399.713 106.724 391.961 97.1612 391.961C87.5987 391.961 79.8467 399.713 79.8467 409.275C79.8467 418.838 87.5987 426.59 97.1612 426.59Z" fill="#2F2E41"/>
<path d="M83.6469 399.941C86.4448 397.143 87.0119 393.174 84.9134 391.075C82.8149 388.977 78.8456 389.544 76.0476 392.342C73.2496 395.14 72.6826 399.109 74.7811 401.208C76.8795 403.306 80.8489 402.739 83.6469 399.941Z" fill="#2F2E41"/>
<path d="M115.208 394.44C116.374 391.711 114.369 388.239 110.73 386.684C107.091 385.13 103.197 386.082 102.031 388.811C100.865 391.541 102.87 395.013 106.509 396.567C110.147 398.122 114.042 397.169 115.208 394.44Z" fill="#2F2E41"/>
<path d="M117.872 442.86L115.832 439.65C114.966 437.716 113.37 436.204 111.392 435.445C109.414 434.686 107.216 434.742 105.279 435.601C103.342 436.46 101.824 438.051 101.058 440.026C100.292 442.001 100.34 444.2 101.192 446.14L101.772 448.22L102.432 450.58C105.105 450.242 107.742 449.667 110.312 448.86C110.32 448.859 110.327 448.855 110.332 448.85C112.232 448.248 114.087 447.513 115.882 446.65C115.892 446.64 115.902 446.64 115.912 446.63C116.312 446.44 116.702 446.24 117.102 446.04C117.167 446.01 117.231 445.977 117.292 445.94C117.612 445.78 117.932 445.61 118.242 445.44C118.562 445.27 118.872 445.09 119.172 444.9L117.872 442.86Z" fill="#CACACA"/>
<path d="M97.7103 428.104C105.826 428.104 112.405 421.525 112.405 413.41C112.405 405.294 105.826 398.715 97.7103 398.715C89.5947 398.715 83.0156 405.294 83.0156 413.41C83.0156 421.525 89.5947 428.104 97.7103 428.104Z" fill="#FFB6B6"/>
<path d="M118.933 442.231C117.312 439.535 115.3 437.095 112.963 434.99C111.362 433.56 109.29 432.77 107.143 432.77H86.4425C85.2498 432.77 84.0695 433.014 82.9748 433.488C81.8801 433.961 80.8942 434.655 80.0779 435.524C79.2616 436.394 78.6323 437.422 78.2289 438.544C77.8255 439.667 77.6566 440.86 77.7326 442.05C77.7777 442.722 77.8986 443.386 78.0929 444.03C78.2405 444.497 78.4243 444.952 78.6427 445.39L79.6627 447.43C79.7428 447.46 79.8229 447.5 79.9024 447.53C79.9224 447.54 79.9327 447.54 79.9425 447.55C80.3624 447.72 80.7828 447.89 81.2124 448.05C82.6197 448.588 84.0552 449.049 85.5127 449.43C87.8589 450.06 90.2539 450.492 92.6724 450.72C94.0826 450.85 95.4927 450.921 96.9126 450.921C98.3228 450.921 99.7026 450.85 101.083 450.72C101.533 450.68 101.982 450.63 102.433 450.58C105.105 450.243 107.742 449.667 110.313 448.861C110.32 448.86 110.327 448.856 110.333 448.851C112.232 448.249 114.087 447.514 115.883 446.65C115.893 446.64 115.902 446.64 115.913 446.63C116.313 446.44 116.703 446.241 117.103 446.041C117.168 446.011 117.231 445.978 117.293 445.94C117.612 445.78 117.933 445.61 118.243 445.44C118.563 445.27 118.872 445.09 119.172 444.9C119.493 444.73 119.793 444.541 120.103 444.351C119.723 443.601 119.333 442.901 118.933 442.231Z" fill="#CACACA"/>
<path d="M90.1924 435.453C88.2768 434.557 86.0843 434.456 84.0943 435.171C82.1043 435.887 80.4787 437.362 79.5728 439.273L77.7324 442.053L76.8525 443.383L75.5127 445.403C75.7925 445.553 76.0625 445.703 76.3428 445.853L76.7124 446.043C77.5728 446.483 78.4424 446.903 79.3428 447.293C79.4424 447.343 79.5528 447.383 79.6626 447.433C79.7427 447.463 79.8228 447.503 79.9023 447.533C79.9223 447.543 79.9326 447.543 79.9424 447.553C80.3623 447.723 80.7827 447.893 81.2123 448.053C82.6196 448.591 84.0551 449.052 85.5126 449.433C87.8588 450.063 90.2538 450.494 92.6723 450.723L93.3725 448.353L94.0527 446.093C94.9491 444.17 95.0462 441.969 94.3225 439.975C93.5988 437.98 92.1135 436.354 90.1924 435.453Z" fill="#CACACA"/>
<path d="M82.2695 404.166C85.6275 406.48 89.6131 407.712 93.6913 407.696C92.2366 408.704 90.5805 409.386 88.837 409.693C94.2594 410.856 99.8634 410.887 105.298 409.785C106.507 409.591 107.672 409.191 108.744 408.602C109.279 408.303 109.744 407.896 110.111 407.406C110.477 406.916 110.736 406.354 110.871 405.757C111.233 403.694 109.625 401.819 107.954 400.556C105.396 398.651 102.447 397.339 99.3193 396.714C96.1919 396.089 92.9647 396.167 89.8711 396.942C87.8099 397.357 85.9342 398.417 84.5155 399.969C83.829 400.759 83.4146 401.748 83.3335 402.791C83.2524 403.835 83.5088 404.876 84.0649 405.763L82.2695 404.166Z" fill="#2F2E41"/>
<path d="M138.652 392.201C136.539 386.13 133.127 380.593 128.655 375.976C124.182 371.359 118.757 367.773 112.756 365.469C106.755 363.164 100.324 362.197 93.9108 362.633C87.4976 363.07 81.2569 364.9 75.6238 367.997C69.9908 371.093 65.101 375.381 61.2955 380.562C57.4901 385.742 54.8605 391.691 53.5903 397.992C52.32 404.293 52.4396 410.796 53.9408 417.046C55.4419 423.296 58.2885 429.144 62.2819 434.181C62.6716 434.681 63.092 435.181 63.5119 435.661C63.536 435.696 63.5628 435.729 63.592 435.761C64.6276 436.952 65.7293 438.083 66.8918 439.151C67.1916 439.431 67.5017 439.721 67.822 439.991C68.4216 440.531 69.0417 441.041 69.6916 441.531C69.9416 441.731 70.1916 441.931 70.4519 442.121C71.4616 442.891 72.5217 443.601 73.6018 444.291C73.6203 444.291 73.638 444.298 73.6516 444.311C73.9616 444.501 74.2819 444.691 74.6018 444.871C74.9016 445.051 75.2116 445.231 75.5119 445.401C75.7917 445.551 76.0617 445.701 76.342 445.851L76.7116 446.041C77.572 446.481 78.4416 446.901 79.342 447.291C79.4416 447.341 79.552 447.381 79.6618 447.431C79.7419 447.461 79.822 447.501 79.9016 447.531C79.9216 447.541 79.9318 447.541 79.9415 447.551C80.3615 447.721 80.7819 447.891 81.2116 448.051C82.6188 448.589 84.0544 449.049 85.5119 449.431C87.858 450.061 90.253 450.492 92.6715 450.721C94.0817 450.851 95.4918 450.921 96.9118 450.921C98.3219 450.921 99.7018 450.851 101.082 450.721C101.532 450.681 101.982 450.631 102.432 450.581C105.104 450.243 107.742 449.668 110.312 448.861C110.319 448.86 110.326 448.856 110.332 448.851C112.231 448.249 114.086 447.514 115.882 446.651C115.892 446.641 115.901 446.641 115.912 446.631C116.312 446.441 116.702 446.241 117.102 446.041C117.167 446.011 117.23 445.978 117.292 445.941C117.611 445.781 117.932 445.611 118.242 445.441C118.562 445.271 118.872 445.091 119.171 444.901C119.492 444.731 119.792 444.541 120.102 444.351C120.262 444.251 120.422 444.151 120.582 444.051C120.802 443.921 121.002 443.791 121.222 443.641C121.522 443.451 121.822 443.241 122.111 443.031C122.502 442.761 122.892 442.481 123.272 442.191C123.4 442.107 123.523 442.017 123.642 441.921C131.068 436.275 136.519 428.426 139.215 419.496C141.911 410.566 141.714 401.012 138.652 392.201ZM122.182 439.991C121.922 440.201 121.652 440.401 121.382 440.581C121.111 440.781 120.852 440.971 120.582 441.151C120.352 441.311 120.122 441.471 119.882 441.621C119.86 441.64 119.837 441.656 119.812 441.671C119.642 441.791 119.462 441.901 119.292 442.011C119.172 442.081 119.052 442.161 118.932 442.231C118.582 442.451 118.232 442.661 117.872 442.861C117.682 442.981 117.482 443.091 117.292 443.201C117.222 443.241 117.152 443.281 117.082 443.321C116.772 443.491 116.472 443.641 116.172 443.801C116.132 443.831 116.082 443.841 116.052 443.871C116.033 443.871 116.015 443.878 116.002 443.891C115.622 444.091 115.232 444.281 114.842 444.461C113.34 445.183 111.794 445.808 110.212 446.331C110.012 446.401 109.802 446.481 109.602 446.541C107.051 447.35 104.429 447.912 101.772 448.221C101.472 448.261 101.162 448.291 100.852 448.321C99.5519 448.441 98.2419 448.501 96.9118 448.501C95.7316 448.501 94.5417 448.451 93.3718 448.351C90.9258 448.147 88.503 447.725 86.132 447.091C84.3272 446.62 82.5592 446.019 80.842 445.291C80.7517 445.251 80.6619 445.221 80.572 445.181C80.4719 445.141 80.3918 445.111 80.302 445.071C80.2019 445.031 80.1218 444.991 80.0217 444.941C79.3718 444.661 78.7219 444.351 78.0921 444.031C78.0017 443.981 77.9119 443.941 77.8221 443.891L77.472 443.711C77.262 443.601 77.052 443.491 76.8519 443.381C76.1819 443.021 75.5218 442.631 74.8821 442.231C74.6419 442.081 74.3821 441.921 74.1419 441.761L73.9617 441.641C73.4017 441.261 72.8421 440.881 72.2918 440.471C71.9217 440.191 71.5418 439.921 71.1819 439.631C70.5721 439.171 69.9817 438.681 69.4119 438.171C69.1116 437.921 68.8119 437.641 68.5321 437.381C67.406 436.343 66.3409 435.241 65.3421 434.081C65.012 433.701 64.682 433.321 64.3719 432.921C64.3021 432.841 64.242 432.761 64.1717 432.671C59.0163 426.166 55.9151 418.274 55.2637 409.999C54.6122 401.725 56.4399 393.445 60.5138 386.213C64.5877 378.982 70.723 373.128 78.1374 369.398C85.5517 365.668 93.9091 364.231 102.144 365.27C110.378 366.309 118.116 369.778 124.372 375.232C130.627 380.687 135.116 387.882 137.266 395.898C139.416 403.915 139.129 412.39 136.443 420.243C133.756 428.096 128.791 434.971 122.182 439.991Z" fill="#3F3D56"/>
<path d="M170.846 176.289C155.458 163.304 136.628 155.072 116.646 152.594C96.6653 150.116 76.3948 153.5 58.3014 162.332C40.208 171.165 25.072 185.066 14.735 202.344C4.39813 219.622 -0.693957 239.532 0.0784265 259.652C0.850811 279.771 7.45435 299.232 19.0855 315.667C30.7167 332.102 46.874 344.802 65.5912 352.221C84.3085 359.641 104.779 361.46 124.511 357.457C144.244 353.455 162.387 343.804 176.734 329.677L304.135 437.177C306.074 438.807 308.581 439.602 311.105 439.387C313.63 439.172 315.966 437.965 317.602 436.03C319.238 434.095 320.04 431.591 319.832 429.065C319.624 426.54 318.423 424.201 316.493 422.559L316.479 422.547L189.079 315.048C203.879 293.807 210.213 267.804 206.84 242.136C203.467 216.468 190.631 192.985 170.846 176.289ZM162.633 304.696C152.708 316.459 139.518 325.014 124.73 329.28C109.943 333.546 94.223 333.331 79.5578 328.663C64.8926 323.995 51.941 315.082 42.3409 303.053C32.7408 291.024 26.9233 276.419 25.6241 261.083C24.3249 245.748 27.6023 230.372 35.042 216.899C42.4816 203.426 53.7492 192.462 67.42 185.393C81.0909 178.324 96.5509 175.468 111.845 177.186C127.139 178.903 141.581 185.118 153.343 195.043C169.116 208.352 178.956 227.381 180.698 247.945C182.44 268.509 175.942 288.923 162.633 304.696Z" fill="#3F3D56"/>
<path opacity="0.3" d="M52.9795 313.987C38.0516 301.39 28.407 283.639 25.9608 264.26C23.5147 244.881 28.4458 225.291 39.7751 209.379C38.2873 210.877 36.8489 212.447 35.4601 214.087C28.8701 221.897 23.8829 230.928 20.7833 240.665C17.6837 250.403 16.5323 260.655 17.395 270.837C18.2576 281.02 21.1173 290.932 25.8109 300.009C30.5045 309.087 36.9399 317.15 44.7499 323.74C52.5598 330.33 61.5913 335.317 71.3286 338.417C81.0659 341.517 91.3184 342.668 101.501 341.805C111.683 340.943 121.596 338.083 130.673 333.389C139.75 328.696 147.814 322.26 154.404 314.451C155.789 312.808 157.094 311.127 158.318 309.405C144.539 323.25 126.058 331.406 106.543 332.255C87.0287 333.104 67.9087 326.583 52.9795 313.987Z" fill="black"/>
<path d="M427.684 441.198C428.68 439.983 429.396 438.565 429.784 437.043C430.172 435.521 430.221 433.933 429.928 432.39C429.636 430.847 429.008 429.387 428.091 428.112C427.173 426.838 425.986 425.78 424.616 425.014L401.394 329.965L384.453 335.373L409.529 429.773C408.394 432.161 408.175 434.883 408.913 437.422C409.65 439.961 411.294 442.142 413.532 443.55C415.77 444.958 418.447 445.497 421.055 445.063C423.663 444.63 426.022 443.255 427.684 441.198Z" fill="#FFB6B6"/>
<path d="M415.682 380.399L403.302 391.079L385.982 406.01L378.332 366.87L377.532 362.8L376.902 359.57L394.452 329L409.082 329.839L410.082 329.899L410.102 330.12L410.332 332.17L413.332 359.149L413.402 359.8L415.682 380.399Z" fill="#3F3D56"/>
<path d="M334.763 646.074L322.504 646.073L316.671 598.785L334.766 598.786L334.763 646.074Z" fill="#FFB6B6"/>
<path d="M337.89 657.958L298.359 657.957V657.457C298.36 653.376 299.981 649.462 302.866 646.577C305.752 643.692 309.665 642.071 313.746 642.07H313.747L337.891 642.071L337.89 657.958Z" fill="#2F2E41"/>
<path d="M462.763 647.074L450.504 647.073L444.671 599.785L462.766 599.786L462.763 647.074Z" fill="#FFB6B6"/>
<path d="M465.89 658.958L426.359 658.957V658.457C426.36 654.376 427.981 650.462 430.866 647.577C433.752 644.692 437.665 643.071 441.746 643.07H441.747L465.891 643.071L465.89 658.958Z" fill="#2F2E41"/>
<path d="M472.562 628.25L439.562 633.25L391.553 470.77L340.562 634.25L303.562 629.25L351.562 439.25V424.25L358.062 401.75L357.382 395.66L352.652 353.07L350.603 334.6L350.47 333.407C350.358 332.406 350.623 331.399 351.214 330.582C351.804 329.766 352.677 329.198 353.663 328.99L369.062 325.75H394.232L409.083 329.84L410.103 330.12L410.562 330.25L410.333 332.17L406.853 361.35L406.663 362.95L403.302 391.08L402.562 397.25C431.562 418.25 432.562 439.25 432.562 439.25L472.562 628.25Z" fill="#2F2E41"/>
<path d="M378.605 313.099C392.17 313.099 403.166 302.102 403.166 288.538C403.166 274.973 392.17 263.977 378.605 263.977C365.04 263.977 354.044 274.973 354.044 288.538C354.044 302.102 365.04 313.099 378.605 313.099Z" fill="#FFB6B6"/>
<path d="M404.402 391.605L355.815 397.959L356.723 404.9L405.31 398.546L404.402 391.605Z" fill="#3F3D56"/>
<path d="M290.645 400.052C291.109 400.352 291.55 400.689 291.961 401.059L340.018 388.808L343.296 377.215L361.439 379.876L357.63 400.964C357.322 402.667 356.47 404.225 355.202 405.403C353.933 406.581 352.317 407.316 350.595 407.497L294.484 413.407C293.569 415.332 292.09 416.933 290.243 417.998C288.397 419.062 286.269 419.539 284.145 419.365C282.02 419.191 279.999 418.374 278.35 417.024C276.701 415.673 275.502 413.852 274.913 411.803C274.325 409.755 274.373 407.575 275.053 405.555C275.733 403.534 277.012 401.769 278.72 400.493C280.428 399.218 282.483 398.492 284.613 398.413C286.744 398.334 288.847 398.906 290.645 400.052Z" fill="#FFB6B6"/>
<path d="M364.562 335.249L356.062 328.749C353.764 327.877 350.615 330.354 350.062 332.749L338.062 381.749L363.062 399.749L366.562 394.249L364.562 335.249Z" fill="#3F3D56"/>
<g opacity="0.2">
<path d="M413.332 359.15C411.211 359.992 409.048 360.726 406.852 361.35C406.152 361.56 405.432 361.76 404.722 361.95C400.042 363.248 395.233 364.026 390.382 364.27C388.294 364.358 386.202 364.301 384.122 364.1C381.889 363.877 379.682 363.442 377.532 362.8C377.462 362.78 377.382 362.76 377.312 362.74C372.841 361.47 368.741 359.141 365.362 355.95C364.607 355.215 363.902 354.43 363.252 353.6C361.385 351.313 360.015 348.662 359.23 345.816C358.444 342.969 358.261 339.991 358.692 337.07C358.776 336.541 358.889 336.016 359.032 335.5C359.409 334.093 359.907 332.721 360.522 331.4C360.792 330.78 361.092 330.17 361.412 329.57L372.712 325.75H394.232L409.082 329.84L410.082 329.9L410.102 330.12L410.562 330.25L410.332 332.17L413.332 359.15Z" fill="black"/>
</g>
<path d="M359.785 268.2C355.191 267.637 350.151 268.035 346.57 270.968C342.99 273.9 341.835 279.996 345.225 283.146C348.225 285.935 352.918 285.279 356.937 286.072C360.4 286.848 363.502 288.764 365.747 291.512C367.992 294.259 369.251 297.681 369.321 301.229C369.261 311.403 359.497 319.108 357.743 329.13C356.546 335.97 359.431 343.168 364.418 347.999C369.405 352.831 376.261 355.442 383.169 356.149C390.076 356.857 397.061 355.776 403.774 354.002C410.516 352.219 417.152 349.691 422.809 345.614C428.465 341.536 433.102 335.788 434.918 329.056C436.734 322.324 435.43 314.605 430.75 309.436C425.391 303.517 416.476 301.482 411.84 294.98C406.644 287.693 408.567 277.314 404.361 269.413C401.553 264.138 396.237 260.54 390.569 258.644C384.902 256.749 378.85 256.375 372.877 256.191C369.738 256.095 366.502 256.063 363.577 257.207C360.652 258.352 358.08 260.961 357.929 264.098C357.777 267.235 359.785 268.2 359.785 268.2Z" fill="#2F2E41"/>
<path d="M589.724 659.359H208.724C208.458 659.359 208.204 659.254 208.017 659.066C207.829 658.879 207.724 658.625 207.724 658.359C207.724 658.094 207.829 657.84 208.017 657.652C208.204 657.465 208.458 657.359 208.724 657.359H589.724C589.989 657.359 590.243 657.465 590.431 657.652C590.618 657.84 590.724 658.094 590.724 658.359C590.724 658.625 590.618 658.879 590.431 659.066C590.243 659.254 589.989 659.359 589.724 659.359Z" fill="#CACACA"/>
</g>
</g>
<defs>
<clipPath id="clip0_2422_2434">
<rect width="591" height="660" fill="white"/>
</clipPath>
</defs>
</svg>
