<svg width="750" height="500" viewBox="0 0 750 500" fill="none" xmlns="http://www.w3.org/2000/svg">
<path d="M74.1 440H583.69C613.26 429.54 639.18 408.68 643.69 330.63C643.69 330.63 652.69 152.63 516.09 103.63C379.49 54.6296 310.66 90.6296 267.22 136.63C223.78 182.63 209.3 212.63 159.53 218.63C109.76 224.63 63.6 234.63 40.07 301.63C19.79 359.45 39.28 406.86 74.1 440Z" fill="#D27D2D"/>
<path opacity="0.7" d="M74.1 440H583.69C613.26 429.54 639.18 408.68 643.69 330.63C643.69 330.63 652.69 152.63 516.09 103.63C379.49 54.6296 310.66 90.6296 267.22 136.63C223.78 182.63 209.3 212.63 159.53 218.63C109.76 224.63 63.6 234.63 40.07 301.63C19.79 359.45 39.28 406.86 74.1 440Z" fill="white"/>
<path opacity="0.2" d="M175.69 242.5H126.22V262.53H175.69V242.5Z" fill="black"/>
<path opacity="0.2" d="M346.66 187.471H297.19V207.501H346.66V187.471Z" fill="black"/>
<path opacity="0.2" d="M499.96 187.471H450.49V207.501H499.96V187.471Z" fill="black"/>
<path opacity="0.2" d="M588.4 224.811H538.93V244.841H588.4V224.811Z" fill="black"/>
<path opacity="0.1" d="M319.56 215.15H270.09V235.18H319.56V215.15Z" fill="black"/>
<path opacity="0.2" d="M233.72 187.471H184.25V207.501H233.72V187.471Z" fill="black"/>
<path opacity="0.1" d="M206.63 215.15H157.16V235.18H206.63V215.15Z" fill="black"/>
<path opacity="0.1" d="M263.17 215.15H213.7V235.18H263.17V215.15Z" fill="black"/>
<path opacity="0.2" d="M118.09 260.99H68.6201V281.02H118.09V260.99Z" fill="black"/>
<path opacity="0.1" d="M93.7 215.15H44.23V235.18H93.7V215.15Z" fill="black"/>
<path opacity="0.1" d="M150.24 215.15H100.77V235.18H150.24V215.15Z" fill="black"/>
<path opacity="0.2" d="M346.66 74.4609H297.19V94.4909H346.66V74.4609Z" fill="black"/>
<path opacity="0.1" d="M319.56 102.141H270.09V122.171H319.56V102.141Z" fill="black"/>
<path opacity="0.2" d="M352.83 370H303.36V390.03H352.83V370Z" fill="black"/>
<path opacity="0.1" d="M325.73 397.682H276.26V417.712H325.73V397.682Z" fill="black"/>
<path opacity="0.2" d="M595.28 74.4609H545.81V94.4909H595.28V74.4609Z" fill="black"/>
<path opacity="0.1" d="M568.19 102.141H518.72V122.171H568.19V102.141Z" fill="black"/>
<path opacity="0.2" d="M613.11 248.631H563.64V268.661H613.11V248.631Z" fill="black"/>
<path opacity="0.1" d="M586.02 276.311H536.55V296.341H586.02V276.311Z" fill="black"/>
<path opacity="0.2" d="M536.31 317.881H486.84V337.911H536.31V317.881Z" fill="black"/>
<path opacity="0.1" d="M509.22 345.57H459.75V365.6H509.22V345.57Z" fill="black"/>
<path opacity="0.2" d="M460.88 170.461H411.41V190.491H460.88V170.461Z" fill="black"/>
<path opacity="0.1" d="M433.79 198.141H384.32V218.171H433.79V198.141Z" fill="black"/>
<path opacity="0.2" d="M247.48 74.4609H198.01V94.4909H247.48V74.4609Z" fill="black"/>
<path opacity="0.1" d="M263.17 157.811H213.7V177.841H263.17V157.811Z" fill="black"/>
<path opacity="0.1" d="M642.37 157.811H592.9V177.841H642.37V157.811Z" fill="black"/>
<path opacity="0.1" d="M681.52 278.781H632.05V298.811H681.52V278.781Z" fill="black"/>
<path opacity="0.1" d="M586.9 157.811H537.43V177.841H586.9V157.811Z" fill="black"/>
<path opacity="0.1" d="M617 202.381H567.53V222.411H617V202.381Z" fill="black"/>
<path opacity="0.1" d="M562.21 202.381H512.74V222.411H562.21V202.381Z" fill="black"/>
<path opacity="0.2" d="M404.06 289.672H354.59V309.702H404.06V289.672Z" fill="black"/>
<path opacity="0.2" d="M404.06 343.721H354.59V363.751H404.06V343.721Z" fill="black"/>
<path opacity="0.2" d="M175.69 344.701H126.22V364.731H175.69V344.701Z" fill="black"/>
<path opacity="0.1" d="M489.04 317.352H439.57V337.382H489.04V317.352Z" fill="black"/>
<path opacity="0.1" d="M462.04 343.541H412.57V363.571H462.04V343.541Z" fill="black"/>
<path opacity="0.1" d="M632.07 317.352H582.6V337.382H632.07V317.352Z" fill="black"/>
<path opacity="0.1" d="M605.08 343.541H555.61V363.571H605.08V343.541Z" fill="black"/>
<path opacity="0.2" d="M346.66 289.672H297.19V309.702H346.66V289.672Z" fill="black"/>
<path opacity="0.1" d="M376.1 317.352H326.63V337.382H376.1V317.352Z" fill="black"/>
<path opacity="0.1" d="M352.52 374.352H303.05V394.382H352.52V374.352Z" fill="black"/>
<path opacity="0.1" d="M423.27 400.881H373.8V420.911H423.27V400.881Z" fill="black"/>
<path opacity="0.1" d="M236.56 400.881H187.09V420.911H236.56V400.881Z" fill="black"/>
<path opacity="0.1" d="M95.49 400.881H46.02V420.911H95.49V400.881Z" fill="black"/>
<path opacity="0.1" d="M275.34 249.541H225.87V269.571H275.34V249.541Z" fill="black"/>
<path opacity="0.1" d="M331.88 249.541H282.41V269.571H331.88V249.541Z" fill="black"/>
<path opacity="0.1" d="M489.12 249.541H439.65V269.571H489.12V249.541Z" fill="black"/>
<path opacity="0.2" d="M233.72 289.672H184.25V309.702H233.72V289.672Z" fill="black"/>
<path opacity="0.1" d="M288.19 346.83H238.72V366.86H288.19V346.83Z" fill="black"/>
<path opacity="0.2" d="M120.79 289.672H71.3198V309.702H120.79V289.672Z" fill="black"/>
<path opacity="0.2" d="M118.09 363.191H68.6201V383.221H118.09V363.191Z" fill="black"/>
<path opacity="0.1" d="M93.7 317.352H44.23V337.382H93.7V317.352Z" fill="black"/>
<path opacity="0.1" d="M150.24 317.352H100.77V337.382H150.24V317.352Z" fill="black"/>
<path d="M540.45 101.09H249.17V396.96H540.45V101.09Z" fill="white" stroke="#263238" stroke-linecap="round" stroke-linejoin="round"/>
<path d="M534.14 107.5H255.48V390.55H534.14V107.5Z" fill="#B8B8B8" stroke="#263238" stroke-linecap="round" stroke-linejoin="round"/>
<path d="M620.971 111.768C626.395 111.056 630.215 106.081 629.502 100.658C628.79 95.2337 623.816 91.4142 618.392 92.1264C612.968 92.8386 609.149 97.8129 609.861 103.237C610.573 108.661 615.547 112.48 620.971 111.768Z" fill="white" stroke="#263238" stroke-width="0.998499" stroke-miterlimit="10"/>
<path d="M664.73 106.821H575.51L606.74 69.5312H633.51L664.73 106.821Z" fill="#263238"/>
<path d="M626.01 62.3203H614.229V74.1003H626.01V62.3203Z" fill="#263238"/>
<path d="M620.6 64.5309V30.4609" stroke="#263238" stroke-miterlimit="10"/>
<path d="M446.75 124.27H348.04V197.58H446.75V124.27Z" fill="white" stroke="#263238" stroke-linecap="round" stroke-linejoin="round"/>
<path d="M397 152.268C397 152.268 395.27 139.378 393.7 138.438C392.13 137.498 385.37 137.808 384.9 140.798C384.43 143.788 386.63 155.098 386.63 155.098" stroke="#263238" stroke-linecap="round" stroke-linejoin="round"/>
<path d="M377.079 176.48C377.079 176.48 375.819 164.69 377.709 162.18C379.599 159.67 386.039 156.83 386.039 156.83C385.906 156.427 385.864 155.999 385.915 155.578C385.966 155.156 386.109 154.751 386.334 154.391C386.56 154.031 386.861 153.725 387.218 153.495C387.575 153.265 387.979 153.117 388.399 153.06C391.699 152.27 397.669 151.8 398.459 153.85C399.249 155.9 399.239 154.95 399.239 154.95C399.239 154.95 406.789 157.46 407.569 160.29C408.349 163.12 410.399 176.29 410.399 176.29" stroke="#263238" stroke-linecap="round" stroke-linejoin="round"/>
<path d="M400.5 158.25L393.43 170.51" stroke="#263238" stroke-linecap="round" stroke-linejoin="round"/>
<path d="M394.84 163.75L389.18 172.71" stroke="#263238" stroke-linecap="round" stroke-linejoin="round"/>
<path d="M387.29 156.829C387.29 156.829 395.47 154.829 397.83 155.099" stroke="#263238" stroke-linecap="round" stroke-linejoin="round"/>
<path d="M419.36 158.878L414.8 161.548L410.25 152.898L425.81 153.218L422.98 155.888L431.47 158.248L424.08 162.808L419.36 158.878Z" fill="#263238" stroke="#263238" stroke-linecap="round" stroke-linejoin="round"/>
<path d="M434.68 130.949H360.05V180.489H434.68V130.949Z" stroke="#263238" stroke-linecap="round" stroke-linejoin="round"/>
<path d="M424.3 184.449H432.29" stroke="#263238" stroke-linecap="round" stroke-linejoin="round"/>
<path d="M382.09 184.449H421.23" stroke="#263238" stroke-linecap="round" stroke-linejoin="round"/>
<path d="M360.54 184.449H379.74" stroke="#263238" stroke-linecap="round" stroke-linejoin="round"/>
<path d="M414.38 188.33H432.29" stroke="#263238" stroke-linecap="round" stroke-linejoin="round"/>
<path d="M395.43 188.33H412.21" stroke="#263238" stroke-linecap="round" stroke-linejoin="round"/>
<path d="M371.08 188.33H393.09" stroke="#263238" stroke-linecap="round" stroke-linejoin="round"/>
<path d="M360.54 188.33H369.46" stroke="#263238" stroke-linecap="round" stroke-linejoin="round"/>
<path d="M420.51 192.209H432.29" stroke="#263238" stroke-linecap="round" stroke-linejoin="round"/>
<path d="M377.04 192.209H417.26" stroke="#263238" stroke-linecap="round" stroke-linejoin="round"/>
<path d="M360.54 192.209H374.69" stroke="#263238" stroke-linecap="round" stroke-linejoin="round"/>
<path d="M360.88 142.569C365.326 142.569 368.93 138.965 368.93 134.519C368.93 130.073 365.326 126.469 360.88 126.469C356.434 126.469 352.83 130.073 352.83 134.519C352.83 138.965 356.434 142.569 360.88 142.569Z" fill="white" stroke="#263238" stroke-linecap="round" stroke-linejoin="round"/>
<path d="M360 138.998V131.558L359.71 131.698L359.37 131.838L359.03 131.988C358.924 132.026 358.821 132.07 358.72 132.118V130.688L359.08 130.498L359.57 130.228L360.07 129.928C360.193 129.843 360.31 129.75 360.42 129.648H361.93V138.998H360Z" fill="#263238"/>
<path d="M401.559 127.07C403.305 127.07 404.719 125.655 404.719 123.91C404.719 122.165 403.305 120.75 401.559 120.75C399.814 120.75 398.399 122.165 398.399 123.91C398.399 125.655 399.814 127.07 401.559 127.07Z" fill="#D27D2D" stroke="#263238" stroke-linecap="round" stroke-linejoin="round"/>
<path d="M403.23 125.849C404.976 125.849 406.39 124.435 406.39 122.689C406.39 120.944 404.976 119.529 403.23 119.529C401.485 119.529 400.07 120.944 400.07 122.689C400.07 124.435 401.485 125.849 403.23 125.849Z" fill="#D27D2D" stroke="#263238" stroke-linecap="round" stroke-linejoin="round"/>
<path d="M398.85 126.299L397.78 127.219" stroke="#263238" stroke-linecap="round" stroke-linejoin="round"/>
<path d="M391.76 207.359H293.05V280.669H391.76V207.359Z" fill="white" stroke="#263238" stroke-linecap="round" stroke-linejoin="round"/>
<path d="M366.03 237.368L361.47 240.048L356.92 231.398L372.48 231.708L369.65 234.388L378.14 236.738L370.75 241.298L366.03 237.368Z" fill="#263238" stroke="#263238" stroke-linecap="round" stroke-linejoin="round"/>
<path d="M345.75 223.999C345.746 223.064 345.532 222.141 345.126 221.298C344.719 220.456 344.129 219.715 343.4 219.129C340.88 217.129 335.85 217.129 333.49 219.909C331.13 222.689 331.14 223.839 331.29 225.419C331.44 226.999 333.18 237.679 333.18 237.679L347.18 233.589L346.55 229.819C346.55 229.819 347.65 229.189 347.34 226.359C347.03 223.529 345.75 223.999 345.75 223.999Z" stroke="#263238" stroke-linecap="round" stroke-linejoin="round"/>
<path d="M333.65 227.16L333.34 233.13L337.58 232.5" stroke="#263238" stroke-linecap="round" stroke-linejoin="round"/>
<path d="M337.74 223.379C337.199 223.287 336.643 223.377 336.158 223.634C335.674 223.89 335.288 224.3 335.06 224.799" stroke="#263238" stroke-linecap="round" stroke-linejoin="round"/>
<path d="M337.5 227.47C337.804 227.47 338.05 227.085 338.05 226.61C338.05 226.135 337.804 225.75 337.5 225.75C337.196 225.75 336.95 226.135 336.95 226.61C336.95 227.085 337.196 227.47 337.5 227.47Z" fill="#263238"/>
<path d="M335.38 219.77C336.95 218.98 340.1 217.57 340.88 218.67C341.66 219.77 338.68 220.4 339.47 221.67C340.26 222.94 341.82 222.46 342.47 223.4C343.12 224.34 342 226.4 343.42 226.86C344.84 227.32 344.05 226.23 345.3 225.13C346.55 224.03 346.14 224.87 346.48 224.13C346.381 224.051 346.266 223.997 346.142 223.971C346.019 223.945 345.891 223.948 345.77 223.98C345.765 223.044 345.552 222.121 345.146 221.279C344.739 220.436 344.149 219.695 343.42 219.11C340.9 217.11 335.87 217.11 333.51 219.89C333.49 219.92 333.81 220.55 335.38 219.77Z" fill="#263238"/>
<path d="M333.18 237.69L332.08 241.15L351.57 236.12L350.63 233.91L347.17 233.6L333.18 237.69Z" stroke="#263238" stroke-linecap="round" stroke-linejoin="round"/>
<path d="M334.75 241.148L324.22 250.108L322.33 262.208" stroke="#263238" stroke-linecap="round" stroke-linejoin="round"/>
<path d="M350.31 237.059C350.31 237.059 361.79 246.959 362.1 248.529C362.41 250.099 365.4 262.839 365.4 262.839" stroke="#263238" stroke-linecap="round" stroke-linejoin="round"/>
<path d="M351.999 246.648C351.999 246.648 347.759 263.778 347.439 264.248" stroke="#263238" stroke-linecap="round" stroke-linejoin="round"/>
<path d="M348.58 255.289L344.97 261.579" stroke="#263238" stroke-linecap="round" stroke-linejoin="round"/>
<path d="M328.149 249.789C328.149 249.789 334.749 256.549 335.059 262.049" stroke="#263238" stroke-linecap="round" stroke-linejoin="round"/>
<path d="M324.999 226.059C324.999 226.059 312.899 226.529 312.899 230.139C312.899 233.749 324.219 233.909 324.219 233.909" stroke="#263238" stroke-linecap="round" stroke-linejoin="round"/>
<path d="M324.85 231.398L324.22 237.218L328.78 234.228L324.85 231.398Z" fill="#263238" stroke="#263238" stroke-linecap="round" stroke-linejoin="round"/>
<path d="M381.39 214.369H306.76V263.909H381.39V214.369Z" stroke="#263238" stroke-linecap="round" stroke-linejoin="round"/>
<path d="M371.7 268.41H379.69" stroke="#263238" stroke-linecap="round" stroke-linejoin="round"/>
<path d="M329.49 268.41H368.64" stroke="#263238" stroke-linecap="round" stroke-linejoin="round"/>
<path d="M307.95 268.41H327.15" stroke="#263238" stroke-linecap="round" stroke-linejoin="round"/>
<path d="M361.78 272.279H379.69" stroke="#263238" stroke-linecap="round" stroke-linejoin="round"/>
<path d="M342.84 272.279H359.62" stroke="#263238" stroke-linecap="round" stroke-linejoin="round"/>
<path d="M318.49 272.279H340.5" stroke="#263238" stroke-linecap="round" stroke-linejoin="round"/>
<path d="M307.95 272.279H316.87" stroke="#263238" stroke-linecap="round" stroke-linejoin="round"/>
<path d="M367.91 276.16H379.69" stroke="#263238" stroke-linecap="round" stroke-linejoin="round"/>
<path d="M324.439 276.16H364.669" stroke="#263238" stroke-linecap="round" stroke-linejoin="round"/>
<path d="M307.95 276.16H322.1" stroke="#263238" stroke-linecap="round" stroke-linejoin="round"/>
<path d="M308.839 225.189C313.223 224.444 316.172 220.287 315.428 215.904C314.683 211.521 310.526 208.572 306.143 209.316C301.76 210.061 298.811 214.217 299.555 218.6C300.3 222.984 304.456 225.933 308.839 225.189Z" fill="white" stroke="#263238" stroke-linecap="round" stroke-linejoin="round"/>
<path d="M305.54 221.699V220.339L307.78 216.899L308.26 216.159C308.405 215.927 308.529 215.683 308.63 215.429C308.723 215.183 308.77 214.922 308.77 214.659C308.788 214.447 308.731 214.235 308.61 214.059C308.557 213.994 308.49 213.942 308.414 213.907C308.337 213.872 308.254 213.856 308.17 213.859C308.083 213.854 307.995 213.866 307.913 213.895C307.83 213.924 307.754 213.97 307.69 214.029C307.564 214.158 307.48 214.322 307.45 214.499C307.408 214.71 307.388 214.924 307.39 215.139V215.599H305.52V215.109C305.512 214.604 305.601 214.102 305.78 213.629C305.952 213.218 306.245 212.869 306.62 212.629C307.079 212.358 307.607 212.226 308.14 212.249C308.483 212.224 308.829 212.269 309.154 212.383C309.479 212.496 309.777 212.675 310.03 212.909C310.254 213.152 310.428 213.437 310.539 213.748C310.651 214.059 310.699 214.389 310.68 214.719C310.683 215.077 310.622 215.433 310.5 215.769C310.378 216.101 310.217 216.416 310.02 216.709C309.83 217.019 309.62 217.329 309.39 217.709L307.69 220.259H310.42V221.769L305.54 221.699Z" fill="#263238"/>
<path d="M348.94 208.65C348.938 208.025 348.751 207.415 348.403 206.897C348.054 206.379 347.56 205.975 346.982 205.738C346.405 205.5 345.77 205.439 345.158 205.562C344.545 205.685 343.983 205.987 343.542 206.429C343.101 206.871 342.801 207.434 342.68 208.047C342.559 208.66 342.622 209.295 342.862 209.872C343.101 210.448 343.506 210.941 344.026 211.288C344.545 211.635 345.156 211.82 345.78 211.82C346.196 211.82 346.608 211.738 346.992 211.579C347.376 211.419 347.725 211.185 348.018 210.891C348.312 210.596 348.544 210.247 348.702 209.862C348.861 209.478 348.941 209.066 348.94 208.65Z" fill="#D27D2D" stroke="#263238" stroke-linecap="round" stroke-linejoin="round"/>
<path d="M347.46 210.59C349.205 210.59 350.62 209.175 350.62 207.43C350.62 205.684 349.205 204.27 347.46 204.27C345.715 204.27 344.3 205.684 344.3 207.43C344.3 209.175 345.715 210.59 347.46 210.59Z" fill="#D27D2D" stroke="#263238" stroke-linecap="round" stroke-linejoin="round"/>
<path d="M343.07 211.049L342 211.959" stroke="#263238" stroke-linecap="round" stroke-linejoin="round"/>
<path d="M503.33 207.359H404.62V280.669H503.33V207.359Z" fill="white" stroke="#263238" stroke-linecap="round" stroke-linejoin="round"/>
<path d="M472.07 241.468C472.07 241.468 472.64 240.758 473.5 239.618C474.244 238.439 474.709 237.105 474.858 235.718C475.007 234.332 474.837 232.929 474.36 231.618C473.07 228.048 470.08 231.048 470.08 231.048C470.002 229.805 469.858 228.567 469.65 227.338C469.32 225.048 468.08 217.968 464.86 213.648H437.64C435.51 215.018 433.52 216.578 433.27 217.778C432.7 220.488 433.41 239.318 433.84 241.318C434.27 243.318 435.84 246.738 436.27 250.158C436.7 253.578 437.98 262.158 437.98 262.158C437.98 262.158 443.68 258.588 458.66 255.308C473.64 252.028 478.66 251.738 478.66 251.738L474.52 250.888L472.07 241.468Z" stroke="#263238" stroke-linecap="round" stroke-linejoin="round"/>
<path d="M464.859 213.66H459.669C461.559 216.98 458.519 219.79 458.669 222.5C458.819 225.21 462.949 226.35 463.379 227.35C463.809 228.35 463.239 235.76 463.379 236.76C463.519 237.76 465.659 236.76 466.809 236.76C467.959 236.76 467.809 236.05 468.089 233.76C468.113 233.16 468.317 232.581 468.673 232.098C469.03 231.615 469.523 231.25 470.089 231.05C470.011 229.807 469.868 228.568 469.659 227.34C469.319 225.06 468.079 218 464.859 213.66Z" fill="#263238" stroke="#263238" stroke-linecap="round" stroke-linejoin="round"/>
<path d="M437.65 213.66C436.99 214.08 436.34 214.52 435.76 214.97L435.84 215.08C437.84 217.64 442.68 217.79 448.95 213.66H437.65Z" fill="#263238" stroke="#263238" stroke-linecap="round" stroke-linejoin="round"/>
<path d="M470.08 231.059L470.5 230.689C470.351 230.803 470.211 230.926 470.08 231.059Z" stroke="#263238" stroke-linecap="round" stroke-linejoin="round"/>
<path d="M445.68 231.339C445.68 231.339 447.54 228.629 449.11 230.339C449.996 231.236 450.592 232.379 450.82 233.619" stroke="#263238" stroke-linecap="round" stroke-linejoin="round"/>
<path d="M451 233.479C451 234.819 450.43 235.909 449.72 235.909C449.01 235.909 448.43 234.819 448.43 233.479C448.43 232.139 449.01 231.059 449.72 231.059C450.43 231.059 451 232.139 451 233.479Z" fill="#263238"/>
<path d="M438.55 232.34C438.55 232.34 437.84 248.6 437.84 249.6C437.84 250.6 448.39 246.75 448.39 246.75" stroke="#263238" stroke-linecap="round" stroke-linejoin="round"/>
<path d="M441.83 249.318L441.97 253.598L446.11 253.308C446.11 253.308 442.83 253.878 442.69 254.878L442.54 255.878L443.11 258.448" stroke="#263238" stroke-linecap="round" stroke-linejoin="round"/>
<path d="M447.25 238.619C449.248 239.352 451.301 239.924 453.39 240.329" stroke="#263238" stroke-linecap="round" stroke-linejoin="round"/>
<path d="M443.68 226.489C443.68 226.489 447.11 224.489 449.39 224.489C450.675 224.452 451.934 224.854 452.96 225.629" stroke="#263238" stroke-linecap="round" stroke-linejoin="round"/>
<path d="M434.27 220.93C434.27 220.93 433.27 227.77 434.27 228.63C435.27 229.49 437.12 228.35 437.69 229.63L438.26 230.91" stroke="#263238" stroke-linecap="round" stroke-linejoin="round"/>
<path d="M456.1 263C456.1 263 472.93 258 483.49 256" stroke="#263238" stroke-linecap="round" stroke-linejoin="round"/>
<path d="M491.4 213.979H416.77V263.519H491.4V213.979Z" stroke="#263238" stroke-linecap="round" stroke-linejoin="round"/>
<path d="M481.18 268.41H489.17" stroke="#263238" stroke-linecap="round" stroke-linejoin="round"/>
<path d="M438.97 268.41H478.11" stroke="#263238" stroke-linecap="round" stroke-linejoin="round"/>
<path d="M417.43 268.41H436.62" stroke="#263238" stroke-linecap="round" stroke-linejoin="round"/>
<path d="M471.26 272.279H489.17" stroke="#263238" stroke-linecap="round" stroke-linejoin="round"/>
<path d="M452.32 272.279H469.09" stroke="#263238" stroke-linecap="round" stroke-linejoin="round"/>
<path d="M427.97 272.279H449.97" stroke="#263238" stroke-linecap="round" stroke-linejoin="round"/>
<path d="M417.43 272.279H426.34" stroke="#263238" stroke-linecap="round" stroke-linejoin="round"/>
<path d="M477.39 276.16H489.17" stroke="#263238" stroke-linecap="round" stroke-linejoin="round"/>
<path d="M433.92 276.16H474.14" stroke="#263238" stroke-linecap="round" stroke-linejoin="round"/>
<path d="M417.43 276.16H431.57" stroke="#263238" stroke-linecap="round" stroke-linejoin="round"/>
<path d="M422.346 225.225C426.734 224.512 429.713 220.376 428.999 215.987C428.285 211.599 424.149 208.62 419.761 209.334C415.373 210.048 412.394 214.184 413.108 218.573C413.822 222.961 417.958 225.939 422.346 225.225Z" fill="white" stroke="#263238" stroke-linecap="round" stroke-linejoin="round"/>
<path d="M421.46 221.869C420.922 221.9 420.386 221.771 419.92 221.499C419.551 221.262 419.27 220.911 419.12 220.499C418.96 220.005 418.882 219.488 418.89 218.969V218.629H420.82V218.969C420.813 219.22 420.829 219.471 420.87 219.719C420.894 219.877 420.968 220.024 421.08 220.139C421.199 220.234 421.349 220.28 421.5 220.269C421.572 220.276 421.644 220.267 421.711 220.243C421.779 220.219 421.84 220.18 421.89 220.129C421.991 220.014 422.054 219.871 422.07 219.719C422.105 219.49 422.121 219.26 422.12 219.029C422.141 218.665 422.076 218.302 421.93 217.969C421.847 217.839 421.728 217.735 421.588 217.67C421.449 217.605 421.293 217.58 421.14 217.599H420.78V216.269H421.09C421.245 216.29 421.402 216.27 421.546 216.21C421.69 216.15 421.816 216.053 421.91 215.929C422.066 215.619 422.138 215.275 422.12 214.929C422.152 214.614 422.111 214.295 422 213.999C421.948 213.904 421.868 213.827 421.772 213.777C421.676 213.728 421.568 213.707 421.46 213.719C421.353 213.706 421.244 213.732 421.153 213.79C421.062 213.848 420.994 213.936 420.96 214.039C420.872 214.306 420.831 214.587 420.84 214.869V215.359H418.91V214.789C418.896 214.295 418.998 213.805 419.21 213.359C419.409 212.984 419.716 212.678 420.09 212.479C420.516 212.269 420.986 212.166 421.46 212.179C421.936 212.167 422.409 212.266 422.84 212.469C423.219 212.652 423.53 212.949 423.73 213.319C423.952 213.747 424.059 214.226 424.04 214.709C424.057 215.187 423.943 215.661 423.71 216.079C423.628 216.241 423.514 216.385 423.375 216.501C423.235 216.618 423.074 216.706 422.9 216.759C423.119 216.837 423.317 216.964 423.48 217.129C423.671 217.322 423.812 217.559 423.89 217.819C423.996 218.203 424.033 218.602 424 218.999C424.009 219.512 423.928 220.023 423.76 220.509C423.598 220.919 423.311 221.269 422.94 221.509C422.492 221.769 421.978 221.894 421.46 221.869Z" fill="#263238"/>
<path d="M453.01 209.92C454.755 209.92 456.17 208.505 456.17 206.76C456.17 205.014 454.755 203.6 453.01 203.6C451.264 203.6 449.85 205.014 449.85 206.76C449.85 208.505 451.264 209.92 453.01 209.92Z" fill="#D27D2D" stroke="#263238" stroke-linecap="round" stroke-linejoin="round"/>
<path d="M454.69 208.699C456.435 208.699 457.85 207.284 457.85 205.539C457.85 203.794 456.435 202.379 454.69 202.379C452.945 202.379 451.53 203.794 451.53 205.539C451.53 207.284 452.945 208.699 454.69 208.699Z" fill="#D27D2D" stroke="#263238" stroke-linecap="round" stroke-linejoin="round"/>
<path d="M450.299 209.148L449.229 210.068" stroke="#263238" stroke-linecap="round" stroke-linejoin="round"/>
<path d="M391.76 292.029H293.05V365.339H391.76V292.029Z" fill="white" stroke="#263238" stroke-linecap="round" stroke-linejoin="round"/>
<path d="M379.13 302.898C379.13 302.898 361.85 308.428 360.44 309.558C359.03 310.688 345.57 317.908 344.72 319.758C343.87 321.608 337.64 327.398 336.36 328.958C335.08 330.518 336.79 332.778 338.63 333.768C340.47 334.758 346.27 340.568 346.27 340.568C346.27 340.568 346.27 342.978 349.27 344.568C352.27 346.158 353.37 346.568 354.65 345.418C355.485 344.631 356.199 343.725 356.77 342.728C357.013 341.75 357.452 340.83 358.06 340.026C358.669 339.221 359.434 338.549 360.31 338.048C363.15 336.638 364.42 336.208 365.55 333.238C366.68 330.268 368.67 323.468 368.67 323.468L380.67 319.928" stroke="#263238" stroke-linecap="round" stroke-linejoin="round"/>
<path d="M356.75 342.699C356.75 342.699 360.29 343.259 361.57 342.129C362.85 340.999 362.42 337.129 362.42 337.129" stroke="#263238" stroke-linecap="round" stroke-linejoin="round"/>
<path d="M362.28 341.139C362.28 341.139 364.54 342.269 365.96 339.139C366.367 338.175 366.54 337.13 366.465 336.087C366.39 335.044 366.07 334.034 365.53 333.139" stroke="#263238" stroke-linecap="round" stroke-linejoin="round"/>
<path d="M366.81 337.74C366.81 337.74 370.06 335.74 370.06 333.07C370.06 330.4 367.06 328.54 367.06 328.54C367.06 328.54 372.16 328.82 373.15 326.98C373.926 325.421 374.594 323.811 375.15 322.16" stroke="#263238" stroke-linecap="round" stroke-linejoin="round"/>
<path d="M349.25 344.539C349.25 344.539 346.84 341.849 348.12 340.009C349.4 338.169 351.12 336.009 351.8 333.629" stroke="#263238" stroke-linecap="round" stroke-linejoin="round"/>
<path d="M354.06 333.919C354.06 333.919 349.25 331.919 346.7 332.779" stroke="#263238" stroke-linecap="round" stroke-linejoin="round"/>
<path d="M345.28 329.529C345.28 329.529 353.07 331.369 355.62 333.529" stroke="#263238" stroke-linecap="round" stroke-linejoin="round"/>
<path d="M362 304.6C362 304.6 352.37 311.26 346.57 315.22" stroke="#263238" stroke-linecap="round" stroke-linejoin="round"/>
<path d="M349 310.689C349 310.689 345.75 313.809 342.77 317.349" stroke="#263238" stroke-linecap="round" stroke-linejoin="round"/>
<path d="M318.66 299.219C318.66 299.219 314.13 306.589 314.41 307.719C314.892 308.78 315.571 309.74 316.41 310.549L312.17 326.549L319.11 327.399C319.11 327.399 315.99 331.079 316.41 331.929C316.83 332.779 317.41 332.639 317.97 333.069C317.97 333.069 315.71 334.339 315.71 335.469C315.71 336.599 318.54 337.599 318.96 337.599C319.38 337.599 320.38 345.949 320.52 346.799C320.622 347.375 320.766 347.943 320.95 348.499" stroke="#263238" stroke-linecap="round" stroke-linejoin="round"/>
<path d="M318.66 309C318.66 309 319.37 303.76 326.02 303.34" stroke="#263238" stroke-linecap="round" stroke-linejoin="round"/>
<path d="M319.93 311.54C320.661 310.763 321.578 310.186 322.595 309.864C323.612 309.542 324.695 309.485 325.74 309.7" stroke="#263238" stroke-linecap="round" stroke-linejoin="round"/>
<path d="M320.22 312.67C320.22 312.67 321.92 314.94 326.17 315.08" stroke="#263238" stroke-linecap="round" stroke-linejoin="round"/>
<path d="M336.669 300C336.669 300 328.999 301.47 331.259 303.31C333.519 305.15 337.349 306.14 337.779 307.31C338.403 310.29 338.591 313.345 338.339 316.38C338.059 319.78 339.049 320.48 340.189 319.92C341.329 319.36 341.459 310.85 345.139 307.92C348.819 304.99 350.659 310.47 350.659 310.92C350.659 311.37 358.509 300.76 358.509 300.76" fill="#263238"/>
<path d="M336.669 300C336.669 300 328.999 301.47 331.259 303.31C333.519 305.15 337.349 306.14 337.779 307.31C338.403 310.29 338.591 313.345 338.339 316.38C338.059 319.78 339.049 320.48 340.189 319.92C341.329 319.36 341.459 310.85 345.139 307.92C348.819 304.99 350.659 310.47 350.659 310.92C350.659 311.37 358.509 300.76 358.509 300.76" stroke="#263238" stroke-linecap="round" stroke-linejoin="round"/>
<path d="M331.83 348.79L344.72 342.41" stroke="#263238" stroke-linecap="round" stroke-linejoin="round"/>
<path d="M381.64 299.369H307.01V348.909H381.64V299.369Z" stroke="#263238" stroke-linecap="round" stroke-linejoin="round"/>
<path d="M371.7 353.309H379.69" stroke="#263238" stroke-linecap="round" stroke-linejoin="round"/>
<path d="M329.49 353.309H368.64" stroke="#263238" stroke-linecap="round" stroke-linejoin="round"/>
<path d="M307.95 353.309H327.15" stroke="#263238" stroke-linecap="round" stroke-linejoin="round"/>
<path d="M361.78 357.18H379.69" stroke="#263238" stroke-linecap="round" stroke-linejoin="round"/>
<path d="M342.84 357.18H359.62" stroke="#263238" stroke-linecap="round" stroke-linejoin="round"/>
<path d="M318.49 357.18H340.5" stroke="#263238" stroke-linecap="round" stroke-linejoin="round"/>
<path d="M307.95 357.18H316.87" stroke="#263238" stroke-linecap="round" stroke-linejoin="round"/>
<path d="M367.91 361.059H379.69" stroke="#263238" stroke-linecap="round" stroke-linejoin="round"/>
<path d="M324.439 361.059H364.669" stroke="#263238" stroke-linecap="round" stroke-linejoin="round"/>
<path d="M307.95 361.059H322.1" stroke="#263238" stroke-linecap="round" stroke-linejoin="round"/>
<path d="M314.806 306.008C316.661 301.968 314.89 297.188 310.849 295.334C306.809 293.479 302.03 295.25 300.175 299.291C298.32 303.331 300.091 308.11 304.132 309.965C308.172 311.82 312.951 310.048 314.806 306.008Z" fill="white" stroke="#263238" stroke-linecap="round" stroke-linejoin="round"/>
<path d="M308 307.06V305H305.12V303.59L307.56 297.76H309.8V303.57H310.66V305H309.8V307.11L308 307.06ZM306.59 303.52H308V299.63L306.59 303.52Z" fill="#263238"/>
<path d="M346.73 295.609C348.476 295.609 349.89 294.194 349.89 292.449C349.89 290.704 348.476 289.289 346.73 289.289C344.985 289.289 343.57 290.704 343.57 292.449C343.57 294.194 344.985 295.609 346.73 295.609Z" fill="#D27D2D" stroke="#263238" stroke-linecap="round" stroke-linejoin="round"/>
<path d="M348.4 294.388C350.145 294.388 351.56 292.974 351.56 291.228C351.56 289.483 350.145 288.068 348.4 288.068C346.655 288.068 345.24 289.483 345.24 291.228C345.24 292.974 346.655 294.388 348.4 294.388Z" fill="#D27D2D" stroke="#263238" stroke-linecap="round" stroke-linejoin="round"/>
<path d="M344.02 294.84L342.95 295.75" stroke="#263238" stroke-linecap="round" stroke-linejoin="round"/>
<path d="M504.91 292.029H406.2V365.339H504.91V292.029Z" fill="white" stroke="#263238" stroke-linecap="round" stroke-linejoin="round"/>
<path d="M428.669 340.08L423.439 349.16H428.999L433.409 342.16L434.819 342.79L437.029 339.17L437.499 337.44L439.499 335.24L437.099 349.24H473.769L471.769 340.48C472.464 341.251 473.198 341.985 473.969 342.68C474.439 342.99 477.739 342.05 477.739 342.05C477.739 342.05 480.099 343.94 481.669 342.21C483.239 340.48 487.009 322.21 487.329 320.51C487.752 318.805 488.066 317.075 488.269 315.33C488.269 314.07 486.539 312.5 484.969 311.87C483.399 311.24 481.669 311.55 481.349 312.81C481.029 314.07 479.629 313.13 479.149 314.7C478.669 316.27 478.679 317.06 479.149 317.53C479.619 318 482.149 321.14 482.149 321.14C482.149 321.14 479.479 329.14 479.319 330.14C478.946 331.159 478.416 332.114 477.749 332.97L476.649 331.24L475.389 330.93C475.389 330.93 472.879 320.24 472.389 319.61C471.899 318.98 465.009 319.45 465.009 319.45C465.009 319.45 467.679 317.57 467.679 317.1C467.679 316.63 462.329 314.9 462.329 314.9L462.489 313.01C462.489 313.01 464.689 312.22 464.849 311.28C464.909 310.334 464.856 309.384 464.689 308.45L463.429 307.35C463.429 307.35 463.749 301.53 463.589 300.9C463.429 300.27 465.479 300.75 465.319 299.49C465.159 298.23 460.759 296.66 456.319 298.55C455.494 298.531 454.675 298.689 453.916 299.013C453.157 299.338 452.476 299.821 451.919 300.43C450.189 302.48 449.719 303.26 449.919 304.36C450.019 305.3 450.069 306.245 450.069 307.19C450.069 307.19 449.439 305.46 448.819 307.19C448.199 308.92 448.339 310.02 448.819 310.65C449.298 311.113 449.892 311.438 450.539 311.59L450.229 314.42C450.229 314.42 446.609 313.64 446.929 314.42C447.249 315.2 449.929 317.1 449.929 317.1C449.929 317.1 441.589 315.37 440.649 317.25C439.709 319.13 432.159 333.44 432.159 333.44C432.159 333.44 431.059 332.97 430.429 333.6C429.799 334.23 426.659 338.6 427.289 339.26C427.699 339.611 428.166 339.888 428.669 340.08Z" fill="#263238" stroke="#263238" stroke-linecap="round" stroke-linejoin="round"/>
<path d="M494.109 299.619H419.479V349.159H494.109V299.619Z" stroke="#263238" stroke-linecap="round" stroke-linejoin="round"/>
<path d="M421.899 316.29L442.669 309.58L422.329 310.66" stroke="#263238" stroke-linecap="round" stroke-linejoin="round"/>
<path d="M422.12 306.119L441.59 307.199L428.18 302.439" stroke="#263238" stroke-linecap="round" stroke-linejoin="round"/>
<path d="M479.659 302.66L467.109 307.85L487.879 304.18" stroke="#263238" stroke-linecap="round" stroke-linejoin="round"/>
<path d="M490.25 310.66L469.27 312.61L491.99 316.07" stroke="#263238" stroke-linecap="round" stroke-linejoin="round"/>
<path d="M483.55 353.559H491.54" stroke="#263238" stroke-linecap="round" stroke-linejoin="round"/>
<path d="M441.34 353.559H480.49" stroke="#263238" stroke-linecap="round" stroke-linejoin="round"/>
<path d="M419.8 353.559H439" stroke="#263238" stroke-linecap="round" stroke-linejoin="round"/>
<path d="M473.63 357.439H491.54" stroke="#263238" stroke-linecap="round" stroke-linejoin="round"/>
<path d="M454.689 357.439H471.469" stroke="#263238" stroke-linecap="round" stroke-linejoin="round"/>
<path d="M430.34 357.439H452.35" stroke="#263238" stroke-linecap="round" stroke-linejoin="round"/>
<path d="M419.8 357.439H428.72" stroke="#263238" stroke-linecap="round" stroke-linejoin="round"/>
<path d="M479.76 361.309H491.54" stroke="#263238" stroke-linecap="round" stroke-linejoin="round"/>
<path d="M436.29 361.309H476.52" stroke="#263238" stroke-linecap="round" stroke-linejoin="round"/>
<path d="M419.8 361.309H433.95" stroke="#263238" stroke-linecap="round" stroke-linejoin="round"/>
<path d="M423.43 310.53C427.876 310.53 431.48 306.926 431.48 302.48C431.48 298.034 427.876 294.43 423.43 294.43C418.984 294.43 415.38 298.034 415.38 302.48C415.38 306.926 418.984 310.53 423.43 310.53Z" fill="white" stroke="#263238" stroke-linecap="round" stroke-linejoin="round"/>
<path d="M423.539 307.479C422.999 307.515 422.459 307.389 421.989 307.119C421.644 306.879 421.392 306.525 421.279 306.119C421.151 305.623 421.091 305.112 421.099 304.599H422.999C422.995 304.89 423.015 305.182 423.059 305.469C423.079 305.649 423.156 305.818 423.279 305.949C423.403 306.049 423.561 306.096 423.719 306.079C423.806 306.081 423.891 306.059 423.967 306.017C424.042 305.975 424.105 305.914 424.149 305.839C424.242 305.628 424.293 305.4 424.299 305.169C424.299 304.879 424.299 304.539 424.299 304.169C424.316 303.896 424.316 303.622 424.299 303.349C424.278 303.145 424.206 302.949 424.089 302.779C424.035 302.707 423.964 302.649 423.882 302.61C423.8 302.572 423.71 302.554 423.619 302.559C423.53 302.557 423.442 302.574 423.36 302.61C423.279 302.647 423.207 302.701 423.149 302.769C423.008 302.96 422.918 303.184 422.889 303.419H421.219L421.399 298.029H425.759V299.649H422.939L422.839 301.569C422.955 301.435 423.108 301.337 423.279 301.289C423.502 301.208 423.734 301.154 423.969 301.129C424.391 301.068 424.82 301.161 425.179 301.389C425.521 301.641 425.778 301.989 425.919 302.389C426.093 302.935 426.174 303.507 426.159 304.079C426.162 304.541 426.132 305.002 426.069 305.459C426.021 305.842 425.898 306.213 425.709 306.549C425.53 306.858 425.262 307.106 424.939 307.259C424.497 307.443 424.017 307.519 423.539 307.479Z" fill="#263238"/>
<path d="M456.41 294.15C458.155 294.15 459.57 292.735 459.57 290.99C459.57 289.245 458.155 287.83 456.41 287.83C454.665 287.83 453.25 289.245 453.25 290.99C453.25 292.735 454.665 294.15 456.41 294.15Z" fill="#D27D2D" stroke="#263238" stroke-linecap="round" stroke-linejoin="round"/>
<path d="M458.08 292.929C459.825 292.929 461.24 291.515 461.24 289.769C461.24 288.024 459.825 286.609 458.08 286.609C456.335 286.609 454.92 288.024 454.92 289.769C454.92 291.515 456.335 292.929 458.08 292.929Z" fill="#D27D2D" stroke="#263238" stroke-linecap="round" stroke-linejoin="round"/>
<path d="M453.7 293.379L452.63 294.299" stroke="#263238" stroke-linecap="round" stroke-linejoin="round"/>
<path d="M607.3 411.899C607.36 413.329 607.47 414.759 607.56 416.179C607.78 419.029 607.95 435.469 608.21 438.309C608.21 438.789 608.32 439.259 608.37 439.739H610.37C610.37 439.219 610.37 438.739 610.37 438.189C610.37 435.349 610.31 418.929 610.28 416.089L610.2 411.839L610.28 407.589V399.089L610.51 390.589L610.59 386.339C610.65 384.929 610.75 383.519 610.83 382.099L611.35 373.609C612.323 362.301 613.929 351.057 616.16 339.929C618.277 328.761 621.356 317.797 625.36 307.159C625.365 307.125 625.359 307.091 625.342 307.062C625.326 307.033 625.3 307.01 625.268 306.997C625.237 306.985 625.203 306.983 625.17 306.992C625.138 307.001 625.11 307.021 625.09 307.049C620.692 317.584 617.216 328.482 614.7 339.619C612.152 350.758 610.236 362.033 608.96 373.389L608.15 381.919C608.03 383.349 607.87 384.769 607.77 386.189L607.54 390.479C607.41 393.329 607.24 396.189 607.16 399.049L607.23 407.619L607.3 411.899Z" fill="#263238"/>
<path d="M617.34 439.739C617.56 436.939 617.76 420.559 617.95 417.739C618.48 410.319 618.55 402.879 619.04 395.449C619.504 388.042 620.389 380.666 621.69 373.359C622.904 366.014 624.527 358.743 626.55 351.579C626.556 351.56 626.559 351.54 626.557 351.52C626.555 351.5 626.55 351.481 626.54 351.463C626.531 351.445 626.518 351.43 626.503 351.417C626.487 351.404 626.469 351.395 626.45 351.389C626.413 351.376 626.372 351.378 626.337 351.395C626.301 351.412 626.274 351.442 626.26 351.479C621.404 365.657 618.177 380.342 616.64 395.249C615.89 402.689 615.06 410.129 614.95 417.609C614.95 420.449 614.95 436.869 614.95 439.709L617.34 439.739Z" fill="#263238"/>
<path d="M623.3 439.739L623.581 422.839C624.331 415.679 624.791 408.469 626.331 401.479C626.521 400.609 626.78 399.749 627 398.889C627.202 398.024 627.456 397.172 627.76 396.339L628.641 393.829L629.771 391.469C631.484 388.31 633.458 385.3 635.67 382.469C640.07 376.728 645.281 371.659 651.141 367.419C651.165 367.391 651.179 367.355 651.179 367.319C651.179 367.282 651.165 367.246 651.141 367.219C651.118 367.186 651.084 367.162 651.045 367.153C651.006 367.144 650.965 367.149 650.93 367.169C644.77 371.131 639.221 375.972 634.461 381.539C632.064 384.336 629.906 387.33 628.01 390.489L626.69 392.989L625.69 395.589C625.341 396.448 625.041 397.326 624.79 398.219C624.52 399.099 624.23 399.989 623.99 400.879C622.101 407.984 620.959 415.266 620.581 422.609C620.531 423.779 620.5 438.539 620.48 439.719L623.3 439.739Z" fill="#263238"/>
<path d="M628.54 439.739C628.77 438.129 628.97 422.939 629.1 421.309C629.36 419.439 629.5 417.519 629.91 415.659C630.575 411.907 631.655 408.241 633.13 404.729C634.59 401.249 636.49 397.789 639.42 395.339C639.445 395.311 639.459 395.275 639.459 395.239C639.459 395.202 639.445 395.166 639.42 395.139C639.392 395.111 639.355 395.096 639.315 395.096C639.276 395.096 639.238 395.111 639.21 395.139C635.85 397.309 633.61 400.709 631.72 404.139C629.919 407.639 628.511 411.328 627.52 415.139C627.23 416.079 627 417.039 626.79 417.999L626.11 420.879C625.8 422.629 625.56 437.989 625.44 439.759L628.54 439.739Z" fill="#263238"/>
<path d="M598.43 388.46C599.61 398 600.52 407.57 601.72 417.1L602.831 439.74H605.37C605.19 436.61 604.941 419.91 604.711 416.74C603.901 407.12 602.31 397.6 600.81 388.08C599.31 378.56 597.65 369.08 595.91 359.6C594.17 350.12 592.22 340.69 590.18 331.28C590.173 331.242 590.151 331.208 590.12 331.186C590.088 331.163 590.049 331.154 590.011 331.16C589.97 331.167 589.933 331.19 589.909 331.224C589.885 331.257 589.875 331.299 589.881 331.34C591.531 340.82 593.02 350.34 594.43 359.85C595.84 369.36 597.23 378.92 598.43 388.46Z" fill="#263238"/>
<path d="M574.58 352.879C577.108 355.721 579.244 358.889 580.93 362.299C581.76 364.009 582.65 365.689 583.36 367.459L584.49 370.069L585.49 372.749C588.16 379.876 590.302 387.189 591.9 394.629C592.78 398.329 593.36 402.099 594.08 405.829L594.98 411.469C595.31 413.339 595.71 415.209 595.98 417.089C596.46 420.089 596.98 436.719 597.54 439.739H599.89C599.64 436.569 599.28 419.809 598.95 416.639C598.44 412.829 597.74 409.049 597.01 405.269L595.66 399.649C595.22 397.779 594.8 395.909 594.25 394.059C592.333 386.598 589.876 379.285 586.9 372.179L585.74 369.539L584.45 366.999C583.64 365.249 582.65 363.589 581.71 361.909C579.824 358.542 577.49 355.447 574.77 352.709C574.758 352.694 574.743 352.683 574.725 352.674C574.708 352.666 574.689 352.662 574.67 352.662C574.651 352.662 574.632 352.666 574.615 352.674C574.598 352.683 574.582 352.694 574.57 352.709C574.543 352.737 574.527 352.775 574.527 352.814C574.527 352.853 574.543 352.891 574.57 352.919L574.58 352.879Z" fill="#263238"/>
<path d="M583.51 402.898C585.51 407.818 587.22 412.808 588.7 417.898C589.51 420.638 590.2 436.988 590.87 439.758H594C593.1 436.758 592 420.138 591 417.148C589.22 412.148 587.16 407.148 584.91 402.318C582.635 397.505 580.077 392.83 577.25 388.318C577.228 388.285 577.194 388.262 577.155 388.252C577.116 388.243 577.075 388.249 577.04 388.268C577.016 388.296 577.002 388.331 577.002 388.368C577.002 388.405 577.016 388.441 577.04 388.468C579.48 393.146 581.64 397.965 583.51 402.898Z" fill="#263238"/>
<path d="M571.801 412.73C574.641 414.092 577.157 416.046 579.181 418.46C581.241 420.76 582.891 436.99 584.271 439.74H587.071L586.421 438.65C584.681 435.86 582.671 419.65 580.251 417.41C579.037 416.294 577.725 415.29 576.331 414.41C574.957 413.523 573.456 412.849 571.881 412.41C571.847 412.402 571.811 412.407 571.78 412.424C571.749 412.44 571.724 412.467 571.711 412.5C571.703 412.517 571.699 412.536 571.698 412.556C571.698 412.575 571.702 412.594 571.709 412.612C571.717 412.63 571.728 412.646 571.742 412.659C571.756 412.673 571.773 412.683 571.791 412.69L571.801 412.73Z" fill="#263238"/>
<path d="M591.24 345.089C591.24 345.089 575.48 341.449 571.84 324.479C568.2 307.509 579.93 314.779 569.42 288.099C558.91 261.419 561.34 255.369 564.97 247.689C568.6 240.009 570.63 242.439 573.87 252.539C577.11 262.639 588.87 278.409 593.27 307.909C597.67 337.409 591.24 345.089 591.24 345.089Z" fill="#D27D2D"/>
<path d="M622.361 316.399C622.361 316.399 611.861 312.759 611.451 292.949C611.041 273.139 619.131 277.189 620.341 252.539C621.551 227.889 623.171 210.539 627.621 210.099C632.071 209.659 643.781 222.229 647.831 249.709C651.881 277.189 642.571 295.379 634.491 303.459C626.411 311.539 622.361 316.399 622.361 316.399Z" fill="#D27D2D"/>
<path d="M585.591 368.94C585.591 368.94 583.161 354.39 578.311 347.52C573.461 340.65 563.001 334.58 556.081 321.25C549.161 307.92 541.531 301.44 541.941 320.44C542.351 339.44 550.831 349.13 561.341 355.6C571.851 362.07 585.591 368.94 585.591 368.94Z" fill="#D27D2D"/>
<path d="M581.141 394C581.141 394 571.44 375.41 557.3 361.67C543.16 347.93 531.83 341.06 535.87 347.93C539.91 354.8 544.771 354.4 551.641 366.52C558.511 378.64 556.491 387.52 566.191 394.41C575.891 401.3 581.141 394 581.141 394Z" fill="#D27D2D"/>
<path d="M579.93 417.838C579.52 416.628 579.12 407.739 565.38 400.459C551.64 393.179 538.7 396.018 540.32 399.648C541.94 403.278 550.42 409.349 558.91 412.989C567.4 416.629 579.93 417.838 579.93 417.838Z" fill="#D27D2D"/>
<path d="M621.56 369.748C621.56 369.748 615.49 362.068 618.73 345.898C621.97 329.728 629.24 333.768 637.32 325.288C645.4 316.808 643.78 315.588 651.87 306.698C659.96 297.808 667.23 292.948 670.46 296.588C673.69 300.228 668.84 311.588 663.99 318.008C659.14 324.428 651.46 327.708 647.83 335.798C644.2 343.888 645.83 356.798 636.51 362.868C627.19 368.938 621.56 369.748 621.56 369.748Z" fill="#D27D2D"/>
<path d="M641.761 374.189C641.761 374.189 656.311 357.619 666.821 345.499C677.331 333.379 681.371 324.079 681.821 332.159C682.271 340.239 685.451 346.709 676.971 357.219C668.491 367.729 641.761 374.189 641.761 374.189Z" fill="#D27D2D"/>
<path d="M634.09 400.869C634.09 400.869 633.68 394.399 656.72 379.439C679.76 364.479 689.45 361.659 687.03 367.719C684.61 373.779 674.5 379.849 663.59 390.719C652.68 401.589 634.09 400.869 634.09 400.869Z" fill="#D27D2D"/>
<path d="M592.211 343.369C592.211 343.369 586.801 314.369 581.141 293.759C575.481 273.149 571.841 260.619 571.841 260.619" stroke="#263238" stroke-linecap="round" stroke-linejoin="round"/>
<path d="M621.431 316.698C621.431 316.698 631.261 285.278 634.491 266.278C637.721 247.278 634.091 233.138 632.491 224.648" stroke="#263238" stroke-linecap="round" stroke-linejoin="round"/>
<path d="M584.31 368.33C579.958 360.847 574.977 353.748 569.42 347.11C560.53 336.6 553.66 330.95 549.62 320.84" stroke="#263238" stroke-linecap="round" stroke-linejoin="round"/>
<path d="M621.561 369.748C621.561 369.748 624.791 350.348 632.471 340.238C640.151 330.128 655.471 314.378 661.571 304.238" stroke="#263238" stroke-linecap="round" stroke-linejoin="round"/>
<path d="M579 417.399C579 417.399 565.4 408.539 555.7 403.689" stroke="#263238" stroke-linecap="round" stroke-linejoin="round"/>
<path d="M301.521 290.541C301.521 290.541 307.631 281.661 307.911 280.001C308.191 278.341 308.191 271.111 309.851 266.671C311.511 262.231 314.851 259.451 315.681 255.011C316.511 250.571 317.351 249.181 319.571 251.951C321.791 254.721 320.961 262.781 320.121 264.451C319.281 266.121 330.951 255.561 334.841 252.511C338.731 249.461 348.441 243.631 349.551 246.121C350.661 248.611 347.611 250.841 345.671 252.231C343.731 253.621 336.511 259.731 336.511 259.731L335.671 261.671C339.329 259.58 342.852 257.262 346.221 254.731C349.635 252.127 353.641 250.409 357.881 249.731C360.661 249.461 362.051 252.231 357.601 255.561C353.151 258.891 346.501 263.061 345.111 264.171C343.721 265.281 338.171 270.001 338.171 270.001C338.171 270.001 348.721 266.391 352.611 264.171C356.501 261.951 359.831 260.281 360.941 262.231C362.051 264.181 360.101 265.561 356.221 267.501C352.341 269.441 342.611 275.001 342.611 275.001C342.611 275.001 352.611 273.611 355.661 273.051C358.711 272.491 361.491 275.001 358.161 277.221C354.831 279.441 343.721 281.661 342.891 282.221C342.061 282.781 331.231 291.381 325.401 293.001C322.57 293.757 319.788 294.686 317.071 295.781C317.071 295.781 312.631 300.781 311.801 301.611C310.971 302.441 301.521 290.541 301.521 290.541Z" fill="#B8B8B8" stroke="#263238" stroke-linecap="round" stroke-linejoin="round"/>
<path d="M320.12 264.449L321.51 271.109C321.51 271.109 324.01 276.389 322.07 279.719C321.033 281.573 319.722 283.259 318.18 284.719" stroke="#263238" stroke-linecap="round" stroke-linejoin="round"/>
<path d="M334.01 265.84L341.5 275.83" stroke="#263238" stroke-linecap="round" stroke-linejoin="round"/>
<path d="M291.81 298.871C291.81 298.871 300.97 288.871 302.08 288.051C303.19 287.231 314.29 300.261 314.85 301.651C315.41 303.041 305.13 313.591 305.13 313.591C305.13 313.591 293.47 304.431 291.81 298.871Z" fill="white" stroke="#263238" stroke-linecap="round" stroke-linejoin="round"/>
<path d="M228.51 271.39C228.51 271.39 239.61 288.6 241.83 296.93C244.05 305.26 250.44 329.41 250.44 329.41C250.44 329.41 264.88 318.59 271.26 313.03C277.64 307.47 288.48 298.32 290.97 295.26C293.46 292.2 297.91 300.54 301.52 303.87C305.13 307.2 313.18 311.09 309.85 318.31C306.52 325.53 284.61 359.83 268.23 371.76C251.85 383.69 250.16 384.11 243.78 385.49C237.4 386.87 231.56 387.16 222.95 376.61C214.34 366.06 212.68 317.75 209.07 292.21C205.46 266.67 213.79 266.67 217.4 267.5C221.172 268.591 224.881 269.89 228.51 271.39Z" fill="#D27D2D" stroke="#263238" stroke-linecap="round" stroke-linejoin="round"/>
<path d="M228.94 365.18C228.94 365.18 236.42 384.63 243.78 385.49C243.78 385.49 231.66 387.79 227.4 379.39L228.94 365.18Z" fill="#263238" stroke="#263238" stroke-linecap="round" stroke-linejoin="round"/>
<path d="M232.67 322.19C232.39 339.69 227.4 371.61 227.4 379.39C227.4 387.17 225.4 439.63 225.4 439.63H107.07C107.07 439.63 108.07 412.15 106.45 394.93C104.83 377.71 104.13 271.11 106.35 265.56C108.57 260.01 152.71 243.07 152.71 243.07C152.71 243.07 178.26 243.9 190.47 247.23C202.68 250.56 212.4 258.9 217.4 262.78C222.4 266.66 232.12 271.67 234.06 280.83" fill="#D27D2D"/>
<path d="M232.67 322.19C232.39 339.69 227.4 371.61 227.4 379.39C227.4 387.17 225.4 439.63 225.4 439.63H107.07C107.07 439.63 108.07 412.15 106.45 394.93C104.83 377.71 104.13 271.11 106.35 265.56C108.57 260.01 152.71 243.07 152.71 243.07C152.71 243.07 178.26 243.9 190.47 247.23C202.68 250.56 212.4 258.9 217.4 262.78C222.4 266.66 232.12 271.67 234.06 280.83" stroke="#263238" stroke-linecap="round" stroke-linejoin="round"/>
<path d="M181.63 426.141C179.436 427.479 177.165 428.688 174.83 429.761" stroke="#263238" stroke-linecap="round" stroke-linejoin="round"/>
<path d="M223.22 386.221C223.22 386.221 207 408.001 187.86 422.001" stroke="#263238" stroke-linecap="round" stroke-linejoin="round"/>
<path d="M204.3 415.689C204.3 415.689 185.83 429.759 176.15 434.599" stroke="#263238" stroke-linecap="round" stroke-linejoin="round"/>
<path d="M148.27 243.35C149.429 252.296 151.38 261.12 154.1 269.72C158.54 283.6 161.04 289.72 161.04 289.72C161.04 289.72 171.32 278.62 174.37 276.72C177.42 274.82 179.09 273.67 179.09 273.67L191.86 272C191.86 272 197.69 275.06 201.02 276.45C204.35 277.84 209.63 282.28 211.57 280.06C213.51 277.84 209.07 273.95 205.46 261.18C201.85 248.41 196.58 243.96 190.19 235.63C183.8 227.3 170.76 225.92 167.43 228.14C164.1 230.36 153 234.74 148.27 243.35Z" fill="white" stroke="#263238" stroke-linecap="round" stroke-linejoin="round"/>
<path d="M167.85 200.18C167.85 200.18 162.9 184.18 168.95 170.47C175 156.76 191.23 147.09 212.13 148.74C233.03 150.39 245.69 165.25 247.06 178.45C248.43 191.65 246.24 197.45 245.14 200.73C244.04 204.01 237.43 213.93 237.43 219.73C237.43 225.53 236.33 231.55 232.76 236.23C229.19 240.91 223.13 249.43 219.01 251.91C215.3 253.894 211.091 254.753 206.9 254.38L204.43 254.11C204.43 254.11 198.65 259.88 197.28 262.91C195.91 265.94 190.68 285.19 189.85 287.91C189.02 290.63 179.4 275.53 177.47 270.86C175.54 266.19 169.22 250.78 167.57 243.35C165.92 235.92 165.37 233.17 165.37 233.17C165.37 233.17 171.7 216.12 171.97 210.35C172.24 204.58 167.85 200.18 167.85 200.18Z" fill="#B8B8B8" stroke="#263238" stroke-linecap="round" stroke-linejoin="round"/>
<path d="M211.49 201.93C211.23 203.76 209.99 205.09 208.73 204.93C207.47 204.77 206.66 203.12 206.93 201.29C207.2 199.46 208.42 198.13 209.68 198.29C210.94 198.45 211.75 200.1 211.49 201.93Z" fill="#263238"/>
<path d="M234.41 210.36C234.15 212.19 232.91 213.52 231.65 213.36C230.39 213.2 229.59 211.55 229.85 209.72C230.11 207.89 231.34 206.56 232.6 206.72C233.86 206.88 234.67 208.53 234.41 210.36Z" fill="#263238"/>
<path d="M226.28 221.609C226.28 221.609 226.12 228.339 220.66 226.309" stroke="#263238" stroke-linecap="round" stroke-linejoin="round"/>
<path d="M217.63 224.11C217.63 224.11 217.91 223.56 215.7 223.83C213.49 224.1 212.7 221.91 214.88 219.16" stroke="#263238" stroke-linecap="round" stroke-linejoin="round"/>
<path d="M206.25 228.51C206.25 228.51 213.63 235.07 221.35 234.58" stroke="#263238" stroke-linecap="round" stroke-linejoin="round"/>
<path d="M231.37 203.551C231.37 203.551 224.64 206.991 224.8 213.891" stroke="#263238" stroke-linecap="round" stroke-linejoin="round"/>
<path d="M220.7 193.861C220.7 193.861 214.78 187.781 207.89 189.091" stroke="#263238" stroke-linecap="round" stroke-linejoin="round"/>
<path d="M235.64 201.58C235.64 201.58 241.22 201.08 242.54 204.53" stroke="#263238" stroke-linecap="round" stroke-linejoin="round"/>
<path d="M209.69 215.37C216.671 215.37 222.33 209.819 222.33 202.97C222.33 196.122 216.671 190.57 209.69 190.57C202.709 190.57 197.05 196.122 197.05 202.97C197.05 209.819 202.709 215.37 209.69 215.37Z" stroke="#263238" stroke-linecap="round" stroke-linejoin="round"/>
<path d="M236.98 225.331C243.254 225.331 248.34 220.343 248.34 214.191C248.34 208.038 243.254 203.051 236.98 203.051C230.706 203.051 225.62 208.038 225.62 214.191C225.62 220.343 230.706 225.331 236.98 225.331Z" stroke="#263238" stroke-linecap="round" stroke-linejoin="round"/>
<path d="M199.84 195.17L178.49 190.9" stroke="#263238" stroke-linecap="round" stroke-linejoin="round"/>
<path d="M222.34 203C222.34 203 227.64 202.67 228.74 206.2" stroke="#263238" stroke-linecap="round" stroke-linejoin="round"/>
<path d="M248.28 216.35L239.09 213.23" stroke="#263238" stroke-linecap="round" stroke-linejoin="round"/>
<path d="M207.72 162.66C226.49 156.91 238.97 165.8 247.12 179.06L247.06 178.45C245.69 165.25 233.06 150.45 212.13 148.74C191.2 147.03 175 156.74 168.95 170.47C162.9 184.2 167.85 200.18 167.85 200.18C169.625 202.101 170.915 204.419 171.61 206.94C174.82 205.43 177.7 202.16 178.49 194.19C178.49 194.19 185.23 195.99 186.38 194.02C187.53 192.05 186.54 193.53 189.5 187.45C192.46 181.37 199.68 182.53 201.15 177.76C202.62 172.99 187.36 168.9 207.72 162.66Z" fill="#263238" stroke="#263238" stroke-linecap="round" stroke-linejoin="round"/>
<path d="M182.15 196.601C182.15 196.601 179.4 186.431 172.8 189.731C166.2 193.031 165.37 200.451 168.4 207.611C171.43 214.771 174.4 218.611 178.85 216.411" fill="#B8B8B8"/>
<path d="M182.15 196.601C182.15 196.601 179.4 186.431 172.8 189.731C166.2 193.031 165.37 200.451 168.4 207.611C171.43 214.771 174.4 218.611 178.85 216.411" stroke="#263238" stroke-linecap="round" stroke-linejoin="round"/>
<path d="M204.43 254.09C204.43 254.09 199.64 254.01 194.7 248.25C191.303 244.092 188.335 239.603 185.84 234.85C185.84 234.85 185.22 249.85 188.31 257.31C191.4 264.77 196.31 264.89 196.31 264.89L197.31 262.89L204.43 254.09Z" fill="#263238" stroke="#263238" stroke-linecap="round" stroke-linejoin="round"/>
<path d="M171.87 324.139L185.2 311.369C185.2 311.369 196.3 292.769 197.69 290.269C199.08 287.769 204.63 280.549 206.02 275.549C207.41 270.549 209.63 271.669 210.46 274.719C211.29 277.769 210.18 282.489 210.18 282.489C210.18 282.489 218.51 276.939 222.68 274.439C226.85 271.939 233.5 271.939 235.45 271.939C237.4 271.939 239.61 272.779 238.78 274.159C237.95 275.539 233.23 275.279 230.73 276.939C228.23 278.599 223.51 280.269 221.84 281.379C220.17 282.489 214.63 288.049 214.63 288.049C214.63 288.049 229.06 281.109 231.01 280.269C232.96 279.429 240.17 278.609 244.01 278.329C247.85 278.049 247.35 281.379 244.85 282.489C242.35 283.599 235.41 286.099 233.46 286.379C231.51 286.659 221 294.709 221 294.709C221 294.709 232.66 291.379 234.88 291.099C237.1 290.819 246.27 289.709 247.38 291.099C248.49 292.489 248.49 294.429 244.88 295.539C241.27 296.649 234.05 298.039 234.05 298.039L223.78 302.209H234.05C237.1 302.209 244.05 301.089 244.32 303.319C244.59 305.549 243.77 306.089 241.82 306.649C239.87 307.209 222.67 309.699 221.56 309.979C220.45 310.259 213.78 320.809 206.01 325.529C200.764 328.587 195.171 331.008 189.35 332.739L179.08 340.239C179.08 340.239 175.48 326.079 171.87 324.139Z" fill="#B8B8B8" stroke="#263238" stroke-linecap="round" stroke-linejoin="round"/>
<path d="M210.18 282.49C210.18 282.49 202.41 288.05 198.52 292.49" stroke="#263238" stroke-linecap="round" stroke-linejoin="round"/>
<path d="M159.33 328.37L172.21 321C172.21 321 174.49 321.2 177.02 324.74C179.55 328.28 181.73 336.64 182.21 339.65C182.69 342.66 171.78 348.34 171.78 348.34C171.78 348.34 166.86 335.05 159.33 328.37Z" fill="white" stroke="#263238" stroke-linecap="round" stroke-linejoin="round"/>
<path d="M129.39 254.449C129.39 254.449 98.5801 264.169 96.0801 268.609C93.5801 273.049 91.6401 312.199 90.5201 340.519C89.4001 368.839 89.6901 378.279 93.0001 382.999C96.3101 387.719 108.27 397.149 118 392.999C127.73 388.849 145.49 372.459 154.09 366.349C162.69 360.239 173.25 351.909 173.53 345.799C173.81 339.689 169.92 332.479 167.42 329.149C164.92 325.819 161.59 323.589 157.42 324.429C153.25 325.269 130.22 336.089 130.22 336.089L130 296.649" fill="#D27D2D"/>
<path d="M129.39 254.449C129.39 254.449 98.5801 264.169 96.0801 268.609C93.5801 273.049 91.6401 312.199 90.5201 340.519C89.4001 368.839 89.6901 378.279 93.0001 382.999C96.3101 387.719 108.27 397.149 118 392.999C127.73 388.849 145.49 372.459 154.09 366.349C162.69 360.239 173.25 351.909 173.53 345.799C173.81 339.689 169.92 332.479 167.42 329.149C164.92 325.819 161.59 323.589 157.42 324.429C153.25 325.269 130.22 336.089 130.22 336.089L130 296.649" stroke="#263238" stroke-linecap="round" stroke-linejoin="round"/>
<path d="M109.97 345.301L105.24 347.461" stroke="#263238" stroke-linecap="round" stroke-linejoin="round"/>
<path d="M130.23 336.08L113.55 343.67" stroke="#263238" stroke-linecap="round" stroke-linejoin="round"/>
<path d="M247.37 338.58C246.872 340.306 246.508 342.068 246.28 343.85" stroke="#263238" stroke-linecap="round" stroke-linejoin="round"/>
<path d="M250.44 329.41C250.44 329.41 249.44 331.93 248.44 335.09" stroke="#263238" stroke-linecap="round" stroke-linejoin="round"/>
<path d="M52.0801 439.631H699.21" stroke="#263238" stroke-miterlimit="10"/>
</svg>
