<svg width="500" height="500" viewBox="0 0 500 500" fill="none" xmlns="http://www.w3.org/2000/svg">
<path d="M155.1 119.998C154.86 117.998 155.77 116.708 157.72 116.478C159.67 116.248 160.85 117.258 161.09 119.298L161.86 125.808C162.09 127.808 161.18 129.098 159.23 129.328C157.28 129.558 156.1 128.548 155.86 126.508L155.1 119.998ZM157.85 126.418C157.96 127.298 158.37 127.618 159.02 127.548C159.67 127.478 160.02 127.058 159.89 126.178L159.1 119.388C158.99 118.508 158.55 118.188 157.93 118.268C157.31 118.348 156.93 118.748 157.06 119.628L157.85 126.418ZM165.55 115.708L167.39 115.488L161.9 136.208L160.06 136.428L165.55 115.708ZM165.76 126.098C165.52 124.098 166.44 122.798 168.39 122.578C170.34 122.358 171.52 123.358 171.76 125.388L172.52 131.898C172.76 133.898 171.85 135.188 169.89 135.418C167.93 135.648 166.76 134.638 166.52 132.598L165.76 126.098ZM168.52 132.508C168.62 133.388 169.03 133.718 169.68 133.638C170.33 133.558 170.68 133.148 170.56 132.268L169.76 125.478C169.66 124.608 169.22 124.288 168.6 124.358C167.98 124.428 167.6 124.848 167.73 125.718L168.52 132.508Z" fill="#FFFB18"/>
<path d="M177.16 139.919L154 142.629C153.474 142.691 152.944 142.541 152.528 142.213C152.112 141.885 151.843 141.405 151.78 140.879L149 116.999C148.951 116.554 149.002 116.105 149.149 115.682C149.296 115.26 149.536 114.876 149.85 114.559L159.51 105.049C159.975 104.587 160.582 104.295 161.233 104.219C161.883 104.143 162.541 104.287 163.1 104.629L174.69 111.629C175.072 111.86 175.396 112.176 175.636 112.553C175.877 112.929 176.029 113.355 176.08 113.799L178.88 137.679C178.948 138.204 178.805 138.734 178.483 139.154C178.161 139.574 177.685 139.849 177.16 139.919Z" stroke="#FFFB18" stroke-linecap="round" stroke-linejoin="round"/>
<path d="M163.16 107.698C163.196 107.992 163.144 108.289 163.011 108.553C162.877 108.817 162.668 109.035 162.41 109.179C162.153 109.324 161.858 109.388 161.563 109.365C161.268 109.342 160.987 109.231 160.756 109.047C160.524 108.864 160.352 108.615 160.262 108.334C160.172 108.052 160.168 107.75 160.25 107.467C160.332 107.183 160.496 106.929 160.723 106.739C160.949 106.549 161.227 106.43 161.52 106.398C161.91 106.353 162.302 106.465 162.61 106.709C162.917 106.953 163.115 107.309 163.16 107.698Z" stroke="#FFFB18" stroke-linecap="round" stroke-linejoin="round"/>
<path d="M161.69 91C161.69 91 166.21 108.4 161.69 107.9" stroke="#FFFB18" stroke-linecap="round" stroke-linejoin="round"/>
<path d="M160.54 104.398C161.42 99.5584 165.85 91.3984 165.85 91.3984" stroke="#FFFB18" stroke-linecap="round" stroke-linejoin="round"/>
<path d="M161.69 107.869C161.426 107.852 161.173 107.754 160.967 107.587C160.761 107.421 160.612 107.194 160.54 106.939" stroke="#FFFB18" stroke-linecap="round" stroke-linejoin="round"/>
<path d="M181.86 97.4297C185.914 100.706 189.021 105.003 190.86 109.88" stroke="#FFFB18" stroke-linecap="round" stroke-linejoin="round"/>
<path d="M135.05 112.87C136.212 108.399 138.414 104.266 141.475 100.808C144.537 97.3491 148.372 94.6624 152.668 92.9665C156.964 91.2706 161.601 90.6133 166.199 91.0483C170.797 91.4833 175.228 92.9981 179.13 95.4695" stroke="#FFFB18" stroke-linecap="round" stroke-linejoin="round"/>
<path d="M144.18 142.348C138.893 137.758 135.432 131.419 134.43 124.488" stroke="#FFFB18" stroke-linecap="round" stroke-linejoin="round"/>
<path d="M162.29 149.549C156.94 149.335 151.752 147.658 147.29 144.699" stroke="#FFFB18" stroke-linecap="round" stroke-linejoin="round"/>
<path d="M192.45 116C193.578 123.695 191.602 131.523 186.959 137.762C182.316 144.001 175.385 148.14 167.69 149.27" stroke="#FFFB18" stroke-linecap="round" stroke-linejoin="round"/>
<path d="M89.2103 213.576L126.029 220.714L121.741 242.833C121.657 243.264 121.406 243.645 121.041 243.891C120.677 244.137 120.23 244.228 119.799 244.144L86.2236 237.635C85.7921 237.551 85.4116 237.3 85.1656 236.936C84.9197 236.571 84.8285 236.124 84.9122 235.693L89.2005 213.574L89.2103 213.576Z" stroke="#FFFB18" stroke-width="0.998248" stroke-linecap="round" stroke-linejoin="round"/>
<path d="M127.31 221.22L88.5537 213.749L89.6893 207.858C89.7726 207.426 90.0242 207.044 90.3888 206.797C90.7534 206.551 91.2011 206.459 91.6334 206.542L127.169 213.392C127.588 213.483 127.955 213.732 128.194 214.087C128.433 214.443 128.525 214.877 128.451 215.299L127.316 221.19L127.31 221.22Z" stroke="#FFFB18" stroke-linecap="round" stroke-linejoin="round"/>
<path d="M112.068 210.448L106.795 209.432L100.754 240.775L106.027 241.791L112.068 210.448Z" stroke="#FFFB18" stroke-linecap="round" stroke-linejoin="round"/>
<path d="M109.43 209.941C109.43 209.941 118.58 203.261 122.81 205.281C127.04 207.301 124.95 212.931 122.81 212.521" stroke="#FFFB18" stroke-linecap="round" stroke-linejoin="round"/>
<path d="M113.05 210.63C113.05 210.63 120.49 206.93 121.57 208.63C122.65 210.33 119.44 211.9 116.97 211.42" stroke="#FFFB18" stroke-linecap="round" stroke-linejoin="round"/>
<path d="M109.68 209.481C109.68 209.481 113.54 202.481 113.04 200.221H115.61C115.61 200.221 116.45 202.881 113.45 207.431" stroke="#FFFB18" stroke-linecap="round" stroke-linejoin="round"/>
<path d="M109.43 209.94C109.43 209.94 103.43 200.34 98.7401 200.65C94.0501 200.96 93.9201 206.95 96.0501 207.36" stroke="#FFFB18" stroke-linecap="round" stroke-linejoin="round"/>
<path d="M105.81 209.239C105.81 209.239 100.28 203.029 98.6506 204.189C97.0206 205.349 99.4206 208.009 101.89 208.479" stroke="#FFFB18" stroke-linecap="round" stroke-linejoin="round"/>
<path d="M109.37 209.42C109.37 209.42 108.37 201.47 109.7 199.58L107.3 198.58C107.3 198.58 105.54 200.74 106.64 206.08" stroke="#FFFB18" stroke-linecap="round" stroke-linejoin="round"/>
<path d="M136.66 198.699C140.782 203.908 143.443 210.121 144.37 216.699" stroke="#FFFB18" stroke-linecap="round" stroke-linejoin="round"/>
<path d="M74 204.701C76.7099 199.462 80.6191 194.937 85.409 191.495C90.1989 188.053 95.7342 185.791 101.564 184.893C107.394 183.996 113.353 184.488 118.957 186.329C124.56 188.171 129.649 191.31 133.81 195.491" stroke="#FFFB18" stroke-linecap="round" stroke-linejoin="round"/>
<path d="M76.9999 244C71.716 236.786 69.1966 227.915 69.8999 219" stroke="#FFFB18" stroke-linecap="round" stroke-linejoin="round"/>
<path d="M97.5697 258.069C90.9518 256.301 84.9488 252.745 80.2197 247.789" stroke="#FFFB18" stroke-linecap="round" stroke-linejoin="round"/>
<path d="M144.61 224.801C143.841 234.702 139.171 243.893 131.627 250.352C124.082 256.81 114.282 260.008 104.38 259.241" stroke="#FFFB18" stroke-linecap="round" stroke-linejoin="round"/>
<path d="M292.73 125.089L289.59 123.489C290.056 122.11 290.213 120.646 290.05 119.199C291.05 119.679 292.11 120.199 293.05 120.629C293 121.919 292.92 123.439 292.73 125.089Z" stroke="#FFFB18" stroke-linecap="round" stroke-linejoin="round"/>
<path d="M297.3 122.691C298.295 123.198 299.36 123.555 300.46 123.751C301.612 129.9 300.709 136.256 297.89 141.841C297.08 143.421 288.57 139.061 289.37 137.481C291.193 133.575 292.33 129.383 292.73 125.091C292.92 123.441 293.03 121.921 293.08 120.631C294.86 121.471 296.42 122.241 297.3 122.691Z" stroke="#FFFB18" stroke-linecap="round" stroke-linejoin="round"/>
<path d="M307.45 102.861C309.825 104.075 311.684 106.101 312.692 108.571C313.699 111.04 313.787 113.789 312.94 116.318C312.093 118.847 310.366 120.988 308.074 122.352C305.782 123.716 303.077 124.212 300.45 123.751C299.35 123.555 298.285 123.198 297.29 122.691C296.41 122.241 294.85 121.471 293.07 120.631C292.07 120.161 291.07 119.681 290.07 119.201C287.61 118.071 285.23 117.031 284 116.631L294.76 95.6309C297 97.2709 304.93 101.571 307.45 102.861Z" stroke="#FFFB18" stroke-linecap="round" stroke-linejoin="round"/>
<path d="M284.31 85.6912C287.325 89.452 290.833 92.7888 294.74 95.6112L283.98 116.611C279.402 115.111 274.642 114.234 269.83 114.001L265.66 113.781L281.66 82.4512L284.31 85.6912Z" stroke="#FFFB18" stroke-linecap="round" stroke-linejoin="round"/>
<path d="M260.81 114.651L279.57 78.0009C279.715 77.7242 279.963 77.5156 280.26 77.4202C280.558 77.3248 280.881 77.3501 281.16 77.4909L282.54 78.2009C282.818 78.3441 283.029 78.5914 283.126 78.8891C283.224 79.1867 283.2 79.5107 283.06 79.7909L281.69 82.4609L265.69 113.791L264.33 116.461C264.259 116.599 264.161 116.721 264.043 116.822C263.925 116.922 263.788 116.998 263.64 117.045C263.493 117.093 263.337 117.111 263.183 117.098C263.028 117.085 262.878 117.042 262.74 116.971L261.35 116.261C261.206 116.194 261.077 116.098 260.971 115.98C260.865 115.861 260.784 115.723 260.734 115.572C260.683 115.421 260.664 115.262 260.677 115.104C260.69 114.945 260.735 114.791 260.81 114.651Z" stroke="#FFFB18" stroke-linecap="round" stroke-linejoin="round"/>
<path d="M261.37 91.7996L254.14 88.0996" stroke="#FFFB18" stroke-linecap="round" stroke-linejoin="round"/>
<path d="M269.84 80.1987L265.28 72.2188" stroke="#FFFB18" stroke-linecap="round" stroke-linejoin="round"/>
<path d="M256.92 105.449L247.79 106.419" stroke="#FFFB18" stroke-linecap="round" stroke-linejoin="round"/>
<path d="M317.36 70.9312C311.048 65.0846 303.286 61.0343 294.88 59.2012" stroke="#FFFB18" stroke-linecap="round" stroke-linejoin="round"/>
<path d="M303.36 151C310.373 148.032 316.586 143.45 321.494 137.627C326.402 131.805 329.866 124.906 331.605 117.491C333.343 110.077 333.307 102.357 331.499 94.96C329.691 87.5625 326.162 80.6963 321.2 74.9199" stroke="#FFFB18" stroke-linecap="round" stroke-linejoin="round"/>
<path d="M253.05 143.189C261.808 150.718 272.98 154.849 284.53 154.829" stroke="#FFFB18" stroke-linecap="round" stroke-linejoin="round"/>
<path d="M237 115.34C238.616 124.043 242.599 132.132 248.51 138.72" stroke="#FFFB18" stroke-linecap="round" stroke-linejoin="round"/>
<path d="M284.53 58.0801C271.699 58.0801 259.393 63.1772 250.32 72.2503C241.247 81.3233 236.15 93.6289 236.15 106.46" stroke="#FFFB18" stroke-linecap="round" stroke-linejoin="round"/>
<path d="M198.85 184.349C194.79 180.719 190.58 182.349 188.43 183.579C188 181.119 186.43 176.879 181.07 176.159C175.21 175.379 170.41 181.089 171.98 189.049C173.12 194.779 176.78 200.049 178.74 202.499C178.97 202.799 179.19 203.059 179.37 203.269H180.37C183.53 203.139 189.89 202.509 194.97 199.649C202 195.649 203.25 188.289 198.85 184.349Z" stroke="#FFFB18" stroke-linecap="round" stroke-linejoin="round"/>
<path d="M176.05 207C176.05 207 175.78 207.49 175.41 208.35" stroke="#FFFB18" stroke-linecap="round" stroke-linejoin="round"/>
<path d="M174.39 211.141C172.79 216.371 171.69 225.331 180.21 230.761C201.27 244.191 208.36 212.511 192.21 215.361C181.12 217.361 192.85 246.671 210.21 240.761" stroke="#FFFB18" stroke-linecap="round" stroke-linejoin="round" stroke-dasharray="2.98 2.98"/>
<path d="M211.66 240.211C212.1 240.011 212.55 239.791 213 239.551" stroke="#FFFB18" stroke-linecap="round" stroke-linejoin="round"/>
<path d="M185.69 433.76C185.69 433.76 173.8 441.85 169.01 441.31C168.484 441.283 167.984 441.07 167.6 440.71C164.48 437.49 161.97 431.83 161.97 431.83C161.97 431.83 163.46 429.77 168.05 435.24L170.96 432.57L164.96 426.51C164.96 426.51 168.35 423.82 174.11 427.25C173.91 426.83 170.2 418.75 173 407.75L159 394.24L171.42 383.42L172.42 382.58C172.42 382.58 173.2 383.35 174.42 384.58C175.64 385.81 177.33 387.29 179.16 388.9C183.54 392.75 188.84 396.9 191.16 396.9C195.34 396.76 185.69 433.76 185.69 433.76Z" fill="white"/>
<mask id="mask0_991_4182" style="mask-type:luminance" maskUnits="userSpaceOnUse" x="159" y="382" width="34" height="60">
<path d="M185.69 433.76C185.69 433.76 173.8 441.85 169.01 441.31C168.484 441.283 167.984 441.07 167.6 440.71C164.48 437.49 161.97 431.83 161.97 431.83C161.97 431.83 163.46 429.77 168.05 435.24L170.96 432.57L164.96 426.51C164.96 426.51 168.35 423.82 174.11 427.25C173.91 426.83 170.2 418.75 173 407.75L159 394.24L171.42 383.42L172.42 382.58C172.42 382.58 173.2 383.35 174.42 384.58C175.64 385.81 177.33 387.29 179.16 388.9C183.54 392.75 188.84 396.9 191.16 396.9C195.34 396.76 185.69 433.76 185.69 433.76Z" fill="white"/>
</mask>
<g mask="url(#mask0_991_4182)">
<path opacity="0.4" d="M176.5 428.46C176.5 428.46 169.72 435.46 169.01 441.31C168.484 441.283 167.984 441.07 167.6 440.71C164.48 437.49 161.97 431.83 161.97 431.83C161.97 431.83 163.46 429.77 168.05 435.24L170.96 432.57L164.96 426.51C164.96 426.51 168.35 423.82 174.11 427.25C173.91 426.83 170.2 418.75 173 407.75L159 394.24L171.42 383.42L174.42 384.55C175.65 385.71 177.33 387.26 179.16 388.87C176.53 392.72 170.9 400.69 170.9 400.69L175.77 407.29C175.77 407.29 172.77 423.93 176.5 428.46Z" fill="#FFFB18"/>
</g>
<path d="M185.69 433.76C185.69 433.76 173.8 441.85 169.01 441.31C168.484 441.283 167.984 441.07 167.6 440.71C164.48 437.49 161.97 431.83 161.97 431.83C161.97 431.83 163.46 429.77 168.05 435.24L170.96 432.57L164.96 426.51C164.96 426.51 168.35 423.82 174.11 427.25C173.91 426.83 170.2 418.75 173 407.75L159 394.24L171.42 383.42L172.42 382.58C172.42 382.58 173.2 383.35 174.42 384.58C175.64 385.81 177.33 387.29 179.16 388.9C183.54 392.75 188.84 396.9 191.16 396.9C195.34 396.76 185.69 433.76 185.69 433.76Z" stroke="#373C48" stroke-linecap="round" stroke-linejoin="round"/>
<path d="M171 432.572C171.659 430.602 172.726 428.792 174.13 427.262" stroke="#373C48" stroke-linecap="round" stroke-linejoin="round"/>
<path d="M392.79 339.582C390.914 342.318 388.646 344.764 386.06 346.842C364.2 364.942 313.8 373.842 313.8 373.842C313.8 373.842 312.11 376.372 309.51 379.972C304.85 386.442 297.22 396.382 291 401.362C288.37 403.472 286 404.692 284.19 404.362L293.65 439.292L297.88 454.452C297.88 454.452 254.42 473.452 180.09 451.732C180.09 451.732 179.24 442.032 179.87 439.962C179.87 439.862 179.93 439.762 179.97 439.652C180.727 438.274 181.714 437.036 182.89 435.992C182.89 435.992 182.47 429.752 182.26 423.402C182.02 419.353 182.07 415.293 182.41 411.252C182.94 408.052 185.28 400.312 186.46 396.512L187.15 394.302L183.45 359.662L182.39 349.662L182.33 349.142C182.33 349.072 182.33 348.992 182.33 348.892L181.75 343.542L162.63 349.382C162.63 349.382 163.63 351.622 165.01 354.762C167.52 360.512 171.21 369.262 172.01 372.762C172.07 373.047 172.15 373.328 172.25 373.602C174.02 378.652 180.76 383.242 180.76 383.242L162.65 404.402L157.3 400.662C156.615 401.169 155.893 401.623 155.14 402.022C151.62 403.932 144.24 406.742 136.14 402.452C132.63 400.479 129.582 397.778 127.2 394.532C113 376.092 106.82 361.002 108.83 343.332C110.84 325.662 190.36 271.132 206.14 271.702L229.61 276.882C230.12 276.462 231.49 275.382 232.55 275.432C236.82 275.652 236.93 280.612 236.93 280.612L289.53 289.152C289.53 289.152 294.98 286.422 295.93 286.462C296.617 286.508 297.281 286.725 297.863 287.094C298.444 287.462 298.925 287.97 299.26 288.572C299.26 288.572 312.88 280.412 317.26 282.312C331.68 288.532 403.44 323.402 392.79 339.582Z" fill="#FFFB18"/>
<path opacity="0.2" d="M210.05 426C204.073 432.57 196.047 436.923 187.28 438.35C184.51 438.79 182.08 439.23 179.95 439.67C180.706 438.292 181.694 437.054 182.87 436.01C182.87 436.01 182.45 429.77 182.24 423.42C188.41 427.49 199.17 432.19 210.05 426Z" fill="black"/>
<path opacity="0.2" d="M186.44 396.561L187.13 394.351L183.43 359.711C188.96 367.641 208.68 394.651 222.27 397.571C236.48 400.611 198.49 406.001 186.44 396.561Z" fill="black"/>
<path opacity="0.2" d="M293.63 439.34C278.78 437.65 257.79 433.91 255.69 426.14C252.42 414 268.33 406.72 291 401.41C288.37 403.52 286 404.74 284.19 404.41L293.63 439.34Z" fill="black"/>
<path opacity="0.2" d="M386.05 346.85C364.19 364.95 313.79 373.85 313.79 373.85C313.79 373.85 312.1 376.38 309.5 379.98C302.085 362.276 300.952 342.567 306.29 324.13C306.29 324.13 310.17 345.13 326.29 350.13C326.29 350.13 313.95 340.94 318.29 318.82C318.29 318.82 322.5 344.82 349.89 352.04C363.18 355.61 376.19 351.73 386.05 346.85Z" fill="black"/>
<path opacity="0.2" d="M182.31 349.211L181.71 343.611L162.59 349.451C162.59 349.451 163.59 351.691 164.97 354.831C157.66 354.081 143.79 360.831 141.37 353.471C138.45 344.551 156.37 347.621 156.37 347.621L173.31 337.771C170.11 324.071 178.26 313.771 178.26 313.771L179.81 323.331C180.55 305.161 187.66 295.221 187.66 295.221C181.78 309.591 181.94 345.001 182.31 349.211Z" fill="black"/>
<path opacity="0.2" d="M180.75 383.271L162.64 404.431L157.29 400.691C156.605 401.198 155.883 401.652 155.13 402.051C151.61 403.961 144.23 406.771 136.13 402.481C142 394.361 154.13 382.411 168.54 377.801C165.002 383.065 161.816 388.557 159 394.241L162.72 397.901C162.72 397.901 172 387.321 180.75 383.271Z" fill="black"/>
<path opacity="0.2" d="M224.72 290.07C224.72 291.94 223.54 313.07 238.94 318.7C254.34 324.33 268 314.81 268 314.81C268 314.81 244.39 337.59 230 325.41C215.61 313.23 224.72 290.07 224.72 290.07Z" fill="black"/>
<path d="M180.06 451.77C180.06 451.77 179.23 442.071 179.85 440.011C180.37 438.271 182.85 436.011 182.85 436.011C182.85 436.011 181.54 416.351 182.38 411.281C183.1 406.931 187.12 394.281 187.12 394.281L181.7 343.541L162.58 349.391C162.58 349.391 170.72 367.391 171.98 372.731C173.24 378.071 180.74 383.201 180.74 383.201L162.63 404.351L157.28 400.62C157.28 400.62 141.48 412.981 127.21 394.501C112.94 376.021 106.81 360.971 108.81 343.251C110.81 325.531 190.36 271.06 206.14 271.62L229.61 276.81C230.11 276.39 231.49 275.31 232.54 275.36C236.81 275.58 236.92 280.541 236.92 280.541L289.52 289.08C289.52 289.08 294.98 286.351 295.93 286.391C296.615 286.438 297.278 286.656 297.857 287.025C298.437 287.393 298.916 287.9 299.25 288.501C299.25 288.501 312.87 280.35 317.25 282.24C331.65 288.46 403.4 323.331 392.76 339.511C377.65 362.511 313.76 373.821 313.76 373.821C313.76 373.821 292.51 405.82 284.14 404.34L297.83 454.43" stroke="#373C48" stroke-linecap="round" stroke-linejoin="round"/>
<path d="M337.2 343.09C361.34 359.03 380.8 356.09 396.03 335.57C396.03 335.57 408.71 319.22 407.81 301.57C406.91 283.92 402.7 226.42 347.75 241.12C338.7 243.54 317.59 271.81 315.82 279.58C315 283.13 306.53 301.2 298.3 319.91" fill="#FFFB18"/>
<path d="M337.2 343.09C361.34 359.03 380.8 356.09 396.03 335.57C396.03 335.57 408.71 319.22 407.81 301.57C406.91 283.92 402.7 226.42 347.75 241.12C338.7 243.54 317.59 271.81 315.82 279.58C315 283.13 306.53 301.2 298.3 319.91" stroke="#373C48" stroke-linecap="round" stroke-linejoin="round"/>
<path d="M271.89 174.159C271.89 174.159 287.27 171.829 297.95 181.389C311.46 193.479 326.63 226.079 305.03 280.099C305.03 280.099 273.12 258.919 218.66 273.099C218.66 273.099 223.35 260.429 215.12 220.539C211.4 202.489 220.76 160.909 271.89 174.159Z" fill="#373C48"/>
<path d="M248.58 309.721C271.34 313.411 295.52 288.211 295.52 288.211C295.52 288.211 283.15 286.691 282.04 280.881C278.49 262.551 292.77 239.881 292.77 239.881C292.77 239.881 237.51 241.411 247.17 253.881C248.967 256.162 250.438 258.683 251.54 261.371C254.89 269.601 252.54 275.811 250.79 277.371C250.663 277.475 250.525 277.565 250.38 277.641C247.04 279.161 233.31 276.891 233.31 276.891C233.31 276.891 227.81 306.351 248.58 309.721Z" fill="white" stroke="#373C48" stroke-linecap="round" stroke-linejoin="round"/>
<path d="M287.69 295.189C287.69 295.189 277.19 299.389 261.82 298.139L254.9 301.529" stroke="#373C48" stroke-linecap="round" stroke-linejoin="round"/>
<path d="M248 301L247.5 296.46C247.5 296.46 236.16 292.91 232.65 286.17" stroke="#373C48" stroke-linecap="round" stroke-linejoin="round"/>
<path d="M250.79 277.401C267.71 281.821 275.66 260.121 275.66 260.121C275.66 260.121 262.12 256.121 251.54 261.441C254.89 269.671 252.57 275.881 250.79 277.401Z" fill="#373C48"/>
<path d="M293.75 228.491C297.86 205.381 293.289 177.651 258.109 179.951C232.979 181.591 233.19 209.141 234.85 217.371C237.65 231.201 233.64 236.641 237.95 248.261C241.05 256.611 248.24 265.951 256.71 269.451C261.92 271.601 283.01 256.801 284.57 250.031" fill="white"/>
<path d="M293.75 228.491C297.86 205.381 293.289 177.651 258.109 179.951C232.979 181.591 233.19 209.141 234.85 217.371C237.65 231.201 233.64 236.641 237.95 248.261C241.05 256.611 248.24 265.951 256.71 269.451C261.92 271.601 283.01 256.801 284.57 250.031" stroke="#373C48" stroke-linecap="round" stroke-linejoin="round"/>
<path d="M249.55 221.682C249.34 224.282 249.03 230.682 243.55 235.442C239.99 238.512 248.15 241.652 248.15 241.652" stroke="#373C48" stroke-linecap="round" stroke-linejoin="round"/>
<path d="M243.71 212.509C243.71 212.509 235.95 208.729 230.71 214.969" stroke="#373C48" stroke-linecap="round" stroke-linejoin="round"/>
<path d="M256.73 211.999C262.186 210.417 268.007 210.648 273.32 212.659" stroke="#373C48" stroke-linecap="round" stroke-linejoin="round"/>
<path d="M264.79 222.93C265.03 225.16 266.53 226.83 268.14 226.65C269.75 226.47 270.86 224.53 270.62 222.3C270.38 220.07 268.88 218.41 267.27 218.58C265.66 218.75 264.55 220.7 264.79 222.93Z" fill="#373C48"/>
<path d="M248.53 249C254.699 248.149 260.615 245.987 265.88 242.66C265.88 242.66 266.61 252.36 258.49 254.37C252.26 255.92 249.85 248.81 249.85 248.81" stroke="#373C48" stroke-linecap="round" stroke-linejoin="round"/>
<path d="M271.35 188.751C271.35 188.751 269.13 216.141 293.3 226.091L304.63 199.761L287.49 180.761L261.68 173.301C223.11 175.711 206.51 199.671 227.92 263.521C227.92 263.551 221.93 187.511 271.35 188.751Z" fill="#373C48"/>
<path d="M288 227.252C287.66 224.172 295.45 216.332 298.08 221.362C302.57 229.942 299.3 237.362 294.66 240.362C292.58 241.672 289.94 244.132 288.09 241.812" fill="white"/>
<path d="M288 227.252C287.66 224.172 295.45 216.332 298.08 221.362C302.57 229.942 299.3 237.362 294.66 240.362C292.58 241.672 289.94 244.132 288.09 241.812" stroke="#373C48" stroke-linecap="round" stroke-linejoin="round"/>
<path d="M241.25 224C241.5 226.23 243 227.9 244.61 227.72C246.22 227.54 247.33 225.6 247.09 223.37C246.85 221.14 245.34 219.47 243.73 219.65C242.12 219.83 241 221.72 241.25 224Z" fill="#373C48"/>
<g opacity="0.2">
<path d="M224.5 219.461C224.21 221.311 224.01 223.191 223.9 225.061" stroke="#FFFB18" stroke-linecap="round" stroke-linejoin="round"/>
<path d="M267.351 183.771C247.811 183.261 229.651 195.711 225.351 215.261" stroke="#FFFB18" stroke-linecap="round" stroke-linejoin="round"/>
<path d="M263.86 178.191C263.86 178.191 235.68 171.561 225.12 190.251" stroke="#FFFB18" stroke-linecap="round" stroke-linejoin="round"/>
<path d="M286.721 210.75C288.42 213.169 290.465 215.325 292.791 217.15" stroke="#FFFB18" stroke-linecap="round" stroke-linejoin="round"/>
<path d="M275.54 181.84C276.98 190.791 280.008 199.413 284.48 207.3" stroke="#FFFB18" stroke-linecap="round" stroke-linejoin="round"/>
<path d="M303.851 266.602C303.351 268.842 302.761 271.062 302.101 273.262" stroke="#FFFB18" stroke-linecap="round" stroke-linejoin="round"/>
<path d="M302.221 229.359C306.791 239.509 306.481 252.139 304.601 262.819" stroke="#FFFB18" stroke-linecap="round" stroke-linejoin="round"/>
<path d="M298.87 247C299.093 250.844 298.5 254.692 297.13 258.291C295.759 261.89 293.643 265.158 290.92 267.88" stroke="#FFFB18" stroke-linecap="round" stroke-linejoin="round"/>
<path d="M285.881 185.109C290.671 191.589 294.231 198.539 299.781 204.459C305.631 210.689 311.481 217.829 312.581 226.609" stroke="#FFFB18" stroke-linecap="round" stroke-linejoin="round"/>
<path d="M279.12 178.371C280.492 179.271 281.754 180.328 282.88 181.521" stroke="#FFFB18" stroke-linecap="round" stroke-linejoin="round"/>
</g>
<path d="M375.51 328.75C374.95 328.87 374.39 328.97 373.81 329.05C358.69 331.21 341.73 318.67 336.01 303.62C331.49 291.73 335.44 278.24 337.6 272.47C338.28 270.66 338.77 269.61 338.77 269.61C347.89 256.61 400.91 282.06 401.53 296.1C402.15 310.14 391 325.35 375.51 328.75Z" fill="#373C48" stroke="#373C48" stroke-linecap="round" stroke-linejoin="round"/>
<path d="M392.1 297.999C392.1 297.999 389.1 320.319 373.81 329.049C358.69 331.209 341.73 318.669 336.01 303.619C331.49 291.729 335.44 278.239 337.6 272.469C355.47 262.259 392.1 297.999 392.1 297.999Z" fill="#FFFB18"/>
<mask id="mask1_991_4182" style="mask-type:luminance" maskUnits="userSpaceOnUse" x="333" y="270" width="60" height="60">
<path d="M392.1 297.999C392.1 297.999 389.1 320.319 373.81 329.049C358.69 331.209 341.73 318.669 336.01 303.619C331.49 291.729 335.44 278.239 337.6 272.469C355.47 262.259 392.1 297.999 392.1 297.999Z" fill="white"/>
</mask>
<g mask="url(#mask1_991_4182)">
<path opacity="0.4" d="M392.1 297.999C392.1 297.999 389.1 320.319 373.81 329.049C358.69 331.209 341.73 318.669 336.01 303.619C331.49 291.729 335.44 278.239 337.6 272.469C355.47 262.259 392.1 297.999 392.1 297.999Z" fill="#FFFB18"/>
</g>
<path d="M392.1 297.999C392.1 297.999 389.1 320.319 373.81 329.049C358.69 331.209 341.73 318.669 336.01 303.619C331.49 291.729 335.44 278.239 337.6 272.469C355.47 262.259 392.1 297.999 392.1 297.999Z" stroke="#373C48" stroke-linecap="round" stroke-linejoin="round"/>
<path d="M329.57 309.751C329.57 309.751 346.79 334.471 366.9 336.531C387.01 338.591 399.9 321.651 400.69 308.881" stroke="#373C48" stroke-linecap="round" stroke-linejoin="round"/>
<path d="M319.89 198.201C321.4 193.971 332.26 195.391 335.71 208.591C339.16 221.791 352.71 253.881 352.71 253.881C352.71 253.881 406.71 174.471 416.35 171.411C425.99 168.351 422.2 182.111 409.27 201.201C409.27 201.201 421.38 199.071 424.56 201.201C427.74 203.331 426.19 216.201 427.88 220.661C430.72 228.191 424.41 229.781 424.41 229.781C427.506 229.85 430.483 230.984 432.84 232.991C436.31 236.241 434.57 249.671 435.56 253.471C436.55 257.271 429.93 260.471 429.93 260.471C429.93 260.471 445.84 269.141 442.25 271.321C436.19 274.981 432.74 271.231 432.74 271.231C432.74 271.231 408.29 301.931 389.85 308.771C371.41 315.611 335.52 288.431 331.66 273.631C327.8 258.831 332.41 259.741 329.48 235.111C326.55 210.481 319.89 198.201 319.89 198.201Z" fill="white" stroke="#373C48" stroke-linecap="round" stroke-linejoin="round"/>
<path d="M398.618 149.41L327.514 167.944C324.991 168.602 323.479 171.18 324.137 173.702L357.748 302.644C358.405 305.166 360.983 306.678 363.506 306.02L434.61 287.486C437.132 286.828 438.644 284.25 437.986 281.728L404.376 152.787C403.718 150.264 401.14 148.752 398.618 149.41Z" fill="white" stroke="#373C48" stroke-linecap="round" stroke-linejoin="round"/>
<path d="M357.88 164.23C357.918 164.376 357.927 164.528 357.906 164.678C357.885 164.828 357.835 164.972 357.758 165.103C357.682 165.233 357.58 165.347 357.459 165.439C357.339 165.53 357.201 165.596 357.055 165.635C356.908 165.673 356.756 165.681 356.606 165.661C356.456 165.64 356.312 165.59 356.181 165.513C356.051 165.436 355.937 165.335 355.846 165.214C355.754 165.093 355.688 164.956 355.65 164.81C355.609 164.663 355.598 164.51 355.618 164.359C355.637 164.209 355.687 164.063 355.763 163.932C355.839 163.8 355.941 163.686 356.063 163.594C356.184 163.503 356.322 163.437 356.47 163.4C356.767 163.323 357.082 163.368 357.346 163.524C357.61 163.679 357.802 163.933 357.88 164.23Z" fill="#FFFB18" stroke="#373C48" stroke-linecap="round" stroke-linejoin="round"/>
<path d="M372.53 160.409C372.554 160.501 372.559 160.597 372.546 160.691C372.533 160.785 372.501 160.876 372.453 160.957C372.405 161.039 372.341 161.111 372.265 161.168C372.189 161.224 372.102 161.266 372.01 161.289C371.872 161.324 371.727 161.317 371.593 161.27C371.459 161.222 371.342 161.136 371.257 161.022C371.172 160.909 371.122 160.772 371.114 160.63C371.107 160.488 371.141 160.347 371.213 160.225C371.286 160.102 371.393 160.004 371.521 159.942C371.649 159.881 371.792 159.858 371.933 159.878C372.074 159.898 372.206 159.959 372.312 160.053C372.418 160.148 372.494 160.272 372.53 160.409Z" fill="#FFFB18" stroke="#373C48" stroke-linecap="round" stroke-linejoin="round"/>
<path d="M369.029 162.213L360.445 164.426C360.273 164.47 360.17 164.645 360.214 164.816L360.259 164.991C360.303 165.162 360.478 165.265 360.65 165.221L369.234 163.009C369.406 162.965 369.509 162.79 369.465 162.618L369.42 162.444C369.375 162.272 369.201 162.169 369.029 162.213Z" fill="#FFFB18" stroke="#373C48" stroke-width="1.0017" stroke-linecap="round" stroke-linejoin="round"/>
<path d="M402.24 154.121L435.57 282.001C435.756 282.718 435.65 283.48 435.275 284.119C434.9 284.758 434.287 285.223 433.57 285.411L363.38 303.701C362.663 303.887 361.901 303.78 361.262 303.405C360.623 303.03 360.158 302.418 359.97 301.701L326.64 173.821C326.454 173.103 326.561 172.342 326.936 171.703C327.31 171.063 327.923 170.599 328.64 170.411L343.05 166.651C343.512 166.529 344.001 166.553 344.449 166.717C344.898 166.882 345.286 167.179 345.56 167.571L346.61 169.061C346.884 169.452 347.272 169.75 347.721 169.915C348.17 170.079 348.658 170.102 349.12 169.981L380.75 161.741C381.208 161.621 381.619 161.366 381.929 161.01C382.239 160.653 382.435 160.211 382.49 159.741L382.68 157.931C382.733 157.46 382.927 157.017 383.238 156.659C383.549 156.302 383.961 156.048 384.42 155.931L398.83 152.171C399.541 151.983 400.296 152.083 400.934 152.447C401.572 152.812 402.041 153.413 402.24 154.121Z" fill="#FFFB18" stroke="#373C48" stroke-linecap="round" stroke-linejoin="round"/>
<path d="M404.685 225.88C411.206 210.86 404.317 193.396 389.296 186.875C374.276 180.353 356.812 187.242 350.291 202.263C343.769 217.283 350.658 234.747 365.679 241.269C380.699 247.79 398.163 240.901 404.685 225.88Z" fill="white" stroke="#373C48" stroke-linecap="round" stroke-linejoin="round"/>
<path d="M365.24 231.101C365.493 231.698 365.958 232.179 366.546 232.452C367.133 232.725 367.8 232.771 368.42 232.581L378.17 229.771C378.191 229.981 378.231 230.189 378.29 230.391C378.437 230.901 378.684 231.376 379.016 231.791C379.347 232.205 379.757 232.55 380.222 232.805C380.686 233.061 381.197 233.223 381.724 233.282C382.252 233.34 382.785 233.294 383.295 233.146C383.804 232.999 384.28 232.752 384.694 232.421C385.108 232.089 385.453 231.679 385.709 231.214C385.965 230.75 386.126 230.239 386.185 229.712C386.243 229.185 386.197 228.651 386.05 228.141C385.988 227.939 385.911 227.742 385.82 227.551L395.56 224.741C396.196 224.571 396.745 224.169 397.099 223.613C397.452 223.058 397.585 222.39 397.47 221.741C397.408 221.389 397.273 221.053 397.073 220.757C396.872 220.46 396.612 220.209 396.308 220.02C396.004 219.831 395.663 219.709 395.308 219.661C394.954 219.613 394.593 219.64 394.25 219.741L393.43 219.241C391.652 218.178 390.344 216.481 389.77 214.491L387.92 208.081C387.158 205.442 385.466 203.167 383.158 201.678C380.849 200.189 378.079 199.586 375.36 199.981C375.827 199.489 376.118 198.856 376.19 198.182C376.261 197.507 376.109 196.827 375.756 196.248C375.403 195.668 374.869 195.221 374.236 194.976C373.604 194.73 372.908 194.699 372.256 194.888C371.605 195.077 371.033 195.475 370.631 196.021C370.228 196.567 370.016 197.231 370.028 197.909C370.039 198.588 370.274 199.243 370.696 199.775C371.117 200.307 371.702 200.685 372.36 200.851C369.824 201.959 367.779 203.953 366.608 206.46C365.437 208.968 365.221 211.816 366 214.471L367.87 220.951C368.202 222.083 368.285 223.274 368.112 224.441C367.94 225.608 367.516 226.724 366.87 227.711C366.531 227.814 366.217 227.985 365.949 228.215C365.68 228.445 365.462 228.729 365.308 229.048C365.155 229.366 365.07 229.714 365.058 230.067C365.046 230.421 365.108 230.773 365.24 231.101ZM374.85 197.441C374.948 197.783 374.943 198.147 374.836 198.486C374.728 198.825 374.522 199.125 374.243 199.347C373.965 199.569 373.628 199.704 373.273 199.734C372.918 199.764 372.563 199.688 372.251 199.517C371.939 199.345 371.686 199.084 371.522 198.768C371.358 198.452 371.292 198.095 371.331 197.741C371.371 197.387 371.514 197.053 371.744 196.781C371.973 196.508 372.278 196.31 372.62 196.211C372.847 196.144 373.085 196.123 373.321 196.148C373.556 196.174 373.784 196.246 373.992 196.361C374.199 196.475 374.382 196.629 374.529 196.815C374.676 197 374.785 197.213 374.85 197.441Z" fill="#FFFB18" stroke="#373C48" stroke-linecap="round" stroke-linejoin="round"/>
<path d="M384.05 227.711L379.75 228.961" stroke="#373C48" stroke-linecap="round" stroke-linejoin="round"/>
<path d="M390.41 220.83L370.7 226.53" stroke="#373C48" stroke-linecap="round" stroke-linejoin="round"/>
<path d="M411 260.66L371 271.08C369.856 271.382 368.664 271.455 367.492 271.295C366.32 271.136 365.191 270.747 364.169 270.151C363.147 269.554 362.253 268.762 361.538 267.82C360.822 266.878 360.3 265.804 360 264.66C359.698 263.516 359.626 262.323 359.786 261.15C359.946 259.978 360.336 258.848 360.933 257.827C361.53 256.805 362.323 255.911 363.267 255.196C364.21 254.481 365.285 253.959 366.43 253.66L406.43 243.24C408.733 242.646 411.178 242.988 413.229 244.191C415.281 245.394 416.773 247.36 417.38 249.66C417.99 251.965 417.661 254.418 416.465 256.48C415.269 258.542 413.303 260.046 411 260.66Z" fill="#373C48"/>
<path d="M366.59 258.591C366.728 258.356 366.914 258.153 367.137 257.996C367.359 257.839 367.613 257.732 367.88 257.681C368.139 257.594 368.413 257.564 368.684 257.593C368.955 257.622 369.217 257.71 369.45 257.851C369.911 258.193 370.225 258.697 370.33 259.261L370.4 259.521L369.17 259.841L369.08 259.501C369.043 259.277 368.93 259.072 368.76 258.921C368.681 258.87 368.591 258.839 368.497 258.828C368.404 258.818 368.309 258.829 368.22 258.861C368.129 258.876 368.042 258.914 367.967 258.969C367.892 259.025 367.832 259.097 367.79 259.181C367.716 259.394 367.716 259.627 367.79 259.841C367.87 260.169 368.052 260.463 368.31 260.681C368.639 260.941 368.995 261.165 369.37 261.351C369.695 261.514 370.009 261.698 370.31 261.901C370.573 262.083 370.806 262.306 371 262.561C371.223 262.86 371.386 263.2 371.48 263.561C371.661 264.11 371.625 264.707 371.38 265.231C371.07 265.68 370.608 266.003 370.08 266.14C369.551 266.278 368.991 266.221 368.5 265.981C368.027 265.647 367.704 265.141 367.6 264.571L367.47 264.061L368.7 263.741L368.85 264.331C368.99 264.871 369.28 265.081 369.73 264.961C370.18 264.841 370.34 264.521 370.2 263.961C370.118 263.634 369.936 263.34 369.68 263.121C369.353 262.861 368.998 262.64 368.62 262.461C368.298 262.29 367.984 262.103 367.68 261.901C367.417 261.718 367.184 261.496 366.99 261.241C366.766 260.943 366.603 260.603 366.51 260.241C366.335 259.699 366.363 259.113 366.59 258.591Z" fill="white"/>
<path d="M373.47 263.14C373.61 263.67 373.91 263.88 374.36 263.77C374.81 263.66 374.96 263.32 374.82 262.77L373.16 256.39L374.39 256.07L376.03 262.36C376.21 262.909 376.174 263.507 375.93 264.03C375.792 264.268 375.604 264.473 375.38 264.631C375.155 264.79 374.9 264.899 374.63 264.95C374.369 265.033 374.095 265.061 373.823 265.034C373.551 265.006 373.288 264.923 373.05 264.79C372.585 264.444 372.264 263.938 372.15 263.37L370.51 257.08L371.81 256.74L373.47 263.14Z" fill="white"/>
<path d="M378.82 255.43C379.041 255.583 379.23 255.778 379.374 256.005C379.518 256.232 379.615 256.485 379.66 256.75L379.73 257.04C379.84 257.4 379.863 257.78 379.8 258.15C379.736 258.456 379.57 258.731 379.33 258.93C380.04 259.01 380.52 259.52 380.76 260.44L380.93 261.12C381.02 261.379 381.056 261.654 381.035 261.928C381.014 262.201 380.938 262.468 380.81 262.71C380.659 262.942 380.462 263.139 380.232 263.29C380.001 263.442 379.742 263.544 379.47 263.59L377.47 264.13L375.31 255.86L377.31 255.34C377.806 255.181 378.345 255.213 378.82 255.43ZM377.45 258.88L377.96 258.75C378.067 258.732 378.17 258.691 378.261 258.631C378.353 258.571 378.43 258.492 378.49 258.4C378.582 258.166 378.582 257.905 378.49 257.67L378.37 257.21C378.33 256.979 378.214 256.768 378.04 256.61C377.96 256.555 377.869 256.52 377.773 256.508C377.677 256.496 377.58 256.507 377.49 256.54L376.86 256.7L377.45 258.88ZM378.45 262.61L379.19 262.41C379.284 262.396 379.375 262.36 379.454 262.307C379.534 262.253 379.601 262.183 379.65 262.1C379.729 261.881 379.729 261.64 379.65 261.42L379.46 260.7C379.413 260.419 379.272 260.161 379.06 259.97C378.954 259.911 378.837 259.875 378.716 259.865C378.595 259.854 378.474 259.87 378.36 259.91L377.78 260.07L378.45 262.61Z" fill="white"/>
<path d="M380.5 255.001C380.635 254.764 380.82 254.559 381.043 254.402C381.266 254.245 381.521 254.138 381.79 254.091C382.047 254.002 382.321 253.97 382.592 253.998C382.863 254.026 383.125 254.112 383.36 254.251C383.824 254.596 384.141 255.103 384.25 255.671L384.32 255.931L383.09 256.251L383 255.901C382.964 255.676 382.846 255.473 382.67 255.331C382.593 255.279 382.505 255.246 382.413 255.233C382.321 255.221 382.227 255.231 382.14 255.261C382.047 255.276 381.958 255.313 381.882 255.369C381.806 255.424 381.743 255.497 381.7 255.581C381.625 255.794 381.625 256.027 381.7 256.241C381.776 256.568 381.955 256.862 382.21 257.081C382.544 257.338 382.902 257.562 383.28 257.751C383.66 257.951 383.97 258.141 384.22 258.301C384.478 258.489 384.711 258.711 384.91 258.961C385.131 259.259 385.291 259.599 385.38 259.961C385.569 260.508 385.536 261.107 385.29 261.631C385.15 261.867 384.963 262.072 384.738 262.23C384.514 262.389 384.259 262.498 383.99 262.551C383.728 262.635 383.452 262.664 383.178 262.636C382.904 262.609 382.64 262.525 382.4 262.391C381.935 262.046 381.617 261.539 381.51 260.971L381.37 260.471L382.6 260.141L382.76 260.741C382.9 261.271 383.19 261.481 383.64 261.361C384.09 261.241 384.24 260.921 384.1 260.361C384.021 260.037 383.842 259.747 383.59 259.531C383.26 259.268 382.901 259.043 382.52 258.861C382.2 258.691 381.89 258.504 381.59 258.301C381.322 258.124 381.088 257.9 380.9 257.641C380.667 257.347 380.503 257.006 380.42 256.641C380.244 256.103 380.272 255.519 380.5 255.001Z" fill="white"/>
<path d="M389.9 258.761C390.08 259.31 390.045 259.907 389.8 260.431C389.66 260.666 389.472 260.869 389.248 261.026C389.024 261.183 388.769 261.29 388.5 261.341C388.241 261.429 387.965 261.461 387.693 261.433C387.42 261.405 387.156 261.319 386.92 261.181C386.447 260.847 386.124 260.341 386.02 259.771L384.9 255.471C384.716 254.923 384.748 254.326 384.99 253.801C385.129 253.564 385.317 253.36 385.541 253.201C385.765 253.043 386.02 252.934 386.29 252.881C386.552 252.797 386.828 252.768 387.102 252.795C387.375 252.823 387.64 252.906 387.88 253.041C388.345 253.385 388.662 253.893 388.77 254.461L388.98 255.261L387.75 255.581L387.52 254.691C387.38 254.151 387.09 253.941 386.64 254.061C386.19 254.181 386.04 254.501 386.18 255.061L387.34 259.521C387.48 260.061 387.77 260.271 388.22 260.151C388.67 260.031 388.83 259.711 388.69 259.151L388.38 257.971L389.61 257.651L389.9 258.761Z" fill="white"/>
<path d="M393.73 259.47C393.652 259.265 393.588 259.054 393.54 258.84L393.2 257.54C393.151 257.251 393.007 256.987 392.79 256.79C392.683 256.725 392.563 256.685 392.439 256.671C392.314 256.657 392.188 256.67 392.07 256.71L391.63 256.83L392.5 260.2L391.2 260.54L389.05 252.27L391.05 251.75C391.299 251.638 391.571 251.586 391.844 251.6C392.117 251.613 392.383 251.692 392.619 251.829C392.856 251.966 393.056 252.157 393.204 252.387C393.352 252.616 393.443 252.878 393.47 253.15L393.64 253.81C393.769 254.13 393.799 254.481 393.726 254.818C393.653 255.155 393.48 255.463 393.23 255.7C393.553 255.74 393.847 255.905 394.05 256.16C394.29 256.481 394.461 256.849 394.55 257.24L394.88 258.52C394.94 258.75 395 258.94 395.05 259.08C395.107 259.224 395.184 259.359 395.28 259.48L393.96 259.83C393.867 259.721 393.79 259.6 393.73 259.47ZM391.32 255.65L391.82 255.52C391.929 255.499 392.033 255.456 392.126 255.394C392.219 255.333 392.298 255.253 392.36 255.16C392.449 254.929 392.449 254.672 392.36 254.44L392.14 253.62C392.107 253.389 391.993 253.177 391.82 253.02C391.739 252.965 391.646 252.93 391.548 252.918C391.451 252.906 391.352 252.917 391.26 252.95L390.64 253.11L391.32 255.65Z" fill="white"/>
<path d="M395.1 250.689L397.25 258.959L395.95 259.299L393.8 250.999L395.1 250.689Z" fill="white"/>
<path d="M399.59 250.001C399.809 250.153 399.995 250.347 400.137 250.572C400.28 250.797 400.376 251.048 400.42 251.311L400.5 251.611C400.605 251.968 400.629 252.344 400.57 252.711C400.502 253.015 400.337 253.289 400.1 253.491C400.81 253.581 401.28 254.081 401.53 255.011L401.7 255.691C401.789 255.949 401.824 256.222 401.803 256.493C401.783 256.765 401.707 257.03 401.58 257.271C401.43 257.504 401.234 257.703 401.003 257.857C400.773 258.01 400.513 258.113 400.24 258.161L398.24 258.691L396 250.441L398 249.931C398.518 249.744 399.09 249.769 399.59 250.001ZM398.22 253.451L398.73 253.321C398.945 253.277 399.135 253.152 399.26 252.971C399.352 252.736 399.352 252.476 399.26 252.241L399.14 251.781C399.097 251.548 398.982 251.334 398.81 251.171C398.728 251.118 398.635 251.084 398.538 251.072C398.441 251.06 398.343 251.07 398.25 251.101L397.63 251.271L398.22 253.451ZM399.22 257.171L399.96 256.981C400.055 256.963 400.145 256.926 400.224 256.871C400.304 256.815 400.37 256.744 400.42 256.661C400.502 256.445 400.502 256.207 400.42 255.991L400.24 255.271C400.193 254.987 400.052 254.726 399.84 254.531C399.733 254.474 399.616 254.44 399.495 254.431C399.375 254.423 399.254 254.44 399.14 254.481L398.56 254.631L399.22 257.171Z" fill="white"/>
<path d="M404.83 251.87L405.14 253.061L403.35 253.521L403.98 255.941L406.23 255.361L406.54 256.541L402.99 257.46L400.84 249.191L404.38 248.271L404.69 249.451L402.45 250.04L403.05 252.34L404.83 251.87Z" fill="white"/>
<path d="M407.24 247.521C407.501 247.436 407.777 247.405 408.05 247.431C408.324 247.457 408.589 247.538 408.83 247.671C409.292 248.003 409.607 248.502 409.71 249.061L410.8 253.251C410.988 253.792 410.956 254.385 410.71 254.901C410.568 255.135 410.377 255.335 410.151 255.489C409.925 255.642 409.669 255.745 409.4 255.791L407.34 256.331L405.18 248.061L407.24 247.521ZM408.33 254.811L409.06 254.621C409.153 254.603 409.242 254.565 409.319 254.51C409.397 254.455 409.462 254.384 409.51 254.301C409.584 254.088 409.584 253.855 409.51 253.641L408.39 249.341C408.345 249.118 408.225 248.917 408.05 248.771C407.97 248.726 407.882 248.697 407.791 248.686C407.7 248.676 407.607 248.685 407.52 248.711L406.78 248.901L408.33 254.811Z" fill="white"/>
<path d="M313.79 373.891C313.79 373.891 301.65 345.641 307.79 311.381" stroke="#373C48" stroke-linecap="round" stroke-linejoin="round"/>
<path d="M284.17 404.41C284.17 404.41 259.63 411.91 257.17 417.56C254.71 423.21 268.17 418.45 268.17 418.45" stroke="#373C48" stroke-linecap="round" stroke-linejoin="round"/>
<path d="M299.26 288.57C299.26 288.57 276.66 310.97 261.54 316.94" stroke="#373C48" stroke-linecap="round" stroke-linejoin="round"/>
<path d="M225.21 282.551C225.21 282.551 221.09 312.791 236.46 318.501" stroke="#373C48" stroke-linecap="round" stroke-linejoin="round"/>
<path d="M181.71 343.611C181.71 343.611 181.59 303.971 189.46 291.711" stroke="#373C48" stroke-linecap="round" stroke-linejoin="round"/>
<path d="M178.77 303.221C178.77 303.221 176.56 327.841 181.53 335.871" stroke="#373C48" stroke-linecap="round" stroke-linejoin="round"/>
<path d="M162.59 349.459C162.59 349.459 145.4 343.539 141.84 350.879C138.28 358.219 152.09 351.709 152.09 351.709" stroke="#373C48" stroke-linecap="round" stroke-linejoin="round"/>
<path d="M172.93 375.16C172.93 375.16 156.05 384.67 155.18 390.11" stroke="#373C48" stroke-linecap="round" stroke-linejoin="round"/>
<path d="M200.5 348.859C200.5 348.859 232.81 397.689 250.64 393.209" stroke="#373C48" stroke-linecap="round" stroke-linejoin="round"/>
<path d="M222.57 417.352C222.57 417.352 197.24 435.922 193.57 434.352" stroke="#373C48" stroke-linecap="round" stroke-linejoin="round"/>
<path opacity="0.2" d="M400 338.11C401.71 336.71 402.84 335.78 403.21 335.49C402.83 335.82 401.73 336.78 400 338.11Z" fill="black"/>
</svg>
