<svg width="700" height="500" viewBox="0 0 700 500" fill="none" xmlns="http://www.w3.org/2000/svg">
<g clip-path="url(#clip0_2422_1728)">
<mask id="mask0_2422_1728" style="mask-type:luminance" maskUnits="userSpaceOnUse" x="0" y="0" width="700" height="500">
<path d="M700 0H0V500H700V0Z" fill="white"/>
</mask>
<g mask="url(#mask0_2422_1728)">
<mask id="mask1_2422_1728" style="mask-type:luminance" maskUnits="userSpaceOnUse" x="0" y="0" width="700" height="500">
<path d="M700 0H0V500H700V0Z" fill="white"/>
</mask>
<g mask="url(#mask1_2422_1728)">
<path d="M607.121 140.001C607.121 140.001 504.341 34.7205 370.771 26.5905C237.201 18.4605 159.311 104.751 122.401 156.211C85.4909 207.671 -6.59911 293.411 4.26089 371.921C15.1209 450.431 121.591 510.001 274.111 483.831C426.631 457.661 470.851 447.731 540.341 467.591C609.831 487.451 700.081 457.661 701.881 344.851C703.681 232.041 607.121 140.001 607.121 140.001Z" fill="#D27D2D"/>
<path opacity="0.7" d="M607.121 140.001C607.121 140.001 504.341 34.7205 370.771 26.5905C237.201 18.4605 159.311 104.751 122.401 156.211C85.4909 207.671 -6.59911 293.411 4.26089 371.921C15.1209 450.431 121.591 510.001 274.111 483.831C426.631 457.661 470.851 447.731 540.341 467.591C609.831 487.451 700.081 457.661 701.881 344.851C703.681 232.041 607.121 140.001 607.121 140.001Z" fill="white"/>
<path d="M648.74 443.289H696.75" stroke="#263238" stroke-linecap="round" stroke-linejoin="round"/>
<path d="M40.3906 443.289H637.731" stroke="#263238" stroke-linecap="round" stroke-linejoin="round"/>
<path d="M17.5703 443.289H31.7403" stroke="#263238" stroke-linecap="round" stroke-linejoin="round"/>
<path d="M628.499 328.479C630.143 328.877 631.878 328.606 633.324 327.727C634.769 326.848 635.807 325.432 636.209 323.789L640.289 306.999C640.687 305.354 640.417 303.619 639.538 302.174C638.659 300.729 637.242 299.691 635.599 299.289C633.956 298.891 632.223 299.161 630.779 300.041C629.335 300.92 628.299 302.336 627.899 303.979L623.809 320.749C623.608 321.564 623.569 322.411 623.696 323.242C623.823 324.072 624.113 324.87 624.548 325.588C624.984 326.306 625.558 326.931 626.236 327.427C626.914 327.923 627.683 328.281 628.499 328.479Z" fill="white" stroke="#263238" stroke-linecap="round" stroke-linejoin="round"/>
<path d="M634.999 348.088C635.551 348.241 636.131 348.267 636.694 348.163C637.258 348.06 637.791 347.831 638.253 347.492C638.715 347.153 639.094 346.714 639.362 346.207C639.63 345.701 639.779 345.14 639.799 344.568L641.489 323.478C641.561 322.21 641.198 320.956 640.46 319.923C639.721 318.89 638.652 318.14 637.429 317.798C636.876 317.645 636.296 317.619 635.732 317.723C635.167 317.826 634.634 318.057 634.172 318.397C633.71 318.737 633.331 319.177 633.063 319.685C632.796 320.193 632.648 320.754 632.629 321.328L630.929 342.408C630.856 343.677 631.22 344.933 631.96 345.967C632.701 347.001 633.774 347.749 634.999 348.088Z" fill="white" stroke="#263238" stroke-linecap="round" stroke-linejoin="round"/>
<path d="M589.92 324.77L611.23 320.34C618.727 320.189 626.213 321.01 633.5 322.78L647.82 326.26C648.572 326.444 649.352 326.477 650.117 326.359C650.882 326.24 651.616 325.973 652.277 325.57C652.938 325.168 653.514 324.64 653.971 324.015C654.428 323.391 654.757 322.682 654.94 321.93L657.94 309.59C658.308 308.07 658.057 306.467 657.243 305.132C656.429 303.797 655.119 302.84 653.6 302.47L642 299.65C633.223 297.517 624.834 294.021 617.14 289.29L602 275L589.92 324.77Z" fill="white" stroke="#263238" stroke-linecap="round" stroke-linejoin="round"/>
<path d="M634.001 297.27C636.641 298.19 639.311 298.99 642.001 299.65L653.581 302.47C655.1 302.839 656.41 303.797 657.224 305.132C658.038 306.467 658.288 308.07 657.921 309.59L654.921 321.93C654.738 322.682 654.408 323.39 653.951 324.015C653.495 324.639 652.919 325.168 652.258 325.57C651.597 325.972 650.863 326.24 650.098 326.358C649.333 326.477 648.552 326.443 647.801 326.26L633.481 322.78C631.694 322.34 629.887 321.96 628.061 321.64L634.001 297.27Z" fill="#263238" stroke="#263238" stroke-linecap="round" stroke-linejoin="round"/>
<path d="M587.082 330.874L587.967 331.089C590.505 331.707 593.063 330.15 593.681 327.612L606.159 276.349C606.777 273.811 605.22 271.252 602.682 270.634L601.797 270.419C599.259 269.801 596.701 271.358 596.083 273.896L583.605 325.16C582.988 327.698 584.544 330.256 587.082 330.874Z" fill="#D27D2D" stroke="#263238" stroke-linecap="round" stroke-linejoin="round"/>
<path d="M579.129 279.148L584.129 287.038" stroke="#263238" stroke-width="2" stroke-linecap="round" stroke-linejoin="round"/>
<path d="M571.08 312.241L579.14 307.531" stroke="#263238" stroke-width="2" stroke-linecap="round" stroke-linejoin="round"/>
<path d="M579.88 297.368L570.09 294.988" stroke="#263238" stroke-width="2" stroke-linecap="round" stroke-linejoin="round"/>
<path d="M631 340L627.57 342.92C627.169 343.269 626.886 343.734 626.76 344.25C626.68 344.574 626.664 344.91 626.714 345.24C626.764 345.57 626.879 345.887 627.052 346.172C627.225 346.457 627.452 346.706 627.721 346.903C627.991 347.1 628.296 347.242 628.62 347.32L639.45 349.96L640.13 340.06L631 340Z" fill="#263238" stroke="#263238" stroke-linecap="round" stroke-linejoin="round"/>
<path d="M648.529 310.25C648.6 309.965 648.754 309.707 648.971 309.509C649.189 309.311 649.46 309.182 649.751 309.138C650.041 309.094 650.339 309.137 650.605 309.261C650.872 309.386 651.095 309.586 651.248 309.837C651.401 310.089 651.476 310.379 651.463 310.673C651.451 310.967 651.352 311.251 651.179 311.488C651.006 311.726 650.766 311.907 650.491 312.009C650.215 312.111 649.915 312.129 649.629 312.06C649.437 312.016 649.255 311.933 649.095 311.818C648.935 311.702 648.8 311.556 648.698 311.387C648.595 311.218 648.527 311.031 648.498 310.836C648.469 310.641 648.48 310.442 648.529 310.25Z" fill="#D27D2D"/>
<path d="M584.9 374.509V361.999H588.57C589.206 361.974 589.837 362.115 590.4 362.409C590.855 362.694 591.206 363.119 591.4 363.619C591.635 364.231 591.747 364.883 591.73 365.539C591.762 366.229 591.621 366.917 591.32 367.539C591.061 368.019 590.65 368.399 590.15 368.619C589.595 368.859 588.995 368.975 588.39 368.959H587.15V374.509H584.9ZM587.18 367.359H588.05C588.393 367.382 588.737 367.32 589.05 367.179C589.166 367.123 589.268 367.043 589.351 366.945C589.433 366.847 589.495 366.732 589.53 366.609C589.63 366.268 589.673 365.914 589.66 365.559C589.67 365.19 589.636 364.82 589.56 364.459C589.537 364.33 589.486 364.207 589.412 364.098C589.338 363.99 589.242 363.898 589.13 363.829C588.818 363.682 588.475 363.613 588.13 363.629H587.26L587.18 367.359Z" fill="#263238"/>
<path d="M593 374.508V361.998H596C596.725 361.98 597.448 362.081 598.14 362.298C598.684 362.467 599.151 362.821 599.46 363.298C599.801 363.907 599.961 364.601 599.92 365.298C599.923 365.752 599.876 366.205 599.78 366.648C599.696 367.011 599.536 367.352 599.31 367.648C599.068 367.944 598.75 368.169 598.39 368.298L600.13 374.448H597.8L596.29 368.728H595.29V374.448L593 374.508ZM595.29 367.358H595.99C596.353 367.376 596.716 367.311 597.05 367.168C597.308 367.04 597.509 366.818 597.61 366.548C597.738 366.2 597.796 365.829 597.78 365.458C597.814 364.964 597.695 364.472 597.44 364.048C597.27 363.874 597.063 363.741 596.835 363.66C596.606 363.578 596.361 363.55 596.12 363.578H595.29V367.358Z" fill="#263238"/>
<path d="M604.941 374.681C604.205 374.719 603.474 374.549 602.831 374.191C602.302 373.861 601.904 373.36 601.701 372.771C601.463 372.065 601.348 371.325 601.36 370.581V365.911C601.347 365.176 601.462 364.445 601.701 363.751C601.908 363.175 602.307 362.688 602.831 362.371C603.493 362.055 604.217 361.891 604.951 361.891C605.684 361.891 606.408 362.055 607.071 362.371C607.592 362.69 607.99 363.176 608.201 363.751C608.449 364.443 608.567 365.175 608.55 365.911V370.601C608.565 371.336 608.446 372.068 608.201 372.761C607.991 373.346 607.594 373.845 607.071 374.181C606.421 374.542 605.683 374.715 604.941 374.681ZM604.941 373.001C605.242 373.027 605.543 372.938 605.781 372.751C605.969 372.572 606.096 372.337 606.141 372.081C606.203 371.771 606.233 371.456 606.23 371.141V365.391C606.234 365.075 606.204 364.76 606.141 364.451C606.095 364.198 605.969 363.966 605.781 363.791C605.532 363.635 605.244 363.552 604.951 363.552C604.657 363.552 604.369 363.635 604.121 363.791C603.929 363.965 603.799 364.197 603.751 364.451C603.687 364.76 603.657 365.075 603.66 365.391V371.141C603.658 371.456 603.688 371.771 603.751 372.081C603.787 372.34 603.915 372.577 604.11 372.751C604.345 372.936 604.642 373.026 604.941 373.001Z" fill="#263238"/>
<path d="M610.189 374.511L610.409 362.031H612.769L614.539 370.671L616.389 362.031H618.669L618.899 374.511H617.209L617.019 365.831L615.249 374.511H613.879L612.069 365.801L611.909 374.511H610.189Z" fill="#263238"/>
<path d="M624.141 374.678C623.405 374.717 622.674 374.547 622.031 374.188C621.505 373.858 621.11 373.356 620.911 372.768C620.669 372.064 620.554 371.323 620.571 370.578V365.908C620.551 365.174 620.666 364.442 620.911 363.748C621.114 363.173 621.51 362.686 622.031 362.368C622.676 362.018 623.406 361.852 624.141 361.888C624.884 361.849 625.625 362.015 626.281 362.368C626.799 362.689 627.194 363.175 627.401 363.748C627.649 364.441 627.767 365.173 627.751 365.908V370.598C627.765 371.334 627.646 372.065 627.401 372.758C627.195 373.343 626.801 373.843 626.281 374.178C625.628 374.542 624.887 374.715 624.141 374.678ZM624.141 372.998C624.442 373.025 624.743 372.936 624.981 372.748C625.169 372.57 625.296 372.335 625.341 372.078C625.411 371.77 625.444 371.455 625.441 371.138V365.388C625.446 365.072 625.412 364.757 625.341 364.448C625.295 364.195 625.169 363.964 624.981 363.788C624.739 363.609 624.44 363.524 624.141 363.548C623.85 363.527 623.562 363.612 623.331 363.788C623.136 363.96 623.005 364.193 622.961 364.448C622.889 364.757 622.855 365.072 622.861 365.388V371.138C622.858 371.454 622.889 371.769 622.951 372.078C622.992 372.336 623.119 372.572 623.311 372.748C623.546 372.933 623.842 373.022 624.141 372.998Z" fill="#263238"/>
<path d="M630.619 374.51V363.71H628.619V362H634.839V363.68H632.839V374.48L630.619 374.51Z" fill="#263238"/>
<path d="M636.061 374.51V362H638.311V374.48L636.061 374.51Z" fill="#263238"/>
<path d="M643.619 374.681C642.884 374.715 642.154 374.545 641.509 374.191C640.984 373.861 640.588 373.359 640.389 372.771C640.147 372.067 640.032 371.325 640.049 370.581V365.911C640.029 365.176 640.144 364.444 640.389 363.751C640.592 363.176 640.988 362.688 641.509 362.371C642.173 362.055 642.899 361.891 643.634 361.891C644.369 361.891 645.095 362.055 645.759 362.371C646.277 362.691 646.672 363.178 646.879 363.751C647.127 364.443 647.246 365.176 647.229 365.911V370.601C647.243 371.336 647.125 372.068 646.879 372.761C646.674 373.346 646.28 373.845 645.759 374.181C645.106 374.544 644.365 374.717 643.619 374.681ZM643.619 373.001C643.921 373.028 644.221 372.938 644.459 372.751C644.647 372.57 644.776 372.337 644.829 372.081C644.891 371.772 644.921 371.457 644.919 371.141V365.391C644.922 365.075 644.892 364.76 644.829 364.451C644.776 364.198 644.647 363.968 644.459 363.791C644.217 363.612 643.919 363.526 643.619 363.551C643.329 363.529 643.041 363.615 642.809 363.791C642.614 363.963 642.484 364.195 642.439 364.451C642.367 364.759 642.334 365.075 642.339 365.391V371.141C642.337 371.457 642.367 371.772 642.429 372.081C642.47 372.338 642.597 372.575 642.789 372.751C643.024 372.936 643.321 373.025 643.619 373.001Z" fill="#263238"/>
<path d="M648.91 374.51V362H650.5L653.5 369.12V362H655.38V374.48H653.9L650.9 367.02V374.48L648.91 374.51Z" fill="#263238"/>
<path d="M646.66 196.102L641.85 192.422L636.09 188.012L619.94 175.652V175.642L619.92 175.632L619.8 175.542L602.23 188.262L596.19 192.622L591.26 196.202L602.62 136.622L608.03 108.262L628.01 108.682L629.5 108.712L630.66 108.732L635.43 134.762L646.66 196.102Z" fill="#D27D2D" stroke="#263238" stroke-linecap="round" stroke-linejoin="round"/>
<path d="M635.431 134.762C634.707 134.521 633.928 134.497 633.191 134.692C632.191 135.232 631.931 137.592 630.831 138.012C629.731 138.432 627.991 136.852 626.831 137.162C625.671 137.472 624.991 139.732 623.831 139.922C622.671 140.112 621.291 138.182 620.111 138.252C618.931 138.322 617.781 140.382 616.601 140.322C615.421 140.262 614.451 138.102 613.301 137.922C612.151 137.742 610.561 139.522 609.441 139.232C608.321 138.942 607.801 136.612 606.711 136.232C605.621 135.852 603.711 137.232 602.711 136.692H602.641L608.001 108.262L628.001 108.682H629.491H630.651L635.431 134.762Z" fill="#263238" stroke="#263238" stroke-linecap="round" stroke-linejoin="round"/>
<path d="M585.741 97.7327C585.801 96.5427 583.871 95.1727 584.051 94.0227C584.231 92.8727 586.481 92.1227 586.771 91.0227C587.061 89.9227 585.471 88.1327 585.881 87.0227C586.291 85.9127 588.661 85.6827 589.181 84.6327C589.701 83.5827 588.511 81.5427 589.181 80.5627C589.851 79.5827 592.181 79.8227 592.901 78.9127C593.621 78.0027 592.901 75.7527 593.711 74.9127C594.521 74.0727 596.791 74.8127 597.711 74.0627C598.631 73.3127 598.351 70.9727 599.331 70.3227C600.311 69.6727 602.331 70.8627 603.401 70.3227C604.471 69.7827 604.661 67.4227 605.761 66.9927C606.861 66.5627 608.611 68.1527 609.761 67.8427C610.911 67.5327 611.591 65.2827 612.761 65.0927C613.931 64.9027 615.301 66.8227 616.481 66.7627C617.661 66.7027 618.801 64.6327 619.991 64.6927C621.181 64.7527 622.141 66.9127 623.281 67.0827C624.421 67.2527 626.021 65.4927 627.141 65.7827C628.261 66.0727 628.781 68.4027 629.871 68.7827C630.961 69.1627 632.871 67.7827 633.871 68.3227C634.871 68.8627 634.871 71.2127 635.871 71.8527C636.871 72.4927 639.011 71.5027 639.921 72.2427C640.831 72.9827 640.341 75.2427 641.181 76.1227C642.021 77.0027 644.321 76.4327 645.061 77.3427C645.801 78.2527 644.841 80.4127 645.491 81.3927C646.141 82.3727 648.491 82.3427 649.041 83.3927C649.591 84.4427 648.181 86.3427 648.611 87.3927C649.041 88.4427 651.361 88.9527 651.671 90.0927C651.981 91.2327 650.211 92.7927 650.401 93.9627C650.591 95.1327 652.761 96.0527 652.821 97.2327C652.881 98.4127 650.821 99.5727 650.821 100.763C650.821 101.953 652.691 103.323 652.521 104.473C652.351 105.623 650.091 106.373 649.791 107.473C649.491 108.573 651.091 110.363 650.681 111.473C650.271 112.583 647.911 112.823 647.381 113.863C646.851 114.903 648.051 116.953 647.381 117.943C646.711 118.933 644.381 118.673 643.651 119.593C642.921 120.513 643.651 122.753 642.841 123.593C642.031 124.433 639.761 123.693 638.841 124.433C637.921 125.173 638.211 127.533 637.231 128.173C636.251 128.813 634.231 127.633 633.151 128.173C632.071 128.713 631.891 131.063 630.791 131.493C629.691 131.923 627.941 130.333 626.791 130.643C625.641 130.953 624.951 133.213 623.791 133.403C622.631 133.593 621.261 131.663 620.081 131.733C618.901 131.803 617.751 133.863 616.561 133.803C615.371 133.743 614.421 131.583 613.271 131.403C612.121 131.223 610.531 133.003 609.411 132.703C608.291 132.403 607.771 130.093 606.681 129.703C605.591 129.313 603.681 130.703 602.631 130.173C601.581 129.643 601.631 127.273 600.631 126.643C599.631 126.013 597.491 126.983 596.631 126.253C595.771 125.523 596.211 123.193 595.381 122.373C594.551 121.553 592.231 122.063 591.491 121.153C590.751 120.243 591.711 118.083 591.061 117.153C590.411 116.223 588.061 116.153 587.511 115.153C586.961 114.153 588.371 112.153 587.941 111.093C587.511 110.033 585.201 109.543 584.941 108.403C584.681 107.263 586.391 105.693 586.201 104.533C586.011 103.373 583.841 102.433 583.781 101.253C583.721 100.073 585.691 98.9127 585.741 97.7327Z" fill="#D27D2D" stroke="#263238" stroke-linecap="round" stroke-linejoin="round"/>
<path d="M626.709 125.663C641.276 121.009 649.311 105.427 644.657 90.8594C640.002 76.2921 624.42 68.2564 609.853 72.911C595.286 77.5656 587.25 93.1479 591.904 107.715C596.559 122.282 612.141 130.318 626.709 125.663Z" fill="#263238" stroke="#263238" stroke-linecap="round" stroke-linejoin="round"/>
<path d="M638.77 112.794C646.232 101.473 643.104 86.247 631.783 78.7853C620.462 71.3235 605.236 74.4518 597.774 85.7724C590.313 97.0931 593.441 112.319 604.762 119.781C616.082 127.243 631.308 124.115 638.77 112.794Z" fill="white" stroke="#263238" stroke-linecap="round" stroke-linejoin="round"/>
<path d="M600.451 95.5L601.251 97.96H603.841L601.741 99.48L602.541 101.95L600.451 100.42L598.351 101.95L599.151 99.48L597.061 97.96H599.651L600.451 95.5Z" fill="#D27D2D" stroke="#263238" stroke-width="0.5" stroke-linecap="round" stroke-linejoin="round"/>
<path d="M609.331 95.5L610.131 97.96H612.721L610.631 99.48L611.421 101.95L609.331 100.42L607.241 101.95L608.041 99.48L605.941 97.96H608.531L609.331 95.5Z" fill="#D27D2D" stroke="#263238" stroke-width="0.5" stroke-linecap="round" stroke-linejoin="round"/>
<path d="M618.21 95.5L619.01 97.96H621.6L619.51 99.48L620.31 101.95L618.21 100.42L616.12 101.95L616.92 99.48L614.83 97.96H617.41L618.21 95.5Z" fill="#D27D2D" stroke="#263238" stroke-width="0.5" stroke-linecap="round" stroke-linejoin="round"/>
<path d="M627.101 95.5L627.901 97.96H630.491L628.391 99.48L629.191 101.95L627.101 100.42L625.001 101.95L625.801 99.48L623.711 97.96H626.301L627.101 95.5Z" fill="#D27D2D" stroke="#263238" stroke-width="0.5" stroke-linecap="round" stroke-linejoin="round"/>
<path d="M635.98 95.5L636.78 97.96H639.37L637.27 99.48L638.08 101.95L635.98 100.42L633.89 101.95L634.69 99.48L632.59 97.96H635.18L635.98 95.5Z" fill="#D27D2D" stroke="#263238" stroke-width="0.5" stroke-linecap="round" stroke-linejoin="round"/>
<path d="M602.161 223.002C601.861 222.856 601.582 222.671 601.331 222.452C601.027 222.19 600.74 221.91 600.471 221.612C600.205 221.32 599.962 221.009 599.741 220.682H599.461C598.725 220.72 597.994 220.551 597.351 220.192C596.825 219.862 596.43 219.36 596.231 218.772C595.989 218.068 595.874 217.327 595.891 216.582V212.002C595.871 211.267 595.986 210.535 596.231 209.842C596.434 209.267 596.83 208.78 597.351 208.462C597.997 208.111 598.727 207.945 599.461 207.982C600.205 207.943 600.945 208.109 601.601 208.462C602.125 208.779 602.524 209.266 602.731 209.842C602.976 210.535 603.091 211.267 603.071 212.002V216.692C603.074 217.237 603.017 217.78 602.901 218.312C602.803 218.763 602.612 219.189 602.341 219.562C602.087 219.922 601.742 220.209 601.341 220.392L601.751 220.832L602.181 221.272C602.312 221.39 602.453 221.497 602.601 221.592L602.161 223.002ZM599.461 219.002C599.602 219.023 599.745 219.016 599.883 218.981C600.021 218.946 600.15 218.884 600.264 218.798C600.378 218.713 600.473 218.605 600.545 218.482C600.616 218.359 600.662 218.223 600.681 218.082C600.743 217.773 600.773 217.458 600.771 217.142V211.392C600.774 211.077 600.744 210.762 600.681 210.452C600.632 210.198 600.502 209.967 600.311 209.792C600.065 209.615 599.764 209.53 599.461 209.552C599.164 209.529 598.869 209.614 598.631 209.792C598.436 209.962 598.308 210.196 598.271 210.452C598.208 210.762 598.178 211.077 598.181 211.392V217.142C598.179 217.458 598.209 217.773 598.271 218.082C598.31 218.343 598.437 218.583 598.631 218.762C598.869 218.94 599.164 219.025 599.461 219.002Z" fill="#263238"/>
<path d="M608.181 220.72C607.43 220.763 606.683 220.586 606.031 220.21C605.513 219.87 605.134 219.356 604.961 218.76C604.755 218.029 604.657 217.27 604.671 216.51V208.07H606.891V216.78C606.892 217.148 606.918 217.516 606.971 217.88C607.006 218.187 607.131 218.476 607.331 218.71C607.442 218.822 607.575 218.908 607.721 218.963C607.868 219.018 608.025 219.041 608.181 219.03C608.343 219.045 608.505 219.024 608.657 218.969C608.809 218.913 608.947 218.825 609.061 218.71C609.251 218.47 609.371 218.183 609.411 217.88C609.473 217.517 609.503 217.149 609.501 216.78V208.07H611.701V216.51C611.716 217.27 611.618 218.029 611.411 218.76C611.239 219.353 610.864 219.866 610.351 220.21C609.693 220.588 608.939 220.766 608.181 220.72Z" fill="#263238"/>
<path d="M612.791 220.55L615.291 208.07H617.721L620.221 220.55H618.111L617.621 217.67H615.441L614.931 220.55H612.791ZM615.671 216.22H617.371L616.521 210.98L615.671 216.22Z" fill="#263238"/>
<path d="M621.41 220.55V208.07H623.69V219H626.69V220.57L621.41 220.55Z" fill="#263238"/>
<path d="M627.9 220.55V208.07H630.15V220.55H627.9Z" fill="#263238"/>
<path d="M633.32 220.55V209.75H631.32V208.07H637.55V209.75H635.55V220.55H633.32Z" fill="#263238"/>
<path d="M640.44 220.55V215.79L637.91 208.07H640L641.54 213.07L642.99 208.07H645.07L642.57 215.79V220.55H640.44Z" fill="#263238"/>
<path d="M394.001 55.0928L397.091 77.7328L382.681 81.1628C378.729 83.8383 374.603 86.247 370.331 88.3728C364.491 91.1128 360.381 92.1428 358.331 92.1428C356.281 92.1428 348.721 89.0528 348.721 89.0528C348.721 89.0528 353.871 61.2628 359.721 58.1728C365.571 55.0828 380.941 50.6328 394.001 55.0928Z" fill="white" stroke="#263238" stroke-linecap="round" stroke-linejoin="round"/>
<path d="M320.721 54.3002C320.721 54.3002 346.481 52.6602 350.251 52.6602C354.021 52.6602 362.411 62.0002 362.411 62.0002C362.411 62.0002 377.772 87.5702 376.482 89.1002C373.242 92.9402 370.651 90.1602 370.651 90.1602L370.061 92.8602C370.061 92.8602 367.561 95.9602 354.871 94.2502C342.181 92.5402 338.061 88.7102 335.001 88.0002C331.941 87.2902 315.271 82.6702 315.271 82.6702L320.721 54.3002Z" fill="white" stroke="#263238" stroke-linecap="round" stroke-linejoin="round"/>
<path d="M370.65 90.1097L366.41 81.9297" stroke="#263238" stroke-linecap="round" stroke-linejoin="round"/>
<path d="M366.41 93.9016L361.15 84.8516" stroke="#263238" stroke-linecap="round" stroke-linejoin="round"/>
<path d="M386.771 57.1395C386.771 57.1395 361.001 49.2495 355.901 54.7395C350.801 60.2295 339.771 74.6395 342.171 76.3595C344.571 78.0795 353.171 71.5495 355.171 70.1795C356.684 69.084 358.066 67.8191 359.291 66.4095C361.682 68.7701 364.653 70.4572 367.905 71.3001C371.158 72.1429 374.575 72.1117 377.811 71.2095" fill="white"/>
<path d="M386.771 57.1395C386.771 57.1395 361.001 49.2495 355.901 54.7395C350.801 60.2295 339.771 74.6395 342.171 76.3595C344.571 78.0795 353.171 71.5495 355.171 70.1795C356.684 69.084 358.066 67.8191 359.291 66.4095C361.682 68.7701 364.653 70.4572 367.905 71.3001C371.158 72.1429 374.575 72.1117 377.811 71.2095" stroke="#263238" stroke-linecap="round" stroke-linejoin="round"/>
<path d="M358.47 84.3628C358.47 84.3628 356 93.1828 357 94.6828C357.373 95.3104 357.943 95.7975 358.621 96.0686C359.299 96.3398 360.047 96.3799 360.75 96.1828C361.594 95.835 362.362 95.3254 363.01 94.6828C363.01 94.6828 363.38 87.1828 362.26 85.3028C361.14 83.4228 360.16 82.1128 358.47 84.3628Z" fill="white" stroke="#263238" stroke-linecap="round" stroke-linejoin="round"/>
<path d="M351.901 85.493C351.901 85.493 349.461 94.313 350.401 95.813C350.776 96.4414 351.347 96.9288 352.027 97.2C352.707 97.4711 353.457 97.5108 354.161 97.313C354.998 96.9583 355.762 96.4495 356.411 95.813C356.411 95.813 356.781 88.303 355.661 86.433C354.541 84.563 353.591 83.243 351.901 85.493Z" fill="white" stroke="#263238" stroke-linecap="round" stroke-linejoin="round"/>
<path d="M345.301 85.8023C345.301 85.8023 343.431 92.5723 344.151 93.7223C344.435 94.199 344.868 94.5695 345.383 94.7772C345.897 94.9849 346.466 95.0183 347.001 94.8723C347.647 94.6038 348.234 94.2134 348.731 93.7223C348.731 93.7223 349.021 87.9623 348.161 86.5223C347.301 85.0823 346.591 84.0823 345.301 85.8023Z" fill="white" stroke="#263238" stroke-linecap="round" stroke-linejoin="round"/>
<path d="M337.512 86.0932C337.512 86.0932 336.042 90.5732 336.612 91.3332C336.875 91.6647 337.228 91.9129 337.629 92.0478C338.03 92.1826 338.462 92.1984 338.872 92.0932C339.367 91.9232 339.828 91.6658 340.232 91.3332C340.232 91.3332 340.462 87.5232 339.782 86.5732C339.102 85.6232 338.532 85.0032 337.512 86.0932Z" fill="white" stroke="#263238" stroke-linecap="round" stroke-linejoin="round"/>
<path d="M398.6 48.1074L388.852 50.1492L396.816 88.1741L406.565 86.1322L398.6 48.1074Z" fill="white" stroke="#263238" stroke-linecap="round" stroke-linejoin="round"/>
<path d="M411.183 44.9668L395.582 48.2347L404.467 90.6541L420.069 87.3863L411.183 44.9668Z" fill="#D27D2D" stroke="#263238" stroke-linecap="round" stroke-linejoin="round"/>
<path d="M309.023 86.1303L318.771 88.1722L326.736 50.1473L316.988 48.1055L309.023 86.1303Z" fill="white" stroke="#263238" stroke-linecap="round" stroke-linejoin="round"/>
<path d="M295.524 87.3843L311.125 90.6521L320.01 48.2327L304.409 44.9648L295.524 87.3843Z" fill="#263238" stroke="#263238" stroke-linecap="round" stroke-linejoin="round"/>
<path d="M304.002 117.203C303.247 117.246 302.497 117.057 301.852 116.663C301.336 116.307 300.953 115.79 300.762 115.193C300.548 114.497 300.444 113.771 300.452 113.043V108.583C300.441 107.832 300.546 107.083 300.762 106.363C300.948 105.769 301.333 105.257 301.852 104.913C302.505 104.542 303.252 104.369 304.002 104.413C304.695 104.381 305.384 104.529 306.002 104.843C306.463 105.143 306.815 105.585 307.002 106.103C307.212 106.714 307.314 107.357 307.302 108.003V109.003H305.122V108.003C305.124 107.685 305.103 107.368 305.062 107.053C305.045 106.797 304.943 106.554 304.772 106.363C304.658 106.267 304.525 106.196 304.383 106.153C304.24 106.11 304.09 106.096 303.942 106.113C303.789 106.1 303.636 106.117 303.49 106.163C303.344 106.209 303.209 106.284 303.092 106.383C302.902 106.58 302.779 106.832 302.742 107.103C302.693 107.434 302.67 107.768 302.672 108.103V113.523C302.662 113.899 302.696 114.275 302.772 114.643C302.823 114.91 302.97 115.148 303.186 115.312C303.402 115.476 303.671 115.555 303.942 115.533C304.089 115.551 304.237 115.536 304.377 115.489C304.517 115.442 304.645 115.365 304.752 115.263C304.922 115.059 305.027 114.808 305.052 114.543C305.103 114.212 305.126 113.878 305.122 113.543V112.403H307.302V113.403C307.321 114.081 307.223 114.758 307.012 115.403C306.839 115.95 306.487 116.422 306.012 116.743C305.4 117.085 304.702 117.245 304.002 117.203Z" fill="#263238"/>
<path d="M312.361 117.203C311.61 117.246 310.862 117.069 310.211 116.693C309.693 116.353 309.313 115.838 309.141 115.243C308.935 114.511 308.838 113.753 308.851 112.993V104.543H311.071V113.253C311.066 113.621 311.092 113.989 311.151 114.353C311.183 114.663 311.309 114.956 311.511 115.193C311.753 115.393 312.057 115.502 312.371 115.502C312.685 115.502 312.989 115.393 313.231 115.193C313.425 114.951 313.549 114.66 313.591 114.353C313.649 113.989 313.676 113.621 313.671 113.253V104.543H315.881V113.003C315.896 113.764 315.795 114.523 315.581 115.253C315.416 115.847 315.043 116.361 314.531 116.703C313.872 117.078 313.117 117.251 312.361 117.203Z" fill="#263238"/>
<path d="M320.81 117.202C320.156 117.223 319.507 117.072 318.93 116.762C318.42 116.467 318.02 116.014 317.79 115.472C317.512 114.813 317.366 114.106 317.36 113.392L319.31 113.002C319.323 113.434 319.383 113.863 319.49 114.282C319.563 114.602 319.719 114.899 319.94 115.142C320.045 115.243 320.168 115.322 320.304 115.374C320.44 115.425 320.585 115.448 320.73 115.442C320.879 115.456 321.029 115.433 321.167 115.375C321.304 115.318 321.426 115.227 321.52 115.112C321.681 114.862 321.761 114.568 321.75 114.272C321.773 113.797 321.643 113.327 321.38 112.932C321.091 112.542 320.755 112.19 320.38 111.882L318.81 110.492C318.387 110.132 318.029 109.702 317.75 109.222C317.475 108.688 317.34 108.092 317.36 107.492C317.336 107.073 317.4 106.653 317.549 106.26C317.697 105.868 317.926 105.51 318.22 105.212C318.874 104.65 319.72 104.363 320.58 104.412C321.083 104.397 321.583 104.486 322.05 104.672C322.421 104.836 322.742 105.094 322.98 105.422C323.215 105.753 323.391 106.121 323.5 106.512C323.614 106.933 323.684 107.366 323.71 107.802L321.77 108.132C321.755 107.795 321.712 107.461 321.64 107.132C321.589 106.86 321.465 106.608 321.28 106.402C321.181 106.311 321.064 106.241 320.937 106.196C320.81 106.151 320.675 106.133 320.54 106.142C320.394 106.136 320.249 106.163 320.114 106.22C319.979 106.277 319.858 106.363 319.76 106.472C319.575 106.708 319.48 107.002 319.49 107.302C319.488 107.652 319.578 107.997 319.75 108.302C319.966 108.613 320.222 108.896 320.51 109.142L322.06 110.512C322.578 110.946 323.023 111.459 323.38 112.032C323.758 112.666 323.949 113.394 323.93 114.132C323.942 114.688 323.804 115.237 323.53 115.722C323.276 116.177 322.899 116.552 322.44 116.802C321.942 117.077 321.38 117.215 320.81 117.202Z" fill="#263238"/>
<path d="M326.531 117.003V106.223H324.531V104.543H330.751V106.223H328.801V117.003H326.531Z" fill="#263238"/>
<path d="M335.23 117.2C334.494 117.234 333.763 117.061 333.12 116.7C332.595 116.374 332.2 115.875 332 115.29C331.758 114.586 331.643 113.845 331.66 113.1V108.43C331.641 107.692 331.756 106.957 332 106.26C332.204 105.685 332.599 105.198 333.12 104.88C333.785 104.568 334.511 104.406 335.245 104.406C335.98 104.406 336.705 104.568 337.37 104.88C337.889 105.201 338.283 105.687 338.49 106.26C338.738 106.956 338.856 107.692 338.84 108.43V113.11C338.855 113.849 338.737 114.584 338.49 115.28C338.282 115.863 337.889 116.362 337.37 116.7C336.718 117.063 335.976 117.237 335.23 117.2ZM335.23 115.52C335.531 115.542 335.83 115.453 336.07 115.27C336.261 115.087 336.39 114.85 336.44 114.59C336.502 114.281 336.532 113.966 336.53 113.65V107.9C336.533 107.585 336.503 107.27 336.44 106.96C336.385 106.711 336.256 106.485 336.07 106.31C335.829 106.131 335.53 106.046 335.23 106.07C334.94 106.049 334.652 106.134 334.42 106.31C334.227 106.479 334.097 106.708 334.05 106.96C333.979 107.268 333.945 107.584 333.95 107.9V113.65C333.948 113.966 333.978 114.281 334.04 114.59C334.083 114.85 334.209 115.089 334.4 115.27C334.638 115.45 334.933 115.539 335.23 115.52Z" fill="#263238"/>
<path d="M340.49 117.002L340.7 104.512H343.06L344.84 113.162L346.68 104.512H349L349.2 117.002H347.5L347.32 108.322L345.54 117.002H344.17L342.37 108.292L342.2 117.002H340.49Z" fill="#263238"/>
<path d="M351 117.003V104.543H356.24V106.153H353.24V109.743H355.57V111.333H353.24V115.463H356.24V117.003H351Z" fill="#263238"/>
<path d="M357.551 117.001V104.541H360.551C361.272 104.523 361.992 104.625 362.681 104.841C363.226 105.01 363.696 105.364 364.011 105.841C364.346 106.452 364.502 107.145 364.461 107.841C364.468 108.298 364.424 108.754 364.331 109.201C364.246 109.563 364.085 109.904 363.861 110.201C363.618 110.498 363.3 110.726 362.941 110.861L364.681 117.011H362.401L360.891 111.291H359.841V117.001H357.551ZM359.831 109.851H360.541C360.885 109.858 361.226 109.79 361.541 109.651C361.804 109.53 362.008 109.311 362.111 109.041C362.233 108.691 362.29 108.322 362.281 107.951C362.315 107.456 362.193 106.963 361.931 106.541C361.763 106.365 361.556 106.231 361.327 106.149C361.097 106.068 360.852 106.041 360.611 106.071H359.781L359.831 109.851Z" fill="#263238"/>
<path d="M369.91 117.003V104.543H372.19V115.463H375.19V117.003H369.91Z" fill="#263238"/>
<path d="M379.631 117.2C378.894 117.234 378.163 117.061 377.521 116.7C376.996 116.374 376.6 115.875 376.401 115.29C376.159 114.586 376.044 113.845 376.061 113.1V108.43C376.042 107.692 376.157 106.957 376.401 106.26C376.604 105.685 377 105.198 377.521 104.88C378.185 104.568 378.911 104.406 379.646 104.406C380.38 104.406 381.106 104.568 381.771 104.88C382.289 105.201 382.684 105.687 382.891 106.26C383.143 106.955 383.261 107.691 383.241 108.43V113.11C383.261 113.849 383.142 114.585 382.891 115.28C382.683 115.863 382.289 116.362 381.771 116.7C381.118 117.063 380.377 117.237 379.631 117.2ZM379.631 115.52C379.932 115.542 380.23 115.453 380.471 115.27C380.664 115.09 380.794 114.851 380.841 114.59C380.903 114.281 380.933 113.966 380.931 113.65V107.9C380.934 107.585 380.904 107.27 380.841 106.96C380.79 106.71 380.66 106.482 380.471 106.31C380.229 106.131 379.93 106.046 379.631 106.07C379.34 106.049 379.052 106.134 378.821 106.31C378.628 106.479 378.497 106.708 378.451 106.96C378.388 107.27 378.357 107.585 378.361 107.9V113.65C378.355 113.966 378.382 114.28 378.441 114.59C378.483 114.85 378.61 115.089 378.801 115.27C379.039 115.45 379.333 115.539 379.631 115.52Z" fill="#263238"/>
<path d="M386.54 117.003V112.233L384 104.543H386.13L387.67 109.493L389.12 104.543H391.2L388.7 112.263V117.003H386.54Z" fill="#263238"/>
<path d="M391.191 117.002L393.691 104.512H396.131L398.621 117.002H396.511L396.021 114.122H393.841L393.331 117.002H391.191ZM394.081 112.672H395.771L394.921 107.432L394.081 112.672Z" fill="#263238"/>
<path d="M399.811 117.003V104.543H402.091V115.463H405.091V117.003H399.811Z" fill="#263238"/>
<path d="M406.932 117.003V106.223H404.932V104.543H411.162V106.223H409.162V117.003H406.932Z" fill="#263238"/>
<path d="M414.051 117.002V112.232L411.521 104.512H413.651L415.191 109.462L416.642 104.512H418.721L416.221 112.232V117.002H414.051Z" fill="#263238"/>
<path d="M100.38 129.07V118.72L90.05 117.57C89.4933 115.413 88.642 113.344 87.52 111.42L94.05 103.26L86.73 96L78.61 102.49C76.6878 101.362 74.6227 100.497 72.47 99.92L71.32 89.5H61L59.83 99.82C57.6707 100.383 55.5983 101.237 53.67 102.36L45.51 95.83L38.2 103.15L44.7 111.27C43.5686 113.192 42.7008 115.257 42.12 117.41L31.75 118.56V128.9L42.08 130.05C42.6392 132.209 43.4904 134.281 44.61 136.21L38.08 144.37L45.4 151.68L53.52 145.18C55.4401 146.312 57.5058 147.177 59.66 147.75L60.81 158.13H71.16L72.3 147.8C74.4589 147.241 76.5313 146.39 78.46 145.27L86.62 151.79L93.93 144.48L87.43 136.36C88.5614 134.438 89.4292 132.373 90.01 130.22L100.38 129.07ZM66.07 136.16C63.627 136.162 61.2382 135.439 59.206 134.084C57.1737 132.728 55.5892 130.8 54.653 128.543C53.7167 126.287 53.4707 123.803 53.9461 121.407C54.4215 119.01 55.5969 116.809 57.3237 115.081C59.0505 113.353 61.251 112.175 63.647 111.698C66.0429 111.221 68.5266 111.465 70.7838 112.399C73.0411 113.334 74.9705 114.917 76.3279 116.948C77.6854 118.979 78.41 121.367 78.41 123.81C78.41 127.084 77.1102 130.223 74.7963 132.539C72.4824 134.855 69.3437 136.157 66.07 136.16Z" fill="#263238" stroke="#263238" stroke-linecap="round" stroke-linejoin="round"/>
<path d="M141 108.309L139.85 101.459L132.85 101.839C132.236 100.476 131.442 99.2013 130.49 98.0489L134 91.9189L128.35 87.9189L123.69 93.1189C122.293 92.5881 120.829 92.2516 119.34 92.1189L117.43 85.3789L110.58 86.5189L110.97 93.5189C109.603 94.1305 108.324 94.9244 107.17 95.8789L101 92.3789L96.9999 97.9989L102.2 102.649C101.669 104.046 101.333 105.51 101.2 106.999L94.4199 108.999L95.5699 115.839L102.57 115.459C103.177 116.824 103.967 118.099 104.92 119.249L101.51 125.379L107.16 129.379L111.82 124.179C113.217 124.71 114.681 125.046 116.17 125.179L118.08 131.919L124.93 130.779L124.54 123.779C125.907 123.167 127.186 122.373 128.34 121.419L134.46 124.839L138.46 119.179L133.26 114.529C133.786 113.13 134.122 111.667 134.26 110.179L141 108.309ZM119.06 116.799C117.445 117.067 115.787 116.85 114.295 116.176C112.804 115.502 111.545 114.401 110.679 113.012C109.813 111.623 109.377 110.009 109.428 108.373C109.479 106.737 110.014 105.152 110.965 103.82C111.916 102.488 113.241 101.467 114.772 100.887C116.303 100.308 117.971 100.195 119.566 100.563C121.161 100.931 122.611 101.763 123.733 102.955C124.855 104.147 125.599 105.645 125.87 107.259C126.232 109.423 125.722 111.642 124.451 113.43C123.18 115.218 121.252 116.429 119.09 116.799H119.06Z" fill="#D27D2D" stroke="#263238" stroke-linecap="round" stroke-linejoin="round"/>
<path d="M124.789 171.318L123.639 164.468L116.639 164.848C116.025 163.485 115.232 162.211 114.279 161.058L117.699 154.938L112.039 150.938L107.389 156.138C105.99 155.615 104.527 155.278 103.039 155.138L101.119 148.398L94.2794 149.548L94.6595 156.548C93.2944 157.164 92.0166 157.958 90.8595 158.908L84.7394 155.498L80.7394 161.148L85.9395 165.808C85.4097 167.203 85.0733 168.663 84.9395 170.148L78.1895 171.998L79.3295 178.848L86.3295 178.458C86.9373 179.828 87.7315 181.107 88.6895 182.258L85.2694 188.378L90.9194 192.378L95.5795 187.178C96.9768 187.709 98.4405 188.046 99.9295 188.178L101.839 194.928L108.689 193.778L108.309 186.778C109.674 186.172 110.949 185.381 112.099 184.428L118.229 187.838L122.229 182.188L117.029 177.528C117.556 176.13 117.892 174.667 118.029 173.178L124.789 171.318ZM102.859 179.818C101.242 180.091 99.5803 179.877 98.0844 179.205C96.5884 178.533 95.3254 177.432 94.4553 176.041C93.5853 174.651 93.1471 173.034 93.1964 171.395C93.2456 169.755 93.78 168.167 94.732 166.832C95.684 165.496 97.0107 164.473 98.5443 163.892C100.078 163.31 101.75 163.197 103.348 163.566C104.946 163.935 106.398 164.77 107.522 165.965C108.645 167.159 109.389 168.661 109.659 170.278C110.021 172.445 109.508 174.667 108.233 176.455C106.958 178.244 105.026 179.454 102.859 179.818Z" fill="white" stroke="#263238" stroke-linecap="round" stroke-linejoin="round"/>
<path d="M60.1707 220.717C59.5157 220.744 58.8658 220.592 58.2907 220.277C57.7862 219.98 57.3876 219.533 57.1507 218.997C56.8731 218.339 56.727 217.632 56.7207 216.917L58.7207 216.527C58.7355 216.959 58.7925 217.387 58.8907 217.807C58.9636 218.125 59.1188 218.419 59.3407 218.657C59.4455 218.758 59.5694 218.836 59.7051 218.888C59.8409 218.939 59.9856 218.963 60.1307 218.957C60.2795 218.973 60.4299 218.951 60.568 218.894C60.7061 218.836 60.8274 218.744 60.9207 218.627C61.0854 218.379 61.166 218.085 61.1507 217.787C61.1712 217.313 61.0418 216.844 60.7807 216.447C60.4915 216.073 60.1554 215.737 59.7807 215.447L58.1807 213.997C57.7601 213.638 57.4049 213.208 57.1307 212.727C56.8548 212.19 56.7205 211.591 56.7407 210.987C56.7166 210.568 56.7806 210.149 56.9288 209.756C57.0769 209.363 57.3058 209.006 57.6007 208.707C58.2547 208.146 59.1003 207.86 59.9607 207.907C60.4611 207.892 60.959 207.984 61.4207 208.177C61.7911 208.342 62.1118 208.6 62.3507 208.927C62.587 209.254 62.7631 209.619 62.8707 210.007C62.9812 210.43 63.0548 210.862 63.0907 211.297L61.0907 211.637C61.0743 211.301 61.0308 210.967 60.9607 210.637C60.9189 210.368 60.797 210.117 60.6107 209.917C60.5101 209.825 60.3916 209.755 60.2626 209.71C60.1336 209.665 59.9968 209.647 59.8607 209.657C59.7145 209.652 59.5688 209.679 59.434 209.736C59.2993 209.793 59.1787 209.879 59.0807 209.987C58.8962 210.22 58.8005 210.511 58.8107 210.807C58.8049 211.158 58.8948 211.504 59.0707 211.807C59.2865 212.119 59.542 212.402 59.8307 212.647L61.4407 213.997C61.9548 214.432 62.3969 214.945 62.7507 215.517C63.1333 216.15 63.3243 216.879 63.3007 217.617C63.3117 218.172 63.1772 218.721 62.9107 219.207C62.6534 219.667 62.2722 220.044 61.8107 220.297C61.31 220.578 60.7446 220.723 60.1707 220.717Z" fill="#263238"/>
<path d="M68.0602 220.72C67.3092 220.763 66.5619 220.586 65.9102 220.21C65.3921 219.87 65.0126 219.356 64.8402 218.76C64.6334 218.029 64.5357 217.27 64.5502 216.51V208.07H66.7702V216.78C66.7674 217.148 66.7908 217.516 66.8402 217.88C66.8824 218.186 67.0107 218.474 67.2102 218.71C67.4496 218.916 67.7547 219.029 68.0702 219.029C68.3858 219.029 68.6909 218.916 68.9302 218.71C69.1226 218.471 69.2469 218.184 69.2902 217.88C69.3432 217.516 69.3699 217.148 69.3702 216.78V208.07H71.5802V216.51C71.5969 217.271 71.4957 218.03 71.2802 218.76C71.1281 219.346 70.774 219.86 70.2802 220.21C69.6077 220.598 68.8345 220.776 68.0602 220.72Z" fill="#263238"/>
<path d="M73.3594 220.549V208.069H76.9994C77.6347 208.044 78.2655 208.186 78.8294 208.479C79.284 208.765 79.6346 209.189 79.8294 209.689C80.0642 210.301 80.1763 210.954 80.1594 211.609C80.1927 212.3 80.0517 212.988 79.7494 213.609C79.4905 214.089 79.0787 214.47 78.5794 214.689C78.0244 214.929 77.4238 215.045 76.8194 215.029H75.5794V220.579L73.3594 220.549ZM75.6394 213.399H76.5094C76.8524 213.422 77.1958 213.36 77.5094 213.219C77.6247 213.163 77.727 213.083 77.8097 212.985C77.8923 212.887 77.9535 212.772 77.9894 212.649C78.0886 212.308 78.1324 211.954 78.1194 211.599C78.129 211.23 78.0955 210.861 78.0194 210.499C77.9649 210.241 77.8103 210.014 77.5894 209.869C77.2773 209.722 76.934 209.654 76.5894 209.669H75.7194L75.6394 213.399Z" fill="#263238"/>
<path d="M81.4199 220.549V208.069H85.0899C85.7252 208.044 86.356 208.186 86.9199 208.479C87.3745 208.765 87.7251 209.189 87.9199 209.689C88.1547 210.301 88.2669 210.954 88.2499 211.609C88.2832 212.3 88.1422 212.988 87.8399 213.609C87.581 214.089 87.1693 214.47 86.6699 214.689C86.1149 214.929 85.5143 215.045 84.9099 215.029H83.6799V220.579L81.4199 220.549ZM83.7099 213.399H84.5699C84.913 213.422 85.2563 213.36 85.5699 213.219C85.6853 213.163 85.7876 213.083 85.8702 212.985C85.9529 212.887 86.0141 212.772 86.0499 212.649C86.1491 212.308 86.193 211.954 86.1799 211.599C86.1896 211.23 86.156 210.861 86.0799 210.499C86.0255 210.241 85.8709 210.014 85.6499 209.869C85.3378 209.722 84.9946 209.654 84.6499 209.669H83.7899L83.7099 213.399Z" fill="#263238"/>
<path d="M92.9396 220.719C92.2041 220.758 91.4726 220.588 90.8296 220.229C90.3015 219.899 89.9026 219.397 89.6996 218.809C89.4578 218.104 89.3427 217.363 89.3596 216.619V211.999C89.3397 211.264 89.4549 210.532 89.6996 209.839C89.907 209.263 90.3059 208.776 90.8296 208.459C91.4755 208.108 92.2056 207.942 92.9396 207.979C93.6804 207.938 94.4179 208.104 95.0696 208.459C95.5912 208.778 95.9895 209.264 96.1996 209.839C96.4443 210.532 96.5596 211.264 96.5396 211.999V216.689C96.5569 217.423 96.4417 218.155 96.1996 218.849C95.9904 219.434 95.593 219.933 95.0696 220.269C94.4149 220.613 93.6776 220.768 92.9396 220.719ZM92.9396 219.039C93.2395 219.063 93.538 218.978 93.7796 218.799C93.9665 218.614 94.0922 218.377 94.1396 218.119C94.2017 217.809 94.2318 217.494 94.2296 217.179V211.429C94.2328 211.113 94.2027 210.798 94.1396 210.489C94.0941 210.236 93.9678 210.004 93.7796 209.829C93.531 209.672 93.2433 209.59 92.9496 209.59C92.656 209.59 92.3683 209.672 92.1196 209.829C91.9283 210.003 91.7986 210.235 91.7496 210.489C91.6866 210.798 91.6564 211.113 91.6596 211.429V217.179C91.6593 217.494 91.686 217.808 91.7396 218.119C91.7481 218.262 91.7874 218.401 91.8546 218.528C91.9219 218.655 92.0156 218.766 92.1294 218.853C92.2432 218.94 92.3745 219.002 92.5143 219.034C92.6541 219.066 92.7992 219.068 92.9396 219.039Z" fill="#263238"/>
<path d="M98.2207 220.548V208.068H101.221C101.946 208.05 102.669 208.152 103.361 208.368C103.904 208.537 104.371 208.891 104.681 209.368C105.022 209.977 105.182 210.672 105.141 211.368C105.144 211.822 105.097 212.275 105.001 212.718C104.918 213.082 104.758 213.423 104.531 213.718C104.289 214.014 103.971 214.239 103.611 214.368L105.351 220.518H103.071L101.561 214.798H100.561V220.518L98.2207 220.548ZM100.501 213.398H101.211C101.574 213.417 101.936 213.352 102.271 213.208C102.529 213.08 102.729 212.859 102.831 212.588C102.953 212.242 103.011 211.876 103.001 211.508C103.04 211.013 102.917 210.518 102.651 210.098C102.486 209.921 102.281 209.786 102.053 209.705C101.825 209.623 101.581 209.597 101.341 209.628H100.501V213.398Z" fill="#263238"/>
<path d="M108.061 220.55V209.75H106.061V208.07H112.281V209.75H110.331V220.55H108.061Z" fill="#263238"/>
<path d="M48.5695 313.648H38.2695V344.378H48.5695V313.648Z" fill="#263238" stroke="#263238" stroke-width="0.5" stroke-linecap="round" stroke-linejoin="round"/>
<path d="M64.759 324.699H54.459V344.379H64.759V324.699Z" fill="#D27D2D" stroke="#263238" stroke-linecap="round" stroke-linejoin="round"/>
<path d="M80.9504 306.922H70.6504V344.382H80.9504V306.922Z" fill="#263238" stroke="#263238" stroke-width="0.5" stroke-linecap="round" stroke-linejoin="round"/>
<path d="M97.1398 314.672H86.8398V344.382H97.1398V314.672Z" fill="#D27D2D" stroke="#263238" stroke-linecap="round" stroke-linejoin="round"/>
<path d="M113.329 307.879H103.029V344.379H113.329V307.879Z" fill="#263238" stroke="#263238" stroke-width="0.5" stroke-linecap="round" stroke-linejoin="round"/>
<path d="M129.509 286.25H119.209V344.38H129.509V286.25Z" fill="#D27D2D" stroke="#263238" stroke-linecap="round" stroke-linejoin="round"/>
<path d="M141.09 285.629H147.12" stroke="#263238" stroke-width="0.5" stroke-linecap="round" stroke-linejoin="round"/>
<path d="M141.09 297.379H147.12" stroke="#263238" stroke-width="0.5" stroke-linecap="round" stroke-linejoin="round"/>
<path d="M141.09 309.141H147.12" stroke="#263238" stroke-width="0.5" stroke-linecap="round" stroke-linejoin="round"/>
<path d="M141.09 320.891H147.12" stroke="#263238" stroke-width="0.5" stroke-linecap="round" stroke-linejoin="round"/>
<path d="M141.09 332.641H147.12" stroke="#263238" stroke-width="0.5" stroke-linecap="round" stroke-linejoin="round"/>
<path d="M141.09 344.391H147.12" stroke="#263238" stroke-width="0.5" stroke-linecap="round" stroke-linejoin="round"/>
<path d="M44.1602 302.32L59.9501 311.86L76.3602 294.28L92.5702 295.65L108.29 289.41L126.06 266.02" stroke="#263238" stroke-linecap="round" stroke-linejoin="round"/>
<path d="M46.1504 302.32C46.1504 301.925 46.0331 301.538 45.8133 301.209C45.5936 300.88 45.2812 300.624 44.9158 300.473C44.5503 300.321 44.1482 300.282 43.7602 300.359C43.3722 300.436 43.0159 300.626 42.7362 300.906C42.4565 301.186 42.266 301.542 42.1888 301.93C42.1117 302.318 42.1513 302.72 42.3026 303.086C42.454 303.451 42.7103 303.763 43.0392 303.983C43.3681 304.203 43.7548 304.32 44.1504 304.32C44.6808 304.32 45.1895 304.11 45.5646 303.735C45.9397 303.359 46.1504 302.851 46.1504 302.32Z" fill="#263238"/>
<path d="M61.9395 311.859C61.9395 311.464 61.8222 311.077 61.6024 310.748C61.3826 310.419 61.0703 310.163 60.7048 310.012C60.3394 309.86 59.9372 309.821 59.5493 309.898C59.1613 309.975 58.8049 310.165 58.5252 310.445C58.2455 310.725 58.0551 311.081 57.9779 311.469C57.9007 311.857 57.9403 312.259 58.0917 312.625C58.2431 312.99 58.4994 313.303 58.8283 313.522C59.1572 313.742 59.5439 313.859 59.9395 313.859C60.4699 313.859 60.9786 313.649 61.3537 313.274C61.7287 312.898 61.9395 312.39 61.9395 311.859Z" fill="#263238"/>
<path d="M78.3496 294.281C78.3496 293.886 78.2323 293.499 78.0126 293.17C77.7928 292.841 77.4804 292.585 77.115 292.434C76.7495 292.282 76.3474 292.243 75.9594 292.32C75.5715 292.397 75.2151 292.587 74.9354 292.867C74.6557 293.147 74.4652 293.503 74.388 293.891C74.3109 294.279 74.3505 294.681 74.5019 295.047C74.6532 295.412 74.9096 295.724 75.2385 295.944C75.5674 296.164 75.954 296.281 76.3496 296.281C76.88 296.281 77.3888 296.071 77.7638 295.695C78.1389 295.32 78.3496 294.812 78.3496 294.281Z" fill="#263238"/>
<path d="M94.5586 295.648C94.5586 295.253 94.4413 294.866 94.2215 294.537C94.0018 294.208 93.6894 293.952 93.324 293.801C92.9585 293.649 92.5564 293.61 92.1684 293.687C91.7805 293.764 91.4241 293.955 91.1444 294.234C90.8647 294.514 90.6742 294.87 90.597 295.258C90.5199 295.646 90.5595 296.048 90.7108 296.414C90.8622 296.779 91.1186 297.092 91.4475 297.311C91.7764 297.531 92.163 297.648 92.5586 297.648C93.089 297.648 93.5977 297.438 93.9728 297.063C94.3479 296.688 94.5586 296.179 94.5586 295.648Z" fill="#263238"/>
<path d="M110.279 289.102C110.279 288.706 110.162 288.319 109.942 287.99C109.722 287.662 109.41 287.405 109.045 287.254C108.679 287.102 108.277 287.063 107.889 287.14C107.501 287.217 107.145 287.408 106.865 287.687C106.585 287.967 106.395 288.323 106.318 288.711C106.241 289.099 106.28 289.501 106.432 289.867C106.583 290.232 106.839 290.545 107.168 290.765C107.497 290.984 107.884 291.102 108.279 291.102C108.81 291.102 109.318 290.891 109.694 290.516C110.069 290.141 110.279 289.632 110.279 289.102Z" fill="#263238"/>
<path d="M128.059 266C128.059 265.604 127.941 265.218 127.722 264.889C127.502 264.56 127.189 264.304 126.824 264.152C126.459 264.001 126.056 263.961 125.668 264.038C125.28 264.116 124.924 264.306 124.644 264.586C124.365 264.865 124.174 265.222 124.097 265.61C124.02 265.998 124.059 266.4 124.211 266.765C124.362 267.131 124.619 267.443 124.947 267.663C125.276 267.883 125.663 268 126.059 268C126.589 268 127.098 267.789 127.473 267.414C127.848 267.039 128.059 266.53 128.059 266Z" fill="#263238"/>
<path d="M42 374.51V362H44.25V374.48L42 374.51Z" fill="#263238"/>
<path d="M46.1699 374.51L46.3899 362H48.7399L50.5199 370.64L52.3699 362H54.6499L54.8799 374.48H53.1799L52.9999 365.83L51.2299 374.51H49.8499L48.0499 365.8L47.8799 374.51H46.1699Z" fill="#263238"/>
<path d="M56.6289 374.509V361.999H60.2989C60.9342 361.974 61.565 362.115 62.1289 362.409C62.5835 362.694 62.9341 363.119 63.1289 363.619C63.3637 364.231 63.4759 364.883 63.4589 365.539C63.4909 366.229 63.35 366.917 63.0489 367.539C62.79 368.019 62.3783 368.399 61.8789 368.619C61.3239 368.859 60.7233 368.975 60.1189 368.959H58.9089V374.509H56.6289ZM58.9089 367.359H59.7789C60.1219 367.382 60.4653 367.32 60.7789 367.179C60.8942 367.123 60.9965 367.043 61.0792 366.945C61.1619 366.847 61.2231 366.732 61.2589 366.609C61.3581 366.268 61.402 365.914 61.3889 365.559C61.3986 365.19 61.365 364.82 61.2889 364.459C61.2652 364.33 61.2147 364.207 61.1407 364.098C61.0666 363.99 60.9706 363.898 60.8589 363.829C60.5468 363.682 60.2036 363.613 59.8589 363.629H58.9889L58.9089 367.359Z" fill="#263238"/>
<path d="M64.6992 374.508V361.998H67.6992C68.4242 361.98 69.1472 362.081 69.8392 362.298C70.3827 362.467 70.8499 362.821 71.1592 363.298C71.5007 363.907 71.6603 364.601 71.6192 365.298C71.6225 365.752 71.5756 366.205 71.4792 366.648C71.3951 367.011 71.2349 367.352 71.0092 367.648C70.7671 367.944 70.4491 368.169 70.0892 368.298L71.8392 374.448H69.5292L67.9992 368.788H66.9992V374.508H64.6992ZM66.9992 367.358H67.6992C68.0624 367.376 68.4249 367.311 68.7592 367.168C69.0176 367.04 69.2177 366.818 69.3192 366.548C69.4476 366.2 69.5054 365.829 69.4892 365.458C69.5234 364.964 69.4047 364.472 69.1492 364.048C68.9806 363.873 68.7736 363.739 68.5446 363.658C68.3155 363.576 68.0706 363.549 67.8292 363.578H66.9992V367.358Z" fill="#263238"/>
<path d="M76.669 374.681C75.9336 374.719 75.2024 374.549 74.559 374.191C74.0309 373.861 73.632 373.36 73.429 372.771C73.1919 372.065 73.0769 371.325 73.089 370.581V365.911C73.0752 365.176 73.1902 364.445 73.429 363.751C73.6364 363.175 74.0353 362.688 74.559 362.371C75.221 362.055 75.9454 361.891 76.679 361.891C77.4126 361.891 78.137 362.055 78.799 362.371C79.3206 362.69 79.7188 363.176 79.929 363.751C80.1771 364.443 80.2957 365.175 80.279 365.911V370.601C80.2933 371.336 80.1747 372.068 79.929 372.761C79.7198 373.346 79.3224 373.845 78.799 374.181C78.1509 374.546 77.4121 374.72 76.669 374.681ZM76.669 373.001C76.9706 373.027 77.271 372.938 77.509 372.751C77.6979 372.572 77.8242 372.337 77.869 372.081C77.931 371.771 77.9612 371.456 77.959 371.141V365.391C77.9622 365.075 77.932 364.76 77.869 364.451C77.8235 364.198 77.6972 363.966 77.509 363.791C77.2604 363.635 76.9727 363.552 76.679 363.552C76.3854 363.552 76.0977 363.635 75.849 363.791C75.6577 363.965 75.5279 364.197 75.479 364.451C75.416 364.76 75.3858 365.075 75.389 365.391V371.141C75.3868 371.456 75.417 371.771 75.479 372.081C75.5155 372.34 75.6432 372.577 75.839 372.751C76.0739 372.936 76.3706 373.026 76.669 373.001Z" fill="#263238"/>
<path d="M83.8091 374.51L81.2891 362H83.2891L84.9391 370.83L86.4991 362H88.5691L86.0591 374.48L83.8091 374.51Z" fill="#263238"/>
<path d="M89.8496 374.51V362H95.0896V363.6H92.0896V367.19H94.4096V368.78H92.0896V372.91H95.0896V374.48L89.8496 374.51Z" fill="#263238"/>
<path d="M96.4102 374.511L96.6301 362.031H99.0002L100.77 370.671L102.62 362.031H104.9L105.13 374.511H103.43L103.25 365.831L101.48 374.511H100.1L98.2902 365.801L98.1202 374.511H96.4102Z" fill="#263238"/>
<path d="M106.879 374.51V362H112.119V363.6H109.119V367.19H111.439V368.78H109.119V372.91H112.119V374.48L106.879 374.51Z" fill="#263238"/>
<path d="M113.469 374.51V362H115.059L118.059 369.12V362H119.999V374.48H118.489L115.429 367.02V374.48L113.469 374.51Z" fill="#263238"/>
<path d="M123.119 374.51V363.71H121.119V362H127.349V363.68H125.349V374.48L123.119 374.51Z" fill="#263238"/>
<path d="M402.321 438.302H313.281L326.631 389.152H388.961L402.321 438.302Z" fill="#263238" stroke="#263238" stroke-linecap="round" stroke-linejoin="round"/>
<path d="M425.471 438.301H290.131V443.291H425.471V438.301Z" fill="#263238" stroke="#263238" stroke-linecap="round" stroke-linejoin="round"/>
<path d="M550.27 149.941H165.32V394.311H550.27V149.941Z" fill="#263238" stroke="#263238" stroke-linecap="round" stroke-linejoin="round"/>
<path d="M537.94 159.262H177.66V385.002H537.94V159.262Z" fill="#B2B2B2" stroke="#263238" stroke-linecap="round" stroke-linejoin="round"/>
<path d="M286.51 216.219L263.17 220.119L270.53 327.769L304.36 330.499C304.36 330.499 311.71 289.109 312.13 282.389C312.55 275.669 300.13 225.249 300.13 225.249L286.51 216.219Z" fill="#D27D2D" stroke="#263238" stroke-linecap="round" stroke-linejoin="round"/>
<path d="M321.001 385C321.768 382.349 322.149 379.601 322.131 376.84C321.861 372.84 320.801 366.73 320.801 366.73L311.221 367.53L314.931 385H321.001Z" fill="white" stroke="#263238" stroke-linecap="round" stroke-linejoin="round"/>
<path d="M218.28 385H315.16C314.9 382.87 314.16 377.5 313.39 372.11C312.34 365.18 305.2 316.64 305.2 316.64L234 309.91C234 309.91 217.4 342.06 215.09 351.51C212.78 360.96 218 383.23 218 383.23L218.28 385Z" fill="#263238" stroke="#263238" stroke-linecap="round" stroke-linejoin="round"/>
<path d="M312.131 143.098C312.131 143.098 317.591 141.838 319.901 150.448C322.211 159.058 319.481 163.448 320.531 167.678C321.581 171.908 323.841 181.748 321.101 191.618C318.361 201.488 308.561 208.618 308.101 212.218L307.681 215.788C307.681 215.788 306.211 217.258 301.591 216.838C296.971 216.418 291.291 213.058 291.291 213.058L291.921 205.918C291.921 205.918 299.921 205.918 301.801 204.448C303.681 202.978 311.881 188.448 312.511 184.278C313.141 180.108 313.561 168.098 312.931 164.528C312.301 160.958 307.931 153.598 306.211 152.968C304.491 152.338 296.751 146.878 296.751 146.878C296.751 146.878 307.511 140.368 312.131 143.098Z" fill="#263238" stroke="#263238" stroke-linecap="round" stroke-linejoin="round"/>
<path d="M317.38 233.438C317.38 233.438 324.11 236.587 324.32 241.837C324.53 247.087 320.74 270.406 320.74 272.096C320.74 273.786 318.85 308.645 318.85 308.645L322.92 369.377L313.35 369.916C313.35 369.916 305 324.995 305.83 319.575C306.66 314.155 311.71 287.216 312.13 282.386C312.55 277.556 311.5 256.968 312.97 250.878C314.44 244.788 317.38 233.438 317.38 233.438Z" fill="white" stroke="#263238" stroke-linecap="round" stroke-linejoin="round"/>
<path d="M303.001 147.678C303.001 147.678 313.381 151.918 315.061 159.278C316.741 166.638 314.221 175.868 315.061 181.758C315.901 187.648 307.501 202.348 304.561 205.918C301.621 209.488 294.471 208.228 294.471 208.228L295.551 219.998C295.551 219.998 299.951 234.698 299.311 238.478C298.671 242.258 291.741 247.808 282.931 247.298C272.001 246.668 268.631 236.498 268.631 236.498L270.101 213.178C270.468 208.373 270.331 203.544 269.691 198.768C268.641 190.158 270.951 177.128 271.791 175.028C272.631 172.928 280.411 164.318 285.241 160.958C290.071 157.598 299.521 147.958 299.521 147.958C299.521 147.958 302.301 146.788 303.001 147.678Z" fill="white" stroke="#263238" stroke-linecap="round" stroke-linejoin="round"/>
<path d="M269.68 217.59C269.68 217.59 237.34 220.59 232.68 223.77C228.02 226.95 234.78 294.36 234.78 294.36C234.78 294.36 208.78 351.51 209.57 351.93C210.36 352.35 222.8 362.64 236.04 364.93C249.28 367.22 268.6 368.93 268.6 368.93C268.6 368.93 275.53 312.2 276.37 307.79C277.21 303.38 274.48 259.68 274.9 253.59C275.32 247.5 269.68 217.59 269.68 217.59Z" fill="white" stroke="#263238" stroke-linecap="round" stroke-linejoin="round"/>
<path d="M270.609 285.938C271.563 288.181 272.659 290.363 273.889 292.467" stroke="#263238" stroke-linecap="round" stroke-linejoin="round"/>
<path d="M262.32 231.59C263.71 244.18 265.85 263.74 266.54 271.04C267.025 275.488 268.118 279.849 269.79 284" stroke="#263238" stroke-linecap="round" stroke-linejoin="round"/>
<path d="M261.07 220.328C261.07 220.328 261.4 223.328 261.9 227.838" stroke="#263238" stroke-linecap="round" stroke-linejoin="round"/>
<path d="M303.001 147.679C300.911 151.249 298.571 154.668 296.001 157.909C292.341 162.299 278.461 171.309 278.461 171.309C278.461 171.309 278.701 176.189 277.721 177.649C276.741 179.109 273.581 178.139 273.581 178.139C273.581 178.139 271.391 190.069 272.121 198.849C272.851 207.629 277.241 210.049 276.021 212.249C274.801 214.449 267.111 220.249 256.641 216.139C246.171 212.029 240.801 207.849 238.121 201.269C235.441 194.689 244.831 159.619 251.651 148.409C258.471 137.199 274.801 129.889 284.791 131.109C294.781 132.329 312.571 137.689 314.031 141.829C315.491 145.969 303.001 147.679 303.001 147.679Z" fill="#263238" stroke="#263238" stroke-linecap="round" stroke-linejoin="round"/>
<path d="M271.791 175C271.791 175 262.391 185.46 260.461 196.75C258.531 208.04 264.331 212.88 266.591 213.85" stroke="#5C5C5C" stroke-linecap="round" stroke-linejoin="round"/>
<path d="M244.051 195.211C243.797 197.366 244.002 199.55 244.651 201.621" stroke="#5C5C5C" stroke-linecap="round" stroke-linejoin="round"/>
<path d="M288.001 154.277C285.637 156.38 283.112 158.296 280.451 160.007C267.681 168.347 250.621 178.377 245.451 190.087" stroke="#5C5C5C" stroke-linecap="round" stroke-linejoin="round"/>
<path d="M295 141.938C295 141.938 296.08 145.317 291.24 151.007" stroke="#5C5C5C" stroke-linecap="round" stroke-linejoin="round"/>
<path d="M295.55 220C295.55 220 313.39 230.71 317.38 233.44C321.37 236.17 314.65 261.8 315.28 266.84C315.91 271.88 317.8 283.84 315.91 288.9C314.02 293.96 312.97 297.1 312.97 297.1L309.4 320.21C309.4 320.21 315.28 364.54 315.07 365.21C314.86 365.88 294.27 368.57 294.27 368.57C294.27 368.57 298.05 323.57 300.16 314.15C302.27 304.73 309.16 290.83 307.51 275.29C305.86 259.75 295.55 220 295.55 220Z" fill="white" stroke="#263238" stroke-linecap="round" stroke-linejoin="round"/>
<path d="M311.741 275.27C311.478 280.33 310.257 285.295 308.141 289.9" stroke="#263238" stroke-linecap="round" stroke-linejoin="round"/>
<path d="M306 228.598C306 228.598 311.56 258.658 311.84 270.518" stroke="#263238" stroke-linecap="round" stroke-linejoin="round"/>
<path d="M314 261.801C314 261.801 312.72 251.311 311 245.801" stroke="#263238" stroke-linecap="round" stroke-linejoin="round"/>
<path d="M298 176.688C298 178.347 297.2 179.688 296.2 179.688C295.2 179.688 294.4 178.337 294.4 176.688C294.4 175.038 295.2 173.688 296.2 173.688C297.2 173.688 298 174.997 298 176.688Z" fill="#263238"/>
<path d="M313.29 176.688C313.29 178.347 312.49 179.688 311.49 179.688C310.49 179.688 309.68 178.337 309.68 176.688C309.68 175.038 310.49 173.688 311.49 173.688C312.49 173.688 313.29 174.997 313.29 176.688Z" fill="#263238"/>
<path d="M290.74 170.999C292.23 170.016 293.918 169.373 295.684 169.114C297.45 168.855 299.251 168.986 300.96 169.499" stroke="#263238" stroke-linecap="round" stroke-linejoin="round"/>
<path d="M313.59 170.999C313.078 170.41 312.37 170.026 311.597 169.915C310.824 169.805 310.037 169.977 309.38 170.399C309.38 170.399 306.68 174.009 307.28 176.399" stroke="#263238" stroke-linecap="round" stroke-linejoin="round"/>
<path d="M307.579 190.828L301.859 191.728" stroke="#263238" stroke-linecap="round" stroke-linejoin="round"/>
<path d="M304.001 195.64C304.001 195.64 295.581 198.04 290.471 191.73" stroke="#263238" stroke-linecap="round" stroke-linejoin="round"/>
<path d="M294.481 208.229L286.221 205.559L293.441 214.289L294.481 208.229Z" fill="#263238" stroke="#263238" stroke-linecap="round" stroke-linejoin="round"/>
<path d="M443.86 219.758C441.888 222.802 440.447 226.16 439.6 229.688C438.42 235.118 437.24 241.268 437.24 241.268C437.24 241.268 443.15 236.538 443.86 236.268C444.57 235.998 443.39 230.128 443.39 230.128L447.39 226.818L443.86 219.758Z" fill="#263238" stroke="#263238" stroke-linecap="round" stroke-linejoin="round"/>
<path d="M446.221 140.107C446.221 140.107 440.311 142.237 437.951 146.487C435.591 150.737 429.441 160.667 430.391 163.977C431.341 167.287 431.801 168.707 431.801 168.707C431.801 168.707 423.301 183.597 424.241 185.017C425.391 186.45 426.656 187.787 428.021 189.017C428.021 189.017 431.801 206.737 433.461 207.917C435.121 209.097 439.841 209.807 439.841 209.807L446.691 218.317L484.271 202.997L484.751 194.727C484.751 194.727 497.511 178.177 499.161 168.727C500.811 159.277 488.761 142.967 475.761 136.587C462.761 130.207 449.061 133.727 446.221 140.107Z" fill="white" stroke="#263238" stroke-linecap="round" stroke-linejoin="round"/>
<path d="M434 173.801C435.622 175.141 437.622 175.941 439.72 176.091" stroke="#263238" stroke-linecap="round" stroke-linejoin="round"/>
<path d="M475.761 136.569C462.761 130.189 449.061 133.729 446.221 140.109C446.221 140.109 447.401 141.059 451.221 140.819C455.041 140.579 463.991 136.819 466.351 140.109C468.711 143.399 459.261 146.259 455.721 151.219C452.181 156.179 453.121 156.419 455.951 160.219C458.781 164.019 459.261 165.659 458.791 167.309C458.321 168.959 457.611 170.379 460.681 170.859C463.751 171.339 464.681 163.769 469.421 166.129C474.161 168.489 474.861 175.579 473.201 180.309C472.795 181.631 472.126 182.858 471.234 183.914C470.342 184.971 469.246 185.837 468.011 186.459C468.011 186.459 468.711 189.529 473.911 192.129C477.32 193.736 481.024 194.621 484.791 194.729C484.791 194.729 497.551 178.179 499.201 168.729C500.851 159.279 488.761 142.999 475.761 136.569Z" fill="#263238" stroke="#263238" stroke-linecap="round" stroke-linejoin="round"/>
<path d="M484.75 178.91C485.524 180.88 485.825 183.003 485.63 185.11" stroke="#5C5C5C" stroke-linecap="round" stroke-linejoin="round"/>
<path d="M457.871 154.348C457.871 154.348 459.541 157.688 468.871 161.698C474.131 163.958 479.081 168.758 482.231 173.828" stroke="#5C5C5C" stroke-linecap="round" stroke-linejoin="round"/>
<path d="M483.621 164.379C483.621 164.379 491.981 169.379 490.621 179.089" stroke="#5C5C5C" stroke-linecap="round" stroke-linejoin="round"/>
<path d="M438 169.301C438 170.931 437.31 172.301 436.46 172.301C435.61 172.301 434.93 170.971 434.93 169.301C434.93 167.631 435.61 166.301 436.46 166.301C437.31 166.301 438 167.671 438 169.301Z" fill="#263238"/>
<path d="M433 162.797C433 162.797 437.25 157.797 441 163.037" stroke="#263238" stroke-linecap="round" stroke-linejoin="round"/>
<path d="M431.33 189.738C431.33 189.738 437 189.268 440.55 185.738" stroke="#263238" stroke-linecap="round" stroke-linejoin="round"/>
<path d="M468.001 186.438L465.401 187.135C464.243 190.605 462.299 193.761 459.721 196.355" fill="white"/>
<path d="M468.001 186.438L465.401 187.135C464.243 190.605 462.299 193.761 459.721 196.355" stroke="#263238" stroke-linecap="round" stroke-linejoin="round"/>
<path d="M485.001 199.43C485.001 199.43 448.131 214.8 446.481 216.69C444.831 218.58 443.881 219.76 443.881 219.76L446.711 234.89L489.711 206.52L485.001 199.43Z" fill="white" stroke="#263238" stroke-linecap="round" stroke-linejoin="round"/>
<path d="M377.771 303.579L379.821 318.629L370.241 320.909C367.604 322.687 364.851 324.288 362.001 325.699C358.131 327.519 355.391 328.199 354.001 328.199C352.611 328.199 347.621 326.149 347.621 326.149C347.621 326.149 351.041 307.679 354.921 305.629C358.801 303.579 369.101 300.609 377.771 303.579Z" fill="white" stroke="#263238" stroke-linecap="round" stroke-linejoin="round"/>
<path d="M329.541 309.889C329.541 309.889 347.541 307.219 349.541 306.939C351.541 306.659 356.781 311.029 356.781 311.029C356.781 311.029 366.951 323.629 366.371 324.549C364.911 326.859 363.321 325.549 363.321 325.549L363.201 327.049C363.201 327.049 362.091 328.909 355.131 328.929C348.171 328.949 345.681 327.239 343.971 327.099C342.261 326.959 328.781 323.519 328.781 323.519L329.541 309.889Z" fill="white" stroke="#263238" stroke-linecap="round" stroke-linejoin="round"/>
<path d="M323.501 308.551L330.111 309.741L329.381 324.641L323.371 324.251L323.501 308.551Z" fill="white" stroke="#263238" stroke-linecap="round" stroke-linejoin="round"/>
<path d="M250.211 222.83C250.211 222.83 231.411 221.52 227.471 224.58C223.531 227.64 225.471 268.089 228.791 282.739C232.111 297.389 236.661 320.79 238.791 321.88C240.921 322.97 324.371 326.35 324.371 326.35L325.251 308.2L260.881 294.329L256.291 237.05" fill="white"/>
<path d="M250.211 222.83C250.211 222.83 231.411 221.52 227.471 224.58C223.531 227.64 225.471 268.089 228.791 282.739C232.111 297.389 236.661 320.79 238.791 321.88C240.921 322.97 324.371 326.35 324.371 326.35L325.251 308.2L260.881 294.329L256.291 237.05" stroke="#263238" stroke-linecap="round" stroke-linejoin="round"/>
<path d="M363.371 325.549L360.471 321.469" stroke="#263238" stroke-linecap="round" stroke-linejoin="round"/>
<path d="M361.369 327.908L357.859 323.438" stroke="#263238" stroke-linecap="round" stroke-linejoin="round"/>
<path d="M373.001 305C373.001 305 355.901 299.75 352.481 303.4C349.061 307.05 341.761 316.63 343.361 317.77C344.961 318.91 350.651 314.57 352.021 313.66C353.027 312.931 353.947 312.089 354.761 311.15C356.349 312.721 358.324 313.843 360.486 314.405C362.647 314.967 364.919 314.948 367.071 314.35" fill="white"/>
<path d="M373.001 305C373.001 305 355.901 299.75 352.481 303.4C349.061 307.05 341.761 316.63 343.361 317.77C344.961 318.91 350.651 314.57 352.021 313.66C353.027 312.931 353.947 312.089 354.761 311.15C356.349 312.721 358.324 313.843 360.486 314.405C362.647 314.967 364.919 314.948 367.071 314.35" stroke="#263238" stroke-linecap="round" stroke-linejoin="round"/>
<path d="M354.171 323.001C354.171 323.001 352.551 328.871 353.171 329.861C353.42 330.279 353.8 330.603 354.252 330.783C354.703 330.964 355.202 330.991 355.671 330.861C356.226 330.625 356.732 330.286 357.161 329.861C357.161 329.861 357.411 324.861 356.661 323.631C355.911 322.401 355.291 321.541 354.171 323.001Z" fill="white" stroke="#263238" stroke-linecap="round" stroke-linejoin="round"/>
<path d="M349.8 323.78C349.8 323.78 348.18 329.64 348.8 330.64C349.046 331.058 349.424 331.382 349.875 331.563C350.325 331.744 350.822 331.771 351.29 331.64C351.849 331.406 352.358 331.066 352.79 330.64C352.79 330.64 353.04 325.64 352.29 324.41C351.54 323.18 350.93 322.29 349.8 323.78Z" fill="white" stroke="#263238" stroke-linecap="round" stroke-linejoin="round"/>
<path d="M345.41 323.997C345.41 323.997 344.17 328.497 344.65 329.257C344.839 329.578 345.128 329.828 345.474 329.967C345.819 330.106 346.201 330.127 346.56 330.027C346.99 329.849 347.381 329.587 347.71 329.257C347.71 329.257 347.899 325.437 347.329 324.477C346.759 323.517 346.27 322.847 345.41 323.997Z" fill="white" stroke="#263238" stroke-linecap="round" stroke-linejoin="round"/>
<path d="M340.241 324.18C340.241 324.18 339.241 327.18 339.641 327.67C339.816 327.89 340.051 328.054 340.317 328.143C340.583 328.231 340.87 328.241 341.141 328.17C341.471 328.058 341.779 327.888 342.051 327.67C342.051 327.67 342.201 325.13 341.751 324.5C341.301 323.87 340.921 323.42 340.241 324.18Z" fill="white" stroke="#263238" stroke-linecap="round" stroke-linejoin="round"/>
<path d="M376.4 301.979L378.68 323.189L386.2 321.819L383.47 300.609L376.4 301.979Z" fill="white" stroke="#263238" stroke-linecap="round" stroke-linejoin="round"/>
<path d="M381.189 299.248L385.749 326.148L416.979 322.048L420.399 291.488L381.189 299.248Z" fill="#D27D2D" stroke="#263238" stroke-linecap="round" stroke-linejoin="round"/>
<path d="M405.711 323.528L416.981 322.048L420.401 291.488L412.171 293.118L405.711 323.528Z" fill="#263238" stroke="#263238" stroke-linecap="round" stroke-linejoin="round"/>
<path d="M500.001 384.999L497.451 335.999C497.451 335.999 508.171 288.999 505.891 262.999C503.611 236.999 486.051 209.879 486.051 209.879C486.051 209.879 444.781 235.639 440.451 240.199C436.121 244.759 428.381 252.499 426.101 259.799C423.821 267.099 414.931 311.999 414.931 311.999C414.931 311.999 405.581 343.469 402.621 362.399C400.821 373.909 401.041 381.099 401.491 384.979L500.001 384.999Z" fill="#D27D2D" stroke="#263238" stroke-linecap="round" stroke-linejoin="round"/>
<path d="M484.5 218.449C487.328 217.302 490.092 216.003 492.78 214.559" stroke="#263238" stroke-linecap="round" stroke-linejoin="round"/>
<path d="M428.381 270.21C431.941 263.77 436.381 256.12 438.381 253.79C442.161 249.54 470.521 224.49 480.921 220" stroke="#263238" stroke-linecap="round" stroke-linejoin="round"/>
<path d="M423.061 279.998C423.061 279.998 424.751 276.798 427.061 272.598" stroke="#263238" stroke-linecap="round" stroke-linejoin="round"/>
<path d="M449.281 282.461C449.281 297.121 447.281 311.631 448.281 326.141C443.101 344.801 433.771 361.381 427.061 378.891" stroke="#263238" stroke-linecap="round" stroke-linejoin="round"/>
<path d="M453.08 252.379C453.08 252.379 448.82 258.759 449.29 270.569C449.35 272.019 449.37 273.999 449.36 276.349" stroke="#263238" stroke-linecap="round" stroke-linejoin="round"/>
<path d="M494.201 259C494.201 259 484.751 331.8 483.801 337.71C483.121 341.94 468.631 365.08 460.451 377.87" stroke="#263238" stroke-linecap="round" stroke-linejoin="round"/>
<path d="M431.74 364.34L412.41 360.98L413.67 355.09L432.58 358.46" stroke="#263238" stroke-linecap="round" stroke-linejoin="round"/>
</g>
</g>
</g>
<defs>
<clipPath id="clip0_2422_1728">
<rect width="700" height="500" fill="white"/>
</clipPath>
</defs>
</svg>
