<svg width="633" height="623" viewBox="0 0 633 623" fill="none" xmlns="http://www.w3.org/2000/svg">
<g clip-path="url(#clip0_991_4494)" filter="url(#filter0_d_991_4494)">
<path d="M458.81 114.114C458.734 137.957 457.12 161.769 453.98 185.404C453.87 186.234 453.75 187.064 453.639 187.894H230.36C229.699 187.074 229.049 186.244 228.42 185.404C226.319 182.624 224.35 179.764 222.54 176.804C213.84 162.544 209.799 145.814 213.69 134.234L213.759 134.054C214.599 131.519 215.931 129.174 217.679 127.154C226.639 116.954 244.88 118.544 261.469 126.644C246.54 110.484 234.609 90.0542 233.609 71.7642C232.629 53.9242 241.889 41.1242 251.949 30.2342C252.279 29.8742 252.609 29.5242 252.94 29.1742C253.1 28.9942 253.27 28.8242 253.429 28.6442C261.279 20.3442 270.44 12.1542 283.77 13.0642C298.389 14.0642 314.66 26.2142 326.1 40.4142C337.54 54.6042 345.179 70.7542 352.92 86.5142C360.67 102.264 369.049 118.414 381.42 131.844C364.65 110.874 351.089 86.9842 346 63.7042C340.91 40.4242 345.15 18.0142 359.929 6.95424C364.417 3.69926 369.619 1.56644 375.1 0.734238C375.739 0.624238 376.389 0.534239 377.049 0.454239C390.779 -1.18571 407.21 3.47424 421.23 14.7542C436.67 27.1742 447.429 45.6542 452.83 63.2242C458.23 80.7942 458.889 97.7342 458.81 114.114Z" fill="#F2F2F2"/>
<path d="M313.139 187.893H308.87C307.51 187.053 306.143 186.223 304.77 185.403C303.92 184.873 303.06 184.363 302.199 183.843C287.99 175.273 273.693 167.056 259.31 159.193C244.94 151.323 230.5 143.819 215.99 136.683C215.605 136.518 215.29 136.224 215.1 135.851C214.91 135.478 214.857 135.051 214.95 134.643C214.965 134.589 214.988 134.539 215.02 134.493C215.22 134.113 215.67 133.953 216.33 134.273C218.11 135.153 219.9 136.033 221.679 136.933C236.23 144.193 250.72 151.819 265.15 159.813C279.57 167.803 293.91 176.149 308.17 184.853C308.47 185.033 308.77 185.223 309.07 185.403C310.429 186.233 311.78 187.063 313.139 187.893Z" fill="white"/>
<path d="M368.19 187.894H365.55C364.949 187.064 364.36 186.234 363.76 185.404C349.66 165.864 335.563 146.324 321.469 126.784C298.389 94.7936 275.316 62.8036 252.25 30.8136C252.113 30.6415 252.011 30.4445 251.949 30.2336C251.75 29.5236 252.27 29.1036 252.94 29.1736C253.222 29.2123 253.493 29.3109 253.735 29.4626C253.976 29.6144 254.182 29.8158 254.34 30.0536C267.28 47.9936 280.216 65.9269 293.15 83.8536C316.11 115.684 339.066 147.51 362.02 179.334C363.48 181.354 364.94 183.384 366.4 185.404C367 186.234 367.6 187.064 368.19 187.894Z" fill="white"/>
<path d="M426.92 172.234C426.81 176.684 426.54 181.064 426.18 185.404C426.11 186.234 426.04 187.064 425.97 187.894H423.2C423.28 187.064 423.36 186.234 423.43 185.404C423.98 179.134 424.36 172.794 424.38 166.284C424.353 148.235 422.493 130.236 418.83 112.564C414.935 93.5347 409.391 74.881 402.26 56.8137C394.775 37.7582 385.776 19.3326 375.35 1.7137C375.154 1.42668 375.065 1.07962 375.1 0.733705C375.21 -0.0562953 376.26 -0.296294 377.05 0.453706C377.206 0.600851 377.34 0.769158 377.45 0.953706C378.74 3.14371 380.007 5.34037 381.25 7.5437C391.296 25.2629 399.913 43.7548 407.02 62.8437C413.789 80.9723 418.965 99.6563 422.49 118.684C425.79 136.336 427.275 154.279 426.92 172.234Z" fill="white"/>
<path d="M619.72 185.404H12.7197C10.4077 185.406 8.191 186.326 6.55618 187.961C4.92137 189.596 4.00203 191.812 4 194.124V605.444C4.00203 607.756 4.92137 609.973 6.55618 611.608C8.191 613.243 10.4077 614.162 12.7197 614.164H619.72C620.98 614.164 622.226 613.891 623.371 613.362C624.516 612.834 625.532 612.064 626.35 611.104C626.419 611.029 626.483 610.949 626.54 610.864C627.061 610.228 627.482 609.516 627.79 608.754C628.229 607.706 628.453 606.581 628.45 605.444V194.124C628.447 191.811 627.526 189.593 625.889 187.958C624.252 186.323 622.033 185.404 619.72 185.404ZM625.96 605.444C625.961 606.661 625.603 607.851 624.93 608.864C624.332 609.757 623.521 610.485 622.57 610.984C621.689 611.439 620.711 611.676 619.72 611.674H12.7197C11.068 611.672 9.48457 611.015 8.31665 609.847C7.14873 608.679 6.49172 607.096 6.48972 605.444V194.124C6.49171 192.473 7.14873 190.889 8.31665 189.721C9.48457 188.553 11.068 187.896 12.7197 187.894H619.72C621.373 187.894 622.959 188.55 624.129 189.718C625.299 190.886 625.957 192.471 625.96 194.124V605.444Z" fill="#3F3D56"/>
<path d="M627.199 220.354H5.24219V222.846H627.199V220.354Z" fill="#3F3D56"/>
<path d="M26.4316 211.578C30.5618 211.578 33.91 208.23 33.91 204.1C33.91 199.969 30.5618 196.621 26.4316 196.621C22.3013 196.621 18.9531 199.969 18.9531 204.1C18.9531 208.23 22.3013 211.578 26.4316 211.578Z" fill="#3F3D56"/>
<path d="M47.9325 211.578C52.0628 211.578 55.411 208.23 55.411 204.1C55.411 199.969 52.0628 196.621 47.9325 196.621C43.8023 196.621 40.4541 199.969 40.4541 204.1C40.4541 208.23 43.8023 211.578 47.9325 211.578Z" fill="#3F3D56"/>
<path d="M69.4325 211.578C73.5628 211.578 76.911 208.23 76.911 204.1C76.911 199.969 73.5628 196.621 69.4325 196.621C65.3023 196.621 61.9541 199.969 61.9541 204.1C61.9541 208.23 65.3023 211.578 69.4325 211.578Z" fill="#3F3D56"/>
<path d="M280.977 432.273C273.498 427.404 269.778 416.089 271.61 405.741C273.443 395.394 280.345 386.481 288.618 382.637C292.643 380.823 297.055 380.037 301.458 380.35C305.862 380.663 310.118 382.065 313.846 384.43C321.433 389.07 332.163 391.611 335.766 400.893C338.535 408.026 335.023 422.51 331.297 429.438C328.076 435.427 321.955 438.166 316.205 439.356C309.844 440.653 303.278 440.569 296.952 439.11C290.625 437.65 284.686 434.849 279.536 430.895L280.977 432.273Z" fill="#2F2E41"/>
<path d="M277.076 487.234L271.096 497.544L270.306 498.904L269.156 500.904H251.526L252.716 498.904L255.796 493.714L262.976 481.594L271.106 484.844L277.076 487.234Z" fill="#FFB8B8"/>
<path d="M250.206 500.903L246.986 498.903L246.586 498.653L266.796 461.823C267.665 460.229 268.842 458.823 270.258 457.687C271.674 456.551 273.301 455.706 275.046 455.203C277.248 454.547 279.581 454.461 281.826 454.953C283.136 455.23 284.396 455.702 285.566 456.353C286.047 456.617 286.512 456.911 286.956 457.233C288.665 458.432 290.069 460.014 291.056 461.853C292.23 464.007 292.811 466.434 292.737 468.885C292.663 471.337 291.938 473.725 290.636 475.803L282.846 488.253L276.186 498.903L274.936 500.903H250.206Z" fill="#2F2E41"/>
<path d="M302.13 445.345C315.695 445.345 326.691 434.348 326.691 420.784C326.691 407.219 315.695 396.223 302.13 396.223C288.566 396.223 277.569 407.219 277.569 420.784C277.569 434.348 288.566 445.345 302.13 445.345Z" fill="#FFB8B8"/>
<path d="M326.786 500.904H271.576L271.826 500.194C271.686 499.764 271.556 499.334 271.436 498.904C271.306 498.454 271.196 497.994 271.096 497.544C270.199 493.358 270.202 489.028 271.106 484.844C274.156 469.864 286.326 457.694 286.326 457.694C286.536 457.534 286.746 457.384 286.956 457.234C288.766 455.908 290.731 454.807 292.806 453.954C301.846 450.204 311.326 451.714 317.696 453.654C319.914 454.325 322.083 455.15 324.186 456.124C324.926 456.474 325.326 456.694 325.326 456.694L325.956 475.904L326.716 498.904L326.786 500.904Z" fill="#FFFB18"/>
<path d="M352.327 498.904L348.106 477.444L343.847 455.804C343.669 454.91 343.225 454.091 342.574 453.454C341.923 452.817 341.094 452.392 340.196 452.234L331.276 450.694L322.977 449.264C322.176 449.12 321.351 449.197 320.591 449.488C319.832 449.779 319.166 450.272 318.667 450.914C318.043 451.692 317.701 452.657 317.696 453.654C317.696 454.27 317.822 454.879 318.066 455.444C322.396 465.544 322.477 481.534 321.376 498.904C321.327 499.564 321.287 500.234 321.236 500.904H352.727L352.327 498.904Z" fill="#2F2E41"/>
<path d="M292.807 453.954C292.623 453.227 292.261 452.556 291.754 452.003C291.247 451.45 290.61 451.031 289.901 450.785C289.192 450.539 288.433 450.473 287.692 450.594C286.951 450.714 286.252 451.017 285.657 451.474L281.827 454.954L266.146 469.234C265.658 469.673 265.275 470.217 265.026 470.824C263.256 475.054 259.807 483.404 255.796 493.714C255.146 495.394 254.477 497.124 253.787 498.904C253.546 499.564 253.287 500.234 253.026 500.904H278.867C279.077 500.234 279.287 499.564 279.497 498.904C280.646 495.274 281.767 491.714 282.847 488.254C286.006 478.204 288.856 469.074 291.057 461.854C291.667 459.854 292.223 458.008 292.727 456.314C292.962 455.549 292.989 454.734 292.807 453.954Z" fill="#2F2E41"/>
<path d="M358.126 500.904H359.796L359.566 500.344L358.956 498.904L349.546 476.574L348.106 477.444L336.546 484.434L342.476 498.904L343.296 500.904H352.726H358.126Z" fill="#FFB8B8"/>
<path d="M348.586 458.863C347.313 455.531 344.8 452.82 341.574 451.297C338.348 449.774 334.658 449.558 331.276 450.693C330.844 450.837 330.42 451.004 330.006 451.193C327.637 452.25 325.618 453.96 324.186 456.123C323.602 456.987 323.122 457.917 322.756 458.893C322.107 460.588 321.8 462.395 321.854 464.209C321.907 466.024 322.319 467.809 323.066 469.463L325.956 475.903L336.296 498.903L337.196 500.903H358.126L359.566 500.343L363.306 498.903L363.826 498.703L348.586 458.863Z" fill="#2F2E41"/>
<path d="M321.421 392.576C322.277 392.832 323.194 392.8 324.029 392.483C324.865 392.165 325.573 391.582 326.043 390.822C326.488 390.047 326.75 389.181 326.809 388.289C326.868 387.398 326.721 386.505 326.381 385.678C325.684 384.029 324.586 382.58 323.186 381.464C321.596 380.025 319.661 379.023 317.568 378.555C316.523 378.331 315.442 378.333 314.397 378.563C313.353 378.792 312.37 379.244 311.516 379.886C310.676 380.55 310.054 381.449 309.729 382.469C309.404 383.488 309.39 384.581 309.69 385.609C310.326 387.453 312.048 388.689 313.768 389.609C317.182 391.431 320.945 392.501 324.807 392.747L321.421 392.576Z" fill="#2F2E41"/>
<path d="M326.198 420.05C322.249 420.595 322.756 418.585 321.175 414.926C319.593 411.267 317.476 406.923 313.508 406.553C310.255 406.249 307.576 408.849 304.941 410.78C300.244 414.221 293.915 415.906 288.471 413.841C283.027 411.777 279.244 405.289 281.31 399.845C281.953 398.342 282.898 396.987 284.086 395.864C285.274 394.741 286.68 393.874 288.217 393.316C291.3 392.22 294.574 391.765 297.839 391.979C305.101 392.212 312.223 394.035 318.703 397.32C323.175 399.593 327.529 402.843 329.225 407.564C330.922 412.285 332.038 418.919 327.187 420.196L326.198 420.05Z" fill="#2F2E41"/>
<path d="M319.402 379.591C317.45 376.194 319.061 371.532 322.255 369.262C325.449 366.992 329.732 366.77 333.543 367.68C337.312 368.629 340.765 370.553 343.556 373.258C346.346 375.963 348.377 379.354 349.444 383.091C351.061 389.033 350.099 395.414 351.469 401.417C352.199 404.617 353.576 407.634 355.516 410.281C357.456 412.929 359.917 415.152 362.749 416.812C365.58 418.473 368.721 419.536 371.979 419.937C375.237 420.338 378.542 420.067 381.691 419.142C385.793 417.938 389.962 415.009 390.365 410.753C390.79 415.641 389.675 420.539 387.178 424.761C384.681 428.984 380.925 432.32 376.438 434.302C371.152 436.507 365.257 436.65 359.532 436.504C355.802 436.408 351.986 436.183 348.545 434.74C346.163 433.654 344.023 432.104 342.248 430.18C340.474 428.256 339.101 425.997 338.211 423.536C336.459 418.589 335.986 413.28 336.836 408.101C337.399 404.073 338.519 400.124 338.833 396.069C339.146 392.013 338.552 387.683 336.052 384.475C333.551 381.266 328.776 379.628 325.221 381.605C323.793 382.4 322.64 383.698 321.088 384.21C319.536 384.723 317.336 383.822 317.477 382.193L319.402 379.591Z" fill="#2F2E41"/>
<path d="M487.006 500.904L487.196 498.904L492.836 440.224C494.685 438.776 496.671 437.513 498.766 436.454C510.376 430.604 521.576 433.404 527.636 435.824C529.242 436.452 530.794 437.212 532.276 438.094L535.576 498.904L535.686 500.904H487.006Z" fill="#FFFB18"/>
<path d="M513.418 424.606C526.983 424.606 537.98 413.61 537.98 400.045C537.98 386.481 526.983 375.484 513.418 375.484C499.854 375.484 488.857 386.481 488.857 400.045C488.857 413.61 499.854 424.606 513.418 424.606Z" fill="#FFB8B8"/>
<path d="M533.347 415.021C535.172 413.097 536.384 410.673 536.828 408.058C537.273 405.444 536.929 402.756 535.842 400.337C534.754 397.917 532.971 395.877 530.72 394.473C528.47 393.07 525.852 392.368 523.201 392.457C519.805 392.571 516.605 393.96 513.363 394.98C508.451 396.652 503.21 397.123 498.078 396.357C492.916 395.555 488.257 392.805 485.062 388.671C482.023 384.495 481.076 378.702 483.222 374.004C485.701 368.581 491.49 365.592 496.936 363.164C499.132 362.065 501.478 361.294 503.898 360.877C505.111 360.675 506.352 360.726 507.544 361.027C508.736 361.327 509.853 361.87 510.825 362.623C512.355 363.939 513.252 365.917 514.918 367.058C516.792 368.342 519.228 368.308 521.488 368.535C526.581 369.045 531.398 371.093 535.298 374.407C539.199 377.721 541.998 382.144 543.323 387.088C544.648 392.032 544.437 397.262 542.717 402.082C540.998 406.903 537.851 411.086 533.696 414.075L533.347 415.021Z" fill="#2F2E41"/>
<path d="M502.426 446.613L498.767 436.453L498.538 435.82C498.43 435.52 498.255 435.248 498.026 435.025C497.797 434.803 497.52 434.635 497.217 434.535C496.914 434.435 496.592 434.406 496.276 434.449C495.96 434.492 495.657 434.606 495.392 434.783L491.236 437.553C491.236 437.553 464.586 437.553 462.446 453.543C462.416 453.793 462.376 454.073 462.347 454.373C462.345 454.387 462.342 454.4 462.336 454.413C462.066 455.463 457.037 474.903 452.716 498.903C452.597 499.563 452.477 500.233 452.356 500.903H510.267C512.151 476.794 511.097 454.378 502.426 446.613Z" fill="#2F2E41"/>
<path d="M571.506 498.904C568.347 474.284 563.827 454.374 563.827 454.374C563.787 454.074 563.746 453.794 563.716 453.544C561.586 437.554 534.936 437.554 534.936 437.554L530.784 434.785C530.518 434.608 530.215 434.494 529.899 434.451C529.582 434.408 529.26 434.438 528.957 434.538C528.654 434.638 528.377 434.806 528.148 435.028C527.919 435.251 527.744 435.523 527.636 435.824L523.746 446.614C515.076 454.379 514.022 476.794 515.906 500.903L571.756 500.904C571.676 500.234 571.586 499.564 571.506 498.904Z" fill="#2F2E41"/>
<path d="M102.426 442.843L96.4858 498.903L96.2758 500.903H80.2061C80.396 500.253 80.5859 499.583 80.7861 498.903C85.3462 483.263 91.5561 460.433 90.8857 454.383C89.8359 444.943 97.186 441.793 97.186 441.793L97.646 441.883L102.426 442.843Z" fill="#FFFB18"/>
<path d="M128.342 425.54C141.907 425.54 152.903 414.544 152.903 400.979C152.903 387.414 141.907 376.418 128.342 376.418C114.778 376.418 103.781 387.414 103.781 400.979C103.781 414.544 114.778 425.54 128.342 425.54Z" fill="#A0616A"/>
<path d="M160.136 489.004C158.897 491.287 157.883 493.685 157.106 496.164C156.816 497.044 156.536 497.964 156.276 498.904C156.086 499.554 155.916 500.224 155.746 500.904H90.9658C91.0562 500.244 91.1357 499.574 91.2261 498.904C94.5361 472.754 97.2158 446.214 97.646 441.884C97.686 441.474 97.7061 441.264 97.7061 441.264C136.526 420.804 164.856 447.564 164.856 447.564C164.856 447.564 164.896 447.754 164.956 448.124C165.576 451.864 168.736 473.704 160.136 489.004Z" fill="#FFFB18"/>
<path d="M157.106 496.165L152.786 486.905L153.836 450.185L164.956 448.125L165.346 448.055C171.094 451.396 175.542 456.584 177.966 462.775C180.126 468.175 184.236 484.415 187.706 498.905C187.866 499.575 188.026 500.245 188.186 500.905H159.316L158.386 498.905L157.106 496.165Z" fill="#FFFB18"/>
<path d="M196.617 335.904H54.5967C51.5504 335.908 48.63 337.12 46.476 339.274C44.3219 341.428 43.1102 344.348 43.1064 347.394V489.414C43.1102 492.461 44.3219 495.381 46.476 497.535C48.63 499.689 51.5504 500.901 54.5967 500.904H196.617C199.663 500.902 202.585 499.691 204.739 497.537C206.893 495.382 208.105 492.461 208.106 489.414V347.394C208.105 344.348 206.893 341.426 204.739 339.272C202.585 337.118 199.663 335.906 196.617 335.904ZM206.106 489.414C206.104 491.931 205.104 494.343 203.325 496.122C201.545 497.902 199.133 498.902 196.617 498.904H54.5967C52.0809 498.901 49.6693 497.899 47.8904 496.121C46.1114 494.342 45.1103 491.93 45.1064 489.414V347.394C45.1103 344.879 46.1114 342.467 47.8904 340.688C49.6693 338.909 52.0809 337.908 54.5967 337.904H196.617C199.133 337.906 201.545 338.907 203.325 340.686C205.104 342.466 206.104 344.878 206.106 347.394V489.414ZM96.4863 498.904L96.2763 500.904H155.747C155.916 500.224 156.086 499.554 156.276 498.904H96.4863Z" fill="#3F3D56"/>
<path d="M387.226 335.904H245.206C242.16 335.908 239.239 337.12 237.085 339.274C234.931 341.428 233.72 344.348 233.716 347.394V489.414C233.72 492.461 234.931 495.381 237.085 497.535C239.239 499.689 242.16 500.901 245.206 500.904H387.226C390.273 500.902 393.194 499.691 395.348 497.537C397.503 495.382 398.714 492.461 398.716 489.414V347.394C398.714 344.348 397.503 341.426 395.348 339.272C393.194 337.118 390.273 335.906 387.226 335.904ZM396.716 489.414C396.714 491.931 395.713 494.343 393.934 496.122C392.155 497.902 389.742 498.902 387.226 498.904H245.206C242.69 498.901 240.279 497.899 238.5 496.121C236.721 494.342 235.72 491.93 235.716 489.414V347.394C235.72 344.879 236.721 342.467 238.5 340.688C240.279 338.909 242.69 337.908 245.206 337.904H387.226C389.742 337.906 392.155 338.907 393.934 340.686C395.713 342.466 396.714 344.878 396.716 347.394V489.414ZM271.436 498.904C271.556 499.334 271.686 499.764 271.826 500.194L271.576 500.904H321.236C321.286 500.234 321.326 499.564 321.376 498.904H271.436Z" fill="#3F3D56"/>
<path d="M577.846 335.904H435.826C432.779 335.906 429.858 337.117 427.703 339.272C425.549 341.426 424.338 344.348 424.336 347.394V489.414C424.338 492.461 425.549 495.382 427.703 497.537C429.858 499.691 432.779 500.902 435.826 500.904H577.846C580.892 500.901 583.813 499.689 585.967 497.535C588.121 495.381 589.332 492.46 589.336 489.414V347.394C589.332 344.348 588.121 341.428 585.967 339.274C583.813 337.12 580.892 335.908 577.846 335.904ZM587.336 489.414C587.332 491.93 586.331 494.342 584.552 496.121C582.773 497.899 580.362 498.9 577.846 498.904H435.826C433.31 498.902 430.897 497.902 429.118 496.122C427.339 494.343 426.338 491.931 426.336 489.414V347.394C426.338 344.878 427.339 342.465 429.118 340.686C430.897 338.907 433.31 337.906 435.826 337.904H577.846C580.362 337.908 582.773 338.909 584.552 340.688C586.331 342.467 587.332 344.879 587.336 347.394V489.414ZM510.416 498.904C510.366 499.564 510.316 500.234 510.266 500.904H553.356C553.436 500.244 553.526 499.574 553.606 498.904H510.416Z" fill="#3F3D56"/>
<path d="M481.221 558.904H151.221C149.099 558.904 147.064 558.061 145.564 556.561C144.064 555.061 143.221 553.026 143.221 550.904C143.221 548.783 144.064 546.748 145.564 545.247C147.064 543.747 149.099 542.904 151.221 542.904H481.221C483.342 542.904 485.377 543.747 486.878 545.247C488.378 546.748 489.221 548.783 489.221 550.904C489.221 553.026 488.378 555.061 486.878 556.561C485.377 558.061 483.342 558.904 481.221 558.904Z" fill="#CCCCCC"/>
<path d="M388.721 293.904H243.721C241.599 293.904 239.564 293.061 238.064 291.561C236.564 290.061 235.721 288.026 235.721 285.904C235.721 283.783 236.564 281.748 238.064 280.247C239.564 278.747 241.599 277.904 243.721 277.904H388.721C390.842 277.904 392.877 278.747 394.378 280.247C395.878 281.748 396.721 283.783 396.721 285.904C396.721 288.026 395.878 290.061 394.378 291.561C392.877 293.061 390.842 293.904 388.721 293.904Z" fill="#FFFB18"/>
<path d="M140.091 422.377C140.923 423.197 142.022 423.69 143.188 423.765C144.354 423.839 145.507 423.491 146.437 422.784C152.225 418.493 157.307 413.152 160.314 406.637C163.761 399.172 164.145 390.012 159.99 382.917C156.478 376.919 150.276 373.049 144.094 369.871C141.694 368.516 139.109 367.52 136.42 366.913C133.703 366.314 130.86 366.772 128.469 368.196C127.299 368.929 126.378 369.998 125.825 371.263C125.272 372.528 125.113 373.93 125.368 375.287C122.399 371.899 118.596 369.346 114.336 367.881C111.654 366.832 108.717 366.619 105.911 367.271C101.989 368.383 99.1249 371.868 97.5586 375.633C96.2919 378.496 95.8545 381.658 96.2961 384.758C96.5285 386.3 97.0822 387.777 97.9211 389.092C98.7601 390.407 99.8658 391.531 101.167 392.392C104.41 394.399 108.547 394.254 112.272 393.434C115.996 392.615 119.602 391.189 123.398 390.828C127.195 390.468 131.423 391.414 133.733 394.448C135.36 396.585 135.778 399.377 136.143 402.038L138.043 415.877C138.199 417.879 138.71 419.837 139.553 421.659C139.699 421.922 139.88 422.163 140.091 422.377Z" fill="#2F2E41"/>
</g>
<defs>
<filter id="filter0_d_991_4494" x="0" y="0" width="632.449" height="622.164" filterUnits="userSpaceOnUse" color-interpolation-filters="sRGB">
<feFlood flood-opacity="0" result="BackgroundImageFix"/>
<feColorMatrix in="SourceAlpha" type="matrix" values="0 0 0 0 0 0 0 0 0 0 0 0 0 0 0 0 0 0 127 0" result="hardAlpha"/>
<feOffset dy="4"/>
<feGaussianBlur stdDeviation="2"/>
<feComposite in2="hardAlpha" operator="out"/>
<feColorMatrix type="matrix" values="0 0 0 0 0 0 0 0 0 0 0 0 0 0 0 0 0 0 0.25 0"/>
<feBlend mode="normal" in2="BackgroundImageFix" result="effect1_dropShadow_991_4494"/>
<feBlend mode="normal" in="SourceGraphic" in2="effect1_dropShadow_991_4494" result="shape"/>
</filter>
<clipPath id="clip0_991_4494">
<rect width="624.45" height="614.164" fill="white" transform="translate(4)"/>
</clipPath>
</defs>
</svg>
