<svg width="500" height="500" viewBox="0 0 500 500" fill="none" xmlns="http://www.w3.org/2000/svg">
<path d="M470.92 280.06C456.2 319.49 426.12 362.17 383.79 374.8C319.79 393.9 312.19 445.46 197.63 440.68C180.902 440.056 164.292 437.618 148.09 433.41C140.168 431.33 132.389 428.742 124.8 425.66C57.87 398.56 23 338.9 20.06 276.47C16.23 194.37 73.52 155.24 110.75 132.32C147.98 109.4 192.85 20.6199 305.51 24.4399C322.713 24.9484 339.799 27.4416 356.43 31.8699C394.34 42.1299 432.87 64.8699 455.26 97.9999C456.94 100.487 458.547 103.033 460.08 105.64C490.05 156.48 491 226.3 470.92 280.06Z" fill="#0CFFBB"/>
<path opacity="0.7" d="M470.92 280.06C456.2 319.49 426.12 362.17 383.79 374.8C319.79 393.9 312.19 445.46 197.63 440.68C180.902 440.056 164.292 437.618 148.09 433.41C140.168 431.33 132.389 428.742 124.8 425.66C57.87 398.56 23 338.9 20.06 276.47C16.23 194.37 73.52 155.24 110.75 132.32C147.98 109.4 192.85 20.6199 305.51 24.4399C322.713 24.9484 339.799 27.4416 356.43 31.8699C394.34 42.1299 432.87 64.8699 455.26 97.9999C456.94 100.487 458.547 103.033 460.08 105.64C490.05 156.48 491 226.3 470.92 280.06Z" fill="white"/>
<path d="M250.5 315.72C238.87 289.32 240.59 246.08 245.98 242.48C251.91 238.53 261.3 258.8 270.7 252.87C280.1 246.94 286.52 234.08 278.61 213.81C270.7 193.54 260.32 206.89 252.9 211.81C245.48 216.73 239.55 212.31 241.04 194.51C242.13 181.38 247.25 157.25 249.87 145.51C251.05 146.02 252.23 146.51 253.39 147.08C230.16 136.2 204.45 132.74 193.58 136.2C182.71 139.66 184.68 140.65 190.11 153.5C201.46 180.31 158.49 189.5 146.11 168.85C138.7 156.49 149.6 149.55 146.63 140.65C143.66 131.75 88.7899 142.13 81.8699 146.09C81.8699 146.09 95.2099 186.09 93.2399 200.47C91.2699 214.85 84.3399 221.24 73.9599 210.85C63.5799 200.46 50.2299 209.85 49.7299 227.17C49.2299 244.49 52.1999 258.31 64.0699 254.36C75.9399 250.41 85.3299 236.07 89.2799 254.36C93.2299 272.65 86.2799 296.36 82.3599 313.19C82.3599 313.19 113.51 326.54 127.84 325.55C142.17 324.56 151.08 324.07 146.63 315.17C142.18 306.27 134.76 300.34 140.2 290.45C145.64 280.56 167.39 281.55 178.76 284.02C190.13 286.49 195.08 294.9 191.62 304.29C188.16 313.68 182.22 323.08 193.1 325.05C203.35 326.92 229.42 322.63 255.1 314.27C253.58 314.76 252 315.24 250.5 315.72Z" stroke="#263238" stroke-miterlimit="10"/>
<path d="M259.82 312.689C258.3 313.209 256.77 313.689 255.25 314.219C256.77 313.719 258.3 313.209 259.82 312.689Z" stroke="#263238" stroke-miterlimit="10"/>
<path d="M440.27 206.39C430.88 206.39 430.38 213.81 420.49 212.33C410.6 210.85 409.62 188.1 420 148.06C420 148.06 408.63 156.46 382.92 156.96C357.21 157.46 346.83 154.48 353.26 145.09C359.69 135.7 364.63 128.28 359.19 120.87C353.75 113.46 327.55 114.44 319.19 120.87C310.83 127.3 316.72 134.71 322.65 143.11C328.58 151.51 321.65 156.46 311.77 156.96C301.89 157.46 276.67 157.96 253.43 147.07C252.27 146.52 251.09 146.01 249.91 145.5C247.29 157.27 242.17 181.4 241.08 194.5C239.59 212.3 245.52 216.75 252.94 211.8C260.36 206.85 270.74 193.51 278.65 213.8C286.56 234.09 280.13 246.92 270.74 252.86C261.35 258.8 251.91 238.53 246 242.48C240.61 246.08 238.89 289.32 250.52 315.72C253.63 314.72 256.74 313.72 259.84 312.72C287.03 303.32 314.22 298.87 319.17 305.3C324.12 311.73 322.17 310.74 315.71 320.63C309.25 330.52 309.77 338.92 320.65 343.86C331.53 348.8 358.22 347.86 360.65 336.45C363.08 325.04 349.28 318.65 355.71 307.77C362.14 296.89 419 312.69 419 312.69C419 312.69 406.15 269.18 411.09 254.84C416.03 240.5 420 244 427.91 249.4C435.82 254.8 446.2 254.35 450.16 238.53C454.12 222.71 449.66 206.39 440.27 206.39Z" stroke="#263238" stroke-miterlimit="10"/>
<path d="M22.23 387.721C24.4 388.671 29.71 388.551 29.71 388.551C29.71 388.551 28.57 385.081 28.47 384.871C27.3 382.431 23.62 378.411 20.62 378.811C20.1239 378.892 19.6505 379.077 19.2307 379.354C18.8109 379.63 18.4539 379.992 18.1832 380.416C17.9125 380.839 17.734 381.315 17.6593 381.812C17.5847 382.309 17.6156 382.817 17.75 383.301C18.25 385.371 20.38 386.921 22.23 387.721Z" fill="#0CFFBB"/>
<path d="M24.0599 403.111C26.3099 403.431 31.0599 402.061 31.4299 401.951C32.2069 404.662 33.1657 407.318 34.2999 409.901C34.9499 411.411 35.6599 412.901 36.3799 414.411C35.9499 413.771 35.5599 413.211 35.4899 413.141C33.7299 411.091 29.1099 408.141 26.3299 409.371C25.8724 409.578 25.4639 409.88 25.1311 410.257C24.7983 410.633 24.5487 411.075 24.3986 411.555C24.2485 412.034 24.2013 412.54 24.2601 413.039C24.3189 413.538 24.4824 414.019 24.7399 414.451C25.7399 416.321 28.2299 417.251 30.2299 417.541C32.2299 417.831 36.3199 416.751 37.3899 416.441C37.6699 417.011 37.9499 417.591 38.2399 418.161C39.6099 420.891 40.9899 423.611 42.2399 426.321C42.6899 427.271 43.0999 428.231 43.5099 429.191C43.1199 428.621 42.7999 428.191 42.7399 428.091C40.9699 426.091 36.3499 423.141 33.5699 424.321C33.1148 424.532 32.7093 424.837 32.3794 425.216C32.0495 425.594 31.8026 426.037 31.6547 426.517C31.5067 426.997 31.461 427.502 31.5205 428C31.5799 428.499 31.7432 428.979 31.9999 429.411C32.9999 431.281 35.4999 432.201 37.4899 432.491C39.4799 432.781 43.1899 431.801 44.4899 431.491C44.8799 432.491 45.2699 433.491 45.6099 434.491C45.8199 435.161 46.0799 435.801 46.2499 436.491C46.4199 437.181 46.6299 437.831 46.8099 438.491C47.1199 439.781 47.4499 441.111 47.7199 442.381C47.9199 443.261 48.0899 444.111 48.2599 444.951C47.8199 444.001 46.9299 442.151 46.8399 442.001C45.3999 439.711 41.2799 436.141 38.3499 436.881C37.8745 437.019 37.433 437.255 37.0532 437.573C36.6733 437.89 36.3632 438.283 36.1425 438.727C35.9218 439.17 35.7952 439.654 35.7707 440.149C35.7461 440.643 35.8241 441.138 35.9999 441.601C36.7299 443.601 38.9999 444.901 40.9999 445.491C43.1199 446.131 47.8199 445.541 48.4099 445.491C48.6899 446.901 48.9499 448.271 49.1799 449.561C49.6799 452.431 50.0599 454.991 50.3499 457.161H52.3499C51.9999 454.911 51.5499 452.241 50.9499 449.241C50.6699 447.811 50.3399 446.291 49.9499 444.731C51.3674 444.164 52.7499 443.512 54.0899 442.781C55.6399 444.461 59.5999 446.421 60.0899 446.671C59.5499 448.001 59.0099 449.291 58.4799 450.491C57.3799 453.021 56.3399 455.261 55.4199 457.161H57.5699C58.3599 455.401 59.2299 453.401 60.1299 451.161C60.6899 449.811 61.2499 448.361 61.8199 446.871C62.3899 446.991 67.0399 447.931 69.2099 447.441C71.2099 447.001 73.5599 445.891 74.4499 443.941C74.6709 443.488 74.7942 442.994 74.8119 442.491C74.8297 441.988 74.7413 441.487 74.5527 441.02C74.3641 440.553 74.0794 440.131 73.7172 439.782C73.3549 439.432 72.9231 439.162 72.4499 438.991C69.5799 437.991 65.2099 441.291 63.5999 443.461C63.5099 443.591 62.5999 445.091 62.0999 446.051C62.3299 445.441 62.5599 444.851 62.7799 444.221C63.2399 442.971 63.6599 441.711 64.1199 440.361L64.7199 438.361C64.9299 437.691 65.0699 436.971 65.2599 436.261C65.6499 434.631 65.9599 432.951 66.2599 431.261C67.3599 431.661 71.2599 433.021 73.2599 432.871C75.2599 432.721 77.7999 431.991 78.9599 430.201C79.25 429.79 79.4501 429.322 79.547 428.829C79.6438 428.335 79.6354 427.827 79.5221 427.337C79.4088 426.847 79.1932 426.386 78.8895 425.985C78.5858 425.585 78.2009 425.252 77.7599 425.011C75.0699 423.631 70.2499 426.181 68.3399 428.091C68.2199 428.211 66.9999 429.731 66.3399 430.581C66.4999 429.581 66.6699 428.581 66.7999 427.501C67.1699 424.501 67.4499 421.451 67.7999 418.411C67.8899 417.481 67.9899 416.551 68.0899 415.621C68.4799 415.771 73.0899 417.481 75.3499 417.331C77.3499 417.181 79.8799 416.451 81.0499 414.661C81.3385 414.249 81.5372 413.782 81.6332 413.289C81.7293 412.795 81.7204 412.288 81.6072 411.798C81.494 411.308 81.279 410.848 80.9763 410.447C80.6735 410.046 80.2897 409.714 79.8499 409.471C77.1599 408.081 72.3399 410.631 70.4199 412.541C70.2799 412.681 68.5299 414.881 68.1099 415.461C68.3199 413.411 68.5599 411.381 68.8699 409.381C69.2812 406.68 69.8623 404.008 70.6099 401.381C70.7899 401.451 75.6099 403.261 77.9099 403.101C79.9099 402.961 82.4499 402.221 83.6099 400.431C83.8984 400.019 84.0972 399.552 84.1932 399.059C84.2892 398.565 84.2804 398.058 84.1672 397.568C84.054 397.078 83.839 396.618 83.5363 396.217C83.2335 395.816 82.8497 395.483 82.4099 395.241C79.7199 393.851 74.8999 396.411 72.9899 398.311C72.8399 398.461 70.9899 400.821 70.6399 401.311C70.6399 401.161 70.7199 401.001 70.7599 400.851C71.5881 398.241 72.6491 395.711 73.9299 393.291C74.6099 391.941 75.3499 390.691 76.0899 389.501C76.9499 389.931 80.8899 391.841 82.9999 391.931C85.1099 392.021 87.5999 391.551 88.9999 389.931C89.3329 389.554 89.5826 389.111 89.7325 388.63C89.8824 388.15 89.9291 387.644 89.8696 387.145C89.8101 386.645 89.6458 386.164 89.3873 385.732C89.1289 385.301 88.7821 384.929 88.3699 384.641C85.8499 382.961 80.7799 384.981 78.6699 386.641C78.5499 386.731 77.4899 387.791 76.7299 388.571C77.0699 388.041 77.4099 387.481 77.7299 386.971C78.9899 385.071 80.2699 383.401 81.4099 381.971C82.0699 381.141 82.6799 380.411 83.2599 379.721C84.3199 379.721 88.5999 379.571 90.4699 378.721C92.3399 377.871 94.3899 376.271 94.8299 374.181C94.951 373.692 94.9678 373.184 94.8791 372.688C94.7904 372.193 94.5982 371.721 94.3151 371.305C94.032 370.889 93.6644 370.537 93.2361 370.273C92.8079 370.009 92.3287 369.837 91.8299 369.771C88.8299 369.451 85.2499 373.571 84.1499 376.041C84.0599 376.251 82.9599 379.761 83.0099 379.761H82.9999C82.4299 380.411 81.8199 381.111 81.1799 381.891C79.9999 383.331 78.6899 384.981 77.3799 386.891C75.9207 388.905 74.5849 391.005 73.3799 393.181C72.0327 395.602 70.9049 398.138 70.0099 400.761V400.861C70.0099 399.971 70.0099 397.491 70.0099 397.301C69.6599 394.621 67.4099 389.651 64.4399 389.101C63.943 389.023 63.4354 389.051 62.95 389.182C62.4646 389.314 62.0123 389.546 61.6227 389.864C61.233 390.182 60.9147 390.578 60.6885 391.027C60.4623 391.476 60.3333 391.968 60.3099 392.471C60.1399 394.601 61.6799 396.731 63.1799 398.071C64.8799 399.591 69.5899 401.071 69.9699 401.171C69.1204 403.863 68.4523 406.609 67.9699 409.391C67.6799 411.011 67.4399 412.651 67.2199 414.291C67.2199 413.531 67.2199 412.841 67.2199 412.751C66.8699 410.071 64.6199 405.101 61.6499 404.551C61.1538 404.473 60.647 404.5 60.1622 404.631C59.6775 404.762 59.2257 404.994 58.8362 405.31C58.4467 405.627 58.1282 406.023 57.9015 406.47C57.6747 406.918 57.5447 407.409 57.5199 407.911C57.3499 410.041 58.8899 412.171 60.3899 413.521C61.8899 414.871 65.9099 416.211 66.9699 416.521L66.7299 418.421C66.3699 421.421 66.0199 424.481 65.5899 427.421C65.4399 428.421 65.2499 429.481 65.0599 430.511C65.0599 429.831 65.0599 429.251 65.0599 429.171C64.7099 426.491 62.4699 421.511 59.4899 420.961C58.9933 420.884 58.4862 420.913 58.0014 421.045C57.5167 421.178 57.0651 421.41 56.6758 421.728C56.2865 422.045 55.9682 422.441 55.7416 422.889C55.5149 423.338 55.3849 423.829 55.3599 424.331C55.1899 426.461 56.7299 428.591 58.2399 429.931C59.7499 431.271 63.3599 432.501 64.6199 432.931C64.3999 433.931 64.1799 435.011 63.9199 436.021C63.7299 436.691 63.5899 437.361 63.3599 438.021C63.1299 438.681 62.9299 439.361 62.7199 440.021C62.2599 441.271 61.7999 442.561 61.3299 443.771L60.3299 446.211C60.4899 445.211 60.7699 443.141 60.7699 442.961C60.7333 440.586 60.0932 438.26 58.9099 436.201C58.9298 435.938 58.9298 435.674 58.9099 435.411C58.8411 434.916 58.6697 434.44 58.4068 434.016C58.1438 433.591 57.795 433.225 57.3827 432.943C56.9704 432.66 56.5037 432.467 56.0125 432.376C55.5212 432.284 55.0163 432.296 54.5299 432.411C51.6099 433.191 49.7499 438.321 49.6099 441.021C49.6099 441.181 49.7099 442.921 49.7899 444.021C49.6499 443.381 49.5099 442.771 49.3499 442.111C49.0399 440.821 48.6999 439.541 48.3499 438.161C48.1499 437.501 47.9399 436.831 47.7399 436.161C47.5399 435.491 47.2699 434.801 47.0299 434.111C46.4599 432.531 45.7899 430.961 45.0899 429.391C46.2199 429.121 50.2299 428.101 51.8299 426.861C53.4299 425.621 55.1299 423.621 55.1199 421.491C55.1326 420.988 55.0396 420.488 54.847 420.024C54.6543 419.559 54.3662 419.141 54.0013 418.795C53.6365 418.449 53.203 418.183 52.7291 418.015C52.2551 417.848 51.7511 417.781 51.2499 417.821C48.2499 418.151 45.6299 422.941 45.0899 425.591C45.0899 425.751 44.8799 427.691 44.7999 428.761C44.3699 427.821 43.9399 426.881 43.4799 425.941C42.1299 423.241 40.6899 420.541 39.2599 417.841L37.9599 415.361C38.3699 415.261 43.1499 414.151 44.9599 412.771C46.5699 411.541 48.2599 409.531 48.2499 407.401C48.2626 406.898 48.1696 406.398 47.977 405.934C47.7843 405.469 47.4962 405.051 47.1313 404.705C46.7665 404.359 46.333 404.093 45.8591 403.925C45.3851 403.758 44.8811 403.691 44.3799 403.731C41.3799 404.061 38.7599 408.851 38.2199 411.501C38.2199 411.701 37.9199 414.501 37.8999 415.211C36.8999 413.381 36.0199 411.561 35.1799 409.721C34.0119 407.247 33.0097 404.698 32.1799 402.091C32.3699 402.091 37.3699 400.911 39.1799 399.501C40.7799 398.271 42.4799 396.261 42.4599 394.131C42.4741 393.628 42.3824 393.129 42.1908 392.665C41.9993 392.2 41.7122 391.781 41.3481 391.435C40.984 391.089 40.5512 390.823 40.0777 390.655C39.6042 390.487 39.1007 390.421 38.5999 390.461C35.5999 390.791 32.9799 395.581 32.4299 398.221C32.4299 398.431 32.1199 401.441 32.1099 401.991L31.9499 401.531C31.2065 398.897 30.6945 396.203 30.4199 393.481C30.2499 391.981 30.1799 390.531 30.1299 389.131C31.1299 389.011 35.4399 388.431 37.2399 387.341C39.0399 386.251 40.8699 384.481 41.0899 382.341C41.1589 381.843 41.1223 381.336 40.9824 380.853C40.8425 380.37 40.6025 379.922 40.278 379.538C39.9535 379.154 39.5517 378.843 39.0989 378.624C38.6461 378.406 38.1524 378.285 37.6499 378.271C34.6499 378.271 31.5099 382.741 30.6499 385.271C30.6499 385.411 30.2999 386.881 30.0999 387.961C30.0999 387.321 30.0999 386.671 30.0999 386.061C30.0999 383.771 30.2499 381.671 30.3899 379.821C30.4799 378.821 30.5799 377.821 30.6899 376.931C31.5599 376.331 35.0599 373.861 36.1399 372.091C37.2199 370.321 38.0499 367.881 37.2599 365.901C37.09 365.429 36.8229 364.999 36.4759 364.638C36.1289 364.277 35.7098 363.992 35.2457 363.804C34.7817 363.615 34.2831 363.526 33.7825 363.543C33.2819 363.56 32.7903 363.682 32.3399 363.901C29.6499 365.291 28.9399 370.701 29.3399 373.361C29.3399 373.591 30.3999 377.131 30.4399 377.101H30.4999C30.3799 377.951 30.2599 378.871 30.1599 379.871C29.9699 381.731 29.7799 383.821 29.7299 386.121C29.6452 388.595 29.7019 391.073 29.8999 393.541C30.1192 396.302 30.5809 399.04 31.2799 401.721V401.821C30.7999 401.071 29.3999 399.031 29.2799 398.881C27.5099 396.881 22.8899 393.931 20.1099 395.111C19.6834 395.326 19.3043 395.625 18.995 395.989C18.6857 396.353 18.4524 396.775 18.3089 397.231C18.1654 397.687 18.1145 398.166 18.1593 398.642C18.2042 399.118 18.3438 399.58 18.5699 400.001C19.5999 401.891 22.0599 402.811 24.0599 403.111Z" fill="#0CFFBB"/>
<path d="M75.94 388.891C75.94 388.891 76.94 385.361 76.94 385.131C77.32 382.461 76.46 377.071 73.74 375.751C73.2817 375.544 72.7847 375.435 72.2817 375.434C71.7787 375.432 71.281 375.536 70.8212 375.74C70.3614 375.944 69.9499 376.243 69.6136 376.617C69.2774 376.991 69.0239 377.432 68.87 377.911C68.14 379.911 69.06 382.381 70.16 384.071C71.44 386.061 75.93 388.891 75.94 388.891Z" fill="#0CFFBB"/>
<path d="M391.34 387.721C393.51 388.671 398.82 388.551 398.82 388.551C398.82 388.551 397.68 385.081 397.58 384.871C396.41 382.431 392.73 378.411 389.73 378.811C389.234 378.892 388.76 379.077 388.341 379.354C387.921 379.63 387.564 379.992 387.293 380.416C387.022 380.839 386.844 381.315 386.769 381.812C386.695 382.309 386.725 382.817 386.86 383.301C387.36 385.371 389.49 386.921 391.34 387.721Z" fill="#0CFFBB"/>
<path d="M393.17 403.111C395.42 403.431 400.17 402.061 400.54 401.951C401.321 404.661 402.28 407.317 403.41 409.901C404.06 411.411 404.77 412.901 405.49 414.411C405.06 413.771 404.67 413.211 404.6 413.141C402.84 411.091 398.22 408.141 395.44 409.371C394.982 409.579 394.574 409.881 394.241 410.257C393.908 410.633 393.659 411.076 393.508 411.555C393.358 412.035 393.311 412.541 393.37 413.04C393.429 413.538 393.592 414.019 393.85 414.451C394.85 416.321 397.34 417.251 399.34 417.541C401.34 417.831 405.43 416.751 406.5 416.441C406.78 417.011 407.06 417.591 407.35 418.161C408.72 420.891 410.1 423.611 411.35 426.321C411.8 427.271 412.21 428.231 412.62 429.191C412.23 428.621 411.91 428.191 411.85 428.091C410.08 426.091 405.47 423.141 402.68 424.321C402.223 424.531 401.815 424.834 401.484 425.212C401.152 425.589 400.903 426.032 400.753 426.512C400.603 426.992 400.555 427.498 400.613 427.997C400.671 428.497 400.834 428.978 401.09 429.411C402.09 431.281 404.59 432.201 406.58 432.491C408.57 432.781 412.28 431.801 413.58 431.491C413.97 432.491 414.37 433.491 414.7 434.491C414.91 435.161 415.17 435.801 415.34 436.491C415.51 437.181 415.72 437.831 415.9 438.491C416.21 439.781 416.54 441.111 416.81 442.381C417.01 443.261 417.18 444.111 417.35 444.951C416.91 444.001 416.02 442.151 415.93 442.001C414.49 439.711 410.37 436.141 407.44 436.881C406.957 437.02 406.508 437.258 406.123 437.581C405.738 437.904 405.425 438.304 405.205 438.756C404.984 439.207 404.861 439.7 404.843 440.202C404.825 440.704 404.912 441.205 405.1 441.671C405.83 443.671 408.1 444.971 410.1 445.561C412.22 446.201 416.92 445.611 417.51 445.561C417.79 446.971 418.05 448.341 418.28 449.631C418.78 452.501 419.16 455.061 419.45 457.231H421.45C421.1 454.981 420.65 452.311 420.05 449.311C419.77 447.881 419.44 446.361 419.05 444.801C420.467 444.234 421.85 443.583 423.19 442.851C424.74 444.531 428.7 446.491 429.19 446.741C428.65 448.071 428.11 449.361 427.58 450.561C426.48 453.091 425.44 455.331 424.52 457.231H426.67C427.46 455.471 428.33 453.471 429.23 451.231C429.79 449.881 430.35 448.431 430.92 446.941C431.49 447.061 436.14 448.001 438.31 447.511C440.31 447.071 442.66 445.961 443.55 444.011C443.771 443.559 443.894 443.065 443.912 442.562C443.93 442.058 443.841 441.557 443.653 441.09C443.464 440.623 443.179 440.202 442.817 439.852C442.455 439.502 442.023 439.233 441.55 439.061C438.68 438.061 434.31 441.361 432.7 443.531C432.61 443.661 431.7 445.161 431.2 446.121C431.43 445.511 431.66 444.921 431.89 444.291C432.34 443.041 432.76 441.781 433.22 440.431L433.82 438.431C434.03 437.761 434.17 437.041 434.36 436.331C434.75 434.701 435.06 433.021 435.36 431.331C436.46 431.731 440.36 433.091 442.36 432.941C444.36 432.791 446.9 432.061 448.06 430.271C448.35 429.86 448.55 429.393 448.647 428.899C448.744 428.406 448.735 427.897 448.622 427.407C448.509 426.917 448.293 426.457 447.989 426.056C447.686 425.655 447.301 425.323 446.86 425.081C444.17 423.701 439.35 426.251 437.44 428.161C437.32 428.281 436.1 429.801 435.44 430.651C435.6 429.651 435.77 428.651 435.9 427.571C436.27 424.571 436.55 421.521 436.85 418.481C436.94 417.551 437.04 416.621 437.14 415.691C437.53 415.841 442.14 417.551 444.4 417.401C446.4 417.251 448.93 416.521 450.1 414.731C450.388 414.32 450.587 413.852 450.683 413.359C450.779 412.866 450.77 412.358 450.657 411.868C450.544 411.379 450.329 410.919 450.026 410.518C449.723 410.117 449.34 409.784 448.9 409.541C446.21 408.151 441.39 410.701 439.47 412.611C439.33 412.751 437.58 414.951 437.16 415.531C437.37 413.481 437.61 411.451 437.92 409.451C438.331 406.75 438.912 404.078 439.66 401.451C439.84 401.521 444.66 403.331 446.96 403.171C448.96 403.031 451.5 402.291 452.66 400.501C452.948 400.09 453.147 399.622 453.243 399.129C453.339 398.636 453.33 398.128 453.217 397.638C453.104 397.149 452.889 396.689 452.586 396.288C452.283 395.887 451.9 395.554 451.46 395.311C448.77 393.921 443.95 396.481 442.04 398.381C441.89 398.531 440.04 400.891 439.69 401.381C439.69 401.231 439.77 401.071 439.81 400.921C440.638 398.311 441.699 395.781 442.98 393.361C443.66 392.011 444.4 390.761 445.14 389.571C446 390.001 449.94 391.911 452.05 392.001C454.16 392.091 456.65 391.621 458.05 390.001C458.383 389.624 458.632 389.181 458.782 388.701C458.932 388.221 458.979 387.714 458.92 387.215C458.86 386.715 458.696 386.234 458.437 385.803C458.179 385.371 457.832 384.999 457.42 384.711C454.9 383.031 449.83 385.051 447.72 386.711C447.61 386.801 446.54 387.861 445.78 388.641C446.12 388.111 446.46 387.551 446.78 387.041C448.05 385.141 449.32 383.471 450.46 382.041C451.12 381.211 451.73 380.481 452.31 379.791C453.37 379.791 457.65 379.641 459.52 378.791C461.39 377.941 463.44 376.341 463.88 374.251C464.001 373.762 464.018 373.254 463.929 372.758C463.84 372.263 463.648 371.792 463.365 371.376C463.082 370.96 462.714 370.608 462.286 370.343C461.858 370.079 461.379 369.908 460.88 369.841C457.88 369.521 454.29 373.641 453.19 376.111C453.1 376.321 452 379.831 452.05 379.831H452.12C451.55 380.481 450.94 381.181 450.3 381.961C449.12 383.401 447.81 385.051 446.5 386.961C445.058 388.976 443.739 391.077 442.55 393.251C441.203 395.672 440.075 398.209 439.18 400.831C439.184 400.864 439.184 400.898 439.18 400.931C439.18 400.041 439.18 397.561 439.18 397.371C438.83 394.691 436.58 389.721 433.61 389.171C433.113 389.093 432.605 389.121 432.12 389.252C431.634 389.384 431.182 389.616 430.793 389.934C430.403 390.252 430.085 390.648 429.858 391.098C429.632 391.547 429.503 392.039 429.48 392.541C429.31 394.671 430.85 396.801 432.35 398.141C434.05 399.661 438.76 401.141 439.14 401.241C438.29 403.933 437.622 406.679 437.14 409.461C436.85 411.081 436.61 412.721 436.39 414.361C436.39 413.601 436.39 412.911 436.39 412.821C436.04 410.141 433.79 405.171 430.82 404.621C430.324 404.543 429.817 404.571 429.332 404.702C428.847 404.832 428.396 405.064 428.006 405.381C427.617 405.698 427.298 406.093 427.071 406.541C426.845 406.989 426.715 407.479 426.69 407.981C426.52 410.111 428.06 412.241 429.56 413.591C431.06 414.941 435.08 416.281 436.14 416.591C436.07 417.221 435.98 417.851 435.9 418.491C435.54 421.491 435.19 424.551 434.76 427.491C434.61 428.491 434.42 429.551 434.23 430.581C434.23 429.901 434.23 429.321 434.23 429.241C433.88 426.561 431.64 421.581 428.66 421.031C428.163 420.955 427.656 420.984 427.171 421.116C426.687 421.248 426.235 421.48 425.846 421.798C425.456 422.116 425.138 422.511 424.911 422.96C424.685 423.408 424.555 423.899 424.53 424.401C424.36 426.531 425.9 428.661 427.41 430.001C428.92 431.341 432.54 432.571 433.79 433.001C433.57 434.001 433.35 435.081 433.09 436.091C432.9 436.761 432.76 437.431 432.53 438.091C432.3 438.751 432.1 439.431 431.89 440.091C431.43 441.341 430.97 442.631 430.5 443.841L429.5 446.281C429.66 445.281 429.94 443.211 429.94 443.031C429.908 440.656 429.268 438.328 428.08 436.271C428.083 436.007 428.066 435.743 428.03 435.481C427.961 434.986 427.79 434.511 427.527 434.086C427.264 433.661 426.915 433.296 426.503 433.013C426.09 432.731 425.624 432.538 425.132 432.446C424.641 432.354 424.136 432.366 423.65 432.481C420.73 433.261 418.87 438.391 418.73 441.091C418.73 441.251 418.83 442.991 418.91 444.091C418.77 443.451 418.63 442.841 418.47 442.181C418.16 440.891 417.82 439.611 417.47 438.231C417.27 437.571 417.06 436.901 416.86 436.231C416.66 435.561 416.39 434.871 416.15 434.181C415.58 432.601 414.91 431.031 414.21 429.461C415.34 429.191 419.35 428.171 420.95 426.931C422.55 425.691 424.25 423.691 424.24 421.561C424.253 421.058 424.16 420.559 423.967 420.094C423.774 419.63 423.486 419.211 423.121 418.865C422.756 418.519 422.323 418.253 421.849 418.086C421.375 417.918 420.871 417.852 420.37 417.891C417.37 418.221 414.75 423.011 414.21 425.661C414.21 425.821 414 427.761 413.92 428.831C413.49 427.891 413.06 426.951 412.6 426.011C411.25 423.311 409.81 420.611 408.38 417.911L407.08 415.431C407.49 415.331 412.27 414.221 414.08 412.841C415.69 411.611 417.38 409.601 417.37 407.471C417.383 406.968 417.29 406.469 417.097 406.004C416.904 405.54 416.616 405.121 416.251 404.775C415.886 404.429 415.453 404.163 414.979 403.996C414.505 403.828 414.001 403.762 413.5 403.801C410.5 404.131 407.88 408.921 407.34 411.571C407.34 411.771 407.04 414.571 407.02 415.281C406.07 413.451 405.14 411.631 404.3 409.791C403.149 407.316 402.163 404.767 401.35 402.161C401.54 402.161 406.54 400.981 408.35 399.571C409.95 398.341 411.65 396.331 411.63 394.201C411.644 393.699 411.552 393.199 411.361 392.735C411.169 392.27 410.882 391.851 410.518 391.505C410.154 391.159 409.721 390.894 409.248 390.726C408.774 390.558 408.271 390.491 407.77 390.531C404.77 390.861 402.15 395.651 401.6 398.291C401.6 398.501 401.29 401.511 401.28 402.061L401.12 401.601C400.376 398.967 399.864 396.274 399.59 393.551C399.43 392.051 399.35 390.601 399.3 389.201C400.3 389.081 404.61 388.501 406.41 387.411C408.21 386.321 410.04 384.551 410.26 382.411C410.329 381.913 410.292 381.406 410.152 380.923C410.012 380.44 409.772 379.992 409.448 379.608C409.123 379.224 408.722 378.913 408.269 378.695C407.816 378.476 407.322 378.356 406.82 378.341C403.82 378.341 400.68 382.811 399.82 385.341C399.82 385.481 399.47 386.951 399.27 388.031C399.27 387.391 399.27 386.741 399.27 386.131C399.27 383.841 399.42 381.741 399.56 379.891C399.65 378.891 399.75 377.891 399.86 377.001C400.73 376.401 404.23 373.931 405.31 372.161C406.39 370.391 407.22 367.951 406.43 365.971C406.26 365.5 405.993 365.069 405.646 364.708C405.299 364.347 404.88 364.063 404.416 363.874C403.952 363.686 403.453 363.597 402.952 363.613C402.452 363.63 401.96 363.752 401.51 363.971C398.82 365.361 398.11 370.771 398.56 373.431C398.56 373.661 399.56 377.201 399.66 377.171H399.71C399.59 378.021 399.47 378.941 399.37 379.941C399.18 381.801 398.99 383.891 398.94 386.191C398.855 388.665 398.912 391.143 399.11 393.611C399.329 396.373 399.791 399.11 400.49 401.791V401.891C400.01 401.141 398.61 399.101 398.49 398.951C396.72 396.951 392.1 394.001 389.32 395.181C388.862 395.39 388.453 395.693 388.12 396.07C387.788 396.447 387.538 396.891 387.388 397.371C387.238 397.851 387.191 398.358 387.25 398.857C387.309 399.357 387.472 399.839 387.73 400.271C388.71 401.891 391.17 402.811 393.17 403.111Z" fill="#0CFFBB"/>
<path d="M445.05 388.891C445.05 388.891 446.05 385.361 446.05 385.131C446.43 382.461 445.57 377.071 442.85 375.751C442.392 375.544 441.895 375.435 441.392 375.434C440.889 375.432 440.391 375.536 439.931 375.74C439.471 375.944 439.06 376.243 438.723 376.617C438.387 376.991 438.134 377.432 437.98 377.911C437.25 379.911 438.17 382.381 439.27 384.071C440.55 386.061 445 388.891 445.05 388.891Z" fill="#0CFFBB"/>
<path d="M349.33 179.57C349.33 179.57 349.64 168.28 356.15 165.08C362.66 161.88 363.03 172.45 363.03 172.45C363.03 172.45 377.92 162.99 381.15 170.16C384.38 177.33 379.87 180.8 379.87 180.8C379.87 180.8 393.09 180.34 394.01 187.59C394.93 194.84 388.1 198.39 388.1 198.39C388.1 198.39 396.27 205.06 393.4 208.14C390.53 211.22 384.25 211.44 384.25 211.44C384.25 211.44 387.81 218.59 381.6 221.13C375.39 223.67 368.29 218.94 368.29 218.94C368.29 218.94 369.39 222.22 364.73 221.39C360.07 220.56 355.36 218.39 352.47 211.55C349.58 204.71 345.85 185.34 349.33 179.57Z" fill="#263238" stroke="#263238" stroke-linecap="round" stroke-linejoin="round"/>
<path d="M280.59 397.619C280.59 397.619 276.88 411.779 276.94 413.349C277 414.919 275.71 418.479 276.8 419.489C278.841 421.153 281.003 422.661 283.27 423.999C284.194 423.987 285.096 423.713 285.87 423.209C286.121 422.984 286.322 422.71 286.462 422.404C286.601 422.098 286.675 421.766 286.68 421.429C286.68 420.899 285.19 418.679 284.99 418.159C284.79 417.639 287.72 410.869 288.83 407.499C289.662 404.49 290.257 401.421 290.61 398.319L280.59 397.619Z" fill="#BDBDBD" stroke="#263238" stroke-miterlimit="10"/>
<path d="M284.62 407.48C284.62 407.48 282.51 412.48 282.37 413.34C282.23 414.2 279.37 416.6 279.75 418.52C280.13 420.44 284.35 419.93 286.43 414.25" fill="#BDBDBD"/>
<path d="M284.62 407.48C284.62 407.48 282.51 412.48 282.37 413.34C282.23 414.2 279.37 416.6 279.75 418.52C280.13 420.44 284.35 419.93 286.43 414.25" stroke="#263238" stroke-miterlimit="10"/>
<path d="M294.07 320.699C294.07 320.699 292.3 349.579 291.63 352.129C290.96 354.679 282.92 377.969 281.15 385.129C280.065 389.563 279.293 394.067 278.84 398.609L289.63 400.879L295.69 374.259C295.69 374.259 303.61 349.999 302 338.629C301.175 332.004 298.417 325.768 294.07 320.699Z" fill="#0CFFBB" stroke="#263238" stroke-miterlimit="10"/>
<path d="M350.28 457.129C350.41 450.849 350.67 442.379 351.28 437.529C352.28 429.149 355.86 423.969 359.54 413.529C363.22 403.089 363.54 389.369 363.54 389.369L297.64 391.669C297.64 391.669 290 419.999 285.37 440.839C284.113 446.185 283.38 451.641 283.18 457.129" fill="#0CFFBB"/>
<path d="M350.28 457.129C350.41 450.849 350.67 442.379 351.28 437.529C352.28 429.149 355.86 423.969 359.54 413.529C363.22 403.089 363.54 389.369 363.54 389.369L297.64 391.669C297.64 391.669 290 419.999 285.37 440.839C284.113 446.185 283.38 451.641 283.18 457.129" stroke="#263238" stroke-miterlimit="10"/>
<path d="M306.27 402.29L361.1 403.83L362.26 399.59L306.27 402.29Z" fill="#263238" stroke="#263238" stroke-linecap="round" stroke-linejoin="round"/>
<path d="M303.5 456.13C303.5 456.13 302.42 421.84 302.39 403.23Z" fill="white"/>
<path d="M303.5 456.13C303.5 456.13 302.42 421.84 302.39 403.23" stroke="#263238" stroke-miterlimit="10"/>
<path d="M345.53 248.16L353.53 253.54C353.53 253.54 363 262 365.33 269C367.66 276 365.97 317.57 363.62 331C361.27 344.43 367.14 361.16 369.23 370.6C371.32 380.04 372.23 397.6 372.23 397.6C372.23 397.6 373.71 399.66 348.03 400.55C322.35 401.44 304.44 402.78 302.34 403.2C301.071 403.46 299.784 403.624 298.49 403.69L297.49 394.57L295 402.08L289.67 400.86C289.67 400.86 292.98 384.54 293.81 378.18C294.64 371.82 299.88 350.18 299.95 342.04C300.02 333.9 293.22 320.8 291.89 312.74C290.56 304.68 293.24 290.86 299.89 280.42C306.54 269.98 311 265.94 324 255.28C337 244.62 345.53 248.16 345.53 248.16Z" fill="#0CFFBB" stroke="#263238" stroke-miterlimit="10"/>
<path d="M324.69 370.01L351.52 373.05L350.01 366.03L333.27 364.59" stroke="#263238" stroke-miterlimit="10"/>
<path d="M315.31 364.199L313.95 368.799L320.68 369.559" stroke="#263238" stroke-miterlimit="10"/>
<path d="M325.38 318.23C324.119 317.062 322.962 315.787 321.92 314.42" stroke="#263238" stroke-miterlimit="10"/>
<path d="M334.71 326.109C334.71 326.109 331.88 323.969 328.78 321.309" stroke="#263238" stroke-miterlimit="10"/>
<path d="M345.53 248.16C345.53 248.16 337 244.61 324 255.28C311 265.95 306.55 270 299.87 280.42C295.88 286.862 293.227 294.042 292.07 301.53C292.23 302.31 292.4 303.1 292.59 303.91C296.31 319.63 300.45 327.23 300.45 327.23C300.45 327.23 307.65 291.41 320.18 276.89C332.71 262.37 353.52 253.54 353.52 253.54L345.53 248.16Z" fill="#0CFFBB" stroke="#263238" stroke-miterlimit="10"/>
<path d="M314.26 178.289C314.26 178.289 304.87 187.059 304.17 193.969C303.47 200.879 302.74 206.839 301.57 209.069C300.4 211.299 294.5 212.759 296.5 216.129C298.5 219.499 300.37 219.429 300.37 219.429C300.37 219.429 303.37 234.339 305.65 236.429C307.93 238.519 316 237.319 316 237.319L318.5 255.399C318.5 255.399 301.71 270.289 298.44 291.039C295.17 311.789 298.91 323.629 298.91 323.629C298.91 323.629 301.1 290.939 308.66 278.699C316.22 266.459 333.78 254.869 336.37 252.779C338.96 250.689 345.53 248.139 345.53 248.139C345.53 248.139 342.41 241.139 341.99 237.979C341.57 234.819 341.71 230.169 342.3 228.899C342.89 227.629 353.38 223.819 357.3 211.799C361.22 199.779 355.45 185.589 349.3 179.549C343.15 173.509 322.12 170.509 314.26 178.289Z" fill="#BDBDBD" stroke="#263238" stroke-miterlimit="10"/>
<path d="M357.34 211.819C361.34 199.819 355.49 185.609 349.34 179.569C343.19 173.529 322.13 170.509 314.27 178.289C314.27 178.289 313.77 178.759 312.99 179.569C315.978 178.823 319.09 178.72 322.12 179.269C328.41 180.269 328.27 185.269 326.56 190.059C324.85 194.849 326.14 195.699 329.35 198.059C332.56 200.419 329.27 204.949 331.53 206.749C333.79 208.549 335.63 198.749 340.53 205.809C345.43 212.869 342.14 216.069 339.08 218.049C337.367 219.194 335.507 220.102 333.55 220.749C333.55 220.749 338.18 226.179 342.75 228.419C344.94 226.789 353.78 222.619 357.34 211.819Z" fill="#263238" stroke="#263238" stroke-linecap="round" stroke-linejoin="round"/>
<path d="M305.46 222.069C305.46 222.069 312.01 221.529 315.04 218.609" stroke="#263238" stroke-miterlimit="10"/>
<path d="M309.62 206.6C309.67 208.15 309.08 209.43 308.31 209.46C307.54 209.49 306.86 208.25 306.8 206.7C306.74 205.15 307.34 203.87 308.11 203.84C308.88 203.81 309.56 205.05 309.62 206.6Z" fill="#263238"/>
<path d="M306.8 200.27C306.8 200.27 308.91 197.43 311.93 200.78" stroke="#263238" stroke-miterlimit="10"/>
<path d="M316 237.34L323.81 234.4L318.37 244.17L316 237.34Z" fill="#263238" stroke="#263238" stroke-miterlimit="10"/>
<path d="M293.51 380.869L283.27 423.999L292.46 426.139L297.52 394.599L293.51 380.869Z" fill="white" stroke="#263238" stroke-miterlimit="10"/>
<path d="M302.56 277.609C300.594 281.889 299.209 286.413 298.44 291.059C295.17 311.799 298.91 323.649 298.91 323.649C298.91 323.649 301.08 291.399 308.51 278.979C306.481 278.75 304.485 278.291 302.56 277.609Z" fill="white" stroke="#263238" stroke-miterlimit="10"/>
<path d="M334.2 291.069L333.5 327.669L269.45 338.229L270.85 355.479C270.85 355.479 306.4 356.179 322.94 354.769C339.48 353.359 353.94 352.309 356.02 350.549C358.1 348.789 364.13 314.769 366.59 290.839C369.05 266.909 364.13 258.839 354.28 260.219" fill="#0CFFBB"/>
<path d="M334.2 291.069L333.5 327.669L269.45 338.229L270.85 355.479C270.85 355.479 306.4 356.179 322.94 354.769C339.48 353.359 353.94 352.309 356.02 350.549C358.1 348.789 364.13 314.769 366.59 290.839C369.05 266.909 364.13 258.839 354.28 260.219" stroke="#263238" stroke-miterlimit="10"/>
<path d="M231.13 336.679L226 352.239L231 354.959C231 354.959 237.35 359.879 240.83 362.539C244.31 365.199 246.98 365.199 248.83 364.379C250.68 363.559 259.07 351.679 260.09 349.429C261.11 347.179 256.2 340.429 251.29 337.549C246.38 334.669 242.29 334.689 239.41 335.549C236.684 336.142 233.915 336.52 231.13 336.679Z" fill="white" stroke="#263238" stroke-miterlimit="10"/>
<path d="M269.45 338.229L261.35 337.529C258.809 336.866 256.222 336.395 253.61 336.119C251.5 336.119 248.68 338.229 247.27 339.289C245.86 340.349 230.38 357.239 230.38 357.239C230.38 357.239 231.79 360.049 233.9 359.349C236.01 358.649 239.9 356.879 239.9 356.879C239.9 356.879 235.68 361.109 237.79 363.219C239.9 365.329 243.42 365.329 243.42 365.329L245.89 363.919C246.929 364.738 248.123 365.337 249.4 365.679C251.16 366.029 253.98 365.329 256.4 363.919C258.82 362.509 265.11 355.169 265.11 355.169L270.51 353.079L269.45 338.229Z" fill="#BDBDBD" stroke="#263238" stroke-miterlimit="10"/>
<path d="M233.92 337.35C233.92 337.35 244.16 331.41 248.66 333.05C253.16 334.69 259.11 344.72 257.47 346.16C255.83 347.6 253.17 346.97 251.74 345.54C250.544 344.454 249.241 343.492 247.85 342.67C245.154 344.185 242.132 345.029 239.04 345.13" fill="white"/>
<path d="M233.92 337.35C233.92 337.35 244.16 331.41 248.66 333.05C253.16 334.69 259.11 344.72 257.47 346.16C255.83 347.6 253.17 346.97 251.74 345.54C250.544 344.454 249.241 343.492 247.85 342.67C245.154 344.185 242.132 345.029 239.04 345.13" stroke="#263238" stroke-miterlimit="10"/>
<path d="M264.46 360.6L261.21 358.86C260.948 358.721 260.716 358.532 260.528 358.303C260.339 358.075 260.198 357.811 260.111 357.528C260.025 357.244 259.995 356.947 260.024 356.652C260.053 356.357 260.14 356.071 260.28 355.81C260.42 355.549 260.609 355.318 260.838 355.13C261.067 354.943 261.331 354.802 261.614 354.717C261.897 354.631 262.195 354.603 262.489 354.632C262.784 354.662 263.069 354.749 263.33 354.89L266.58 356.62C267.107 356.902 267.5 357.381 267.675 357.953C267.849 358.524 267.79 359.142 267.51 359.67C267.228 360.196 266.749 360.59 266.177 360.764C265.605 360.939 264.988 360.879 264.46 360.6Z" fill="white" stroke="#263238" stroke-miterlimit="10"/>
<path d="M261.59 364.079L258.34 362.339C257.826 362.057 257.442 361.586 257.269 361.027C257.095 360.467 257.146 359.862 257.41 359.339C257.694 358.827 258.165 358.445 258.724 358.273C259.284 358.102 259.888 358.154 260.41 358.419L263.66 360.149C264.176 360.429 264.561 360.899 264.735 361.46C264.909 362.02 264.857 362.626 264.59 363.149C264.31 363.664 263.84 364.05 263.279 364.224C262.719 364.397 262.113 364.345 261.59 364.079Z" fill="white" stroke="#263238" stroke-miterlimit="10"/>
<path d="M258.31 367.15L255.06 365.41C254.798 365.272 254.567 365.083 254.378 364.854C254.19 364.625 254.049 364.361 253.964 364.078C253.878 363.794 253.85 363.496 253.88 363.201C253.91 362.907 253.999 362.621 254.14 362.36C254.28 362.1 254.47 361.869 254.699 361.681C254.928 361.494 255.191 361.353 255.474 361.268C255.758 361.182 256.055 361.154 256.35 361.183C256.644 361.213 256.93 361.3 257.19 361.44L260.44 363.18C260.701 363.32 260.932 363.51 261.12 363.739C261.307 363.968 261.448 364.231 261.533 364.515C261.619 364.798 261.647 365.095 261.618 365.39C261.588 365.684 261.501 365.97 261.36 366.23C261.221 366.491 261.031 366.722 260.802 366.91C260.573 367.097 260.31 367.238 260.026 367.323C259.743 367.409 259.446 367.437 259.151 367.408C258.857 367.378 258.571 367.291 258.31 367.15Z" fill="white" stroke="#263238" stroke-miterlimit="10"/>
<path d="M251.41 367.3L250.56 366.85C250.298 366.712 250.067 366.522 249.878 366.294C249.69 366.065 249.548 365.802 249.462 365.518C249.375 365.235 249.346 364.937 249.375 364.643C249.403 364.348 249.49 364.061 249.63 363.8C249.912 363.274 250.392 362.88 250.963 362.706C251.535 362.531 252.152 362.591 252.68 362.87L253.53 363.33C253.792 363.469 254.024 363.658 254.212 363.887C254.401 364.115 254.542 364.379 254.629 364.662C254.715 364.945 254.745 365.243 254.716 365.538C254.687 365.833 254.6 366.119 254.46 366.38C254.321 366.641 254.131 366.872 253.902 367.06C253.673 367.247 253.409 367.388 253.126 367.473C252.843 367.558 252.545 367.587 252.251 367.558C251.956 367.528 251.671 367.44 251.41 367.3Z" fill="white" stroke="#263238" stroke-miterlimit="10"/>
<path d="M231.13 336.68L188.15 318.51L189.74 346.98L225.23 355.11L231.13 336.68Z" fill="#263238" stroke="#263238" stroke-linecap="round" stroke-linejoin="round"/>
<path d="M225.23 355.11L231.13 336.68L225.12 334.02L225 334.63L219.5 353.72L225.23 355.11Z" fill="white" stroke="#263238" stroke-miterlimit="10"/>
<path d="M164 222.799L175 227.909C175 227.909 179.62 240.999 178.08 241.379C176.54 241.759 164.99 232.529 164.99 232.529L164 222.799Z" fill="white" stroke="#263238" stroke-linecap="round" stroke-linejoin="round"/>
<path d="M170.39 220.18L171.16 215.77C171.16 215.77 181.36 216.47 185.44 216.44C189.52 216.41 193.08 215.89 193.05 211.56C193.02 207.23 190.64 192.46 190.64 192.46C190.64 192.46 195.22 191.41 196.99 189.36C198.76 187.31 196.2 184.78 193.89 181.73C191.58 178.68 189.51 175.39 189.24 171.82C188.97 168.25 182.77 156.57 182.77 156.57C182.77 156.57 183.77 154.78 180.44 150.98C177.11 147.18 160.03 146.52 149.1 151.98C138.17 157.44 135.68 165.32 135.73 173.98C135.78 182.64 140.73 194.85 140.73 194.85C140.73 194.85 137.5 208.12 137.25 208.85C137 209.58 134.1 215.27 134.1 215.27C134.1 215.27 147.77 224.8 152.76 229.08C157.75 233.36 169.02 240.68 169.09 236.72C169.16 232.76 169.61 223.82 169.61 223.82L170.39 220.18Z" fill="white" stroke="#263238" stroke-linecap="round" stroke-linejoin="round"/>
<path d="M185.46 178.82C185.52 180.3 185.18 181.51 184.69 181.53C184.2 181.55 183.74 180.38 183.69 178.9C183.64 177.42 183.96 176.21 184.46 176.19C184.96 176.17 185.39 177.34 185.46 178.82Z" fill="#263238"/>
<path d="M178.29 173.929C178.29 173.929 180.56 170.089 186.44 172.349" stroke="#263238" stroke-width="2" stroke-linecap="round" stroke-linejoin="round"/>
<path d="M193.05 211.56C193.05 207.22 190.64 192.46 190.64 192.46C190.64 192.46 187.83 190.95 182.48 192.25C177.13 193.55 175.67 202.25 174.65 203.25C173.63 204.25 166.98 198.25 164.4 194.14C161.82 190.03 160 183 159.72 178.89C159.44 174.78 169.11 172.71 170.62 168.89C172.13 165.07 165 161 167.49 158.45C169.98 155.9 175.13 156.88 177.68 157.37C179.419 157.605 181.188 157.327 182.77 156.57C182.77 156.57 183.77 154.78 180.44 150.98C177.11 147.18 160.03 146.52 149.1 151.98C138.17 157.44 135.68 165.32 135.73 173.98C135.78 180.98 139.02 190.34 140.24 193.64C141.273 194.086 142.385 194.317 143.51 194.32C144.51 194.06 145.27 191 145.76 187.93C146.25 184.86 153.62 181.26 153.62 181.26C153.62 181.26 154.95 190.43 154.96 192.21C154.97 193.99 153.96 202.92 158.88 207.21C162.733 210.403 166.84 213.276 171.16 215.8C171.16 215.8 181.36 216.5 185.44 216.47C189.52 216.44 193.08 215.89 193.05 211.56Z" fill="#263238" stroke="#263238" stroke-linecap="round" stroke-linejoin="round"/>
<path d="M155.19 187.58C155.19 187.58 153.07 175.36 149.51 175.89C145.95 176.42 143.93 181.02 145.75 186.89C147.57 192.76 151.14 192.21 153.17 191.69" fill="white"/>
<path d="M155.19 187.58C155.19 187.58 153.07 175.36 149.51 175.89C145.95 176.42 143.93 181.02 145.75 186.89C147.57 192.76 151.14 192.21 153.17 191.69" stroke="#263238" stroke-linecap="round" stroke-linejoin="round"/>
<path d="M180.22 196.85C180.22 196.85 182.27 199.39 187.62 199.36" stroke="white" stroke-linecap="round" stroke-linejoin="round"/>
<path d="M123 457.13H177C177.18 454.29 179.28 443.37 179.28 436.21C179.28 427.94 184.97 374.59 184.97 374.59L114.74 373.67L117.04 406.32L123 457.13Z" fill="#263238" stroke="#263238" stroke-linecap="round" stroke-linejoin="round"/>
<path d="M130 217.129C130 217.129 117.69 232.919 114.22 241.769C110.75 250.619 108.06 252.159 108.83 263.319C109.6 274.479 115 319.129 115 319.129L104.22 377.259C116.944 381.817 130.355 384.158 143.87 384.179C166.19 384.179 175.87 382.259 177.36 381.489C178.85 380.719 192.36 377.259 192.36 377.259C192.36 377.259 192.36 311.439 188.12 288.729C183.88 266.019 178.5 248.729 176.58 244.459C174.66 240.189 168.49 226.369 168.49 226.369L130 217.129Z" fill="#263238" stroke="#263238" stroke-linecap="round" stroke-linejoin="round"/>
<path d="M176.61 244.459C174.68 240.229 168.52 226.369 168.52 226.369L130 217.129C130 217.129 127.4 220.469 124.25 224.939C132.64 229.809 153.41 241.849 154.64 242.149C156.18 242.539 163.88 241.769 163.88 241.769L160.44 245.999C160.44 245.999 169.68 253.319 172.76 256.389C174.38 258.009 179.08 262.289 183.18 265.989C180.39 254.929 177.81 247.119 176.61 244.459Z" fill="#263238" stroke="#263238" stroke-linecap="round" stroke-linejoin="round"/>
<path d="M158.9 234.839L171.99 245.229L182.76 264.479L175.84 236.379L161.6 228.299L158.9 234.839Z" fill="white" stroke="#263238" stroke-linecap="round" stroke-linejoin="round"/>
<path d="M132.73 209.82L173.03 227.98V242.22L126.95 218.67L132.73 209.82Z" fill="white" stroke="#263238" stroke-linecap="round" stroke-linejoin="round"/>
<path d="M186.02 355.49H116.38V411.84H186.02V355.49Z" fill="#0CFFBB" stroke="#263238" stroke-miterlimit="10"/>
<path d="M155.47 382.35C155.47 382.35 160.65 389.1 162.68 389.78C164.389 390.482 165.803 391.754 166.68 393.38C167.58 394.73 168.68 404.86 169.38 405.54C170.08 406.22 170.06 407.79 167.58 406.66C165.1 405.53 163.58 401.66 163.58 401.66L164.48 410.66C164.48 410.66 166.48 411.11 164.93 412.24C163.38 413.37 162 414.94 160.65 414.24C159.449 413.524 158.32 412.694 157.28 411.76C155.672 412.3 153.959 412.454 152.28 412.21C149.81 411.76 150.28 412.66 148.01 411.08C145.74 409.5 145.75 411.31 144.63 408.38C142.886 403.136 141.456 397.794 140.35 392.38C139.9 389.45 139.45 385.38 139.45 385.38L155.47 382.35Z" fill="white" stroke="#263238" stroke-linecap="round" stroke-linejoin="round"/>
<path d="M156.38 378.07L157.95 385.05L138.59 387.75L137.69 380.77L156.38 378.07Z" fill="white" stroke="#263238" stroke-linecap="round" stroke-linejoin="round"/>
<path d="M131.57 231C131.57 231 118.1 235.23 117.72 241.39C117.34 247.55 112.87 322.26 114.8 327.26C116.73 332.26 135.66 382.93 135.66 382.93L157.6 380.24C157.6 380.24 146.36 321.48 146 320.32C145.64 319.16 153.54 253.7 153.54 253.7" fill="#263238"/>
<path d="M131.57 231C131.57 231 118.1 235.23 117.72 241.39C117.34 247.55 112.87 322.26 114.8 327.26C116.73 332.26 135.66 382.93 135.66 382.93L157.6 380.24C157.6 380.24 146.36 321.48 146 320.32C145.64 319.16 153.54 253.7 153.54 253.7" stroke="#263238" stroke-linecap="round" stroke-linejoin="round"/>
<path d="M150.93 272.5L145.97 320.32L150.7 350.03" stroke="#878787" stroke-linecap="round" stroke-linejoin="round"/>
<path d="M151.69 265.18L151.43 267.72" stroke="#878787" stroke-linecap="round" stroke-linejoin="round"/>
<path d="M116.17 257.779L114.69 302.679" stroke="#878787" stroke-linecap="round" stroke-linejoin="round"/>
<path d="M166.49 342.19L181.29 341.65L182.62 346.98L158.1 348.55" stroke="#878787" stroke-linecap="round" stroke-linejoin="round"/>
<path d="M154.16 342.63L162.04 342.35" stroke="#878787" stroke-linecap="round" stroke-linejoin="round"/>
<path d="M127.52 226.209L154.67 242.149L163.91 241.769L160.44 245.999L178.33 260.249" stroke="#878787" stroke-linecap="round" stroke-linejoin="round"/>
<path d="M11.48 457.131H467.97" stroke="white" stroke-miterlimit="10"/>
</svg>
