<svg width="633" height="623" viewBox="0 0 633 623" fill="none" xmlns="http://www.w3.org/2000/svg">
<mask id="mask0_2422_2393" style="mask-type:luminance" maskUnits="userSpaceOnUse" x="4" y="0" width="625" height="615">
<path d="M628.45 0H4V614.164H628.45V0Z" fill="white"/>
</mask>
<g mask="url(#mask0_2422_2393)">
<g filter="url(#filter0_d_2422_2393)">
<path d="M458.81 114.116C458.734 137.959 457.12 161.771 453.98 185.406C453.87 186.236 453.75 187.066 453.639 187.896H230.36C229.699 187.076 229.049 186.246 228.42 185.406C226.319 182.626 224.35 179.766 222.54 176.806C213.84 162.546 209.799 145.816 213.69 134.236L213.759 134.056C214.599 131.521 215.931 129.176 217.679 127.156C226.639 116.956 244.88 118.546 261.469 126.646C246.54 110.486 234.609 90.0562 233.609 71.7662C232.629 53.9262 241.889 41.1262 251.949 30.2362C252.279 29.8762 252.609 29.5262 252.94 29.1762C253.1 28.9962 253.27 28.8262 253.429 28.6462C261.279 20.3462 270.44 12.1562 283.77 13.0662C298.389 14.0662 314.66 26.2162 326.1 40.4162C337.54 54.6062 345.179 70.7562 352.92 86.5162C360.67 102.266 369.049 118.416 381.42 131.846C364.65 110.876 351.089 86.9862 346 63.7062C340.91 40.4262 345.15 18.0162 359.929 6.95619C364.417 3.70121 369.619 1.56839 375.1 0.736191C375.739 0.626191 376.389 0.536192 377.049 0.456192C390.779 -1.18376 407.21 3.47619 421.23 14.7562C436.67 27.1762 447.429 45.6562 452.83 63.2262C458.23 80.7962 458.889 97.7362 458.81 114.116Z" fill="#F2F2F2"/>
<path d="M313.139 187.893H308.87C307.51 187.053 306.143 186.223 304.77 185.403C303.92 184.873 303.06 184.363 302.199 183.843C287.99 175.273 273.693 167.056 259.31 159.193C244.94 151.323 230.5 143.819 215.99 136.683C215.605 136.518 215.29 136.224 215.1 135.851C214.91 135.478 214.857 135.051 214.95 134.643C214.965 134.589 214.988 134.539 215.02 134.493C215.22 134.113 215.67 133.953 216.33 134.273C218.11 135.153 219.9 136.033 221.679 136.933C236.23 144.193 250.72 151.819 265.15 159.813C279.57 167.803 293.91 176.149 308.17 184.853C308.47 185.033 308.77 185.223 309.07 185.403C310.429 186.233 311.78 187.063 313.139 187.893Z" fill="white"/>
<path d="M368.19 187.896H365.55C364.949 187.066 364.36 186.236 363.76 185.406C349.66 165.866 335.563 146.326 321.469 126.786C298.389 94.7955 275.316 62.8055 252.25 30.8155C252.113 30.6434 252.011 30.4464 251.949 30.2355C251.75 29.5255 252.27 29.1055 252.94 29.1755C253.222 29.2142 253.493 29.3128 253.735 29.4645C253.976 29.6163 254.182 29.8177 254.34 30.0555C267.28 47.9955 280.216 65.9288 293.15 83.8555C316.11 115.686 339.066 147.512 362.02 179.336C363.48 181.356 364.94 183.386 366.4 185.406C367 186.236 367.6 187.066 368.19 187.896Z" fill="white"/>
<path d="M426.92 172.234C426.81 176.684 426.54 181.064 426.18 185.404C426.11 186.234 426.04 187.064 425.97 187.894H423.2C423.28 187.064 423.36 186.234 423.43 185.404C423.98 179.134 424.36 172.794 424.38 166.284C424.353 148.235 422.493 130.236 418.83 112.564C414.935 93.5347 409.391 74.881 402.26 56.8137C394.775 37.7582 385.776 19.3326 375.35 1.7137C375.154 1.42668 375.065 1.07962 375.1 0.733705C375.21 -0.0562953 376.26 -0.296294 377.05 0.453706C377.206 0.600851 377.34 0.769158 377.45 0.953706C378.74 3.14371 380.007 5.34037 381.25 7.5437C391.296 25.2629 399.913 43.7548 407.02 62.8437C413.789 80.9723 418.965 99.6563 422.49 118.684C425.79 136.336 427.275 154.279 426.92 172.234Z" fill="white"/>
<path d="M619.72 185.402H12.7197C10.4077 185.404 8.191 186.324 6.55618 187.959C4.92137 189.594 4.00203 191.81 4 194.122V605.442C4.00203 607.754 4.92137 609.971 6.55618 611.606C8.191 613.241 10.4077 614.16 12.7197 614.162H619.72C620.98 614.162 622.226 613.889 623.371 613.36C624.516 612.832 625.532 612.062 626.35 611.102C626.419 611.027 626.483 610.947 626.54 610.862C627.061 610.226 627.482 609.514 627.79 608.752C628.229 607.704 628.453 606.579 628.45 605.442V194.122C628.447 191.809 627.526 189.591 625.889 187.956C624.252 186.321 622.033 185.402 619.72 185.402ZM625.96 605.442C625.961 606.659 625.603 607.849 624.93 608.862C624.332 609.755 623.521 610.483 622.57 610.982C621.689 611.437 620.711 611.674 619.72 611.672H12.7197C11.068 611.67 9.48457 611.013 8.31665 609.845C7.14873 608.677 6.49172 607.094 6.48972 605.442V194.122C6.49171 192.471 7.14873 190.887 8.31665 189.719C9.48457 188.551 11.068 187.894 12.7197 187.892H619.72C621.373 187.892 622.959 188.548 624.129 189.716C625.299 190.884 625.957 192.469 625.96 194.122V605.442Z" fill="#3F3D56"/>
<path d="M627.199 220.355H5.24219V222.847H627.199V220.355Z" fill="#3F3D56"/>
<path d="M26.4316 211.578C30.5618 211.578 33.91 208.23 33.91 204.1C33.91 199.969 30.5618 196.621 26.4316 196.621C22.3013 196.621 18.9531 199.969 18.9531 204.1C18.9531 208.23 22.3013 211.578 26.4316 211.578Z" fill="#3F3D56"/>
<path d="M47.9325 211.578C52.0628 211.578 55.411 208.23 55.411 204.1C55.411 199.969 52.0628 196.621 47.9325 196.621C43.8023 196.621 40.4541 199.969 40.4541 204.1C40.4541 208.23 43.8023 211.578 47.9325 211.578Z" fill="#3F3D56"/>
<path d="M69.4325 211.578C73.5628 211.578 76.911 208.23 76.911 204.1C76.911 199.969 73.5628 196.621 69.4325 196.621C65.3023 196.621 61.9541 199.969 61.9541 204.1C61.9541 208.23 65.3023 211.578 69.4325 211.578Z" fill="#3F3D56"/>
<path d="M280.977 432.271C273.498 427.402 269.778 416.087 271.61 405.739C273.443 395.392 280.345 386.479 288.618 382.635C292.643 380.821 297.055 380.035 301.458 380.348C305.862 380.661 310.118 382.063 313.846 384.428C321.433 389.068 332.163 391.609 335.766 400.891C338.535 408.024 335.023 422.508 331.297 429.436C328.076 435.425 321.955 438.164 316.205 439.354C309.844 440.651 303.278 440.567 296.952 439.108C290.625 437.648 284.686 434.847 279.536 430.893L280.977 432.271Z" fill="#2F2E41"/>
<path d="M277.076 487.234L271.096 497.544L270.306 498.904L269.156 500.904H251.526L252.716 498.904L255.796 493.714L262.976 481.594L271.106 484.844L277.076 487.234Z" fill="#FFB8B8"/>
<path d="M250.206 500.901L246.986 498.901L246.586 498.651L266.796 461.821C267.665 460.227 268.842 458.821 270.258 457.685C271.674 456.549 273.301 455.704 275.046 455.201C277.248 454.545 279.581 454.459 281.826 454.951C283.136 455.228 284.396 455.7 285.566 456.351C286.047 456.615 286.512 456.909 286.956 457.231C288.665 458.43 290.069 460.012 291.056 461.851C292.23 464.005 292.811 466.432 292.737 468.883C292.663 471.335 291.938 473.723 290.636 475.801L282.846 488.251L276.186 498.901L274.936 500.901H250.206Z" fill="#2F2E41"/>
<path d="M302.13 445.345C315.695 445.345 326.691 434.348 326.691 420.784C326.691 407.219 315.695 396.223 302.13 396.223C288.566 396.223 277.569 407.219 277.569 420.784C277.569 434.348 288.566 445.345 302.13 445.345Z" fill="#FFB8B8"/>
<path d="M326.786 500.906H271.576L271.826 500.196C271.686 499.766 271.556 499.336 271.436 498.906C271.306 498.456 271.196 497.996 271.096 497.546C270.199 493.36 270.202 489.03 271.106 484.846C274.156 469.866 286.326 457.696 286.326 457.696C286.536 457.536 286.746 457.386 286.956 457.236C288.766 455.91 290.731 454.809 292.806 453.956C301.846 450.206 311.326 451.716 317.696 453.656C319.914 454.327 322.083 455.152 324.186 456.126C324.926 456.476 325.326 456.696 325.326 456.696L325.956 475.906L326.716 498.906L326.786 500.906Z" fill="#D27D2D"/>
<path d="M352.327 498.906L348.106 477.446L343.847 455.806C343.669 454.912 343.225 454.093 342.574 453.456C341.923 452.819 341.094 452.394 340.196 452.236L331.276 450.696L322.977 449.266C322.176 449.122 321.351 449.199 320.591 449.49C319.832 449.781 319.166 450.274 318.667 450.916C318.043 451.694 317.701 452.659 317.696 453.656C317.696 454.272 317.822 454.881 318.066 455.446C322.396 465.546 322.477 481.536 321.376 498.906C321.327 499.566 321.287 500.236 321.236 500.906H352.727L352.327 498.906Z" fill="#2F2E41"/>
<path d="M292.807 453.954C292.623 453.227 292.261 452.556 291.754 452.003C291.247 451.45 290.61 451.031 289.901 450.785C289.192 450.539 288.433 450.473 287.692 450.594C286.951 450.714 286.252 451.017 285.657 451.474L281.827 454.954L266.146 469.234C265.658 469.673 265.275 470.217 265.026 470.824C263.256 475.054 259.807 483.404 255.796 493.714C255.146 495.394 254.477 497.124 253.787 498.904C253.546 499.564 253.287 500.234 253.026 500.904H278.867C279.077 500.234 279.287 499.564 279.497 498.904C280.646 495.274 281.767 491.714 282.847 488.254C286.006 478.204 288.856 469.074 291.057 461.854C291.667 459.854 292.223 458.008 292.727 456.314C292.962 455.549 292.989 454.734 292.807 453.954Z" fill="#2F2E41"/>
<path d="M358.126 500.904H359.796L359.566 500.344L358.956 498.904L349.546 476.574L348.106 477.444L336.546 484.434L342.476 498.904L343.296 500.904H352.726H358.126Z" fill="#FFB8B8"/>
<path d="M348.586 458.861C347.313 455.529 344.8 452.818 341.574 451.295C338.348 449.772 334.658 449.556 331.276 450.691C330.844 450.835 330.42 451.002 330.006 451.191C327.637 452.248 325.618 453.958 324.186 456.121C323.602 456.985 323.122 457.915 322.756 458.891C322.107 460.586 321.8 462.393 321.854 464.207C321.907 466.022 322.319 467.807 323.066 469.461L325.956 475.901L336.296 498.901L337.196 500.901H358.126L359.566 500.341L363.306 498.901L363.826 498.701L348.586 458.861Z" fill="#2F2E41"/>
<path d="M321.421 392.578C322.277 392.834 323.194 392.802 324.029 392.485C324.865 392.167 325.573 391.584 326.043 390.824C326.488 390.049 326.75 389.183 326.809 388.291C326.868 387.4 326.721 386.507 326.381 385.68C325.684 384.031 324.586 382.582 323.186 381.466C321.596 380.027 319.661 379.025 317.568 378.557C316.523 378.333 315.442 378.335 314.397 378.565C313.353 378.794 312.37 379.246 311.516 379.888C310.676 380.552 310.054 381.451 309.729 382.471C309.404 383.49 309.39 384.583 309.69 385.611C310.326 387.455 312.048 388.691 313.768 389.611C317.182 391.433 320.945 392.503 324.807 392.749L321.421 392.578Z" fill="#2F2E41"/>
<path d="M326.198 420.048C322.249 420.593 322.756 418.583 321.175 414.924C319.593 411.265 317.476 406.921 313.508 406.551C310.255 406.247 307.576 408.847 304.941 410.778C300.244 414.219 293.915 415.904 288.471 413.839C283.027 411.775 279.244 405.287 281.31 399.843C281.953 398.34 282.898 396.985 284.086 395.862C285.274 394.739 286.68 393.872 288.217 393.314C291.3 392.218 294.574 391.763 297.839 391.977C305.101 392.21 312.223 394.033 318.703 397.318C323.175 399.591 327.529 402.841 329.225 407.562C330.922 412.283 332.038 418.917 327.187 420.194L326.198 420.048Z" fill="#2F2E41"/>
<path d="M319.402 379.591C317.45 376.194 319.061 371.532 322.255 369.262C325.449 366.992 329.732 366.77 333.543 367.68C337.312 368.629 340.765 370.553 343.556 373.258C346.346 375.963 348.377 379.354 349.444 383.091C351.061 389.033 350.099 395.414 351.469 401.417C352.199 404.617 353.576 407.634 355.516 410.281C357.456 412.929 359.917 415.152 362.749 416.812C365.58 418.473 368.721 419.536 371.979 419.937C375.237 420.338 378.542 420.067 381.691 419.142C385.793 417.938 389.962 415.009 390.365 410.753C390.79 415.641 389.675 420.539 387.178 424.761C384.681 428.984 380.925 432.32 376.438 434.302C371.152 436.507 365.257 436.65 359.532 436.504C355.802 436.408 351.986 436.183 348.545 434.74C346.163 433.654 344.023 432.104 342.248 430.18C340.474 428.256 339.101 425.997 338.211 423.536C336.459 418.589 335.986 413.28 336.836 408.101C337.399 404.073 338.519 400.124 338.833 396.069C339.146 392.013 338.552 387.683 336.052 384.475C333.551 381.266 328.776 379.628 325.221 381.605C323.793 382.4 322.64 383.698 321.088 384.21C319.536 384.723 317.336 383.822 317.477 382.193L319.402 379.591Z" fill="#2F2E41"/>
<path d="M487.006 500.906L487.196 498.906L492.836 440.226C494.685 438.778 496.671 437.515 498.766 436.456C510.376 430.606 521.576 433.406 527.636 435.826C529.242 436.454 530.794 437.214 532.276 438.096L535.576 498.906L535.686 500.906H487.006Z" fill="#D27D2D"/>
<path d="M513.418 424.606C526.983 424.606 537.98 413.61 537.98 400.045C537.98 386.481 526.983 375.484 513.418 375.484C499.854 375.484 488.857 386.481 488.857 400.045C488.857 413.61 499.854 424.606 513.418 424.606Z" fill="#FFB8B8"/>
<path d="M533.347 415.023C535.172 413.099 536.384 410.675 536.828 408.06C537.273 405.446 536.929 402.758 535.842 400.339C534.754 397.919 532.971 395.879 530.72 394.475C528.47 393.072 525.852 392.37 523.201 392.459C519.805 392.573 516.605 393.962 513.363 394.982C508.451 396.654 503.21 397.125 498.078 396.359C492.916 395.557 488.257 392.807 485.062 388.673C482.023 384.497 481.076 378.704 483.222 374.006C485.701 368.583 491.49 365.594 496.936 363.166C499.132 362.067 501.478 361.296 503.898 360.879C505.111 360.677 506.352 360.728 507.544 361.029C508.736 361.329 509.853 361.872 510.825 362.625C512.355 363.941 513.252 365.919 514.918 367.06C516.792 368.344 519.228 368.31 521.488 368.537C526.581 369.047 531.398 371.095 535.298 374.409C539.199 377.723 541.998 382.146 543.323 387.09C544.648 392.034 544.437 397.264 542.717 402.084C540.998 406.905 537.851 411.088 533.696 414.077L533.347 415.023Z" fill="#2F2E41"/>
<path d="M502.426 446.613L498.767 436.453L498.538 435.82C498.43 435.52 498.255 435.248 498.026 435.025C497.797 434.803 497.52 434.635 497.217 434.535C496.914 434.435 496.592 434.406 496.276 434.449C495.96 434.492 495.657 434.606 495.392 434.783L491.236 437.553C491.236 437.553 464.586 437.553 462.446 453.543C462.416 453.793 462.376 454.073 462.347 454.373C462.345 454.387 462.342 454.4 462.336 454.413C462.066 455.463 457.037 474.903 452.716 498.903C452.597 499.563 452.477 500.233 452.356 500.903H510.267C512.151 476.794 511.097 454.378 502.426 446.613Z" fill="#2F2E41"/>
<path d="M571.506 498.906C568.347 474.286 563.827 454.376 563.827 454.376C563.787 454.076 563.746 453.796 563.716 453.546C561.586 437.556 534.936 437.556 534.936 437.556L530.784 434.787C530.518 434.61 530.215 434.496 529.899 434.453C529.582 434.41 529.26 434.44 528.957 434.54C528.654 434.64 528.377 434.808 528.148 435.03C527.919 435.253 527.744 435.525 527.636 435.826L523.746 446.616C515.076 454.381 514.022 476.796 515.906 500.905L571.756 500.906C571.676 500.236 571.586 499.566 571.506 498.906Z" fill="#2F2E41"/>
<path d="M102.426 442.843L96.4858 498.903L96.2758 500.903H80.2061C80.396 500.253 80.5859 499.583 80.7861 498.903C85.3462 483.263 91.5561 460.433 90.8857 454.383C89.8359 444.943 97.186 441.793 97.186 441.793L97.646 441.883L102.426 442.843Z" fill="#D27D2D"/>
<path d="M128.342 425.54C141.907 425.54 152.903 414.544 152.903 400.979C152.903 387.414 141.907 376.418 128.342 376.418C114.778 376.418 103.781 387.414 103.781 400.979C103.781 414.544 114.778 425.54 128.342 425.54Z" fill="#A0616A"/>
<path d="M160.136 489.004C158.897 491.287 157.883 493.685 157.106 496.164C156.816 497.044 156.536 497.964 156.276 498.904C156.086 499.554 155.916 500.224 155.746 500.904H90.9658C91.0562 500.244 91.1357 499.574 91.2261 498.904C94.5361 472.754 97.2158 446.214 97.646 441.884C97.686 441.474 97.7061 441.264 97.7061 441.264C136.526 420.804 164.856 447.564 164.856 447.564C164.856 447.564 164.896 447.754 164.956 448.124C165.576 451.864 168.736 473.704 160.136 489.004Z" fill="#D27D2D"/>
<path d="M157.106 496.165L152.786 486.905L153.836 450.185L164.956 448.125L165.346 448.055C171.094 451.396 175.542 456.584 177.966 462.775C180.126 468.175 184.236 484.415 187.706 498.905C187.866 499.575 188.026 500.245 188.186 500.905H159.316L158.386 498.905L157.106 496.165Z" fill="#D27D2D"/>
<path d="M196.617 335.902H54.5967C51.5504 335.906 48.63 337.118 46.476 339.272C44.3219 341.426 43.1102 344.346 43.1064 347.392V489.412C43.1102 492.459 44.3219 495.379 46.476 497.533C48.63 499.687 51.5504 500.899 54.5967 500.902H196.617C199.663 500.9 202.585 499.689 204.739 497.535C206.893 495.38 208.105 492.459 208.106 489.412V347.392C208.105 344.346 206.893 341.424 204.739 339.27C202.585 337.116 199.663 335.904 196.617 335.902ZM206.106 489.412C206.104 491.929 205.104 494.341 203.325 496.12C201.545 497.9 199.133 498.9 196.617 498.902H54.5967C52.0809 498.899 49.6693 497.897 47.8904 496.119C46.1114 494.34 45.1103 491.928 45.1064 489.412V347.392C45.1103 344.877 46.1114 342.465 47.8904 340.686C49.6693 338.907 52.0809 337.906 54.5967 337.902H196.617C199.133 337.904 201.545 338.905 203.325 340.684C205.104 342.464 206.104 344.876 206.106 347.392V489.412ZM96.4863 498.902L96.2763 500.902H155.747C155.916 500.222 156.086 499.552 156.276 498.902H96.4863Z" fill="#3F3D56"/>
<path d="M387.226 335.902H245.206C242.16 335.906 239.239 337.118 237.085 339.272C234.931 341.426 233.72 344.346 233.716 347.392V489.412C233.72 492.459 234.931 495.379 237.085 497.533C239.239 499.687 242.16 500.899 245.206 500.902H387.226C390.273 500.9 393.194 499.689 395.348 497.535C397.503 495.38 398.714 492.459 398.716 489.412V347.392C398.714 344.346 397.503 341.424 395.348 339.27C393.194 337.116 390.273 335.904 387.226 335.902ZM396.716 489.412C396.714 491.929 395.713 494.341 393.934 496.12C392.155 497.9 389.742 498.9 387.226 498.902H245.206C242.69 498.899 240.279 497.897 238.5 496.119C236.721 494.34 235.72 491.928 235.716 489.412V347.392C235.72 344.877 236.721 342.465 238.5 340.686C240.279 338.907 242.69 337.906 245.206 337.902H387.226C389.742 337.904 392.155 338.905 393.934 340.684C395.713 342.464 396.714 344.876 396.716 347.392V489.412ZM271.436 498.902C271.556 499.332 271.686 499.762 271.826 500.192L271.576 500.902H321.236C321.286 500.232 321.326 499.562 321.376 498.902H271.436Z" fill="#3F3D56"/>
<path d="M577.846 335.902H435.826C432.779 335.904 429.858 337.115 427.703 339.27C425.549 341.424 424.338 344.346 424.336 347.392V489.412C424.338 492.459 425.549 495.38 427.703 497.535C429.858 499.689 432.779 500.9 435.826 500.902H577.846C580.892 500.899 583.813 499.687 585.967 497.533C588.121 495.379 589.332 492.458 589.336 489.412V347.392C589.332 344.346 588.121 341.426 585.967 339.272C583.813 337.118 580.892 335.906 577.846 335.902ZM587.336 489.412C587.332 491.928 586.331 494.34 584.552 496.119C582.773 497.897 580.362 498.898 577.846 498.902H435.826C433.31 498.9 430.897 497.9 429.118 496.12C427.339 494.341 426.338 491.929 426.336 489.412V347.392C426.338 344.876 427.339 342.463 429.118 340.684C430.897 338.905 433.31 337.904 435.826 337.902H577.846C580.362 337.906 582.773 338.907 584.552 340.686C586.331 342.465 587.332 344.877 587.336 347.392V489.412ZM510.416 498.902C510.366 499.562 510.316 500.232 510.266 500.902H553.356C553.436 500.242 553.526 499.572 553.606 498.902H510.416Z" fill="#3F3D56"/>
<path d="M481.221 558.902H151.221C149.099 558.902 147.064 558.059 145.564 556.559C144.064 555.059 143.221 553.024 143.221 550.902C143.221 548.781 144.064 546.746 145.564 545.245C147.064 543.745 149.099 542.902 151.221 542.902H481.221C483.342 542.902 485.377 543.745 486.878 545.245C488.378 546.746 489.221 548.781 489.221 550.902C489.221 553.024 488.378 555.059 486.878 556.559C485.377 558.059 483.342 558.902 481.221 558.902Z" fill="#CCCCCC"/>
<path d="M388.721 293.902H243.721C241.599 293.902 239.564 293.059 238.064 291.559C236.564 290.059 235.721 288.024 235.721 285.902C235.721 283.781 236.564 281.746 238.064 280.245C239.564 278.745 241.599 277.902 243.721 277.902H388.721C390.842 277.902 392.877 278.745 394.378 280.245C395.878 281.746 396.721 283.781 396.721 285.902C396.721 288.024 395.878 290.059 394.378 291.559C392.877 293.059 390.842 293.902 388.721 293.902Z" fill="#D27D2D"/>
<path d="M140.091 422.377C140.923 423.197 142.022 423.69 143.188 423.765C144.354 423.839 145.507 423.491 146.437 422.784C152.225 418.493 157.307 413.152 160.314 406.637C163.761 399.172 164.145 390.012 159.99 382.917C156.478 376.919 150.276 373.049 144.094 369.871C141.694 368.516 139.109 367.52 136.42 366.913C133.703 366.314 130.86 366.772 128.469 368.196C127.299 368.929 126.378 369.998 125.825 371.263C125.272 372.528 125.113 373.93 125.368 375.287C122.399 371.899 118.596 369.346 114.336 367.881C111.654 366.832 108.717 366.619 105.911 367.271C101.989 368.383 99.1249 371.868 97.5586 375.633C96.2919 378.496 95.8545 381.658 96.2961 384.758C96.5285 386.3 97.0822 387.777 97.9211 389.092C98.7601 390.407 99.8658 391.531 101.167 392.392C104.41 394.399 108.547 394.254 112.272 393.434C115.996 392.615 119.602 391.189 123.398 390.828C127.195 390.468 131.423 391.414 133.733 394.448C135.36 396.585 135.778 399.377 136.143 402.038L138.043 415.877C138.199 417.879 138.71 419.837 139.553 421.659C139.699 421.922 139.88 422.163 140.091 422.377Z" fill="#2F2E41"/>
</g>
</g>
<defs>
<filter id="filter0_d_2422_2393" x="0" y="0" width="632.45" height="622.164" filterUnits="userSpaceOnUse" color-interpolation-filters="sRGB">
<feFlood flood-opacity="0" result="BackgroundImageFix"/>
<feColorMatrix in="SourceAlpha" type="matrix" values="0 0 0 0 0 0 0 0 0 0 0 0 0 0 0 0 0 0 127 0" result="hardAlpha"/>
<feOffset dy="4"/>
<feGaussianBlur stdDeviation="2"/>
<feComposite in2="hardAlpha" operator="out"/>
<feColorMatrix type="matrix" values="0 0 0 0 0 0 0 0 0 0 0 0 0 0 0 0 0 0 0.25 0"/>
<feBlend mode="normal" in2="BackgroundImageFix" result="effect1_dropShadow_2422_2393"/>
<feBlend mode="normal" in="SourceGraphic" in2="effect1_dropShadow_2422_2393" result="shape"/>
</filter>
</defs>
</svg>
