<svg width="500" height="500" viewBox="0 0 500 500" fill="none" xmlns="http://www.w3.org/2000/svg">
<path d="M373.5 364C375.985 364 378 361.985 378 359.5C378 357.015 375.985 355 373.5 355C371.015 355 369 357.015 369 359.5C369 361.985 371.015 364 373.5 364Z" stroke="#FFFB18" stroke-linejoin="round"/>
<path d="M432 409C434.485 409 436.5 406.985 436.5 404.5C436.5 402.015 434.485 400 432 400C429.515 400 427.5 402.015 427.5 404.5C427.5 406.985 429.515 409 432 409Z" stroke="#FFFB18" stroke-linejoin="round"/>
<path d="M352 406C354.485 406 356.5 403.985 356.5 401.5C356.5 399.015 354.485 397 352 397C349.515 397 347.5 399.015 347.5 401.5C347.5 403.985 349.515 406 352 406Z" stroke="#FFFB18" stroke-miterlimit="10"/>
<path d="M378.5 403C382.642 403 386 399.642 386 395.5C386 391.358 382.642 388 378.5 388C374.358 388 371 391.358 371 395.5C371 399.642 374.358 403 378.5 403Z" stroke="#FFFB18" stroke-linejoin="round"/>
<path d="M369.5 433.5C371.985 433.5 374 431.485 374 429C374 426.515 371.985 424.5 369.5 424.5C367.015 424.5 365 426.515 365 429C365 431.485 367.015 433.5 369.5 433.5Z" stroke="#FFFB18" stroke-linejoin="round"/>
<path d="M464.5 441.5C466.985 441.5 469 439.485 469 437C469 434.515 466.985 432.5 464.5 432.5C462.015 432.5 460 434.515 460 437C460 439.485 462.015 441.5 464.5 441.5Z" stroke="#FFFB18" stroke-linejoin="round"/>
<path d="M469 365C471.485 365 473.5 362.985 473.5 360.5C473.5 358.015 471.485 356 469 356C466.515 356 464.5 358.015 464.5 360.5C464.5 362.985 466.515 365 469 365Z" stroke="#FFFB18" stroke-linejoin="round"/>
<path d="M432.5 353.5C434.985 353.5 437 351.485 437 349C437 346.515 434.985 344.5 432.5 344.5C430.015 344.5 428 346.515 428 349C428 351.485 430.015 353.5 432.5 353.5Z" stroke="#FFFB18" stroke-linejoin="round"/>
<path d="M447.5 377.5C451.642 377.5 455 374.142 455 370C455 365.858 451.642 362.5 447.5 362.5C443.358 362.5 440 365.858 440 370C440 374.142 443.358 377.5 447.5 377.5Z" stroke="#FFFB18" stroke-linejoin="round"/>
<path d="M377 361.5L428.5 401.5" stroke="#FFFB18" stroke-linejoin="round"/>
<path d="M434 401L445 377.5" stroke="#FFFB18" stroke-linejoin="round"/>
<path d="M450 377.5L464.5 432.5L469 365" stroke="#FFFB18" stroke-linejoin="round"/>
<path d="M427.5 407L374 429" stroke="#FFFB18" stroke-linejoin="round"/>
<path d="M386 395.5L440.5 372.5" stroke="#FFFB18" stroke-linejoin="round"/>
<path d="M376.5 388L373.5 364" stroke="#FFFB18" stroke-linejoin="round"/>
<path d="M455 367.5L465 363" stroke="#FFFB18" stroke-linejoin="round"/>
<path d="M354.5 405.5L366.5 425" stroke="#FFFB18" stroke-linejoin="round"/>
<path d="M352 397L370.5 363" stroke="#FFFB18" stroke-linejoin="round"/>
<path d="M384 401L460 437" stroke="#FFFB18" stroke-linejoin="round"/>
<path d="M432 409L462 434" stroke="#FFFB18" stroke-linejoin="round"/>
<path d="M378 359.5L440 370" stroke="#FFFB18" stroke-linejoin="round"/>
<path d="M464.5 360.5L377 357.5" stroke="#FFFB18" stroke-linejoin="round"/>
<path d="M465 358.5L437 351.5" stroke="#FFFB18" stroke-linejoin="round"/>
<path d="M428 351L372.5 425.5" stroke="#FFFB18" stroke-linejoin="round"/>
<path d="M371 398L356.5 401.5" stroke="#FFFB18" stroke-linejoin="round"/>
<path d="M402.32 363.28V363.282C402.321 363.493 402.28 363.702 402.2 363.897C402.121 364.092 402.003 364.269 401.854 364.419C401.706 364.568 401.529 364.686 401.334 364.767C401.139 364.848 400.931 364.89 400.72 364.89H400.718C400.399 364.891 400.087 364.798 399.821 364.622C399.555 364.446 399.348 364.195 399.225 363.901C399.102 363.607 399.069 363.283 399.13 362.97C399.191 362.658 399.344 362.37 399.569 362.144C399.794 361.918 400.081 361.764 400.393 361.701C400.706 361.639 401.03 361.67 401.324 361.792C401.619 361.913 401.871 362.12 402.048 362.385C402.225 362.65 402.32 362.961 402.32 363.28Z" fill="#263238" stroke="#FFFB18"/>
<path d="M381.31 415.598V415.6C381.31 415.811 381.268 416.02 381.187 416.215C381.106 416.409 380.988 416.586 380.839 416.735C380.689 416.883 380.512 417.001 380.317 417.081C380.122 417.161 379.913 417.202 379.702 417.2H379.7C379.381 417.2 379.069 417.106 378.805 416.929C378.54 416.751 378.333 416.499 378.212 416.205C378.09 415.91 378.059 415.586 378.121 415.274C378.184 414.961 378.338 414.674 378.564 414.449C378.79 414.224 379.078 414.072 379.39 414.01C379.703 413.949 380.027 413.982 380.321 414.105C380.615 414.228 380.866 414.436 381.042 414.702C381.218 414.967 381.311 415.279 381.31 415.598Z" fill="#263238" stroke="#FFFB18"/>
<path d="M440.27 390.938V390.94C440.27 391.365 440.101 391.772 439.801 392.072C439.501 392.372 439.094 392.54 438.67 392.54H438.667C438.348 392.542 438.036 392.448 437.77 392.272C437.504 392.096 437.297 391.844 437.174 391.55C437.051 391.255 437.018 390.931 437.08 390.618C437.142 390.305 437.296 390.017 437.521 389.792C437.747 389.566 438.035 389.413 438.348 389.351C438.661 389.289 438.985 389.322 439.279 389.444C439.574 389.567 439.825 389.775 440.002 390.041C440.178 390.307 440.271 390.619 440.27 390.938Z" fill="#263238" stroke="#FFFB18"/>
<path d="M439.452 425.561C439.628 425.826 439.721 426.138 439.72 426.456C439.716 426.882 439.544 427.288 439.243 427.588C438.941 427.888 438.534 428.058 438.109 428.06C437.79 428.06 437.479 427.965 437.215 427.788C436.95 427.611 436.743 427.359 436.622 427.064C436.5 426.77 436.469 426.445 436.531 426.133C436.594 425.82 436.748 425.534 436.974 425.309C437.2 425.084 437.488 424.931 437.801 424.87C438.113 424.809 438.437 424.842 438.731 424.965C439.025 425.088 439.276 425.295 439.452 425.561Z" fill="#263238" stroke="#FFFB18"/>
<path d="M364.5 377.569V377.571C364.501 377.782 364.46 377.991 364.38 378.186C364.3 378.381 364.183 378.558 364.034 378.708C363.885 378.857 363.708 378.976 363.514 379.056C363.319 379.137 363.111 379.179 362.9 379.179H362.897C362.579 379.18 362.267 379.087 362.001 378.911C361.735 378.735 361.528 378.484 361.405 378.19C361.282 377.896 361.249 377.572 361.31 377.26C361.371 376.947 361.524 376.659 361.749 376.433C361.973 376.207 362.26 376.053 362.573 375.99C362.885 375.928 363.209 375.959 363.504 376.081C363.799 376.202 364.051 376.409 364.228 376.674C364.405 376.939 364.5 377.25 364.5 377.569Z" fill="#263238" stroke="#FFFB18"/>
<path d="M469.53 374.19C469.53 375.074 468.814 375.79 467.93 375.79C467.046 375.79 466.33 375.074 466.33 374.19C466.33 373.306 467.046 372.59 467.93 372.59C468.814 372.59 469.53 373.306 469.53 374.19Z" fill="#263238" stroke="#FFFB18"/>
<path d="M391.8 291.719V240.449C391.799 240.11 391.865 239.774 391.994 239.46C392.123 239.147 392.313 238.862 392.553 238.622C392.793 238.382 393.078 238.192 393.391 238.063C393.705 237.934 394.041 237.868 394.38 237.869H448.21C448.55 237.868 448.887 237.934 449.201 238.063C449.515 238.192 449.8 238.382 450.041 238.621C450.282 238.861 450.473 239.146 450.603 239.46C450.733 239.773 450.8 240.11 450.8 240.449V242.449" stroke="#FFFB18" stroke-miterlimit="10"/>
<path d="M396.36 297.869H394.36C394.021 297.869 393.684 297.802 393.371 297.672C393.057 297.542 392.772 297.351 392.532 297.11C392.293 296.869 392.103 296.584 391.974 296.27C391.845 295.956 391.779 295.619 391.78 295.279" stroke="#FFFB18" stroke-miterlimit="10"/>
<path d="M450.8 245.908V295.278C450.8 295.965 450.527 296.624 450.041 297.11C449.556 297.595 448.897 297.868 448.21 297.868H400.06" stroke="#FFFB18" stroke-miterlimit="10"/>
<path d="M408.51 260.529V254.869H434.08V280.869H426.18" stroke="#FFFB18" stroke-miterlimit="10"/>
<path d="M408.51 267.939V264.039" stroke="#FFFB18" stroke-miterlimit="10"/>
<path d="M423.06 280.869H408.51V271.449" stroke="#FFFB18" stroke-miterlimit="10"/>
<path d="M403.91 238.33V222.1" stroke="#FFFB18" stroke-miterlimit="10"/>
<path d="M415.5 238.33V222.1" stroke="#FFFB18" stroke-miterlimit="10"/>
<path d="M427.09 238.33V222.1" stroke="#FFFB18" stroke-miterlimit="10"/>
<path d="M438.68 238.33V222.1" stroke="#FFFB18" stroke-miterlimit="10"/>
<path d="M403.91 314.249V298.029" stroke="#FFFB18" stroke-miterlimit="10"/>
<path d="M415.5 314.249V298.029" stroke="#FFFB18" stroke-miterlimit="10"/>
<path d="M427.09 314.249V298.029" stroke="#FFFB18" stroke-miterlimit="10"/>
<path d="M438.68 314.249V298.029" stroke="#FFFB18" stroke-miterlimit="10"/>
<path d="M451.14 250.789H467.37" stroke="#FFFB18" stroke-miterlimit="10"/>
<path d="M451.14 262.381H467.37" stroke="#FFFB18" stroke-miterlimit="10"/>
<path d="M451.14 273.971H467.37" stroke="#FFFB18" stroke-miterlimit="10"/>
<path d="M451.14 285.561H467.37" stroke="#FFFB18" stroke-miterlimit="10"/>
<path d="M375.22 250.789H391.45" stroke="#FFFB18" stroke-miterlimit="10"/>
<path d="M375.22 262.381H391.45" stroke="#FFFB18" stroke-miterlimit="10"/>
<path d="M375.22 273.971H391.45" stroke="#FFFB18" stroke-miterlimit="10"/>
<path d="M375.22 285.561H391.45" stroke="#FFFB18" stroke-miterlimit="10"/>
<path d="M468.709 273.104C468.886 273.369 468.98 273.68 468.98 273.999C468.98 274.426 468.811 274.835 468.509 275.137C468.207 275.439 467.797 275.609 467.37 275.609C467.052 275.609 466.741 275.514 466.476 275.337C466.211 275.16 466.005 274.909 465.883 274.615C465.761 274.321 465.729 273.997 465.791 273.685C465.853 273.372 466.007 273.085 466.232 272.86C466.457 272.635 466.744 272.482 467.056 272.42C467.368 272.357 467.692 272.389 467.986 272.511C468.281 272.633 468.532 272.839 468.709 273.104Z" fill="#263238" stroke="#FFFB18"/>
<path d="M398.7 237.442C398.876 237.705 398.97 238.014 398.97 238.33C398.97 238.755 398.801 239.162 398.501 239.462C398.201 239.762 397.794 239.93 397.37 239.93C397.054 239.93 396.744 239.837 396.481 239.661C396.218 239.485 396.013 239.235 395.892 238.943C395.771 238.65 395.739 238.329 395.801 238.018C395.863 237.708 396.015 237.423 396.239 237.199C396.462 236.975 396.747 236.823 397.058 236.761C397.368 236.7 397.69 236.731 397.982 236.852C398.275 236.973 398.525 237.178 398.7 237.442Z" fill="#263238" stroke="#FFFB18"/>
<path d="M384.171 284.199C384.346 284.462 384.44 284.772 384.44 285.088C384.44 285.298 384.399 285.506 384.318 285.701C384.238 285.895 384.12 286.071 383.972 286.22C383.823 286.368 383.647 286.486 383.453 286.566C383.258 286.647 383.05 286.688 382.84 286.688C382.524 286.688 382.214 286.594 381.951 286.419C381.688 286.243 381.483 285.993 381.362 285.701C381.241 285.408 381.209 285.086 381.271 284.776C381.333 284.466 381.485 284.181 381.709 283.957C381.933 283.733 382.218 283.581 382.528 283.519C382.838 283.457 383.16 283.489 383.453 283.61C383.745 283.731 383.995 283.936 384.171 284.199Z" fill="#263238" stroke="#FFFB18"/>
<path d="M428.69 227.338C428.69 228.222 427.974 228.938 427.09 228.938C426.207 228.938 425.49 228.222 425.49 227.338C425.49 226.455 426.207 225.738 427.09 225.738C427.974 225.738 428.69 226.455 428.69 227.338Z" fill="#263238" stroke="#FFFB18"/>
<path d="M422.231 297.11C422.406 297.372 422.5 297.681 422.5 297.997C422.498 298.421 422.329 298.827 422.029 299.127C421.729 299.427 421.323 299.596 420.899 299.598C420.583 299.598 420.274 299.504 420.011 299.329C419.748 299.153 419.543 298.903 419.422 298.611C419.301 298.318 419.269 297.997 419.331 297.686C419.393 297.376 419.545 297.091 419.769 296.867C419.993 296.643 420.278 296.491 420.588 296.429C420.898 296.367 421.22 296.399 421.513 296.52C421.805 296.641 422.055 296.846 422.231 297.11Z" fill="#263238" stroke="#FFFB18"/>
<path d="M440.31 309.256V309.259C440.31 309.683 440.142 310.09 439.842 310.39C439.542 310.69 439.135 310.859 438.71 310.859H438.708C438.389 310.86 438.077 310.767 437.811 310.59C437.545 310.414 437.337 310.163 437.214 309.868C437.092 309.574 437.059 309.249 437.121 308.936C437.183 308.623 437.336 308.336 437.562 308.11C437.788 307.885 438.075 307.731 438.388 307.669C438.701 307.607 439.025 307.64 439.32 307.763C439.614 307.885 439.866 308.093 440.042 308.359C440.218 308.625 440.312 308.937 440.31 309.256Z" fill="#263238" stroke="#FFFB18"/>
<path d="M348.86 76.7207C348.86 76.7207 344.66 77.7207 343.36 80.9307C342.06 84.1407 333 105.861 333 108.451C333.091 110.146 333.778 111.754 334.94 112.991L356.31 121.731C356.31 121.731 360.84 120.431 364.4 121.081C367.96 121.731 370.23 127.881 373.79 128.531C377.35 129.181 392.25 128.201 399.37 124.961C406.49 121.721 408.76 111.691 408.76 104.891C408.76 98.0907 406.49 91.2907 404.55 90.0007L401.64 88.0607" stroke="#FFFB18" stroke-miterlimit="10"/>
<path d="M396.78 84.8209C396.78 84.8209 394.51 82.8809 400.34 83.8209C406.17 84.7609 420.74 103.891 425.6 110.041C430.46 116.191 435.31 116.521 439.19 112.631C443.07 108.741 440.19 103.891 438.87 101.301C437.55 98.7109 432.07 92.2309 430.13 87.7009C428.19 83.1709 422.68 71.5109 418.13 68.6009C413.58 65.6909 406.8 65.0409 396.44 69.2509C386.08 73.4609 381.22 77.0209 381.22 77.0209" stroke="#FFFB18" stroke-miterlimit="10"/>
<path d="M352.75 76.4013L373.15 75.1113" stroke="#FFFB18" stroke-miterlimit="10"/>
<path d="M363.43 115.25C367.32 113.96 366.99 112.01 370.88 106.83C374.77 101.65 379.3 84.1695 379.62 81.8995C379.797 80.5258 379.439 79.1367 378.62 78.0195L398.05 87.7895" stroke="#FFFB18" stroke-miterlimit="10"/>
<path d="M339.8 113H357.61C360.776 110.693 363.241 107.554 364.73 103.93C366.99 98.1001 371.53 84.8301 372.82 81.9301C373.216 81.1833 373.424 80.3506 373.424 79.5051C373.424 78.6595 373.216 77.8269 372.82 77.0801" stroke="#FFFB18" stroke-miterlimit="10"/>
<path d="M359.55 120.76C359.55 120.76 350.48 115.9 354.69 116.55C358.9 117.2 368.29 123.02 375.09 123.02C381.89 123.02 384.48 119.14 387.72 113.96C390.96 108.78 398.72 94.8504 398.72 90.6504" stroke="#FFFB18" stroke-miterlimit="10"/>
<path d="M427.54 122.371C427.54 122.371 433.04 115.251 438.22 121.731C443.4 128.211 436.28 138.241 433.37 141.151C430.46 144.061 422.37 144.071 421.06 143.421C420.234 142.99 419.473 142.444 418.8 141.801" stroke="#FFFB18" stroke-miterlimit="10"/>
<path d="M433 115.251L449.84 134.681C449.84 134.681 450.16 129.501 453.08 127.231C454.393 126.142 455.799 125.168 457.28 124.321L441.74 108.131" stroke="#FFFB18" stroke-miterlimit="10"/>
<path d="M459.27 125H461.53C461.53 125 467.36 132.13 467.36 134.07C467.36 136.01 458.3 148.96 455.36 148.96C452.42 148.96 448.24 146.7 448.24 146.7C448.24 146.7 449.86 144.43 451.15 142.16C452.44 139.89 451.15 136.66 451.15 136.66C451.15 136.66 456.98 140.87 456.01 146.37" stroke="#FFFB18" stroke-miterlimit="10"/>
<path d="M363.81 164.82C369.69 166.12 380.4 166.31 382.54 167.38C385.13 168.67 390.95 184.86 390.95 184.86" stroke="#FFFB18" stroke-miterlimit="10"/>
<path d="M358.9 122.699C358.9 122.699 355.99 124.639 357.61 127.229C359.23 129.819 362.79 131.439 362.79 131.439C362.79 131.439 357.93 136.619 358.9 138.889C359.462 140.347 359.462 141.961 358.9 143.419C358.9 143.419 357.9 146.329 358.25 147.949C358.6 149.569 358.9 152.159 358.9 152.159C358.9 152.159 356.96 161.549 360.84 163.819" stroke="#FFFB18" stroke-miterlimit="10"/>
<path d="M448.26 146.66C448.26 146.66 442.11 152.16 441.78 158.96C441.45 165.76 440.78 167.7 440.78 167.7" stroke="#FFFB18" stroke-miterlimit="10"/>
<path d="M464.86 115.73C464.445 118.434 463.775 121.093 462.86 123.67" stroke="#FFFB18" stroke-miterlimit="10"/>
<path d="M465.46 106C465.52 107.4 465.51 108.76 465.46 110.07" stroke="#FFFB18" stroke-miterlimit="10"/>
<path d="M416.85 65.7203C416.85 65.7203 436.6 62.1503 453.76 79.3103C460.006 85.4428 464.007 93.4982 465.12 102.18" stroke="#FFFB18" stroke-miterlimit="10"/>
<path d="M341.31 89.8808C341.31 90.8915 340.491 91.7108 339.48 91.7108C338.469 91.7108 337.65 90.8915 337.65 89.8808C337.65 88.8701 338.469 88.0508 339.48 88.0508C340.491 88.0508 341.31 88.8701 341.31 89.8808Z" fill="#263238" stroke="#FFFB18"/>
<path d="M389.06 127.439C389.06 128.45 388.241 129.269 387.23 129.269C386.219 129.269 385.4 128.45 385.4 127.439C385.4 126.429 386.219 125.609 387.23 125.609C388.241 125.609 389.06 126.429 389.06 127.439Z" fill="#263238" stroke="#FFFB18"/>
<path d="M385.28 167.041C385.28 168.052 384.461 168.871 383.45 168.871C382.439 168.871 381.62 168.052 381.62 167.041C381.62 166.03 382.439 165.211 383.45 165.211C384.461 165.211 385.28 166.03 385.28 167.041Z" fill="#263238" stroke="#FFFB18"/>
<path d="M427.42 110.07V110.072C427.421 110.312 427.374 110.55 427.283 110.771C427.192 110.993 427.059 111.195 426.889 111.364C426.72 111.534 426.519 111.669 426.298 111.761C426.077 111.853 425.839 111.9 425.6 111.9H425.598C425.235 111.902 424.881 111.796 424.579 111.596C424.277 111.395 424.041 111.11 423.901 110.776C423.762 110.442 423.724 110.074 423.794 109.718C423.864 109.363 424.037 109.036 424.293 108.779C424.549 108.522 424.875 108.347 425.23 108.276C425.585 108.205 425.953 108.241 426.288 108.379C426.623 108.517 426.909 108.752 427.111 109.053C427.312 109.354 427.42 109.708 427.42 110.07Z" fill="#263238" stroke="#FFFB18"/>
<path d="M424.3 73.5702C424.3 74.5809 423.481 75.4002 422.47 75.4002C421.459 75.4002 420.64 74.5809 420.64 73.5702C420.64 72.5596 421.459 71.7402 422.47 71.7402C423.481 71.7402 424.3 72.5596 424.3 73.5702Z" fill="#263238" stroke="#FFFB18"/>
<path d="M384.23 76.4706C384.23 77.4813 383.41 78.3006 382.4 78.3006C381.389 78.3006 380.57 77.4813 380.57 76.4706C380.57 75.4599 381.389 74.6406 382.4 74.6406C383.41 74.6406 384.23 75.4599 384.23 76.4706Z" fill="#263238" stroke="#FFFB18"/>
<path d="M462.15 125.109C462.15 126.12 461.331 126.939 460.32 126.939C459.31 126.939 458.49 126.12 458.49 125.109C458.49 124.099 459.31 123.279 460.32 123.279C461.331 123.279 462.15 124.099 462.15 125.109Z" fill="#263238" stroke="#FFFB18"/>
<path d="M74.1103 70.6309H70.0103" stroke="#FFFB18" stroke-miterlimit="10"/>
<path d="M55.7402 117.7H74.1102C74.9197 117.705 75.716 117.495 76.4185 117.093C77.121 116.691 77.7046 116.11 78.1102 115.41L89.0002 96.4597C89.4031 95.7619 89.6152 94.9704 89.6152 94.1647C89.6152 93.359 89.4031 92.5675 89.0002 91.8697L78.0902 72.9297" stroke="#FFFB18" stroke-miterlimit="10"/>
<path d="M66.19 70.6289H52.19C51.3798 70.626 50.5832 70.8372 49.8808 71.2411C49.1784 71.645 48.5951 72.2272 48.19 72.9289L37.32 91.8689C36.9172 92.5667 36.7051 93.3582 36.7051 94.1639C36.7051 94.9696 36.9172 95.7611 37.32 96.4589L48.26 115.459C48.6656 116.159 49.2493 116.74 49.9517 117.142C50.6542 117.545 51.4506 117.754 52.26 117.749" stroke="#FFFB18" stroke-miterlimit="10"/>
<path d="M88.8599 135.17L91.9999 140.59C92.4047 141.292 92.9881 141.873 93.6908 142.275C94.3935 142.677 95.1902 142.886 95.9999 142.88H117.88C118.69 142.886 119.486 142.677 120.189 142.275C120.892 141.873 121.475 141.292 121.88 140.59L132.82 121.59C133.223 120.894 133.435 120.104 133.435 119.3C133.435 118.496 133.223 117.706 132.82 117.01L126.36 105.82" stroke="#FFFB18" stroke-miterlimit="10"/>
<path d="M86.0498 130.289L87.6598 133.079" stroke="#FFFB18" stroke-miterlimit="10"/>
<path d="M124.29 102.391L121.82 98.1106C121.416 97.4082 120.833 96.8254 120.13 96.4214C119.427 96.0175 118.63 95.8067 117.82 95.8106H96C95.1895 95.8067 94.3925 96.0175 93.69 96.4214C92.9874 96.8254 92.4043 97.4082 92 98.1106L81.06 117.111C80.657 117.807 80.4448 118.596 80.4448 119.401C80.4448 120.205 80.657 120.995 81.06 121.691L84.29 127.301" stroke="#FFFB18" stroke-miterlimit="10"/>
<path d="M88.2403 53.5898L81.0603 65.9998C80.6574 66.6976 80.4453 67.4891 80.4453 68.2948C80.4453 69.1006 80.6574 69.8921 81.0603 70.5898L92.0003 89.5698C92.4051 90.271 92.9885 90.8524 93.6912 91.2547C94.3939 91.657 95.1906 91.8658 96.0003 91.8598H117.88C118.69 91.8658 119.487 91.657 120.189 91.2547C120.892 90.8524 121.475 90.271 121.88 89.5698L132.82 70.6198C133.223 69.9221 133.435 69.1306 133.435 68.3248C133.435 67.5191 133.223 66.7276 132.82 66.0298L132 64.7598" stroke="#FFFB18" stroke-miterlimit="10"/>
<path d="M91.9998 47.0801L90.2798 50.0601" stroke="#FFFB18" stroke-miterlimit="10"/>
<path d="M130.83 62.6811L121.83 47.0811C121.425 46.3799 120.842 45.7985 120.139 45.3962C119.437 44.9939 118.64 44.7851 117.83 44.7911H96.0002C95.6395 44.7892 95.28 44.8329 94.9302 44.9211" stroke="#FFFB18" stroke-miterlimit="10"/>
<path d="M161.58 70.0001H139.7C138.891 69.9942 138.094 70.203 137.391 70.6053C136.689 71.0076 136.105 71.5889 135.7 72.2901L124.79 91.2101C124.387 91.9079 124.175 92.6994 124.175 93.5051C124.175 94.3108 124.387 95.1024 124.79 95.8001L135.73 114.8C136.135 115.501 136.719 116.083 137.421 116.485C138.124 116.887 138.921 117.096 139.73 117.09H161.61C162.42 117.095 163.216 116.886 163.919 116.484C164.621 116.081 165.205 115.501 165.61 114.8L176.54 95.8001C176.943 95.1024 177.155 94.3108 177.155 93.5051C177.155 92.6994 176.943 91.9079 176.54 91.2101L165.56 72.2601C165.153 71.5681 164.57 70.9952 163.872 70.5987C163.174 70.2021 162.383 69.9957 161.58 70.0001Z" stroke="#FFFB18" stroke-miterlimit="10"/>
<path d="M117.58 148H95.7C94.8903 147.994 94.0936 148.203 93.3909 148.605C92.6882 149.008 92.1048 149.589 91.7 150.29L80.76 169.29C80.3571 169.988 80.145 170.779 80.145 171.585C80.145 172.391 80.3571 173.182 80.76 173.88L91.7 192.83C92.1048 193.531 92.6882 194.113 93.3909 194.515C94.0936 194.917 94.8903 195.126 95.7 195.12H117.58C118.389 195.125 119.186 194.916 119.888 194.514C120.591 194.111 121.174 193.531 121.58 192.83L132.51 173.88C132.913 173.182 133.125 172.391 133.125 171.585C133.125 170.779 132.913 169.988 132.51 169.29L121.58 150.29C121.174 149.59 120.591 149.009 119.888 148.607C119.186 148.204 118.389 147.995 117.58 148Z" stroke="#FFFB18" stroke-miterlimit="10"/>
<path d="M169.13 161.61L177.48 147.14C177.883 146.444 178.095 145.654 178.095 144.85C178.095 144.046 177.883 143.256 177.48 142.56L166.54 123.56C166.136 122.857 165.553 122.275 164.85 121.871C164.147 121.467 163.35 121.256 162.54 121.26H140.69C139.879 121.256 139.082 121.467 138.38 121.871C137.677 122.275 137.094 122.857 136.69 123.56L125.75 142.56C125.347 143.256 125.135 144.046 125.135 144.85C125.135 145.654 125.347 146.444 125.75 147.14L136.69 166.14C137.094 166.842 137.677 167.425 138.38 167.829C139.082 168.233 139.879 168.444 140.69 168.44H158.21" stroke="#FFFB18" stroke-miterlimit="10"/>
<path d="M162.57 168.389C163.38 168.393 164.177 168.182 164.88 167.778C165.582 167.374 166.165 166.792 166.57 166.089L167.23 164.949" stroke="#FFFB18" stroke-miterlimit="10"/>
<path d="M117.81 126.42L120.48 127.02L121.1 124.32L118.54 123.74C118.54 123.66 118.54 123.58 118.54 123.51C118.544 122.688 118.377 121.874 118.05 121.12L120.13 119.46L118.4 117.29L116.4 118.88C115.709 118.275 114.887 117.837 114 117.6V115H111.22V117.48C110.31 117.665 109.452 118.051 108.71 118.61L106.71 117.01L105 119.19L107 120.76C106.584 121.579 106.362 122.482 106.35 123.4L103.79 123.99L104.41 126.69L106.93 126.11C107.309 126.924 107.862 127.644 108.55 128.22L107.38 130.65L109.88 131.86L111.03 129.46C111.501 129.576 111.985 129.637 112.47 129.64C112.86 129.636 113.248 129.596 113.63 129.52L114.83 132L117.33 130.8L116.16 128.39C116.844 127.859 117.407 127.187 117.81 126.42ZM109.7 123.51C109.7 122.972 109.86 122.446 110.158 121.999C110.457 121.552 110.882 121.203 111.379 120.997C111.876 120.791 112.423 120.737 112.951 120.842C113.478 120.947 113.963 121.206 114.343 121.587C114.724 121.967 114.983 122.452 115.088 122.979C115.193 123.507 115.139 124.054 114.933 124.551C114.727 125.048 114.378 125.473 113.931 125.772C113.484 126.07 112.958 126.23 112.42 126.23C111.699 126.23 111.007 125.943 110.497 125.433C109.987 124.923 109.7 124.231 109.7 123.51Z" stroke="#FFFB18" stroke-miterlimit="10"/>
<path d="M104.81 115.48L107.47 116.09L108.09 113.39L105.53 112.8C105.53 112.72 105.53 112.65 105.53 112.57C105.531 111.749 105.368 110.937 105.05 110.18L107.12 108.53L105.39 106.36L103.39 107.94C102.692 107.339 101.869 106.902 100.98 106.66V104.08H98.23V106.56C97.3182 106.741 96.4597 107.127 95.72 107.69L93.72 106.09L92 108.26L94 109.82C93.5847 110.643 93.3624 111.549 93.35 112.47L90.79 113.05L91.41 115.75L93.93 115.18C94.3117 115.989 94.8644 116.706 95.55 117.28L94.38 119.72L96.88 120.92L98.03 118.52C98.5004 118.641 98.9843 118.702 99.47 118.7C99.8593 118.7 100.248 118.663 100.63 118.59L101.83 121.07L104.33 119.87L103.17 117.45C103.85 116.917 104.409 116.245 104.81 115.48ZM96.69 112.57C96.69 112.032 96.8496 111.506 97.1484 111.059C97.4473 110.612 97.8721 110.263 98.3691 110.057C98.8662 109.851 99.4131 109.797 99.9407 109.902C100.468 110.007 100.953 110.266 101.333 110.647C101.714 111.027 101.973 111.512 102.078 112.039C102.183 112.567 102.129 113.114 101.923 113.611C101.717 114.108 101.368 114.533 100.921 114.832C100.474 115.131 99.948 115.29 99.41 115.29C98.6887 115.29 97.9968 115.004 97.4867 114.493C96.9766 113.983 96.69 113.291 96.69 112.57Z" stroke="#FFFB18" stroke-miterlimit="10"/>
<path d="M156.071 95.0582C157.973 90.4958 155.816 85.2554 151.254 83.3535C146.692 81.4515 141.451 83.6083 139.549 88.1706C137.647 92.733 139.804 97.9734 144.366 99.8753C148.929 101.777 154.169 99.6206 156.071 95.0582Z" stroke="#FFFB18" stroke-miterlimit="10"/>
<path d="M147.81 99.2195C152.007 99.2195 155.41 95.8169 155.41 91.6195C155.41 87.4221 152.007 84.0195 147.81 84.0195C143.613 84.0195 140.21 87.4221 140.21 91.6195C140.21 95.8169 143.613 99.2195 147.81 99.2195Z" stroke="#FFFB18" stroke-miterlimit="10"/>
<path d="M157.88 101.08L163.81 106" stroke="#FFFB18" stroke-width="3" stroke-miterlimit="10"/>
<path d="M154.32 98.1309L157.88 101.081" stroke="#FFFB18" stroke-width="2" stroke-miterlimit="10"/>
<path d="M49.5698 88.1797H76.1698" stroke="#FFFB18" stroke-miterlimit="10"/>
<path d="M55.2603 86.7109H52.5103V89.4609H55.2603V86.7109Z" fill="#FFFB18"/>
<path d="M49.5698 94.4102H76.1698" stroke="#FFFB18" stroke-miterlimit="10"/>
<path d="M69.4702 92.9512H66.7202V95.7012H69.4702V92.9512Z" fill="#FFFB18"/>
<path d="M49.5698 100.65H76.1698" stroke="#FFFB18" stroke-miterlimit="10"/>
<path d="M63.1401 99.1797H60.3901V101.93H63.1401V99.1797Z" fill="#FFFB18"/>
<path d="M151 170.331C152.16 170.331 153.1 169.391 153.1 168.231C153.1 167.071 152.16 166.131 151 166.131C149.84 166.131 148.9 167.071 148.9 168.231C148.9 169.391 149.84 170.331 151 170.331Z" fill="#FFFB18"/>
<path d="M167.38 127.171C168.54 127.171 169.48 126.231 169.48 125.071C169.48 123.911 168.54 122.971 167.38 122.971C166.22 122.971 165.28 123.911 165.28 125.071C165.28 126.231 166.22 127.171 167.38 127.171Z" fill="#FFFB18"/>
<path d="M105.76 96.2704C105.762 95.8522 105.64 95.4429 105.409 95.0944C105.178 94.7459 104.848 94.4739 104.462 94.3129C104.076 94.152 103.651 94.1094 103.241 94.1904C102.831 94.2715 102.454 94.4727 102.158 94.7684C101.862 95.0641 101.661 95.441 101.58 95.8512C101.499 96.2614 101.542 96.6865 101.703 97.0725C101.864 97.4584 102.136 97.7879 102.484 98.0189C102.833 98.25 103.242 98.3723 103.66 98.3704C104.217 98.3704 104.751 98.1491 105.145 97.7553C105.539 97.3615 105.76 96.8273 105.76 96.2704Z" fill="#FFFB18"/>
<path d="M128.19 54.7191C128.19 54.3038 128.067 53.8978 127.836 53.5524C127.606 53.2071 127.278 52.9379 126.894 52.779C126.51 52.62 126.088 52.5784 125.681 52.6595C125.273 52.7405 124.899 52.9405 124.605 53.2342C124.312 53.5279 124.112 53.9021 124.031 54.3094C123.95 54.7168 123.991 55.139 124.15 55.5228C124.309 55.9065 124.578 56.2345 124.924 56.4652C125.269 56.696 125.675 56.8191 126.09 56.8191C126.646 56.8165 127.179 56.5944 127.572 56.2011C127.966 55.8079 128.188 55.2753 128.19 54.7191Z" fill="#FFFB18"/>
<path d="M47.3899 110.54C47.3919 110.122 47.2696 109.712 47.0385 109.364C46.8074 109.015 46.4779 108.743 46.092 108.582C45.706 108.422 45.281 108.379 44.8707 108.46C44.4605 108.541 44.0836 108.742 43.7879 109.038C43.4922 109.334 43.2911 109.71 43.21 110.121C43.1289 110.531 43.1715 110.956 43.3325 111.342C43.4934 111.728 43.7654 112.057 44.1139 112.288C44.4624 112.52 44.8717 112.642 45.2899 112.64C45.8469 112.64 46.381 112.419 46.7748 112.025C47.1686 111.631 47.3899 111.097 47.3899 110.54Z" fill="#FFFB18"/>
<path d="M112.64 142.661C112.64 142.245 112.517 141.839 112.286 141.494C112.055 141.149 111.727 140.879 111.344 140.72C110.96 140.561 110.538 140.52 110.13 140.601C109.723 140.682 109.349 140.882 109.055 141.176C108.761 141.469 108.561 141.843 108.48 142.251C108.399 142.658 108.441 143.08 108.6 143.464C108.759 143.848 109.028 144.176 109.373 144.407C109.719 144.637 110.125 144.761 110.54 144.761C111.096 144.758 111.629 144.536 112.022 144.143C112.415 143.749 112.637 143.217 112.64 142.661Z" fill="#FFFB18"/>
<path d="M85.3001 177.61C85.3001 177.194 85.1769 176.788 84.9462 176.443C84.7154 176.098 84.3875 175.829 84.0037 175.67C83.62 175.511 83.1978 175.469 82.7904 175.55C82.3831 175.631 82.0089 175.831 81.7152 176.125C81.4215 176.419 81.2215 176.793 81.1405 177.2C81.0594 177.607 81.101 178.03 81.2599 178.413C81.4189 178.797 81.6881 179.125 82.0334 179.356C82.3787 179.587 82.7848 179.71 83.2001 179.71C83.7571 179.71 84.2912 179.489 84.685 179.095C85.0788 178.701 85.3001 178.167 85.3001 177.61Z" fill="#FFFB18"/>
<path d="M127.85 163.35C129.01 163.35 129.95 162.41 129.95 161.25C129.95 160.091 129.01 159.15 127.85 159.15C126.69 159.15 125.75 160.091 125.75 161.25C125.75 162.41 126.69 163.35 127.85 163.35Z" fill="#FFFB18"/>
<path d="M170.44 83.3309C171.6 83.3309 172.54 82.3907 172.54 81.2309C172.54 80.0711 171.6 79.1309 170.44 79.1309C169.28 79.1309 168.34 80.0711 168.34 81.2309C168.34 82.3907 169.28 83.3309 170.44 83.3309Z" fill="#FFFB18"/>
<path d="M144.51 116.909C144.514 116.491 144.394 116.081 144.164 115.732C143.935 115.382 143.607 115.108 143.221 114.946C142.836 114.783 142.411 114.738 142.001 114.817C141.59 114.897 141.212 115.096 140.915 115.39C140.618 115.684 140.415 116.06 140.332 116.47C140.249 116.88 140.29 117.305 140.449 117.692C140.608 118.079 140.878 118.409 141.226 118.642C141.573 118.875 141.982 118.999 142.4 118.999C142.676 119.001 142.949 118.948 143.204 118.843C143.46 118.739 143.692 118.585 143.888 118.391C144.084 118.197 144.24 117.966 144.346 117.712C144.453 117.458 144.509 117.185 144.51 116.909Z" fill="#FFFB18"/>
<path d="M86.9002 77.399C86.9002 76.9813 86.7762 76.5729 86.5439 76.2257C86.3116 75.8785 85.9815 75.6081 85.5953 75.4487C85.2092 75.2893 84.7844 75.2481 84.3748 75.3303C83.9653 75.4125 83.5893 75.6145 83.2946 75.9106C83 76.2067 82.7998 76.5836 82.7195 76.9935C82.6392 77.4035 82.6824 77.8281 82.8437 78.2134C83.0049 78.5988 83.2769 78.9276 83.6252 79.1583C83.9735 79.3889 84.3824 79.511 84.8002 79.509C85.0768 79.509 85.3507 79.4544 85.6061 79.3482C85.8616 79.2421 86.0935 79.0865 86.2886 78.8904C86.4838 78.6943 86.6383 78.4617 86.7432 78.2057C86.8481 77.9498 86.9015 77.6756 86.9002 77.399Z" fill="#FFFB18"/>
<path d="M31.1299 410.35V355.25C31.1286 354.636 31.2484 354.028 31.4825 353.46C31.7166 352.892 32.0604 352.376 32.4942 351.942C32.9279 351.507 33.4432 351.162 34.0104 350.927C34.5777 350.691 35.1858 350.57 35.7999 350.57H120.59C121.831 350.57 123.021 351.063 123.899 351.941C124.777 352.819 125.27 354.009 125.27 355.25V410.59" stroke="#FFFB18" stroke-miterlimit="10"/>
<path d="M66.38 416.66H61.96" stroke="#FFFB18" stroke-miterlimit="10"/>
<path d="M56.38 416.661H27.3C26.7363 416.664 26.1776 416.555 25.656 416.341C25.1344 416.127 24.6602 415.812 24.2606 415.414C23.8611 415.017 23.544 414.544 23.3277 414.023C23.1114 413.503 23 412.945 23 412.381V410.381H133.37V412.381C133.37 413.514 132.92 414.601 132.12 415.404C131.319 416.206 130.233 416.658 129.1 416.661H70.57" stroke="#FFFB18" stroke-miterlimit="10"/>
<path d="M71.5 354.039H76.15" stroke="#FFFB18" stroke-miterlimit="10"/>
<path d="M79.64 354.039H122.23V409.659H34.27V354.039H65.22" stroke="#FFFB18" stroke-miterlimit="10"/>
<path d="M48.7619 349.351C48.9382 349.617 49.0315 349.929 49.03 350.249C49.028 350.673 48.8586 351.079 48.5585 351.379C48.2584 351.679 47.852 351.849 47.4277 351.851C47.1086 351.852 46.7963 351.759 46.5303 351.583C46.2644 351.406 46.0569 351.155 45.9341 350.861C45.8113 350.566 45.7787 350.242 45.8406 349.929C45.9025 349.616 46.056 349.328 46.2816 349.102C46.5072 348.877 46.7948 348.723 47.1078 348.661C47.4209 348.6 47.7452 348.632 48.0397 348.755C48.3342 348.878 48.5856 349.085 48.7619 349.351Z" fill="#263238" stroke="#FFFB18"/>
<path d="M132.1 410.51V410.513C132.101 410.723 132.06 410.932 131.98 411.127C131.9 411.322 131.783 411.5 131.634 411.649C131.485 411.798 131.309 411.917 131.114 411.998C130.919 412.079 130.711 412.12 130.5 412.12H130.498C130.179 412.122 129.867 412.029 129.601 411.853C129.335 411.677 129.128 411.426 129.005 411.132C128.882 410.838 128.849 410.514 128.91 410.201C128.971 409.888 129.124 409.601 129.349 409.375C129.574 409.149 129.86 408.995 130.173 408.932C130.486 408.869 130.81 408.901 131.104 409.022C131.399 409.144 131.651 409.35 131.828 409.615C132.005 409.88 132.1 410.192 132.1 410.51Z" fill="#263238" stroke="#FFFB18"/>
<path d="M116.352 353.381C116.528 353.647 116.621 353.959 116.62 354.278C116.618 354.703 116.447 355.111 116.146 355.411C115.844 355.712 115.436 355.88 115.01 355.88C114.691 355.88 114.38 355.786 114.115 355.608C113.85 355.431 113.643 355.179 113.522 354.884C113.4 354.59 113.369 354.266 113.431 353.953C113.494 353.641 113.648 353.354 113.874 353.129C114.1 352.904 114.388 352.751 114.7 352.69C115.013 352.629 115.337 352.662 115.631 352.785C115.925 352.908 116.176 353.115 116.352 353.381Z" fill="#263238" stroke="#FFFB18"/>
<path d="M40.4998 416.401V416.403C40.5008 416.615 40.4599 416.824 40.3795 417.02C40.299 417.215 40.1807 417.393 40.0312 417.542C39.8817 417.692 39.7041 417.81 39.5086 417.891C39.3131 417.971 39.1036 418.012 38.8922 418.011H38.8898C38.5714 418.011 38.2601 417.917 37.9953 417.74C37.7306 417.563 37.5242 417.311 37.4023 417.017C37.2805 416.723 37.2486 416.399 37.3107 416.087C37.3728 415.775 37.5262 415.488 37.7513 415.263C37.9765 415.037 38.2634 414.884 38.5757 414.822C38.888 414.76 39.2117 414.792 39.5059 414.914C39.8001 415.035 40.0515 415.242 40.2285 415.507C40.4054 415.771 40.4998 416.083 40.4998 416.401Z" fill="#263238" stroke="#FFFB18"/>
<path d="M103.46 315.77C103.46 316.491 103.173 317.183 102.663 317.693C102.153 318.203 101.461 318.49 100.74 318.49H54.9099C54.1886 318.49 53.4967 318.203 52.9866 317.693C52.4765 317.183 52.1899 316.491 52.1899 315.77V230.32C52.1899 229.598 52.4765 228.906 52.9866 228.396C53.4967 227.886 54.1886 227.6 54.9099 227.6H100.74C101.461 227.6 102.153 227.886 102.663 228.396C103.173 228.906 103.46 229.598 103.46 230.32V307.41" stroke="#FFFB18" stroke-miterlimit="10"/>
<path d="M90.2197 235.85H100.4V310.24H55.2397V299.02" stroke="#FFFB18" stroke-miterlimit="10"/>
<path d="M80.7798 235.85H86.0198" stroke="#FFFB18" stroke-miterlimit="10"/>
<path d="M55.2397 293.78V235.85H76.5797" stroke="#FFFB18" stroke-miterlimit="10"/>
<path d="M79.4201 313.6C79.4201 313.268 79.3215 312.943 79.1369 312.667C78.9523 312.39 78.69 312.175 78.383 312.048C78.076 311.921 77.7382 311.887 77.4123 311.952C77.0864 312.017 76.7871 312.177 76.5521 312.412C76.3172 312.647 76.1572 312.946 76.0923 313.272C76.0275 313.598 76.0608 313.936 76.1879 314.243C76.3151 314.55 76.5304 314.812 76.8067 314.997C77.083 315.181 77.4078 315.28 77.7401 315.28C78.1856 315.28 78.6129 315.103 78.928 314.788C79.2431 314.473 79.4201 314.046 79.4201 313.6Z" stroke="#FFFB18" stroke-miterlimit="10"/>
<path d="M78.03 227.999V228.001C78.03 228.425 77.8615 228.832 77.5614 229.132C77.2613 229.432 76.8544 229.601 76.43 229.601H76.4277C76.1086 229.602 75.7963 229.509 75.5303 229.333C75.2644 229.156 75.0569 228.905 74.9341 228.611C74.8113 228.316 74.7787 227.992 74.8406 227.679C74.9025 227.366 75.056 227.078 75.2816 226.852C75.5072 226.627 75.7948 226.473 76.1078 226.411C76.4208 226.35 76.7452 226.382 77.0397 226.505C77.3342 226.628 77.5856 226.835 77.7619 227.101C77.9382 227.367 78.0315 227.679 78.03 227.999Z" fill="#263238" stroke="#FFFB18"/>
<path d="M92.6023 308.961C92.7783 309.227 92.8714 309.539 92.8699 309.858C92.8679 310.284 92.6974 310.691 92.3956 310.991C92.0939 311.292 91.6856 311.46 91.2599 311.46C90.9411 311.46 90.6295 311.366 90.3646 311.188C90.0997 311.011 89.8934 310.759 89.7717 310.465C89.6501 310.17 89.6187 309.846 89.6814 309.533C89.7441 309.221 89.8982 308.934 90.1242 308.709C90.3501 308.484 90.6377 308.332 90.9505 308.27C91.2633 308.209 91.5873 308.242 91.8813 308.365C92.1754 308.488 92.4263 308.696 92.6023 308.961Z" fill="#263238" stroke="#FFFB18"/>
<path d="M105.09 270.02C105.09 270.904 104.374 271.62 103.49 271.62C102.606 271.62 101.89 270.904 101.89 270.02C101.89 269.136 102.606 268.42 103.49 268.42C104.374 268.42 105.09 269.136 105.09 270.02Z" fill="#263238" stroke="#FFFB18"/>
<path d="M63.8601 317.889V317.892C63.8611 318.102 63.8205 318.311 63.7405 318.506C63.6606 318.701 63.5429 318.879 63.3942 319.028C63.2455 319.177 63.0688 319.296 62.8742 319.377C62.6796 319.458 62.4709 319.499 62.2601 319.499H62.2578C61.939 319.501 61.627 319.408 61.3612 319.232C61.0955 319.056 60.8879 318.805 60.7649 318.511C60.6419 318.217 60.6089 317.893 60.6701 317.58C60.7314 317.267 60.8841 316.979 61.109 316.754C61.3338 316.528 61.6207 316.374 61.9332 316.311C62.2458 316.248 62.5699 316.279 62.8645 316.401C63.1591 316.523 63.411 316.729 63.5883 316.994C63.7655 317.259 63.8601 317.571 63.8601 317.889Z" fill="#263238" stroke="#FFFB18"/>
<path d="M62.8098 235.416V235.419C62.8098 235.843 62.6413 236.25 62.3412 236.55C62.0411 236.85 61.6342 237.019 61.2098 237.019H61.2075C60.8884 237.02 60.5761 236.927 60.3101 236.751C60.0442 236.574 59.8367 236.323 59.7139 236.028C59.5911 235.734 59.5585 235.41 59.6204 235.097C59.6823 234.784 59.8358 234.496 60.0614 234.27C60.287 234.045 60.5746 233.891 60.8876 233.829C61.2006 233.767 61.525 233.8 61.8195 233.923C62.114 234.046 62.3653 234.253 62.5417 234.519C62.718 234.785 62.8113 235.097 62.8098 235.416Z" fill="#263238" stroke="#FFFB18"/>
<path d="M317.17 39.0801H258.11C257.685 39.0801 257.264 39.1639 256.872 39.3269C256.479 39.4898 256.122 39.7287 255.822 40.0297C255.522 40.3306 255.285 40.6879 255.123 41.0809C254.961 41.474 254.879 41.8951 254.88 42.3201V72.5401C254.879 72.9646 254.961 73.3852 255.123 73.7777C255.285 74.1702 255.523 74.5268 255.823 74.827C256.123 75.1272 256.48 75.365 256.872 75.5269C257.265 75.6887 257.685 75.7714 258.11 75.7701H290.41L285.41 90.6301L298.04 75.7701H317.13C317.987 75.7701 318.808 75.4298 319.414 74.824C320.02 74.2183 320.36 73.3967 320.36 72.5401V42.3201C320.36 41.4694 320.026 40.6527 319.429 40.0465C318.832 39.4403 318.021 39.0932 317.17 39.0801Z" stroke="#FFFB18" stroke-miterlimit="10"/>
<path d="M301.16 49.5195H312.77" stroke="#FFFB18" stroke-miterlimit="10"/>
<path d="M293.28 49.5195H298.05" stroke="#FFFB18" stroke-miterlimit="10"/>
<path d="M274.01 49.5195H288.72" stroke="#FFFB18" stroke-miterlimit="10"/>
<path d="M264.52 49.5195H270.28" stroke="#FFFB18" stroke-miterlimit="10"/>
<path d="M309.24 57.1387H312.77" stroke="#FFFB18" stroke-miterlimit="10"/>
<path d="M278.36 57.1387H306.75" stroke="#FFFB18" stroke-miterlimit="10"/>
<path d="M264.52 57.1387H275.46" stroke="#FFFB18" stroke-miterlimit="10"/>
<path d="M308.41 64.7598H312.77" stroke="#FFFB18" stroke-miterlimit="10"/>
<path d="M299.29 64.7598H303.85" stroke="#FFFB18" stroke-miterlimit="10"/>
<path d="M273.8 64.7598H295.35" stroke="#FFFB18" stroke-miterlimit="10"/>
<path d="M264.52 64.7598H271.32" stroke="#FFFB18" stroke-miterlimit="10"/>
<path d="M305.61 340.721H192.34V390.961H305.61V340.721Z" fill="#434D53" stroke="#434D53" stroke-miterlimit="10"/>
<path d="M257.66 342.41H240.53V348.96H257.66V342.41Z" fill="white" stroke="#434D53" stroke-miterlimit="10"/>
<path d="M326.07 209.078C326.07 207.888 323.37 206.078 319.18 203.688C314.99 201.298 275.45 183.318 275.45 183.318L252.08 182.108V181.818L249.38 181.968L246.69 181.818V182.108L223.32 183.318C223.32 183.318 183.78 201.318 179.59 203.688C175.4 206.058 172.7 207.888 172.7 209.078C172.7 210.268 190.25 322.998 190.57 326.158C190.89 329.318 190.57 338.428 190.57 340.628C190.57 342.828 195.29 344.088 195.29 344.088H303.48C303.48 344.088 308.2 342.828 308.2 340.628C308.2 338.428 307.89 329.308 308.2 326.158C308.51 323.008 326.07 210.278 326.07 209.078Z" fill="#FFFB18" stroke="#434D53" stroke-miterlimit="10"/>
<path d="M319.18 203.688C314.99 201.298 275.45 183.318 275.45 183.318L252.08 182.108V181.818L249.38 181.968L246.69 181.818V182.108L223.32 183.318C223.32 183.318 183.78 201.318 179.59 203.688C175.4 206.058 172.7 207.888 172.7 209.078C172.7 209.488 174.7 222.468 177.32 239.658L178.57 240.658C178.57 240.658 185.63 216.658 206.81 206.778C227.99 196.898 236.45 194.068 256.92 194.068C276.12 194.068 310.82 221.988 321.48 239.438C324.1 222.348 326.07 209.438 326.07 209.048C326.07 207.888 323.37 206.088 319.18 203.688Z" fill="#434D53" stroke="#434D53" stroke-miterlimit="10"/>
<path d="M237.1 205.19L248.49 216.27L233.51 319.02L248.71 342.34L266.22 318.74L254.78 215.97L265.56 204.59L251.78 189.91L237.1 205.19Z" fill="#434D53" stroke="#434D53" stroke-miterlimit="10"/>
<path d="M272.32 96.6201C269.05 95.9201 261.77 94.4401 255.94 93.2701V91.5801L251.74 92.4201L247.55 91.5801V93.2701C241.72 94.4401 234.43 95.9201 231.17 96.6201C225.29 97.8801 221.72 97.8801 221.72 103.76C221.72 103.76 223.4 145.96 224.24 149.95C225.08 153.94 225.71 159.18 228.44 161.49C231.17 163.8 231.38 164.64 231.38 164.64V177.24C231.38 177.24 241.46 198.86 243.38 200.34C245.727 202.325 248.701 203.414 251.775 203.414C254.849 203.414 257.823 202.325 260.17 200.34C262.06 198.87 272.17 177.24 272.17 177.24V164.64C272.17 164.64 272.38 163.8 275.11 161.49C277.84 159.18 278.47 153.94 279.31 149.95C280.15 145.96 281.83 103.76 281.83 103.76C281.77 97.8801 278.2 97.8801 272.32 96.6201Z" fill="white" stroke="#434D53" stroke-miterlimit="10"/>
<path d="M233.69 103.34C233.69 103.34 254.47 111.94 260.35 111.94C266.23 111.94 259.72 109.22 259.72 109.22C259.72 109.22 267.91 111.94 271.06 111.94H274.21C274.21 111.94 274.63 117.82 275.05 118.45C275.47 119.08 275.26 119.92 275.89 120.34C276.412 120.721 276.903 121.143 277.36 121.6C277.36 121.6 278.83 144.49 279.67 146.8C280.51 149.11 282 113 282 113C283.02 111.878 283.776 110.542 284.212 109.091C284.648 107.639 284.753 106.108 284.52 104.61C283.89 99.1497 272.13 90.1197 259.74 85.9197C255.356 84.348 250.63 83.9828 246.056 84.8624C241.482 85.7419 237.229 87.834 233.74 90.9197C229.54 94.6997 228.91 96.3797 228.91 96.3797C228.91 96.3797 222.4 95.9597 221.35 98.4797C220.3 101 224.71 145.72 224.71 145.72L225.76 121.57C225.76 121.57 229.12 118 229.33 116.11C229.54 114.22 231.64 105.83 231.64 105.83C231.64 105.83 234.79 107.72 235.64 107.09C236.49 106.46 233.69 103.34 233.69 103.34Z" fill="#434D53" stroke="#434D53" stroke-miterlimit="10"/>
<path d="M223.4 132.729C223.4 132.729 222.14 130.839 220.67 132.099C219.2 133.359 217.94 141.759 218.78 143.859C219.62 145.959 220.88 149.109 221.93 149.319C222.71 149.489 223.481 149.699 224.24 149.949L223.4 132.729Z" fill="#434D53" stroke="#434D53" stroke-miterlimit="10"/>
<path d="M280.24 132.729C280.24 132.729 281.5 130.839 282.97 132.099C284.44 133.359 285.7 141.759 284.86 143.859C284.02 145.959 282.76 149.109 281.71 149.319C280.93 149.489 280.158 149.699 279.4 149.949L280.24 132.729Z" fill="#434D53" stroke="#434D53" stroke-miterlimit="10"/>
<path d="M229.28 120.129C229.28 120.129 231.38 116.129 234.95 115.719C238.52 115.309 246.95 117.399 246.29 120.129C245.63 122.859 229.28 120.129 229.28 120.129Z" fill="#434D53" stroke="#434D53" stroke-miterlimit="10"/>
<path d="M274.24 120.129C274.24 120.129 272.14 116.129 268.57 115.719C265 115.309 256.57 117.399 257.24 120.129C257.91 122.859 274.24 120.129 274.24 120.129Z" fill="#434D53" stroke="#434D53" stroke-miterlimit="10"/>
<path d="M246.59 132.73H229C228.416 132.73 227.855 132.499 227.441 132.086C227.027 131.674 226.793 131.114 226.79 130.53L225.94 121.71C225.94 121.126 226.171 120.565 226.584 120.151C226.996 119.737 227.556 119.503 228.14 119.5H247.46C247.75 119.5 248.037 119.557 248.304 119.668C248.572 119.78 248.815 119.943 249.019 120.148C249.224 120.353 249.385 120.597 249.495 120.865C249.605 121.133 249.661 121.42 249.66 121.71L248.81 130.53C248.81 130.821 248.752 131.108 248.641 131.377C248.529 131.645 248.365 131.888 248.159 132.093C247.952 132.297 247.707 132.459 247.438 132.568C247.169 132.678 246.881 132.733 246.59 132.73Z" fill="white" stroke="#434D53" stroke-miterlimit="10"/>
<path d="M273.88 132.73H256.27C255.686 132.73 255.127 132.498 254.714 132.086C254.302 131.673 254.07 131.113 254.07 130.53L253.21 121.71C253.21 121.124 253.443 120.562 253.857 120.147C254.272 119.733 254.834 119.5 255.42 119.5H274.73C275.316 119.5 275.878 119.733 276.293 120.147C276.707 120.562 276.94 121.124 276.94 121.71L276.09 130.53C276.087 131.114 275.853 131.674 275.439 132.086C275.025 132.499 274.464 132.73 273.88 132.73Z" fill="white" stroke="#434D53" stroke-miterlimit="10"/>
<path d="M255.42 119.5H247.44" stroke="#434D53" stroke-miterlimit="10"/>
<path d="M249.64 121.711H253.21" stroke="#434D53" stroke-miterlimit="10"/>
<path d="M249.43 123.491C249.43 123.491 246.5 133.991 246.5 135.251C246.493 135.603 246.588 135.949 246.775 136.247C246.961 136.546 247.231 136.783 247.55 136.931C247.55 136.931 248.55 133.361 249.64 132.931C250.73 132.501 254.05 132.721 254.05 132.721L256.15 136.921C256.413 136.674 256.623 136.377 256.769 136.047C256.915 135.717 256.994 135.361 257 135.001C257.21 133.531 253.43 123.241 253.43 123.241C253.43 123.241 250.48 122.441 249.43 123.491Z" fill="#434D53" stroke="#434D53" stroke-miterlimit="10"/>
<path d="M241.32 169.24C241.848 169.417 242.385 169.564 242.93 169.68" stroke="#434D53" stroke-miterlimit="10"/>
<path d="M231.38 164.641C233.979 166.064 236.649 167.352 239.38 168.501" stroke="#434D53" stroke-miterlimit="10"/>
<path d="M272.11 164C272.11 164 267.28 168.2 262.87 168.83" stroke="#434D53" stroke-miterlimit="10"/>
<path d="M241.67 150.16C245.335 149.393 249.052 148.902 252.79 148.69C255.81 148.86 258.785 149.497 261.61 150.58C261.61 150.58 257.2 144.49 255.52 143.86C253.84 143.23 249.22 143.86 247.76 143.86C246.3 143.86 241.67 150.16 241.67 150.16Z" fill="#434D53" stroke="#434D53" stroke-linejoin="round"/>
<path d="M257.83 154.32C257.83 154.32 250.06 154.11 247.34 154.32C244.62 154.53 244.19 157.89 244.19 157.89C246.797 157.117 249.479 156.624 252.19 156.42C254.804 156.558 257.403 156.909 259.96 157.47C259.96 157.47 260.35 155.79 257.83 154.32Z" fill="#434D53" stroke="#434D53" stroke-linejoin="round"/>
<path d="M172.7 209.08L141.54 291.46L169.4 304.34L184.68 274.99L172.7 209.08Z" fill="#FFFB18" stroke="#434D53" stroke-miterlimit="10"/>
<path d="M179.76 284.45C178.69 282.57 177.1 279.94 174.76 276.45C171.573 271.652 167.852 267.231 163.67 263.27C165.9 264.094 168.014 265.203 169.96 266.57C174.16 269.26 176.55 270.76 175.65 267.17C174.75 263.58 166.07 251.89 165.47 249.79C164.87 247.69 168.47 247.4 169.36 243.79C170.08 240.92 172.72 222.33 173.74 215.01L172.66 209.01L141.51 291.39L149.28 294.99H159.18L177.05 289.51L179.76 284.45Z" fill="#434D53" stroke="#434D53" stroke-miterlimit="10"/>
<path d="M175.39 281.88C175.39 281.88 162.81 281 158 281C153.19 281 146 281.6 143.32 286.09C140.64 290.58 139.73 304.66 143.32 312.45C146.91 320.24 157.1 322.34 162.79 322.04C168.48 321.74 179.27 313.35 180.79 309.16C182.31 304.97 180.49 295.38 178.99 290.28C178.153 287.338 176.943 284.515 175.39 281.88Z" fill="#FFFB18" stroke="#434D53" stroke-miterlimit="10"/>
<path d="M175.39 281.881C175.39 281.881 164.91 283.971 164.91 290.561C164.91 297.151 168.21 303.741 172.1 304.941C175.99 306.141 181.39 302.551 181.39 302.551C181.39 302.551 184.98 300.151 183.48 292.961C181.98 285.771 178.09 282.181 175.39 281.881Z" fill="#FFFB18" stroke="#434D53" stroke-miterlimit="10"/>
<path d="M182.58 269.59C182.58 269.59 185.88 264.5 186.78 263.3C187.68 262.1 190.97 258.81 192.78 255.81C194.59 252.81 196.67 249.81 197.27 254.02C197.87 258.23 193.68 262.7 192.78 263.9L188.29 269.9C188.29 269.9 182.28 273.19 182.58 269.59Z" fill="white" stroke="#434D53" stroke-miterlimit="10"/>
<path d="M174.2 287.269C174.2 287.269 176.29 275.269 178.09 272.889C179.89 270.509 192.77 262.109 195.47 260.609C198.17 259.109 215.24 259.409 215.24 259.409C215.24 259.409 219.73 260.609 217.03 262.409C214.33 264.209 207.75 263.599 207.75 263.599L197.56 268.699L207.75 266.599L217.93 268.099C217.93 268.099 220.03 269.889 219.13 271.389C218.23 272.889 211.94 272.889 211.94 272.889H207.15L196.06 277.999L208.35 276.199C208.35 276.199 216.13 274.709 216.43 276.799C216.73 278.889 214.34 280.699 212.84 280.699C211.011 280.933 209.206 281.334 207.45 281.899L200 284.569L211.38 282.769C211.38 282.769 211.98 284.569 211.08 285.469C210.18 286.369 199.08 290.559 199.08 290.559C199.08 290.559 188.6 294.759 187.08 295.959C185.56 297.159 182.88 300.449 177.79 299.849C172.7 299.249 173 289.069 174.2 287.269Z" fill="white" stroke="#434D53" stroke-miterlimit="10"/>
<path d="M199.96 284.568L196.06 286.068" stroke="#434D53" stroke-miterlimit="10"/>
<path d="M197.56 268.699L193.37 270.189" stroke="#434D53" stroke-miterlimit="10"/>
<path d="M326.02 209.08L357.17 291.46L329.31 304.34L314.04 274.99L326.02 209.08Z" fill="#FFFB18" stroke="#434D53" stroke-miterlimit="10"/>
<path d="M319 284.449C320.07 282.569 321.66 279.939 324 276.449C327.161 271.667 330.851 267.255 335 263.299C332.77 264.124 330.656 265.233 328.71 266.599C324.51 269.289 322.12 270.789 323.01 267.199C323.9 263.609 332.6 251.919 333.2 249.819C333.8 247.719 330.2 247.429 329.31 243.819C328.59 240.949 325.95 222.359 324.93 215.039L326.01 209.039L357.16 291.419L349.39 295.019H339.49L321.62 289.539L319 284.449Z" fill="#434D53" stroke="#434D53" stroke-miterlimit="10"/>
<path d="M230.81 171.939L245.49 197.399L233.21 215.379L221.83 183.019L230.81 171.939Z" fill="#FFFB18" stroke="#434D53" stroke-miterlimit="10"/>
<path d="M272.45 171.939L257.77 197.399L270.05 215.379L281.44 183.019L272.45 171.939Z" fill="#FFFB18" stroke="#434D53" stroke-miterlimit="10"/>
<path d="M323.32 281.879C323.32 281.879 335.91 280.979 340.7 280.979C345.49 280.979 352.7 281.579 355.38 286.069C358.06 290.559 358.97 304.638 355.38 312.428C351.79 320.218 341.6 322.319 335.91 322.019C330.22 321.719 319.43 313.329 317.91 309.139C316.39 304.949 318.21 295.359 319.71 290.259C320.555 287.325 321.768 284.509 323.32 281.879Z" fill="#FFFB18" stroke="#434D53" stroke-miterlimit="10"/>
<path d="M323.32 281.881C323.32 281.881 333.81 283.971 333.81 290.561C333.81 297.151 330.51 303.741 326.62 304.941C322.73 306.141 317.33 302.551 317.33 302.551C317.33 302.551 313.74 300.151 315.24 292.961C316.74 285.771 320.63 282.181 323.32 281.881Z" fill="#FFFB18" stroke="#434D53" stroke-miterlimit="10"/>
<path d="M316.14 269.59C316.14 269.59 312.84 264.5 311.94 263.3C311.04 262.1 307.75 258.81 305.94 255.81C304.13 252.81 302.05 249.81 301.45 254.02C300.85 258.23 305.04 262.7 305.94 263.9L310.43 269.9C310.43 269.9 316.43 273.19 316.14 269.59Z" fill="white" stroke="#434D53" stroke-miterlimit="10"/>
<path d="M324.52 287.269C324.52 287.269 322.43 275.269 320.63 272.889C318.83 270.509 306 262.109 303.25 260.609C300.5 259.109 283.48 259.409 283.48 259.409C283.48 259.409 278.99 260.609 281.69 262.409C284.39 264.209 291 263.599 291 263.599L301.19 268.699L291 266.599L280.82 268.099C280.82 268.099 278.72 269.889 279.62 271.389C280.52 272.889 286.81 272.889 286.81 272.889H291.6L302.66 277.999L290.37 276.199C290.37 276.199 282.59 274.709 282.29 276.799C281.99 278.889 284.38 280.699 285.88 280.699C287.71 280.933 289.514 281.334 291.27 281.899L298.76 284.589L287.38 282.789C287.38 282.789 286.78 284.589 287.68 285.489C288.58 286.389 299.68 290.579 299.68 290.579C299.68 290.579 310.16 294.779 311.68 295.979C313.2 297.179 315.88 300.469 320.97 299.869C326.06 299.269 325.72 289.069 324.52 287.269Z" fill="white" stroke="#434D53" stroke-miterlimit="10"/>
<path d="M298.76 284.568L302.66 286.068" stroke="#434D53" stroke-miterlimit="10"/>
<path d="M301.16 268.699L305.35 270.189" stroke="#434D53" stroke-miterlimit="10"/>
<path d="M201.74 388.77V394.31H261.69V398.34H226.42V401.36H275.29V396.32H267.23V393.3H300.48V385.74" fill="#434D53"/>
<path d="M201.74 388.77V394.31H261.69V398.34H226.42V401.36H275.29V396.32H267.23V393.3H300.48V385.74" stroke="#434D53" stroke-miterlimit="10"/>
<path d="M220.38 399.35H208.79V401.87H220.38V399.35Z" fill="#434D53" stroke="#434D53" stroke-miterlimit="10"/>
<path d="M215.83 412.119H207.91V417.919H215.83V412.119Z" stroke="#FFFB18" stroke-miterlimit="10"/>
<path d="M238.52 418.449H233.24V421.619H238.52V418.449Z" stroke="#FFFB18" stroke-miterlimit="10"/>
<path d="M261.73 416.869H253.29V419.509H261.73V416.869Z" stroke="#FFFB18" stroke-miterlimit="10"/>
<path d="M248.02 431.648H242.74V434.818H248.02V431.648Z" stroke="#FFFB18" stroke-miterlimit="10"/>
<path d="M268.59 423.199H264.9V425.309H268.59V423.199Z" stroke="#FFFB18" stroke-miterlimit="10"/>
<path d="M289.17 411.068H271.76V416.348H289.17V411.068Z" stroke="#FFFB18" stroke-miterlimit="10"/>
<path d="M230.07 430.59H221.63V434.81H230.07V430.59Z" stroke="#FFFB18" stroke-miterlimit="10"/>
<path d="M250.65 445.359H246.43V447.469H250.65V445.359Z" stroke="#FFFB18" stroke-miterlimit="10"/>
<path d="M245.57 405.898H228.44V408.918H245.57V405.898Z" fill="#434D53" stroke="#434D53" stroke-miterlimit="10"/>
<path d="M271.26 403.881H260.68V405.391H271.26V403.881Z" fill="#434D53" stroke="#434D53" stroke-miterlimit="10"/>
<path d="M289.4 395.818H278.82V397.838H289.4V395.818Z" fill="#434D53" stroke="#434D53" stroke-miterlimit="10"/>
<path d="M200.23 395.818H195.19V400.858H200.23V395.818Z" fill="#434D53" stroke="#434D53" stroke-miterlimit="10"/>
<path d="M299.98 399.35H294.94V404.39H299.98V399.35Z" fill="#434D53" stroke="#434D53" stroke-miterlimit="10"/>
<path d="M188.78 442.898L199 473.998" stroke="#FFFB18" stroke-miterlimit="10"/>
<path d="M185.97 434.34L187.5 439" stroke="#FFFB18" stroke-miterlimit="10"/>
<path d="M154 337L184.39 429.53" stroke="#FFFB18" stroke-miterlimit="10"/>
<path d="M216 440L221 466" stroke="#FFFB18" stroke-miterlimit="10"/>
<path d="M336.98 364.449L301 473.999" stroke="#FFFB18" stroke-miterlimit="10"/>
<path d="M340.38 354.119L338.21 360.719" stroke="#FFFB18" stroke-miterlimit="10"/>
<path d="M346 337L342.84 346.62" stroke="#FFFB18" stroke-miterlimit="10"/>
<path d="M284 440L279 466" stroke="#FFFB18" stroke-miterlimit="10"/>
</svg>
