<svg width="700" height="500" viewBox="0 0 700 500" fill="none" xmlns="http://www.w3.org/2000/svg">
<g clip-path="url(#clip0_1073_6866)">
<path d="M609.74 160.41C609.74 160.41 480.06 39.3298 363 32.7198C245.94 26.1098 214.089 63.1498 180.999 108.8C147.909 154.45 70.5195 162.39 28.8395 242.45C-12.8405 322.51 10.3195 456.14 147.27 470C284.219 483.86 300.76 409.79 400.67 426.33C500.58 442.87 515.129 478.6 600.469 448.17C685.809 417.74 718.24 255.68 609.74 160.41Z" fill="#0CFFBB"/>
<path opacity="0.7" d="M609.74 160.41C609.74 160.41 480.06 39.3298 363 32.7198C245.94 26.1098 214.089 63.1498 180.999 108.8C147.909 154.45 70.5195 162.39 28.8395 242.45C-12.8405 322.51 10.3195 456.14 147.27 470C284.219 483.86 300.76 409.79 400.67 426.33C500.58 442.87 515.129 478.6 600.469 448.17C685.809 417.74 718.24 255.68 609.74 160.41Z" fill="white"/>
<path opacity="0.2" d="M460.929 178.832H433.549V189.912H460.929V178.832Z" fill="black"/>
<path opacity="0.2" d="M450.499 139.391H423.119V150.471H450.499V139.391Z" fill="black"/>
<path opacity="0.2" d="M351.4 178.512H324.02V189.592H351.4V178.512Z" fill="black"/>
<path opacity="0.2" d="M391.169 101.391H363.789V112.471H391.169V101.391Z" fill="black"/>
<path opacity="0.2" d="M421.159 101.391H393.779V112.471H421.159V101.391Z" fill="black"/>
<path opacity="0.2" d="M304.46 260.469H277.08V271.549H304.46V260.469Z" fill="black"/>
<path opacity="0.2" d="M290.12 274.16H262.74V285.24H290.12V274.16Z" fill="black"/>
<path opacity="0.1" d="M435.499 154.711H408.119V165.791H435.499V154.711Z" fill="black"/>
<path opacity="0.1" d="M476.579 216.969H449.199V228.049H476.579V216.969Z" fill="black"/>
<path opacity="0.1" d="M316.191 233.922H288.811V245.002H316.191V233.922Z" fill="black"/>
<path opacity="0.1" d="M347.489 233.922H320.109V245.002H347.489V233.922Z" fill="black"/>
<path opacity="0.1" d="M350.101 218.281H322.721V229.361H350.101V218.281Z" fill="black"/>
<path opacity="0.1" d="M466.8 154.711H439.42V165.791H466.8V154.711Z" fill="black"/>
<path opacity="0.2" d="M385.3 273.039H357.92V284.119H385.3V273.039Z" fill="black"/>
<path opacity="0.1" d="M370.31 288.359H342.93V299.439H370.31V288.359Z" fill="black"/>
<path opacity="0.1" d="M401.601 288.359H374.221V299.439H401.601V288.359Z" fill="black"/>
<path opacity="0.2" d="M252.56 135.09H225.18V146.17H252.56V135.09Z" fill="black"/>
<path opacity="0.1" d="M237.56 150.41H210.18V161.49H237.56V150.41Z" fill="black"/>
<path opacity="0.1" d="M268.86 150.41H241.48V161.49H268.86V150.41Z" fill="black"/>
<path opacity="0.2" d="M241.87 217.621H214.49V228.701H241.87V217.621Z" fill="black"/>
<path opacity="0.1" d="M363.13 164.629H335.75V175.709H363.13V164.629Z" fill="black"/>
<path opacity="0.1" d="M322.06 273.5H294.68V284.58H322.06V273.5Z" fill="black"/>
<path opacity="0.1" d="M406.819 87.6992H379.439V98.7792H406.819V87.6992Z" fill="black"/>
<path opacity="0.1" d="M396.23 57.2617H368.85V68.3417H396.23V57.2617Z" fill="black"/>
<path opacity="0.2" d="M226.22 180.93H198.84V192.01H226.22V180.93Z" fill="black"/>
<path opacity="0.1" d="M241.87 167.23H214.49V178.31H241.87V167.23Z" fill="black"/>
<path opacity="0.1" d="M311.63 100.602H284.25V111.682H311.63V100.602Z" fill="black"/>
<path opacity="0.2" d="M406.819 178.832H379.439V189.912H406.819V178.832Z" fill="black"/>
<path opacity="0.2" d="M433.14 241.02H405.76V252.1H433.14V241.02Z" fill="black"/>
<path opacity="0.2" d="M422.71 201.582H395.33V212.662H422.71V201.582Z" fill="black"/>
<path opacity="0.1" d="M407.71 216.902H380.33V227.982H407.71V216.902Z" fill="black"/>
<path opacity="0.1" d="M439.009 216.902H411.629V227.982H439.009V216.902Z" fill="black"/>
<path opacity="0.2" d="M379.03 241.02H351.65V252.1H379.03V241.02Z" fill="black"/>
<path opacity="0.2" d="M112.749 290.141H85.3691V301.221H112.749V290.141Z" fill="black"/>
<path opacity="0.2" d="M102.319 250.691H74.9395V261.771H102.319V250.691Z" fill="black"/>
<path opacity="0.1" d="M87.3195 266.012H59.9395V277.092H87.3195V266.012Z" fill="black"/>
<path opacity="0.1" d="M118.62 266.012H91.2402V277.092H118.62V266.012Z" fill="black"/>
<path opacity="0.2" d="M58.6398 290.141H31.2598V301.221H58.6398V290.141Z" fill="black"/>
<path opacity="0.2" d="M192.14 231.922H164.76V243.002H192.14V231.922Z" fill="black"/>
<path opacity="0.2" d="M181.71 192.469H154.33V203.549H181.71V192.469Z" fill="black"/>
<path opacity="0.1" d="M166.72 207.789H139.34V218.869H166.72V207.789Z" fill="black"/>
<path opacity="0.1" d="M198.009 207.789H170.629V218.869H198.009V207.789Z" fill="black"/>
<path opacity="0.2" d="M138.03 231.922H110.65V243.002H138.03V231.922Z" fill="black"/>
<path opacity="0.2" d="M588.45 241.18H561.07V252.26H588.45V241.18Z" fill="black"/>
<path opacity="0.2" d="M578.009 201.73H550.629V212.81H578.009V201.73Z" fill="black"/>
<path opacity="0.1" d="M563.021 217.062H535.641V228.143H563.021V217.062Z" fill="black"/>
<path opacity="0.1" d="M594.31 217.062H566.93V228.143H594.31V217.062Z" fill="black"/>
<path opacity="0.2" d="M559.489 141.531H532.109V152.611H559.489V141.531Z" fill="black"/>
<path opacity="0.1" d="M544.489 156.852H517.109V167.932H544.489V156.852Z" fill="black"/>
<path opacity="0.1" d="M575.79 156.852H548.41V167.932H575.79V156.852Z" fill="black"/>
<path opacity="0.2" d="M534.329 241.18H506.949V252.26H534.329V241.18Z" fill="black"/>
<path opacity="0.2" d="M266.71 64.7188H239.33V75.7988H266.71V64.7188Z" fill="black"/>
<path opacity="0.1" d="M148.23 165.879H120.85V176.959H148.23V165.879Z" fill="black"/>
<path opacity="0.1" d="M179.521 165.879H152.141V176.959H179.521V165.879Z" fill="black"/>
<path opacity="0.1" d="M182.13 150.23H154.75V161.31H182.13V150.23Z" fill="black"/>
<path opacity="0.1" d="M208.62 124.859H181.24V135.939H208.62V124.859Z" fill="black"/>
<path opacity="0.2" d="M303.87 76.1289H276.49V87.2089H303.87V76.1289Z" fill="black"/>
<path opacity="0.2" d="M384.36 43.3906H356.98V54.4706H384.36V43.3906Z" fill="black"/>
<path opacity="0.2" d="M427.589 55.6211H400.209V66.7011H427.589V55.6211Z" fill="black"/>
<path d="M547.57 19.75H543.82V48.54H547.57V19.75Z" fill="#BABABA" stroke="#B2B2B2" stroke-miterlimit="10" stroke-linecap="round"/>
<path d="M551.861 89.6552C564.071 86.2552 571.214 73.6005 567.814 61.3901C564.414 49.1797 551.759 42.0375 539.548 45.4375C527.338 48.8375 520.196 61.4922 523.596 73.7026C526.996 85.913 539.651 93.0553 551.861 89.6552Z" fill="white" stroke="#B2B2B2" stroke-miterlimit="10" stroke-linecap="round"/>
<path d="M134.531 19.75H130.781V48.54H134.531V19.75Z" fill="#BABABA" stroke="#B2B2B2" stroke-miterlimit="10" stroke-linecap="round"/>
<path d="M140.471 89.1405C152.389 84.8262 158.553 71.6673 154.239 59.7492C149.924 47.8311 136.765 41.667 124.847 45.9813C112.929 50.2955 106.765 63.4545 111.079 75.3726C115.394 87.2907 128.553 93.4548 140.471 89.1405Z" fill="white" stroke="#B2B2B2" stroke-miterlimit="10" stroke-linecap="round"/>
<path d="M638.261 373.672H28.1309" stroke="#263238" stroke-miterlimit="10" stroke-linecap="round"/>
<path d="M595.359 445.81H8.35938L96.4094 379.48H507.309L595.359 445.81Z" stroke="#263238" stroke-miterlimit="10" stroke-linecap="round"/>
<path d="M475.95 432.319H127.77L180 392.969H423.72L475.95 432.319Z" stroke="#263238" stroke-miterlimit="10" stroke-linecap="round"/>
<path d="M450.88 264.143C447.6 250.273 433.36 248.812 433.36 248.812H141.24C141.24 248.812 127.01 250.273 123.72 264.143C120.43 278.013 131.02 284.582 135.77 286.402C138.204 287.436 140.793 288.055 143.43 288.233V387.883H431.17V288.233C433.811 288.054 436.404 287.436 438.84 286.402C443.58 284.582 454.17 278.003 450.88 264.143Z" fill="#BABABA" stroke="#263238" stroke-miterlimit="10" stroke-linecap="round"/>
<path d="M143.431 288.23C143.431 288.23 141.611 286.4 135.431 280.93C129.251 275.46 132.511 261.58 144.921 264.14C157.331 266.7 156.971 275.45 156.971 286.77C156.971 298.09 159.891 387.88 159.891 387.88H143.431V288.23Z" fill="#263238" stroke="#263238" stroke-miterlimit="10" stroke-linecap="round"/>
<path d="M431.17 288.23C431.17 288.23 433 286.4 439.17 280.93C445.34 275.46 442.09 261.58 429.68 264.14C417.27 266.7 417.68 275.45 417.68 286.77C417.68 298.09 414.76 387.88 414.76 387.88H431.18L431.17 288.23Z" fill="#263238" stroke="#263238" stroke-miterlimit="10" stroke-linecap="round"/>
<path d="M415.941 344.81H158.401L157.801 318.16H417.031L415.941 344.81Z" fill="#263238" stroke="#263238" stroke-miterlimit="10" stroke-linecap="round"/>
<path d="M159.131 362.332H416.101" stroke="#263238" stroke-miterlimit="10" stroke-linecap="round"/>
<path d="M151.1 249.172C151.1 249.172 164.97 251.732 168.62 267.792C172.27 283.852 171.54 318.162 171.54 318.162" stroke="#263238" stroke-miterlimit="10" stroke-linecap="round"/>
<path d="M433.36 248.811C433.36 248.811 418.29 247.001 411 259.391C403.71 271.781 405.52 318.521 405.52 318.521" stroke="#263238" stroke-miterlimit="10" stroke-linecap="round"/>
<path d="M216.6 260.181C216.6 260.181 219.94 258.181 198.19 258.511C176.44 258.841 170.08 262.861 170.08 262.861C170.08 262.861 163.08 262.191 162.38 264.861C161.68 267.531 166.06 276.911 166.06 276.911L172.06 313.391C172.06 313.391 167.38 318.071 169.06 319.081C170.74 320.091 179.44 317.741 179.44 317.741C179.44 317.741 202.19 321.421 212.9 319.411C223.61 317.401 231.31 316.411 231.31 316.411C231.31 316.411 234.99 316.411 235.31 315.071C235.63 313.731 233.97 310.071 233.97 310.071C233.97 310.071 231.63 281.961 225.27 265.891C225.27 265.891 227.61 260.891 224.6 258.891C221.59 256.891 216.6 260.181 216.6 260.181Z" fill="#0CFFBB" stroke="#263238" stroke-miterlimit="10" stroke-linecap="round"/>
<path d="M248.39 260.523C248.39 260.523 251.74 258.523 229.98 258.853C208.22 259.183 201.87 263.203 201.87 263.203C201.87 263.203 194.87 262.533 194.17 265.203C193.47 267.873 197.85 277.253 197.85 277.253L203.85 313.733C203.85 313.733 199.16 318.423 200.85 319.423C202.54 320.423 211.22 318.083 211.22 318.083C211.22 318.083 233.98 321.773 244.69 319.763C255.4 317.753 263.1 316.763 263.1 316.763C263.1 316.763 266.78 316.763 267.1 315.433C267.42 314.103 265.76 310.433 265.76 310.433C265.76 310.433 263.42 282.313 257.06 266.253C257.06 266.253 259.4 261.253 256.39 259.253C253.38 257.253 248.39 260.523 248.39 260.523Z" fill="white" stroke="#263238" stroke-miterlimit="10" stroke-linecap="round"/>
<path d="M407.18 399.611C407.757 399.608 408.31 399.377 408.719 398.969C409.127 398.561 409.357 398.008 409.36 397.431V347.641H405V397.431C405.003 398.008 405.233 398.561 405.641 398.969C406.05 399.377 406.603 399.608 407.18 399.611Z" fill="white" stroke="#263238" stroke-linecap="round" stroke-linejoin="round"/>
<path d="M410.549 405.56C411.126 405.557 411.679 405.327 412.088 404.918C412.496 404.51 412.727 403.957 412.729 403.38V353.59H408.369V403.38C408.369 403.958 408.599 404.512 409.008 404.921C409.416 405.33 409.971 405.56 410.549 405.56Z" fill="white" stroke="#263238" stroke-linecap="round" stroke-linejoin="round"/>
<path d="M271.899 399.611C271.321 399.611 270.766 399.381 270.357 398.972C269.948 398.563 269.719 398.009 269.719 397.431V347.641H274.079V397.431C274.076 398.008 273.846 398.561 273.437 398.969C273.029 399.377 272.476 399.608 271.899 399.611Z" fill="white" stroke="#263238" stroke-linecap="round" stroke-linejoin="round"/>
<path d="M268.53 405.56C267.951 405.56 267.395 405.33 266.985 404.922C266.574 404.513 266.342 403.959 266.34 403.38V353.59H270.71V403.38C270.707 403.957 270.477 404.51 270.068 404.918C269.66 405.327 269.107 405.557 268.53 405.56Z" fill="white" stroke="#263238" stroke-linecap="round" stroke-linejoin="round"/>
<path d="M415.9 347.749H262.77L270.43 338.199H408.25L415.9 347.749Z" fill="white" stroke="#263238" stroke-linecap="round" stroke-linejoin="round"/>
<path d="M415.94 347.75H262.77V355.04H415.94V347.75Z" fill="white" stroke="#263238" stroke-linecap="round" stroke-linejoin="round"/>
<path d="M604.249 254.573C604.254 254.561 604.256 254.549 604.255 254.536C604.255 254.524 604.252 254.511 604.246 254.5C604.24 254.488 604.232 254.478 604.223 254.47C604.213 254.462 604.201 254.457 604.189 254.453C604.178 254.447 604.165 254.443 604.151 254.442C604.138 254.441 604.125 254.443 604.112 254.447C604.1 254.452 604.089 254.46 604.079 254.469C604.07 254.479 604.063 254.491 604.059 254.503C601.135 261.521 598.819 268.778 597.139 276.193C595.446 283.613 594.171 291.121 593.319 298.683L592.779 304.363C592.699 305.313 592.599 306.263 592.529 307.213L592.369 310.063C592.289 311.963 592.169 313.863 592.119 315.773V321.483L592.189 324.333C592.189 325.283 592.299 326.233 592.359 327.183C592.509 329.083 592.619 330.983 592.799 332.873C593.159 336.663 593.729 340.433 594.309 344.183C594.314 344.206 594.326 344.227 594.345 344.241C594.363 344.256 594.386 344.264 594.409 344.263C594.423 344.265 594.436 344.263 594.449 344.259C594.462 344.254 594.474 344.247 594.483 344.237C594.493 344.228 594.5 344.216 594.505 344.203C594.509 344.19 594.511 344.177 594.509 344.163C594.509 342.253 594.419 340.363 594.379 338.463C594.339 336.563 594.159 334.693 594.189 332.793C594.219 330.893 594.189 329.013 594.129 327.123L594.069 324.293V321.463V315.803L594.219 310.143L594.279 307.313C594.279 306.373 594.389 305.433 594.439 304.493L594.789 298.833C595.431 291.302 596.499 283.813 597.989 276.403C599.441 268.959 601.535 261.655 604.249 254.573Z" fill="#263238"/>
<path d="M605.069 284.172C605.078 284.157 605.082 284.14 605.083 284.122C605.084 284.105 605.081 284.087 605.074 284.071C605.067 284.055 605.057 284.04 605.044 284.028C605.031 284.017 605.016 284.008 604.999 284.002C604.988 283.998 604.975 283.996 604.962 283.996C604.95 283.997 604.937 284 604.926 284.006C604.915 284.011 604.905 284.019 604.897 284.029C604.889 284.039 604.883 284.05 604.879 284.062C603.282 288.778 601.947 293.579 600.879 298.442C599.811 303.317 599.016 308.249 598.499 313.212C597.999 318.212 597.439 323.132 597.369 328.112C597.251 333.095 597.428 338.081 597.899 343.042C597.899 343.092 597.899 343.132 597.989 343.132C598.003 343.135 598.017 343.135 598.03 343.132C598.043 343.129 598.056 343.123 598.066 343.114C598.077 343.106 598.086 343.095 598.091 343.082C598.097 343.07 598.1 343.056 598.099 343.042C598.679 338.042 599.029 333.142 599.369 328.192C599.709 323.242 599.769 318.292 600.089 313.352C600.776 303.47 602.451 293.681 605.089 284.132L605.069 284.172Z" fill="#263238"/>
<path d="M621.469 294.582C621.46 294.574 621.45 294.567 621.439 294.562C621.428 294.557 621.416 294.555 621.404 294.555C621.392 294.555 621.38 294.557 621.368 294.562C621.357 294.567 621.347 294.574 621.339 294.582C617.227 297.218 613.522 300.438 610.339 304.142C608.748 306.023 607.314 308.029 606.049 310.142L605.169 311.802L604.479 313.532C604.245 314.103 604.044 314.688 603.879 315.282C603.699 315.872 603.509 316.462 603.349 317.052C602.088 321.786 601.327 326.64 601.079 331.532C600.833 336.396 601.014 341.271 601.619 346.102C601.623 346.125 601.633 346.146 601.649 346.162C601.666 346.178 601.686 346.189 601.709 346.192C601.722 346.194 601.735 346.193 601.748 346.189C601.761 346.185 601.772 346.179 601.783 346.17C601.793 346.162 601.801 346.152 601.807 346.14C601.814 346.128 601.818 346.116 601.819 346.102L603.069 331.672C603.416 326.899 604.027 322.148 604.899 317.442C605.029 316.862 605.199 316.292 605.339 315.722C605.476 315.146 605.646 314.579 605.849 314.022L606.439 312.352L607.189 310.772C608.329 308.666 609.644 306.659 611.119 304.772C614.048 300.956 617.518 297.587 621.419 294.772C621.444 294.779 621.471 294.775 621.493 294.762C621.516 294.749 621.532 294.728 621.539 294.702C621.545 294.677 621.542 294.65 621.529 294.628C621.515 294.605 621.494 294.589 621.469 294.582Z" fill="#263238"/>
<path d="M613.529 313.121C611.393 314.677 609.675 316.739 608.529 319.121C607.329 321.456 606.393 323.918 605.739 326.461C605.539 327.091 605.389 327.731 605.249 328.371L604.799 330.291C604.561 331.581 604.397 332.883 604.309 334.191C604.309 335.501 604.259 336.801 604.309 338.111C604.405 339.416 604.575 340.715 604.819 342.001C604.819 342.001 604.819 342.081 604.899 342.081C604.913 342.086 604.927 342.087 604.941 342.086C604.954 342.084 604.968 342.079 604.979 342.071C604.991 342.063 605.001 342.053 605.008 342.041C605.015 342.029 605.019 342.015 605.019 342.001C605.321 340.738 605.551 339.46 605.709 338.171C605.909 336.901 606.109 335.641 606.259 334.371C606.409 333.101 606.619 331.861 606.709 330.591C606.799 329.321 606.979 328.061 607.259 326.831C607.699 324.332 608.417 321.89 609.399 319.551C610.278 317.163 611.711 315.018 613.579 313.291C613.588 313.283 613.595 313.273 613.6 313.261C613.605 313.25 613.607 313.238 613.607 313.226C613.607 313.214 613.605 313.202 613.6 313.191C613.595 313.18 613.588 313.17 613.579 313.161C613.568 313.143 613.55 313.129 613.529 313.121Z" fill="#263238"/>
<path d="M590.519 327.572C589.979 321.172 588.919 314.831 587.929 308.491C586.939 302.151 585.819 295.831 584.659 289.491C583.499 283.151 582.199 276.902 580.839 270.632C580.834 270.607 580.82 270.585 580.8 270.57C580.779 270.555 580.754 270.548 580.729 270.551C580.716 270.554 580.703 270.559 580.692 270.566C580.68 270.574 580.671 270.583 580.663 270.594C580.656 270.606 580.651 270.618 580.648 270.632C580.646 270.645 580.646 270.658 580.649 270.672C581.749 276.982 582.739 283.322 583.649 289.672C584.559 296.022 585.519 302.352 586.319 308.672C587.119 314.992 587.709 321.401 588.509 327.741L590.849 346.812C590.853 346.835 590.865 346.857 590.883 346.874C590.902 346.89 590.925 346.9 590.949 346.901C590.961 346.903 590.974 346.902 590.986 346.898C590.998 346.894 591.01 346.887 591.019 346.879C591.028 346.87 591.036 346.86 591.041 346.848C591.046 346.837 591.049 346.824 591.049 346.812C591.129 345.202 591.129 343.592 591.169 341.982C591.209 340.372 591.099 338.772 591.079 337.162C590.999 334.002 590.759 330.782 590.519 327.572Z" fill="#263238"/>
<path d="M586.679 327.482C586.339 324.942 585.869 322.421 585.389 319.911L584.489 316.172C584.189 314.922 583.909 313.671 583.549 312.441C582.271 307.472 580.634 302.603 578.649 297.871L577.879 296.111L577.029 294.382C576.489 293.222 575.829 292.121 575.209 291.001C573.95 288.758 572.392 286.696 570.579 284.871C570.571 284.863 570.56 284.856 570.549 284.851C570.538 284.846 570.526 284.844 570.514 284.844C570.502 284.844 570.49 284.846 570.479 284.851C570.467 284.856 570.457 284.863 570.449 284.871C570.433 284.891 570.424 284.916 570.424 284.941C570.424 284.967 570.433 284.992 570.449 285.012C572.134 286.902 573.557 289.011 574.679 291.281C575.239 292.421 575.829 293.541 576.309 294.711L577.059 296.461L577.729 298.241C579.503 302.992 580.93 307.865 581.999 312.822C582.589 315.282 582.999 317.821 583.449 320.281L583.999 324.001C584.219 325.241 584.489 326.481 584.659 327.741C585.059 330.241 585.519 332.741 585.959 335.251C586.399 337.761 586.809 340.251 587.339 342.781C587.341 342.804 587.352 342.824 587.369 342.839C587.385 342.854 587.407 342.862 587.429 342.861C587.443 342.863 587.457 342.861 587.47 342.857C587.484 342.853 587.496 342.845 587.506 342.836C587.517 342.827 587.525 342.815 587.531 342.802C587.536 342.789 587.539 342.776 587.539 342.762C587.539 340.202 587.479 337.645 587.359 335.091C587.249 332.571 586.999 330.002 586.679 327.482Z" fill="#263238"/>
<path d="M581.38 327.81C580.19 324.45 578.82 321.16 577.32 317.93C575.814 314.711 574.111 311.588 572.22 308.58C572.2 308.564 572.175 308.555 572.15 308.555C572.124 308.555 572.1 308.564 572.08 308.58C572.064 308.6 572.055 308.624 572.055 308.65C572.055 308.675 572.064 308.7 572.08 308.72C573.728 311.843 575.181 315.066 576.43 318.37C577.73 321.64 578.91 324.97 579.89 328.37C580.87 331.77 581.61 335.18 582.5 338.57C583.39 341.96 584.21 345.38 585.25 348.81C585.258 348.83 585.271 348.848 585.289 348.86C585.307 348.872 585.328 348.879 585.35 348.88C585.363 348.881 585.377 348.88 585.39 348.876C585.403 348.871 585.414 348.864 585.424 348.854C585.434 348.844 585.441 348.833 585.445 348.82C585.45 348.807 585.451 348.793 585.45 348.78C585.492 345.201 585.157 341.628 584.45 338.12C583.711 334.605 582.684 331.157 581.38 327.81Z" fill="#263238"/>
<path d="M581.16 339C580.505 336.906 579.556 334.916 578.34 333.09C577.203 331.215 575.82 329.5 574.23 327.99C573.423 327.245 572.549 326.575 571.62 325.99C570.695 325.391 569.683 324.939 568.62 324.65C568.597 324.646 568.574 324.65 568.554 324.661C568.534 324.672 568.519 324.689 568.51 324.71C568.503 324.722 568.499 324.734 568.498 324.748C568.497 324.761 568.499 324.774 568.504 324.787C568.509 324.799 568.516 324.811 568.526 324.82C568.536 324.829 568.547 324.836 568.56 324.84C570.449 325.751 572.122 327.053 573.47 328.66C574.837 330.225 575.988 331.968 576.89 333.84C577.89 335.68 578.37 337.72 579.21 339.61C579.59 340.61 579.96 341.56 580.39 342.53C580.749 343.559 581.18 344.562 581.68 345.53C581.687 345.545 581.699 345.558 581.713 345.566C581.727 345.575 581.743 345.58 581.76 345.58C581.774 345.581 581.788 345.58 581.801 345.575C581.814 345.571 581.827 345.564 581.837 345.555C581.847 345.545 581.856 345.534 581.861 345.521C581.867 345.508 581.87 345.494 581.87 345.48C581.905 344.389 581.865 343.296 581.75 342.21C581.64 341.13 581.42 340.07 581.16 339Z" fill="#263238"/>
<path d="M581.549 279.832C578.349 278.938 575.455 277.186 573.178 274.766C570.901 272.346 569.328 269.351 568.629 266.102C566.209 254.802 574.019 259.642 567.019 241.882C560.019 224.122 561.639 220.082 564.019 214.962C566.399 209.842 567.789 211.462 569.939 218.192C572.089 224.922 579.939 235.422 582.859 255.072C585.779 274.722 581.549 279.832 581.549 279.832Z" fill="#0CFFBB"/>
<path d="M602.28 260.722C602.28 260.722 595.28 258.302 595.01 245.112C594.74 231.922 600.13 234.612 600.93 218.192C601.73 201.772 602.82 190.192 605.78 189.932C608.74 189.672 616.54 198.012 619.24 216.312C621.94 234.612 615.74 246.722 610.35 252.112C604.96 257.502 602.28 260.722 602.28 260.722Z" fill="#0CFFBB"/>
<path d="M577.789 295.712C577.789 295.712 576.169 286.022 572.939 281.442C569.709 276.862 562.709 272.832 558.139 263.952C553.569 255.072 548.449 250.762 548.719 263.412C548.989 276.062 554.639 282.522 561.639 286.832C568.639 291.142 577.789 295.712 577.789 295.712Z" fill="#0CFFBB"/>
<path d="M574.829 312.404C574.829 312.404 568.369 300.004 558.999 290.874C549.629 281.744 541.999 277.144 544.729 281.714C547.459 286.284 550.649 286.024 555.229 294.094C559.809 302.164 558.459 308.094 564.919 312.674C571.379 317.254 574.829 312.404 574.829 312.404Z" fill="#0CFFBB"/>
<path d="M573.999 328.28C573.729 327.47 573.459 321.55 564.309 316.7C555.159 311.85 546.539 313.7 547.619 316.17C548.699 318.64 554.349 322.63 559.999 325.05C565.649 327.47 573.999 328.28 573.999 328.28Z" fill="#0CFFBB"/>
<path d="M601.74 296.252C601.74 296.252 597.74 291.132 599.86 280.372C601.98 269.612 606.86 272.292 612.24 266.642C617.62 260.992 616.54 260.182 621.93 254.262C627.32 248.342 632.16 245.112 634.31 247.532C636.46 249.952 633.23 257.532 630 261.802C626.77 266.072 621.66 268.262 619.24 273.642C616.82 279.022 617.89 287.642 611.7 291.642C605.51 295.642 601.74 296.252 601.74 296.252Z" fill="#0CFFBB"/>
<path d="M615.199 299.212C615.199 299.212 624.889 288.212 631.889 280.102C638.889 271.992 641.579 265.832 641.889 271.222C642.199 276.612 644.319 280.912 638.659 287.902C632.999 294.892 615.199 299.212 615.199 299.212Z" fill="#0CFFBB"/>
<path d="M610.078 317.001C610.078 317.001 609.818 312.701 625.158 302.741C640.498 292.781 646.958 290.901 645.338 294.931C643.718 298.961 636.998 303.001 629.728 310.241C622.458 317.481 610.078 317.001 610.078 317.001Z" fill="#0CFFBB"/>
<path d="M582.189 278.683C582.189 278.683 578.589 259.373 574.829 245.683C571.069 231.993 568.629 223.613 568.629 223.613" stroke="#263238" stroke-linecap="round" stroke-linejoin="round"/>
<path d="M601.658 260.921C601.658 260.921 608.198 239.991 610.348 227.341C612.498 214.691 610.078 205.271 609.008 199.621" stroke="#263238" stroke-linecap="round" stroke-linejoin="round"/>
<path d="M576.939 295.314C574.034 290.329 570.708 285.602 566.999 281.184C561.079 274.184 556.499 270.414 553.809 263.684" stroke="#263238" stroke-linecap="round" stroke-linejoin="round"/>
<path d="M601.738 296.252C601.738 296.252 603.888 283.332 609.008 276.602C614.128 269.872 624.348 259.372 628.388 252.602" stroke="#263238" stroke-linecap="round" stroke-linejoin="round"/>
<path d="M573.389 328.003C573.389 328.003 564.329 322.113 557.869 318.883" stroke="#263238" stroke-linecap="round" stroke-linejoin="round"/>
<path d="M603.15 385.072H584.45L575.1 338.242H612.51L603.15 385.072Z" fill="#263238" stroke="#263238" stroke-linecap="round" stroke-linejoin="round"/>
<path d="M279.84 319.821C279.84 319.821 276.06 315.051 275.46 312.461C274.86 309.871 279.64 313.651 279.64 313.651C279.64 313.651 277.45 308.091 277.45 305.901C277.45 303.711 281.83 309.081 281.83 309.081C281.83 309.081 277.05 294.171 278.45 294.371C279.85 294.571 283.02 299.541 283.02 299.541C283.02 299.541 282.02 282.841 283.61 283.641C285.2 284.441 286.99 300.331 286.61 301.131C286.23 301.931 288.61 295.961 288.79 299.131C288.97 302.301 286.61 309.871 286.61 309.871C286.61 309.871 289.61 304.501 289.99 307.871C290.37 311.241 289.39 315.221 288.79 316.021C288.19 316.821 291.38 312.841 290.58 315.021C289.683 316.943 288.548 318.744 287.2 320.381L279.84 319.821Z" fill="#0CFFBB" stroke="#263238" stroke-miterlimit="10" stroke-linecap="round"/>
<path d="M291.169 319.141H276.359V341.641H291.169V319.141Z" fill="white" stroke="#263238" stroke-linecap="round" stroke-linejoin="round"/>
<path d="M537.581 101.051H471.221V193.141H537.581V101.051Z" fill="white" stroke="#B2B2B2" stroke-miterlimit="10" stroke-linecap="round"/>
<path d="M523.37 120.762H485.42V173.422H523.37V120.762Z" fill="#BABABA" stroke="#B2B2B2" stroke-miterlimit="10" stroke-linecap="round"/>
<path d="M369.711 104.25H213.881V196.55H369.711V104.25Z" fill="#0CFFBB"/>
<path d="M369.711 175.4V196.55H213.881V132.41C242.911 135.67 318.351 146.54 369.711 175.4Z" fill="#9E9E9E"/>
<path d="M328.761 196.548H213.881V139.898C244.272 151.301 273.733 165.042 302.001 180.998C312.881 187.198 321.671 192.328 328.761 196.548Z" fill="#0CFFBB"/>
<path d="M369.711 104.25V126.39C358.111 126.97 340.081 128.61 312.171 132.39C263.571 139.04 229.941 154.9 213.881 164.01V104.25H369.711Z" fill="#9E9E9E"/>
<path d="M213.881 104.25H302.881C297.231 107.25 291.531 110.67 285.831 114.44C249.231 138.61 226.561 147.44 213.911 150.63L213.881 104.25Z" fill="#0CFFBB"/>
<path d="M213.881 130.85C225.591 125.11 239.701 116.17 246.271 104.25H213.881V130.85Z" fill="#9E9E9E"/>
<path d="M247.441 173.178C228.261 161.178 219.271 165.988 228.861 180.968C233.391 188.048 236.971 193.108 239.321 196.548H270.541C266.001 189.588 258.391 179.998 247.441 173.178Z" fill="#9E9E9E"/>
<path d="M369.711 104.25H213.881V196.55H369.711V104.25Z" stroke="#B2B2B2" stroke-miterlimit="10" stroke-linecap="round"/>
<path d="M468.76 246C468.76 246 469.9 251.72 471.62 254C473.34 256.28 477.73 257.44 478.11 258.77C478.49 260.1 478.3 266.03 480.21 266.6C482.12 267.17 484.79 265.65 484.79 265.65L486.7 267.17C486.7 267.17 492.23 270.03 492.8 270.03C493.37 270.03 494.52 270.61 496.05 268.7C497.53 267.15 499.212 265.804 501.05 264.7L505.05 270.81L518.41 255.16L510.2 246.76C510.2 246.76 504.86 229.4 499.7 225.39C494.54 221.38 486.35 222.33 480.24 226.72C474.13 231.11 469.93 235.12 468.79 237.79C467.65 240.46 468.76 246 468.76 246Z" fill="white" stroke="#263238" stroke-miterlimit="10" stroke-linecap="round"/>
<path d="M483.189 255.619C484.099 256.479 484.479 257.569 484.029 258.049C483.579 258.529 482.459 258.219 481.539 257.359C480.619 256.499 480.249 255.359 480.709 254.929C481.169 254.499 482.269 254.749 483.189 255.619Z" fill="#263238"/>
<path d="M477.349 254.998C477.164 254.562 477.072 254.091 477.078 253.617C477.085 253.143 477.191 252.676 477.388 252.245C477.586 251.814 477.871 251.429 478.226 251.114C478.581 250.8 478.998 250.562 479.449 250.418" stroke="#263238" stroke-miterlimit="10" stroke-linecap="round"/>
<path d="M473.15 226.369C473.15 226.369 463.42 235.529 463.42 239.919C463.42 244.309 468.76 246.029 468.76 246.029C468.76 246.029 469.14 240.109 472 238.029C474.86 235.949 477.16 235.739 477.35 239.749C477.54 243.759 476.77 245.479 478.87 245.669C480.97 245.859 483.45 244.899 485.36 245.479C487.27 246.059 494.9 256.349 494.9 256.349C493.863 258.182 492.582 259.864 491.09 261.349C488.99 263.249 485.93 265.929 486.7 267.259C487.47 268.589 489.18 275.089 493.57 275.469C497.96 275.849 501.2 262.109 501.01 257.719C500.82 253.329 497.01 249.319 497.01 249.319C497.01 249.319 490.14 242.639 490.72 239.969C491.3 237.299 494.91 236.149 497.78 240.539C499.499 243.212 500.303 246.37 500.07 249.539C500.07 249.539 507.89 249.539 508.85 248.779C509.81 248.019 510.18 248.589 510.18 246.869C510.18 245.149 509 224.999 503.87 221.409C498.74 217.819 489.94 216.259 482.69 218.929C475.44 221.599 473.15 226.369 473.15 226.369Z" fill="#263238" stroke="#263238" stroke-miterlimit="10" stroke-linecap="round"/>
<path d="M478.679 319.119C478.679 319.119 475.059 317.979 473.149 317.209C470.283 316.078 467.533 314.672 464.939 313.009C462.079 311.109 457.879 310.719 456.349 311.489C454.398 312.459 452.846 314.078 451.959 316.069C451.009 318.359 454.449 320.649 455.399 321.409C456.349 322.169 465.709 323.129 465.709 323.129C465.709 323.129 467.799 325.609 469.899 326.179C471.999 326.749 478.109 326.179 478.109 326.179L478.679 319.119Z" fill="white" stroke="#263238" stroke-miterlimit="10" stroke-linecap="round"/>
<path d="M467.419 315.108C467.419 315.108 464.749 312.248 462.839 313.398C460.929 314.548 459.219 318.928 459.029 319.498" stroke="#263238" stroke-miterlimit="10" stroke-linecap="round"/>
<path d="M459.029 317.978L466.659 305.758" stroke="#263238" stroke-width="2" stroke-miterlimit="10" stroke-linecap="round"/>
<path d="M498.529 316.258C498.529 316.258 486.129 318.928 484.979 319.118C483.829 319.308 478.679 319.118 478.679 319.118L478.109 326.178L498.719 327.328L498.529 316.258Z" fill="#0CFFBB" stroke="#263238" stroke-miterlimit="10" stroke-linecap="round"/>
<path d="M484.98 319.121L484.41 326.951" stroke="#263238" stroke-miterlimit="10" stroke-linecap="round"/>
<path d="M444.71 417.397C444.71 417.397 444.33 427.898 442.8 428.658C441.27 429.418 440.7 430.757 435.55 429.237C432.364 428.198 429.114 427.37 425.82 426.758C424.29 426.558 426.01 427.708 417.99 425.758C409.97 423.808 405.4 421.757 405.59 420.607C405.78 419.457 407.88 418.508 410.36 418.318C415.481 417.542 420.526 416.328 425.44 414.688C427.526 413.631 429.451 412.284 431.16 410.688L444.71 417.397Z" fill="white" stroke="#263238" stroke-miterlimit="10" stroke-linecap="round"/>
<path d="M417.999 425.797C425.999 427.707 424.299 426.557 425.829 426.797C429.123 427.41 432.374 428.238 435.559 429.277C440.709 430.797 441.289 429.468 442.809 428.698C443.239 428.488 443.579 427.518 443.809 426.228C438.019 426.288 426.899 423.927 423.889 423.927C420.259 423.927 405.569 420.688 405.569 420.688C405.399 421.788 409.999 423.887 417.999 425.797Z" fill="white" stroke="#263238" stroke-miterlimit="10" stroke-linecap="round"/>
<path d="M458.449 360.147L444.709 417.397C444.445 418.156 443.958 418.817 443.312 419.295C442.667 419.773 441.892 420.046 441.089 420.077C438.029 420.457 431.929 416.258 431.349 416.258C430.769 416.258 432.879 412.057 433.829 408.047C434.779 404.037 454.829 355.188 454.829 355.188L458.449 360.147Z" fill="#263238" stroke="#263238" stroke-miterlimit="10" stroke-linecap="round"/>
<path d="M413.219 409.388C413.219 409.388 405.219 412.818 404.219 413.008C403.219 413.198 392.579 410.718 391.059 411.108C390.653 411.224 390.275 411.421 389.947 411.688C389.619 411.954 389.349 412.285 389.152 412.659C388.956 413.033 388.838 413.443 388.805 413.864C388.771 414.285 388.824 414.708 388.959 415.108C389.529 417.018 407.279 426.948 413.769 428.848C420.259 430.748 425.769 434.008 427.319 432.288C428.869 430.568 430.319 420.288 430.319 420.288L414.479 408.648L413.219 409.388Z" fill="white" stroke="#263238" stroke-miterlimit="10" stroke-linecap="round"/>
<path d="M427.349 432.288C427.844 431.542 428.206 430.717 428.419 429.848C422.804 428.614 417.281 426.993 411.889 424.997C403.099 421.657 390.889 414.117 389.049 412.938C388.792 413.621 388.771 414.371 388.989 415.068C389.559 416.978 407.309 426.907 413.799 428.807C420.289 430.707 425.819 433.998 427.349 432.288Z" fill="white" stroke="#263238" stroke-miterlimit="10" stroke-linecap="round"/>
<path d="M492.799 341.45C492.799 341.45 467.609 329.24 458.639 327.52C455.309 326.837 451.844 327.442 448.941 329.212C446.039 330.982 443.916 333.787 442.999 337.06C441.849 341.64 422.999 400.42 422.999 400.42L419.139 402C419.139 402 415.139 405.62 414.749 406.19C414.359 406.76 413.219 409.44 413.219 409.44C413.219 409.44 420.479 417.44 424.099 419.55C425.92 420.681 427.912 421.508 429.999 422C429.999 422 440.299 403.11 441.259 400.06C442.219 397.01 455.569 370.29 457.669 366.47C458.802 364.571 459.638 362.511 460.149 360.36C460.149 360.36 475.419 369.52 479.229 370.67C483.039 371.82 492.999 362.82 492.999 362.82C492.999 362.82 494.899 349.08 495.089 347.56C495.279 346.04 492.799 341.45 492.799 341.45Z" fill="#263238" stroke="#263238" stroke-miterlimit="10" stroke-linecap="round"/>
<path d="M460.169 360.339L455.869 347.309" stroke="#919191" stroke-miterlimit="10" stroke-linecap="round"/>
<path d="M503.3 273.508C503.3 273.508 498.53 283.428 498.3 288.008C497.797 296.201 498.44 304.424 500.21 312.438C502.69 322.938 505.55 338.008 505.55 339.158C505.55 340.308 505.36 341.448 503.83 341.828C500.974 342.143 498.089 342.079 495.25 341.638C493.94 341.304 492.662 340.855 491.43 340.298L476.35 370.838C476.35 370.838 484.18 376.368 503.64 376.368C523.1 376.368 535.7 372.368 542 364.538C548.3 356.708 551.54 342.778 551.54 322.938C551.54 303.098 545.44 285.148 538.38 274.268C534.09 267.74 527.793 262.784 520.44 260.148L503.3 273.508Z" fill="#0CFFBB" stroke="#263238" stroke-miterlimit="10" stroke-linecap="round"/>
<path d="M517.609 252.711L501.969 269.501L503.109 275.801L523.149 259.201L517.609 252.711Z" fill="#0CFFBB" stroke="#263238" stroke-miterlimit="10" stroke-linecap="round"/>
<path d="M450.999 318.358C450.999 318.358 432.109 312.058 431.149 311.868C430.189 311.678 426.569 314.728 425.239 315.488C423.909 316.248 421.609 320.648 424.659 322.938C427.709 325.228 432.869 322.938 434.779 322.748C436.689 322.558 445.279 325.608 445.279 325.608C445.279 325.608 454.629 327.518 455.959 325.608C457.289 323.698 455.389 322.748 455.389 321.408C455.389 320.068 450.999 318.358 450.999 318.358Z" fill="white" stroke="#263238" stroke-miterlimit="10" stroke-linecap="round"/>
<path d="M429.999 317.781C425.999 315.881 424.269 316.831 424.269 316.831L423.999 316.911C422.999 318.601 422.469 321.301 424.649 322.911C427.709 325.201 432.859 322.911 434.769 322.721C436.679 322.531 445.269 325.581 445.269 325.581C447.662 326.057 450.09 326.337 452.529 326.421C446.219 324.121 432.999 319.221 429.999 317.781Z" fill="white" stroke="#263238" stroke-miterlimit="10" stroke-linecap="round"/>
<path d="M475.63 325.228L470.09 324.228C469.163 322.39 467.787 320.815 466.09 319.648C463.994 318.283 461.484 317.699 459 317.998C457.09 318.188 450.41 318.568 449.64 317.998C448.87 317.428 455.37 321.428 455.37 321.428C455.37 321.428 452.7 323.908 451.55 324.288C450.4 324.668 446.4 325.438 445.26 325.628C444.12 325.818 444.11 327.728 446.59 328.298C448.157 328.639 449.771 328.703 451.36 328.488C451.36 328.488 452.13 329.258 457.09 329.258C459.261 329.349 461.436 329.218 463.58 328.868L472.74 334.408L475.63 325.228Z" fill="white" stroke="#263238" stroke-miterlimit="10" stroke-linecap="round"/>
<path d="M472.77 334.39L475.63 325.23L470.09 324.23C469.247 326.598 468.578 329.025 468.09 331.49L472.77 334.39Z" fill="#0CFFBB" stroke="#263238" stroke-miterlimit="10" stroke-linecap="round"/>
<path d="M517.419 274.849C517.419 274.849 505.779 268.549 501.419 275.609C497.059 282.669 496.839 324.459 496.839 324.459C496.839 324.459 477.949 324.849 475.659 325.229C473.369 325.609 472.219 331.529 472.799 334.389C473.379 337.249 472.029 337.249 486.539 340.689C501.049 344.129 509.629 345.689 513.059 343.929C516.489 342.169 516.879 320.649 518.599 311.489C519.591 306.45 520.229 301.348 520.509 296.219" fill="#0CFFBB"/>
<path d="M517.419 274.849C517.419 274.849 505.779 268.549 501.419 275.609C497.059 282.669 496.839 324.459 496.839 324.459C496.839 324.459 477.949 324.849 475.659 325.229C473.369 325.609 472.219 331.529 472.799 334.389C473.379 337.249 472.029 337.249 486.539 340.689C501.049 344.129 509.629 345.689 513.059 343.929C516.489 342.169 516.879 320.649 518.599 311.489C519.591 306.45 520.229 301.348 520.509 296.219" stroke="#263238" stroke-miterlimit="10" stroke-linecap="round"/>
<path d="M519.709 307.098L523.339 296.598" stroke="#263238" stroke-miterlimit="10" stroke-linecap="round"/>
<path d="M496.809 324.461C496.809 324.461 498.339 330.761 500.809 332.461" stroke="#263238" stroke-miterlimit="10" stroke-linecap="round"/>
<path d="M514.84 382.77L546.89 398.08" stroke="#263238" stroke-miterlimit="10" stroke-linecap="round"/>
<path d="M541.5 384.469L510.01 397.229" stroke="#263238" stroke-miterlimit="10" stroke-linecap="round"/>
<path d="M495.629 377L481.109 432.2C481.043 432.447 481.035 432.705 481.085 432.955C481.135 433.205 481.242 433.441 481.398 433.643C481.553 433.845 481.754 434.009 481.983 434.121C482.212 434.233 482.464 434.291 482.719 434.29C483.066 434.289 483.404 434.181 483.687 433.981C483.97 433.78 484.184 433.497 484.299 433.17L503.679 377.67L495.629 377Z" fill="white" stroke="#263238" stroke-miterlimit="10" stroke-linecap="round"/>
<path d="M535.329 377L549.859 432.2C549.923 432.447 549.93 432.706 549.879 432.956C549.827 433.206 549.719 433.441 549.563 433.643C549.406 433.845 549.206 434.008 548.976 434.12C548.747 434.233 548.494 434.291 548.239 434.29C547.893 434.29 547.556 434.182 547.275 433.981C546.993 433.781 546.782 433.497 546.669 433.17L527.289 377.67L535.329 377Z" fill="white" stroke="#263238" stroke-miterlimit="10" stroke-linecap="round"/>
<path d="M508.37 377L493.84 432.2C493.774 432.447 493.765 432.705 493.815 432.955C493.865 433.205 493.972 433.441 494.128 433.643C494.284 433.845 494.484 434.009 494.713 434.121C494.943 434.233 495.195 434.291 495.45 434.29C495.797 434.291 496.136 434.183 496.419 433.982C496.702 433.782 496.916 433.498 497.03 433.17L516.41 377.67L508.37 377Z" fill="#BABABA" stroke="#263238" stroke-miterlimit="10" stroke-linecap="round"/>
<path d="M548.06 377L562.59 432.2C562.655 432.445 562.664 432.703 562.615 432.952C562.566 433.201 562.461 433.436 562.308 433.638C562.154 433.841 561.957 434.006 561.73 434.12C561.504 434.235 561.254 434.296 561 434.3C560.654 434.3 560.317 434.192 560.036 433.991C559.754 433.791 559.542 433.507 559.43 433.18L540 377.68L548.06 377Z" fill="#BABABA" stroke="#263238" stroke-miterlimit="10" stroke-linecap="round"/>
<path d="M502.07 382.199L534.12 397.519" stroke="#263238" stroke-miterlimit="10" stroke-linecap="round"/>
<path d="M528.73 383.898L497.25 396.668" stroke="#263238" stroke-miterlimit="10" stroke-linecap="round"/>
<path d="M566.329 315.699C566.329 315.699 559.259 314.559 547.899 322.059C541.959 325.989 535.839 328.429 522.769 332.449C509.699 336.469 501.579 335.039 497.439 341.449C493.299 347.859 481.559 375.669 481.559 375.669C481.559 375.669 532.819 384.379 549.909 377.349C566.999 370.319 568.549 347.929 566.209 337.879C563.869 327.829 566.329 315.699 566.329 315.699Z" fill="#263238" stroke="#263238" stroke-miterlimit="10" stroke-linecap="round"/>
<path d="M326.279 229.469C326.279 229.469 312.159 236.098 306.169 240.368C300.179 244.638 296.339 246.999 295.269 251.709C294.199 256.419 288.419 279.709 288.209 281.009C287.999 282.309 296.339 287.638 300.209 286.358C301.257 286.08 302.217 285.542 303.002 284.794C303.787 284.046 304.371 283.112 304.699 282.078H312.819L313.039 292.558H364.789L367.579 281.219L379.769 281.439C379.769 281.439 390.019 278.599 387.879 273.039C385.739 267.479 374.999 246.358 368.199 240.368C361.399 234.378 351.729 230.999 351.729 230.999C347.669 228.609 341.889 225.189 326.279 229.469Z" fill="white" stroke="#263238" stroke-miterlimit="10" stroke-linecap="round"/>
<path d="M377.18 256.841H377.26C374.81 250.271 371.73 243.521 368.2 240.421C361.35 234.421 351.73 231.011 351.73 231.011C347.67 228.661 341.89 225.241 326.28 229.521C326.28 229.521 312.16 236.151 306.17 240.421C300.18 244.691 296.34 247.051 295.27 251.761C294.96 253.091 294.51 255.991 294 259.491L312.59 268.001L312.8 282.121L313.02 292.601H364.77L367.56 281.261L366.7 265.651L377.18 256.841Z" fill="#263238" stroke="#263238" stroke-miterlimit="10" stroke-linecap="round"/>
<path d="M319.859 265.18C319.859 265.18 298.859 272.03 295.269 273.31C291.679 274.59 288.639 276.95 288.209 281.01C287.779 285.07 290.559 289.14 295.909 289.35C301.259 289.56 310.449 281 312.999 278.87C315.549 276.74 319.839 273.1 319.839 273.1L319.859 265.18Z" fill="white" stroke="#263238" stroke-miterlimit="10" stroke-linecap="round"/>
<path d="M374.609 263.262C374.609 263.262 382.309 268.182 386.159 270.532C390.009 272.882 389.369 278.442 387.659 280.792C385.949 283.142 381.239 283.362 377.389 280.792C373.539 278.222 368.619 271.602 368.619 271.602L374.189 264.752L374.609 263.262Z" fill="white" stroke="#263238" stroke-miterlimit="10" stroke-linecap="round"/>
<path d="M375.27 284.219H316.02L319 248.289H378.24L375.27 284.219Z" fill="#BABABA" stroke="#263238" stroke-miterlimit="10" stroke-linecap="round"/>
<path d="M368.7 272.24L351 292.34H331.7L309 273.1C307.057 277.375 305.759 281.914 305.15 286.57C304.29 293.84 304.51 314.8 308.36 319.29C312.21 323.78 325.47 326.78 336.59 326.14C347.71 325.5 354.77 322.71 359.69 318.44C364.61 314.17 375.51 298.97 377.22 285.93C378.93 272.89 375.54 270.1 368.7 272.24Z" fill="white" stroke="#263238" stroke-miterlimit="10" stroke-linecap="round"/>
<path d="M350.999 292.34C350.999 292.34 343.509 301.54 342.439 304.96Z" fill="white"/>
<path d="M350.999 292.34C350.999 292.34 343.509 301.54 342.439 304.96" stroke="#263238" stroke-miterlimit="10" stroke-linecap="round"/>
<path d="M326.059 226.901C326.059 226.901 328.419 239.091 329.909 242.731C331.399 246.371 333.979 250.641 339.319 248.501C344.659 246.361 346.599 237.001 347.239 234.001C347.562 232.319 348.215 230.719 349.159 229.291C349.159 229.291 333.549 220.701 326.059 226.901Z" fill="white" stroke="#263238" stroke-miterlimit="10" stroke-linecap="round"/>
<path d="M323.93 213.212C323.93 213.212 325.21 224.332 326.06 226.902C326.91 229.472 332.48 236.902 334.83 238.452C337.18 240.002 339.75 240.802 342.32 239.302C344.89 237.802 347.88 233.742 349.16 229.252C350.44 224.762 351.09 215.142 351.09 215.142C351.09 215.142 350.02 211.712 343.17 209.142C336.32 206.572 323.93 213.212 323.93 213.212Z" fill="white" stroke="#263238" stroke-miterlimit="10" stroke-linecap="round"/>
<path d="M332.199 218.342C332.199 218.342 333.099 216.982 335.509 217.282" stroke="#263238" stroke-miterlimit="10" stroke-linecap="round"/>
<path d="M343.469 217.578C343.469 217.578 346.469 217.128 347.979 218.638" stroke="#263238" stroke-miterlimit="10" stroke-linecap="round"/>
<path d="M341.46 218.129V228.819H338.25" stroke="#263238" stroke-miterlimit="10" stroke-linecap="round"/>
<path d="M335.049 221.769C335.049 222.709 334.619 223.479 334.049 223.479C333.479 223.479 333.049 222.709 333.049 221.769C333.049 220.829 333.479 220.059 334.049 220.059C334.619 220.059 335.049 220.819 335.049 221.769Z" fill="#263238"/>
<path d="M345.74 221.769C345.74 222.709 345.31 223.479 344.74 223.479C344.17 223.479 343.74 222.709 343.74 221.769C343.74 220.829 344.17 220.059 344.74 220.059C345.31 220.059 345.74 220.819 345.74 221.769Z" fill="#263238"/>
<path d="M337.189 232.461C337.493 232.779 337.858 233.031 338.262 233.204C338.665 233.377 339.1 233.466 339.539 233.466C339.979 233.466 340.413 233.377 340.817 233.204C341.221 233.031 341.586 232.779 341.889 232.461" stroke="#263238" stroke-miterlimit="10" stroke-linecap="round"/>
<path d="M324.569 215.779C324.569 215.779 322.429 213.429 321.149 216.209C319.869 218.989 325.209 223.909 325.209 223.909L324.569 215.779Z" fill="white" stroke="#263238" stroke-miterlimit="10" stroke-linecap="round"/>
<path d="M350.868 217.49C350.868 217.49 354.718 214.92 354.078 218.56C353.519 220.942 352.161 223.06 350.229 224.56L350.868 217.49Z" fill="white" stroke="#263238" stroke-miterlimit="10" stroke-linecap="round"/>
<path d="M323.929 213.21C328.293 211.396 332.904 210.243 337.609 209.79C347.019 209.15 351.729 211.93 351.729 211.93C351.729 211.93 350.449 198.45 350.019 196.53C349.589 194.61 344.239 190.33 337.399 190.53C330.559 190.73 322.209 195.88 322.209 198.66C322.209 201.44 323.929 213.21 323.929 213.21Z" fill="#0CFFBB" stroke="#263238" stroke-miterlimit="10" stroke-linecap="round"/>
<path d="M323.93 213.208C323.93 213.208 324.57 217.488 327.56 217.488C330.55 217.488 331.2 214.488 338.9 214.708C346.6 214.928 349.38 219.408 351.9 217.278C354.42 215.148 351.69 211.928 351.69 211.928C351.69 211.928 340.82 203.368 323.93 213.208Z" fill="white" stroke="#263238" stroke-miterlimit="10" stroke-linecap="round"/>
<path d="M338.92 321.14C338.92 321.14 335.55 301.54 329.35 287.42C323.15 273.3 321.86 269 315 269C308.14 269 306.87 276.49 306 279.91C305.13 283.33 310.28 300.01 313.28 304.5C316.28 308.99 332.5 338.6 332.5 338.6L340.5 328.98L338.92 321.14Z" fill="white" stroke="#263238" stroke-miterlimit="10" stroke-linecap="round"/>
<path d="M356.28 322.591C356.28 322.591 358.34 303.591 362.68 288.771C367.02 273.951 367.74 269.571 374.53 268.691C381.32 267.811 383.53 275.071 384.84 278.351C386.15 281.631 383.18 298.841 380.78 303.681C378.38 308.521 363.17 335.761 363.17 335.761L353.92 329.371L356.28 322.591Z" fill="white" stroke="#263238" stroke-miterlimit="10" stroke-linecap="round"/>
<path d="M348.329 313.46C346.709 311.93 341.179 309.58 336.939 315.23C332.699 320.88 332.689 329.43 332.689 329.43C332.689 329.43 331.089 336.37 332.499 338.6C333.909 340.83 339.879 341.88 342.079 338.47C344.279 335.06 345.079 329.47 345.079 329.47C345.079 329.47 347.009 325.59 348.549 322.53C350.089 319.47 349.869 314.91 348.329 313.46Z" fill="white" stroke="#263238" stroke-miterlimit="10" stroke-linecap="round"/>
<path d="M338.57 315.191H348.3" stroke="#263238" stroke-miterlimit="10" stroke-linecap="round"/>
<path d="M335.82 319.852H346.81" stroke="#263238" stroke-miterlimit="10" stroke-linecap="round"/>
<path d="M334.969 325.77H345.119" stroke="#263238" stroke-miterlimit="10" stroke-linecap="round"/>
<path d="M333.91 332.109H342.16" stroke="#263238" stroke-miterlimit="10" stroke-linecap="round"/>
<path d="M358.569 311.262C360.789 310.402 366.969 310.062 368.199 316.652C369.429 323.242 365.399 331.092 365.399 331.092C365.399 331.092 363.589 338.002 361.239 339.582C358.889 341.162 352.909 340.162 352.499 336.302C352.089 332.442 353.999 327.002 353.999 327.002C353.999 327.002 354.059 322.802 354.089 319.482C354.119 316.162 356.469 312.092 358.569 311.262Z" fill="white" stroke="#263238" stroke-miterlimit="10" stroke-linecap="round"/>
<path d="M356.75 315.41H365.64" stroke="#263238" stroke-miterlimit="10" stroke-linecap="round"/>
<path d="M356.33 320.898H366.06" stroke="#263238" stroke-miterlimit="10" stroke-linecap="round"/>
<path d="M355.91 326.191H364.79" stroke="#263238" stroke-miterlimit="10" stroke-linecap="round"/>
<path d="M354.219 331.691H362.459" stroke="#263238" stroke-miterlimit="10" stroke-linecap="round"/>
<path d="M133.85 151.532C133.036 154.021 132.033 156.445 130.85 158.782C129.04 162.272 127.1 162.322 128.62 164.602C130.14 166.882 132.38 165.782 131.13 167.822C130.196 169.17 128.919 170.244 127.43 170.932C127.43 170.932 122.92 178.272 121.03 180.252C119.14 182.232 111.15 180.252 109.33 179.012C107.51 177.772 107.63 178.862 107.63 178.862C107.63 178.862 105.82 187.292 105.76 187.932C105.7 188.572 105.76 190.512 105.76 190.512L91.0801 179.142L91.4601 172.302C91.4601 172.302 98.6201 169.062 106.07 152.542C113.52 136.022 104.79 130.312 120.58 136.412C136.37 142.512 133.85 151.532 133.85 151.532Z" fill="white" stroke="#263238" stroke-miterlimit="10" stroke-linecap="round"/>
<path d="M126.27 162.142C126.13 163.722 125.54 164.972 124.96 164.922C124.38 164.872 123.96 163.542 124.14 161.922C124.32 160.302 124.87 159.092 125.46 159.142C126.05 159.192 126.41 160.552 126.27 162.142Z" fill="#263238"/>
<path d="M123.609 155.783C123.609 155.783 126.929 154.573 128.899 156.683" stroke="#263238" stroke-miterlimit="10" stroke-linecap="round"/>
<path d="M123.779 173.402C123.142 173.226 122.546 172.921 122.031 172.507C121.515 172.092 121.089 171.577 120.779 170.992" stroke="#263238" stroke-miterlimit="10" stroke-linecap="round"/>
<path d="M121.209 141.412C121.209 141.412 121.689 145.742 115.029 155.682C108.369 165.622 106.029 167.562 105.099 173.492C104.169 179.422 103.999 180.702 103.999 180.702C103.999 180.702 93.9993 175.312 87.6093 171.752C81.2193 168.192 74.6092 158.162 76.4892 149.102C78.3692 140.042 80.4893 127.762 95.8092 124.592C111.129 121.422 119.619 129.682 119.619 129.682C119.619 129.682 125.479 126.542 135.269 129.972C145.059 133.402 138.379 150.852 136.779 151.972C135.692 152.735 134.557 153.427 133.379 154.042C132.052 151.795 130.237 149.874 128.069 148.422C125.447 146.438 123.135 144.076 121.209 141.412Z" fill="#263238" stroke="#263238" stroke-miterlimit="10" stroke-linecap="round"/>
<path d="M118.05 337.352C115.15 347.026 112.796 356.855 111 366.792C108.73 380.552 103.54 403.062 103.54 408.002C103.54 412.942 106.25 421.122 106.25 421.122C109.218 423.612 112.313 425.948 115.52 428.122C119.38 430.612 124.13 432.742 123.38 433.962C122.63 435.182 121.95 435.562 116.62 435.092L91.4798 432.902C91.4798 432.902 90.9898 431.142 92.1798 427.372C93.3221 423.509 94.1679 419.564 94.7098 415.572C95.2398 411.972 94.3898 416.832 93.2998 399.782C92.2098 382.732 87.3997 383.782 92.8797 367.782C98.3597 351.782 99.4098 347.102 99.4698 346.462C99.5298 345.822 98.9998 334.402 98.9998 334.402L118.05 337.352Z" fill="white" stroke="#263238" stroke-miterlimit="10" stroke-linecap="round"/>
<path d="M112.07 425.76L111.29 429.51L92.9396 424.59C92.6996 425.59 92.4395 426.5 92.1495 427.4C90.9595 431.17 91.4495 432.93 91.4495 432.93L116.59 435.12C121.92 435.59 122.59 435.22 123.35 433.99C124.11 432.76 119.35 430.64 115.49 428.15C114.42 427.47 113.23 426.62 112.07 425.76Z" fill="#263238" stroke="#263238" stroke-miterlimit="10" stroke-linecap="round"/>
<path d="M84.9999 332.531L88.9999 348.531C88.9999 348.531 81.3399 362.461 79.9999 370.931C78.6599 379.401 75.1699 411.451 73.5999 417.111C72.0299 422.771 69.4399 435.211 70.1499 439.351C70.8599 443.491 73.4499 445.871 75.7299 444.351C78.0099 442.831 80.8999 439.221 80.8199 432.771C80.7399 426.321 80.7499 418.771 81.8999 415.471C83.0499 412.171 101.64 368.951 104.61 359.551C106.357 354.137 107.563 348.563 108.21 342.911C108.64 340.371 108.3 331.961 108.3 331.961L84.9999 332.531Z" fill="white" stroke="#263238" stroke-miterlimit="10" stroke-linecap="round"/>
<path d="M71.8099 424.262C70.6099 429.982 69.5799 436.572 70.0599 439.372C70.7699 443.512 73.3599 445.892 75.6399 444.372C77.9199 442.852 80.8099 439.242 80.7299 432.792C80.7299 431.792 80.7299 430.792 80.7299 429.712C78.7299 435.712 76.9999 437.782 74.2099 436.512C70.9399 435.002 71.6799 425.682 71.8099 424.262Z" fill="#263238" stroke="#263238" stroke-miterlimit="10" stroke-linecap="round"/>
<path d="M139.219 230.142L135.319 233.022L114.829 235.482L114.729 250.872L137.109 239.622L140.569 239.282L147.039 238.982L148.629 228.172L139.219 230.142Z" fill="white" stroke="#263238" stroke-miterlimit="10" stroke-linecap="round"/>
<path d="M126.929 234.031L114.829 235.481L114.729 250.871L127.819 244.291L126.929 234.031Z" fill="#0CFFBB" stroke="#263238" stroke-miterlimit="10" stroke-linecap="round"/>
<path d="M150.65 224.702C150.65 224.702 158.18 219.562 161.5 215.992C163.934 213.255 166.195 210.369 168.27 207.352C168.27 207.352 173.12 215.712 174.76 216.502C176.4 217.292 180.46 217.642 180.46 217.642C176.831 221.157 172.888 224.334 168.68 227.132C161.15 232.272 150.53 240.792 149.07 242.812C148.263 243.939 147.378 245.009 146.42 246.012L144.32 230.802L150.65 224.702Z" fill="white" stroke="#263238" stroke-miterlimit="10" stroke-linecap="round"/>
<path d="M166.898 228.271C169.39 225.171 171.552 221.819 173.348 218.271C174.487 215.678 175.096 212.883 175.138 210.051C175.138 210.051 180.968 214.641 180.708 217.621C180.708 217.661 169.118 227.391 166.898 228.271Z" fill="white" stroke="#263238" stroke-miterlimit="10" stroke-linecap="round"/>
<path d="M137.299 232.55C137.299 232.55 140.769 224.7 145.979 224.08C151.189 223.46 154.149 223.93 155.269 223.39C156.389 222.85 156.649 224.79 154.619 225.91C152.683 226.825 150.677 227.581 148.619 228.17C148.619 228.17 145.619 232.85 143.619 233.53L141.619 234.22" fill="white"/>
<path d="M137.299 232.55C137.299 232.55 140.769 224.7 145.979 224.08C151.189 223.46 154.149 223.93 155.269 223.39C156.389 222.85 156.649 224.79 154.619 225.91C152.683 226.825 150.677 227.581 148.619 228.17C148.619 228.17 145.619 232.85 143.619 233.53L141.619 234.22" stroke="#263238" stroke-miterlimit="10" stroke-linecap="round"/>
<path d="M81.3594 246.133C81.3594 246.133 70.1794 258.673 66.9994 273.003C63.8194 287.333 72.3394 310.173 74.5394 314.443C76.7394 318.713 82.3094 339.073 82.3094 339.073L118.519 339.333C118.519 339.333 121.029 293.393 118.519 275.783C116.009 258.173 118.249 249.353 118.249 249.353L81.3594 246.133Z" fill="#263238" stroke="#263238" stroke-miterlimit="10" stroke-linecap="round"/>
<path d="M91.0785 179.142C91.0785 179.142 79.9985 190.402 77.4485 200.062C74.8985 209.722 77.8285 232.512 78.8985 237.542C79.5016 240.463 80.324 243.335 81.3585 246.132L118.219 249.352C118.219 249.352 123.799 237.172 123.809 229.652C123.819 222.132 120.669 211.562 117.569 205.282C114.469 199.002 105.769 187.932 105.769 187.932C105.769 187.932 94.8685 177.532 91.0785 179.142Z" fill="#0CFFBB" stroke="#263238" stroke-miterlimit="10" stroke-linecap="round"/>
<path d="M117.57 205.282C114.46 199.002 105.77 187.932 105.77 187.932C105.77 187.932 94.8702 177.532 91.0802 179.142C91.0802 179.142 88.7502 181.512 85.9902 185.002C90.6202 185.872 97.7102 187.362 104.64 192.912C109.09 196.462 115.11 204.322 118.98 208.442C118.51 207.312 118 206.242 117.57 205.282Z" fill="#0CFFBB" stroke="#263238" stroke-miterlimit="10" stroke-linecap="round"/>
<path d="M159.559 208.731C159.559 208.731 160.269 203.001 158.009 204.301C155.749 205.601 157.909 207.941 156.319 208.881C154.729 209.821 159.559 208.731 159.559 208.731Z" fill="white" stroke="#263238" stroke-miterlimit="10" stroke-linecap="round"/>
<path d="M152.82 214.582C155.057 214.133 157.261 213.538 159.42 212.802C160.98 212.082 163.7 208.022 162.21 207.892C160.72 207.762 159.02 209.972 158.11 210.542C157.053 211.012 155.941 211.348 154.8 211.542L152.82 214.582Z" fill="white" stroke="#263238" stroke-miterlimit="10" stroke-linecap="round"/>
<path d="M128.1 212.432C128.1 212.432 138.86 204.782 140.57 204.932C142.28 205.082 144.91 206.812 146.81 207.192C148.71 207.572 154.03 205.672 153.43 207.552C152.83 209.432 148.54 209.492 148.54 209.492C148.54 209.492 153.48 209.492 154.81 208.962C156.14 208.432 160.1 204.962 160.81 206.692C161.52 208.422 155.17 212.212 152.81 214.582C150.45 216.952 143.34 214.832 141.48 214.022C140.332 213.532 139.145 213.144 137.93 212.862L130.02 219.862L128.1 212.432Z" fill="white" stroke="#263238" stroke-miterlimit="10" stroke-linecap="round"/>
<path d="M148.539 209.491L144.009 209.741L142.129 209.141" fill="white"/>
<path d="M148.539 209.491L144.009 209.741L142.129 209.141" stroke="#263238" stroke-miterlimit="10" stroke-linecap="round"/>
<path d="M88.3486 195.641C88.3486 195.641 81.5686 199.561 82.2086 206.911C82.8486 214.261 90.6286 255.521 93.2086 255.751C95.7886 255.981 132.719 218.841 132.719 218.841L128.119 212.431L106.999 223.001L100.629 202.481" fill="#0CFFBB"/>
<path d="M88.3486 195.641C88.3486 195.641 81.5686 199.561 82.2086 206.911C82.8486 214.261 90.6286 255.521 93.2086 255.751C95.7886 255.981 132.719 218.841 132.719 218.841L128.119 212.431L106.999 223.001L100.629 202.481" stroke="#263238" stroke-miterlimit="10" stroke-linecap="round"/>
<path d="M107 223.031L94.6504 231.621" stroke="#263238" stroke-miterlimit="10" stroke-linecap="round"/>
</g>
<defs>
<clipPath id="clip0_1073_6866">
<rect width="700" height="500" fill="white"/>
</clipPath>
</defs>
</svg>
