<svg width="500" height="500" viewBox="0 0 500 500" fill="none" xmlns="http://www.w3.org/2000/svg">
<path d="M155.1 119.999C154.86 117.999 155.77 116.709 157.72 116.479C159.67 116.249 160.85 117.259 161.09 119.299L161.86 125.809C162.09 127.809 161.18 129.099 159.23 129.329C157.28 129.559 156.1 128.549 155.86 126.509L155.1 119.999ZM157.85 126.419C157.96 127.299 158.37 127.619 159.02 127.549C159.67 127.479 160.02 127.059 159.89 126.179L159.1 119.389C158.99 118.509 158.55 118.189 157.93 118.269C157.31 118.349 156.93 118.749 157.06 119.629L157.85 126.419ZM165.55 115.709L167.39 115.489L161.9 136.209L160.06 136.429L165.55 115.709ZM165.76 126.099C165.52 124.099 166.44 122.799 168.39 122.579C170.34 122.359 171.52 123.359 171.76 125.389L172.52 131.899C172.76 133.899 171.85 135.189 169.89 135.419C167.93 135.649 166.76 134.639 166.52 132.599L165.76 126.099ZM168.52 132.509C168.62 133.389 169.03 133.719 169.68 133.639C170.33 133.559 170.68 133.149 170.56 132.269L169.76 125.479C169.66 124.609 169.22 124.289 168.6 124.359C167.98 124.429 167.6 124.849 167.73 125.719L168.52 132.509Z" fill="white"/>
<path d="M177.16 139.92L154 142.63C153.474 142.692 152.944 142.542 152.528 142.214C152.112 141.886 151.843 141.406 151.78 140.88L149 117C148.951 116.555 149.002 116.106 149.149 115.683C149.296 115.261 149.536 114.877 149.85 114.56L159.51 105.05C159.975 104.588 160.582 104.296 161.233 104.22C161.883 104.144 162.541 104.288 163.1 104.63L174.69 111.63C175.072 111.861 175.396 112.177 175.636 112.554C175.877 112.93 176.029 113.356 176.08 113.8L178.88 137.68C178.948 138.205 178.805 138.735 178.483 139.155C178.161 139.575 177.685 139.85 177.16 139.92Z" stroke="white" stroke-linecap="round" stroke-linejoin="round"/>
<path d="M163.16 107.699C163.196 107.993 163.144 108.29 163.011 108.554C162.877 108.818 162.668 109.036 162.41 109.18C162.153 109.325 161.858 109.389 161.563 109.366C161.268 109.343 160.987 109.232 160.756 109.048C160.524 108.865 160.352 108.616 160.262 108.335C160.172 108.053 160.168 107.751 160.25 107.468C160.332 107.184 160.496 106.93 160.723 106.74C160.949 106.55 161.227 106.431 161.52 106.399C161.91 106.354 162.302 106.466 162.61 106.71C162.917 106.954 163.115 107.31 163.16 107.699Z" stroke="white" stroke-linecap="round" stroke-linejoin="round"/>
<path d="M161.69 91C161.69 91 166.21 108.4 161.69 107.9" stroke="white" stroke-linecap="round" stroke-linejoin="round"/>
<path d="M160.54 104.399C161.42 99.5594 165.85 91.3994 165.85 91.3994" stroke="white" stroke-linecap="round" stroke-linejoin="round"/>
<path d="M161.69 107.869C161.426 107.852 161.173 107.754 160.967 107.587C160.761 107.421 160.612 107.194 160.54 106.939" stroke="white" stroke-linecap="round" stroke-linejoin="round"/>
<path d="M181.86 97.4297C185.914 100.706 189.021 105.003 190.86 109.88" stroke="white" stroke-linecap="round" stroke-linejoin="round"/>
<path d="M135.05 112.87C136.212 108.399 138.414 104.266 141.475 100.808C144.537 97.3491 148.372 94.6624 152.668 92.9665C156.964 91.2706 161.601 90.6133 166.199 91.0483C170.797 91.4833 175.228 92.9981 179.13 95.4695" stroke="white" stroke-linecap="round" stroke-linejoin="round"/>
<path d="M144.18 142.349C138.893 137.759 135.432 131.42 134.43 124.489" stroke="white" stroke-linecap="round" stroke-linejoin="round"/>
<path d="M162.29 149.549C156.94 149.335 151.752 147.658 147.29 144.699" stroke="white" stroke-linecap="round" stroke-linejoin="round"/>
<path d="M192.45 116C193.578 123.695 191.602 131.523 186.959 137.762C182.316 144.001 175.385 148.14 167.69 149.27" stroke="white" stroke-linecap="round" stroke-linejoin="round"/>
<path d="M89.2105 213.576L126.029 220.714L121.741 242.833C121.657 243.264 121.406 243.645 121.041 243.891C120.677 244.137 120.23 244.228 119.799 244.144L86.2238 237.635C85.7923 237.551 85.4118 237.3 85.1658 236.936C84.9199 236.571 84.8287 236.124 84.9124 235.693L89.2007 213.574L89.2105 213.576Z" stroke="white" stroke-width="0.998248" stroke-linecap="round" stroke-linejoin="round"/>
<path d="M127.31 221.219L88.5535 213.748L89.6891 207.857C89.7724 207.425 90.024 207.043 90.3886 206.796C90.7532 206.55 91.2009 206.458 91.6332 206.541L127.169 213.391C127.588 213.482 127.955 213.731 128.194 214.086C128.433 214.442 128.525 214.876 128.451 215.298L127.316 221.189L127.31 221.219Z" stroke="white" stroke-linecap="round" stroke-linejoin="round"/>
<path d="M112.068 210.448L106.795 209.432L100.754 240.775L106.027 241.791L112.068 210.448Z" stroke="white" stroke-linecap="round" stroke-linejoin="round"/>
<path d="M109.43 209.94C109.43 209.94 118.58 203.26 122.81 205.28C127.04 207.3 124.95 212.93 122.81 212.52" stroke="white" stroke-linecap="round" stroke-linejoin="round"/>
<path d="M113.05 210.63C113.05 210.63 120.49 206.93 121.57 208.63C122.65 210.33 119.44 211.9 116.97 211.42" stroke="white" stroke-linecap="round" stroke-linejoin="round"/>
<path d="M109.68 209.481C109.68 209.481 113.54 202.481 113.04 200.221H115.61C115.61 200.221 116.45 202.881 113.45 207.431" stroke="white" stroke-linecap="round" stroke-linejoin="round"/>
<path d="M109.43 209.94C109.43 209.94 103.43 200.34 98.7401 200.65C94.0501 200.96 93.9201 206.95 96.0501 207.36" stroke="white" stroke-linecap="round" stroke-linejoin="round"/>
<path d="M105.81 209.24C105.81 209.24 100.28 203.03 98.6501 204.19C97.0201 205.35 99.4201 208.01 101.89 208.48" stroke="white" stroke-linecap="round" stroke-linejoin="round"/>
<path d="M109.37 209.42C109.37 209.42 108.37 201.47 109.7 199.58L107.3 198.58C107.3 198.58 105.54 200.74 106.64 206.08" stroke="white" stroke-linecap="round" stroke-linejoin="round"/>
<path d="M136.66 198.7C140.782 203.909 143.443 210.122 144.37 216.7" stroke="white" stroke-linecap="round" stroke-linejoin="round"/>
<path d="M74 204.7C76.7099 199.461 80.6191 194.936 85.409 191.494C90.1989 188.052 95.7342 185.79 101.564 184.892C107.394 183.995 113.353 184.487 118.957 186.328C124.56 188.17 129.649 191.309 133.81 195.49" stroke="white" stroke-linecap="round" stroke-linejoin="round"/>
<path d="M76.9999 244C71.716 236.786 69.1966 227.915 69.8999 219" stroke="white" stroke-linecap="round" stroke-linejoin="round"/>
<path d="M97.5697 258.07C90.9518 256.302 84.9488 252.746 80.2197 247.79" stroke="white" stroke-linecap="round" stroke-linejoin="round"/>
<path d="M144.61 224.801C143.841 234.702 139.171 243.893 131.627 250.352C124.082 256.81 114.282 260.008 104.38 259.241" stroke="white" stroke-linecap="round" stroke-linejoin="round"/>
<path d="M292.73 125.09L289.59 123.49C290.056 122.111 290.213 120.647 290.05 119.2C291.05 119.68 292.11 120.2 293.05 120.63C293 121.92 292.92 123.44 292.73 125.09Z" stroke="white" stroke-linecap="round" stroke-linejoin="round"/>
<path d="M297.3 122.69C298.295 123.197 299.36 123.554 300.46 123.75C301.612 129.899 300.709 136.255 297.89 141.84C297.08 143.42 288.57 139.06 289.37 137.48C291.193 133.574 292.33 129.382 292.73 125.09C292.92 123.44 293.03 121.92 293.08 120.63C294.86 121.47 296.42 122.24 297.3 122.69Z" stroke="white" stroke-linecap="round" stroke-linejoin="round"/>
<path d="M307.45 102.86C309.825 104.074 311.684 106.1 312.692 108.57C313.699 111.039 313.787 113.788 312.94 116.317C312.093 118.846 310.366 120.987 308.074 122.351C305.782 123.715 303.077 124.211 300.45 123.75C299.35 123.554 298.285 123.197 297.29 122.69C296.41 122.24 294.85 121.47 293.07 120.63C292.07 120.16 291.07 119.68 290.07 119.2C287.61 118.07 285.23 117.03 284 116.63L294.76 95.6299C297 97.2699 304.93 101.57 307.45 102.86Z" stroke="white" stroke-linecap="round" stroke-linejoin="round"/>
<path d="M284.31 85.6902C287.325 89.451 290.833 92.7878 294.74 95.6102L283.98 116.61C279.402 115.11 274.642 114.233 269.83 114L265.66 113.78L281.66 82.4502L284.31 85.6902Z" stroke="white" stroke-linecap="round" stroke-linejoin="round"/>
<path d="M260.81 114.65L279.57 77.9999C279.715 77.7232 279.963 77.5146 280.26 77.4192C280.558 77.3238 280.881 77.3491 281.16 77.4899L282.54 78.1999C282.818 78.3431 283.029 78.5904 283.126 78.8881C283.224 79.1857 283.2 79.5097 283.06 79.7899L281.69 82.4599L265.69 113.79L264.33 116.46C264.259 116.598 264.161 116.72 264.043 116.821C263.925 116.921 263.788 116.997 263.64 117.044C263.493 117.092 263.337 117.11 263.183 117.097C263.028 117.084 262.878 117.041 262.74 116.97L261.35 116.26C261.206 116.193 261.077 116.097 260.971 115.979C260.865 115.86 260.784 115.722 260.734 115.571C260.683 115.42 260.664 115.261 260.677 115.103C260.69 114.944 260.735 114.79 260.81 114.65Z" stroke="white" stroke-linecap="round" stroke-linejoin="round"/>
<path d="M261.37 91.7996L254.14 88.0996" stroke="white" stroke-linecap="round" stroke-linejoin="round"/>
<path d="M269.84 80.1997L265.28 72.2197" stroke="white" stroke-linecap="round" stroke-linejoin="round"/>
<path d="M256.92 105.45L247.79 106.42" stroke="white" stroke-linecap="round" stroke-linejoin="round"/>
<path d="M317.36 70.9302C311.048 65.0836 303.286 61.0333 294.88 59.2002" stroke="white" stroke-linecap="round" stroke-linejoin="round"/>
<path d="M303.36 151C310.373 148.032 316.586 143.45 321.494 137.627C326.402 131.805 329.866 124.906 331.605 117.491C333.343 110.077 333.307 102.357 331.499 94.96C329.691 87.5625 326.162 80.6963 321.2 74.9199" stroke="white" stroke-linecap="round" stroke-linejoin="round"/>
<path d="M253.05 143.19C261.808 150.719 272.98 154.85 284.53 154.83" stroke="white" stroke-linecap="round" stroke-linejoin="round"/>
<path d="M237 115.34C238.616 124.043 242.599 132.132 248.51 138.72" stroke="white" stroke-linecap="round" stroke-linejoin="round"/>
<path d="M284.53 58.0801C271.699 58.0801 259.393 63.1772 250.32 72.2503C241.247 81.3233 236.15 93.6289 236.15 106.46" stroke="white" stroke-linecap="round" stroke-linejoin="round"/>
<path d="M198.85 184.35C194.79 180.72 190.58 182.35 188.43 183.58C188 181.12 186.43 176.88 181.07 176.16C175.21 175.38 170.41 181.09 171.98 189.05C173.12 194.78 176.78 200.05 178.74 202.5C178.97 202.8 179.19 203.06 179.37 203.27H180.37C183.53 203.14 189.89 202.51 194.97 199.65C202 195.65 203.25 188.29 198.85 184.35Z" stroke="white" stroke-linecap="round" stroke-linejoin="round"/>
<path d="M176.05 207C176.05 207 175.78 207.49 175.41 208.35" stroke="white" stroke-linecap="round" stroke-linejoin="round"/>
<path d="M174.39 211.14C172.79 216.37 171.69 225.33 180.21 230.76C201.27 244.19 208.36 212.51 192.21 215.36C181.12 217.36 192.85 246.67 210.21 240.76" stroke="white" stroke-linecap="round" stroke-linejoin="round" stroke-dasharray="2.98 2.98"/>
<path d="M211.66 240.21C212.1 240.01 212.55 239.79 213 239.55" stroke="white" stroke-linecap="round" stroke-linejoin="round"/>
<path d="M185.69 433.76C185.69 433.76 173.8 441.85 169.01 441.31C168.484 441.283 167.984 441.07 167.6 440.71C164.48 437.49 161.97 431.83 161.97 431.83C161.97 431.83 163.46 429.77 168.05 435.24L170.96 432.57L164.96 426.51C164.96 426.51 168.35 423.82 174.11 427.25C173.91 426.83 170.2 418.75 173 407.75L159 394.24L171.42 383.42L172.42 382.58C172.42 382.58 173.2 383.35 174.42 384.58C175.64 385.81 177.33 387.29 179.16 388.9C183.54 392.75 188.84 396.9 191.16 396.9C195.34 396.76 185.69 433.76 185.69 433.76Z" fill="white"/>
<mask id="mask0_465_2802" style="mask-type:luminance" maskUnits="userSpaceOnUse" x="159" y="382" width="34" height="60">
<path d="M185.69 433.76C185.69 433.76 173.8 441.85 169.01 441.31C168.484 441.283 167.984 441.07 167.6 440.71C164.48 437.49 161.97 431.83 161.97 431.83C161.97 431.83 163.46 429.77 168.05 435.24L170.96 432.57L164.96 426.51C164.96 426.51 168.35 423.82 174.11 427.25C173.91 426.83 170.2 418.75 173 407.75L159 394.24L171.42 383.42L172.42 382.58C172.42 382.58 173.2 383.35 174.42 384.58C175.64 385.81 177.33 387.29 179.16 388.9C183.54 392.75 188.84 396.9 191.16 396.9C195.34 396.76 185.69 433.76 185.69 433.76Z" fill="white"/>
</mask>
<g mask="url(#mask0_465_2802)">
<path opacity="0.4" d="M176.5 428.46C176.5 428.46 169.72 435.46 169.01 441.31C168.484 441.283 167.984 441.07 167.6 440.71C164.48 437.49 161.97 431.83 161.97 431.83C161.97 431.83 163.46 429.77 168.05 435.24L170.96 432.57L164.96 426.51C164.96 426.51 168.35 423.82 174.11 427.25C173.91 426.83 170.2 418.75 173 407.75L159 394.24L171.42 383.42L174.42 384.55C175.65 385.71 177.33 387.26 179.16 388.87C176.53 392.72 170.9 400.69 170.9 400.69L175.77 407.29C175.77 407.29 172.77 423.93 176.5 428.46Z" fill="#92E3A9"/>
</g>
<path d="M185.69 433.76C185.69 433.76 173.8 441.85 169.01 441.31C168.484 441.283 167.984 441.07 167.6 440.71C164.48 437.49 161.97 431.83 161.97 431.83C161.97 431.83 163.46 429.77 168.05 435.24L170.96 432.57L164.96 426.51C164.96 426.51 168.35 423.82 174.11 427.25C173.91 426.83 170.2 418.75 173 407.75L159 394.24L171.42 383.42L172.42 382.58C172.42 382.58 173.2 383.35 174.42 384.58C175.64 385.81 177.33 387.29 179.16 388.9C183.54 392.75 188.84 396.9 191.16 396.9C195.34 396.76 185.69 433.76 185.69 433.76Z" stroke="#373C48" stroke-linecap="round" stroke-linejoin="round"/>
<path d="M171 432.571C171.659 430.601 172.726 428.791 174.13 427.261" stroke="#373C48" stroke-linecap="round" stroke-linejoin="round"/>
<path d="M392.79 339.581C390.914 342.317 388.646 344.763 386.06 346.841C364.2 364.941 313.8 373.841 313.8 373.841C313.8 373.841 312.11 376.371 309.51 379.971C304.85 386.441 297.22 396.381 291 401.361C288.37 403.471 286 404.691 284.19 404.361L293.65 439.291L297.88 454.451C297.88 454.451 254.42 473.451 180.09 451.731C180.09 451.731 179.24 442.031 179.87 439.961C179.87 439.861 179.93 439.761 179.97 439.651C180.727 438.273 181.714 437.035 182.89 435.991C182.89 435.991 182.47 429.751 182.26 423.401C182.02 419.352 182.07 415.292 182.41 411.251C182.94 408.051 185.28 400.311 186.46 396.511L187.15 394.301L183.45 359.661L182.39 349.661L182.33 349.141C182.33 349.071 182.33 348.991 182.33 348.891L181.75 343.541L162.63 349.381C162.63 349.381 163.63 351.621 165.01 354.761C167.52 360.511 171.21 369.261 172.01 372.761C172.07 373.046 172.15 373.327 172.25 373.601C174.02 378.651 180.76 383.241 180.76 383.241L162.65 404.401L157.3 400.661C156.615 401.168 155.893 401.622 155.14 402.021C151.62 403.931 144.24 406.741 136.14 402.451C132.63 400.478 129.582 397.777 127.2 394.531C113 376.091 106.82 361.001 108.83 343.331C110.84 325.661 190.36 271.131 206.14 271.701L229.61 276.881C230.12 276.461 231.49 275.381 232.55 275.431C236.82 275.651 236.93 280.611 236.93 280.611L289.53 289.151C289.53 289.151 294.98 286.421 295.93 286.461C296.617 286.507 297.281 286.724 297.863 287.093C298.444 287.461 298.925 287.969 299.26 288.571C299.26 288.571 312.88 280.411 317.26 282.311C331.68 288.531 403.44 323.401 392.79 339.581Z" fill="#92E3A9"/>
<path opacity="0.2" d="M210.05 426C204.073 432.57 196.047 436.923 187.28 438.35C184.51 438.79 182.08 439.23 179.95 439.67C180.706 438.292 181.694 437.054 182.87 436.01C182.87 436.01 182.45 429.77 182.24 423.42C188.41 427.49 199.17 432.19 210.05 426Z" fill="black"/>
<path opacity="0.2" d="M186.44 396.56L187.13 394.35L183.43 359.71C188.96 367.64 208.68 394.65 222.27 397.57C236.48 400.61 198.49 406 186.44 396.56Z" fill="black"/>
<path opacity="0.2" d="M293.63 439.34C278.78 437.65 257.79 433.91 255.69 426.14C252.42 414 268.33 406.72 291 401.41C288.37 403.52 286 404.74 284.19 404.41L293.63 439.34Z" fill="black"/>
<path opacity="0.2" d="M386.05 346.85C364.19 364.95 313.79 373.85 313.79 373.85C313.79 373.85 312.1 376.38 309.5 379.98C302.085 362.276 300.952 342.567 306.29 324.13C306.29 324.13 310.17 345.13 326.29 350.13C326.29 350.13 313.95 340.94 318.29 318.82C318.29 318.82 322.5 344.82 349.89 352.04C363.18 355.61 376.19 351.73 386.05 346.85Z" fill="black"/>
<path opacity="0.2" d="M182.31 349.211L181.71 343.611L162.59 349.451C162.59 349.451 163.59 351.691 164.97 354.831C157.66 354.081 143.79 360.831 141.37 353.471C138.45 344.551 156.37 347.621 156.37 347.621L173.31 337.771C170.11 324.071 178.26 313.771 178.26 313.771L179.81 323.331C180.55 305.161 187.66 295.221 187.66 295.221C181.78 309.591 181.94 345.001 182.31 349.211Z" fill="black"/>
<path opacity="0.2" d="M180.75 383.271L162.64 404.431L157.29 400.691C156.605 401.198 155.883 401.652 155.13 402.051C151.61 403.961 144.23 406.771 136.13 402.481C142 394.361 154.13 382.411 168.54 377.801C165.002 383.065 161.816 388.557 159 394.241L162.72 397.901C162.72 397.901 172 387.321 180.75 383.271Z" fill="black"/>
<path opacity="0.2" d="M224.72 290.07C224.72 291.94 223.54 313.07 238.94 318.7C254.34 324.33 268 314.81 268 314.81C268 314.81 244.39 337.59 230 325.41C215.61 313.23 224.72 290.07 224.72 290.07Z" fill="black"/>
<path d="M180.06 451.77C180.06 451.77 179.23 442.071 179.85 440.011C180.37 438.271 182.85 436.011 182.85 436.011C182.85 436.011 181.54 416.351 182.38 411.281C183.1 406.931 187.12 394.281 187.12 394.281L181.7 343.541L162.58 349.391C162.58 349.391 170.72 367.391 171.98 372.731C173.24 378.071 180.74 383.201 180.74 383.201L162.63 404.351L157.28 400.62C157.28 400.62 141.48 412.981 127.21 394.501C112.94 376.021 106.81 360.971 108.81 343.251C110.81 325.531 190.36 271.06 206.14 271.62L229.61 276.81C230.11 276.39 231.49 275.31 232.54 275.36C236.81 275.58 236.92 280.541 236.92 280.541L289.52 289.08C289.52 289.08 294.98 286.351 295.93 286.391C296.615 286.438 297.278 286.656 297.857 287.025C298.437 287.393 298.916 287.9 299.25 288.501C299.25 288.501 312.87 280.35 317.25 282.24C331.65 288.46 403.4 323.331 392.76 339.511C377.65 362.511 313.76 373.821 313.76 373.821C313.76 373.821 292.51 405.82 284.14 404.34L297.83 454.43" stroke="#373C48" stroke-linecap="round" stroke-linejoin="round"/>
<path d="M337.2 343.09C361.34 359.03 380.8 356.09 396.03 335.57C396.03 335.57 408.71 319.22 407.81 301.57C406.91 283.92 402.7 226.42 347.75 241.12C338.7 243.54 317.59 271.81 315.82 279.58C315 283.13 306.53 301.2 298.3 319.91" fill="#92E3A9"/>
<path d="M337.2 343.09C361.34 359.03 380.8 356.09 396.03 335.57C396.03 335.57 408.71 319.22 407.81 301.57C406.91 283.92 402.7 226.42 347.75 241.12C338.7 243.54 317.59 271.81 315.82 279.58C315 283.13 306.53 301.2 298.3 319.91" stroke="#373C48" stroke-linecap="round" stroke-linejoin="round"/>
<path d="M271.89 174.16C271.89 174.16 287.27 171.83 297.95 181.39C311.46 193.48 326.63 226.08 305.03 280.1C305.03 280.1 273.12 258.92 218.66 273.1C218.66 273.1 223.35 260.43 215.12 220.54C211.4 202.49 220.76 160.91 271.89 174.16Z" fill="#373C48"/>
<path d="M248.58 309.72C271.34 313.41 295.52 288.21 295.52 288.21C295.52 288.21 283.15 286.69 282.04 280.88C278.49 262.55 292.77 239.88 292.77 239.88C292.77 239.88 237.51 241.41 247.17 253.88C248.967 256.161 250.438 258.682 251.54 261.37C254.89 269.6 252.54 275.81 250.79 277.37C250.663 277.474 250.525 277.564 250.38 277.64C247.04 279.16 233.31 276.89 233.31 276.89C233.31 276.89 227.81 306.35 248.58 309.72Z" fill="white" stroke="#373C48" stroke-linecap="round" stroke-linejoin="round"/>
<path d="M287.69 295.19C287.69 295.19 277.19 299.39 261.82 298.14L254.9 301.53" stroke="#373C48" stroke-linecap="round" stroke-linejoin="round"/>
<path d="M248 301L247.5 296.46C247.5 296.46 236.16 292.91 232.65 286.17" stroke="#373C48" stroke-linecap="round" stroke-linejoin="round"/>
<path d="M250.79 277.401C267.71 281.821 275.66 260.121 275.66 260.121C275.66 260.121 262.12 256.121 251.54 261.441C254.89 269.671 252.57 275.881 250.79 277.401Z" fill="#373C48"/>
<path d="M293.75 228.491C297.86 205.381 293.29 177.651 258.11 179.951C232.98 181.591 233.19 209.141 234.85 217.371C237.65 231.201 233.64 236.641 237.95 248.261C241.05 256.611 248.24 265.951 256.71 269.451C261.92 271.601 283.01 256.801 284.57 250.031" fill="white"/>
<path d="M293.75 228.491C297.86 205.381 293.29 177.651 258.11 179.951C232.98 181.591 233.19 209.141 234.85 217.371C237.65 231.201 233.64 236.641 237.95 248.261C241.05 256.611 248.24 265.951 256.71 269.451C261.92 271.601 283.01 256.801 284.57 250.031" stroke="#373C48" stroke-linecap="round" stroke-linejoin="round"/>
<path d="M249.55 221.681C249.34 224.281 249.03 230.681 243.55 235.441C239.99 238.511 248.15 241.651 248.15 241.651" stroke="#373C48" stroke-linecap="round" stroke-linejoin="round"/>
<path d="M243.71 212.51C243.71 212.51 235.95 208.73 230.71 214.97" stroke="#373C48" stroke-linecap="round" stroke-linejoin="round"/>
<path d="M256.73 212C262.186 210.418 268.007 210.649 273.32 212.66" stroke="#373C48" stroke-linecap="round" stroke-linejoin="round"/>
<path d="M264.79 222.93C265.03 225.16 266.53 226.83 268.14 226.65C269.75 226.47 270.86 224.53 270.62 222.3C270.38 220.07 268.88 218.41 267.27 218.58C265.66 218.75 264.55 220.7 264.79 222.93Z" fill="#373C48"/>
<path d="M248.53 249C254.699 248.149 260.615 245.987 265.88 242.66C265.88 242.66 266.61 252.36 258.49 254.37C252.26 255.92 249.85 248.81 249.85 248.81" stroke="#373C48" stroke-linecap="round" stroke-linejoin="round"/>
<path d="M271.35 188.751C271.35 188.751 269.13 216.141 293.3 226.091L304.63 199.761L287.49 180.761L261.68 173.301C223.11 175.711 206.51 199.671 227.92 263.521C227.92 263.551 221.93 187.511 271.35 188.751Z" fill="#373C48"/>
<path d="M288 227.251C287.66 224.171 295.45 216.331 298.08 221.361C302.57 229.941 299.3 237.361 294.66 240.361C292.58 241.671 289.94 244.131 288.09 241.811" fill="white"/>
<path d="M288 227.251C287.66 224.171 295.45 216.331 298.08 221.361C302.57 229.941 299.3 237.361 294.66 240.361C292.58 241.671 289.94 244.131 288.09 241.811" stroke="#373C48" stroke-linecap="round" stroke-linejoin="round"/>
<path d="M241.25 224C241.5 226.23 243 227.9 244.61 227.72C246.22 227.54 247.33 225.6 247.09 223.37C246.85 221.14 245.34 219.47 243.73 219.65C242.12 219.83 241 221.72 241.25 224Z" fill="#373C48"/>
<g opacity="0.2">
<path d="M224.5 219.461C224.21 221.311 224.01 223.191 223.9 225.061" stroke="white" stroke-linecap="round" stroke-linejoin="round"/>
<path d="M267.35 183.771C247.81 183.261 229.65 195.711 225.35 215.261" stroke="white" stroke-linecap="round" stroke-linejoin="round"/>
<path d="M263.86 178.191C263.86 178.191 235.68 171.561 225.12 190.251" stroke="white" stroke-linecap="round" stroke-linejoin="round"/>
<path d="M286.72 210.751C288.419 213.17 290.464 215.326 292.79 217.151" stroke="white" stroke-linecap="round" stroke-linejoin="round"/>
<path d="M275.54 181.841C276.98 190.792 280.008 199.414 284.48 207.301" stroke="white" stroke-linecap="round" stroke-linejoin="round"/>
<path d="M303.85 266.601C303.35 268.841 302.76 271.061 302.1 273.261" stroke="white" stroke-linecap="round" stroke-linejoin="round"/>
<path d="M302.22 229.36C306.79 239.51 306.48 252.14 304.6 262.82" stroke="white" stroke-linecap="round" stroke-linejoin="round"/>
<path d="M298.87 247.001C299.093 250.845 298.5 254.693 297.13 258.292C295.759 261.891 293.643 265.159 290.92 267.881" stroke="white" stroke-linecap="round" stroke-linejoin="round"/>
<path d="M285.88 185.11C290.67 191.59 294.23 198.54 299.78 204.46C305.63 210.69 311.48 217.83 312.58 226.61" stroke="white" stroke-linecap="round" stroke-linejoin="round"/>
<path d="M279.12 178.371C280.492 179.271 281.754 180.328 282.88 181.521" stroke="white" stroke-linecap="round" stroke-linejoin="round"/>
</g>
<path d="M375.51 328.75C374.95 328.87 374.39 328.97 373.81 329.05C358.69 331.21 341.73 318.67 336.01 303.62C331.49 291.73 335.44 278.24 337.6 272.47C338.28 270.66 338.77 269.61 338.77 269.61C347.89 256.61 400.91 282.06 401.53 296.1C402.15 310.14 391 325.35 375.51 328.75Z" fill="#373C48" stroke="#373C48" stroke-linecap="round" stroke-linejoin="round"/>
<path d="M392.1 298C392.1 298 389.1 320.32 373.81 329.05C358.69 331.21 341.73 318.67 336.01 303.62C331.49 291.73 335.44 278.24 337.6 272.47C355.47 262.26 392.1 298 392.1 298Z" fill="white"/>
<mask id="mask1_465_2802" style="mask-type:luminance" maskUnits="userSpaceOnUse" x="333" y="270" width="60" height="60">
<path d="M392.1 298C392.1 298 389.1 320.32 373.81 329.05C358.69 331.21 341.73 318.67 336.01 303.62C331.49 291.73 335.44 278.24 337.6 272.47C355.47 262.26 392.1 298 392.1 298Z" fill="white"/>
</mask>
<g mask="url(#mask1_465_2802)">
<path opacity="0.4" d="M392.1 298C392.1 298 389.1 320.32 373.81 329.05C358.69 331.21 341.73 318.67 336.01 303.62C331.49 291.73 335.44 278.24 337.6 272.47C355.47 262.26 392.1 298 392.1 298Z" fill="#92E3A9"/>
</g>
<path d="M392.1 298C392.1 298 389.1 320.32 373.81 329.05C358.69 331.21 341.73 318.67 336.01 303.62C331.49 291.73 335.44 278.24 337.6 272.47C355.47 262.26 392.1 298 392.1 298Z" stroke="#373C48" stroke-linecap="round" stroke-linejoin="round"/>
<path d="M329.57 309.75C329.57 309.75 346.79 334.47 366.9 336.53C387.01 338.59 399.9 321.65 400.69 308.88" stroke="#373C48" stroke-linecap="round" stroke-linejoin="round"/>
<path d="M319.89 198.2C321.4 193.97 332.26 195.39 335.71 208.59C339.16 221.79 352.71 253.88 352.71 253.88C352.71 253.88 406.71 174.47 416.35 171.41C425.99 168.35 422.2 182.11 409.27 201.2C409.27 201.2 421.38 199.07 424.56 201.2C427.74 203.33 426.19 216.2 427.88 220.66C430.72 228.19 424.41 229.78 424.41 229.78C427.506 229.849 430.483 230.983 432.84 232.99C436.31 236.24 434.57 249.67 435.56 253.47C436.55 257.27 429.93 260.47 429.93 260.47C429.93 260.47 445.84 269.14 442.25 271.32C436.19 274.98 432.74 271.23 432.74 271.23C432.74 271.23 408.29 301.93 389.85 308.77C371.41 315.61 335.52 288.43 331.66 273.63C327.8 258.83 332.41 259.74 329.48 235.11C326.55 210.48 319.89 198.2 319.89 198.2Z" fill="white" stroke="#373C48" stroke-linecap="round" stroke-linejoin="round"/>
<path d="M398.618 149.409L327.514 167.943C324.991 168.601 323.479 171.179 324.137 173.701L357.748 302.643C358.405 305.165 360.983 306.677 363.506 306.019L434.61 287.485C437.132 286.827 438.644 284.249 437.986 281.727L404.376 152.786C403.718 150.263 401.14 148.751 398.618 149.409Z" fill="white" stroke="#373C48" stroke-linecap="round" stroke-linejoin="round"/>
<path d="M357.88 164.231C357.918 164.377 357.927 164.529 357.906 164.679C357.885 164.829 357.835 164.973 357.758 165.104C357.682 165.234 357.58 165.348 357.459 165.44C357.339 165.531 357.201 165.597 357.055 165.636C356.908 165.674 356.756 165.682 356.606 165.662C356.456 165.641 356.312 165.591 356.181 165.514C356.051 165.437 355.937 165.336 355.846 165.215C355.754 165.094 355.688 164.957 355.65 164.811C355.609 164.664 355.598 164.511 355.618 164.36C355.637 164.21 355.687 164.064 355.763 163.933C355.839 163.801 355.941 163.687 356.063 163.595C356.184 163.504 356.322 163.438 356.47 163.401C356.767 163.324 357.082 163.369 357.346 163.525C357.61 163.68 357.802 163.934 357.88 164.231Z" fill="#92E3A9" stroke="#373C48" stroke-linecap="round" stroke-linejoin="round"/>
<path d="M372.53 160.41C372.554 160.502 372.559 160.598 372.546 160.692C372.533 160.786 372.501 160.877 372.453 160.958C372.405 161.04 372.341 161.112 372.265 161.169C372.189 161.225 372.102 161.267 372.01 161.29C371.872 161.325 371.727 161.318 371.593 161.271C371.459 161.223 371.342 161.137 371.257 161.023C371.172 160.91 371.122 160.773 371.114 160.631C371.107 160.489 371.141 160.348 371.213 160.226C371.286 160.103 371.393 160.005 371.521 159.943C371.649 159.882 371.792 159.859 371.933 159.879C372.074 159.899 372.206 159.96 372.312 160.054C372.418 160.149 372.494 160.273 372.53 160.41Z" fill="#92E3A9" stroke="#373C48" stroke-linecap="round" stroke-linejoin="round"/>
<path d="M369.029 162.214L360.445 164.427C360.273 164.471 360.17 164.646 360.214 164.817L360.259 164.992C360.303 165.163 360.478 165.266 360.65 165.222L369.234 163.01C369.406 162.966 369.509 162.791 369.465 162.619L369.42 162.445C369.375 162.273 369.201 162.17 369.029 162.214Z" fill="#92E3A9" stroke="#373C48" stroke-width="1.0017" stroke-linecap="round" stroke-linejoin="round"/>
<path d="M402.24 154.121L435.57 282.001C435.756 282.718 435.65 283.48 435.275 284.119C434.9 284.758 434.287 285.223 433.57 285.411L363.38 303.701C362.663 303.887 361.901 303.78 361.262 303.405C360.623 303.03 360.158 302.418 359.97 301.701L326.64 173.821C326.454 173.103 326.561 172.342 326.936 171.703C327.31 171.063 327.923 170.599 328.64 170.411L343.05 166.651C343.512 166.529 344.001 166.553 344.449 166.717C344.898 166.882 345.286 167.179 345.56 167.571L346.61 169.061C346.884 169.452 347.272 169.75 347.721 169.915C348.17 170.079 348.658 170.102 349.12 169.981L380.75 161.741C381.208 161.621 381.619 161.366 381.929 161.01C382.239 160.653 382.435 160.211 382.49 159.741L382.68 157.931C382.733 157.46 382.927 157.017 383.238 156.659C383.549 156.302 383.961 156.048 384.42 155.931L398.83 152.171C399.541 151.983 400.296 152.083 400.934 152.447C401.572 152.812 402.041 153.413 402.24 154.121Z" fill="#92E3A9" stroke="#373C48" stroke-linecap="round" stroke-linejoin="round"/>
<path d="M404.685 225.88C411.206 210.86 404.317 193.396 389.296 186.875C374.276 180.353 356.812 187.242 350.291 202.263C343.769 217.283 350.658 234.747 365.679 241.269C380.699 247.79 398.163 240.901 404.685 225.88Z" fill="white" stroke="#373C48" stroke-linecap="round" stroke-linejoin="round"/>
<path d="M365.24 231.1C365.493 231.697 365.958 232.178 366.546 232.451C367.133 232.724 367.8 232.77 368.42 232.58L378.17 229.77C378.191 229.98 378.231 230.188 378.29 230.39C378.437 230.9 378.684 231.375 379.016 231.79C379.347 232.204 379.757 232.549 380.222 232.804C380.686 233.06 381.197 233.222 381.724 233.281C382.252 233.339 382.785 233.293 383.295 233.145C383.804 232.998 384.28 232.751 384.694 232.42C385.108 232.088 385.453 231.678 385.709 231.213C385.965 230.749 386.126 230.238 386.185 229.711C386.243 229.184 386.197 228.65 386.05 228.14C385.988 227.938 385.911 227.741 385.82 227.55L395.56 224.74C396.196 224.57 396.745 224.168 397.099 223.612C397.452 223.057 397.585 222.389 397.47 221.74C397.408 221.388 397.273 221.052 397.073 220.756C396.872 220.459 396.612 220.208 396.308 220.019C396.004 219.83 395.663 219.708 395.308 219.66C394.954 219.612 394.593 219.639 394.25 219.74L393.43 219.24C391.652 218.177 390.344 216.48 389.77 214.49L387.92 208.08C387.158 205.441 385.466 203.166 383.158 201.677C380.849 200.188 378.079 199.585 375.36 199.98C375.827 199.488 376.118 198.855 376.19 198.181C376.261 197.506 376.109 196.826 375.756 196.247C375.403 195.667 374.869 195.22 374.236 194.975C373.604 194.729 372.908 194.698 372.256 194.887C371.605 195.076 371.033 195.474 370.631 196.02C370.228 196.566 370.016 197.23 370.028 197.908C370.039 198.587 370.274 199.242 370.696 199.774C371.117 200.306 371.702 200.684 372.36 200.85C369.824 201.958 367.779 203.952 366.608 206.459C365.437 208.967 365.221 211.815 366 214.47L367.87 220.95C368.202 222.082 368.285 223.273 368.112 224.44C367.94 225.607 367.516 226.723 366.87 227.71C366.531 227.813 366.217 227.984 365.949 228.214C365.68 228.444 365.462 228.728 365.308 229.047C365.155 229.365 365.07 229.713 365.058 230.066C365.046 230.42 365.108 230.772 365.24 231.1ZM374.85 197.44C374.948 197.782 374.943 198.146 374.836 198.485C374.728 198.824 374.522 199.124 374.243 199.346C373.965 199.568 373.628 199.703 373.273 199.733C372.918 199.763 372.563 199.687 372.251 199.516C371.939 199.344 371.686 199.083 371.522 198.767C371.358 198.451 371.292 198.094 371.331 197.74C371.371 197.386 371.514 197.052 371.744 196.78C371.973 196.507 372.278 196.309 372.62 196.21C372.847 196.143 373.085 196.122 373.321 196.147C373.556 196.173 373.784 196.245 373.992 196.36C374.199 196.474 374.382 196.628 374.529 196.814C374.676 196.999 374.785 197.212 374.85 197.44Z" fill="#92E3A9" stroke="#373C48" stroke-linecap="round" stroke-linejoin="round"/>
<path d="M384.05 227.71L379.75 228.96" stroke="#373C48" stroke-linecap="round" stroke-linejoin="round"/>
<path d="M390.41 220.83L370.7 226.53" stroke="#373C48" stroke-linecap="round" stroke-linejoin="round"/>
<path d="M411 260.66L371 271.08C369.856 271.382 368.664 271.455 367.492 271.295C366.32 271.136 365.191 270.747 364.169 270.151C363.147 269.554 362.253 268.762 361.538 267.82C360.822 266.878 360.3 265.804 360 264.66C359.698 263.516 359.626 262.323 359.786 261.15C359.946 259.978 360.336 258.848 360.933 257.827C361.53 256.805 362.323 255.911 363.267 255.196C364.21 254.481 365.285 253.959 366.43 253.66L406.43 243.24C408.733 242.646 411.178 242.988 413.229 244.191C415.281 245.394 416.773 247.36 417.38 249.66C417.99 251.965 417.661 254.418 416.465 256.48C415.269 258.542 413.303 260.046 411 260.66Z" fill="#373C48"/>
<path d="M366.59 258.591C366.728 258.356 366.914 258.153 367.137 257.996C367.359 257.839 367.613 257.732 367.88 257.681C368.139 257.594 368.413 257.564 368.684 257.593C368.955 257.622 369.217 257.71 369.45 257.851C369.911 258.193 370.225 258.697 370.33 259.261L370.4 259.521L369.17 259.841L369.08 259.501C369.043 259.277 368.93 259.072 368.76 258.921C368.681 258.87 368.591 258.839 368.497 258.828C368.404 258.818 368.309 258.829 368.22 258.861C368.129 258.876 368.042 258.914 367.967 258.969C367.892 259.025 367.832 259.097 367.79 259.181C367.716 259.394 367.716 259.627 367.79 259.841C367.87 260.169 368.052 260.463 368.31 260.681C368.639 260.941 368.995 261.165 369.37 261.351C369.695 261.514 370.009 261.698 370.31 261.901C370.573 262.083 370.806 262.306 371 262.561C371.223 262.86 371.386 263.2 371.48 263.561C371.661 264.11 371.625 264.707 371.38 265.231C371.07 265.68 370.608 266.003 370.08 266.14C369.551 266.278 368.991 266.221 368.5 265.981C368.027 265.647 367.704 265.141 367.6 264.571L367.47 264.061L368.7 263.741L368.85 264.331C368.99 264.871 369.28 265.081 369.73 264.961C370.18 264.841 370.34 264.521 370.2 263.961C370.118 263.634 369.936 263.34 369.68 263.121C369.353 262.861 368.998 262.64 368.62 262.461C368.298 262.29 367.984 262.103 367.68 261.901C367.417 261.718 367.184 261.496 366.99 261.241C366.766 260.943 366.603 260.603 366.51 260.241C366.335 259.699 366.363 259.113 366.59 258.591Z" fill="white"/>
<path d="M373.47 263.14C373.61 263.67 373.91 263.88 374.36 263.77C374.81 263.66 374.96 263.32 374.82 262.77L373.16 256.39L374.39 256.07L376.03 262.36C376.21 262.909 376.174 263.507 375.93 264.03C375.792 264.268 375.604 264.473 375.38 264.631C375.155 264.79 374.9 264.899 374.63 264.95C374.369 265.033 374.095 265.061 373.823 265.034C373.551 265.006 373.288 264.923 373.05 264.79C372.585 264.444 372.264 263.938 372.15 263.37L370.51 257.08L371.81 256.74L373.47 263.14Z" fill="white"/>
<path d="M378.82 255.43C379.041 255.583 379.23 255.778 379.374 256.005C379.518 256.232 379.615 256.485 379.66 256.75L379.73 257.04C379.84 257.4 379.863 257.78 379.8 258.15C379.736 258.456 379.57 258.731 379.33 258.93C380.04 259.01 380.52 259.52 380.76 260.44L380.93 261.12C381.02 261.379 381.056 261.654 381.035 261.928C381.014 262.201 380.938 262.468 380.81 262.71C380.659 262.942 380.462 263.139 380.232 263.29C380.001 263.442 379.742 263.544 379.47 263.59L377.47 264.13L375.31 255.86L377.31 255.34C377.806 255.181 378.345 255.213 378.82 255.43ZM377.45 258.88L377.96 258.75C378.067 258.732 378.17 258.691 378.261 258.631C378.353 258.571 378.43 258.492 378.49 258.4C378.582 258.166 378.582 257.905 378.49 257.67L378.37 257.21C378.33 256.979 378.214 256.768 378.04 256.61C377.96 256.555 377.869 256.52 377.773 256.508C377.677 256.496 377.58 256.507 377.49 256.54L376.86 256.7L377.45 258.88ZM378.45 262.61L379.19 262.41C379.284 262.396 379.375 262.36 379.454 262.307C379.534 262.253 379.601 262.183 379.65 262.1C379.729 261.881 379.729 261.64 379.65 261.42L379.46 260.7C379.413 260.419 379.272 260.161 379.06 259.97C378.954 259.911 378.837 259.875 378.716 259.865C378.595 259.854 378.474 259.87 378.36 259.91L377.78 260.07L378.45 262.61Z" fill="white"/>
<path d="M380.5 255.001C380.635 254.764 380.82 254.559 381.043 254.402C381.266 254.245 381.521 254.138 381.79 254.091C382.047 254.002 382.321 253.97 382.592 253.998C382.863 254.026 383.125 254.112 383.36 254.251C383.824 254.596 384.141 255.103 384.25 255.671L384.32 255.931L383.09 256.251L383 255.901C382.964 255.676 382.846 255.473 382.67 255.331C382.593 255.279 382.505 255.246 382.413 255.233C382.321 255.221 382.227 255.231 382.14 255.261C382.047 255.276 381.958 255.313 381.882 255.369C381.806 255.424 381.743 255.497 381.7 255.581C381.625 255.794 381.625 256.027 381.7 256.241C381.776 256.568 381.955 256.862 382.21 257.081C382.544 257.338 382.902 257.562 383.28 257.751C383.66 257.951 383.97 258.141 384.22 258.301C384.478 258.489 384.711 258.711 384.91 258.961C385.131 259.259 385.291 259.599 385.38 259.961C385.569 260.508 385.536 261.107 385.29 261.631C385.15 261.867 384.963 262.072 384.738 262.23C384.514 262.389 384.259 262.498 383.99 262.551C383.728 262.635 383.452 262.664 383.178 262.636C382.904 262.609 382.64 262.525 382.4 262.391C381.935 262.046 381.617 261.539 381.51 260.971L381.37 260.471L382.6 260.141L382.76 260.741C382.9 261.271 383.19 261.481 383.64 261.361C384.09 261.241 384.24 260.921 384.1 260.361C384.021 260.037 383.842 259.747 383.59 259.531C383.26 259.268 382.901 259.043 382.52 258.861C382.2 258.691 381.89 258.504 381.59 258.301C381.322 258.124 381.088 257.9 380.9 257.641C380.667 257.347 380.503 257.006 380.42 256.641C380.244 256.103 380.272 255.519 380.5 255.001Z" fill="white"/>
<path d="M389.9 258.76C390.08 259.309 390.045 259.906 389.8 260.43C389.66 260.665 389.472 260.868 389.248 261.025C389.024 261.182 388.769 261.289 388.5 261.34C388.241 261.428 387.965 261.46 387.693 261.432C387.42 261.404 387.156 261.318 386.92 261.18C386.447 260.846 386.124 260.34 386.02 259.77L384.9 255.47C384.716 254.922 384.748 254.325 384.99 253.8C385.129 253.563 385.317 253.359 385.541 253.2C385.765 253.042 386.02 252.933 386.29 252.88C386.552 252.796 386.828 252.767 387.102 252.794C387.375 252.822 387.64 252.905 387.88 253.04C388.345 253.384 388.662 253.892 388.77 254.46L388.98 255.26L387.75 255.58L387.52 254.69C387.38 254.15 387.09 253.94 386.64 254.06C386.19 254.18 386.04 254.5 386.18 255.06L387.34 259.52C387.48 260.06 387.77 260.27 388.22 260.15C388.67 260.03 388.83 259.71 388.69 259.15L388.38 257.97L389.61 257.65L389.9 258.76Z" fill="white"/>
<path d="M393.73 259.47C393.652 259.265 393.588 259.054 393.54 258.84L393.2 257.54C393.151 257.251 393.007 256.987 392.79 256.79C392.683 256.725 392.563 256.685 392.439 256.671C392.314 256.657 392.188 256.67 392.07 256.71L391.63 256.83L392.5 260.2L391.2 260.54L389.05 252.27L391.05 251.75C391.299 251.638 391.571 251.586 391.844 251.6C392.117 251.613 392.383 251.692 392.619 251.829C392.856 251.966 393.056 252.157 393.204 252.387C393.352 252.616 393.443 252.878 393.47 253.15L393.64 253.81C393.769 254.13 393.799 254.481 393.726 254.818C393.653 255.155 393.48 255.463 393.23 255.7C393.553 255.74 393.847 255.905 394.05 256.16C394.29 256.481 394.461 256.849 394.55 257.24L394.88 258.52C394.94 258.75 395 258.94 395.05 259.08C395.107 259.224 395.184 259.359 395.28 259.48L393.96 259.83C393.867 259.721 393.79 259.6 393.73 259.47ZM391.32 255.65L391.82 255.52C391.929 255.499 392.033 255.456 392.126 255.394C392.219 255.333 392.298 255.253 392.36 255.16C392.449 254.929 392.449 254.672 392.36 254.44L392.14 253.62C392.107 253.389 391.993 253.177 391.82 253.02C391.739 252.965 391.646 252.93 391.548 252.918C391.451 252.906 391.352 252.917 391.26 252.95L390.64 253.11L391.32 255.65Z" fill="white"/>
<path d="M395.1 250.69L397.25 258.96L395.95 259.3L393.8 251L395.1 250.69Z" fill="white"/>
<path d="M399.59 250C399.809 250.152 399.995 250.346 400.137 250.571C400.28 250.796 400.376 251.047 400.42 251.31L400.5 251.61C400.605 251.967 400.629 252.343 400.57 252.71C400.502 253.014 400.337 253.288 400.1 253.49C400.81 253.58 401.28 254.08 401.53 255.01L401.7 255.69C401.789 255.948 401.824 256.221 401.803 256.492C401.783 256.764 401.707 257.029 401.58 257.27C401.43 257.503 401.234 257.702 401.003 257.856C400.773 258.009 400.513 258.112 400.24 258.16L398.24 258.69L396 250.44L398 249.93C398.518 249.743 399.09 249.768 399.59 250ZM398.22 253.45L398.73 253.32C398.945 253.276 399.135 253.151 399.26 252.97C399.352 252.735 399.352 252.475 399.26 252.24L399.14 251.78C399.097 251.547 398.982 251.333 398.81 251.17C398.728 251.117 398.635 251.083 398.538 251.071C398.441 251.059 398.343 251.069 398.25 251.1L397.63 251.27L398.22 253.45ZM399.22 257.17L399.96 256.98C400.055 256.962 400.145 256.925 400.224 256.87C400.304 256.814 400.37 256.743 400.42 256.66C400.502 256.444 400.502 256.206 400.42 255.99L400.24 255.27C400.193 254.986 400.052 254.725 399.84 254.53C399.733 254.473 399.616 254.439 399.495 254.43C399.375 254.422 399.254 254.439 399.14 254.48L398.56 254.63L399.22 257.17Z" fill="white"/>
<path d="M404.83 251.87L405.14 253.061L403.35 253.521L403.98 255.941L406.23 255.361L406.54 256.541L402.99 257.46L400.84 249.191L404.38 248.271L404.69 249.451L402.45 250.04L403.05 252.34L404.83 251.87Z" fill="white"/>
<path d="M407.24 247.52C407.501 247.435 407.777 247.404 408.05 247.43C408.324 247.456 408.589 247.537 408.83 247.67C409.292 248.002 409.607 248.501 409.71 249.06L410.8 253.25C410.988 253.791 410.956 254.384 410.71 254.9C410.568 255.134 410.377 255.334 410.151 255.488C409.925 255.641 409.669 255.744 409.4 255.79L407.34 256.33L405.18 248.06L407.24 247.52ZM408.33 254.81L409.06 254.62C409.153 254.602 409.242 254.564 409.319 254.509C409.397 254.454 409.462 254.383 409.51 254.3C409.584 254.087 409.584 253.854 409.51 253.64L408.39 249.34C408.345 249.117 408.225 248.916 408.05 248.77C407.97 248.725 407.882 248.696 407.791 248.685C407.7 248.675 407.607 248.684 407.52 248.71L406.78 248.9L408.33 254.81Z" fill="white"/>
<path d="M313.79 373.89C313.79 373.89 301.65 345.64 307.79 311.38" stroke="#373C48" stroke-linecap="round" stroke-linejoin="round"/>
<path d="M284.17 404.41C284.17 404.41 259.63 411.91 257.17 417.56C254.71 423.21 268.17 418.45 268.17 418.45" stroke="#373C48" stroke-linecap="round" stroke-linejoin="round"/>
<path d="M299.26 288.57C299.26 288.57 276.66 310.97 261.54 316.94" stroke="#373C48" stroke-linecap="round" stroke-linejoin="round"/>
<path d="M225.21 282.551C225.21 282.551 221.09 312.791 236.46 318.501" stroke="#373C48" stroke-linecap="round" stroke-linejoin="round"/>
<path d="M181.71 343.61C181.71 343.61 181.59 303.97 189.46 291.71" stroke="#373C48" stroke-linecap="round" stroke-linejoin="round"/>
<path d="M178.77 303.221C178.77 303.221 176.56 327.841 181.53 335.871" stroke="#373C48" stroke-linecap="round" stroke-linejoin="round"/>
<path d="M162.59 349.46C162.59 349.46 145.4 343.54 141.84 350.88C138.28 358.22 152.09 351.71 152.09 351.71" stroke="#373C48" stroke-linecap="round" stroke-linejoin="round"/>
<path d="M172.93 375.16C172.93 375.16 156.05 384.67 155.18 390.11" stroke="#373C48" stroke-linecap="round" stroke-linejoin="round"/>
<path d="M200.5 348.86C200.5 348.86 232.81 397.69 250.64 393.21" stroke="#373C48" stroke-linecap="round" stroke-linejoin="round"/>
<path d="M222.57 417.351C222.57 417.351 197.24 435.921 193.57 434.351" stroke="#373C48" stroke-linecap="round" stroke-linejoin="round"/>
<path opacity="0.2" d="M400 338.11C401.71 336.71 402.84 335.78 403.21 335.49C402.83 335.82 401.73 336.78 400 338.11Z" fill="black"/>
</svg>
